ISO-10303-21;
HEADER;
/* Generated by software containing ST-Developer
 * from STEP Tools, Inc. (www.steptools.com) 
 */

FILE_DESCRIPTION(
/* description */ (''),
/* implementation_level */ '2;1');

FILE_NAME(
/* name */ 'ACWA-0031_v2.step',
/* time_stamp */ '2025-04-10T12:03:54+02:00',
/* author */ (''),
/* organization */ (''),
/* preprocessor_version */ 'ST-DEVELOPER v20.1',
/* originating_system */ 'Autodesk Translation Framework v14.4.0.0',
/* authorisation */ '');

FILE_SCHEMA (('AUTOMOTIVE_DESIGN { 1 0 10303 214 3 1 1 }'));
ENDSEC;

DATA;
#10=MECHANICAL_DESIGN_GEOMETRIC_PRESENTATION_REPRESENTATION('',(#13),#1797);
#11=SHAPE_REPRESENTATION_RELATIONSHIP('SRR','None',#1804,#12);
#12=ADVANCED_BREP_SHAPE_REPRESENTATION('',(#14),#1796);
#13=STYLED_ITEM('',(#1814),#14);
#14=MANIFOLD_SOLID_BREP('Corps2',#973);
#15=B_SPLINE_CURVE_WITH_KNOTS('',3,(#1382,#1383,#1384,#1385),
 .UNSPECIFIED.,.F.,.F.,(4,4),(0.,1.),.UNSPECIFIED.);
#16=B_SPLINE_CURVE_WITH_KNOTS('',3,(#1388,#1389,#1390,#1391),
 .UNSPECIFIED.,.F.,.F.,(4,4),(0.,1.),.UNSPECIFIED.);
#17=B_SPLINE_CURVE_WITH_KNOTS('',3,(#1409,#1410,#1411,#1412),
 .UNSPECIFIED.,.F.,.F.,(4,4),(0.,1.),.UNSPECIFIED.);
#18=B_SPLINE_CURVE_WITH_KNOTS('',3,(#1415,#1416,#1417,#1418),
 .UNSPECIFIED.,.F.,.F.,(4,4),(0.,1.),.UNSPECIFIED.);
#19=B_SPLINE_CURVE_WITH_KNOTS('',3,(#1445,#1446,#1447,#1448),
 .UNSPECIFIED.,.F.,.F.,(4,4),(0.,1.),.UNSPECIFIED.);
#20=B_SPLINE_CURVE_WITH_KNOTS('',3,(#1451,#1452,#1453,#1454),
 .UNSPECIFIED.,.F.,.F.,(4,4),(0.,1.),.UNSPECIFIED.);
#21=B_SPLINE_CURVE_WITH_KNOTS('',3,(#1472,#1473,#1474,#1475),
 .UNSPECIFIED.,.F.,.F.,(4,4),(0.,1.),.UNSPECIFIED.);
#22=B_SPLINE_CURVE_WITH_KNOTS('',3,(#1478,#1479,#1480,#1481),
 .UNSPECIFIED.,.F.,.F.,(4,4),(0.,1.),.UNSPECIFIED.);
#23=B_SPLINE_CURVE_WITH_KNOTS('',3,(#1508,#1509,#1510,#1511),
 .UNSPECIFIED.,.F.,.F.,(4,4),(0.,1.),.UNSPECIFIED.);
#24=B_SPLINE_CURVE_WITH_KNOTS('',3,(#1514,#1515,#1516,#1517),
 .UNSPECIFIED.,.F.,.F.,(4,4),(0.,1.),.UNSPECIFIED.);
#25=B_SPLINE_CURVE_WITH_KNOTS('',3,(#1535,#1536,#1537,#1538),
 .UNSPECIFIED.,.F.,.F.,(4,4),(0.,1.),.UNSPECIFIED.);
#26=B_SPLINE_CURVE_WITH_KNOTS('',3,(#1541,#1542,#1543,#1544),
 .UNSPECIFIED.,.F.,.F.,(4,4),(0.,1.),.UNSPECIFIED.);
#27=B_SPLINE_CURVE_WITH_KNOTS('',3,(#1571,#1572,#1573,#1574),
 .UNSPECIFIED.,.F.,.F.,(4,4),(0.,1.),.UNSPECIFIED.);
#28=B_SPLINE_CURVE_WITH_KNOTS('',3,(#1577,#1578,#1579,#1580),
 .UNSPECIFIED.,.F.,.F.,(4,4),(0.,1.),.UNSPECIFIED.);
#29=B_SPLINE_CURVE_WITH_KNOTS('',3,(#1598,#1599,#1600,#1601),
 .UNSPECIFIED.,.F.,.F.,(4,4),(0.,1.),.UNSPECIFIED.);
#30=B_SPLINE_CURVE_WITH_KNOTS('',3,(#1604,#1605,#1606,#1607),
 .UNSPECIFIED.,.F.,.F.,(4,4),(0.,1.),.UNSPECIFIED.);
#31=B_SPLINE_CURVE_WITH_KNOTS('',3,(#1634,#1635,#1636,#1637),
 .UNSPECIFIED.,.F.,.F.,(4,4),(0.,1.),.UNSPECIFIED.);
#32=B_SPLINE_CURVE_WITH_KNOTS('',3,(#1640,#1641,#1642,#1643),
 .UNSPECIFIED.,.F.,.F.,(4,4),(0.,1.),.UNSPECIFIED.);
#33=B_SPLINE_CURVE_WITH_KNOTS('',3,(#1661,#1662,#1663,#1664),
 .UNSPECIFIED.,.F.,.F.,(4,4),(0.,1.),.UNSPECIFIED.);
#34=B_SPLINE_CURVE_WITH_KNOTS('',3,(#1667,#1668,#1669,#1670),
 .UNSPECIFIED.,.F.,.F.,(4,4),(0.,1.),.UNSPECIFIED.);
#35=B_SPLINE_CURVE_WITH_KNOTS('',3,(#1715,#1716,#1717,#1718),
 .UNSPECIFIED.,.F.,.F.,(4,4),(0.,1.),.UNSPECIFIED.);
#36=B_SPLINE_CURVE_WITH_KNOTS('',3,(#1722,#1723,#1724,#1725),
 .UNSPECIFIED.,.F.,.F.,(4,4),(0.,1.),.UNSPECIFIED.);
#37=B_SPLINE_CURVE_WITH_KNOTS('',3,(#1749,#1750,#1751,#1752),
 .UNSPECIFIED.,.F.,.F.,(4,4),(0.,1.),.UNSPECIFIED.);
#38=B_SPLINE_CURVE_WITH_KNOTS('',3,(#1769,#1770,#1771,#1772),
 .UNSPECIFIED.,.F.,.F.,(4,4),(0.,1.),.UNSPECIFIED.);
#39=B_SPLINE_SURFACE_WITH_KNOTS('',3,1,((#1371,#1372),(#1373,#1374),(#1375,
#1376),(#1377,#1378),(#1379,#1380)),.UNSPECIFIED.,.F.,.F.,.F.,(4,1,4),(2,
2),(0.,0.0351032247865,1.),(-0.0600000000000008,6.06),.UNSPECIFIED.);
#40=B_SPLINE_SURFACE_WITH_KNOTS('',3,1,((#1398,#1399),(#1400,#1401),(#1402,
#1403),(#1404,#1405),(#1406,#1407)),.UNSPECIFIED.,.F.,.F.,.F.,(4,1,4),(2,
2),(0.,0.03377440632662,1.),(-0.0600000000000002,6.06),.UNSPECIFIED.);
#41=B_SPLINE_SURFACE_WITH_KNOTS('',3,1,((#1434,#1435),(#1436,#1437),(#1438,
#1439),(#1440,#1441),(#1442,#1443)),.UNSPECIFIED.,.F.,.F.,.F.,(4,1,4),(2,
2),(0.,0.0351032247865,1.),(-0.0599999999999999,6.06),.UNSPECIFIED.);
#42=B_SPLINE_SURFACE_WITH_KNOTS('',3,1,((#1461,#1462),(#1463,#1464),(#1465,
#1466),(#1467,#1468),(#1469,#1470)),.UNSPECIFIED.,.F.,.F.,.F.,(4,1,4),(2,
2),(0.,0.03377440632662,1.),(-0.0600000000000019,6.06),.UNSPECIFIED.);
#43=B_SPLINE_SURFACE_WITH_KNOTS('',3,1,((#1497,#1498),(#1499,#1500),(#1501,
#1502),(#1503,#1504),(#1505,#1506)),.UNSPECIFIED.,.F.,.F.,.F.,(4,1,4),(2,
2),(0.,0.0351032247865,1.),(-0.0600000000000002,6.06),.UNSPECIFIED.);
#44=B_SPLINE_SURFACE_WITH_KNOTS('',3,1,((#1524,#1525),(#1526,#1527),(#1528,
#1529),(#1530,#1531),(#1532,#1533)),.UNSPECIFIED.,.F.,.F.,.F.,(4,1,4),(2,
2),(0.,0.03377440632662,1.),(-0.0600000000000002,6.06),.UNSPECIFIED.);
#45=B_SPLINE_SURFACE_WITH_KNOTS('',3,1,((#1560,#1561),(#1562,#1563),(#1564,
#1565),(#1566,#1567),(#1568,#1569)),.UNSPECIFIED.,.F.,.F.,.F.,(4,1,4),(2,
2),(0.,0.0351032247865,1.),(-0.0600000000000019,6.06),.UNSPECIFIED.);
#46=B_SPLINE_SURFACE_WITH_KNOTS('',3,1,((#1587,#1588),(#1589,#1590),(#1591,
#1592),(#1593,#1594),(#1595,#1596)),.UNSPECIFIED.,.F.,.F.,.F.,(4,1,4),(2,
2),(0.,0.03377440632662,1.),(-0.0600000000000004,6.06),.UNSPECIFIED.);
#47=B_SPLINE_SURFACE_WITH_KNOTS('',3,1,((#1623,#1624),(#1625,#1626),(#1627,
#1628),(#1629,#1630),(#1631,#1632)),.UNSPECIFIED.,.F.,.F.,.F.,(4,1,4),(2,
2),(0.,0.0351032247865,1.),(-0.0600000000000002,6.06),.UNSPECIFIED.);
#48=B_SPLINE_SURFACE_WITH_KNOTS('',3,1,((#1650,#1651),(#1652,#1653),(#1654,
#1655),(#1656,#1657),(#1658,#1659)),.UNSPECIFIED.,.F.,.F.,.F.,(4,1,4),(2,
2),(0.,0.03377440632662,1.),(-0.0600000000000002,6.06),.UNSPECIFIED.);
#49=B_SPLINE_SURFACE_WITH_KNOTS('',3,1,((#1738,#1739),(#1740,#1741),(#1742,
#1743),(#1744,#1745),(#1746,#1747)),.UNSPECIFIED.,.F.,.F.,.F.,(4,1,4),(2,
2),(0.,0.0351032247865,1.),(-0.0600000000000019,6.06),.UNSPECIFIED.);
#50=B_SPLINE_SURFACE_WITH_KNOTS('',3,1,((#1758,#1759),(#1760,#1761),(#1762,
#1763),(#1764,#1765),(#1766,#1767)),.UNSPECIFIED.,.F.,.F.,.F.,(4,1,4),(2,
2),(0.,0.03377440632662,1.),(-0.0600000000000002,6.06),.UNSPECIFIED.);
#51=LINE('',#1331,#123);
#52=LINE('',#1336,#124);
#53=LINE('',#1340,#125);
#54=LINE('',#1343,#126);
#55=LINE('',#1347,#127);
#56=LINE('',#1354,#128);
#57=LINE('',#1361,#129);
#58=LINE('',#1365,#130);
#59=LINE('',#1367,#131);
#60=LINE('',#1369,#132);
#61=LINE('',#1370,#133);
#62=LINE('',#1387,#134);
#63=LINE('',#1396,#135);
#64=LINE('',#1414,#136);
#65=LINE('',#1421,#137);
#66=LINE('',#1423,#138);
#67=LINE('',#1424,#139);
#68=LINE('',#1428,#140);
#69=LINE('',#1430,#141);
#70=LINE('',#1432,#142);
#71=LINE('',#1433,#143);
#72=LINE('',#1450,#144);
#73=LINE('',#1459,#145);
#74=LINE('',#1477,#146);
#75=LINE('',#1484,#147);
#76=LINE('',#1486,#148);
#77=LINE('',#1487,#149);
#78=LINE('',#1491,#150);
#79=LINE('',#1493,#151);
#80=LINE('',#1495,#152);
#81=LINE('',#1496,#153);
#82=LINE('',#1513,#154);
#83=LINE('',#1522,#155);
#84=LINE('',#1540,#156);
#85=LINE('',#1548,#157);
#86=LINE('',#1549,#158);
#87=LINE('',#1550,#159);
#88=LINE('',#1554,#160);
#89=LINE('',#1556,#161);
#90=LINE('',#1558,#162);
#91=LINE('',#1559,#163);
#92=LINE('',#1576,#164);
#93=LINE('',#1585,#165);
#94=LINE('',#1603,#166);
#95=LINE('',#1610,#167);
#96=LINE('',#1612,#168);
#97=LINE('',#1613,#169);
#98=LINE('',#1617,#170);
#99=LINE('',#1619,#171);
#100=LINE('',#1621,#172);
#101=LINE('',#1622,#173);
#102=LINE('',#1639,#174);
#103=LINE('',#1648,#175);
#104=LINE('',#1666,#176);
#105=LINE('',#1673,#177);
#106=LINE('',#1675,#178);
#107=LINE('',#1676,#179);
#108=LINE('',#1680,#180);
#109=LINE('',#1684,#181);
#110=LINE('',#1689,#182);
#111=LINE('',#1693,#183);
#112=LINE('',#1699,#184);
#113=LINE('',#1713,#185);
#114=LINE('',#1727,#186);
#115=LINE('',#1735,#187);
#116=LINE('',#1736,#188);
#117=LINE('',#1737,#189);
#118=LINE('',#1753,#190);
#119=LINE('',#1757,#191);
#120=LINE('',#1773,#192);
#121=LINE('',#1776,#193);
#122=LINE('',#1777,#194);
#123=VECTOR('',#1086,2.5);
#124=VECTOR('',#1091,5.);
#125=VECTOR('',#1094,10.);
#126=VECTOR('',#1097,5.);
#127=VECTOR('',#1100,10.);
#128=VECTOR('',#1109,10.);
#129=VECTOR('',#1118,10.);
#130=VECTOR('',#1121,0.0131557247154501);
#131=VECTOR('',#1122,6.);
#132=VECTOR('',#1123,0.0131557247154501);
#133=VECTOR('',#1124,6.);
#134=VECTOR('',#1125,6.);
#135=VECTOR('',#1130,6.);
#136=VECTOR('',#1133,6.);
#137=VECTOR('',#1136,0.0131557247154495);
#138=VECTOR('',#1137,6.);
#139=VECTOR('',#1138,0.0131557247154495);
#140=VECTOR('',#1141,0.0131557247154504);
#141=VECTOR('',#1142,6.);
#142=VECTOR('',#1143,0.0131557247154504);
#143=VECTOR('',#1144,6.);
#144=VECTOR('',#1145,6.);
#145=VECTOR('',#1150,6.);
#146=VECTOR('',#1153,6.);
#147=VECTOR('',#1156,0.0131557247154504);
#148=VECTOR('',#1157,6.);
#149=VECTOR('',#1158,0.0131557247154504);
#150=VECTOR('',#1161,6.);
#151=VECTOR('',#1162,0.01315572471545);
#152=VECTOR('',#1163,6.);
#153=VECTOR('',#1164,0.01315572471545);
#154=VECTOR('',#1165,6.);
#155=VECTOR('',#1170,6.);
#156=VECTOR('',#1173,6.);
#157=VECTOR('',#1176,6.);
#158=VECTOR('',#1177,0.0131557247154506);
#159=VECTOR('',#1178,0.0131557247154506);
#160=VECTOR('',#1181,0.0131557247154497);
#161=VECTOR('',#1182,6.);
#162=VECTOR('',#1183,0.0131557247154497);
#163=VECTOR('',#1184,6.);
#164=VECTOR('',#1185,6.);
#165=VECTOR('',#1190,6.);
#166=VECTOR('',#1193,6.);
#167=VECTOR('',#1196,0.0131557247154503);
#168=VECTOR('',#1197,6.);
#169=VECTOR('',#1198,0.0131557247154503);
#170=VECTOR('',#1201,0.0131557247154495);
#171=VECTOR('',#1202,6.);
#172=VECTOR('',#1203,0.0131557247154495);
#173=VECTOR('',#1204,6.);
#174=VECTOR('',#1205,6.);
#175=VECTOR('',#1210,6.);
#176=VECTOR('',#1213,6.);
#177=VECTOR('',#1216,0.0131557247154504);
#178=VECTOR('',#1217,6.);
#179=VECTOR('',#1218,0.0131557247154504);
#180=VECTOR('',#1221,6.);
#181=VECTOR('',#1224,6.);
#182=VECTOR('',#1229,6.);
#183=VECTOR('',#1232,6.);
#184=VECTOR('',#1239,2.5);
#185=VECTOR('',#1262,0.0131557247154494);
#186=VECTOR('',#1265,0.0131557247154495);
#187=VECTOR('',#1276,0.0131557247154494);
#188=VECTOR('',#1277,6.);
#189=VECTOR('',#1278,6.);
#190=VECTOR('',#1279,6.);
#191=VECTOR('',#1284,6.);
#192=VECTOR('',#1285,6.);
#193=VECTOR('',#1288,0.0131557247154495);
#194=VECTOR('',#1289,6.);
#195=CYLINDRICAL_SURFACE('',#990,2.5);
#196=CYLINDRICAL_SURFACE('',#992,5.);
#197=CYLINDRICAL_SURFACE('',#999,50.);
#198=CYLINDRICAL_SURFACE('',#1002,50.);
#199=CYLINDRICAL_SURFACE('',#1006,6.3);
#200=CYLINDRICAL_SURFACE('',#1011,6.3);
#201=CYLINDRICAL_SURFACE('',#1016,6.3);
#202=CYLINDRICAL_SURFACE('',#1021,6.3);
#203=CYLINDRICAL_SURFACE('',#1026,6.3);
#204=CYLINDRICAL_SURFACE('',#1030,5.);
#205=CYLINDRICAL_SURFACE('',#1033,5.);
#206=CYLINDRICAL_SURFACE('',#1036,2.5);
#207=CYLINDRICAL_SURFACE('',#1041,5.);
#208=CYLINDRICAL_SURFACE('',#1055,6.3);
#209=CYLINDRICAL_SURFACE('',#1058,5.625);
#210=CYLINDRICAL_SURFACE('',#1060,5.625);
#211=CYLINDRICAL_SURFACE('',#1062,5.625);
#212=CYLINDRICAL_SURFACE('',#1064,5.625);
#213=CYLINDRICAL_SURFACE('',#1066,5.625);
#214=CYLINDRICAL_SURFACE('',#1068,5.625);
#215=CYLINDRICAL_SURFACE('',#1070,5.625);
#216=FACE_BOUND('',#273,.T.);
#217=FACE_BOUND('',#277,.T.);
#218=FACE_BOUND('',#309,.T.);
#219=FACE_BOUND('',#311,.T.);
#220=FACE_BOUND('',#327,.T.);
#221=FACE_OUTER_BOUND('',#272,.T.);
#222=FACE_OUTER_BOUND('',#274,.T.);
#223=FACE_OUTER_BOUND('',#275,.T.);
#224=FACE_OUTER_BOUND('',#276,.T.);
#225=FACE_OUTER_BOUND('',#278,.T.);
#226=FACE_OUTER_BOUND('',#279,.T.);
#227=FACE_OUTER_BOUND('',#280,.T.);
#228=FACE_OUTER_BOUND('',#281,.T.);
#229=FACE_OUTER_BOUND('',#282,.T.);
#230=FACE_OUTER_BOUND('',#283,.T.);
#231=FACE_OUTER_BOUND('',#284,.T.);
#232=FACE_OUTER_BOUND('',#285,.T.);
#233=FACE_OUTER_BOUND('',#286,.T.);
#234=FACE_OUTER_BOUND('',#287,.T.);
#235=FACE_OUTER_BOUND('',#288,.T.);
#236=FACE_OUTER_BOUND('',#289,.T.);
#237=FACE_OUTER_BOUND('',#290,.T.);
#238=FACE_OUTER_BOUND('',#291,.T.);
#239=FACE_OUTER_BOUND('',#292,.T.);
#240=FACE_OUTER_BOUND('',#293,.T.);
#241=FACE_OUTER_BOUND('',#294,.T.);
#242=FACE_OUTER_BOUND('',#295,.T.);
#243=FACE_OUTER_BOUND('',#296,.T.);
#244=FACE_OUTER_BOUND('',#297,.T.);
#245=FACE_OUTER_BOUND('',#298,.T.);
#246=FACE_OUTER_BOUND('',#299,.T.);
#247=FACE_OUTER_BOUND('',#300,.T.);
#248=FACE_OUTER_BOUND('',#301,.T.);
#249=FACE_OUTER_BOUND('',#302,.T.);
#250=FACE_OUTER_BOUND('',#303,.T.);
#251=FACE_OUTER_BOUND('',#304,.T.);
#252=FACE_OUTER_BOUND('',#305,.T.);
#253=FACE_OUTER_BOUND('',#306,.T.);
#254=FACE_OUTER_BOUND('',#307,.T.);
#255=FACE_OUTER_BOUND('',#308,.T.);
#256=FACE_OUTER_BOUND('',#310,.T.);
#257=FACE_OUTER_BOUND('',#312,.T.);
#258=FACE_OUTER_BOUND('',#313,.T.);
#259=FACE_OUTER_BOUND('',#314,.T.);
#260=FACE_OUTER_BOUND('',#315,.T.);
#261=FACE_OUTER_BOUND('',#316,.T.);
#262=FACE_OUTER_BOUND('',#317,.T.);
#263=FACE_OUTER_BOUND('',#318,.T.);
#264=FACE_OUTER_BOUND('',#319,.T.);
#265=FACE_OUTER_BOUND('',#320,.T.);
#266=FACE_OUTER_BOUND('',#321,.T.);
#267=FACE_OUTER_BOUND('',#322,.T.);
#268=FACE_OUTER_BOUND('',#323,.T.);
#269=FACE_OUTER_BOUND('',#324,.T.);
#270=FACE_OUTER_BOUND('',#325,.T.);
#271=FACE_OUTER_BOUND('',#326,.T.);
#272=EDGE_LOOP('',(#616));
#273=EDGE_LOOP('',(#617));
#274=EDGE_LOOP('',(#618,#619,#620,#621));
#275=EDGE_LOOP('',(#622,#623,#624,#625,#626,#627,#628,#629,#630,#631,#632,
#633));
#276=EDGE_LOOP('',(#634));
#277=EDGE_LOOP('',(#635));
#278=EDGE_LOOP('',(#636,#637,#638,#639));
#279=EDGE_LOOP('',(#640,#641,#642,#643));
#280=EDGE_LOOP('',(#644,#645,#646,#647));
#281=EDGE_LOOP('',(#648,#649,#650,#651));
#282=EDGE_LOOP('',(#652,#653,#654,#655));
#283=EDGE_LOOP('',(#656,#657,#658,#659));
#284=EDGE_LOOP('',(#660,#661,#662,#663));
#285=EDGE_LOOP('',(#664,#665,#666,#667));
#286=EDGE_LOOP('',(#668,#669,#670,#671));
#287=EDGE_LOOP('',(#672,#673,#674,#675));
#288=EDGE_LOOP('',(#676,#677,#678,#679));
#289=EDGE_LOOP('',(#680,#681,#682,#683));
#290=EDGE_LOOP('',(#684,#685,#686,#687));
#291=EDGE_LOOP('',(#688,#689,#690,#691));
#292=EDGE_LOOP('',(#692,#693,#694,#695));
#293=EDGE_LOOP('',(#696,#697,#698,#699));
#294=EDGE_LOOP('',(#700,#701,#702,#703));
#295=EDGE_LOOP('',(#704,#705,#706,#707));
#296=EDGE_LOOP('',(#708,#709,#710,#711));
#297=EDGE_LOOP('',(#712,#713,#714,#715));
#298=EDGE_LOOP('',(#716,#717,#718,#719));
#299=EDGE_LOOP('',(#720,#721,#722,#723));
#300=EDGE_LOOP('',(#724,#725,#726,#727));
#301=EDGE_LOOP('',(#728,#729,#730,#731));
#302=EDGE_LOOP('',(#732,#733,#734,#735));
#303=EDGE_LOOP('',(#736,#737,#738,#739));
#304=EDGE_LOOP('',(#740,#741,#742,#743));
#305=EDGE_LOOP('',(#744,#745,#746,#747));
#306=EDGE_LOOP('',(#748,#749,#750,#751));
#307=EDGE_LOOP('',(#752,#753,#754,#755));
#308=EDGE_LOOP('',(#756,#757,#758,#759,#760));
#309=EDGE_LOOP('',(#761));
#310=EDGE_LOOP('',(#762,#763,#764,#765));
#311=EDGE_LOOP('',(#766,#767,#768,#769));
#312=EDGE_LOOP('',(#770,#771,#772,#773,#774,#775,#776,#777,#778,#779,#780,
#781,#782,#783,#784,#785,#786,#787,#788,#789,#790,#791,#792,#793,#794,#795,
#796,#797,#798,#799,#800,#801,#802,#803,#804,#805,#806,#807,#808,#809));
#313=EDGE_LOOP('',(#810,#811,#812,#813));
#314=EDGE_LOOP('',(#814,#815,#816,#817));
#315=EDGE_LOOP('',(#818,#819,#820,#821));
#316=EDGE_LOOP('',(#822,#823,#824,#825));
#317=EDGE_LOOP('',(#826,#827,#828,#829));
#318=EDGE_LOOP('',(#830,#831,#832,#833));
#319=EDGE_LOOP('',(#834,#835,#836,#837));
#320=EDGE_LOOP('',(#838,#839,#840,#841));
#321=EDGE_LOOP('',(#842,#843,#844,#845));
#322=EDGE_LOOP('',(#846,#847,#848,#849));
#323=EDGE_LOOP('',(#850,#851,#852,#853));
#324=EDGE_LOOP('',(#854,#855,#856,#857));
#325=EDGE_LOOP('',(#858,#859,#860,#861,#862,#863,#864,#865,#866,#867,#868,
#869,#870,#871,#872,#873,#874,#875,#876,#877,#878,#879,#880,#881,#882,#883,
#884,#885,#886,#887,#888,#889,#890,#891,#892,#893,#894,#895,#896,#897));
#326=EDGE_LOOP('',(#898,#899,#900,#901,#902));
#327=EDGE_LOOP('',(#903));
#328=CIRCLE('',#988,5.);
#329=CIRCLE('',#989,2.5);
#330=CIRCLE('',#991,2.5);
#331=CIRCLE('',#993,5.);
#332=CIRCLE('',#994,5.);
#333=CIRCLE('',#995,5.);
#334=CIRCLE('',#996,5.);
#335=CIRCLE('',#997,5.);
#336=CIRCLE('',#1000,50.);
#337=CIRCLE('',#1001,50.);
#338=CIRCLE('',#1003,50.);
#339=CIRCLE('',#1004,50.);
#340=CIRCLE('',#1007,6.3);
#341=CIRCLE('',#1008,6.3);
#342=CIRCLE('',#1012,6.3);
#343=CIRCLE('',#1013,6.3);
#344=CIRCLE('',#1017,6.3);
#345=CIRCLE('',#1018,6.3);
#346=CIRCLE('',#1022,6.3);
#347=CIRCLE('',#1023,6.3);
#348=CIRCLE('',#1027,6.3);
#349=CIRCLE('',#1028,6.3);
#350=CIRCLE('',#1031,5.);
#351=CIRCLE('',#1032,5.);
#352=CIRCLE('',#1034,5.);
#353=CIRCLE('',#1035,5.);
#354=CIRCLE('',#1037,2.5);
#355=CIRCLE('',#1038,2.5);
#356=CIRCLE('',#1040,5.);
#357=CIRCLE('',#1042,5.);
#358=CIRCLE('',#1043,5.);
#359=CIRCLE('',#1044,5.);
#360=CIRCLE('',#1046,5.625);
#361=CIRCLE('',#1047,5.625);
#362=CIRCLE('',#1048,5.625);
#363=CIRCLE('',#1049,6.3);
#364=CIRCLE('',#1050,5.625);
#365=CIRCLE('',#1051,5.625);
#366=CIRCLE('',#1052,5.625);
#367=CIRCLE('',#1053,5.625);
#368=CIRCLE('',#1056,6.3);
#369=CIRCLE('',#1059,5.625);
#370=CIRCLE('',#1061,5.625);
#371=CIRCLE('',#1063,5.625);
#372=CIRCLE('',#1065,5.625);
#373=CIRCLE('',#1067,5.625);
#374=CIRCLE('',#1069,5.625);
#375=CIRCLE('',#1071,5.625);
#376=VERTEX_POINT('',#1324);
#377=VERTEX_POINT('',#1326);
#378=VERTEX_POINT('',#1329);
#379=VERTEX_POINT('',#1333);
#380=VERTEX_POINT('',#1335);
#381=VERTEX_POINT('',#1337);
#382=VERTEX_POINT('',#1339);
#383=VERTEX_POINT('',#1341);
#384=VERTEX_POINT('',#1344);
#385=VERTEX_POINT('',#1346);
#386=VERTEX_POINT('',#1351);
#387=VERTEX_POINT('',#1353);
#388=VERTEX_POINT('',#1357);
#389=VERTEX_POINT('',#1359);
#390=VERTEX_POINT('',#1363);
#391=VERTEX_POINT('',#1364);
#392=VERTEX_POINT('',#1366);
#393=VERTEX_POINT('',#1368);
#394=VERTEX_POINT('',#1381);
#395=VERTEX_POINT('',#1386);
#396=VERTEX_POINT('',#1393);
#397=VERTEX_POINT('',#1395);
#398=VERTEX_POINT('',#1408);
#399=VERTEX_POINT('',#1413);
#400=VERTEX_POINT('',#1420);
#401=VERTEX_POINT('',#1422);
#402=VERTEX_POINT('',#1426);
#403=VERTEX_POINT('',#1427);
#404=VERTEX_POINT('',#1429);
#405=VERTEX_POINT('',#1431);
#406=VERTEX_POINT('',#1444);
#407=VERTEX_POINT('',#1449);
#408=VERTEX_POINT('',#1456);
#409=VERTEX_POINT('',#1458);
#410=VERTEX_POINT('',#1471);
#411=VERTEX_POINT('',#1476);
#412=VERTEX_POINT('',#1483);
#413=VERTEX_POINT('',#1485);
#414=VERTEX_POINT('',#1489);
#415=VERTEX_POINT('',#1490);
#416=VERTEX_POINT('',#1492);
#417=VERTEX_POINT('',#1494);
#418=VERTEX_POINT('',#1507);
#419=VERTEX_POINT('',#1512);
#420=VERTEX_POINT('',#1519);
#421=VERTEX_POINT('',#1521);
#422=VERTEX_POINT('',#1534);
#423=VERTEX_POINT('',#1539);
#424=VERTEX_POINT('',#1546);
#425=VERTEX_POINT('',#1547);
#426=VERTEX_POINT('',#1552);
#427=VERTEX_POINT('',#1553);
#428=VERTEX_POINT('',#1555);
#429=VERTEX_POINT('',#1557);
#430=VERTEX_POINT('',#1570);
#431=VERTEX_POINT('',#1575);
#432=VERTEX_POINT('',#1582);
#433=VERTEX_POINT('',#1584);
#434=VERTEX_POINT('',#1597);
#435=VERTEX_POINT('',#1602);
#436=VERTEX_POINT('',#1609);
#437=VERTEX_POINT('',#1611);
#438=VERTEX_POINT('',#1615);
#439=VERTEX_POINT('',#1616);
#440=VERTEX_POINT('',#1618);
#441=VERTEX_POINT('',#1620);
#442=VERTEX_POINT('',#1633);
#443=VERTEX_POINT('',#1638);
#444=VERTEX_POINT('',#1645);
#445=VERTEX_POINT('',#1647);
#446=VERTEX_POINT('',#1660);
#447=VERTEX_POINT('',#1665);
#448=VERTEX_POINT('',#1672);
#449=VERTEX_POINT('',#1674);
#450=VERTEX_POINT('',#1678);
#451=VERTEX_POINT('',#1679);
#452=VERTEX_POINT('',#1681);
#453=VERTEX_POINT('',#1683);
#454=VERTEX_POINT('',#1687);
#455=VERTEX_POINT('',#1688);
#456=VERTEX_POINT('',#1690);
#457=VERTEX_POINT('',#1692);
#458=VERTEX_POINT('',#1696);
#459=VERTEX_POINT('',#1698);
#460=VERTEX_POINT('',#1710);
#461=VERTEX_POINT('',#1712);
#462=VERTEX_POINT('',#1714);
#463=VERTEX_POINT('',#1719);
#464=VERTEX_POINT('',#1721);
#465=VERTEX_POINT('',#1726);
#466=VERTEX_POINT('',#1733);
#467=VERTEX_POINT('',#1734);
#468=VERTEX_POINT('',#1748);
#469=VERTEX_POINT('',#1755);
#470=VERTEX_POINT('',#1768);
#471=VERTEX_POINT('',#1775);
#472=EDGE_CURVE('',#376,#376,#328,.T.);
#473=EDGE_CURVE('',#377,#377,#329,.T.);
#474=EDGE_CURVE('',#378,#378,#330,.T.);
#475=EDGE_CURVE('',#378,#377,#51,.T.);
#476=EDGE_CURVE('',#379,#379,#331,.T.);
#477=EDGE_CURVE('',#379,#380,#52,.T.);
#478=EDGE_CURVE('',#380,#381,#332,.T.);
#479=EDGE_CURVE('',#381,#382,#53,.T.);
#480=EDGE_CURVE('',#383,#382,#333,.T.);
#481=EDGE_CURVE('',#383,#376,#54,.T.);
#482=EDGE_CURVE('',#384,#383,#334,.T.);
#483=EDGE_CURVE('',#385,#384,#55,.T.);
#484=EDGE_CURVE('',#385,#380,#335,.T.);
#485=EDGE_CURVE('',#381,#386,#336,.T.);
#486=EDGE_CURVE('',#386,#387,#56,.T.);
#487=EDGE_CURVE('',#382,#387,#337,.T.);
#488=EDGE_CURVE('',#388,#385,#338,.T.);
#489=EDGE_CURVE('',#389,#384,#339,.T.);
#490=EDGE_CURVE('',#388,#389,#57,.T.);
#491=EDGE_CURVE('',#390,#391,#58,.T.);
#492=EDGE_CURVE('',#391,#392,#59,.T.);
#493=EDGE_CURVE('',#393,#392,#60,.T.);
#494=EDGE_CURVE('',#390,#393,#61,.T.);
#495=EDGE_CURVE('',#391,#394,#15,.T.);
#496=EDGE_CURVE('',#394,#395,#62,.T.);
#497=EDGE_CURVE('',#392,#395,#16,.T.);
#498=EDGE_CURVE('',#394,#396,#340,.T.);
#499=EDGE_CURVE('',#396,#397,#63,.T.);
#500=EDGE_CURVE('',#395,#397,#341,.T.);
#501=EDGE_CURVE('',#396,#398,#17,.T.);
#502=EDGE_CURVE('',#398,#399,#64,.T.);
#503=EDGE_CURVE('',#397,#399,#18,.T.);
#504=EDGE_CURVE('',#398,#400,#65,.T.);
#505=EDGE_CURVE('',#400,#401,#66,.T.);
#506=EDGE_CURVE('',#399,#401,#67,.T.);
#507=EDGE_CURVE('',#402,#403,#68,.T.);
#508=EDGE_CURVE('',#403,#404,#69,.T.);
#509=EDGE_CURVE('',#405,#404,#70,.T.);
#510=EDGE_CURVE('',#402,#405,#71,.T.);
#511=EDGE_CURVE('',#403,#406,#19,.T.);
#512=EDGE_CURVE('',#406,#407,#72,.T.);
#513=EDGE_CURVE('',#404,#407,#20,.T.);
#514=EDGE_CURVE('',#406,#408,#342,.T.);
#515=EDGE_CURVE('',#408,#409,#73,.T.);
#516=EDGE_CURVE('',#407,#409,#343,.T.);
#517=EDGE_CURVE('',#408,#410,#21,.T.);
#518=EDGE_CURVE('',#410,#411,#74,.T.);
#519=EDGE_CURVE('',#409,#411,#22,.T.);
#520=EDGE_CURVE('',#410,#412,#75,.T.);
#521=EDGE_CURVE('',#412,#413,#76,.T.);
#522=EDGE_CURVE('',#411,#413,#77,.T.);
#523=EDGE_CURVE('',#414,#415,#78,.T.);
#524=EDGE_CURVE('',#414,#416,#79,.T.);
#525=EDGE_CURVE('',#416,#417,#80,.T.);
#526=EDGE_CURVE('',#415,#417,#81,.T.);
#527=EDGE_CURVE('',#416,#418,#23,.T.);
#528=EDGE_CURVE('',#418,#419,#82,.T.);
#529=EDGE_CURVE('',#417,#419,#24,.T.);
#530=EDGE_CURVE('',#418,#420,#344,.T.);
#531=EDGE_CURVE('',#420,#421,#83,.T.);
#532=EDGE_CURVE('',#419,#421,#345,.T.);
#533=EDGE_CURVE('',#420,#422,#25,.T.);
#534=EDGE_CURVE('',#422,#423,#84,.T.);
#535=EDGE_CURVE('',#421,#423,#26,.T.);
#536=EDGE_CURVE('',#424,#425,#85,.T.);
#537=EDGE_CURVE('',#423,#425,#86,.T.);
#538=EDGE_CURVE('',#422,#424,#87,.T.);
#539=EDGE_CURVE('',#426,#427,#88,.T.);
#540=EDGE_CURVE('',#427,#428,#89,.T.);
#541=EDGE_CURVE('',#429,#428,#90,.T.);
#542=EDGE_CURVE('',#426,#429,#91,.T.);
#543=EDGE_CURVE('',#427,#430,#27,.T.);
#544=EDGE_CURVE('',#430,#431,#92,.T.);
#545=EDGE_CURVE('',#428,#431,#28,.T.);
#546=EDGE_CURVE('',#430,#432,#346,.T.);
#547=EDGE_CURVE('',#432,#433,#93,.T.);
#548=EDGE_CURVE('',#431,#433,#347,.T.);
#549=EDGE_CURVE('',#432,#434,#29,.T.);
#550=EDGE_CURVE('',#434,#435,#94,.T.);
#551=EDGE_CURVE('',#433,#435,#30,.T.);
#552=EDGE_CURVE('',#434,#436,#95,.T.);
#553=EDGE_CURVE('',#436,#437,#96,.T.);
#554=EDGE_CURVE('',#435,#437,#97,.T.);
#555=EDGE_CURVE('',#438,#439,#98,.T.);
#556=EDGE_CURVE('',#439,#440,#99,.T.);
#557=EDGE_CURVE('',#441,#440,#100,.T.);
#558=EDGE_CURVE('',#438,#441,#101,.T.);
#559=EDGE_CURVE('',#439,#442,#31,.T.);
#560=EDGE_CURVE('',#442,#443,#102,.T.);
#561=EDGE_CURVE('',#440,#443,#32,.T.);
#562=EDGE_CURVE('',#442,#444,#348,.T.);
#563=EDGE_CURVE('',#444,#445,#103,.T.);
#564=EDGE_CURVE('',#443,#445,#349,.T.);
#565=EDGE_CURVE('',#444,#446,#33,.T.);
#566=EDGE_CURVE('',#446,#447,#104,.T.);
#567=EDGE_CURVE('',#445,#447,#34,.T.);
#568=EDGE_CURVE('',#446,#448,#105,.T.);
#569=EDGE_CURVE('',#448,#449,#106,.T.);
#570=EDGE_CURVE('',#447,#449,#107,.T.);
#571=EDGE_CURVE('',#450,#451,#108,.T.);
#572=EDGE_CURVE('',#452,#451,#350,.T.);
#573=EDGE_CURVE('',#453,#452,#109,.T.);
#574=EDGE_CURVE('',#450,#453,#351,.T.);
#575=EDGE_CURVE('',#454,#455,#110,.T.);
#576=EDGE_CURVE('',#456,#455,#352,.T.);
#577=EDGE_CURVE('',#457,#456,#111,.T.);
#578=EDGE_CURVE('',#454,#457,#353,.T.);
#579=EDGE_CURVE('',#458,#458,#354,.T.);
#580=EDGE_CURVE('',#458,#459,#112,.T.);
#581=EDGE_CURVE('',#459,#459,#355,.T.);
#582=EDGE_CURVE('',#387,#389,#356,.T.);
#583=EDGE_CURVE('',#388,#386,#357,.T.);
#584=EDGE_CURVE('',#456,#453,#358,.T.);
#585=EDGE_CURVE('',#452,#457,#359,.T.);
#586=EDGE_CURVE('',#455,#393,#360,.T.);
#587=EDGE_CURVE('',#401,#405,#361,.T.);
#588=EDGE_CURVE('',#413,#460,#362,.T.);
#589=EDGE_CURVE('',#460,#461,#113,.T.);
#590=EDGE_CURVE('',#461,#462,#35,.T.);
#591=EDGE_CURVE('',#462,#463,#363,.T.);
#592=EDGE_CURVE('',#463,#464,#36,.T.);
#593=EDGE_CURVE('',#464,#465,#114,.T.);
#594=EDGE_CURVE('',#465,#415,#364,.T.);
#595=EDGE_CURVE('',#425,#429,#365,.T.);
#596=EDGE_CURVE('',#437,#441,#366,.T.);
#597=EDGE_CURVE('',#449,#450,#367,.T.);
#598=EDGE_CURVE('',#466,#467,#115,.T.);
#599=EDGE_CURVE('',#467,#461,#116,.T.);
#600=EDGE_CURVE('',#466,#460,#117,.T.);
#601=EDGE_CURVE('',#467,#468,#37,.T.);
#602=EDGE_CURVE('',#468,#462,#118,.T.);
#603=EDGE_CURVE('',#468,#469,#368,.T.);
#604=EDGE_CURVE('',#469,#463,#119,.T.);
#605=EDGE_CURVE('',#469,#470,#38,.T.);
#606=EDGE_CURVE('',#470,#464,#120,.T.);
#607=EDGE_CURVE('',#470,#471,#121,.T.);
#608=EDGE_CURVE('',#471,#465,#122,.T.);
#609=EDGE_CURVE('',#451,#448,#369,.T.);
#610=EDGE_CURVE('',#390,#454,#370,.T.);
#611=EDGE_CURVE('',#438,#436,#371,.T.);
#612=EDGE_CURVE('',#426,#424,#372,.T.);
#613=EDGE_CURVE('',#402,#400,#373,.T.);
#614=EDGE_CURVE('',#466,#412,#374,.T.);
#615=EDGE_CURVE('',#414,#471,#375,.T.);
#616=ORIENTED_EDGE('',*,*,#472,.T.);
#617=ORIENTED_EDGE('',*,*,#473,.T.);
#618=ORIENTED_EDGE('',*,*,#474,.F.);
#619=ORIENTED_EDGE('',*,*,#475,.T.);
#620=ORIENTED_EDGE('',*,*,#473,.F.);
#621=ORIENTED_EDGE('',*,*,#475,.F.);
#622=ORIENTED_EDGE('',*,*,#476,.F.);
#623=ORIENTED_EDGE('',*,*,#477,.T.);
#624=ORIENTED_EDGE('',*,*,#478,.T.);
#625=ORIENTED_EDGE('',*,*,#479,.T.);
#626=ORIENTED_EDGE('',*,*,#480,.F.);
#627=ORIENTED_EDGE('',*,*,#481,.T.);
#628=ORIENTED_EDGE('',*,*,#472,.F.);
#629=ORIENTED_EDGE('',*,*,#481,.F.);
#630=ORIENTED_EDGE('',*,*,#482,.F.);
#631=ORIENTED_EDGE('',*,*,#483,.F.);
#632=ORIENTED_EDGE('',*,*,#484,.T.);
#633=ORIENTED_EDGE('',*,*,#477,.F.);
#634=ORIENTED_EDGE('',*,*,#476,.T.);
#635=ORIENTED_EDGE('',*,*,#474,.T.);
#636=ORIENTED_EDGE('',*,*,#485,.T.);
#637=ORIENTED_EDGE('',*,*,#486,.T.);
#638=ORIENTED_EDGE('',*,*,#487,.F.);
#639=ORIENTED_EDGE('',*,*,#479,.F.);
#640=ORIENTED_EDGE('',*,*,#488,.T.);
#641=ORIENTED_EDGE('',*,*,#483,.T.);
#642=ORIENTED_EDGE('',*,*,#489,.F.);
#643=ORIENTED_EDGE('',*,*,#490,.F.);
#644=ORIENTED_EDGE('',*,*,#491,.T.);
#645=ORIENTED_EDGE('',*,*,#492,.T.);
#646=ORIENTED_EDGE('',*,*,#493,.F.);
#647=ORIENTED_EDGE('',*,*,#494,.F.);
#648=ORIENTED_EDGE('',*,*,#495,.T.);
#649=ORIENTED_EDGE('',*,*,#496,.T.);
#650=ORIENTED_EDGE('',*,*,#497,.F.);
#651=ORIENTED_EDGE('',*,*,#492,.F.);
#652=ORIENTED_EDGE('',*,*,#498,.T.);
#653=ORIENTED_EDGE('',*,*,#499,.T.);
#654=ORIENTED_EDGE('',*,*,#500,.F.);
#655=ORIENTED_EDGE('',*,*,#496,.F.);
#656=ORIENTED_EDGE('',*,*,#501,.T.);
#657=ORIENTED_EDGE('',*,*,#502,.T.);
#658=ORIENTED_EDGE('',*,*,#503,.F.);
#659=ORIENTED_EDGE('',*,*,#499,.F.);
#660=ORIENTED_EDGE('',*,*,#504,.T.);
#661=ORIENTED_EDGE('',*,*,#505,.T.);
#662=ORIENTED_EDGE('',*,*,#506,.F.);
#663=ORIENTED_EDGE('',*,*,#502,.F.);
#664=ORIENTED_EDGE('',*,*,#507,.T.);
#665=ORIENTED_EDGE('',*,*,#508,.T.);
#666=ORIENTED_EDGE('',*,*,#509,.F.);
#667=ORIENTED_EDGE('',*,*,#510,.F.);
#668=ORIENTED_EDGE('',*,*,#511,.T.);
#669=ORIENTED_EDGE('',*,*,#512,.T.);
#670=ORIENTED_EDGE('',*,*,#513,.F.);
#671=ORIENTED_EDGE('',*,*,#508,.F.);
#672=ORIENTED_EDGE('',*,*,#514,.T.);
#673=ORIENTED_EDGE('',*,*,#515,.T.);
#674=ORIENTED_EDGE('',*,*,#516,.F.);
#675=ORIENTED_EDGE('',*,*,#512,.F.);
#676=ORIENTED_EDGE('',*,*,#517,.T.);
#677=ORIENTED_EDGE('',*,*,#518,.T.);
#678=ORIENTED_EDGE('',*,*,#519,.F.);
#679=ORIENTED_EDGE('',*,*,#515,.F.);
#680=ORIENTED_EDGE('',*,*,#520,.T.);
#681=ORIENTED_EDGE('',*,*,#521,.T.);
#682=ORIENTED_EDGE('',*,*,#522,.F.);
#683=ORIENTED_EDGE('',*,*,#518,.F.);
#684=ORIENTED_EDGE('',*,*,#523,.F.);
#685=ORIENTED_EDGE('',*,*,#524,.T.);
#686=ORIENTED_EDGE('',*,*,#525,.T.);
#687=ORIENTED_EDGE('',*,*,#526,.F.);
#688=ORIENTED_EDGE('',*,*,#527,.T.);
#689=ORIENTED_EDGE('',*,*,#528,.T.);
#690=ORIENTED_EDGE('',*,*,#529,.F.);
#691=ORIENTED_EDGE('',*,*,#525,.F.);
#692=ORIENTED_EDGE('',*,*,#530,.T.);
#693=ORIENTED_EDGE('',*,*,#531,.T.);
#694=ORIENTED_EDGE('',*,*,#532,.F.);
#695=ORIENTED_EDGE('',*,*,#528,.F.);
#696=ORIENTED_EDGE('',*,*,#533,.T.);
#697=ORIENTED_EDGE('',*,*,#534,.T.);
#698=ORIENTED_EDGE('',*,*,#535,.F.);
#699=ORIENTED_EDGE('',*,*,#531,.F.);
#700=ORIENTED_EDGE('',*,*,#536,.T.);
#701=ORIENTED_EDGE('',*,*,#537,.F.);
#702=ORIENTED_EDGE('',*,*,#534,.F.);
#703=ORIENTED_EDGE('',*,*,#538,.T.);
#704=ORIENTED_EDGE('',*,*,#539,.T.);
#705=ORIENTED_EDGE('',*,*,#540,.T.);
#706=ORIENTED_EDGE('',*,*,#541,.F.);
#707=ORIENTED_EDGE('',*,*,#542,.F.);
#708=ORIENTED_EDGE('',*,*,#543,.T.);
#709=ORIENTED_EDGE('',*,*,#544,.T.);
#710=ORIENTED_EDGE('',*,*,#545,.F.);
#711=ORIENTED_EDGE('',*,*,#540,.F.);
#712=ORIENTED_EDGE('',*,*,#546,.T.);
#713=ORIENTED_EDGE('',*,*,#547,.T.);
#714=ORIENTED_EDGE('',*,*,#548,.F.);
#715=ORIENTED_EDGE('',*,*,#544,.F.);
#716=ORIENTED_EDGE('',*,*,#549,.T.);
#717=ORIENTED_EDGE('',*,*,#550,.T.);
#718=ORIENTED_EDGE('',*,*,#551,.F.);
#719=ORIENTED_EDGE('',*,*,#547,.F.);
#720=ORIENTED_EDGE('',*,*,#552,.T.);
#721=ORIENTED_EDGE('',*,*,#553,.T.);
#722=ORIENTED_EDGE('',*,*,#554,.F.);
#723=ORIENTED_EDGE('',*,*,#550,.F.);
#724=ORIENTED_EDGE('',*,*,#555,.T.);
#725=ORIENTED_EDGE('',*,*,#556,.T.);
#726=ORIENTED_EDGE('',*,*,#557,.F.);
#727=ORIENTED_EDGE('',*,*,#558,.F.);
#728=ORIENTED_EDGE('',*,*,#559,.T.);
#729=ORIENTED_EDGE('',*,*,#560,.T.);
#730=ORIENTED_EDGE('',*,*,#561,.F.);
#731=ORIENTED_EDGE('',*,*,#556,.F.);
#732=ORIENTED_EDGE('',*,*,#562,.T.);
#733=ORIENTED_EDGE('',*,*,#563,.T.);
#734=ORIENTED_EDGE('',*,*,#564,.F.);
#735=ORIENTED_EDGE('',*,*,#560,.F.);
#736=ORIENTED_EDGE('',*,*,#565,.T.);
#737=ORIENTED_EDGE('',*,*,#566,.T.);
#738=ORIENTED_EDGE('',*,*,#567,.F.);
#739=ORIENTED_EDGE('',*,*,#563,.F.);
#740=ORIENTED_EDGE('',*,*,#568,.T.);
#741=ORIENTED_EDGE('',*,*,#569,.T.);
#742=ORIENTED_EDGE('',*,*,#570,.F.);
#743=ORIENTED_EDGE('',*,*,#566,.F.);
#744=ORIENTED_EDGE('',*,*,#571,.T.);
#745=ORIENTED_EDGE('',*,*,#572,.F.);
#746=ORIENTED_EDGE('',*,*,#573,.F.);
#747=ORIENTED_EDGE('',*,*,#574,.F.);
#748=ORIENTED_EDGE('',*,*,#575,.T.);
#749=ORIENTED_EDGE('',*,*,#576,.F.);
#750=ORIENTED_EDGE('',*,*,#577,.F.);
#751=ORIENTED_EDGE('',*,*,#578,.F.);
#752=ORIENTED_EDGE('',*,*,#579,.F.);
#753=ORIENTED_EDGE('',*,*,#580,.T.);
#754=ORIENTED_EDGE('',*,*,#581,.T.);
#755=ORIENTED_EDGE('',*,*,#580,.F.);
#756=ORIENTED_EDGE('',*,*,#582,.T.);
#757=ORIENTED_EDGE('',*,*,#489,.T.);
#758=ORIENTED_EDGE('',*,*,#482,.T.);
#759=ORIENTED_EDGE('',*,*,#480,.T.);
#760=ORIENTED_EDGE('',*,*,#487,.T.);
#761=ORIENTED_EDGE('',*,*,#579,.T.);
#762=ORIENTED_EDGE('',*,*,#490,.T.);
#763=ORIENTED_EDGE('',*,*,#582,.F.);
#764=ORIENTED_EDGE('',*,*,#486,.F.);
#765=ORIENTED_EDGE('',*,*,#583,.F.);
#766=ORIENTED_EDGE('',*,*,#577,.T.);
#767=ORIENTED_EDGE('',*,*,#584,.T.);
#768=ORIENTED_EDGE('',*,*,#573,.T.);
#769=ORIENTED_EDGE('',*,*,#585,.T.);
#770=ORIENTED_EDGE('',*,*,#584,.F.);
#771=ORIENTED_EDGE('',*,*,#576,.T.);
#772=ORIENTED_EDGE('',*,*,#586,.T.);
#773=ORIENTED_EDGE('',*,*,#493,.T.);
#774=ORIENTED_EDGE('',*,*,#497,.T.);
#775=ORIENTED_EDGE('',*,*,#500,.T.);
#776=ORIENTED_EDGE('',*,*,#503,.T.);
#777=ORIENTED_EDGE('',*,*,#506,.T.);
#778=ORIENTED_EDGE('',*,*,#587,.T.);
#779=ORIENTED_EDGE('',*,*,#509,.T.);
#780=ORIENTED_EDGE('',*,*,#513,.T.);
#781=ORIENTED_EDGE('',*,*,#516,.T.);
#782=ORIENTED_EDGE('',*,*,#519,.T.);
#783=ORIENTED_EDGE('',*,*,#522,.T.);
#784=ORIENTED_EDGE('',*,*,#588,.T.);
#785=ORIENTED_EDGE('',*,*,#589,.T.);
#786=ORIENTED_EDGE('',*,*,#590,.T.);
#787=ORIENTED_EDGE('',*,*,#591,.T.);
#788=ORIENTED_EDGE('',*,*,#592,.T.);
#789=ORIENTED_EDGE('',*,*,#593,.T.);
#790=ORIENTED_EDGE('',*,*,#594,.T.);
#791=ORIENTED_EDGE('',*,*,#526,.T.);
#792=ORIENTED_EDGE('',*,*,#529,.T.);
#793=ORIENTED_EDGE('',*,*,#532,.T.);
#794=ORIENTED_EDGE('',*,*,#535,.T.);
#795=ORIENTED_EDGE('',*,*,#537,.T.);
#796=ORIENTED_EDGE('',*,*,#595,.T.);
#797=ORIENTED_EDGE('',*,*,#541,.T.);
#798=ORIENTED_EDGE('',*,*,#545,.T.);
#799=ORIENTED_EDGE('',*,*,#548,.T.);
#800=ORIENTED_EDGE('',*,*,#551,.T.);
#801=ORIENTED_EDGE('',*,*,#554,.T.);
#802=ORIENTED_EDGE('',*,*,#596,.T.);
#803=ORIENTED_EDGE('',*,*,#557,.T.);
#804=ORIENTED_EDGE('',*,*,#561,.T.);
#805=ORIENTED_EDGE('',*,*,#564,.T.);
#806=ORIENTED_EDGE('',*,*,#567,.T.);
#807=ORIENTED_EDGE('',*,*,#570,.T.);
#808=ORIENTED_EDGE('',*,*,#597,.T.);
#809=ORIENTED_EDGE('',*,*,#574,.T.);
#810=ORIENTED_EDGE('',*,*,#598,.T.);
#811=ORIENTED_EDGE('',*,*,#599,.T.);
#812=ORIENTED_EDGE('',*,*,#589,.F.);
#813=ORIENTED_EDGE('',*,*,#600,.F.);
#814=ORIENTED_EDGE('',*,*,#601,.T.);
#815=ORIENTED_EDGE('',*,*,#602,.T.);
#816=ORIENTED_EDGE('',*,*,#590,.F.);
#817=ORIENTED_EDGE('',*,*,#599,.F.);
#818=ORIENTED_EDGE('',*,*,#603,.T.);
#819=ORIENTED_EDGE('',*,*,#604,.T.);
#820=ORIENTED_EDGE('',*,*,#591,.F.);
#821=ORIENTED_EDGE('',*,*,#602,.F.);
#822=ORIENTED_EDGE('',*,*,#605,.T.);
#823=ORIENTED_EDGE('',*,*,#606,.T.);
#824=ORIENTED_EDGE('',*,*,#592,.F.);
#825=ORIENTED_EDGE('',*,*,#604,.F.);
#826=ORIENTED_EDGE('',*,*,#607,.T.);
#827=ORIENTED_EDGE('',*,*,#608,.T.);
#828=ORIENTED_EDGE('',*,*,#593,.F.);
#829=ORIENTED_EDGE('',*,*,#606,.F.);
#830=ORIENTED_EDGE('',*,*,#571,.F.);
#831=ORIENTED_EDGE('',*,*,#597,.F.);
#832=ORIENTED_EDGE('',*,*,#569,.F.);
#833=ORIENTED_EDGE('',*,*,#609,.F.);
#834=ORIENTED_EDGE('',*,*,#575,.F.);
#835=ORIENTED_EDGE('',*,*,#610,.F.);
#836=ORIENTED_EDGE('',*,*,#494,.T.);
#837=ORIENTED_EDGE('',*,*,#586,.F.);
#838=ORIENTED_EDGE('',*,*,#553,.F.);
#839=ORIENTED_EDGE('',*,*,#611,.F.);
#840=ORIENTED_EDGE('',*,*,#558,.T.);
#841=ORIENTED_EDGE('',*,*,#596,.F.);
#842=ORIENTED_EDGE('',*,*,#542,.T.);
#843=ORIENTED_EDGE('',*,*,#595,.F.);
#844=ORIENTED_EDGE('',*,*,#536,.F.);
#845=ORIENTED_EDGE('',*,*,#612,.F.);
#846=ORIENTED_EDGE('',*,*,#505,.F.);
#847=ORIENTED_EDGE('',*,*,#613,.F.);
#848=ORIENTED_EDGE('',*,*,#510,.T.);
#849=ORIENTED_EDGE('',*,*,#587,.F.);
#850=ORIENTED_EDGE('',*,*,#521,.F.);
#851=ORIENTED_EDGE('',*,*,#614,.F.);
#852=ORIENTED_EDGE('',*,*,#600,.T.);
#853=ORIENTED_EDGE('',*,*,#588,.F.);
#854=ORIENTED_EDGE('',*,*,#608,.F.);
#855=ORIENTED_EDGE('',*,*,#615,.F.);
#856=ORIENTED_EDGE('',*,*,#523,.T.);
#857=ORIENTED_EDGE('',*,*,#594,.F.);
#858=ORIENTED_EDGE('',*,*,#609,.T.);
#859=ORIENTED_EDGE('',*,*,#568,.F.);
#860=ORIENTED_EDGE('',*,*,#565,.F.);
#861=ORIENTED_EDGE('',*,*,#562,.F.);
#862=ORIENTED_EDGE('',*,*,#559,.F.);
#863=ORIENTED_EDGE('',*,*,#555,.F.);
#864=ORIENTED_EDGE('',*,*,#611,.T.);
#865=ORIENTED_EDGE('',*,*,#552,.F.);
#866=ORIENTED_EDGE('',*,*,#549,.F.);
#867=ORIENTED_EDGE('',*,*,#546,.F.);
#868=ORIENTED_EDGE('',*,*,#543,.F.);
#869=ORIENTED_EDGE('',*,*,#539,.F.);
#870=ORIENTED_EDGE('',*,*,#612,.T.);
#871=ORIENTED_EDGE('',*,*,#538,.F.);
#872=ORIENTED_EDGE('',*,*,#533,.F.);
#873=ORIENTED_EDGE('',*,*,#530,.F.);
#874=ORIENTED_EDGE('',*,*,#527,.F.);
#875=ORIENTED_EDGE('',*,*,#524,.F.);
#876=ORIENTED_EDGE('',*,*,#615,.T.);
#877=ORIENTED_EDGE('',*,*,#607,.F.);
#878=ORIENTED_EDGE('',*,*,#605,.F.);
#879=ORIENTED_EDGE('',*,*,#603,.F.);
#880=ORIENTED_EDGE('',*,*,#601,.F.);
#881=ORIENTED_EDGE('',*,*,#598,.F.);
#882=ORIENTED_EDGE('',*,*,#614,.T.);
#883=ORIENTED_EDGE('',*,*,#520,.F.);
#884=ORIENTED_EDGE('',*,*,#517,.F.);
#885=ORIENTED_EDGE('',*,*,#514,.F.);
#886=ORIENTED_EDGE('',*,*,#511,.F.);
#887=ORIENTED_EDGE('',*,*,#507,.F.);
#888=ORIENTED_EDGE('',*,*,#613,.T.);
#889=ORIENTED_EDGE('',*,*,#504,.F.);
#890=ORIENTED_EDGE('',*,*,#501,.F.);
#891=ORIENTED_EDGE('',*,*,#498,.F.);
#892=ORIENTED_EDGE('',*,*,#495,.F.);
#893=ORIENTED_EDGE('',*,*,#491,.F.);
#894=ORIENTED_EDGE('',*,*,#610,.T.);
#895=ORIENTED_EDGE('',*,*,#578,.T.);
#896=ORIENTED_EDGE('',*,*,#585,.F.);
#897=ORIENTED_EDGE('',*,*,#572,.T.);
#898=ORIENTED_EDGE('',*,*,#583,.T.);
#899=ORIENTED_EDGE('',*,*,#485,.F.);
#900=ORIENTED_EDGE('',*,*,#478,.F.);
#901=ORIENTED_EDGE('',*,*,#484,.F.);
#902=ORIENTED_EDGE('',*,*,#488,.F.);
#903=ORIENTED_EDGE('',*,*,#581,.F.);
#904=PLANE('',#987);
#905=PLANE('',#998);
#906=PLANE('',#1005);
#907=PLANE('',#1009);
#908=PLANE('',#1010);
#909=PLANE('',#1014);
#910=PLANE('',#1015);
#911=PLANE('',#1019);
#912=PLANE('',#1020);
#913=PLANE('',#1024);
#914=PLANE('',#1025);
#915=PLANE('',#1029);
#916=PLANE('',#1039);
#917=PLANE('',#1045);
#918=PLANE('',#1054);
#919=PLANE('',#1057);
#920=PLANE('',#1072);
#921=PLANE('',#1073);
#922=ADVANCED_FACE('',(#221,#216),#904,.F.);
#923=ADVANCED_FACE('',(#222),#195,.F.);
#924=ADVANCED_FACE('',(#223),#196,.T.);
#925=ADVANCED_FACE('',(#224,#217),#905,.T.);
#926=ADVANCED_FACE('',(#225),#197,.F.);
#927=ADVANCED_FACE('',(#226),#198,.F.);
#928=ADVANCED_FACE('',(#227),#906,.T.);
#929=ADVANCED_FACE('',(#228),#39,.F.);
#930=ADVANCED_FACE('',(#229),#199,.T.);
#931=ADVANCED_FACE('',(#230),#40,.F.);
#932=ADVANCED_FACE('',(#231),#907,.T.);
#933=ADVANCED_FACE('',(#232),#908,.T.);
#934=ADVANCED_FACE('',(#233),#41,.F.);
#935=ADVANCED_FACE('',(#234),#200,.T.);
#936=ADVANCED_FACE('',(#235),#42,.F.);
#937=ADVANCED_FACE('',(#236),#909,.T.);
#938=ADVANCED_FACE('',(#237),#910,.T.);
#939=ADVANCED_FACE('',(#238),#43,.F.);
#940=ADVANCED_FACE('',(#239),#201,.T.);
#941=ADVANCED_FACE('',(#240),#44,.F.);
#942=ADVANCED_FACE('',(#241),#911,.T.);
#943=ADVANCED_FACE('',(#242),#912,.T.);
#944=ADVANCED_FACE('',(#243),#45,.F.);
#945=ADVANCED_FACE('',(#244),#202,.T.);
#946=ADVANCED_FACE('',(#245),#46,.F.);
#947=ADVANCED_FACE('',(#246),#913,.T.);
#948=ADVANCED_FACE('',(#247),#914,.T.);
#949=ADVANCED_FACE('',(#248),#47,.F.);
#950=ADVANCED_FACE('',(#249),#203,.T.);
#951=ADVANCED_FACE('',(#250),#48,.F.);
#952=ADVANCED_FACE('',(#251),#915,.T.);
#953=ADVANCED_FACE('',(#252),#204,.F.);
#954=ADVANCED_FACE('',(#253),#205,.F.);
#955=ADVANCED_FACE('',(#254),#206,.F.);
#956=ADVANCED_FACE('',(#255,#218),#916,.F.);
#957=ADVANCED_FACE('',(#256,#219),#207,.T.);
#958=ADVANCED_FACE('',(#257),#917,.T.);
#959=ADVANCED_FACE('',(#258),#918,.T.);
#960=ADVANCED_FACE('',(#259),#49,.F.);
#961=ADVANCED_FACE('',(#260),#208,.T.);
#962=ADVANCED_FACE('',(#261),#50,.F.);
#963=ADVANCED_FACE('',(#262),#919,.T.);
#964=ADVANCED_FACE('',(#263),#209,.T.);
#965=ADVANCED_FACE('',(#264),#210,.T.);
#966=ADVANCED_FACE('',(#265),#211,.T.);
#967=ADVANCED_FACE('',(#266),#212,.T.);
#968=ADVANCED_FACE('',(#267),#213,.T.);
#969=ADVANCED_FACE('',(#268),#214,.T.);
#970=ADVANCED_FACE('',(#269),#215,.T.);
#971=ADVANCED_FACE('',(#270),#920,.F.);
#972=ADVANCED_FACE('',(#271,#220),#921,.T.);
#973=CLOSED_SHELL('',(#922,#923,#924,#925,#926,#927,#928,#929,#930,#931,
#932,#933,#934,#935,#936,#937,#938,#939,#940,#941,#942,#943,#944,#945,#946,
#947,#948,#949,#950,#951,#952,#953,#954,#955,#956,#957,#958,#959,#960,#961,
#962,#963,#964,#965,#966,#967,#968,#969,#970,#971,#972));
#974=DERIVED_UNIT_ELEMENT(#976,1.);
#975=DERIVED_UNIT_ELEMENT(#1799,-3.);
#976=(
MASS_UNIT()
NAMED_UNIT(*)
SI_UNIT(.KILO.,.GRAM.)
);
#977=DERIVED_UNIT((#974,#975));
#978=MEASURE_REPRESENTATION_ITEM('density measure',
POSITIVE_RATIO_MEASURE(7850.),#977);
#979=PROPERTY_DEFINITION_REPRESENTATION(#984,#981);
#980=PROPERTY_DEFINITION_REPRESENTATION(#985,#982);
#981=REPRESENTATION('material name',(#983),#1796);
#982=REPRESENTATION('density',(#978),#1796);
#983=DESCRIPTIVE_REPRESENTATION_ITEM('Acier','Acier');
#984=PROPERTY_DEFINITION('material property','material name',#1806);
#985=PROPERTY_DEFINITION('material property','density of part',#1806);
#986=AXIS2_PLACEMENT_3D('',#1322,#1074,#1075);
#987=AXIS2_PLACEMENT_3D('',#1323,#1076,#1077);
#988=AXIS2_PLACEMENT_3D('',#1325,#1078,#1079);
#989=AXIS2_PLACEMENT_3D('',#1327,#1080,#1081);
#990=AXIS2_PLACEMENT_3D('',#1328,#1082,#1083);
#991=AXIS2_PLACEMENT_3D('',#1330,#1084,#1085);
#992=AXIS2_PLACEMENT_3D('',#1332,#1087,#1088);
#993=AXIS2_PLACEMENT_3D('',#1334,#1089,#1090);
#994=AXIS2_PLACEMENT_3D('',#1338,#1092,#1093);
#995=AXIS2_PLACEMENT_3D('',#1342,#1095,#1096);
#996=AXIS2_PLACEMENT_3D('',#1345,#1098,#1099);
#997=AXIS2_PLACEMENT_3D('',#1348,#1101,#1102);
#998=AXIS2_PLACEMENT_3D('',#1349,#1103,#1104);
#999=AXIS2_PLACEMENT_3D('',#1350,#1105,#1106);
#1000=AXIS2_PLACEMENT_3D('',#1352,#1107,#1108);
#1001=AXIS2_PLACEMENT_3D('',#1355,#1110,#1111);
#1002=AXIS2_PLACEMENT_3D('',#1356,#1112,#1113);
#1003=AXIS2_PLACEMENT_3D('',#1358,#1114,#1115);
#1004=AXIS2_PLACEMENT_3D('',#1360,#1116,#1117);
#1005=AXIS2_PLACEMENT_3D('',#1362,#1119,#1120);
#1006=AXIS2_PLACEMENT_3D('',#1392,#1126,#1127);
#1007=AXIS2_PLACEMENT_3D('',#1394,#1128,#1129);
#1008=AXIS2_PLACEMENT_3D('',#1397,#1131,#1132);
#1009=AXIS2_PLACEMENT_3D('',#1419,#1134,#1135);
#1010=AXIS2_PLACEMENT_3D('',#1425,#1139,#1140);
#1011=AXIS2_PLACEMENT_3D('',#1455,#1146,#1147);
#1012=AXIS2_PLACEMENT_3D('',#1457,#1148,#1149);
#1013=AXIS2_PLACEMENT_3D('',#1460,#1151,#1152);
#1014=AXIS2_PLACEMENT_3D('',#1482,#1154,#1155);
#1015=AXIS2_PLACEMENT_3D('',#1488,#1159,#1160);
#1016=AXIS2_PLACEMENT_3D('',#1518,#1166,#1167);
#1017=AXIS2_PLACEMENT_3D('',#1520,#1168,#1169);
#1018=AXIS2_PLACEMENT_3D('',#1523,#1171,#1172);
#1019=AXIS2_PLACEMENT_3D('',#1545,#1174,#1175);
#1020=AXIS2_PLACEMENT_3D('',#1551,#1179,#1180);
#1021=AXIS2_PLACEMENT_3D('',#1581,#1186,#1187);
#1022=AXIS2_PLACEMENT_3D('',#1583,#1188,#1189);
#1023=AXIS2_PLACEMENT_3D('',#1586,#1191,#1192);
#1024=AXIS2_PLACEMENT_3D('',#1608,#1194,#1195);
#1025=AXIS2_PLACEMENT_3D('',#1614,#1199,#1200);
#1026=AXIS2_PLACEMENT_3D('',#1644,#1206,#1207);
#1027=AXIS2_PLACEMENT_3D('',#1646,#1208,#1209);
#1028=AXIS2_PLACEMENT_3D('',#1649,#1211,#1212);
#1029=AXIS2_PLACEMENT_3D('',#1671,#1214,#1215);
#1030=AXIS2_PLACEMENT_3D('',#1677,#1219,#1220);
#1031=AXIS2_PLACEMENT_3D('',#1682,#1222,#1223);
#1032=AXIS2_PLACEMENT_3D('',#1685,#1225,#1226);
#1033=AXIS2_PLACEMENT_3D('',#1686,#1227,#1228);
#1034=AXIS2_PLACEMENT_3D('',#1691,#1230,#1231);
#1035=AXIS2_PLACEMENT_3D('',#1694,#1233,#1234);
#1036=AXIS2_PLACEMENT_3D('',#1695,#1235,#1236);
#1037=AXIS2_PLACEMENT_3D('',#1697,#1237,#1238);
#1038=AXIS2_PLACEMENT_3D('',#1700,#1240,#1241);
#1039=AXIS2_PLACEMENT_3D('',#1701,#1242,#1243);
#1040=AXIS2_PLACEMENT_3D('',#1702,#1244,#1245);
#1041=AXIS2_PLACEMENT_3D('',#1703,#1246,#1247);
#1042=AXIS2_PLACEMENT_3D('',#1704,#1248,#1249);
#1043=AXIS2_PLACEMENT_3D('',#1705,#1250,#1251);
#1044=AXIS2_PLACEMENT_3D('',#1706,#1252,#1253);
#1045=AXIS2_PLACEMENT_3D('',#1707,#1254,#1255);
#1046=AXIS2_PLACEMENT_3D('',#1708,#1256,#1257);
#1047=AXIS2_PLACEMENT_3D('',#1709,#1258,#1259);
#1048=AXIS2_PLACEMENT_3D('',#1711,#1260,#1261);
#1049=AXIS2_PLACEMENT_3D('',#1720,#1263,#1264);
#1050=AXIS2_PLACEMENT_3D('',#1728,#1266,#1267);
#1051=AXIS2_PLACEMENT_3D('',#1729,#1268,#1269);
#1052=AXIS2_PLACEMENT_3D('',#1730,#1270,#1271);
#1053=AXIS2_PLACEMENT_3D('',#1731,#1272,#1273);
#1054=AXIS2_PLACEMENT_3D('',#1732,#1274,#1275);
#1055=AXIS2_PLACEMENT_3D('',#1754,#1280,#1281);
#1056=AXIS2_PLACEMENT_3D('',#1756,#1282,#1283);
#1057=AXIS2_PLACEMENT_3D('',#1774,#1286,#1287);
#1058=AXIS2_PLACEMENT_3D('',#1778,#1290,#1291);
#1059=AXIS2_PLACEMENT_3D('',#1779,#1292,#1293);
#1060=AXIS2_PLACEMENT_3D('',#1780,#1294,#1295);
#1061=AXIS2_PLACEMENT_3D('',#1781,#1296,#1297);
#1062=AXIS2_PLACEMENT_3D('',#1782,#1298,#1299);
#1063=AXIS2_PLACEMENT_3D('',#1783,#1300,#1301);
#1064=AXIS2_PLACEMENT_3D('',#1784,#1302,#1303);
#1065=AXIS2_PLACEMENT_3D('',#1785,#1304,#1305);
#1066=AXIS2_PLACEMENT_3D('',#1786,#1306,#1307);
#1067=AXIS2_PLACEMENT_3D('',#1787,#1308,#1309);
#1068=AXIS2_PLACEMENT_3D('',#1788,#1310,#1311);
#1069=AXIS2_PLACEMENT_3D('',#1789,#1312,#1313);
#1070=AXIS2_PLACEMENT_3D('',#1790,#1314,#1315);
#1071=AXIS2_PLACEMENT_3D('',#1791,#1316,#1317);
#1072=AXIS2_PLACEMENT_3D('',#1792,#1318,#1319);
#1073=AXIS2_PLACEMENT_3D('',#1793,#1320,#1321);
#1074=DIRECTION('axis',(0.,0.,1.));
#1075=DIRECTION('refdir',(1.,0.,0.));
#1076=DIRECTION('center_axis',(0.,1.,0.));
#1077=DIRECTION('ref_axis',(-1.,0.,0.));
#1078=DIRECTION('center_axis',(0.,-1.,0.));
#1079=DIRECTION('ref_axis',(-1.,0.,0.));
#1080=DIRECTION('center_axis',(0.,1.,0.));
#1081=DIRECTION('ref_axis',(-1.,0.,0.));
#1082=DIRECTION('center_axis',(0.,1.,0.));
#1083=DIRECTION('ref_axis',(-1.,0.,0.));
#1084=DIRECTION('center_axis',(0.,-1.,0.));
#1085=DIRECTION('ref_axis',(-1.,0.,0.));
#1086=DIRECTION('',(0.,-1.,0.));
#1087=DIRECTION('center_axis',(0.,1.,0.));
#1088=DIRECTION('ref_axis',(-1.,0.,0.));
#1089=DIRECTION('center_axis',(0.,1.,0.));
#1090=DIRECTION('ref_axis',(-1.,0.,0.));
#1091=DIRECTION('',(0.,-1.,0.));
#1092=DIRECTION('center_axis',(0.,1.,0.));
#1093=DIRECTION('ref_axis',(-1.,0.,0.));
#1094=DIRECTION('',(0.,-1.,0.));
#1095=DIRECTION('center_axis',(0.,1.,0.));
#1096=DIRECTION('ref_axis',(-1.,0.,0.));
#1097=DIRECTION('',(0.,-1.,0.));
#1098=DIRECTION('center_axis',(0.,1.,0.));
#1099=DIRECTION('ref_axis',(-1.,0.,0.));
#1100=DIRECTION('',(0.,-1.,0.));
#1101=DIRECTION('center_axis',(0.,1.,0.));
#1102=DIRECTION('ref_axis',(-1.,0.,0.));
#1103=DIRECTION('center_axis',(0.,1.,0.));
#1104=DIRECTION('ref_axis',(-1.,0.,0.));
#1105=DIRECTION('center_axis',(0.,-1.,0.));
#1106=DIRECTION('ref_axis',(0.620151984927954,0.,0.78448168594934));
#1107=DIRECTION('center_axis',(0.,1.,0.));
#1108=DIRECTION('ref_axis',(0.620151984927954,0.,0.78448168594934));
#1109=DIRECTION('',(0.,-1.,0.));
#1110=DIRECTION('center_axis',(0.,1.,0.));
#1111=DIRECTION('ref_axis',(0.620151984927954,0.,0.78448168594934));
#1112=DIRECTION('center_axis',(0.,-1.,0.));
#1113=DIRECTION('ref_axis',(-0.53395450207737,0.,-0.84551321084375));
#1114=DIRECTION('center_axis',(0.,1.,0.));
#1115=DIRECTION('ref_axis',(-0.53395450207737,0.,-0.84551321084375));
#1116=DIRECTION('center_axis',(0.,1.,0.));
#1117=DIRECTION('ref_axis',(-0.53395450207737,0.,-0.84551321084375));
#1118=DIRECTION('',(0.,-1.,0.));
#1119=DIRECTION('center_axis',(-0.453990499739497,0.,0.891006524188393));
#1120=DIRECTION('ref_axis',(0.891006524188394,0.,0.453990499739497));
#1121=DIRECTION('',(0.891006524188393,0.,0.453990499739497));
#1122=DIRECTION('',(0.,1.,0.));
#1123=DIRECTION('',(0.891006524188393,0.,0.453990499739497));
#1124=DIRECTION('',(0.,1.,0.));
#1125=DIRECTION('',(0.,1.,0.));
#1126=DIRECTION('center_axis',(0.,1.,0.));
#1127=DIRECTION('ref_axis',(0.891006524188393,0.,0.453990499739497));
#1128=DIRECTION('center_axis',(0.,1.,0.));
#1129=DIRECTION('ref_axis',(0.906401985096635,0.,0.422416194543817));
#1130=DIRECTION('',(0.,1.,0.));
#1131=DIRECTION('center_axis',(0.,1.,0.));
#1132=DIRECTION('ref_axis',(0.906401985096635,0.,0.422416194543817));
#1133=DIRECTION('',(0.,1.,0.));
#1134=DIRECTION('center_axis',(0.354472635862601,0.,-0.935066388244503));
#1135=DIRECTION('ref_axis',(-0.935066388244503,0.,-0.354472635862601));
#1136=DIRECTION('',(-0.935066388244536,0.,-0.354472635862514));
#1137=DIRECTION('',(0.,1.,0.));
#1138=DIRECTION('',(-0.935066388244536,0.,-0.354472635862514));
#1139=DIRECTION('center_axis',(-0.309016994374891,0.,0.951056516295172));
#1140=DIRECTION('ref_axis',(0.951056516295172,0.,0.309016994374891));
#1141=DIRECTION('',(0.951056516295172,0.,0.309016994374891));
#1142=DIRECTION('',(0.,1.,0.));
#1143=DIRECTION('',(0.951056516295172,0.,0.309016994374891));
#1144=DIRECTION('',(0.,1.,0.));
#1145=DIRECTION('',(0.,1.,0.));
#1146=DIRECTION('center_axis',(0.,1.,0.));
#1147=DIRECTION('ref_axis',(0.951056516295172,0.,0.309016994374891));
#1148=DIRECTION('center_axis',(0.,1.,0.));
#1149=DIRECTION('ref_axis',(0.961323123990024,0.,0.275423040579507));
#1150=DIRECTION('',(0.,1.,0.));
#1151=DIRECTION('center_axis',(0.,1.,0.));
#1152=DIRECTION('ref_axis',(0.961323123990024,0.,0.275423040579507));
#1153=DIRECTION('',(0.,1.,0.));
#1154=DIRECTION('center_axis',(0.203831879279393,0.,-0.979005906514067));
#1155=DIRECTION('ref_axis',(-0.979005906514067,0.,-0.203831879279393));
#1156=DIRECTION('',(-0.979005906514067,0.,-0.203831879279393));
#1157=DIRECTION('',(0.,1.,0.));
#1158=DIRECTION('',(-0.979005906514067,0.,-0.203831879279393));
#1159=DIRECTION('center_axis',(0.,0.,1.));
#1160=DIRECTION('ref_axis',(1.,0.,0.));
#1161=DIRECTION('',(0.,1.,0.));
#1162=DIRECTION('',(1.,0.,-3.490819089129E-14));
#1163=DIRECTION('',(0.,1.,0.));
#1164=DIRECTION('',(1.,0.,-3.490819089129E-14));
#1165=DIRECTION('',(0.,1.,0.));
#1166=DIRECTION('center_axis',(0.,1.,0.));
#1167=DIRECTION('ref_axis',(1.,0.,0.));
#1168=DIRECTION('center_axis',(0.,1.,0.));
#1169=DIRECTION('ref_axis',(0.999383021517415,0.,-0.0351223049175705));
#1170=DIRECTION('',(0.,1.,0.));
#1171=DIRECTION('center_axis',(0.,1.,0.));
#1172=DIRECTION('ref_axis',(0.999383021517415,0.,-0.0351223049175705));
#1173=DIRECTION('',(0.,1.,0.));
#1174=DIRECTION('center_axis',(-0.108673825688995,0.,-0.994077461574357));
#1175=DIRECTION('ref_axis',(-0.994077461574357,0.,0.108673825688995));
#1176=DIRECTION('',(0.,1.,0.));
#1177=DIRECTION('',(-0.994077461574357,0.,0.108673825688995));
#1178=DIRECTION('',(-0.994077461574357,0.,0.108673825688995));
#1179=DIRECTION('center_axis',(0.156434465040207,0.,0.987688340595142));
#1180=DIRECTION('ref_axis',(0.987688340595142,0.,-0.156434465040207));
#1181=DIRECTION('',(0.987688340595126,0.,-0.156434465040304));
#1182=DIRECTION('',(0.,1.,0.));
#1183=DIRECTION('',(0.987688340595126,0.,-0.156434465040304));
#1184=DIRECTION('',(0.,1.,0.));
#1185=DIRECTION('',(0.,1.,0.));
#1186=DIRECTION('center_axis',(0.,1.,0.));
#1187=DIRECTION('ref_axis',(0.987688340595142,0.,-0.156434465040207));
#1188=DIRECTION('center_axis',(0.,1.,0.));
#1189=DIRECTION('ref_axis',(0.981584619160725,0.,-0.191027839403305));
#1190=DIRECTION('',(0.,1.,0.));
#1191=DIRECTION('center_axis',(0.,1.,0.));
#1192=DIRECTION('ref_axis',(0.981584619160725,0.,-0.191027839403305));
#1193=DIRECTION('',(0.,1.,0.));
#1194=DIRECTION('center_axis',(-0.262843846470794,0.,-0.964838386659879));
#1195=DIRECTION('ref_axis',(-0.964838386659879,0.,0.262843846470794));
#1196=DIRECTION('',(-0.964838386659879,0.,0.262843846470794));
#1197=DIRECTION('',(0.,1.,0.));
#1198=DIRECTION('',(-0.964838386659879,0.,0.262843846470794));
#1199=DIRECTION('center_axis',(0.309016994374891,0.,0.951056516295172));
#1200=DIRECTION('ref_axis',(0.951056516295172,0.,-0.309016994374891));
#1201=DIRECTION('',(0.951056516295133,0.,-0.309016994375011));
#1202=DIRECTION('',(0.,1.,0.));
#1203=DIRECTION('',(0.951056516295133,0.,-0.309016994375011));
#1204=DIRECTION('',(0.,1.,0.));
#1205=DIRECTION('',(0.,1.,0.));
#1206=DIRECTION('center_axis',(0.,1.,0.));
#1207=DIRECTION('ref_axis',(0.951056516295172,0.,-0.309016994374891));
#1208=DIRECTION('center_axis',(0.,1.,0.));
#1209=DIRECTION('ref_axis',(0.939616345787734,0.,-0.342229634497812));
#1210=DIRECTION('',(0.,1.,0.));
#1211=DIRECTION('center_axis',(0.,1.,0.));
#1212=DIRECTION('ref_axis',(0.939616345787734,0.,-0.342229634497812));
#1213=DIRECTION('',(0.,1.,0.));
#1214=DIRECTION('center_axis',(-0.410541779423804,0.,-0.911841788550808));
#1215=DIRECTION('ref_axis',(-0.911841788550808,0.,0.410541779423804));
#1216=DIRECTION('',(-0.911841788550771,0.,0.410541779423887));
#1217=DIRECTION('',(0.,1.,0.));
#1218=DIRECTION('',(-0.911841788550771,0.,0.410541779423887));
#1219=DIRECTION('center_axis',(0.,-1.,0.));
#1220=DIRECTION('ref_axis',(-0.435377920817602,0.,0.900247780371905));
#1221=DIRECTION('',(0.,-1.,0.));
#1222=DIRECTION('center_axis',(0.,1.,0.));
#1223=DIRECTION('ref_axis',(-0.729054808541102,0.,0.684455320779302));
#1224=DIRECTION('',(0.,-1.,0.));
#1225=DIRECTION('center_axis',(0.,-1.,0.));
#1226=DIRECTION('ref_axis',(-0.435377920817602,0.,0.900247780371905));
#1227=DIRECTION('center_axis',(0.,1.,0.));
#1228=DIRECTION('ref_axis',(-0.391505638004713,0.,-0.920175708987432));
#1229=DIRECTION('',(0.,1.,0.));
#1230=DIRECTION('center_axis',(0.,-1.,0.));
#1231=DIRECTION('ref_axis',(-0.695236758710238,0.,-0.718780807574939));
#1232=DIRECTION('',(0.,1.,0.));
#1233=DIRECTION('center_axis',(0.,1.,0.));
#1234=DIRECTION('ref_axis',(-0.391505638004713,0.,-0.920175708987432));
#1235=DIRECTION('center_axis',(0.,1.,0.));
#1236=DIRECTION('ref_axis',(-1.,0.,0.));
#1237=DIRECTION('center_axis',(0.,1.,0.));
#1238=DIRECTION('ref_axis',(-1.,0.,0.));
#1239=DIRECTION('',(0.,1.,0.));
#1240=DIRECTION('center_axis',(0.,1.,0.));
#1241=DIRECTION('ref_axis',(-1.,0.,0.));
#1242=DIRECTION('center_axis',(0.,1.,0.));
#1243=DIRECTION('ref_axis',(1.,0.,0.));
#1244=DIRECTION('center_axis',(0.,-1.,0.));
#1245=DIRECTION('ref_axis',(-0.98819813079867,0.,-0.153181115957595));
#1246=DIRECTION('center_axis',(0.,1.,0.));
#1247=DIRECTION('ref_axis',(1.,0.,0.));
#1248=DIRECTION('center_axis',(0.,1.,0.));
#1249=DIRECTION('ref_axis',(0.574293852388097,0.,0.818649235698195));
#1250=DIRECTION('center_axis',(0.,1.,0.));
#1251=DIRECTION('ref_axis',(0.695236758710238,0.,0.718780807574939));
#1252=DIRECTION('center_axis',(0.,-1.,0.));
#1253=DIRECTION('ref_axis',(0.729054808541102,0.,-0.684455320779302));
#1254=DIRECTION('center_axis',(0.,1.,0.));
#1255=DIRECTION('ref_axis',(1.,0.,0.));
#1256=DIRECTION('center_axis',(0.,1.,0.));
#1257=DIRECTION('ref_axis',(0.887971448369591,0.,0.459898583255495));
#1258=DIRECTION('center_axis',(0.,1.,0.));
#1259=DIRECTION('ref_axis',(0.935066388244536,0.,0.354472635862514));
#1260=DIRECTION('center_axis',(0.,1.,0.));
#1261=DIRECTION('ref_axis',(0.979005906514087,0.,0.203831879279297));
#1262=DIRECTION('',(0.987688340595142,0.,0.156434465040207));
#1263=DIRECTION('center_axis',(0.,1.,0.));
#1264=DIRECTION('ref_axis',(0.992573297122244,0.,0.121648057279505));
#1265=DIRECTION('',(-0.998839050230937,0.,-0.0481721053490418));
#1266=DIRECTION('center_axis',(0.,1.,0.));
#1267=DIRECTION('ref_axis',(0.998839050230938,0.,0.0481721053490318));
#1268=DIRECTION('center_axis',(0.,1.,0.));
#1269=DIRECTION('ref_axis',(0.994077461574357,0.,-0.108673825688995));
#1270=DIRECTION('center_axis',(0.,1.,0.));
#1271=DIRECTION('ref_axis',(0.964838386659879,0.,-0.262843846470794));
#1272=DIRECTION('center_axis',(0.,1.,0.));
#1273=DIRECTION('ref_axis',(0.911841788550808,0.,-0.410541779423804));
#1274=DIRECTION('center_axis',(-0.156434465040207,0.,0.987688340595142));
#1275=DIRECTION('ref_axis',(0.987688340595142,0.,0.156434465040207));
#1276=DIRECTION('',(0.987688340595142,0.,0.156434465040207));
#1277=DIRECTION('',(0.,1.,0.));
#1278=DIRECTION('',(0.,1.,0.));
#1279=DIRECTION('',(0.,1.,0.));
#1280=DIRECTION('center_axis',(0.,1.,0.));
#1281=DIRECTION('ref_axis',(0.987688340595142,0.,0.156434465040207));
#1282=DIRECTION('center_axis',(0.,1.,0.));
#1283=DIRECTION('ref_axis',(0.992573297122244,0.,0.121648057279505));
#1284=DIRECTION('',(0.,1.,0.));
#1285=DIRECTION('',(0.,1.,0.));
#1286=DIRECTION('center_axis',(0.0481721053490817,0.,-0.998839050230935));
#1287=DIRECTION('ref_axis',(-0.998839050230935,0.,-0.0481721053490817));
#1288=DIRECTION('',(-0.998839050230937,0.,-0.0481721053490518));
#1289=DIRECTION('',(0.,1.,0.));
#1290=DIRECTION('center_axis',(0.,1.,0.));
#1291=DIRECTION('ref_axis',(1.,0.,0.));
#1292=DIRECTION('center_axis',(0.,-1.,0.));
#1293=DIRECTION('ref_axis',(0.909094841124114,0.,-0.416589209943707));
#1294=DIRECTION('center_axis',(0.,1.,0.));
#1295=DIRECTION('ref_axis',(1.,0.,0.));
#1296=DIRECTION('center_axis',(0.,-1.,0.));
#1297=DIRECTION('ref_axis',(0.891006524188393,0.,0.453990499739497));
#1298=DIRECTION('center_axis',(0.,1.,0.));
#1299=DIRECTION('ref_axis',(1.,0.,0.));
#1300=DIRECTION('center_axis',(0.,-1.,0.));
#1301=DIRECTION('ref_axis',(0.951056516295172,0.,-0.309016994374891));
#1302=DIRECTION('center_axis',(0.,1.,0.));
#1303=DIRECTION('ref_axis',(1.,0.,0.));
#1304=DIRECTION('center_axis',(0.,-1.,0.));
#1305=DIRECTION('ref_axis',(0.987688340595142,0.,-0.156434465040207));
#1306=DIRECTION('center_axis',(0.,1.,0.));
#1307=DIRECTION('ref_axis',(1.,0.,0.));
#1308=DIRECTION('center_axis',(0.,-1.,0.));
#1309=DIRECTION('ref_axis',(0.951056516295172,0.,0.309016994374891));
#1310=DIRECTION('center_axis',(0.,1.,0.));
#1311=DIRECTION('ref_axis',(1.,0.,0.));
#1312=DIRECTION('center_axis',(0.,-1.,0.));
#1313=DIRECTION('ref_axis',(0.987688340595142,0.,0.156434465040207));
#1314=DIRECTION('center_axis',(0.,1.,0.));
#1315=DIRECTION('ref_axis',(1.,0.,0.));
#1316=DIRECTION('center_axis',(0.,-1.,0.));
#1317=DIRECTION('ref_axis',(1.,0.,0.));
#1318=DIRECTION('center_axis',(0.,1.,0.));
#1319=DIRECTION('ref_axis',(1.,0.,0.));
#1320=DIRECTION('center_axis',(0.,1.,0.));
#1321=DIRECTION('ref_axis',(1.,0.,0.));
#1322=CARTESIAN_POINT('',(0.,0.,0.));
#1323=CARTESIAN_POINT('Origin',(-9.05777775266695,-4.5,14.5629379653729));
#1324=CARTESIAN_POINT('',(-13.1155555053339,-4.5,29.1258759307458));
#1325=CARTESIAN_POINT('Origin',(-18.1155555053339,-4.5,29.1258759307458));
#1326=CARTESIAN_POINT('',(-15.6155555053339,-4.5,29.1258759307458));
#1327=CARTESIAN_POINT('Origin',(-18.1155555053339,-4.5,29.1258759307458));
#1328=CARTESIAN_POINT('Origin',(-18.1155555053339,3.5,29.1258759307458));
#1329=CARTESIAN_POINT('',(-15.6155555053339,4.5,29.1258759307458));
#1330=CARTESIAN_POINT('Origin',(-18.1155555053339,4.5,29.1258759307458));
#1331=CARTESIAN_POINT('',(-15.6155555053339,3.5,29.1258759307458));
#1332=CARTESIAN_POINT('Origin',(-18.1155555053339,3.5,29.1258759307458));
#1333=CARTESIAN_POINT('',(-13.1155555053339,4.5,29.1258759307458));
#1334=CARTESIAN_POINT('Origin',(-18.1155555053339,4.5,29.1258759307458));
#1335=CARTESIAN_POINT('',(-13.1155555053339,3.5,29.1258759307458));
#1336=CARTESIAN_POINT('',(-13.1155555053339,3.5,29.1258759307458));
#1337=CARTESIAN_POINT('',(-21.3261899427864,3.5,25.2928840824576));
#1338=CARTESIAN_POINT('Origin',(-18.1155555053339,3.5,29.1258759307458));
#1339=CARTESIAN_POINT('',(-21.3261899427864,-3.5,25.2928840824576));
#1340=CARTESIAN_POINT('',(-21.3261899427864,3.5,25.2928840824576));
#1341=CARTESIAN_POINT('',(-13.1155555053339,-3.5,29.1258759307458));
#1342=CARTESIAN_POINT('Origin',(-18.1155555053339,-3.5,29.1258759307458));
#1343=CARTESIAN_POINT('',(-13.1155555053339,3.5,29.1258759307458));
#1344=CARTESIAN_POINT('',(-13.2580519738263,-3.5,30.3110592251752));
#1345=CARTESIAN_POINT('Origin',(-18.1155555053339,-3.5,29.1258759307458));
#1346=CARTESIAN_POINT('',(-13.2580519738263,3.5,30.3110592251752));
#1347=CARTESIAN_POINT('',(-13.2580519738263,3.5,30.3110592251752));
#1348=CARTESIAN_POINT('Origin',(-18.1155555053339,3.5,29.1258759307458));
#1349=CARTESIAN_POINT('Origin',(-9.05777775266695,4.5,14.5629379653729));
#1350=CARTESIAN_POINT('Origin',(-53.4325344404696,3.5,-13.0370342972635));
#1351=CARTESIAN_POINT('',(-4.85750313119535,3.5,-1.18518493511662));
#1352=CARTESIAN_POINT('Origin',(-53.4325344404696,3.5,-13.0370342972635));
#1353=CARTESIAN_POINT('',(-4.85750313119535,-3.5,-1.18518493511662));
#1354=CARTESIAN_POINT('',(-4.85750313095179,3.5,-1.18518493611487));
#1355=CARTESIAN_POINT('Origin',(-53.4325344404696,-3.5,-13.0370342972635));
#1356=CARTESIAN_POINT('Origin',(35.3169789351358,3.5,42.1629102280094));
#1357=CARTESIAN_POINT('',(3.21063448915816,3.5,3.83299180497798));
#1358=CARTESIAN_POINT('Origin',(35.3169789351358,3.5,42.1629102280094));
#1359=CARTESIAN_POINT('',(3.21063448915816,-3.5,3.83299180497798));
#1360=CARTESIAN_POINT('Origin',(35.3169789351358,-3.5,42.1629102280094));
#1361=CARTESIAN_POINT('',(3.21063444864872,3.5,3.83299183890997));
#1362=CARTESIAN_POINT('Origin',(5.01191169856,-3.,2.553696561035));
#1363=CARTESIAN_POINT('',(5.01191169856,-3.,2.553696561035));
#1364=CARTESIAN_POINT('',(5.023633535111,-3.,2.559669135073));
#1365=CARTESIAN_POINT('',(5.01191169856,-3.,2.553696561035));
#1366=CARTESIAN_POINT('',(5.023633535111,3.,2.559669135073));
#1367=CARTESIAN_POINT('',(5.023633535111,-3.,2.559669135073));
#1368=CARTESIAN_POINT('',(5.01191169856,3.,2.553696561035));
#1369=CARTESIAN_POINT('',(5.01191169856,3.,2.553696561035));
#1370=CARTESIAN_POINT('',(5.01191169856,-3.,2.553696561035));
#1371=CARTESIAN_POINT('Ctrl Pts',(5.736346743569,-3.06,2.660745206815));
#1372=CARTESIAN_POINT('Ctrl Pts',(5.736346743569,3.06,2.660745206815));
#1373=CARTESIAN_POINT('Ctrl Pts',(5.727675507041,-3.06,2.660950259184));
#1374=CARTESIAN_POINT('Ctrl Pts',(5.727675507041,3.06,2.660950259184));
#1375=CARTESIAN_POINT('Ctrl Pts',(5.48064769297194,-3.06,2.66548428548111));
#1376=CARTESIAN_POINT('Ctrl Pts',(5.48064769297194,3.06,2.66548428548111));
#1377=CARTESIAN_POINT('Ctrl Pts',(5.2335751139575,-3.06,2.63224029549921));
#1378=CARTESIAN_POINT('Ctrl Pts',(5.2335751139575,3.06,2.63224029549921));
#1379=CARTESIAN_POINT('Ctrl Pts',(4.998897062898,-3.06,2.551324943867));
#1380=CARTESIAN_POINT('Ctrl Pts',(4.998897062898,3.06,2.551324943867));
#1381=CARTESIAN_POINT('',(5.710332506109,-3.,2.661222025626));
#1382=CARTESIAN_POINT('Ctrl Pts',(5.023633535111,-3.,2.559669135073));
#1383=CARTESIAN_POINT('Ctrl Pts',(5.25031834179147,-3.,2.63444975692762));
#1384=CARTESIAN_POINT('Ctrl Pts',(5.48034482476394,-3.,2.66420862005546));
#1385=CARTESIAN_POINT('Ctrl Pts',(5.710332506109,-3.,2.661222025626));
#1386=CARTESIAN_POINT('',(5.710332506109,3.,2.661222025626));
#1387=CARTESIAN_POINT('',(5.710332506109,-3.,2.661222025626));
#1388=CARTESIAN_POINT('Ctrl Pts',(5.023633535111,3.,2.559669135073));
#1389=CARTESIAN_POINT('Ctrl Pts',(5.25031834179147,3.,2.63444975692762));
#1390=CARTESIAN_POINT('Ctrl Pts',(5.48034482476394,3.,2.66420862005546));
#1391=CARTESIAN_POINT('Ctrl Pts',(5.710332506109,3.,2.661222025626));
#1392=CARTESIAN_POINT('Origin',(0.,-3.,0.));
#1393=CARTESIAN_POINT('',(5.808849331329,-3.,2.438702410282));
#1394=CARTESIAN_POINT('Origin',(0.,-3.,0.));
#1395=CARTESIAN_POINT('',(5.808849331329,3.,2.438702410282));
#1396=CARTESIAN_POINT('',(5.808849331329,-3.,2.438702410282));
#1397=CARTESIAN_POINT('Origin',(0.,3.,0.));
#1398=CARTESIAN_POINT('Ctrl Pts',(5.249320049344,-3.06,1.985909236426));
#1399=CARTESIAN_POINT('Ctrl Pts',(5.249320049344,3.06,1.985909236426));
#1400=CARTESIAN_POINT('Ctrl Pts',(5.25693778672,-3.06,1.990086713601));
#1401=CARTESIAN_POINT('Ctrl Pts',(5.25693778672,3.06,1.990086713601));
#1402=CARTESIAN_POINT('Ctrl Pts',(5.48126480119854,-3.06,2.11506495792185));
#1403=CARTESIAN_POINT('Ctrl Pts',(5.48126480119854,3.06,2.11506495792185));
#1404=CARTESIAN_POINT('Ctrl Pts',(5.6697366855055,-3.06,2.27780522010959));
#1405=CARTESIAN_POINT('Ctrl Pts',(5.6697366855055,3.06,2.27780522010959));
#1406=CARTESIAN_POINT('Ctrl Pts',(5.825985846873,-3.06,2.458285037926));
#1407=CARTESIAN_POINT('Ctrl Pts',(5.825985846873,3.06,2.458285037926));
#1408=CARTESIAN_POINT('',(5.27204990987,-3.,1.998571921143));
#1409=CARTESIAN_POINT('Ctrl Pts',(5.808849331329,-3.,2.438702410282));
#1410=CARTESIAN_POINT('Ctrl Pts',(5.6564574335058,-3.,2.26642367452624));
#1411=CARTESIAN_POINT('Ctrl Pts',(5.47979639578481,-3.,2.11612846316932));
#1412=CARTESIAN_POINT('Ctrl Pts',(5.27204990987,-3.,1.998571921143));
#1413=CARTESIAN_POINT('',(5.27204990987,3.,1.998571921143));
#1414=CARTESIAN_POINT('',(5.27204990987,-3.,1.998571921143));
#1415=CARTESIAN_POINT('Ctrl Pts',(5.808849331329,3.,2.438702410282));
#1416=CARTESIAN_POINT('Ctrl Pts',(5.6564574335058,3.,2.26642367452624));
#1417=CARTESIAN_POINT('Ctrl Pts',(5.47979639578481,3.,2.11612846316932));
#1418=CARTESIAN_POINT('Ctrl Pts',(5.27204990987,3.,1.998571921143));
#1419=CARTESIAN_POINT('Origin',(5.27204990987,-3.,1.998571921143));
#1420=CARTESIAN_POINT('',(5.259748433875,-3.,1.993908576727));
#1421=CARTESIAN_POINT('',(5.27204990987,-3.,1.998571921143));
#1422=CARTESIAN_POINT('',(5.259748433875,3.,1.993908576727));
#1423=CARTESIAN_POINT('',(5.259748433875,-3.,1.993908576727));
#1424=CARTESIAN_POINT('',(5.27204990987,3.,1.998571921143));
#1425=CARTESIAN_POINT('Origin',(5.34969290416,-3.,1.738220593359));
#1426=CARTESIAN_POINT('',(5.34969290416,-3.,1.738220593359));
#1427=CARTESIAN_POINT('',(5.362204741877,-3.,1.742285935869));
#1428=CARTESIAN_POINT('',(5.34969290416,-3.,1.738220593359));
#1429=CARTESIAN_POINT('',(5.362204741877,3.,1.742285935869));
#1430=CARTESIAN_POINT('',(5.362204741877,-3.,1.742285935869));
#1431=CARTESIAN_POINT('',(5.34969290416,3.,1.738220593359));
#1432=CARTESIAN_POINT('',(5.34969290416,3.,1.738220593359));
#1433=CARTESIAN_POINT('',(5.34969290416,-3.,1.738220593359));
#1434=CARTESIAN_POINT('Ctrl Pts',(6.081955049271,-3.06,1.730624683951));
#1435=CARTESIAN_POINT('Ctrl Pts',(6.081955049271,3.06,1.730624683951));
#1436=CARTESIAN_POINT('Ctrl Pts',(6.073422647311,-3.06,1.732183692031));
#1437=CARTESIAN_POINT('Ctrl Pts',(6.073422647311,3.06,1.732183692031));
#1438=CARTESIAN_POINT('Ctrl Pts',(5.83014543353141,-3.06,1.77530556088773));
#1439=CARTESIAN_POINT('Ctrl Pts',(5.83014543353141,3.06,1.77530556088773));
#1440=CARTESIAN_POINT('Ctrl Pts',(5.58091422216771,-3.06,1.78112152630421));
#1441=CARTESIAN_POINT('Ctrl Pts',(5.58091422216771,3.06,1.78112152630421));
#1442=CARTESIAN_POINT('Ctrl Pts',(5.336467497598,-3.06,1.737914112301));
#1443=CARTESIAN_POINT('Ctrl Pts',(5.336467497598,3.06,1.737914112301));
#1444=CARTESIAN_POINT('',(6.056335681137,-3.,1.735165155651));
#1445=CARTESIAN_POINT('Ctrl Pts',(5.362204741877,-3.,1.742285935869));
#1446=CARTESIAN_POINT('Ctrl Pts',(5.59779694900024,-3.,1.78068456771367));
#1447=CARTESIAN_POINT('Ctrl Pts',(5.82964673609493,-3.,1.77409298004211));
#1448=CARTESIAN_POINT('Ctrl Pts',(6.056335681137,-3.,1.735165155651));
#1449=CARTESIAN_POINT('',(6.056335681137,3.,1.735165155651));
#1450=CARTESIAN_POINT('',(6.056335681137,-3.,1.735165155651));
#1451=CARTESIAN_POINT('Ctrl Pts',(5.362204741877,3.,1.742285935869));
#1452=CARTESIAN_POINT('Ctrl Pts',(5.59779694900024,3.,1.78068456771367));
#1453=CARTESIAN_POINT('Ctrl Pts',(5.82964673609493,3.,1.77409298004211));
#1454=CARTESIAN_POINT('Ctrl Pts',(6.056335681137,3.,1.735165155651));
#1455=CARTESIAN_POINT('Origin',(0.,-3.,0.));
#1456=CARTESIAN_POINT('',(6.118829863773,-3.,1.499973699171));
#1457=CARTESIAN_POINT('Origin',(0.,-3.,0.));
#1458=CARTESIAN_POINT('',(6.118829863773,3.,1.499973699171));
#1459=CARTESIAN_POINT('',(6.118829863773,-3.,1.499973699171));
#1460=CARTESIAN_POINT('Origin',(0.,3.,0.));
#1461=CARTESIAN_POINT('Ctrl Pts',(5.495356857808,-3.06,1.140284824554));
#1462=CARTESIAN_POINT('Ctrl Pts',(5.495356857808,3.06,1.140284824554));
#1463=CARTESIAN_POINT('Ctrl Pts',(5.503534309603,-3.06,1.143219193382));
#1464=CARTESIAN_POINT('Ctrl Pts',(5.503534309603,3.06,1.143219193382));
#1465=CARTESIAN_POINT('Ctrl Pts',(5.74465039107573,-3.06,1.23156627162113));
#1466=CARTESIAN_POINT('Ctrl Pts',(5.74465039107573,3.06,1.23156627162113));
#1467=CARTESIAN_POINT('Ctrl Pts',(5.95626005959359,-3.06,1.36281943273256));
#1468=CARTESIAN_POINT('Ctrl Pts',(5.95626005959359,3.06,1.36281943273256));
#1469=CARTESIAN_POINT('Ctrl Pts',(6.138818798253,-3.06,1.516634490531));
#1470=CARTESIAN_POINT('Ctrl Pts',(6.138818798253,3.06,1.516634490531));
#1471=CARTESIAN_POINT('',(5.519787756343,-3.,1.149235877038));
#1472=CARTESIAN_POINT('Ctrl Pts',(6.118829863773,-3.,1.499973699171));
#1473=CARTESIAN_POINT('Ctrl Pts',(5.94136383122427,-3.,1.35365534554484));
#1474=CARTESIAN_POINT('Ctrl Pts',(5.74336643304805,-3.,1.23284639256928));
#1475=CARTESIAN_POINT('Ctrl Pts',(5.519787756343,-3.,1.149235877038));
#1476=CARTESIAN_POINT('',(5.519787756343,3.,1.149235877038));
#1477=CARTESIAN_POINT('',(5.519787756343,-3.,1.149235877038));
#1478=CARTESIAN_POINT('Ctrl Pts',(6.118829863773,3.,1.499973699171));
#1479=CARTESIAN_POINT('Ctrl Pts',(5.94136383122427,3.,1.35365534554484));
#1480=CARTESIAN_POINT('Ctrl Pts',(5.74336643304805,3.,1.23284639256928));
#1481=CARTESIAN_POINT('Ctrl Pts',(5.519787756343,3.,1.149235877038));
#1482=CARTESIAN_POINT('Origin',(5.519787756343,-3.,1.149235877038));
#1483=CARTESIAN_POINT('',(5.506908224142,-3.,1.146554320946));
#1484=CARTESIAN_POINT('',(5.519787756343,-3.,1.149235877038));
#1485=CARTESIAN_POINT('',(5.506908224142,3.,1.146554320946));
#1486=CARTESIAN_POINT('',(5.506908224142,-3.,1.146554320946));
#1487=CARTESIAN_POINT('',(5.519787756343,3.,1.149235877038));
#1488=CARTESIAN_POINT('Origin',(5.625,-3.,0.));
#1489=CARTESIAN_POINT('',(5.625,-3.,0.));
#1490=CARTESIAN_POINT('',(5.625,3.,0.));
#1491=CARTESIAN_POINT('',(5.625,-3.,0.));
#1492=CARTESIAN_POINT('',(5.638155724715,-3.,0.));
#1493=CARTESIAN_POINT('',(5.625,-3.,0.));
#1494=CARTESIAN_POINT('',(5.638155724715,3.,0.));
#1495=CARTESIAN_POINT('',(5.638155724715,-3.,0.));
#1496=CARTESIAN_POINT('',(5.625,3.,0.));
#1497=CARTESIAN_POINT('Ctrl Pts',(6.319075419648,-3.06,-0.2335055863167));
#1498=CARTESIAN_POINT('Ctrl Pts',(6.319075419648,3.06,-0.2335055863167));
#1499=CARTESIAN_POINT('Ctrl Pts',(6.311442383157,-3.06,-0.2293862243142));
#1500=CARTESIAN_POINT('Ctrl Pts',(6.311442383157,3.06,-0.2293862243142));
#1501=CARTESIAN_POINT('Ctrl Pts',(6.09339739402876,-3.06,-0.113198096541995));
#1502=CARTESIAN_POINT('Ctrl Pts',(6.09339739402876,3.06,-0.113198096541995));
#1503=CARTESIAN_POINT('Ctrl Pts',(5.85816165855653,-3.06,-0.0306501048918488));
#1504=CARTESIAN_POINT('Ctrl Pts',(5.85816165855653,3.06,-0.0306501048918488));
#1505=CARTESIAN_POINT('Ctrl Pts',(5.612327183053,-3.06,0.003795394578237));
#1506=CARTESIAN_POINT('Ctrl Pts',(5.612327183053,3.06,0.003795394578237));
#1507=CARTESIAN_POINT('',(6.29611303556,-3.,-0.2212705209807));
#1508=CARTESIAN_POINT('Ctrl Pts',(5.638155724715,-3.,0.));
#1509=CARTESIAN_POINT('Ctrl Pts',(5.87408305828809,-3.,-0.0362827267117573));
#1510=CARTESIAN_POINT('Ctrl Pts',(6.09254839649696,-3.,-0.114197223472345));
#1511=CARTESIAN_POINT('Ctrl Pts',(6.29611303556,-3.,-0.2212705209807));
#1512=CARTESIAN_POINT('',(6.29611303556,3.,-0.2212705209807));
#1513=CARTESIAN_POINT('',(6.29611303556,-3.,-0.2212705209807));
#1514=CARTESIAN_POINT('Ctrl Pts',(5.638155724715,3.,0.));
#1515=CARTESIAN_POINT('Ctrl Pts',(5.87408305828809,3.,-0.0362827267117573));
#1516=CARTESIAN_POINT('Ctrl Pts',(6.09254839649696,3.,-0.114197223472345));
#1517=CARTESIAN_POINT('Ctrl Pts',(6.29611303556,3.,-0.2212705209807));
#1518=CARTESIAN_POINT('Origin',(0.,-3.,0.));
#1519=CARTESIAN_POINT('',(6.282870378202,-3.,-0.464262652727));
#1520=CARTESIAN_POINT('Origin',(0.,-3.,0.));
#1521=CARTESIAN_POINT('',(6.282870378202,3.,-0.464262652727));
#1522=CARTESIAN_POINT('',(6.282870378202,-3.,-0.464262652727));
#1523=CARTESIAN_POINT('Origin',(0.,3.,0.));
#1524=CARTESIAN_POINT('Ctrl Pts',(5.578762338201,-3.06,-0.6136833463933));
#1525=CARTESIAN_POINT('Ctrl Pts',(5.578762338201,3.06,-0.6136833463933));
#1526=CARTESIAN_POINT('Ctrl Pts',(5.587446326853,-3.06,-0.6134195673738));
#1527=CARTESIAN_POINT('Ctrl Pts',(5.587446326853,3.06,-0.6134195673738));
#1528=CARTESIAN_POINT('Ctrl Pts',(5.84406209589967,-3.06,-0.60390546971062));
#1529=CARTESIAN_POINT('Ctrl Pts',(5.84406209589967,3.06,-0.60390546971062));
#1530=CARTESIAN_POINT('Ctrl Pts',(6.08587430740294,-3.06,-0.5444672792969));
#1531=CARTESIAN_POINT('Ctrl Pts',(6.08587430740294,3.06,-0.5444672792969));
#1532=CARTESIAN_POINT('Ctrl Pts',(6.307029452263,-3.06,-0.4545942189908));
#1533=CARTESIAN_POINT('Ctrl Pts',(6.307029452263,3.06,-0.4545942189908));
#1534=CARTESIAN_POINT('',(5.604763530786,-3.,-0.6127199524352));
#1535=CARTESIAN_POINT('Ctrl Pts',(6.282870378202,-3.,-0.464262652727));
#1536=CARTESIAN_POINT('Ctrl Pts',(6.0688752936651,-3.,-0.548579656414491));
#1537=CARTESIAN_POINT('Ctrl Pts',(5.84323655837876,-3.,-0.602291237490629));
#1538=CARTESIAN_POINT('Ctrl Pts',(5.604763530786,-3.,-0.6127199524352));
#1539=CARTESIAN_POINT('',(5.604763530786,3.,-0.6127199524352));
#1540=CARTESIAN_POINT('',(5.604763530786,-3.,-0.6127199524352));
#1541=CARTESIAN_POINT('Ctrl Pts',(6.282870378202,3.,-0.464262652727));
#1542=CARTESIAN_POINT('Ctrl Pts',(6.0688752936651,3.,-0.548579656414491));
#1543=CARTESIAN_POINT('Ctrl Pts',(5.84323655837876,3.,-0.602291237490629));
#1544=CARTESIAN_POINT('Ctrl Pts',(5.604763530786,3.,-0.6127199524352));
#1545=CARTESIAN_POINT('Origin',(5.604763530786,-3.,-0.6127199524352));
#1546=CARTESIAN_POINT('',(5.591685721356,-3.,-0.6112902695007));
#1547=CARTESIAN_POINT('',(5.591685721356,3.,-0.6112902695007));
#1548=CARTESIAN_POINT('',(5.591685721356,-3.,-0.6112902695007));
#1549=CARTESIAN_POINT('',(5.604763530786,3.,-0.6127199524352));
#1550=CARTESIAN_POINT('',(5.604763530786,-3.,-0.6127199524352));
#1551=CARTESIAN_POINT('Origin',(5.555746915848,-3.,-0.8799438658513));
#1552=CARTESIAN_POINT('',(5.555746915848,-3.,-0.8799438658513));
#1553=CARTESIAN_POINT('',(5.568740671761,-3.,-0.8820018746094));
#1554=CARTESIAN_POINT('',(5.555746915848,-3.,-0.8799438658513));
#1555=CARTESIAN_POINT('',(5.568740671761,3.,-0.8820018746094));
#1556=CARTESIAN_POINT('',(5.568740671761,-3.,-0.8820018746094));
#1557=CARTESIAN_POINT('',(5.555746915848,3.,-0.8799438658513));
#1558=CARTESIAN_POINT('',(5.555746915848,3.,-0.8799438658513));
#1559=CARTESIAN_POINT('',(5.555746915848,-3.,-0.8799438658513));
#1560=CARTESIAN_POINT('Ctrl Pts',(6.204748793849,-3.06,-1.21915192789));
#1561=CARTESIAN_POINT('Ctrl Pts',(6.204748793849,3.06,-1.21915192789));
#1562=CARTESIAN_POINT('Ctrl Pts',(6.197854142894,-3.06,-1.21388921209));
#1563=CARTESIAN_POINT('Ctrl Pts',(6.197854142894,3.06,-1.21388921209));
#1564=CARTESIAN_POINT('Ctrl Pts',(6.00066947702011,-3.06,-1.06502180174347));
#1565=CARTESIAN_POINT('Ctrl Pts',(6.00066947702011,3.06,-1.06502180174347));
#1566=CARTESIAN_POINT('Ctrl Pts',(5.78124323471181,-3.06,-0.946691136416954));
#1567=CARTESIAN_POINT('Ctrl Pts',(5.78124323471181,3.06,-0.946691136416954));
#1568=CARTESIAN_POINT('Ctrl Pts',(5.543823852827,-3.06,-0.8742127335387));
#1569=CARTESIAN_POINT('Ctrl Pts',(5.543823852827,3.06,-0.8742127335387));
#1570=CARTESIAN_POINT('',(6.183983100713,-3.,-1.203475388241));
#1571=CARTESIAN_POINT('Ctrl Pts',(5.568740671761,-3.,-0.8820018746094));
#1572=CARTESIAN_POINT('Ctrl Pts',(5.7960874794159,-3.,-0.95474506696339));
#1573=CARTESIAN_POINT('Ctrl Pts',(5.99967463416714,-3.,-1.06587581528976));
#1574=CARTESIAN_POINT('Ctrl Pts',(6.183983100713,-3.,-1.203475388241));
#1575=CARTESIAN_POINT('',(6.183983100713,3.,-1.203475388241));
#1576=CARTESIAN_POINT('',(6.183983100713,-3.,-1.203475388241));
#1577=CARTESIAN_POINT('Ctrl Pts',(5.568740671761,3.,-0.8820018746094));
#1578=CARTESIAN_POINT('Ctrl Pts',(5.7960874794159,3.,-0.95474506696339));
#1579=CARTESIAN_POINT('Ctrl Pts',(5.99967463416714,3.,-1.06587581528976));
#1580=CARTESIAN_POINT('Ctrl Pts',(6.183983100713,3.,-1.203475388241));
#1581=CARTESIAN_POINT('Origin',(0.,-3.,0.));
#1582=CARTESIAN_POINT('',(6.132891138303,-3.,-1.441404275603));
#1583=CARTESIAN_POINT('Origin',(0.,-3.,0.));
#1584=CARTESIAN_POINT('',(6.132891138303,3.,-1.441404275603));
#1585=CARTESIAN_POINT('',(6.132891138303,-3.,-1.441404275603));
#1586=CARTESIAN_POINT('Origin',(0.,3.,0.));
#1587=CARTESIAN_POINT('Ctrl Pts',(5.414077290395,-3.06,-1.478838588013));
#1588=CARTESIAN_POINT('Ctrl Pts',(5.414077290395,3.06,-1.478838588013));
#1589=CARTESIAN_POINT('Ctrl Pts',(5.422695628866,-3.06,-1.47993653167));
#1590=CARTESIAN_POINT('Ctrl Pts',(5.422695628866,3.06,-1.47993653167));
#1591=CARTESIAN_POINT('Ctrl Pts',(5.67764036474544,-3.06,-1.51068311888932));
#1592=CARTESIAN_POINT('Ctrl Pts',(5.67764036474544,3.06,-1.51068311888932));
#1593=CARTESIAN_POINT('Ctrl Pts',(5.92577364818009,-3.06,-1.48980447517784));
#1594=CARTESIAN_POINT('Ctrl Pts',(5.92577364818009,3.06,-1.48980447517784));
#1595=CARTESIAN_POINT('Ctrl Pts',(6.158265250332,-3.06,-1.435634188157));
#1596=CARTESIAN_POINT('Ctrl Pts',(6.158265250332,3.06,-1.435634188157));
#1597=CARTESIAN_POINT('',(5.439909073172,-3.,-1.481954537686));
#1598=CARTESIAN_POINT('Ctrl Pts',(6.132891138303,-3.,-1.441404275603));
#1599=CARTESIAN_POINT('Ctrl Pts',(5.90834060299522,-3.,-1.49120699049032));
#1600=CARTESIAN_POINT('Ctrl Pts',(5.67707751251505,-3.,-1.50895961802359));
#1601=CARTESIAN_POINT('Ctrl Pts',(5.439909073172,-3.,-1.481954537686));
#1602=CARTESIAN_POINT('',(5.439909073172,3.,-1.481954537686));
#1603=CARTESIAN_POINT('',(5.439909073172,-3.,-1.481954537686));
#1604=CARTESIAN_POINT('Ctrl Pts',(6.132891138303,3.,-1.441404275603));
#1605=CARTESIAN_POINT('Ctrl Pts',(5.90834060299522,3.,-1.49120699049032));
#1606=CARTESIAN_POINT('Ctrl Pts',(5.67707751251505,3.,-1.50895961802359));
#1607=CARTESIAN_POINT('Ctrl Pts',(5.439909073172,3.,-1.481954537686));
#1608=CARTESIAN_POINT('Origin',(5.439909073172,-3.,-1.481954537686));
#1609=CARTESIAN_POINT('',(5.427215924962,-3.,-1.478496636398));
#1610=CARTESIAN_POINT('',(5.439909073172,-3.,-1.481954537686));
#1611=CARTESIAN_POINT('',(5.427215924962,3.,-1.478496636398));
#1612=CARTESIAN_POINT('',(5.427215924962,-3.,-1.478496636398));
#1613=CARTESIAN_POINT('',(5.439909073172,3.,-1.481954537686));
#1614=CARTESIAN_POINT('Origin',(5.34969290416,-3.,-1.738220593359));
#1615=CARTESIAN_POINT('',(5.34969290416,-3.,-1.738220593359));
#1616=CARTESIAN_POINT('',(5.362204741877,-3.,-1.742285935869));
#1617=CARTESIAN_POINT('',(5.34969290416,-3.,-1.738220593359));
#1618=CARTESIAN_POINT('',(5.362204741877,3.,-1.742285935869));
#1619=CARTESIAN_POINT('',(5.362204741877,-3.,-1.742285935869));
#1620=CARTESIAN_POINT('',(5.34969290416,3.,-1.738220593359));
#1621=CARTESIAN_POINT('',(5.34969290416,3.,-1.738220593359));
#1622=CARTESIAN_POINT('',(5.34969290416,-3.,-1.738220593359));
#1623=CARTESIAN_POINT('Ctrl Pts',(5.937640660364,-3.06,-2.174778702866));
#1624=CARTESIAN_POINT('Ctrl Pts',(5.937640660364,3.06,-2.174778702866));
#1625=CARTESIAN_POINT('Ctrl Pts',(5.931654164134,-3.06,-2.168502218796));
#1626=CARTESIAN_POINT('Ctrl Pts',(5.931654164134,3.06,-2.168502218796));
#1627=CARTESIAN_POINT('Ctrl Pts',(5.76018516240554,-3.06,-1.99062113558423));
#1628=CARTESIAN_POINT('Ctrl Pts',(5.76018516240554,3.06,-1.99062113558423));
#1629=CARTESIAN_POINT('Ctrl Pts',(5.56197141558801,-3.06,-1.83942149027145));
#1630=CARTESIAN_POINT('Ctrl Pts',(5.56197141558801,3.06,-1.83942149027145));
#1631=CARTESIAN_POINT('Ctrl Pts',(5.338813180448,-3.06,-1.73069484281));
#1632=CARTESIAN_POINT('Ctrl Pts',(5.338813180448,3.06,-1.73069484281));
#1633=CARTESIAN_POINT('',(5.919582978463,-3.,-2.156046697336));
#1634=CARTESIAN_POINT('Ctrl Pts',(5.362204741877,-3.,-1.742285935869));
#1635=CARTESIAN_POINT('Ctrl Pts',(5.57537299068859,-3.,-1.84969841504922));
#1636=CARTESIAN_POINT('Ctrl Pts',(5.75906897056797,-3.,-1.9913090070959));
#1637=CARTESIAN_POINT('Ctrl Pts',(5.919582978463,-3.,-2.156046697336));
#1638=CARTESIAN_POINT('',(5.919582978463,3.,-2.156046697336));
#1639=CARTESIAN_POINT('',(5.919582978463,-3.,-2.156046697336));
#1640=CARTESIAN_POINT('Ctrl Pts',(5.362204741877,3.,-1.742285935869));
#1641=CARTESIAN_POINT('Ctrl Pts',(5.57537299068859,3.,-1.84969841504922));
#1642=CARTESIAN_POINT('Ctrl Pts',(5.75906897056797,3.,-1.9913090070959));
#1643=CARTESIAN_POINT('Ctrl Pts',(5.919582978463,3.,-2.156046697336));
#1644=CARTESIAN_POINT('Origin',(0.,-3.,0.));
#1645=CARTESIAN_POINT('',(5.83189976468,-3.,-2.383053741468));
#1646=CARTESIAN_POINT('Origin',(0.,-3.,0.));
#1647=CARTESIAN_POINT('',(5.83189976468,3.,-2.383053741468));
#1648=CARTESIAN_POINT('',(5.83189976468,-3.,-2.383053741468));
#1649=CARTESIAN_POINT('Origin',(0.,3.,0.));
#1650=CARTESIAN_POINT('Ctrl Pts',(5.116079691407,-3.06,-2.307579915612));
#1651=CARTESIAN_POINT('Ctrl Pts',(5.116079691407,3.06,-2.307579915612));
#1652=CARTESIAN_POINT('Ctrl Pts',(5.124420167602,-3.06,-2.310012546929));
#1653=CARTESIAN_POINT('Ctrl Pts',(5.124420167602,3.06,-2.310012546929));
#1654=CARTESIAN_POINT('Ctrl Pts',(5.37141628480224,-3.06,-2.38026273601059));
#1655=CARTESIAN_POINT('Ctrl Pts',(5.37141628480224,3.06,-2.38026273601059));
#1656=CARTESIAN_POINT('Ctrl Pts',(5.61976077522534,-3.06,-2.39845774050107));
#1657=CARTESIAN_POINT('Ctrl Pts',(5.61976077522534,3.06,-2.39845774050107));
#1658=CARTESIAN_POINT('Ctrl Pts',(5.857864119827,-3.06,-2.381324079014));
#1659=CARTESIAN_POINT('Ctrl Pts',(5.857864119827,3.06,-2.381324079014));
#1660=CARTESIAN_POINT('',(5.141106000152,-3.,-2.314698483893));
#1661=CARTESIAN_POINT('Ctrl Pts',(5.83189976468,-3.,-2.383053741468));
#1662=CARTESIAN_POINT('Ctrl Pts',(5.60232295802388,-3.,-2.3971158594256));
#1663=CARTESIAN_POINT('Ctrl Pts',(5.37112997715051,-3.,-2.37847240481238));
#1664=CARTESIAN_POINT('Ctrl Pts',(5.141106000152,-3.,-2.314698483893));
#1665=CARTESIAN_POINT('',(5.141106000152,3.,-2.314698483893));
#1666=CARTESIAN_POINT('',(5.141106000152,-3.,-2.314698483893));
#1667=CARTESIAN_POINT('Ctrl Pts',(5.83189976468,3.,-2.383053741468));
#1668=CARTESIAN_POINT('Ctrl Pts',(5.60232295802388,3.,-2.3971158594256));
#1669=CARTESIAN_POINT('Ctrl Pts',(5.37112997715051,3.,-2.37847240481238));
#1670=CARTESIAN_POINT('Ctrl Pts',(5.141106000152,3.,-2.314698483893));
#1671=CARTESIAN_POINT('Origin',(5.141106000152,-3.,-2.314698483893));
#1672=CARTESIAN_POINT('',(5.129110060598,-3.,-2.309297509259));
#1673=CARTESIAN_POINT('',(5.141106000152,-3.,-2.314698483893));
#1674=CARTESIAN_POINT('',(5.129110060598,3.,-2.309297509259));
#1675=CARTESIAN_POINT('',(5.129110060598,-3.,-2.309297509259));
#1676=CARTESIAN_POINT('',(5.141106000152,3.,-2.314698483893));
#1677=CARTESIAN_POINT('Origin',(7.290548085411,16.2324,-6.844553207793));
#1678=CARTESIAN_POINT('',(5.113658481323,3.,-2.343314305933));
#1679=CARTESIAN_POINT('',(5.113658481323,-3.,-2.343314305933));
#1680=CARTESIAN_POINT('',(5.113658481323,3.,-2.343314305933));
#1681=CARTESIAN_POINT('',(3.645274042706,-3.,-3.422276603896));
#1682=CARTESIAN_POINT('Origin',(7.290548085411,-3.,-6.844553207793));
#1683=CARTESIAN_POINT('',(3.645274042706,3.,-3.422276603896));
#1684=CARTESIAN_POINT('',(3.645274042706,3.,-3.422276603896));
#1685=CARTESIAN_POINT('Origin',(7.290548085411,3.,-6.844553207793));
#1686=CARTESIAN_POINT('Origin',(6.952367587102,-16.2324,7.187808075749));
#1687=CARTESIAN_POINT('',(4.994839397079,-3.,2.586929530812));
#1688=CARTESIAN_POINT('',(4.994839397079,3.,2.586929530812));
#1689=CARTESIAN_POINT('',(4.994839397079,-3.,2.586929530812));
#1690=CARTESIAN_POINT('',(3.476183793551,3.,3.593904037875));
#1691=CARTESIAN_POINT('Origin',(6.952367587102,3.,7.187808075749));
#1692=CARTESIAN_POINT('',(3.476183793551,-3.,3.593904037875));
#1693=CARTESIAN_POINT('',(3.476183793551,-3.,3.593904037875));
#1694=CARTESIAN_POINT('Origin',(6.952367587102,-3.,7.187808075749));
#1695=CARTESIAN_POINT('Origin',(0.,4.5,0.));
#1696=CARTESIAN_POINT('',(2.5,-3.5,0.));
#1697=CARTESIAN_POINT('Origin',(0.,-3.5,0.));
#1698=CARTESIAN_POINT('',(2.5,3.5,0.));
#1699=CARTESIAN_POINT('',(2.5,4.5,-3.06161699786838E-16));
#1700=CARTESIAN_POINT('Origin',(0.,3.5,0.));
#1701=CARTESIAN_POINT('Origin',(0.,-3.5,0.));
#1702=CARTESIAN_POINT('Origin',(0.,-3.5,0.));
#1703=CARTESIAN_POINT('Origin',(0.,-3.5,0.));
#1704=CARTESIAN_POINT('Origin',(0.,3.5,0.));
#1705=CARTESIAN_POINT('Origin',(0.,3.,0.));
#1706=CARTESIAN_POINT('Origin',(0.,-3.,0.));
#1707=CARTESIAN_POINT('Origin',(0.,3.,0.));
#1708=CARTESIAN_POINT('Origin',(0.,3.,0.));
#1709=CARTESIAN_POINT('Origin',(0.,3.,0.));
#1710=CARTESIAN_POINT('',(5.555746915848,3.,0.8799438658513));
#1711=CARTESIAN_POINT('Origin',(0.,3.,0.));
#1712=CARTESIAN_POINT('',(5.568740671761,3.,0.8820018746094));
#1713=CARTESIAN_POINT('',(5.555746915848,3.,0.8799438658513));
#1714=CARTESIAN_POINT('',(6.25321177187,3.,0.7663827608606));
#1715=CARTESIAN_POINT('Ctrl Pts',(5.568740671761,3.,0.8820018746094));
#1716=CARTESIAN_POINT('Ctrl Pts',(5.80743921730223,3.,0.883073014687072));
#1717=CARTESIAN_POINT('Ctrl Pts',(6.03540339729455,3.,0.840293282985661));
#1718=CARTESIAN_POINT('Ctrl Pts',(6.25321177187,3.,0.7663827608606));
#1719=CARTESIAN_POINT('',(6.278144497738,3.,0.5243106574588));
#1720=CARTESIAN_POINT('Origin',(0.,3.,0.));
#1721=CARTESIAN_POINT('',(5.631610109129,3.,0.2716018315452));
#1722=CARTESIAN_POINT('Ctrl Pts',(6.278144497738,3.,0.5243106574588));
#1723=CARTESIAN_POINT('Ctrl Pts',(6.07997413316225,3.,0.40755552943224));
#1724=CARTESIAN_POINT('Ctrl Pts',(5.86551572758497,3.,0.319207552201243));
#1725=CARTESIAN_POINT('Ctrl Pts',(5.631610109129,3.,0.2716018315452));
#1726=CARTESIAN_POINT('',(5.618469657549,3.,0.2709680925883));
#1727=CARTESIAN_POINT('',(5.631610109129,3.,0.2716018315452));
#1728=CARTESIAN_POINT('Origin',(0.,3.,0.));
#1729=CARTESIAN_POINT('Origin',(0.,3.,0.));
#1730=CARTESIAN_POINT('Origin',(0.,3.,0.));
#1731=CARTESIAN_POINT('Origin',(0.,3.,0.));
#1732=CARTESIAN_POINT('Origin',(5.555746915848,-3.,0.8799438658513));
#1733=CARTESIAN_POINT('',(5.555746915848,-3.,0.8799438658513));
#1734=CARTESIAN_POINT('',(5.568740671761,-3.,0.8820018746094));
#1735=CARTESIAN_POINT('',(5.555746915848,-3.,0.8799438658513));
#1736=CARTESIAN_POINT('',(5.568740671761,-3.,0.8820018746094));
#1737=CARTESIAN_POINT('',(5.555746915848,-3.,0.8799438658513));
#1738=CARTESIAN_POINT('Ctrl Pts',(6.277805436808,-3.06,0.7578904377527));
#1739=CARTESIAN_POINT('Ctrl Pts',(6.277805436808,3.06,0.7578904377527));
#1740=CARTESIAN_POINT('Ctrl Pts',(6.26962196547,-3.06,0.7607650135931));
#1741=CARTESIAN_POINT('Ctrl Pts',(6.26962196547,3.06,0.7607650135931));
#1742=CARTESIAN_POINT('Ctrl Pts',(6.03608564437351,-3.06,0.841412921480562));
#1743=CARTESIAN_POINT('Ctrl Pts',(6.03608564437351,3.06,0.841412921480562));
#1744=CARTESIAN_POINT('Ctrl Pts',(5.79083270023634,-3.06,0.886145633935384));
#1745=CARTESIAN_POINT('Ctrl Pts',(5.79083270023634,3.06,0.886145633935384));
#1746=CARTESIAN_POINT('Ctrl Pts',(5.542636391786,-3.06,0.8817100674845));
#1747=CARTESIAN_POINT('Ctrl Pts',(5.542636391786,3.06,0.8817100674845));
#1748=CARTESIAN_POINT('',(6.25321177187,-3.,0.7663827608606));
#1749=CARTESIAN_POINT('Ctrl Pts',(5.568740671761,-3.,0.8820018746094));
#1750=CARTESIAN_POINT('Ctrl Pts',(5.80743921730223,-3.,0.883073014687072));
#1751=CARTESIAN_POINT('Ctrl Pts',(6.03540339729455,-3.,0.840293282985661));
#1752=CARTESIAN_POINT('Ctrl Pts',(6.25321177187,-3.,0.7663827608606));
#1753=CARTESIAN_POINT('',(6.25321177187,-3.,0.7663827608606));
#1754=CARTESIAN_POINT('Origin',(0.,-3.,0.));
#1755=CARTESIAN_POINT('',(6.278144497738,-3.,0.5243106574588));
#1756=CARTESIAN_POINT('Origin',(0.,-3.,0.));
#1757=CARTESIAN_POINT('',(6.278144497738,-3.,0.5243106574588));
#1758=CARTESIAN_POINT('Ctrl Pts',(5.606079742389,-3.06,0.2665828159129));
#1759=CARTESIAN_POINT('Ctrl Pts',(5.606079742389,3.06,0.2665828159129));
#1760=CARTESIAN_POINT('Ctrl Pts',(5.614615552601,-3.06,0.2682018224942));
#1761=CARTESIAN_POINT('Ctrl Pts',(5.614615552601,3.06,0.2682018224942));
#1762=CARTESIAN_POINT('Ctrl Pts',(5.8665836229225,-3.06,0.31774233637916));
#1763=CARTESIAN_POINT('Ctrl Pts',(5.8665836229225,3.06,0.31774233637916));
#1764=CARTESIAN_POINT('Ctrl Pts',(6.09612054331857,-3.06,0.414276507983609));
#1765=CARTESIAN_POINT('Ctrl Pts',(6.09612054331857,3.06,0.414276507983609));
#1766=CARTESIAN_POINT('Ctrl Pts',(6.300493657248,-3.06,0.5376393685586));
#1767=CARTESIAN_POINT('Ctrl Pts',(6.300493657248,3.06,0.5376393685586));
#1768=CARTESIAN_POINT('',(5.631610109129,-3.,0.2716018315452));
#1769=CARTESIAN_POINT('Ctrl Pts',(6.278144497738,-3.,0.5243106574588));
#1770=CARTESIAN_POINT('Ctrl Pts',(6.07997413316225,-3.,0.40755552943224));
#1771=CARTESIAN_POINT('Ctrl Pts',(5.86551572758497,-3.,0.319207552201243));
#1772=CARTESIAN_POINT('Ctrl Pts',(5.631610109129,-3.,0.2716018315452));
#1773=CARTESIAN_POINT('',(5.631610109129,-3.,0.2716018315452));
#1774=CARTESIAN_POINT('Origin',(5.631610109129,-3.,0.2716018315452));
#1775=CARTESIAN_POINT('',(5.618469657549,-3.,0.2709680925883));
#1776=CARTESIAN_POINT('',(5.631610109129,-3.,0.2716018315452));
#1777=CARTESIAN_POINT('',(5.618469657549,-3.,0.2709680925883));
#1778=CARTESIAN_POINT('Origin',(0.,-3.,0.));
#1779=CARTESIAN_POINT('Origin',(0.,-3.,0.));
#1780=CARTESIAN_POINT('Origin',(0.,-3.,0.));
#1781=CARTESIAN_POINT('Origin',(0.,-3.,0.));
#1782=CARTESIAN_POINT('Origin',(0.,-3.,0.));
#1783=CARTESIAN_POINT('Origin',(0.,-3.,0.));
#1784=CARTESIAN_POINT('Origin',(0.,-3.,0.));
#1785=CARTESIAN_POINT('Origin',(0.,-3.,0.));
#1786=CARTESIAN_POINT('Origin',(0.,-3.,0.));
#1787=CARTESIAN_POINT('Origin',(0.,-3.,0.));
#1788=CARTESIAN_POINT('Origin',(0.,-3.,0.));
#1789=CARTESIAN_POINT('Origin',(0.,-3.,0.));
#1790=CARTESIAN_POINT('Origin',(0.,-3.,0.));
#1791=CARTESIAN_POINT('Origin',(0.,-3.,0.));
#1792=CARTESIAN_POINT('Origin',(0.,-3.,0.));
#1793=CARTESIAN_POINT('Origin',(0.,3.5,0.));
#1794=UNCERTAINTY_MEASURE_WITH_UNIT(LENGTH_MEASURE(0.01),#1798,
'DISTANCE_ACCURACY_VALUE',
'Maximum model space distance between geometric entities at asserted c
onnectivities');
#1795=UNCERTAINTY_MEASURE_WITH_UNIT(LENGTH_MEASURE(0.01),#1798,
'DISTANCE_ACCURACY_VALUE',
'Maximum model space distance between geometric entities at asserted c
onnectivities');
#1796=(
GEOMETRIC_REPRESENTATION_CONTEXT(3)
GLOBAL_UNCERTAINTY_ASSIGNED_CONTEXT((#1794))
GLOBAL_UNIT_ASSIGNED_CONTEXT((#1798,#1800,#1801))
REPRESENTATION_CONTEXT('','3D')
);
#1797=(
GEOMETRIC_REPRESENTATION_CONTEXT(3)
GLOBAL_UNCERTAINTY_ASSIGNED_CONTEXT((#1795))
GLOBAL_UNIT_ASSIGNED_CONTEXT((#1798,#1800,#1801))
REPRESENTATION_CONTEXT('','3D')
);
#1798=(
LENGTH_UNIT()
NAMED_UNIT(*)
SI_UNIT(.MILLI.,.METRE.)
);
#1799=(
LENGTH_UNIT()
NAMED_UNIT(*)
SI_UNIT($,.METRE.)
);
#1800=(
NAMED_UNIT(*)
PLANE_ANGLE_UNIT()
SI_UNIT($,.RADIAN.)
);
#1801=(
NAMED_UNIT(*)
SI_UNIT($,.STERADIAN.)
SOLID_ANGLE_UNIT()
);
#1802=SHAPE_DEFINITION_REPRESENTATION(#1803,#1804);
#1803=PRODUCT_DEFINITION_SHAPE('',$,#1806);
#1804=SHAPE_REPRESENTATION('',(#986),#1796);
#1805=PRODUCT_DEFINITION_CONTEXT('part definition',#1810,'design');
#1806=PRODUCT_DEFINITION('ACWA-0031','ACWA-0031 v2',#1807,#1805);
#1807=PRODUCT_DEFINITION_FORMATION('',$,#1812);
#1808=PRODUCT_RELATED_PRODUCT_CATEGORY('ACWA-0031 v2','ACWA-0031 v2',(#1812));
#1809=APPLICATION_PROTOCOL_DEFINITION('international standard',
'automotive_design',2009,#1810);
#1810=APPLICATION_CONTEXT(
'Core Data for Automotive Mechanical Design Process');
#1811=PRODUCT_CONTEXT('part definition',#1810,'mechanical');
#1812=PRODUCT('ACWA-0031','ACWA-0031 v2',$,(#1811));
#1813=PRESENTATION_STYLE_ASSIGNMENT((#1815));
#1814=PRESENTATION_STYLE_ASSIGNMENT((#1816));
#1815=SURFACE_STYLE_USAGE(.BOTH.,#1817);
#1816=SURFACE_STYLE_USAGE(.BOTH.,#1818);
#1817=SURFACE_SIDE_STYLE('',(#1819));
#1818=SURFACE_SIDE_STYLE('',(#1820));
#1819=SURFACE_STYLE_FILL_AREA(#1821);
#1820=SURFACE_STYLE_FILL_AREA(#1822);
#1821=FILL_AREA_STYLE('Acier - Satin\X\E9',(#1823));
#1822=FILL_AREA_STYLE('Opaque(230,230,230)',(#1824));
#1823=FILL_AREA_STYLE_COLOUR('Acier - Satin\X\E9',#1825);
#1824=FILL_AREA_STYLE_COLOUR('Opaque(230,230,230)',#1826);
#1825=COLOUR_RGB('Acier - Satin\X\E9',0.627450980392157,0.627450980392157,
0.627450980392157);
#1826=COLOUR_RGB('Opaque(230,230,230)',0.901960784313726,0.901960784313726,
0.901960784313726);
ENDSEC;
END-ISO-10303-21;
