ISO-10303-21;
HEADER;
/* Generated by software containing ST-Developer
 * from STEP Tools, Inc. (www.steptools.com) 
 */

FILE_DESCRIPTION(
/* description */ (''),
/* implementation_level */ '2;1');

FILE_NAME(
/* name */ 'ACWA-0029_35.step',
/* time_stamp */ '2025-04-11T11:17:02+02:00',
/* author */ (''),
/* organization */ (''),
/* preprocessor_version */ 'ST-DEVELOPER v20.1',
/* originating_system */ 'Autodesk Translation Framework v14.4.0.0',
/* authorisation */ '');

FILE_SCHEMA (('AUTOMOTIVE_DESIGN { 1 0 10303 214 3 1 1 }'));
ENDSEC;

DATA;
#10=MECHANICAL_DESIGN_GEOMETRIC_PRESENTATION_REPRESENTATION('',(#13),#1449);
#11=SHAPE_REPRESENTATION_RELATIONSHIP('SRR','None',#1456,#12);
#12=ADVANCED_BREP_SHAPE_REPRESENTATION('',(#14),#1448);
#13=STYLED_ITEM('',(#1465),#14);
#14=MANIFOLD_SOLID_BREP('Corps6',#836);
#15=FACE_BOUND('',#97,.T.);
#16=FACE_BOUND('',#103,.T.);
#17=FACE_BOUND('',#108,.T.);
#18=FACE_BOUND('',#111,.T.);
#19=FACE_BOUND('',#112,.T.);
#20=FACE_BOUND('',#113,.T.);
#21=FACE_BOUND('',#118,.T.);
#22=FACE_BOUND('',#131,.T.);
#23=FACE_BOUND('',#138,.T.);
#24=FACE_BOUND('',#144,.T.);
#25=FACE_BOUND('',#145,.T.);
#26=FACE_BOUND('',#146,.T.);
#27=PLANE('',#853);
#28=PLANE('',#857);
#29=PLANE('',#858);
#30=PLANE('',#862);
#31=PLANE('',#866);
#32=PLANE('',#867);
#33=PLANE('',#872);
#34=PLANE('',#876);
#35=PLANE('',#890);
#36=PLANE('',#905);
#37=PLANE('',#923);
#38=PLANE('',#925);
#39=PLANE('',#926);
#40=PLANE('',#929);
#41=PLANE('',#931);
#42=PLANE('',#933);
#43=PLANE('',#934);
#44=PLANE('',#937);
#45=PLANE('',#940);
#46=PLANE('',#943);
#47=PLANE('',#944);
#48=FACE_OUTER_BOUND('',#92,.T.);
#49=FACE_OUTER_BOUND('',#93,.T.);
#50=FACE_OUTER_BOUND('',#94,.T.);
#51=FACE_OUTER_BOUND('',#95,.T.);
#52=FACE_OUTER_BOUND('',#96,.T.);
#53=FACE_OUTER_BOUND('',#98,.T.);
#54=FACE_OUTER_BOUND('',#99,.T.);
#55=FACE_OUTER_BOUND('',#100,.T.);
#56=FACE_OUTER_BOUND('',#101,.T.);
#57=FACE_OUTER_BOUND('',#102,.T.);
#58=FACE_OUTER_BOUND('',#104,.T.);
#59=FACE_OUTER_BOUND('',#105,.T.);
#60=FACE_OUTER_BOUND('',#106,.T.);
#61=FACE_OUTER_BOUND('',#107,.T.);
#62=FACE_OUTER_BOUND('',#109,.T.);
#63=FACE_OUTER_BOUND('',#110,.T.);
#64=FACE_OUTER_BOUND('',#114,.T.);
#65=FACE_OUTER_BOUND('',#115,.T.);
#66=FACE_OUTER_BOUND('',#116,.T.);
#67=FACE_OUTER_BOUND('',#117,.T.);
#68=FACE_OUTER_BOUND('',#119,.T.);
#69=FACE_OUTER_BOUND('',#120,.T.);
#70=FACE_OUTER_BOUND('',#121,.T.);
#71=FACE_OUTER_BOUND('',#122,.T.);
#72=FACE_OUTER_BOUND('',#123,.T.);
#73=FACE_OUTER_BOUND('',#124,.T.);
#74=FACE_OUTER_BOUND('',#125,.T.);
#75=FACE_OUTER_BOUND('',#126,.T.);
#76=FACE_OUTER_BOUND('',#127,.T.);
#77=FACE_OUTER_BOUND('',#128,.T.);
#78=FACE_OUTER_BOUND('',#129,.T.);
#79=FACE_OUTER_BOUND('',#130,.T.);
#80=FACE_OUTER_BOUND('',#132,.T.);
#81=FACE_OUTER_BOUND('',#133,.T.);
#82=FACE_OUTER_BOUND('',#134,.T.);
#83=FACE_OUTER_BOUND('',#135,.T.);
#84=FACE_OUTER_BOUND('',#136,.T.);
#85=FACE_OUTER_BOUND('',#137,.T.);
#86=FACE_OUTER_BOUND('',#139,.T.);
#87=FACE_OUTER_BOUND('',#140,.T.);
#88=FACE_OUTER_BOUND('',#141,.T.);
#89=FACE_OUTER_BOUND('',#142,.T.);
#90=FACE_OUTER_BOUND('',#143,.T.);
#91=FACE_OUTER_BOUND('',#147,.T.);
#92=EDGE_LOOP('',(#531,#532,#533,#534));
#93=EDGE_LOOP('',(#535,#536,#537,#538));
#94=EDGE_LOOP('',(#539,#540,#541,#542));
#95=EDGE_LOOP('',(#543,#544,#545,#546));
#96=EDGE_LOOP('',(#547,#548,#549,#550));
#97=EDGE_LOOP('',(#551));
#98=EDGE_LOOP('',(#552,#553,#554,#555));
#99=EDGE_LOOP('',(#556,#557,#558,#559));
#100=EDGE_LOOP('',(#560,#561,#562,#563));
#101=EDGE_LOOP('',(#564,#565,#566,#567));
#102=EDGE_LOOP('',(#568,#569,#570,#571,#572));
#103=EDGE_LOOP('',(#573));
#104=EDGE_LOOP('',(#574,#575,#576,#577,#578,#579));
#105=EDGE_LOOP('',(#580,#581,#582,#583));
#106=EDGE_LOOP('',(#584,#585,#586,#587,#588));
#107=EDGE_LOOP('',(#589,#590,#591,#592,#593,#594,#595,#596,#597,#598,#599,
#600));
#108=EDGE_LOOP('',(#601));
#109=EDGE_LOOP('',(#602,#603,#604,#605,#606,#607,#608,#609,#610,#611));
#110=EDGE_LOOP('',(#612,#613,#614,#615,#616,#617,#618,#619,#620,#621,#622,
#623));
#111=EDGE_LOOP('',(#624));
#112=EDGE_LOOP('',(#625));
#113=EDGE_LOOP('',(#626));
#114=EDGE_LOOP('',(#627,#628,#629,#630,#631,#632,#633,#634,#635,#636));
#115=EDGE_LOOP('',(#637,#638,#639,#640));
#116=EDGE_LOOP('',(#641,#642,#643,#644));
#117=EDGE_LOOP('',(#645,#646,#647,#648,#649,#650,#651,#652,#653,#654,#655,
#656));
#118=EDGE_LOOP('',(#657));
#119=EDGE_LOOP('',(#658,#659,#660,#661));
#120=EDGE_LOOP('',(#662,#663,#664,#665,#666));
#121=EDGE_LOOP('',(#667,#668,#669,#670));
#122=EDGE_LOOP('',(#671,#672,#673,#674));
#123=EDGE_LOOP('',(#675,#676,#677,#678));
#124=EDGE_LOOP('',(#679,#680,#681,#682));
#125=EDGE_LOOP('',(#683,#684,#685,#686,#687));
#126=EDGE_LOOP('',(#688,#689,#690,#691));
#127=EDGE_LOOP('',(#692,#693,#694,#695));
#128=EDGE_LOOP('',(#696,#697,#698,#699));
#129=EDGE_LOOP('',(#700,#701,#702,#703));
#130=EDGE_LOOP('',(#704,#705,#706,#707));
#131=EDGE_LOOP('',(#708));
#132=EDGE_LOOP('',(#709,#710,#711,#712));
#133=EDGE_LOOP('',(#713,#714,#715,#716));
#134=EDGE_LOOP('',(#717,#718,#719,#720));
#135=EDGE_LOOP('',(#721,#722,#723,#724));
#136=EDGE_LOOP('',(#725,#726,#727,#728));
#137=EDGE_LOOP('',(#729,#730,#731,#732));
#138=EDGE_LOOP('',(#733));
#139=EDGE_LOOP('',(#734,#735,#736,#737));
#140=EDGE_LOOP('',(#738,#739,#740,#741));
#141=EDGE_LOOP('',(#742,#743,#744,#745));
#142=EDGE_LOOP('',(#746,#747,#748,#749));
#143=EDGE_LOOP('',(#750,#751,#752,#753,#754,#755,#756,#757,#758,#759,#760,
#761));
#144=EDGE_LOOP('',(#762));
#145=EDGE_LOOP('',(#763));
#146=EDGE_LOOP('',(#764));
#147=EDGE_LOOP('',(#765,#766,#767,#768));
#148=LINE('',#1210,#216);
#149=LINE('',#1215,#217);
#150=LINE('',#1217,#218);
#151=LINE('',#1219,#219);
#152=LINE('',#1220,#220);
#153=LINE('',#1226,#221);
#154=LINE('',#1229,#222);
#155=LINE('',#1231,#223);
#156=LINE('',#1232,#224);
#157=LINE('',#1234,#225);
#158=LINE('',#1239,#226);
#159=LINE('',#1244,#227);
#160=LINE('',#1246,#228);
#161=LINE('',#1248,#229);
#162=LINE('',#1249,#230);
#163=LINE('',#1255,#231);
#164=LINE('',#1258,#232);
#165=LINE('',#1260,#233);
#166=LINE('',#1261,#234);
#167=LINE('',#1264,#235);
#168=LINE('',#1268,#236);
#169=LINE('',#1272,#237);
#170=LINE('',#1276,#238);
#171=LINE('',#1277,#239);
#172=LINE('',#1280,#240);
#173=LINE('',#1284,#241);
#174=LINE('',#1288,#242);
#175=LINE('',#1298,#243);
#176=LINE('',#1302,#244);
#177=LINE('',#1313,#245);
#178=LINE('',#1315,#246);
#179=LINE('',#1317,#247);
#180=LINE('',#1320,#248);
#181=LINE('',#1322,#249);
#182=LINE('',#1326,#250);
#183=LINE('',#1334,#251);
#184=LINE('',#1337,#252);
#185=LINE('',#1348,#253);
#186=LINE('',#1350,#254);
#187=LINE('',#1351,#255);
#188=LINE('',#1353,#256);
#189=LINE('',#1356,#257);
#190=LINE('',#1358,#258);
#191=LINE('',#1364,#259);
#192=LINE('',#1371,#260);
#193=LINE('',#1375,#261);
#194=LINE('',#1381,#262);
#195=LINE('',#1385,#263);
#196=LINE('',#1387,#264);
#197=LINE('',#1390,#265);
#198=LINE('',#1393,#266);
#199=LINE('',#1397,#267);
#200=LINE('',#1400,#268);
#201=LINE('',#1402,#269);
#202=LINE('',#1406,#270);
#203=LINE('',#1409,#271);
#204=LINE('',#1410,#272);
#205=LINE('',#1414,#273);
#206=LINE('',#1416,#274);
#207=LINE('',#1419,#275);
#208=LINE('',#1421,#276);
#209=LINE('',#1424,#277);
#210=LINE('',#1427,#278);
#211=LINE('',#1432,#279);
#212=LINE('',#1433,#280);
#213=LINE('',#1437,#281);
#214=LINE('',#1439,#282);
#215=LINE('',#1442,#283);
#216=VECTOR('',#951,2.5);
#217=VECTOR('',#956,10.);
#218=VECTOR('',#957,10.);
#219=VECTOR('',#958,10.);
#220=VECTOR('',#959,10.);
#221=VECTOR('',#966,10.);
#222=VECTOR('',#969,10.);
#223=VECTOR('',#970,10.);
#224=VECTOR('',#971,10.);
#225=VECTOR('',#974,10.);
#226=VECTOR('',#979,2.5);
#227=VECTOR('',#984,10.);
#228=VECTOR('',#985,10.);
#229=VECTOR('',#986,10.);
#230=VECTOR('',#987,10.);
#231=VECTOR('',#994,10.);
#232=VECTOR('',#997,10.);
#233=VECTOR('',#998,10.);
#234=VECTOR('',#999,10.);
#235=VECTOR('',#1002,10.);
#236=VECTOR('',#1007,10.);
#237=VECTOR('',#1010,5.9);
#238=VECTOR('',#1015,10.);
#239=VECTOR('',#1016,10.);
#240=VECTOR('',#1019,10.);
#241=VECTOR('',#1022,5.9);
#242=VECTOR('',#1027,10.);
#243=VECTOR('',#1036,4.17045582787975);
#244=VECTOR('',#1039,2.78409837330513);
#245=VECTOR('',#1050,10.);
#246=VECTOR('',#1051,10.);
#247=VECTOR('',#1052,10.);
#248=VECTOR('',#1055,5.9);
#249=VECTOR('',#1056,9.2);
#250=VECTOR('',#1059,5.9);
#251=VECTOR('',#1068,10.);
#252=VECTOR('',#1071,10.);
#253=VECTOR('',#1082,10.);
#254=VECTOR('',#1083,10.);
#255=VECTOR('',#1084,10.);
#256=VECTOR('',#1085,5.9);
#257=VECTOR('',#1088,9.2);
#258=VECTOR('',#1089,5.9);
#259=VECTOR('',#1098,9.2);
#260=VECTOR('',#1107,2.78409837330513);
#261=VECTOR('',#1110,4.17045582787975);
#262=VECTOR('',#1119,5.9);
#263=VECTOR('',#1126,2.5);
#264=VECTOR('',#1129,9.2);
#265=VECTOR('',#1132,5.9);
#266=VECTOR('',#1137,10.);
#267=VECTOR('',#1142,2.5);
#268=VECTOR('',#1147,9.2);
#269=VECTOR('',#1150,9.2);
#270=VECTOR('',#1155,10.);
#271=VECTOR('',#1158,10.);
#272=VECTOR('',#1159,10.);
#273=VECTOR('',#1164,10.);
#274=VECTOR('',#1167,10.);
#275=VECTOR('',#1172,2.5);
#276=VECTOR('',#1175,10.);
#277=VECTOR('',#1178,10.);
#278=VECTOR('',#1181,10.);
#279=VECTOR('',#1186,10.);
#280=VECTOR('',#1187,10.);
#281=VECTOR('',#1192,10.);
#282=VECTOR('',#1195,10.);
#283=VECTOR('',#1198,2.5);
#284=CIRCLE('',#851,2.5);
#285=CIRCLE('',#852,2.5);
#286=CIRCLE('',#855,5.);
#287=CIRCLE('',#856,5.);
#288=CIRCLE('',#860,2.5);
#289=CIRCLE('',#861,2.5);
#290=CIRCLE('',#864,5.);
#291=CIRCLE('',#865,5.);
#292=CIRCLE('',#868,35.5);
#293=CIRCLE('',#870,35.5);
#294=CIRCLE('',#871,35.5);
#295=CIRCLE('',#874,35.5);
#296=CIRCLE('',#875,35.5);
#297=CIRCLE('',#877,35.5);
#298=CIRCLE('',#878,5.);
#299=CIRCLE('',#879,70.);
#300=CIRCLE('',#880,1.);
#301=CIRCLE('',#881,1.);
#302=CIRCLE('',#882,2.);
#303=CIRCLE('',#883,35.);
#304=CIRCLE('',#884,5.);
#305=CIRCLE('',#885,2.5);
#306=CIRCLE('',#887,35.);
#307=CIRCLE('',#888,35.);
#308=CIRCLE('',#889,35.);
#309=CIRCLE('',#891,5.);
#310=CIRCLE('',#892,70.);
#311=CIRCLE('',#893,5.);
#312=CIRCLE('',#894,5.);
#313=CIRCLE('',#895,35.5);
#314=CIRCLE('',#896,2.5);
#315=CIRCLE('',#897,2.5);
#316=CIRCLE('',#899,70.);
#317=CIRCLE('',#900,70.);
#318=CIRCLE('',#902,5.);
#319=CIRCLE('',#904,2.);
#320=CIRCLE('',#906,35.5);
#321=CIRCLE('',#907,5.);
#322=CIRCLE('',#908,1.);
#323=CIRCLE('',#909,1.);
#324=CIRCLE('',#910,5.);
#325=CIRCLE('',#911,2.5);
#326=CIRCLE('',#918,5.);
#327=CIRCLE('',#920,35.5);
#328=CIRCLE('',#922,2.5);
#329=CIRCLE('',#927,5.);
#330=CIRCLE('',#928,2.5);
#331=CIRCLE('',#935,5.);
#332=CIRCLE('',#936,2.5);
#333=CIRCLE('',#939,5.);
#334=CIRCLE('',#942,2.5);
#335=VERTEX_POINT('',#1207);
#336=VERTEX_POINT('',#1209);
#337=VERTEX_POINT('',#1213);
#338=VERTEX_POINT('',#1214);
#339=VERTEX_POINT('',#1216);
#340=VERTEX_POINT('',#1218);
#341=VERTEX_POINT('',#1222);
#342=VERTEX_POINT('',#1224);
#343=VERTEX_POINT('',#1228);
#344=VERTEX_POINT('',#1230);
#345=VERTEX_POINT('',#1236);
#346=VERTEX_POINT('',#1238);
#347=VERTEX_POINT('',#1242);
#348=VERTEX_POINT('',#1243);
#349=VERTEX_POINT('',#1245);
#350=VERTEX_POINT('',#1247);
#351=VERTEX_POINT('',#1251);
#352=VERTEX_POINT('',#1253);
#353=VERTEX_POINT('',#1257);
#354=VERTEX_POINT('',#1259);
#355=VERTEX_POINT('',#1263);
#356=VERTEX_POINT('',#1267);
#357=VERTEX_POINT('',#1269);
#358=VERTEX_POINT('',#1271);
#359=VERTEX_POINT('',#1275);
#360=VERTEX_POINT('',#1279);
#361=VERTEX_POINT('',#1281);
#362=VERTEX_POINT('',#1283);
#363=VERTEX_POINT('',#1287);
#364=VERTEX_POINT('',#1289);
#365=VERTEX_POINT('',#1291);
#366=VERTEX_POINT('',#1293);
#367=VERTEX_POINT('',#1295);
#368=VERTEX_POINT('',#1297);
#369=VERTEX_POINT('',#1299);
#370=VERTEX_POINT('',#1301);
#371=VERTEX_POINT('',#1303);
#372=VERTEX_POINT('',#1305);
#373=VERTEX_POINT('',#1308);
#374=VERTEX_POINT('',#1311);
#375=VERTEX_POINT('',#1312);
#376=VERTEX_POINT('',#1314);
#377=VERTEX_POINT('',#1316);
#378=VERTEX_POINT('',#1318);
#379=VERTEX_POINT('',#1321);
#380=VERTEX_POINT('',#1323);
#381=VERTEX_POINT('',#1325);
#382=VERTEX_POINT('',#1329);
#383=VERTEX_POINT('',#1331);
#384=VERTEX_POINT('',#1333);
#385=VERTEX_POINT('',#1335);
#386=VERTEX_POINT('',#1338);
#387=VERTEX_POINT('',#1341);
#388=VERTEX_POINT('',#1343);
#389=VERTEX_POINT('',#1346);
#390=VERTEX_POINT('',#1347);
#391=VERTEX_POINT('',#1349);
#392=VERTEX_POINT('',#1352);
#393=VERTEX_POINT('',#1354);
#394=VERTEX_POINT('',#1357);
#395=VERTEX_POINT('',#1363);
#396=VERTEX_POINT('',#1367);
#397=VERTEX_POINT('',#1370);
#398=VERTEX_POINT('',#1372);
#399=VERTEX_POINT('',#1374);
#400=VERTEX_POINT('',#1378);
#401=VERTEX_POINT('',#1389);
#402=VERTEX_POINT('',#1396);
#403=VERTEX_POINT('',#1405);
#404=VERTEX_POINT('',#1407);
#405=VERTEX_POINT('',#1411);
#406=VERTEX_POINT('',#1423);
#407=VERTEX_POINT('',#1425);
#408=VERTEX_POINT('',#1428);
#409=VERTEX_POINT('',#1431);
#410=VERTEX_POINT('',#1435);
#411=VERTEX_POINT('',#1441);
#412=EDGE_CURVE('',#335,#335,#284,.T.);
#413=EDGE_CURVE('',#335,#336,#148,.T.);
#414=EDGE_CURVE('',#336,#336,#285,.T.);
#415=EDGE_CURVE('',#337,#338,#149,.T.);
#416=EDGE_CURVE('',#339,#337,#150,.T.);
#417=EDGE_CURVE('',#340,#339,#151,.T.);
#418=EDGE_CURVE('',#338,#340,#152,.T.);
#419=EDGE_CURVE('',#338,#341,#286,.T.);
#420=EDGE_CURVE('',#342,#340,#287,.T.);
#421=EDGE_CURVE('',#341,#342,#153,.T.);
#422=EDGE_CURVE('',#343,#341,#154,.T.);
#423=EDGE_CURVE('',#344,#342,#155,.T.);
#424=EDGE_CURVE('',#344,#343,#156,.T.);
#425=EDGE_CURVE('',#344,#339,#157,.T.);
#426=EDGE_CURVE('',#345,#345,#288,.T.);
#427=EDGE_CURVE('',#345,#346,#158,.T.);
#428=EDGE_CURVE('',#346,#346,#289,.T.);
#429=EDGE_CURVE('',#347,#348,#159,.T.);
#430=EDGE_CURVE('',#348,#349,#160,.T.);
#431=EDGE_CURVE('',#350,#349,#161,.T.);
#432=EDGE_CURVE('',#347,#350,#162,.T.);
#433=EDGE_CURVE('',#347,#351,#290,.T.);
#434=EDGE_CURVE('',#352,#350,#291,.T.);
#435=EDGE_CURVE('',#351,#352,#163,.T.);
#436=EDGE_CURVE('',#351,#353,#164,.T.);
#437=EDGE_CURVE('',#354,#352,#165,.T.);
#438=EDGE_CURVE('',#353,#354,#166,.T.);
#439=EDGE_CURVE('',#355,#349,#167,.T.);
#440=EDGE_CURVE('',#355,#354,#292,.T.);
#441=EDGE_CURVE('',#355,#356,#168,.T.);
#442=EDGE_CURVE('',#357,#356,#293,.T.);
#443=EDGE_CURVE('',#357,#358,#169,.T.);
#444=EDGE_CURVE('',#353,#358,#294,.T.);
#445=EDGE_CURVE('',#349,#359,#170,.T.);
#446=EDGE_CURVE('',#356,#359,#171,.T.);
#447=EDGE_CURVE('',#360,#344,#172,.T.);
#448=EDGE_CURVE('',#360,#361,#295,.T.);
#449=EDGE_CURVE('',#362,#361,#173,.T.);
#450=EDGE_CURVE('',#362,#343,#296,.T.);
#451=EDGE_CURVE('',#360,#363,#174,.T.);
#452=EDGE_CURVE('',#364,#363,#297,.T.);
#453=EDGE_CURVE('',#364,#365,#298,.T.);
#454=EDGE_CURVE('',#366,#365,#299,.T.);
#455=EDGE_CURVE('',#366,#367,#300,.T.);
#456=EDGE_CURVE('',#367,#368,#175,.T.);
#457=EDGE_CURVE('',#368,#369,#301,.T.);
#458=EDGE_CURVE('',#369,#370,#176,.T.);
#459=EDGE_CURVE('',#370,#371,#302,.T.);
#460=EDGE_CURVE('',#372,#371,#303,.T.);
#461=EDGE_CURVE('',#372,#361,#304,.T.);
#462=EDGE_CURVE('',#373,#373,#305,.T.);
#463=EDGE_CURVE('',#374,#375,#177,.T.);
#464=EDGE_CURVE('',#375,#376,#178,.T.);
#465=EDGE_CURVE('',#376,#377,#179,.T.);
#466=EDGE_CURVE('',#377,#378,#306,.T.);
#467=EDGE_CURVE('',#378,#372,#180,.T.);
#468=EDGE_CURVE('',#371,#379,#181,.T.);
#469=EDGE_CURVE('',#379,#380,#307,.T.);
#470=EDGE_CURVE('',#380,#381,#182,.T.);
#471=EDGE_CURVE('',#374,#381,#308,.T.);
#472=EDGE_CURVE('',#358,#382,#309,.T.);
#473=EDGE_CURVE('',#382,#383,#310,.T.);
#474=EDGE_CURVE('',#383,#384,#183,.T.);
#475=EDGE_CURVE('',#384,#385,#311,.T.);
#476=EDGE_CURVE('',#374,#385,#184,.T.);
#477=EDGE_CURVE('',#381,#386,#312,.T.);
#478=EDGE_CURVE('',#386,#348,#313,.T.);
#479=EDGE_CURVE('',#387,#387,#314,.T.);
#480=EDGE_CURVE('',#388,#388,#315,.T.);
#481=EDGE_CURVE('',#389,#390,#185,.T.);
#482=EDGE_CURVE('',#390,#391,#186,.T.);
#483=EDGE_CURVE('',#391,#383,#187,.T.);
#484=EDGE_CURVE('',#392,#382,#188,.T.);
#485=EDGE_CURVE('',#392,#393,#316,.T.);
#486=EDGE_CURVE('',#393,#366,#189,.T.);
#487=EDGE_CURVE('',#394,#365,#190,.T.);
#488=EDGE_CURVE('',#394,#389,#317,.T.);
#489=EDGE_CURVE('',#362,#378,#318,.T.);
#490=EDGE_CURVE('',#370,#395,#191,.T.);
#491=EDGE_CURVE('',#379,#395,#319,.T.);
#492=EDGE_CURVE('',#359,#396,#320,.T.);
#493=EDGE_CURVE('',#380,#396,#321,.T.);
#494=EDGE_CURVE('',#397,#395,#192,.T.);
#495=EDGE_CURVE('',#397,#398,#322,.T.);
#496=EDGE_CURVE('',#399,#398,#193,.T.);
#497=EDGE_CURVE('',#399,#393,#323,.T.);
#498=EDGE_CURVE('',#392,#357,#324,.T.);
#499=EDGE_CURVE('',#400,#400,#325,.T.);
#500=EDGE_CURVE('',#396,#386,#194,.T.);
#501=EDGE_CURVE('',#388,#400,#195,.T.);
#502=EDGE_CURVE('',#399,#367,#196,.T.);
#503=EDGE_CURVE('',#401,#364,#197,.T.);
#504=EDGE_CURVE('',#394,#401,#326,.T.);
#505=EDGE_CURVE('',#363,#339,#198,.T.);
#506=EDGE_CURVE('',#337,#401,#327,.T.);
#507=EDGE_CURVE('',#373,#402,#199,.T.);
#508=EDGE_CURVE('',#402,#402,#328,.T.);
#509=EDGE_CURVE('',#368,#398,#200,.T.);
#510=EDGE_CURVE('',#369,#397,#201,.T.);
#511=EDGE_CURVE('',#375,#403,#202,.T.);
#512=EDGE_CURVE('',#403,#404,#329,.T.);
#513=EDGE_CURVE('',#404,#391,#203,.T.);
#514=EDGE_CURVE('',#375,#391,#204,.T.);
#515=EDGE_CURVE('',#405,#405,#330,.T.);
#516=EDGE_CURVE('',#385,#403,#205,.T.);
#517=EDGE_CURVE('',#384,#404,#206,.T.);
#518=EDGE_CURVE('',#405,#387,#207,.T.);
#519=EDGE_CURVE('',#390,#376,#208,.T.);
#520=EDGE_CURVE('',#390,#406,#209,.T.);
#521=EDGE_CURVE('',#406,#407,#331,.T.);
#522=EDGE_CURVE('',#407,#376,#210,.T.);
#523=EDGE_CURVE('',#408,#408,#332,.T.);
#524=EDGE_CURVE('',#389,#409,#211,.T.);
#525=EDGE_CURVE('',#409,#406,#212,.T.);
#526=EDGE_CURVE('',#410,#409,#333,.T.);
#527=EDGE_CURVE('',#410,#407,#213,.T.);
#528=EDGE_CURVE('',#377,#410,#214,.T.);
#529=EDGE_CURVE('',#408,#411,#215,.T.);
#530=EDGE_CURVE('',#411,#411,#334,.T.);
#531=ORIENTED_EDGE('',*,*,#412,.F.);
#532=ORIENTED_EDGE('',*,*,#413,.T.);
#533=ORIENTED_EDGE('',*,*,#414,.T.);
#534=ORIENTED_EDGE('',*,*,#413,.F.);
#535=ORIENTED_EDGE('',*,*,#415,.F.);
#536=ORIENTED_EDGE('',*,*,#416,.F.);
#537=ORIENTED_EDGE('',*,*,#417,.F.);
#538=ORIENTED_EDGE('',*,*,#418,.F.);
#539=ORIENTED_EDGE('',*,*,#419,.F.);
#540=ORIENTED_EDGE('',*,*,#418,.T.);
#541=ORIENTED_EDGE('',*,*,#420,.F.);
#542=ORIENTED_EDGE('',*,*,#421,.F.);
#543=ORIENTED_EDGE('',*,*,#422,.T.);
#544=ORIENTED_EDGE('',*,*,#421,.T.);
#545=ORIENTED_EDGE('',*,*,#423,.F.);
#546=ORIENTED_EDGE('',*,*,#424,.T.);
#547=ORIENTED_EDGE('',*,*,#425,.F.);
#548=ORIENTED_EDGE('',*,*,#423,.T.);
#549=ORIENTED_EDGE('',*,*,#420,.T.);
#550=ORIENTED_EDGE('',*,*,#417,.T.);
#551=ORIENTED_EDGE('',*,*,#412,.T.);
#552=ORIENTED_EDGE('',*,*,#426,.F.);
#553=ORIENTED_EDGE('',*,*,#427,.T.);
#554=ORIENTED_EDGE('',*,*,#428,.T.);
#555=ORIENTED_EDGE('',*,*,#427,.F.);
#556=ORIENTED_EDGE('',*,*,#429,.T.);
#557=ORIENTED_EDGE('',*,*,#430,.T.);
#558=ORIENTED_EDGE('',*,*,#431,.F.);
#559=ORIENTED_EDGE('',*,*,#432,.F.);
#560=ORIENTED_EDGE('',*,*,#433,.F.);
#561=ORIENTED_EDGE('',*,*,#432,.T.);
#562=ORIENTED_EDGE('',*,*,#434,.F.);
#563=ORIENTED_EDGE('',*,*,#435,.F.);
#564=ORIENTED_EDGE('',*,*,#436,.F.);
#565=ORIENTED_EDGE('',*,*,#435,.T.);
#566=ORIENTED_EDGE('',*,*,#437,.F.);
#567=ORIENTED_EDGE('',*,*,#438,.F.);
#568=ORIENTED_EDGE('',*,*,#437,.T.);
#569=ORIENTED_EDGE('',*,*,#434,.T.);
#570=ORIENTED_EDGE('',*,*,#431,.T.);
#571=ORIENTED_EDGE('',*,*,#439,.F.);
#572=ORIENTED_EDGE('',*,*,#440,.T.);
#573=ORIENTED_EDGE('',*,*,#426,.T.);
#574=ORIENTED_EDGE('',*,*,#441,.T.);
#575=ORIENTED_EDGE('',*,*,#442,.F.);
#576=ORIENTED_EDGE('',*,*,#443,.T.);
#577=ORIENTED_EDGE('',*,*,#444,.F.);
#578=ORIENTED_EDGE('',*,*,#438,.T.);
#579=ORIENTED_EDGE('',*,*,#440,.F.);
#580=ORIENTED_EDGE('',*,*,#439,.T.);
#581=ORIENTED_EDGE('',*,*,#445,.T.);
#582=ORIENTED_EDGE('',*,*,#446,.F.);
#583=ORIENTED_EDGE('',*,*,#441,.F.);
#584=ORIENTED_EDGE('',*,*,#447,.F.);
#585=ORIENTED_EDGE('',*,*,#448,.T.);
#586=ORIENTED_EDGE('',*,*,#449,.F.);
#587=ORIENTED_EDGE('',*,*,#450,.T.);
#588=ORIENTED_EDGE('',*,*,#424,.F.);
#589=ORIENTED_EDGE('',*,*,#451,.T.);
#590=ORIENTED_EDGE('',*,*,#452,.F.);
#591=ORIENTED_EDGE('',*,*,#453,.T.);
#592=ORIENTED_EDGE('',*,*,#454,.F.);
#593=ORIENTED_EDGE('',*,*,#455,.T.);
#594=ORIENTED_EDGE('',*,*,#456,.T.);
#595=ORIENTED_EDGE('',*,*,#457,.T.);
#596=ORIENTED_EDGE('',*,*,#458,.T.);
#597=ORIENTED_EDGE('',*,*,#459,.T.);
#598=ORIENTED_EDGE('',*,*,#460,.F.);
#599=ORIENTED_EDGE('',*,*,#461,.T.);
#600=ORIENTED_EDGE('',*,*,#448,.F.);
#601=ORIENTED_EDGE('',*,*,#462,.T.);
#602=ORIENTED_EDGE('',*,*,#463,.T.);
#603=ORIENTED_EDGE('',*,*,#464,.T.);
#604=ORIENTED_EDGE('',*,*,#465,.T.);
#605=ORIENTED_EDGE('',*,*,#466,.T.);
#606=ORIENTED_EDGE('',*,*,#467,.T.);
#607=ORIENTED_EDGE('',*,*,#460,.T.);
#608=ORIENTED_EDGE('',*,*,#468,.T.);
#609=ORIENTED_EDGE('',*,*,#469,.T.);
#610=ORIENTED_EDGE('',*,*,#470,.T.);
#611=ORIENTED_EDGE('',*,*,#471,.F.);
#612=ORIENTED_EDGE('',*,*,#444,.T.);
#613=ORIENTED_EDGE('',*,*,#472,.T.);
#614=ORIENTED_EDGE('',*,*,#473,.T.);
#615=ORIENTED_EDGE('',*,*,#474,.T.);
#616=ORIENTED_EDGE('',*,*,#475,.T.);
#617=ORIENTED_EDGE('',*,*,#476,.F.);
#618=ORIENTED_EDGE('',*,*,#471,.T.);
#619=ORIENTED_EDGE('',*,*,#477,.T.);
#620=ORIENTED_EDGE('',*,*,#478,.T.);
#621=ORIENTED_EDGE('',*,*,#429,.F.);
#622=ORIENTED_EDGE('',*,*,#433,.T.);
#623=ORIENTED_EDGE('',*,*,#436,.T.);
#624=ORIENTED_EDGE('',*,*,#428,.F.);
#625=ORIENTED_EDGE('',*,*,#479,.F.);
#626=ORIENTED_EDGE('',*,*,#480,.T.);
#627=ORIENTED_EDGE('',*,*,#481,.T.);
#628=ORIENTED_EDGE('',*,*,#482,.T.);
#629=ORIENTED_EDGE('',*,*,#483,.T.);
#630=ORIENTED_EDGE('',*,*,#473,.F.);
#631=ORIENTED_EDGE('',*,*,#484,.F.);
#632=ORIENTED_EDGE('',*,*,#485,.T.);
#633=ORIENTED_EDGE('',*,*,#486,.T.);
#634=ORIENTED_EDGE('',*,*,#454,.T.);
#635=ORIENTED_EDGE('',*,*,#487,.F.);
#636=ORIENTED_EDGE('',*,*,#488,.T.);
#637=ORIENTED_EDGE('',*,*,#461,.F.);
#638=ORIENTED_EDGE('',*,*,#467,.F.);
#639=ORIENTED_EDGE('',*,*,#489,.F.);
#640=ORIENTED_EDGE('',*,*,#449,.T.);
#641=ORIENTED_EDGE('',*,*,#490,.T.);
#642=ORIENTED_EDGE('',*,*,#491,.F.);
#643=ORIENTED_EDGE('',*,*,#468,.F.);
#644=ORIENTED_EDGE('',*,*,#459,.F.);
#645=ORIENTED_EDGE('',*,*,#446,.T.);
#646=ORIENTED_EDGE('',*,*,#492,.T.);
#647=ORIENTED_EDGE('',*,*,#493,.F.);
#648=ORIENTED_EDGE('',*,*,#469,.F.);
#649=ORIENTED_EDGE('',*,*,#491,.T.);
#650=ORIENTED_EDGE('',*,*,#494,.F.);
#651=ORIENTED_EDGE('',*,*,#495,.T.);
#652=ORIENTED_EDGE('',*,*,#496,.F.);
#653=ORIENTED_EDGE('',*,*,#497,.T.);
#654=ORIENTED_EDGE('',*,*,#485,.F.);
#655=ORIENTED_EDGE('',*,*,#498,.T.);
#656=ORIENTED_EDGE('',*,*,#442,.T.);
#657=ORIENTED_EDGE('',*,*,#499,.F.);
#658=ORIENTED_EDGE('',*,*,#493,.T.);
#659=ORIENTED_EDGE('',*,*,#500,.T.);
#660=ORIENTED_EDGE('',*,*,#477,.F.);
#661=ORIENTED_EDGE('',*,*,#470,.F.);
#662=ORIENTED_EDGE('',*,*,#430,.F.);
#663=ORIENTED_EDGE('',*,*,#478,.F.);
#664=ORIENTED_EDGE('',*,*,#500,.F.);
#665=ORIENTED_EDGE('',*,*,#492,.F.);
#666=ORIENTED_EDGE('',*,*,#445,.F.);
#667=ORIENTED_EDGE('',*,*,#498,.F.);
#668=ORIENTED_EDGE('',*,*,#484,.T.);
#669=ORIENTED_EDGE('',*,*,#472,.F.);
#670=ORIENTED_EDGE('',*,*,#443,.F.);
#671=ORIENTED_EDGE('',*,*,#480,.F.);
#672=ORIENTED_EDGE('',*,*,#501,.T.);
#673=ORIENTED_EDGE('',*,*,#499,.T.);
#674=ORIENTED_EDGE('',*,*,#501,.F.);
#675=ORIENTED_EDGE('',*,*,#502,.T.);
#676=ORIENTED_EDGE('',*,*,#455,.F.);
#677=ORIENTED_EDGE('',*,*,#486,.F.);
#678=ORIENTED_EDGE('',*,*,#497,.F.);
#679=ORIENTED_EDGE('',*,*,#453,.F.);
#680=ORIENTED_EDGE('',*,*,#503,.F.);
#681=ORIENTED_EDGE('',*,*,#504,.F.);
#682=ORIENTED_EDGE('',*,*,#487,.T.);
#683=ORIENTED_EDGE('',*,*,#505,.T.);
#684=ORIENTED_EDGE('',*,*,#416,.T.);
#685=ORIENTED_EDGE('',*,*,#506,.T.);
#686=ORIENTED_EDGE('',*,*,#503,.T.);
#687=ORIENTED_EDGE('',*,*,#452,.T.);
#688=ORIENTED_EDGE('',*,*,#462,.F.);
#689=ORIENTED_EDGE('',*,*,#507,.T.);
#690=ORIENTED_EDGE('',*,*,#508,.T.);
#691=ORIENTED_EDGE('',*,*,#507,.F.);
#692=ORIENTED_EDGE('',*,*,#502,.F.);
#693=ORIENTED_EDGE('',*,*,#496,.T.);
#694=ORIENTED_EDGE('',*,*,#509,.F.);
#695=ORIENTED_EDGE('',*,*,#456,.F.);
#696=ORIENTED_EDGE('',*,*,#509,.T.);
#697=ORIENTED_EDGE('',*,*,#495,.F.);
#698=ORIENTED_EDGE('',*,*,#510,.F.);
#699=ORIENTED_EDGE('',*,*,#457,.F.);
#700=ORIENTED_EDGE('',*,*,#510,.T.);
#701=ORIENTED_EDGE('',*,*,#494,.T.);
#702=ORIENTED_EDGE('',*,*,#490,.F.);
#703=ORIENTED_EDGE('',*,*,#458,.F.);
#704=ORIENTED_EDGE('',*,*,#511,.T.);
#705=ORIENTED_EDGE('',*,*,#512,.T.);
#706=ORIENTED_EDGE('',*,*,#513,.T.);
#707=ORIENTED_EDGE('',*,*,#514,.F.);
#708=ORIENTED_EDGE('',*,*,#515,.T.);
#709=ORIENTED_EDGE('',*,*,#476,.T.);
#710=ORIENTED_EDGE('',*,*,#516,.T.);
#711=ORIENTED_EDGE('',*,*,#511,.F.);
#712=ORIENTED_EDGE('',*,*,#463,.F.);
#713=ORIENTED_EDGE('',*,*,#475,.F.);
#714=ORIENTED_EDGE('',*,*,#517,.T.);
#715=ORIENTED_EDGE('',*,*,#512,.F.);
#716=ORIENTED_EDGE('',*,*,#516,.F.);
#717=ORIENTED_EDGE('',*,*,#474,.F.);
#718=ORIENTED_EDGE('',*,*,#483,.F.);
#719=ORIENTED_EDGE('',*,*,#513,.F.);
#720=ORIENTED_EDGE('',*,*,#517,.F.);
#721=ORIENTED_EDGE('',*,*,#515,.F.);
#722=ORIENTED_EDGE('',*,*,#518,.T.);
#723=ORIENTED_EDGE('',*,*,#479,.T.);
#724=ORIENTED_EDGE('',*,*,#518,.F.);
#725=ORIENTED_EDGE('',*,*,#519,.T.);
#726=ORIENTED_EDGE('',*,*,#464,.F.);
#727=ORIENTED_EDGE('',*,*,#514,.T.);
#728=ORIENTED_EDGE('',*,*,#482,.F.);
#729=ORIENTED_EDGE('',*,*,#520,.T.);
#730=ORIENTED_EDGE('',*,*,#521,.T.);
#731=ORIENTED_EDGE('',*,*,#522,.T.);
#732=ORIENTED_EDGE('',*,*,#519,.F.);
#733=ORIENTED_EDGE('',*,*,#523,.T.);
#734=ORIENTED_EDGE('',*,*,#524,.T.);
#735=ORIENTED_EDGE('',*,*,#525,.T.);
#736=ORIENTED_EDGE('',*,*,#520,.F.);
#737=ORIENTED_EDGE('',*,*,#481,.F.);
#738=ORIENTED_EDGE('',*,*,#526,.F.);
#739=ORIENTED_EDGE('',*,*,#527,.T.);
#740=ORIENTED_EDGE('',*,*,#521,.F.);
#741=ORIENTED_EDGE('',*,*,#525,.F.);
#742=ORIENTED_EDGE('',*,*,#528,.F.);
#743=ORIENTED_EDGE('',*,*,#465,.F.);
#744=ORIENTED_EDGE('',*,*,#522,.F.);
#745=ORIENTED_EDGE('',*,*,#527,.F.);
#746=ORIENTED_EDGE('',*,*,#523,.F.);
#747=ORIENTED_EDGE('',*,*,#529,.T.);
#748=ORIENTED_EDGE('',*,*,#530,.T.);
#749=ORIENTED_EDGE('',*,*,#529,.F.);
#750=ORIENTED_EDGE('',*,*,#450,.F.);
#751=ORIENTED_EDGE('',*,*,#489,.T.);
#752=ORIENTED_EDGE('',*,*,#466,.F.);
#753=ORIENTED_EDGE('',*,*,#528,.T.);
#754=ORIENTED_EDGE('',*,*,#526,.T.);
#755=ORIENTED_EDGE('',*,*,#524,.F.);
#756=ORIENTED_EDGE('',*,*,#488,.F.);
#757=ORIENTED_EDGE('',*,*,#504,.T.);
#758=ORIENTED_EDGE('',*,*,#506,.F.);
#759=ORIENTED_EDGE('',*,*,#415,.T.);
#760=ORIENTED_EDGE('',*,*,#419,.T.);
#761=ORIENTED_EDGE('',*,*,#422,.F.);
#762=ORIENTED_EDGE('',*,*,#414,.F.);
#763=ORIENTED_EDGE('',*,*,#530,.F.);
#764=ORIENTED_EDGE('',*,*,#508,.F.);
#765=ORIENTED_EDGE('',*,*,#425,.T.);
#766=ORIENTED_EDGE('',*,*,#505,.F.);
#767=ORIENTED_EDGE('',*,*,#451,.F.);
#768=ORIENTED_EDGE('',*,*,#447,.T.);
#769=CYLINDRICAL_SURFACE('',#850,2.5);
#770=CYLINDRICAL_SURFACE('',#854,5.);
#771=CYLINDRICAL_SURFACE('',#859,2.5);
#772=CYLINDRICAL_SURFACE('',#863,5.);
#773=CYLINDRICAL_SURFACE('',#869,35.5);
#774=CYLINDRICAL_SURFACE('',#873,35.5);
#775=CYLINDRICAL_SURFACE('',#886,35.);
#776=CYLINDRICAL_SURFACE('',#898,70.);
#777=CYLINDRICAL_SURFACE('',#901,5.);
#778=CYLINDRICAL_SURFACE('',#903,2.);
#779=CYLINDRICAL_SURFACE('',#912,5.);
#780=CYLINDRICAL_SURFACE('',#913,35.5);
#781=CYLINDRICAL_SURFACE('',#914,5.);
#782=CYLINDRICAL_SURFACE('',#915,2.5);
#783=CYLINDRICAL_SURFACE('',#916,1.);
#784=CYLINDRICAL_SURFACE('',#917,5.);
#785=CYLINDRICAL_SURFACE('',#919,35.5);
#786=CYLINDRICAL_SURFACE('',#921,2.5);
#787=CYLINDRICAL_SURFACE('',#924,1.);
#788=CYLINDRICAL_SURFACE('',#930,5.);
#789=CYLINDRICAL_SURFACE('',#932,2.5);
#790=CYLINDRICAL_SURFACE('',#938,5.);
#791=CYLINDRICAL_SURFACE('',#941,2.5);
#792=ADVANCED_FACE('',(#48),#769,.F.);
#793=ADVANCED_FACE('',(#49),#27,.T.);
#794=ADVANCED_FACE('',(#50),#770,.T.);
#795=ADVANCED_FACE('',(#51),#28,.T.);
#796=ADVANCED_FACE('',(#52,#15),#29,.F.);
#797=ADVANCED_FACE('',(#53),#771,.F.);
#798=ADVANCED_FACE('',(#54),#30,.T.);
#799=ADVANCED_FACE('',(#55),#772,.T.);
#800=ADVANCED_FACE('',(#56),#31,.T.);
#801=ADVANCED_FACE('',(#57,#16),#32,.F.);
#802=ADVANCED_FACE('',(#58),#773,.F.);
#803=ADVANCED_FACE('',(#59),#33,.F.);
#804=ADVANCED_FACE('',(#60),#774,.F.);
#805=ADVANCED_FACE('',(#61,#17),#34,.T.);
#806=ADVANCED_FACE('',(#62),#775,.F.);
#807=ADVANCED_FACE('',(#63,#18,#19,#20),#35,.T.);
#808=ADVANCED_FACE('',(#64),#776,.F.);
#809=ADVANCED_FACE('',(#65),#777,.T.);
#810=ADVANCED_FACE('',(#66),#778,.T.);
#811=ADVANCED_FACE('',(#67,#21),#36,.F.);
#812=ADVANCED_FACE('',(#68),#779,.T.);
#813=ADVANCED_FACE('',(#69),#780,.F.);
#814=ADVANCED_FACE('',(#70),#781,.T.);
#815=ADVANCED_FACE('',(#71),#782,.F.);
#816=ADVANCED_FACE('',(#72),#783,.T.);
#817=ADVANCED_FACE('',(#73),#784,.T.);
#818=ADVANCED_FACE('',(#74),#785,.F.);
#819=ADVANCED_FACE('',(#75),#786,.F.);
#820=ADVANCED_FACE('',(#76),#37,.F.);
#821=ADVANCED_FACE('',(#77),#787,.T.);
#822=ADVANCED_FACE('',(#78),#38,.F.);
#823=ADVANCED_FACE('',(#79,#22),#39,.F.);
#824=ADVANCED_FACE('',(#80),#40,.T.);
#825=ADVANCED_FACE('',(#81),#788,.T.);
#826=ADVANCED_FACE('',(#82),#41,.T.);
#827=ADVANCED_FACE('',(#83),#789,.F.);
#828=ADVANCED_FACE('',(#84),#42,.F.);
#829=ADVANCED_FACE('',(#85,#23),#43,.F.);
#830=ADVANCED_FACE('',(#86),#44,.T.);
#831=ADVANCED_FACE('',(#87),#790,.T.);
#832=ADVANCED_FACE('',(#88),#45,.T.);
#833=ADVANCED_FACE('',(#89),#791,.F.);
#834=ADVANCED_FACE('',(#90,#24,#25,#26),#46,.F.);
#835=ADVANCED_FACE('',(#91),#47,.F.);
#836=CLOSED_SHELL('',(#792,#793,#794,#795,#796,#797,#798,#799,#800,#801,
#802,#803,#804,#805,#806,#807,#808,#809,#810,#811,#812,#813,#814,#815,#816,
#817,#818,#819,#820,#821,#822,#823,#824,#825,#826,#827,#828,#829,#830,#831,
#832,#833,#834,#835));
#837=DERIVED_UNIT_ELEMENT(#839,1.);
#838=DERIVED_UNIT_ELEMENT(#1451,-3.);
#839=(
MASS_UNIT()
NAMED_UNIT(*)
SI_UNIT(.KILO.,.GRAM.)
);
#840=DERIVED_UNIT((#837,#838));
#841=MEASURE_REPRESENTATION_ITEM('density measure',
POSITIVE_RATIO_MEASURE(7850.),#840);
#842=PROPERTY_DEFINITION_REPRESENTATION(#847,#844);
#843=PROPERTY_DEFINITION_REPRESENTATION(#848,#845);
#844=REPRESENTATION('material name',(#846),#1448);
#845=REPRESENTATION('density',(#841),#1448);
#846=DESCRIPTIVE_REPRESENTATION_ITEM('Acier','Acier');
#847=PROPERTY_DEFINITION('material property','material name',#1458);
#848=PROPERTY_DEFINITION('material property','density of part',#1458);
#849=AXIS2_PLACEMENT_3D('',#1205,#945,#946);
#850=AXIS2_PLACEMENT_3D('',#1206,#947,#948);
#851=AXIS2_PLACEMENT_3D('',#1208,#949,#950);
#852=AXIS2_PLACEMENT_3D('',#1211,#952,#953);
#853=AXIS2_PLACEMENT_3D('',#1212,#954,#955);
#854=AXIS2_PLACEMENT_3D('',#1221,#960,#961);
#855=AXIS2_PLACEMENT_3D('',#1223,#962,#963);
#856=AXIS2_PLACEMENT_3D('',#1225,#964,#965);
#857=AXIS2_PLACEMENT_3D('',#1227,#967,#968);
#858=AXIS2_PLACEMENT_3D('',#1233,#972,#973);
#859=AXIS2_PLACEMENT_3D('',#1235,#975,#976);
#860=AXIS2_PLACEMENT_3D('',#1237,#977,#978);
#861=AXIS2_PLACEMENT_3D('',#1240,#980,#981);
#862=AXIS2_PLACEMENT_3D('',#1241,#982,#983);
#863=AXIS2_PLACEMENT_3D('',#1250,#988,#989);
#864=AXIS2_PLACEMENT_3D('',#1252,#990,#991);
#865=AXIS2_PLACEMENT_3D('',#1254,#992,#993);
#866=AXIS2_PLACEMENT_3D('',#1256,#995,#996);
#867=AXIS2_PLACEMENT_3D('',#1262,#1000,#1001);
#868=AXIS2_PLACEMENT_3D('',#1265,#1003,#1004);
#869=AXIS2_PLACEMENT_3D('',#1266,#1005,#1006);
#870=AXIS2_PLACEMENT_3D('',#1270,#1008,#1009);
#871=AXIS2_PLACEMENT_3D('',#1273,#1011,#1012);
#872=AXIS2_PLACEMENT_3D('',#1274,#1013,#1014);
#873=AXIS2_PLACEMENT_3D('',#1278,#1017,#1018);
#874=AXIS2_PLACEMENT_3D('',#1282,#1020,#1021);
#875=AXIS2_PLACEMENT_3D('',#1285,#1023,#1024);
#876=AXIS2_PLACEMENT_3D('',#1286,#1025,#1026);
#877=AXIS2_PLACEMENT_3D('',#1290,#1028,#1029);
#878=AXIS2_PLACEMENT_3D('',#1292,#1030,#1031);
#879=AXIS2_PLACEMENT_3D('',#1294,#1032,#1033);
#880=AXIS2_PLACEMENT_3D('',#1296,#1034,#1035);
#881=AXIS2_PLACEMENT_3D('',#1300,#1037,#1038);
#882=AXIS2_PLACEMENT_3D('',#1304,#1040,#1041);
#883=AXIS2_PLACEMENT_3D('',#1306,#1042,#1043);
#884=AXIS2_PLACEMENT_3D('',#1307,#1044,#1045);
#885=AXIS2_PLACEMENT_3D('',#1309,#1046,#1047);
#886=AXIS2_PLACEMENT_3D('',#1310,#1048,#1049);
#887=AXIS2_PLACEMENT_3D('',#1319,#1053,#1054);
#888=AXIS2_PLACEMENT_3D('',#1324,#1057,#1058);
#889=AXIS2_PLACEMENT_3D('',#1327,#1060,#1061);
#890=AXIS2_PLACEMENT_3D('',#1328,#1062,#1063);
#891=AXIS2_PLACEMENT_3D('',#1330,#1064,#1065);
#892=AXIS2_PLACEMENT_3D('',#1332,#1066,#1067);
#893=AXIS2_PLACEMENT_3D('',#1336,#1069,#1070);
#894=AXIS2_PLACEMENT_3D('',#1339,#1072,#1073);
#895=AXIS2_PLACEMENT_3D('',#1340,#1074,#1075);
#896=AXIS2_PLACEMENT_3D('',#1342,#1076,#1077);
#897=AXIS2_PLACEMENT_3D('',#1344,#1078,#1079);
#898=AXIS2_PLACEMENT_3D('',#1345,#1080,#1081);
#899=AXIS2_PLACEMENT_3D('',#1355,#1086,#1087);
#900=AXIS2_PLACEMENT_3D('',#1359,#1090,#1091);
#901=AXIS2_PLACEMENT_3D('',#1360,#1092,#1093);
#902=AXIS2_PLACEMENT_3D('',#1361,#1094,#1095);
#903=AXIS2_PLACEMENT_3D('',#1362,#1096,#1097);
#904=AXIS2_PLACEMENT_3D('',#1365,#1099,#1100);
#905=AXIS2_PLACEMENT_3D('',#1366,#1101,#1102);
#906=AXIS2_PLACEMENT_3D('',#1368,#1103,#1104);
#907=AXIS2_PLACEMENT_3D('',#1369,#1105,#1106);
#908=AXIS2_PLACEMENT_3D('',#1373,#1108,#1109);
#909=AXIS2_PLACEMENT_3D('',#1376,#1111,#1112);
#910=AXIS2_PLACEMENT_3D('',#1377,#1113,#1114);
#911=AXIS2_PLACEMENT_3D('',#1379,#1115,#1116);
#912=AXIS2_PLACEMENT_3D('',#1380,#1117,#1118);
#913=AXIS2_PLACEMENT_3D('',#1382,#1120,#1121);
#914=AXIS2_PLACEMENT_3D('',#1383,#1122,#1123);
#915=AXIS2_PLACEMENT_3D('',#1384,#1124,#1125);
#916=AXIS2_PLACEMENT_3D('',#1386,#1127,#1128);
#917=AXIS2_PLACEMENT_3D('',#1388,#1130,#1131);
#918=AXIS2_PLACEMENT_3D('',#1391,#1133,#1134);
#919=AXIS2_PLACEMENT_3D('',#1392,#1135,#1136);
#920=AXIS2_PLACEMENT_3D('',#1394,#1138,#1139);
#921=AXIS2_PLACEMENT_3D('',#1395,#1140,#1141);
#922=AXIS2_PLACEMENT_3D('',#1398,#1143,#1144);
#923=AXIS2_PLACEMENT_3D('',#1399,#1145,#1146);
#924=AXIS2_PLACEMENT_3D('',#1401,#1148,#1149);
#925=AXIS2_PLACEMENT_3D('',#1403,#1151,#1152);
#926=AXIS2_PLACEMENT_3D('',#1404,#1153,#1154);
#927=AXIS2_PLACEMENT_3D('',#1408,#1156,#1157);
#928=AXIS2_PLACEMENT_3D('',#1412,#1160,#1161);
#929=AXIS2_PLACEMENT_3D('',#1413,#1162,#1163);
#930=AXIS2_PLACEMENT_3D('',#1415,#1165,#1166);
#931=AXIS2_PLACEMENT_3D('',#1417,#1168,#1169);
#932=AXIS2_PLACEMENT_3D('',#1418,#1170,#1171);
#933=AXIS2_PLACEMENT_3D('',#1420,#1173,#1174);
#934=AXIS2_PLACEMENT_3D('',#1422,#1176,#1177);
#935=AXIS2_PLACEMENT_3D('',#1426,#1179,#1180);
#936=AXIS2_PLACEMENT_3D('',#1429,#1182,#1183);
#937=AXIS2_PLACEMENT_3D('',#1430,#1184,#1185);
#938=AXIS2_PLACEMENT_3D('',#1434,#1188,#1189);
#939=AXIS2_PLACEMENT_3D('',#1436,#1190,#1191);
#940=AXIS2_PLACEMENT_3D('',#1438,#1193,#1194);
#941=AXIS2_PLACEMENT_3D('',#1440,#1196,#1197);
#942=AXIS2_PLACEMENT_3D('',#1443,#1199,#1200);
#943=AXIS2_PLACEMENT_3D('',#1444,#1201,#1202);
#944=AXIS2_PLACEMENT_3D('',#1445,#1203,#1204);
#945=DIRECTION('axis',(0.,0.,1.));
#946=DIRECTION('refdir',(1.,0.,0.));
#947=DIRECTION('center_axis',(0.,0.,1.));
#948=DIRECTION('ref_axis',(-1.,0.,0.));
#949=DIRECTION('center_axis',(0.,0.,-1.));
#950=DIRECTION('ref_axis',(-1.,0.,0.));
#951=DIRECTION('',(0.,0.,-1.));
#952=DIRECTION('center_axis',(0.,0.,-1.));
#953=DIRECTION('ref_axis',(-1.,0.,0.));
#954=DIRECTION('center_axis',(-0.938683082629157,0.344781192041886,0.));
#955=DIRECTION('ref_axis',(-0.344781192041886,-0.938683082629157,0.));
#956=DIRECTION('',(0.344781192041886,0.938683082629157,0.));
#957=DIRECTION('',(0.,0.,-1.));
#958=DIRECTION('',(-0.344781192041886,-0.938683082629157,0.));
#959=DIRECTION('',(0.,0.,1.));
#960=DIRECTION('center_axis',(0.,0.,1.));
#961=DIRECTION('ref_axis',(0.413840039631094,0.910349615037066,0.));
#962=DIRECTION('center_axis',(0.,0.,-1.));
#963=DIRECTION('ref_axis',(-1.,0.,0.));
#964=DIRECTION('center_axis',(0.,0.,1.));
#965=DIRECTION('ref_axis',(-1.,0.,0.));
#966=DIRECTION('',(0.,0.,1.));
#967=DIRECTION('center_axis',(0.876940285174644,-0.480599351058462,0.));
#968=DIRECTION('ref_axis',(0.480599351058462,0.876940285174644,0.));
#969=DIRECTION('',(0.480599351058461,0.876940285174644,0.));
#970=DIRECTION('',(0.480599351058461,0.876940285174644,0.));
#971=DIRECTION('',(0.,0.,-1.));
#972=DIRECTION('center_axis',(0.,0.,-1.));
#973=DIRECTION('ref_axis',(-1.,0.,0.));
#974=DIRECTION('',(-0.906307787036658,-0.422618261740682,0.));
#975=DIRECTION('center_axis',(0.,0.,-1.));
#976=DIRECTION('ref_axis',(1.,0.,0.));
#977=DIRECTION('center_axis',(0.,0.,1.));
#978=DIRECTION('ref_axis',(1.,0.,0.));
#979=DIRECTION('',(0.,0.,1.));
#980=DIRECTION('center_axis',(0.,0.,1.));
#981=DIRECTION('ref_axis',(1.,0.,0.));
#982=DIRECTION('center_axis',(0.876940285174643,-0.480599351058463,0.));
#983=DIRECTION('ref_axis',(-0.480599351058463,-0.876940285174643,0.));
#984=DIRECTION('',(-0.480599351058463,-0.876940285174643,0.));
#985=DIRECTION('',(0.,0.,-1.));
#986=DIRECTION('',(-0.480599351058463,-0.876940285174643,0.));
#987=DIRECTION('',(0.,0.,-1.));
#988=DIRECTION('center_axis',(0.,0.,-1.));
#989=DIRECTION('ref_axis',(1.,0.,0.));
#990=DIRECTION('center_axis',(0.,0.,1.));
#991=DIRECTION('ref_axis',(1.,0.,0.));
#992=DIRECTION('center_axis',(0.,0.,-1.));
#993=DIRECTION('ref_axis',(1.,0.,0.));
#994=DIRECTION('',(0.,0.,-1.));
#995=DIRECTION('center_axis',(-0.938683082629157,0.344781192041885,0.));
#996=DIRECTION('ref_axis',(0.344781192041885,0.938683082629157,0.));
#997=DIRECTION('',(-0.344781192041885,-0.938683082629157,0.));
#998=DIRECTION('',(0.344781192041885,0.938683082629157,0.));
#999=DIRECTION('',(0.,0.,-1.));
#1000=DIRECTION('center_axis',(0.,0.,1.));
#1001=DIRECTION('ref_axis',(1.,0.,0.));
#1002=DIRECTION('',(0.906307787036659,0.422618261740681,0.));
#1003=DIRECTION('center_axis',(0.,0.,1.));
#1004=DIRECTION('ref_axis',(0.704346207150949,-0.709856619657852,0.));
#1005=DIRECTION('center_axis',(0.,0.,1.));
#1006=DIRECTION('ref_axis',(0.,1.,0.));
#1007=DIRECTION('',(0.,0.,-1.));
#1008=DIRECTION('center_axis',(0.,0.,1.));
#1009=DIRECTION('ref_axis',(0.7043462071509,-0.7098566196579,0.));
#1010=DIRECTION('',(0.,0.,1.));
#1011=DIRECTION('center_axis',(0.,0.,-1.));
#1012=DIRECTION('ref_axis',(0.996526733786462,-0.0832734582498268,0.));
#1013=DIRECTION('center_axis',(0.422618261740681,-0.906307787036659,0.));
#1014=DIRECTION('ref_axis',(0.906307787036659,0.422618261740681,0.));
#1015=DIRECTION('',(0.,0.,-1.));
#1016=DIRECTION('',(0.906307787036659,0.422618261740681,0.));
#1017=DIRECTION('center_axis',(0.,0.,1.));
#1018=DIRECTION('ref_axis',(0.,1.,0.));
#1019=DIRECTION('',(0.,0.,-1.));
#1020=DIRECTION('center_axis',(0.,0.,1.));
#1021=DIRECTION('ref_axis',(-0.839507857352515,0.54334754756361,0.));
#1022=DIRECTION('',(0.,0.,1.));
#1023=DIRECTION('center_axis',(0.,0.,-1.));
#1024=DIRECTION('ref_axis',(-0.996526733786462,0.0832734582498268,0.));
#1025=DIRECTION('center_axis',(0.,0.,1.));
#1026=DIRECTION('ref_axis',(0.,-1.,0.));
#1027=DIRECTION('',(-0.906307787036658,-0.422618261740682,0.));
#1028=DIRECTION('center_axis',(0.,0.,1.));
#1029=DIRECTION('ref_axis',(0.7043462071509,-0.7098566196579,0.));
#1030=DIRECTION('center_axis',(0.,0.,1.));
#1031=DIRECTION('ref_axis',(-0.7043462071509,0.7098566196579,0.));
#1032=DIRECTION('center_axis',(0.,0.,1.));
#1033=DIRECTION('ref_axis',(0.999905217493682,0.0137679348092997,0.));
#1034=DIRECTION('center_axis',(0.,0.,-1.));
#1035=DIRECTION('ref_axis',(-0.999905217493681,-0.0137679348093297,0.));
#1036=DIRECTION('',(0.559192903470734,0.82903757255505,0.));
#1037=DIRECTION('center_axis',(0.,0.,-1.));
#1038=DIRECTION('ref_axis',(-0.82903757255505,0.559192903470734,0.));
#1039=DIRECTION('',(0.422618261740681,-0.906307787036659,0.));
#1040=DIRECTION('center_axis',(0.,0.,-1.));
#1041=DIRECTION('ref_axis',(0.906307787036659,0.422618261740681,0.));
#1042=DIRECTION('center_axis',(0.,0.,1.));
#1043=DIRECTION('ref_axis',(-0.927024810886964,0.374999999999985,0.));
#1044=DIRECTION('center_axis',(0.,0.,1.));
#1045=DIRECTION('ref_axis',(0.927024810886964,-0.374999999999985,0.));
#1046=DIRECTION('center_axis',(0.,0.,-1.));
#1047=DIRECTION('ref_axis',(0.,-1.,0.));
#1048=DIRECTION('center_axis',(0.,0.,1.));
#1049=DIRECTION('ref_axis',(0.,1.,0.));
#1050=DIRECTION('',(0.,0.,-1.));
#1051=DIRECTION('',(0.,0.,-1.));
#1052=DIRECTION('',(0.,0.,-1.));
#1053=DIRECTION('center_axis',(0.,0.,-1.));
#1054=DIRECTION('ref_axis',(-0.927024810886964,-0.374999999999985,0.));
#1055=DIRECTION('',(0.,0.,1.));
#1056=DIRECTION('',(0.,0.,1.));
#1057=DIRECTION('center_axis',(0.,0.,-1.));
#1058=DIRECTION('ref_axis',(-0.999189782316989,0.0402464770300296,0.));
#1059=DIRECTION('',(0.,0.,1.));
#1060=DIRECTION('center_axis',(0.,0.,-1.));
#1061=DIRECTION('ref_axis',(-0.927024810886964,-0.374999999999985,0.));
#1062=DIRECTION('center_axis',(0.,0.,1.));
#1063=DIRECTION('ref_axis',(0.,1.,0.));
#1064=DIRECTION('center_axis',(0.,0.,1.));
#1065=DIRECTION('ref_axis',(-0.7043462071509,0.7098566196579,0.));
#1066=DIRECTION('center_axis',(0.,0.,-1.));
#1067=DIRECTION('ref_axis',(0.979795897113272,0.199999999999994,0.));
#1068=DIRECTION('',(-0.0442442891355159,-0.999020741966298,0.));
#1069=DIRECTION('center_axis',(0.,0.,1.));
#1070=DIRECTION('ref_axis',(1.,0.,0.));
#1071=DIRECTION('',(0.0911630274177747,-0.995835981691777,0.));
#1072=DIRECTION('center_axis',(0.,0.,1.));
#1073=DIRECTION('ref_axis',(0.927024810886964,-0.374999999999985,0.));
#1074=DIRECTION('center_axis',(0.,0.,-1.));
#1075=DIRECTION('ref_axis',(-0.996526733786462,0.0832734582498268,0.));
#1076=DIRECTION('center_axis',(0.,0.,1.));
#1077=DIRECTION('ref_axis',(1.,0.,0.));
#1078=DIRECTION('center_axis',(0.,0.,-1.));
#1079=DIRECTION('ref_axis',(0.,-1.,0.));
#1080=DIRECTION('center_axis',(0.,0.,1.));
#1081=DIRECTION('ref_axis',(0.,1.,0.));
#1082=DIRECTION('',(0.,0.,1.));
#1083=DIRECTION('',(0.,0.,1.));
#1084=DIRECTION('',(0.,0.,1.));
#1085=DIRECTION('',(0.,0.,1.));
#1086=DIRECTION('center_axis',(0.,0.,-1.));
#1087=DIRECTION('ref_axis',(0.979795897113272,0.199999999999994,0.));
#1088=DIRECTION('',(0.,0.,-1.));
#1089=DIRECTION('',(0.,0.,1.));
#1090=DIRECTION('center_axis',(0.,0.,-1.));
#1091=DIRECTION('ref_axis',(0.979795897113272,0.199999999999994,0.));
#1092=DIRECTION('center_axis',(0.,0.,1.));
#1093=DIRECTION('ref_axis',(0.,1.,0.));
#1094=DIRECTION('center_axis',(0.,0.,-1.));
#1095=DIRECTION('ref_axis',(0.996526733786462,-0.0832734582498268,0.));
#1096=DIRECTION('center_axis',(0.,0.,1.));
#1097=DIRECTION('ref_axis',(0.999189782316989,-0.0402464770300296,0.));
#1098=DIRECTION('',(0.,0.,1.));
#1099=DIRECTION('center_axis',(0.,0.,1.));
#1100=DIRECTION('ref_axis',(0.999189782316989,-0.0402464770300296,0.));
#1101=DIRECTION('center_axis',(0.,0.,1.));
#1102=DIRECTION('ref_axis',(0.,-1.,0.));
#1103=DIRECTION('center_axis',(0.,0.,1.));
#1104=DIRECTION('ref_axis',(-0.839507857352515,0.54334754756361,0.));
#1105=DIRECTION('center_axis',(0.,0.,1.));
#1106=DIRECTION('ref_axis',(0.927024810886964,-0.374999999999985,0.));
#1107=DIRECTION('',(0.422618261740681,-0.906307787036659,0.));
#1108=DIRECTION('center_axis',(0.,0.,1.));
#1109=DIRECTION('ref_axis',(0.906307787036659,0.422618261740681,0.));
#1110=DIRECTION('',(0.559192903470734,0.82903757255505,0.));
#1111=DIRECTION('center_axis',(0.,0.,1.));
#1112=DIRECTION('ref_axis',(-0.82903757255505,0.559192903470734,0.));
#1113=DIRECTION('center_axis',(0.,0.,-1.));
#1114=DIRECTION('ref_axis',(-0.979795897113272,-0.199999999999994,0.));
#1115=DIRECTION('center_axis',(0.,0.,-1.));
#1116=DIRECTION('ref_axis',(0.,-1.,0.));
#1117=DIRECTION('center_axis',(0.,0.,1.));
#1118=DIRECTION('ref_axis',(0.,1.,0.));
#1119=DIRECTION('',(0.,0.,1.));
#1120=DIRECTION('center_axis',(0.,0.,1.));
#1121=DIRECTION('ref_axis',(0.,1.,0.));
#1122=DIRECTION('center_axis',(0.,0.,1.));
#1123=DIRECTION('ref_axis',(0.,1.,0.));
#1124=DIRECTION('center_axis',(0.,0.,-1.));
#1125=DIRECTION('ref_axis',(0.,-1.,0.));
#1126=DIRECTION('',(0.,0.,-1.));
#1127=DIRECTION('center_axis',(0.,0.,-1.));
#1128=DIRECTION('ref_axis',(-0.999905217493681,-0.0137679348093297,0.));
#1129=DIRECTION('',(0.,0.,-1.));
#1130=DIRECTION('center_axis',(0.,0.,1.));
#1131=DIRECTION('ref_axis',(0.,1.,0.));
#1132=DIRECTION('',(0.,0.,1.));
#1133=DIRECTION('center_axis',(0.,0.,-1.));
#1134=DIRECTION('ref_axis',(-0.979795897113272,-0.199999999999994,0.));
#1135=DIRECTION('center_axis',(0.,0.,1.));
#1136=DIRECTION('ref_axis',(0.,1.,0.));
#1137=DIRECTION('',(0.,0.,-1.));
#1138=DIRECTION('center_axis',(0.,0.,-1.));
#1139=DIRECTION('ref_axis',(0.996526733786462,-0.0832734582498268,0.));
#1140=DIRECTION('center_axis',(0.,0.,-1.));
#1141=DIRECTION('ref_axis',(0.,-1.,0.));
#1142=DIRECTION('',(0.,0.,-1.));
#1143=DIRECTION('center_axis',(0.,0.,-1.));
#1144=DIRECTION('ref_axis',(0.,-1.,0.));
#1145=DIRECTION('center_axis',(0.82903757255505,-0.559192903470734,0.));
#1146=DIRECTION('ref_axis',(0.559192903470734,0.82903757255505,0.));
#1147=DIRECTION('',(0.,0.,1.));
#1148=DIRECTION('center_axis',(0.,0.,1.));
#1149=DIRECTION('ref_axis',(0.906307787036641,0.422618261740719,0.));
#1150=DIRECTION('',(0.,0.,1.));
#1151=DIRECTION('center_axis',(-0.906307787036659,-0.422618261740681,0.));
#1152=DIRECTION('ref_axis',(0.422618261740681,-0.906307787036659,0.));
#1153=DIRECTION('center_axis',(0.,0.,1.));
#1154=DIRECTION('ref_axis',(1.,0.,0.));
#1155=DIRECTION('',(0.0911630274177747,-0.995835981691777,0.));
#1156=DIRECTION('center_axis',(0.,0.,-1.));
#1157=DIRECTION('ref_axis',(1.,0.,0.));
#1158=DIRECTION('',(0.0442442891355159,0.999020741966298,0.));
#1159=DIRECTION('',(-0.953979002880507,-0.299873410063502,0.));
#1160=DIRECTION('center_axis',(0.,0.,1.));
#1161=DIRECTION('ref_axis',(1.,0.,0.));
#1162=DIRECTION('center_axis',(0.995835981691778,0.0911630274177747,0.));
#1163=DIRECTION('ref_axis',(0.0911630274177747,-0.995835981691777,0.));
#1164=DIRECTION('',(0.,0.,-1.));
#1165=DIRECTION('center_axis',(0.,0.,-1.));
#1166=DIRECTION('ref_axis',(0.023513171510434,-0.999723527164146,0.));
#1167=DIRECTION('',(0.,0.,-1.));
#1168=DIRECTION('center_axis',(-0.999020741966298,0.0442442891355159,0.));
#1169=DIRECTION('ref_axis',(0.0442442891355159,0.999020741966298,0.));
#1170=DIRECTION('center_axis',(0.,0.,-1.));
#1171=DIRECTION('ref_axis',(1.,0.,0.));
#1172=DIRECTION('',(0.,0.,1.));
#1173=DIRECTION('center_axis',(-0.299873410063502,0.953979002880507,0.));
#1174=DIRECTION('ref_axis',(0.953979002880507,0.299873410063502,0.));
#1175=DIRECTION('',(0.953979002880507,0.299873410063502,0.));
#1176=DIRECTION('center_axis',(0.,0.,-1.));
#1177=DIRECTION('ref_axis',(-1.,0.,0.));
#1178=DIRECTION('',(-0.044244289135509,-0.999020741966299,0.));
#1179=DIRECTION('center_axis',(0.,0.,1.));
#1180=DIRECTION('ref_axis',(-1.,0.,0.));
#1181=DIRECTION('',(-0.0911630274177633,0.995835981691778,0.));
#1182=DIRECTION('center_axis',(0.,0.,-1.));
#1183=DIRECTION('ref_axis',(-1.,0.,0.));
#1184=DIRECTION('center_axis',(-0.999020741966299,0.044244289135509,0.));
#1185=DIRECTION('ref_axis',(-0.044244289135509,-0.999020741966299,0.));
#1186=DIRECTION('',(-0.044244289135509,-0.999020741966299,0.));
#1187=DIRECTION('',(0.,0.,1.));
#1188=DIRECTION('center_axis',(0.,0.,1.));
#1189=DIRECTION('ref_axis',(0.0235196208313245,-0.999723375457407,0.));
#1190=DIRECTION('center_axis',(0.,0.,-1.));
#1191=DIRECTION('ref_axis',(-1.,0.,0.));
#1192=DIRECTION('',(0.,0.,1.));
#1193=DIRECTION('center_axis',(0.995835981691778,0.0911630274177633,0.));
#1194=DIRECTION('ref_axis',(-0.0911630274177633,0.995835981691778,0.));
#1195=DIRECTION('',(0.0911630274177633,-0.995835981691778,0.));
#1196=DIRECTION('center_axis',(0.,0.,1.));
#1197=DIRECTION('ref_axis',(-1.,0.,0.));
#1198=DIRECTION('',(0.,0.,-1.));
#1199=DIRECTION('center_axis',(0.,0.,-1.));
#1200=DIRECTION('ref_axis',(-1.,0.,0.));
#1201=DIRECTION('center_axis',(0.,0.,1.));
#1202=DIRECTION('ref_axis',(0.,1.,0.));
#1203=DIRECTION('center_axis',(0.422618261740682,-0.906307787036658,0.));
#1204=DIRECTION('ref_axis',(0.906307787036658,0.422618261740682,0.));
#1205=CARTESIAN_POINT('',(0.,0.,0.));
#1206=CARTESIAN_POINT('Origin',(18.9332981259831,70.602588859246,-10.5));
#1207=CARTESIAN_POINT('',(21.4332981259831,70.602588859246,-5.1));
#1208=CARTESIAN_POINT('Origin',(18.9332981259831,70.602588859246,-5.1));
#1209=CARTESIAN_POINT('',(21.4332981259831,70.602588859246,-10.5));
#1210=CARTESIAN_POINT('',(21.4332981259831,70.602588859246,-10.5));
#1211=CARTESIAN_POINT('Origin',(18.9332981259831,70.602588859246,-10.5));
#1212=CARTESIAN_POINT('Origin',(14.2398703340668,72.3264611176679,-10.5));
#1213=CARTESIAN_POINT('',(4.19902100343069,44.9897744901926,-10.5));
#1214=CARTESIAN_POINT('',(14.2398703340668,72.3264611176679,-10.5));
#1215=CARTESIAN_POINT('',(4.19902100343069,44.9897744901927,-10.5));
#1216=CARTESIAN_POINT('',(4.19902100343069,44.9897744901927,-5.1));
#1217=CARTESIAN_POINT('',(4.19902100343071,44.9897744901927,10.5));
#1218=CARTESIAN_POINT('',(14.2398703340668,72.3264611176679,-5.1));
#1219=CARTESIAN_POINT('',(4.19902100343069,44.9897744901927,-5.1));
#1220=CARTESIAN_POINT('',(14.2398703340668,72.3264611176679,-10.5));
#1221=CARTESIAN_POINT('Origin',(18.9332981259831,70.602588859246,-10.5));
#1222=CARTESIAN_POINT('',(23.317999678456,68.1995923349578,-10.5));
#1223=CARTESIAN_POINT('Origin',(18.9332981259831,70.602588859246,-10.5));
#1224=CARTESIAN_POINT('',(23.317999678456,68.1995923349578,-5.1));
#1225=CARTESIAN_POINT('Origin',(18.9332981259831,70.602588859246,-5.1));
#1226=CARTESIAN_POINT('',(23.317999678456,68.1995923349578,-10.5));
#1227=CARTESIAN_POINT('Origin',(12.7947539445523,48.9980305880926,-10.5));
#1228=CARTESIAN_POINT('',(12.7947539445523,48.9980305880926,-10.5));
#1229=CARTESIAN_POINT('',(12.7947539445523,48.9980305880926,-10.5));
#1230=CARTESIAN_POINT('',(12.7947539445523,48.9980305880926,-5.1));
#1231=CARTESIAN_POINT('',(12.7947539445523,48.9980305880926,-5.1));
#1232=CARTESIAN_POINT('',(12.7947539445523,48.9980305880926,10.5));
#1233=CARTESIAN_POINT('Origin',(9.46664906299154,26.301294429623,-5.1));
#1234=CARTESIAN_POINT('',(2.78336795541698,44.3296446326134,-5.1));
#1235=CARTESIAN_POINT('Origin',(18.9332981259831,70.602588859246,10.5));
#1236=CARTESIAN_POINT('',(16.4332981259831,70.602588859246,5.1));
#1237=CARTESIAN_POINT('Origin',(18.9332981259831,70.602588859246,5.1));
#1238=CARTESIAN_POINT('',(16.4332981259831,70.602588859246,10.5));
#1239=CARTESIAN_POINT('',(16.4332981259831,70.602588859246,10.5));
#1240=CARTESIAN_POINT('Origin',(18.9332981259831,70.602588859246,10.5));
#1241=CARTESIAN_POINT('Origin',(23.3179969528032,68.199587361512,10.5));
#1242=CARTESIAN_POINT('',(23.3179969528032,68.199587361512,10.5));
#1243=CARTESIAN_POINT('',(12.7947539445523,48.9980305880926,10.5));
#1244=CARTESIAN_POINT('',(24.6984524022569,70.7184775615273,10.5));
#1245=CARTESIAN_POINT('',(12.7947539445523,48.9980305880926,5.1));
#1246=CARTESIAN_POINT('',(12.7947539445523,48.9980305880926,10.5));
#1247=CARTESIAN_POINT('',(23.3179969528032,68.199587361512,5.1));
#1248=CARTESIAN_POINT('',(24.6984524022569,70.7184775615273,5.1));
#1249=CARTESIAN_POINT('',(23.3179969528032,68.199587361512,10.5));
#1250=CARTESIAN_POINT('Origin',(18.9332981259831,70.602588859246,10.5));
#1251=CARTESIAN_POINT('',(14.2398618964136,72.3264381457585,10.5));
#1252=CARTESIAN_POINT('Origin',(18.9332981259831,70.602588859246,10.5));
#1253=CARTESIAN_POINT('',(14.2398618964136,72.3264381457585,5.1));
#1254=CARTESIAN_POINT('Origin',(18.9332981259831,70.602588859246,5.1));
#1255=CARTESIAN_POINT('',(14.2398618964136,72.3264381457585,10.5));
#1256=CARTESIAN_POINT('Origin',(5.3249069831026,48.0550522561532,10.5));
#1257=CARTESIAN_POINT('',(5.3249069831026,48.0550522561532,10.5));
#1258=CARTESIAN_POINT('',(14.9814588035051,74.3454707579908,10.5));
#1259=CARTESIAN_POINT('',(5.3249069831026,48.0550522561532,5.1));
#1260=CARTESIAN_POINT('',(14.9814588035051,74.3454707579908,5.1));
#1261=CARTESIAN_POINT('',(5.3249069831026,48.0550522561532,10.5));
#1262=CARTESIAN_POINT('Origin',(9.46664906299154,26.301294429623,5.1));
#1263=CARTESIAN_POINT('',(4.19902100343069,44.9897744901927,5.1));
#1264=CARTESIAN_POINT('',(2.78336795541698,44.3296446326134,5.1));
#1265=CARTESIAN_POINT('Origin',(-28.52602138961,58.74919309614,5.1));
#1266=CARTESIAN_POINT('Origin',(-28.52602138961,58.74919309614,10.5));
#1267=CARTESIAN_POINT('',(4.19902100343068,44.9897744901927,4.6));
#1268=CARTESIAN_POINT('',(4.19902100343068,44.9897744901927,10.5));
#1269=CARTESIAN_POINT('',(-3.521731035755,33.54928309829,4.6));
#1270=CARTESIAN_POINT('Origin',(-28.52602138961,58.74919309614,4.6));
#1271=CARTESIAN_POINT('',(-3.521731035755,33.54928309829,10.5));
#1272=CARTESIAN_POINT('',(-3.521731035755,33.54928309829,4.6));
#1273=CARTESIAN_POINT('Origin',(-28.52602138961,58.74919309614,10.5));
#1274=CARTESIAN_POINT('Origin',(4.19902100343069,44.9897744901927,5.1));
#1275=CARTESIAN_POINT('',(12.7947539445523,48.9980305880926,4.6));
#1276=CARTESIAN_POINT('',(12.7947539445523,48.9980305880926,10.5));
#1277=CARTESIAN_POINT('',(-6.14154560222842,40.1678890923122,4.6));
#1278=CARTESIAN_POINT('Origin',(40.35933271835,26.62742494088,10.5));
#1279=CARTESIAN_POINT('',(12.7947539445523,48.9980305880926,-4.6));
#1280=CARTESIAN_POINT('',(12.7947539445523,48.9980305880926,10.5));
#1281=CARTESIAN_POINT('',(4.982633668932,29.58363270875,-4.6));
#1282=CARTESIAN_POINT('Origin',(40.35933271835,26.62742494088,-4.6));
#1283=CARTESIAN_POINT('',(4.982633668932,29.58363270875,-10.5));
#1284=CARTESIAN_POINT('',(4.982633668932,29.58363270875,-10.5));
#1285=CARTESIAN_POINT('Origin',(40.35933271835,26.62742494088,-10.5));
#1286=CARTESIAN_POINT('Origin',(0.,0.,-4.6));
#1287=CARTESIAN_POINT('',(4.19902100343068,44.9897744901926,-4.6));
#1288=CARTESIAN_POINT('',(-6.14154560222844,40.1678890923122,-4.6));
#1289=CARTESIAN_POINT('',(-3.521731035755,33.54928309829,-4.6));
#1290=CARTESIAN_POINT('Origin',(-28.52602138961,58.74919309614,-4.6));
#1291=CARTESIAN_POINT('',(-4.898979485566,29.,-4.6));
#1292=CARTESIAN_POINT('Origin',(0.,30.,-4.6));
#1293=CARTESIAN_POINT('',(-3.491327058938,15.96375543665,-4.6));
#1294=CARTESIAN_POINT('Origin',(-73.4846922835,15.,-4.6));
#1295=CARTESIAN_POINT('',(-3.320459413999,16.53671627493,-4.6));
#1296=CARTESIAN_POINT('Origin',(-2.491421841444,15.97752337146,-4.6));
#1297=CARTESIAN_POINT('',(-0.98837011081,19.99418085093,-4.6));
#1298=CARTESIAN_POINT('',(-3.320459413999,16.53671627493,-4.6));
#1299=CARTESIAN_POINT('',(0.7469752487817,19.8576062092,-4.6));
#1300=CARTESIAN_POINT('Origin',(-0.159332538255,19.43498794745,-4.6));
#1301=CARTESIAN_POINT('',(1.923586063823,17.33435617359,-4.6));
#1302=CARTESIAN_POINT('',(0.7469752487817,19.8576062092,-4.6));
#1303=CARTESIAN_POINT('',(2.109350054384,16.40862669605,-4.6));
#1304=CARTESIAN_POINT('Origin',(0.1109704897497,16.48911965011,-4.6));
#1305=CARTESIAN_POINT('',(4.635124054435,28.125,-4.6));
#1306=CARTESIAN_POINT('Origin',(37.08099243548,15.,-4.6));
#1307=CARTESIAN_POINT('Origin',(0.,30.,-4.6));
#1308=CARTESIAN_POINT('',(0.,32.5,-4.6));
#1309=CARTESIAN_POINT('Origin',(0.,30.,-4.6));
#1310=CARTESIAN_POINT('Origin',(37.08099243548,15.,10.5));
#1311=CARTESIAN_POINT('',(2.48591311487085,9.69147037299772,10.5));
#1312=CARTESIAN_POINT('',(2.48591311487086,9.69147037299764,5.6));
#1313=CARTESIAN_POINT('',(2.48591311487084,9.69147037299776,10.5));
#1314=CARTESIAN_POINT('',(2.48591311487086,9.69147037299764,-5.6));
#1315=CARTESIAN_POINT('',(2.48591311487084,9.69147037299776,10.5));
#1316=CARTESIAN_POINT('',(2.48591311487084,9.69147037299776,-10.5));
#1317=CARTESIAN_POINT('',(2.48591311487084,9.69147037299776,10.5));
#1318=CARTESIAN_POINT('',(4.635124054435,28.125,-10.5));
#1319=CARTESIAN_POINT('Origin',(37.08099243548,15.,-10.5));
#1320=CARTESIAN_POINT('',(4.635124054435,28.125,-10.5));
#1321=CARTESIAN_POINT('',(2.109350054384,16.40862669605,4.6));
#1322=CARTESIAN_POINT('',(2.109350054384,16.40862669605,-4.6));
#1323=CARTESIAN_POINT('',(4.635124054435,28.125,4.6));
#1324=CARTESIAN_POINT('Origin',(37.08099243548,15.,4.6));
#1325=CARTESIAN_POINT('',(4.635124054435,28.125,10.5));
#1326=CARTESIAN_POINT('',(4.635124054435,28.125,4.6));
#1327=CARTESIAN_POINT('Origin',(37.08099243548,15.,10.5));
#1328=CARTESIAN_POINT('Origin',(0.,0.,10.5));
#1329=CARTESIAN_POINT('',(-4.898979485566,29.,10.5));
#1330=CARTESIAN_POINT('Origin',(0.,30.,10.5));
#1331=CARTESIAN_POINT('',(-3.86695126692025,7.69451331200786,10.5));
#1332=CARTESIAN_POINT('Origin',(-73.4846922835,15.,10.5));
#1333=CARTESIAN_POINT('',(-4.99510363039701,-17.7787767607413,10.5));
#1334=CARTESIAN_POINT('',(-3.86695126692028,7.69451331200738,10.5));
#1335=CARTESIAN_POINT('',(4.97917990845885,-17.5441848629111,10.5));
#1336=CARTESIAN_POINT('Origin',(0.,-18.,10.5));
#1337=CARTESIAN_POINT('',(2.48591311487086,9.69147037299764,10.5));
#1338=CARTESIAN_POINT('',(4.982633668932,29.58363270875,10.5));
#1339=CARTESIAN_POINT('Origin',(0.,30.,10.5));
#1340=CARTESIAN_POINT('Origin',(40.35933271835,26.62742494088,10.5));
#1341=CARTESIAN_POINT('',(-2.5,-18.,10.5));
#1342=CARTESIAN_POINT('Origin',(0.,-18.,10.5));
#1343=CARTESIAN_POINT('',(3.06161699786838E-16,32.5,10.5));
#1344=CARTESIAN_POINT('Origin',(0.,30.,10.5));
#1345=CARTESIAN_POINT('Origin',(-73.4846922835,15.,10.5));
#1346=CARTESIAN_POINT('',(-3.86695126692023,7.69451331200811,-10.5));
#1347=CARTESIAN_POINT('',(-3.86695126692028,7.69451331200738,-5.6));
#1348=CARTESIAN_POINT('',(-3.86695126692023,7.69451331200811,10.5));
#1349=CARTESIAN_POINT('',(-3.86695126692028,7.69451331200738,5.6));
#1350=CARTESIAN_POINT('',(-3.86695126692023,7.69451331200811,10.5));
#1351=CARTESIAN_POINT('',(-3.86695126692023,7.69451331200811,10.5));
#1352=CARTESIAN_POINT('',(-4.898979485566,29.,4.6));
#1353=CARTESIAN_POINT('',(-4.898979485566,29.,4.6));
#1354=CARTESIAN_POINT('',(-3.491327058938,15.96375543665,4.6));
#1355=CARTESIAN_POINT('Origin',(-73.4846922835,15.,4.6));
#1356=CARTESIAN_POINT('',(-3.491327058938,15.96375543665,4.6));
#1357=CARTESIAN_POINT('',(-4.898979485566,29.,-10.5));
#1358=CARTESIAN_POINT('',(-4.898979485566,29.,-10.5));
#1359=CARTESIAN_POINT('Origin',(-73.4846922835,15.,-10.5));
#1360=CARTESIAN_POINT('Origin',(0.,30.,10.5));
#1361=CARTESIAN_POINT('Origin',(0.,30.,-10.5));
#1362=CARTESIAN_POINT('Origin',(0.1109704897497,16.48911965011,-37.8756));
#1363=CARTESIAN_POINT('',(1.923586063823,17.33435617359,4.6));
#1364=CARTESIAN_POINT('',(1.923586063823,17.33435617359,-4.6));
#1365=CARTESIAN_POINT('Origin',(0.1109704897497,16.48911965011,4.6));
#1366=CARTESIAN_POINT('Origin',(0.,0.,4.6));
#1367=CARTESIAN_POINT('',(4.982633668932,29.58363270875,4.6));
#1368=CARTESIAN_POINT('Origin',(40.35933271835,26.62742494088,4.6));
#1369=CARTESIAN_POINT('Origin',(0.,30.,4.6));
#1370=CARTESIAN_POINT('',(0.7469752487817,19.8576062092,4.6));
#1371=CARTESIAN_POINT('',(0.7469752487817,19.8576062092,4.6));
#1372=CARTESIAN_POINT('',(-0.98837011081,19.99418085093,4.6));
#1373=CARTESIAN_POINT('Origin',(-0.159332538255,19.43498794745,4.6));
#1374=CARTESIAN_POINT('',(-3.320459413999,16.53671627493,4.6));
#1375=CARTESIAN_POINT('',(-3.320459413999,16.53671627493,4.6));
#1376=CARTESIAN_POINT('Origin',(-2.491421841444,15.97752337146,4.6));
#1377=CARTESIAN_POINT('Origin',(0.,30.,4.6));
#1378=CARTESIAN_POINT('',(3.06161699786838E-16,32.5,4.6));
#1379=CARTESIAN_POINT('Origin',(0.,30.,4.6));
#1380=CARTESIAN_POINT('Origin',(0.,30.,10.5));
#1381=CARTESIAN_POINT('',(4.982633668932,29.58363270875,4.6));
#1382=CARTESIAN_POINT('Origin',(40.35933271835,26.62742494088,10.5));
#1383=CARTESIAN_POINT('Origin',(0.,30.,10.5));
#1384=CARTESIAN_POINT('Origin',(0.,30.,-10.5));
#1385=CARTESIAN_POINT('',(3.06161699786838E-16,32.5,-10.5));
#1386=CARTESIAN_POINT('Origin',(-2.491421841444,15.97752337146,37.8756));
#1387=CARTESIAN_POINT('',(-3.320459413999,16.53671627493,4.6));
#1388=CARTESIAN_POINT('Origin',(0.,30.,10.5));
#1389=CARTESIAN_POINT('',(-3.521731035755,33.54928309829,-10.5));
#1390=CARTESIAN_POINT('',(-3.521731035755,33.54928309829,-10.5));
#1391=CARTESIAN_POINT('Origin',(0.,30.,-10.5));
#1392=CARTESIAN_POINT('Origin',(-28.52602138961,58.74919309614,10.5));
#1393=CARTESIAN_POINT('',(4.19902100343071,44.9897744901927,10.5));
#1394=CARTESIAN_POINT('Origin',(-28.52602138961,58.74919309614,-10.5));
#1395=CARTESIAN_POINT('Origin',(0.,30.,-10.5));
#1396=CARTESIAN_POINT('',(0.,32.5,-10.5));
#1397=CARTESIAN_POINT('',(3.06161699786838E-16,32.5,-10.5));
#1398=CARTESIAN_POINT('Origin',(0.,30.,-10.5));
#1399=CARTESIAN_POINT('Origin',(-5.,14.04669495709,-4.6));
#1400=CARTESIAN_POINT('',(-0.98837011081,19.99418085093,-4.6));
#1401=CARTESIAN_POINT('Origin',(-0.159332538255,19.43498794745,-37.8756));
#1402=CARTESIAN_POINT('',(0.7469752487817,19.8576062092,-4.6));
#1403=CARTESIAN_POINT('Origin',(0.,21.45949979966,-4.6));
#1404=CARTESIAN_POINT('Origin',(9.46664906299154,26.301294429623,5.6));
#1405=CARTESIAN_POINT('',(4.97917990845885,-17.5441848629111,5.6));
#1406=CARTESIAN_POINT('',(2.48591311487086,9.69147037299764,5.6));
#1407=CARTESIAN_POINT('',(-4.99510363039701,-17.7787767607413,5.6));
#1408=CARTESIAN_POINT('Origin',(0.,-18.,5.6));
#1409=CARTESIAN_POINT('',(-3.86695126692028,7.69451331200738,5.6));
#1410=CARTESIAN_POINT('',(4.29526703833683,10.2602220220415,5.6));
#1411=CARTESIAN_POINT('',(-2.5,-18.,5.6));
#1412=CARTESIAN_POINT('Origin',(0.,-18.,5.6));
#1413=CARTESIAN_POINT('Origin',(2.48591311487086,9.69147037299764,10.5));
#1414=CARTESIAN_POINT('',(4.97917990845885,-17.5441848629111,10.5));
#1415=CARTESIAN_POINT('Origin',(0.,-18.,10.5));
#1416=CARTESIAN_POINT('',(-4.99510363039701,-17.7787767607413,10.5));
#1417=CARTESIAN_POINT('Origin',(-4.99510363039701,-17.7787767607413,10.5));
#1418=CARTESIAN_POINT('Origin',(0.,-18.,10.5));
#1419=CARTESIAN_POINT('',(-2.5,-18.,10.5));
#1420=CARTESIAN_POINT('Origin',(-5.,7.338351188595,5.6));
#1421=CARTESIAN_POINT('',(4.29526703833683,10.2602220220415,-5.6));
#1422=CARTESIAN_POINT('Origin',(9.46664906299154,26.301294429623,-5.6));
#1423=CARTESIAN_POINT('',(-4.99510653234765,-17.7788422857867,-5.6));
#1424=CARTESIAN_POINT('',(-3.86695126692028,7.69451331200738,-5.6));
#1425=CARTESIAN_POINT('',(4.97918000675278,-17.5441859366463,-5.6));
#1426=CARTESIAN_POINT('Origin',(0.,-18.,-5.6));
#1427=CARTESIAN_POINT('',(2.48591311487086,9.69147037299764,-5.6));
#1428=CARTESIAN_POINT('',(2.5,-18.,-5.6));
#1429=CARTESIAN_POINT('Origin',(0.,-18.,-5.6));
#1430=CARTESIAN_POINT('Origin',(-3.86695126692028,7.69451331200738,-10.5));
#1431=CARTESIAN_POINT('',(-4.99510653234765,-17.7788422857867,-10.5));
#1432=CARTESIAN_POINT('',(-3.86695126692028,7.69451331200738,-10.5));
#1433=CARTESIAN_POINT('',(-4.99510653234765,-17.7788422857867,-10.5));
#1434=CARTESIAN_POINT('Origin',(0.,-18.,-10.5));
#1435=CARTESIAN_POINT('',(4.97918000675278,-17.5441859366463,-10.5));
#1436=CARTESIAN_POINT('Origin',(0.,-18.,-10.5));
#1437=CARTESIAN_POINT('',(4.97918000675278,-17.5441859366463,-10.5));
#1438=CARTESIAN_POINT('Origin',(4.97918000675278,-17.5441859366463,-10.5));
#1439=CARTESIAN_POINT('',(2.48591311487086,9.69147037299764,-10.5));
#1440=CARTESIAN_POINT('Origin',(0.,-18.,-10.5));
#1441=CARTESIAN_POINT('',(2.5,-18.,-10.5));
#1442=CARTESIAN_POINT('',(2.5,-18.,-10.5));
#1443=CARTESIAN_POINT('Origin',(0.,-18.,-10.5));
#1444=CARTESIAN_POINT('Origin',(0.,0.,-10.5));
#1445=CARTESIAN_POINT('Origin',(4.19902100343069,44.9897744901926,-10.5));
#1446=UNCERTAINTY_MEASURE_WITH_UNIT(LENGTH_MEASURE(0.01),#1450,
'DISTANCE_ACCURACY_VALUE',
'Maximum model space distance between geometric entities at asserted c
onnectivities');
#1447=UNCERTAINTY_MEASURE_WITH_UNIT(LENGTH_MEASURE(0.01),#1450,
'DISTANCE_ACCURACY_VALUE',
'Maximum model space distance between geometric entities at asserted c
onnectivities');
#1448=(
GEOMETRIC_REPRESENTATION_CONTEXT(3)
GLOBAL_UNCERTAINTY_ASSIGNED_CONTEXT((#1446))
GLOBAL_UNIT_ASSIGNED_CONTEXT((#1450,#1452,#1453))
REPRESENTATION_CONTEXT('','3D')
);
#1449=(
GEOMETRIC_REPRESENTATION_CONTEXT(3)
GLOBAL_UNCERTAINTY_ASSIGNED_CONTEXT((#1447))
GLOBAL_UNIT_ASSIGNED_CONTEXT((#1450,#1452,#1453))
REPRESENTATION_CONTEXT('','3D')
);
#1450=(
LENGTH_UNIT()
NAMED_UNIT(*)
SI_UNIT(.MILLI.,.METRE.)
);
#1451=(
LENGTH_UNIT()
NAMED_UNIT(*)
SI_UNIT($,.METRE.)
);
#1452=(
NAMED_UNIT(*)
PLANE_ANGLE_UNIT()
SI_UNIT($,.RADIAN.)
);
#1453=(
NAMED_UNIT(*)
SI_UNIT($,.STERADIAN.)
SOLID_ANGLE_UNIT()
);
#1454=SHAPE_DEFINITION_REPRESENTATION(#1455,#1456);
#1455=PRODUCT_DEFINITION_SHAPE('',$,#1458);
#1456=SHAPE_REPRESENTATION('',(#849),#1448);
#1457=PRODUCT_DEFINITION_CONTEXT('part definition',#1462,'design');
#1458=PRODUCT_DEFINITION('ACWA-0029','ACWA-0029 v3',#1459,#1457);
#1459=PRODUCT_DEFINITION_FORMATION('',$,#1464);
#1460=PRODUCT_RELATED_PRODUCT_CATEGORY('ACWA-0029 v3','ACWA-0029 v3',(#1464));
#1461=APPLICATION_PROTOCOL_DEFINITION('international standard',
'automotive_design',2009,#1462);
#1462=APPLICATION_CONTEXT(
'Core Data for Automotive Mechanical Design Process');
#1463=PRODUCT_CONTEXT('part definition',#1462,'mechanical');
#1464=PRODUCT('ACWA-0029','ACWA-0029 v3',$,(#1463));
#1465=PRESENTATION_STYLE_ASSIGNMENT((#1466));
#1466=SURFACE_STYLE_USAGE(.BOTH.,#1467);
#1467=SURFACE_SIDE_STYLE('',(#1468));
#1468=SURFACE_STYLE_FILL_AREA(#1469);
#1469=FILL_AREA_STYLE('Acier - Satin\X\E9',(#1470));
#1470=FILL_AREA_STYLE_COLOUR('Acier - Satin\X\E9',#1471);
#1471=COLOUR_RGB('Acier - Satin\X\E9',0.627450980392157,0.627450980392157,
0.627450980392157);
ENDSEC;
END-ISO-10303-21;
