ISO-10303-21;
HEADER;
/* Generated by software containing ST-Developer
 * from STEP Tools, Inc. (www.steptools.com) 
 */

FILE_DESCRIPTION(
/* description */ (''),
/* implementation_level */ '2;1');

FILE_NAME(
/* name */ 'ACWA-0X29_BIELLETTE1_350-400.step',
/* time_stamp */ '2025-05-06T11:59:51+02:00',
/* author */ (''),
/* organization */ (''),
/* preprocessor_version */ 'ST-DEVELOPER v20.1',
/* originating_system */ 'Autodesk Translation Framework v14.4.0.0',
/* authorisation */ '');

FILE_SCHEMA (('AUTOMOTIVE_DESIGN { 1 0 10303 214 3 1 1 }'));
ENDSEC;

DATA;
#10=MECHANICAL_DESIGN_GEOMETRIC_PRESENTATION_REPRESENTATION('',(#13),#1729);
#11=SHAPE_REPRESENTATION_RELATIONSHIP('SRR','None',#1736,#12);
#12=ADVANCED_BREP_SHAPE_REPRESENTATION('',(#14),#1728);
#13=STYLED_ITEM('',(#1745),#14);
#14=MANIFOLD_SOLID_BREP('Corps1',#985);
#15=FACE_BOUND('',#100,.T.);
#16=FACE_BOUND('',#110,.T.);
#17=FACE_BOUND('',#122,.T.);
#18=FACE_BOUND('',#136,.T.);
#19=FACE_BOUND('',#140,.T.);
#20=FACE_BOUND('',#142,.T.);
#21=FACE_BOUND('',#143,.T.);
#22=FACE_BOUND('',#144,.T.);
#23=FACE_BOUND('',#155,.T.);
#24=FACE_BOUND('',#157,.T.);
#25=FACE_BOUND('',#158,.T.);
#26=FACE_BOUND('',#159,.T.);
#27=PLANE('',#1002);
#28=PLANE('',#1010);
#29=PLANE('',#1028);
#30=PLANE('',#1036);
#31=PLANE('',#1043);
#32=PLANE('',#1044);
#33=PLANE('',#1054);
#34=PLANE('',#1073);
#35=PLANE('',#1085);
#36=PLANE('',#1089);
#37=PLANE('',#1093);
#38=PLANE('',#1094);
#39=PLANE('',#1095);
#40=PLANE('',#1096);
#41=PLANE('',#1099);
#42=PLANE('',#1104);
#43=PLANE('',#1105);
#44=PLANE('',#1115);
#45=PLANE('',#1116);
#46=PLANE('',#1117);
#47=PLANE('',#1118);
#48=FACE_OUTER_BOUND('',#98,.T.);
#49=FACE_OUTER_BOUND('',#99,.T.);
#50=FACE_OUTER_BOUND('',#101,.T.);
#51=FACE_OUTER_BOUND('',#102,.T.);
#52=FACE_OUTER_BOUND('',#103,.T.);
#53=FACE_OUTER_BOUND('',#104,.T.);
#54=FACE_OUTER_BOUND('',#105,.T.);
#55=FACE_OUTER_BOUND('',#106,.T.);
#56=FACE_OUTER_BOUND('',#107,.T.);
#57=FACE_OUTER_BOUND('',#108,.T.);
#58=FACE_OUTER_BOUND('',#109,.T.);
#59=FACE_OUTER_BOUND('',#111,.T.);
#60=FACE_OUTER_BOUND('',#112,.T.);
#61=FACE_OUTER_BOUND('',#113,.T.);
#62=FACE_OUTER_BOUND('',#114,.T.);
#63=FACE_OUTER_BOUND('',#115,.T.);
#64=FACE_OUTER_BOUND('',#116,.T.);
#65=FACE_OUTER_BOUND('',#117,.T.);
#66=FACE_OUTER_BOUND('',#118,.T.);
#67=FACE_OUTER_BOUND('',#119,.T.);
#68=FACE_OUTER_BOUND('',#120,.T.);
#69=FACE_OUTER_BOUND('',#121,.T.);
#70=FACE_OUTER_BOUND('',#123,.T.);
#71=FACE_OUTER_BOUND('',#124,.T.);
#72=FACE_OUTER_BOUND('',#125,.T.);
#73=FACE_OUTER_BOUND('',#126,.T.);
#74=FACE_OUTER_BOUND('',#127,.T.);
#75=FACE_OUTER_BOUND('',#128,.T.);
#76=FACE_OUTER_BOUND('',#129,.T.);
#77=FACE_OUTER_BOUND('',#130,.T.);
#78=FACE_OUTER_BOUND('',#131,.T.);
#79=FACE_OUTER_BOUND('',#132,.T.);
#80=FACE_OUTER_BOUND('',#133,.T.);
#81=FACE_OUTER_BOUND('',#134,.T.);
#82=FACE_OUTER_BOUND('',#135,.T.);
#83=FACE_OUTER_BOUND('',#137,.T.);
#84=FACE_OUTER_BOUND('',#138,.T.);
#85=FACE_OUTER_BOUND('',#139,.T.);
#86=FACE_OUTER_BOUND('',#141,.T.);
#87=FACE_OUTER_BOUND('',#145,.T.);
#88=FACE_OUTER_BOUND('',#146,.T.);
#89=FACE_OUTER_BOUND('',#147,.T.);
#90=FACE_OUTER_BOUND('',#148,.T.);
#91=FACE_OUTER_BOUND('',#149,.T.);
#92=FACE_OUTER_BOUND('',#150,.T.);
#93=FACE_OUTER_BOUND('',#151,.T.);
#94=FACE_OUTER_BOUND('',#152,.T.);
#95=FACE_OUTER_BOUND('',#153,.T.);
#96=FACE_OUTER_BOUND('',#154,.T.);
#97=FACE_OUTER_BOUND('',#156,.T.);
#98=EDGE_LOOP('',(#618,#619,#620,#621));
#99=EDGE_LOOP('',(#622,#623,#624,#625,#626,#627));
#100=EDGE_LOOP('',(#628));
#101=EDGE_LOOP('',(#629,#630,#631,#632));
#102=EDGE_LOOP('',(#633,#634,#635,#636));
#103=EDGE_LOOP('',(#637,#638,#639,#640));
#104=EDGE_LOOP('',(#641,#642,#643,#644,#645,#646));
#105=EDGE_LOOP('',(#647,#648,#649,#650,#651,#652));
#106=EDGE_LOOP('',(#653,#654,#655,#656));
#107=EDGE_LOOP('',(#657,#658,#659,#660));
#108=EDGE_LOOP('',(#661,#662,#663,#664,#665,#666));
#109=EDGE_LOOP('',(#667,#668,#669,#670,#671,#672));
#110=EDGE_LOOP('',(#673));
#111=EDGE_LOOP('',(#674,#675,#676,#677,#678,#679));
#112=EDGE_LOOP('',(#680,#681,#682,#683));
#113=EDGE_LOOP('',(#684,#685,#686,#687));
#114=EDGE_LOOP('',(#688,#689,#690,#691));
#115=EDGE_LOOP('',(#692,#693,#694,#695));
#116=EDGE_LOOP('',(#696,#697,#698,#699));
#117=EDGE_LOOP('',(#700,#701,#702,#703));
#118=EDGE_LOOP('',(#704,#705,#706,#707));
#119=EDGE_LOOP('',(#708,#709,#710,#711));
#120=EDGE_LOOP('',(#712,#713,#714,#715));
#121=EDGE_LOOP('',(#716,#717,#718,#719,#720,#721));
#122=EDGE_LOOP('',(#722));
#123=EDGE_LOOP('',(#723,#724,#725,#726));
#124=EDGE_LOOP('',(#727,#728,#729,#730));
#125=EDGE_LOOP('',(#731,#732,#733,#734,#735,#736,#737,#738,#739,#740,#741,
#742));
#126=EDGE_LOOP('',(#743,#744,#745,#746));
#127=EDGE_LOOP('',(#747,#748,#749,#750));
#128=EDGE_LOOP('',(#751,#752,#753,#754));
#129=EDGE_LOOP('',(#755,#756,#757,#758,#759,#760,#761,#762,#763,#764,#765,
#766));
#130=EDGE_LOOP('',(#767,#768,#769,#770));
#131=EDGE_LOOP('',(#771,#772,#773,#774));
#132=EDGE_LOOP('',(#775,#776,#777,#778));
#133=EDGE_LOOP('',(#779,#780,#781,#782));
#134=EDGE_LOOP('',(#783,#784,#785,#786));
#135=EDGE_LOOP('',(#787,#788,#789,#790,#791,#792));
#136=EDGE_LOOP('',(#793));
#137=EDGE_LOOP('',(#794,#795,#796,#797));
#138=EDGE_LOOP('',(#798,#799,#800,#801));
#139=EDGE_LOOP('',(#802,#803,#804,#805,#806,#807,#808,#809,#810,#811,#812,
#813,#814,#815,#816,#817,#818,#819));
#140=EDGE_LOOP('',(#820));
#141=EDGE_LOOP('',(#821,#822,#823,#824,#825,#826,#827,#828,#829,#830,#831,
#832));
#142=EDGE_LOOP('',(#833));
#143=EDGE_LOOP('',(#834));
#144=EDGE_LOOP('',(#835));
#145=EDGE_LOOP('',(#836,#837,#838,#839));
#146=EDGE_LOOP('',(#840,#841,#842,#843));
#147=EDGE_LOOP('',(#844,#845,#846,#847));
#148=EDGE_LOOP('',(#848,#849,#850,#851));
#149=EDGE_LOOP('',(#852,#853,#854,#855));
#150=EDGE_LOOP('',(#856,#857,#858,#859));
#151=EDGE_LOOP('',(#860,#861,#862,#863));
#152=EDGE_LOOP('',(#864,#865,#866,#867));
#153=EDGE_LOOP('',(#868,#869,#870,#871));
#154=EDGE_LOOP('',(#872,#873,#874,#875,#876,#877,#878,#879,#880,#881,#882,
#883,#884,#885,#886,#887,#888,#889));
#155=EDGE_LOOP('',(#890));
#156=EDGE_LOOP('',(#891,#892,#893,#894,#895,#896,#897,#898,#899,#900,#901,
#902));
#157=EDGE_LOOP('',(#903));
#158=EDGE_LOOP('',(#904));
#159=EDGE_LOOP('',(#905));
#160=LINE('',#1441,#234);
#161=LINE('',#1444,#235);
#162=LINE('',#1448,#236);
#163=LINE('',#1459,#237);
#164=LINE('',#1463,#238);
#165=LINE('',#1465,#239);
#166=LINE('',#1466,#240);
#167=LINE('',#1470,#241);
#168=LINE('',#1475,#242);
#169=LINE('',#1479,#243);
#170=LINE('',#1483,#244);
#171=LINE('',#1490,#245);
#172=LINE('',#1494,#246);
#173=LINE('',#1502,#247);
#174=LINE('',#1505,#248);
#175=LINE('',#1513,#249);
#176=LINE('',#1518,#250);
#177=LINE('',#1522,#251);
#178=LINE('',#1525,#252);
#179=LINE('',#1528,#253);
#180=LINE('',#1529,#254);
#181=LINE('',#1535,#255);
#182=LINE('',#1540,#256);
#183=LINE('',#1542,#257);
#184=LINE('',#1543,#258);
#185=LINE('',#1546,#259);
#186=LINE('',#1548,#260);
#187=LINE('',#1549,#261);
#188=LINE('',#1554,#262);
#189=LINE('',#1561,#263);
#190=LINE('',#1564,#264);
#191=LINE('',#1570,#265);
#192=LINE('',#1573,#266);
#193=LINE('',#1582,#267);
#194=LINE('',#1589,#268);
#195=LINE('',#1594,#269);
#196=LINE('',#1598,#270);
#197=LINE('',#1602,#271);
#198=LINE('',#1606,#272);
#199=LINE('',#1610,#273);
#200=LINE('',#1615,#274);
#201=LINE('',#1619,#275);
#202=LINE('',#1620,#276);
#203=LINE('',#1624,#277);
#204=LINE('',#1630,#278);
#205=LINE('',#1634,#279);
#206=LINE('',#1638,#280);
#207=LINE('',#1643,#281);
#208=LINE('',#1649,#282);
#209=LINE('',#1650,#283);
#210=LINE('',#1651,#284);
#211=LINE('',#1655,#285);
#212=LINE('',#1661,#286);
#213=LINE('',#1662,#287);
#214=LINE('',#1663,#288);
#215=LINE('',#1670,#289);
#216=LINE('',#1672,#290);
#217=LINE('',#1673,#291);
#218=LINE('',#1675,#292);
#219=LINE('',#1676,#293);
#220=LINE('',#1687,#294);
#221=LINE('',#1690,#295);
#222=LINE('',#1692,#296);
#223=LINE('',#1693,#297);
#224=LINE('',#1696,#298);
#225=LINE('',#1698,#299);
#226=LINE('',#1699,#300);
#227=LINE('',#1704,#301);
#228=LINE('',#1710,#302);
#229=LINE('',#1716,#303);
#230=LINE('',#1719,#304);
#231=LINE('',#1720,#305);
#232=LINE('',#1722,#306);
#233=LINE('',#1723,#307);
#234=VECTOR('',#1125,5.4);
#235=VECTOR('',#1128,5.4);
#236=VECTOR('',#1131,5.23968506462324);
#237=VECTOR('',#1144,2.5);
#238=VECTOR('',#1149,0.5);
#239=VECTOR('',#1150,0.5);
#240=VECTOR('',#1151,5.23968506462324);
#241=VECTOR('',#1156,0.5);
#242=VECTOR('',#1161,10.);
#243=VECTOR('',#1166,0.5);
#244=VECTOR('',#1169,10.);
#245=VECTOR('',#1178,0.5);
#246=VECTOR('',#1181,0.5);
#247=VECTOR('',#1190,10.);
#248=VECTOR('',#1193,5.4);
#249=VECTOR('',#1202,5.23968506462324);
#250=VECTOR('',#1207,5.4);
#251=VECTOR('',#1210,10.);
#252=VECTOR('',#1213,0.5);
#253=VECTOR('',#1216,0.5);
#254=VECTOR('',#1217,5.23968506462324);
#255=VECTOR('',#1226,2.5);
#256=VECTOR('',#1233,10.);
#257=VECTOR('',#1234,10.);
#258=VECTOR('',#1235,10.);
#259=VECTOR('',#1238,10.);
#260=VECTOR('',#1239,10.);
#261=VECTOR('',#1240,10.);
#262=VECTOR('',#1245,10.);
#263=VECTOR('',#1252,4.9);
#264=VECTOR('',#1255,4.9);
#265=VECTOR('',#1260,4.9);
#266=VECTOR('',#1263,4.9);
#267=VECTOR('',#1272,4.30562646381897);
#268=VECTOR('',#1281,2.5);
#269=VECTOR('',#1286,2.5);
#270=VECTOR('',#1291,11.2);
#271=VECTOR('',#1294,10.);
#272=VECTOR('',#1297,9.2);
#273=VECTOR('',#1300,10.);
#274=VECTOR('',#1307,11.2);
#275=VECTOR('',#1312,4.30562646381897);
#276=VECTOR('',#1313,11.2);
#277=VECTOR('',#1318,11.2);
#278=VECTOR('',#1325,10.);
#279=VECTOR('',#1328,9.2);
#280=VECTOR('',#1331,10.);
#281=VECTOR('',#1336,9.2);
#282=VECTOR('',#1343,9.2);
#283=VECTOR('',#1344,2.78409837330513);
#284=VECTOR('',#1345,2.78409837330513);
#285=VECTOR('',#1348,9.2);
#286=VECTOR('',#1355,9.2);
#287=VECTOR('',#1356,4.17045582787975);
#288=VECTOR('',#1357,4.17045582787975);
#289=VECTOR('',#1368,10.);
#290=VECTOR('',#1369,10.);
#291=VECTOR('',#1370,10.);
#292=VECTOR('',#1373,10.);
#293=VECTOR('',#1374,10.);
#294=VECTOR('',#1391,2.5);
#295=VECTOR('',#1394,10.);
#296=VECTOR('',#1395,10.);
#297=VECTOR('',#1396,10.);
#298=VECTOR('',#1399,10.);
#299=VECTOR('',#1400,10.);
#300=VECTOR('',#1401,10.);
#301=VECTOR('',#1406,10.);
#302=VECTOR('',#1413,2.5);
#303=VECTOR('',#1420,10.);
#304=VECTOR('',#1425,10.);
#305=VECTOR('',#1426,10.);
#306=VECTOR('',#1429,10.);
#307=VECTOR('',#1430,10.);
#308=CIRCLE('',#1000,5.);
#309=CIRCLE('',#1001,5.);
#310=CIRCLE('',#1003,1.);
#311=CIRCLE('',#1004,35.5);
#312=CIRCLE('',#1005,35.5);
#313=CIRCLE('',#1006,1.);
#314=CIRCLE('',#1007,2.5);
#315=CIRCLE('',#1009,2.5);
#316=CIRCLE('',#1012,1.);
#317=CIRCLE('',#1014,35.5);
#318=CIRCLE('',#1015,35.5);
#319=CIRCLE('',#1017,35.5);
#320=CIRCLE('',#1018,35.5);
#321=CIRCLE('',#1020,1.);
#322=CIRCLE('',#1022,1.);
#323=CIRCLE('',#1023,1.);
#324=CIRCLE('',#1025,35.5);
#325=CIRCLE('',#1026,35.5);
#326=CIRCLE('',#1027,35.5);
#327=CIRCLE('',#1029,5.);
#328=CIRCLE('',#1030,35.5);
#329=CIRCLE('',#1031,1.);
#330=CIRCLE('',#1032,2.5);
#331=CIRCLE('',#1034,35.5);
#332=CIRCLE('',#1035,35.5);
#333=CIRCLE('',#1038,1.);
#334=CIRCLE('',#1040,2.5);
#335=CIRCLE('',#1042,5.);
#336=CIRCLE('',#1046,5.00000000000455);
#337=CIRCLE('',#1047,5.00000000000455);
#338=CIRCLE('',#1049,5.);
#339=CIRCLE('',#1050,5.);
#340=CIRCLE('',#1052,5.);
#341=CIRCLE('',#1053,5.);
#342=CIRCLE('',#1055,35.);
#343=CIRCLE('',#1056,70.);
#344=CIRCLE('',#1057,1.);
#345=CIRCLE('',#1058,1.);
#346=CIRCLE('',#1059,2.5);
#347=CIRCLE('',#1061,2.5);
#348=CIRCLE('',#1063,2.5);
#349=CIRCLE('',#1064,2.5);
#350=CIRCLE('',#1066,70.);
#351=CIRCLE('',#1067,70.);
#352=CIRCLE('',#1068,70.);
#353=CIRCLE('',#1069,70.);
#354=CIRCLE('',#1070,70.);
#355=CIRCLE('',#1072,1.);
#356=CIRCLE('',#1075,1.);
#357=CIRCLE('',#1077,35.);
#358=CIRCLE('',#1078,35.);
#359=CIRCLE('',#1079,35.);
#360=CIRCLE('',#1080,35.);
#361=CIRCLE('',#1081,35.);
#362=CIRCLE('',#1083,2.);
#363=CIRCLE('',#1084,2.);
#364=CIRCLE('',#1087,1.);
#365=CIRCLE('',#1088,1.);
#366=CIRCLE('',#1091,1.);
#367=CIRCLE('',#1092,1.);
#368=CIRCLE('',#1097,5.00000000000455);
#369=CIRCLE('',#1098,2.5);
#370=CIRCLE('',#1100,5.00000000000455);
#371=CIRCLE('',#1101,2.5);
#372=CIRCLE('',#1107,5.00000000000455);
#373=CIRCLE('',#1108,5.00000000000455);
#374=CIRCLE('',#1110,2.5);
#375=CIRCLE('',#1111,2.5);
#376=CIRCLE('',#1113,5.00000000000455);
#377=CIRCLE('',#1114,5.00000000000455);
#378=VERTEX_POINT('',#1437);
#379=VERTEX_POINT('',#1438);
#380=VERTEX_POINT('',#1440);
#381=VERTEX_POINT('',#1442);
#382=VERTEX_POINT('',#1446);
#383=VERTEX_POINT('',#1447);
#384=VERTEX_POINT('',#1449);
#385=VERTEX_POINT('',#1452);
#386=VERTEX_POINT('',#1455);
#387=VERTEX_POINT('',#1458);
#388=VERTEX_POINT('',#1462);
#389=VERTEX_POINT('',#1464);
#390=VERTEX_POINT('',#1468);
#391=VERTEX_POINT('',#1472);
#392=VERTEX_POINT('',#1474);
#393=VERTEX_POINT('',#1478);
#394=VERTEX_POINT('',#1480);
#395=VERTEX_POINT('',#1482);
#396=VERTEX_POINT('',#1488);
#397=VERTEX_POINT('',#1489);
#398=VERTEX_POINT('',#1491);
#399=VERTEX_POINT('',#1493);
#400=VERTEX_POINT('',#1497);
#401=VERTEX_POINT('',#1499);
#402=VERTEX_POINT('',#1501);
#403=VERTEX_POINT('',#1503);
#404=VERTEX_POINT('',#1507);
#405=VERTEX_POINT('',#1509);
#406=VERTEX_POINT('',#1511);
#407=VERTEX_POINT('',#1514);
#408=VERTEX_POINT('',#1517);
#409=VERTEX_POINT('',#1519);
#410=VERTEX_POINT('',#1521);
#411=VERTEX_POINT('',#1523);
#412=VERTEX_POINT('',#1527);
#413=VERTEX_POINT('',#1533);
#414=VERTEX_POINT('',#1539);
#415=VERTEX_POINT('',#1541);
#416=VERTEX_POINT('',#1545);
#417=VERTEX_POINT('',#1547);
#418=VERTEX_POINT('',#1551);
#419=VERTEX_POINT('',#1553);
#420=VERTEX_POINT('',#1557);
#421=VERTEX_POINT('',#1558);
#422=VERTEX_POINT('',#1560);
#423=VERTEX_POINT('',#1562);
#424=VERTEX_POINT('',#1566);
#425=VERTEX_POINT('',#1567);
#426=VERTEX_POINT('',#1569);
#427=VERTEX_POINT('',#1571);
#428=VERTEX_POINT('',#1575);
#429=VERTEX_POINT('',#1577);
#430=VERTEX_POINT('',#1579);
#431=VERTEX_POINT('',#1581);
#432=VERTEX_POINT('',#1584);
#433=VERTEX_POINT('',#1587);
#434=VERTEX_POINT('',#1591);
#435=VERTEX_POINT('',#1593);
#436=VERTEX_POINT('',#1597);
#437=VERTEX_POINT('',#1599);
#438=VERTEX_POINT('',#1601);
#439=VERTEX_POINT('',#1603);
#440=VERTEX_POINT('',#1605);
#441=VERTEX_POINT('',#1607);
#442=VERTEX_POINT('',#1609);
#443=VERTEX_POINT('',#1614);
#444=VERTEX_POINT('',#1618);
#445=VERTEX_POINT('',#1622);
#446=VERTEX_POINT('',#1627);
#447=VERTEX_POINT('',#1629);
#448=VERTEX_POINT('',#1631);
#449=VERTEX_POINT('',#1633);
#450=VERTEX_POINT('',#1635);
#451=VERTEX_POINT('',#1637);
#452=VERTEX_POINT('',#1641);
#453=VERTEX_POINT('',#1642);
#454=VERTEX_POINT('',#1647);
#455=VERTEX_POINT('',#1648);
#456=VERTEX_POINT('',#1653);
#457=VERTEX_POINT('',#1654);
#458=VERTEX_POINT('',#1659);
#459=VERTEX_POINT('',#1660);
#460=VERTEX_POINT('',#1669);
#461=VERTEX_POINT('',#1671);
#462=VERTEX_POINT('',#1679);
#463=VERTEX_POINT('',#1683);
#464=VERTEX_POINT('',#1689);
#465=VERTEX_POINT('',#1691);
#466=VERTEX_POINT('',#1695);
#467=VERTEX_POINT('',#1697);
#468=VERTEX_POINT('',#1701);
#469=VERTEX_POINT('',#1703);
#470=VERTEX_POINT('',#1707);
#471=VERTEX_POINT('',#1709);
#472=VERTEX_POINT('',#1713);
#473=VERTEX_POINT('',#1715);
#474=EDGE_CURVE('',#378,#379,#308,.T.);
#475=EDGE_CURVE('',#380,#378,#160,.T.);
#476=EDGE_CURVE('',#381,#380,#309,.T.);
#477=EDGE_CURVE('',#381,#379,#161,.T.);
#478=EDGE_CURVE('',#382,#383,#162,.T.);
#479=EDGE_CURVE('',#383,#384,#310,.T.);
#480=EDGE_CURVE('',#378,#384,#311,.T.);
#481=EDGE_CURVE('',#385,#379,#312,.T.);
#482=EDGE_CURVE('',#385,#382,#313,.T.);
#483=EDGE_CURVE('',#386,#386,#314,.T.);
#484=EDGE_CURVE('',#386,#387,#163,.T.);
#485=EDGE_CURVE('',#387,#387,#315,.T.);
#486=EDGE_CURVE('',#383,#388,#164,.T.);
#487=EDGE_CURVE('',#389,#382,#165,.T.);
#488=EDGE_CURVE('',#389,#388,#166,.T.);
#489=EDGE_CURVE('',#390,#388,#316,.T.);
#490=EDGE_CURVE('',#384,#390,#167,.T.);
#491=EDGE_CURVE('',#390,#391,#317,.T.);
#492=EDGE_CURVE('',#392,#391,#168,.T.);
#493=EDGE_CURVE('',#392,#380,#318,.T.);
#494=EDGE_CURVE('',#393,#385,#169,.T.);
#495=EDGE_CURVE('',#381,#394,#319,.T.);
#496=EDGE_CURVE('',#394,#395,#170,.T.);
#497=EDGE_CURVE('',#395,#393,#320,.T.);
#498=EDGE_CURVE('',#389,#393,#321,.T.);
#499=EDGE_CURVE('',#396,#397,#171,.T.);
#500=EDGE_CURVE('',#398,#397,#322,.T.);
#501=EDGE_CURVE('',#399,#398,#172,.T.);
#502=EDGE_CURVE('',#396,#399,#323,.T.);
#503=EDGE_CURVE('',#400,#399,#324,.T.);
#504=EDGE_CURVE('',#401,#398,#325,.T.);
#505=EDGE_CURVE('',#401,#402,#173,.T.);
#506=EDGE_CURVE('',#403,#402,#326,.T.);
#507=EDGE_CURVE('',#400,#403,#174,.T.);
#508=EDGE_CURVE('',#404,#400,#327,.T.);
#509=EDGE_CURVE('',#405,#404,#328,.T.);
#510=EDGE_CURVE('',#405,#406,#329,.T.);
#511=EDGE_CURVE('',#396,#406,#175,.T.);
#512=EDGE_CURVE('',#407,#407,#330,.T.);
#513=EDGE_CURVE('',#404,#408,#176,.T.);
#514=EDGE_CURVE('',#409,#408,#331,.T.);
#515=EDGE_CURVE('',#410,#409,#177,.T.);
#516=EDGE_CURVE('',#411,#410,#332,.T.);
#517=EDGE_CURVE('',#411,#405,#178,.T.);
#518=EDGE_CURVE('',#412,#406,#179,.T.);
#519=EDGE_CURVE('',#397,#412,#180,.T.);
#520=EDGE_CURVE('',#412,#411,#333,.T.);
#521=EDGE_CURVE('',#413,#413,#334,.T.);
#522=EDGE_CURVE('',#413,#407,#181,.T.);
#523=EDGE_CURVE('',#408,#403,#335,.T.);
#524=EDGE_CURVE('',#394,#414,#182,.T.);
#525=EDGE_CURVE('',#414,#415,#183,.T.);
#526=EDGE_CURVE('',#395,#415,#184,.T.);
#527=EDGE_CURVE('',#392,#416,#185,.T.);
#528=EDGE_CURVE('',#417,#391,#186,.T.);
#529=EDGE_CURVE('',#416,#417,#187,.T.);
#530=EDGE_CURVE('',#414,#418,#336,.T.);
#531=EDGE_CURVE('',#418,#419,#188,.T.);
#532=EDGE_CURVE('',#419,#415,#337,.T.);
#533=EDGE_CURVE('',#420,#421,#338,.T.);
#534=EDGE_CURVE('',#420,#422,#189,.T.);
#535=EDGE_CURVE('',#423,#422,#339,.T.);
#536=EDGE_CURVE('',#421,#423,#190,.T.);
#537=EDGE_CURVE('',#424,#425,#340,.T.);
#538=EDGE_CURVE('',#426,#424,#191,.T.);
#539=EDGE_CURVE('',#427,#426,#341,.T.);
#540=EDGE_CURVE('',#427,#425,#192,.T.);
#541=EDGE_CURVE('',#420,#428,#342,.T.);
#542=EDGE_CURVE('',#429,#421,#343,.T.);
#543=EDGE_CURVE('',#429,#430,#344,.T.);
#544=EDGE_CURVE('',#430,#431,#193,.T.);
#545=EDGE_CURVE('',#431,#428,#345,.T.);
#546=EDGE_CURVE('',#432,#432,#346,.T.);
#547=EDGE_CURVE('',#433,#433,#347,.T.);
#548=EDGE_CURVE('',#433,#432,#194,.T.);
#549=EDGE_CURVE('',#434,#434,#348,.T.);
#550=EDGE_CURVE('',#434,#435,#195,.T.);
#551=EDGE_CURVE('',#435,#435,#349,.T.);
#552=EDGE_CURVE('',#436,#429,#196,.T.);
#553=EDGE_CURVE('',#437,#423,#350,.T.);
#554=EDGE_CURVE('',#438,#437,#197,.T.);
#555=EDGE_CURVE('',#438,#439,#351,.T.);
#556=EDGE_CURVE('',#439,#440,#198,.T.);
#557=EDGE_CURVE('',#440,#441,#352,.T.);
#558=EDGE_CURVE('',#442,#441,#199,.T.);
#559=EDGE_CURVE('',#442,#426,#353,.T.);
#560=EDGE_CURVE('',#424,#436,#354,.T.);
#561=EDGE_CURVE('',#443,#430,#200,.T.);
#562=EDGE_CURVE('',#443,#436,#355,.T.);
#563=EDGE_CURVE('',#443,#444,#201,.T.);
#564=EDGE_CURVE('',#431,#444,#202,.T.);
#565=EDGE_CURVE('',#445,#444,#356,.T.);
#566=EDGE_CURVE('',#428,#445,#203,.T.);
#567=EDGE_CURVE('',#445,#425,#357,.T.);
#568=EDGE_CURVE('',#427,#446,#358,.T.);
#569=EDGE_CURVE('',#446,#447,#204,.T.);
#570=EDGE_CURVE('',#447,#448,#359,.T.);
#571=EDGE_CURVE('',#448,#449,#205,.T.);
#572=EDGE_CURVE('',#449,#450,#360,.T.);
#573=EDGE_CURVE('',#450,#451,#206,.T.);
#574=EDGE_CURVE('',#422,#451,#361,.T.);
#575=EDGE_CURVE('',#452,#453,#207,.T.);
#576=EDGE_CURVE('',#449,#453,#362,.T.);
#577=EDGE_CURVE('',#452,#448,#363,.T.);
#578=EDGE_CURVE('',#454,#455,#208,.T.);
#579=EDGE_CURVE('',#455,#453,#209,.T.);
#580=EDGE_CURVE('',#454,#452,#210,.T.);
#581=EDGE_CURVE('',#456,#457,#211,.T.);
#582=EDGE_CURVE('',#455,#457,#364,.T.);
#583=EDGE_CURVE('',#456,#454,#365,.T.);
#584=EDGE_CURVE('',#458,#459,#212,.T.);
#585=EDGE_CURVE('',#458,#457,#213,.T.);
#586=EDGE_CURVE('',#459,#456,#214,.T.);
#587=EDGE_CURVE('',#440,#459,#366,.T.);
#588=EDGE_CURVE('',#458,#439,#367,.T.);
#589=EDGE_CURVE('',#446,#460,#215,.T.);
#590=EDGE_CURVE('',#460,#461,#216,.T.);
#591=EDGE_CURVE('',#447,#461,#217,.T.);
#592=EDGE_CURVE('',#442,#418,#218,.T.);
#593=EDGE_CURVE('',#419,#441,#219,.T.);
#594=EDGE_CURVE('',#417,#461,#368,.T.);
#595=EDGE_CURVE('',#462,#462,#369,.T.);
#596=EDGE_CURVE('',#460,#416,#370,.T.);
#597=EDGE_CURVE('',#463,#463,#371,.T.);
#598=EDGE_CURVE('',#462,#463,#220,.T.);
#599=EDGE_CURVE('',#450,#464,#221,.T.);
#600=EDGE_CURVE('',#464,#465,#222,.T.);
#601=EDGE_CURVE('',#451,#465,#223,.T.);
#602=EDGE_CURVE('',#438,#466,#224,.T.);
#603=EDGE_CURVE('',#467,#437,#225,.T.);
#604=EDGE_CURVE('',#466,#467,#226,.T.);
#605=EDGE_CURVE('',#467,#468,#372,.T.);
#606=EDGE_CURVE('',#469,#468,#227,.T.);
#607=EDGE_CURVE('',#469,#466,#373,.T.);
#608=EDGE_CURVE('',#470,#470,#374,.T.);
#609=EDGE_CURVE('',#470,#471,#228,.T.);
#610=EDGE_CURVE('',#471,#471,#375,.T.);
#611=EDGE_CURVE('',#464,#472,#376,.T.);
#612=EDGE_CURVE('',#472,#473,#229,.T.);
#613=EDGE_CURVE('',#473,#465,#377,.T.);
#614=EDGE_CURVE('',#401,#469,#230,.T.);
#615=EDGE_CURVE('',#402,#468,#231,.T.);
#616=EDGE_CURVE('',#410,#472,#232,.T.);
#617=EDGE_CURVE('',#473,#409,#233,.T.);
#618=ORIENTED_EDGE('',*,*,#474,.F.);
#619=ORIENTED_EDGE('',*,*,#475,.F.);
#620=ORIENTED_EDGE('',*,*,#476,.F.);
#621=ORIENTED_EDGE('',*,*,#477,.T.);
#622=ORIENTED_EDGE('',*,*,#478,.T.);
#623=ORIENTED_EDGE('',*,*,#479,.T.);
#624=ORIENTED_EDGE('',*,*,#480,.F.);
#625=ORIENTED_EDGE('',*,*,#474,.T.);
#626=ORIENTED_EDGE('',*,*,#481,.F.);
#627=ORIENTED_EDGE('',*,*,#482,.T.);
#628=ORIENTED_EDGE('',*,*,#483,.T.);
#629=ORIENTED_EDGE('',*,*,#483,.F.);
#630=ORIENTED_EDGE('',*,*,#484,.T.);
#631=ORIENTED_EDGE('',*,*,#485,.T.);
#632=ORIENTED_EDGE('',*,*,#484,.F.);
#633=ORIENTED_EDGE('',*,*,#486,.F.);
#634=ORIENTED_EDGE('',*,*,#478,.F.);
#635=ORIENTED_EDGE('',*,*,#487,.F.);
#636=ORIENTED_EDGE('',*,*,#488,.T.);
#637=ORIENTED_EDGE('',*,*,#486,.T.);
#638=ORIENTED_EDGE('',*,*,#489,.F.);
#639=ORIENTED_EDGE('',*,*,#490,.F.);
#640=ORIENTED_EDGE('',*,*,#479,.F.);
#641=ORIENTED_EDGE('',*,*,#490,.T.);
#642=ORIENTED_EDGE('',*,*,#491,.T.);
#643=ORIENTED_EDGE('',*,*,#492,.F.);
#644=ORIENTED_EDGE('',*,*,#493,.T.);
#645=ORIENTED_EDGE('',*,*,#475,.T.);
#646=ORIENTED_EDGE('',*,*,#480,.T.);
#647=ORIENTED_EDGE('',*,*,#494,.T.);
#648=ORIENTED_EDGE('',*,*,#481,.T.);
#649=ORIENTED_EDGE('',*,*,#477,.F.);
#650=ORIENTED_EDGE('',*,*,#495,.T.);
#651=ORIENTED_EDGE('',*,*,#496,.T.);
#652=ORIENTED_EDGE('',*,*,#497,.T.);
#653=ORIENTED_EDGE('',*,*,#487,.T.);
#654=ORIENTED_EDGE('',*,*,#482,.F.);
#655=ORIENTED_EDGE('',*,*,#494,.F.);
#656=ORIENTED_EDGE('',*,*,#498,.F.);
#657=ORIENTED_EDGE('',*,*,#499,.T.);
#658=ORIENTED_EDGE('',*,*,#500,.F.);
#659=ORIENTED_EDGE('',*,*,#501,.F.);
#660=ORIENTED_EDGE('',*,*,#502,.F.);
#661=ORIENTED_EDGE('',*,*,#503,.T.);
#662=ORIENTED_EDGE('',*,*,#501,.T.);
#663=ORIENTED_EDGE('',*,*,#504,.F.);
#664=ORIENTED_EDGE('',*,*,#505,.T.);
#665=ORIENTED_EDGE('',*,*,#506,.F.);
#666=ORIENTED_EDGE('',*,*,#507,.F.);
#667=ORIENTED_EDGE('',*,*,#503,.F.);
#668=ORIENTED_EDGE('',*,*,#508,.F.);
#669=ORIENTED_EDGE('',*,*,#509,.F.);
#670=ORIENTED_EDGE('',*,*,#510,.T.);
#671=ORIENTED_EDGE('',*,*,#511,.F.);
#672=ORIENTED_EDGE('',*,*,#502,.T.);
#673=ORIENTED_EDGE('',*,*,#512,.F.);
#674=ORIENTED_EDGE('',*,*,#509,.T.);
#675=ORIENTED_EDGE('',*,*,#513,.T.);
#676=ORIENTED_EDGE('',*,*,#514,.F.);
#677=ORIENTED_EDGE('',*,*,#515,.F.);
#678=ORIENTED_EDGE('',*,*,#516,.F.);
#679=ORIENTED_EDGE('',*,*,#517,.T.);
#680=ORIENTED_EDGE('',*,*,#499,.F.);
#681=ORIENTED_EDGE('',*,*,#511,.T.);
#682=ORIENTED_EDGE('',*,*,#518,.F.);
#683=ORIENTED_EDGE('',*,*,#519,.F.);
#684=ORIENTED_EDGE('',*,*,#518,.T.);
#685=ORIENTED_EDGE('',*,*,#510,.F.);
#686=ORIENTED_EDGE('',*,*,#517,.F.);
#687=ORIENTED_EDGE('',*,*,#520,.F.);
#688=ORIENTED_EDGE('',*,*,#521,.F.);
#689=ORIENTED_EDGE('',*,*,#522,.T.);
#690=ORIENTED_EDGE('',*,*,#512,.T.);
#691=ORIENTED_EDGE('',*,*,#522,.F.);
#692=ORIENTED_EDGE('',*,*,#508,.T.);
#693=ORIENTED_EDGE('',*,*,#507,.T.);
#694=ORIENTED_EDGE('',*,*,#523,.F.);
#695=ORIENTED_EDGE('',*,*,#513,.F.);
#696=ORIENTED_EDGE('',*,*,#524,.T.);
#697=ORIENTED_EDGE('',*,*,#525,.T.);
#698=ORIENTED_EDGE('',*,*,#526,.F.);
#699=ORIENTED_EDGE('',*,*,#496,.F.);
#700=ORIENTED_EDGE('',*,*,#527,.F.);
#701=ORIENTED_EDGE('',*,*,#492,.T.);
#702=ORIENTED_EDGE('',*,*,#528,.F.);
#703=ORIENTED_EDGE('',*,*,#529,.F.);
#704=ORIENTED_EDGE('',*,*,#525,.F.);
#705=ORIENTED_EDGE('',*,*,#530,.T.);
#706=ORIENTED_EDGE('',*,*,#531,.T.);
#707=ORIENTED_EDGE('',*,*,#532,.T.);
#708=ORIENTED_EDGE('',*,*,#533,.F.);
#709=ORIENTED_EDGE('',*,*,#534,.T.);
#710=ORIENTED_EDGE('',*,*,#535,.F.);
#711=ORIENTED_EDGE('',*,*,#536,.F.);
#712=ORIENTED_EDGE('',*,*,#537,.F.);
#713=ORIENTED_EDGE('',*,*,#538,.F.);
#714=ORIENTED_EDGE('',*,*,#539,.F.);
#715=ORIENTED_EDGE('',*,*,#540,.T.);
#716=ORIENTED_EDGE('',*,*,#541,.F.);
#717=ORIENTED_EDGE('',*,*,#533,.T.);
#718=ORIENTED_EDGE('',*,*,#542,.F.);
#719=ORIENTED_EDGE('',*,*,#543,.T.);
#720=ORIENTED_EDGE('',*,*,#544,.T.);
#721=ORIENTED_EDGE('',*,*,#545,.T.);
#722=ORIENTED_EDGE('',*,*,#546,.F.);
#723=ORIENTED_EDGE('',*,*,#547,.F.);
#724=ORIENTED_EDGE('',*,*,#548,.T.);
#725=ORIENTED_EDGE('',*,*,#546,.T.);
#726=ORIENTED_EDGE('',*,*,#548,.F.);
#727=ORIENTED_EDGE('',*,*,#549,.F.);
#728=ORIENTED_EDGE('',*,*,#550,.T.);
#729=ORIENTED_EDGE('',*,*,#551,.T.);
#730=ORIENTED_EDGE('',*,*,#550,.F.);
#731=ORIENTED_EDGE('',*,*,#552,.T.);
#732=ORIENTED_EDGE('',*,*,#542,.T.);
#733=ORIENTED_EDGE('',*,*,#536,.T.);
#734=ORIENTED_EDGE('',*,*,#553,.F.);
#735=ORIENTED_EDGE('',*,*,#554,.F.);
#736=ORIENTED_EDGE('',*,*,#555,.T.);
#737=ORIENTED_EDGE('',*,*,#556,.T.);
#738=ORIENTED_EDGE('',*,*,#557,.T.);
#739=ORIENTED_EDGE('',*,*,#558,.F.);
#740=ORIENTED_EDGE('',*,*,#559,.T.);
#741=ORIENTED_EDGE('',*,*,#538,.T.);
#742=ORIENTED_EDGE('',*,*,#560,.T.);
#743=ORIENTED_EDGE('',*,*,#561,.T.);
#744=ORIENTED_EDGE('',*,*,#543,.F.);
#745=ORIENTED_EDGE('',*,*,#552,.F.);
#746=ORIENTED_EDGE('',*,*,#562,.F.);
#747=ORIENTED_EDGE('',*,*,#561,.F.);
#748=ORIENTED_EDGE('',*,*,#563,.T.);
#749=ORIENTED_EDGE('',*,*,#564,.F.);
#750=ORIENTED_EDGE('',*,*,#544,.F.);
#751=ORIENTED_EDGE('',*,*,#564,.T.);
#752=ORIENTED_EDGE('',*,*,#565,.F.);
#753=ORIENTED_EDGE('',*,*,#566,.F.);
#754=ORIENTED_EDGE('',*,*,#545,.F.);
#755=ORIENTED_EDGE('',*,*,#566,.T.);
#756=ORIENTED_EDGE('',*,*,#567,.T.);
#757=ORIENTED_EDGE('',*,*,#540,.F.);
#758=ORIENTED_EDGE('',*,*,#568,.T.);
#759=ORIENTED_EDGE('',*,*,#569,.T.);
#760=ORIENTED_EDGE('',*,*,#570,.T.);
#761=ORIENTED_EDGE('',*,*,#571,.T.);
#762=ORIENTED_EDGE('',*,*,#572,.T.);
#763=ORIENTED_EDGE('',*,*,#573,.T.);
#764=ORIENTED_EDGE('',*,*,#574,.F.);
#765=ORIENTED_EDGE('',*,*,#534,.F.);
#766=ORIENTED_EDGE('',*,*,#541,.T.);
#767=ORIENTED_EDGE('',*,*,#575,.T.);
#768=ORIENTED_EDGE('',*,*,#576,.F.);
#769=ORIENTED_EDGE('',*,*,#571,.F.);
#770=ORIENTED_EDGE('',*,*,#577,.F.);
#771=ORIENTED_EDGE('',*,*,#578,.T.);
#772=ORIENTED_EDGE('',*,*,#579,.T.);
#773=ORIENTED_EDGE('',*,*,#575,.F.);
#774=ORIENTED_EDGE('',*,*,#580,.F.);
#775=ORIENTED_EDGE('',*,*,#581,.T.);
#776=ORIENTED_EDGE('',*,*,#582,.F.);
#777=ORIENTED_EDGE('',*,*,#578,.F.);
#778=ORIENTED_EDGE('',*,*,#583,.F.);
#779=ORIENTED_EDGE('',*,*,#584,.F.);
#780=ORIENTED_EDGE('',*,*,#585,.T.);
#781=ORIENTED_EDGE('',*,*,#581,.F.);
#782=ORIENTED_EDGE('',*,*,#586,.F.);
#783=ORIENTED_EDGE('',*,*,#584,.T.);
#784=ORIENTED_EDGE('',*,*,#587,.F.);
#785=ORIENTED_EDGE('',*,*,#556,.F.);
#786=ORIENTED_EDGE('',*,*,#588,.F.);
#787=ORIENTED_EDGE('',*,*,#563,.F.);
#788=ORIENTED_EDGE('',*,*,#562,.T.);
#789=ORIENTED_EDGE('',*,*,#560,.F.);
#790=ORIENTED_EDGE('',*,*,#537,.T.);
#791=ORIENTED_EDGE('',*,*,#567,.F.);
#792=ORIENTED_EDGE('',*,*,#565,.T.);
#793=ORIENTED_EDGE('',*,*,#549,.T.);
#794=ORIENTED_EDGE('',*,*,#589,.T.);
#795=ORIENTED_EDGE('',*,*,#590,.T.);
#796=ORIENTED_EDGE('',*,*,#591,.F.);
#797=ORIENTED_EDGE('',*,*,#569,.F.);
#798=ORIENTED_EDGE('',*,*,#592,.F.);
#799=ORIENTED_EDGE('',*,*,#558,.T.);
#800=ORIENTED_EDGE('',*,*,#593,.F.);
#801=ORIENTED_EDGE('',*,*,#531,.F.);
#802=ORIENTED_EDGE('',*,*,#593,.T.);
#803=ORIENTED_EDGE('',*,*,#557,.F.);
#804=ORIENTED_EDGE('',*,*,#587,.T.);
#805=ORIENTED_EDGE('',*,*,#586,.T.);
#806=ORIENTED_EDGE('',*,*,#583,.T.);
#807=ORIENTED_EDGE('',*,*,#580,.T.);
#808=ORIENTED_EDGE('',*,*,#577,.T.);
#809=ORIENTED_EDGE('',*,*,#570,.F.);
#810=ORIENTED_EDGE('',*,*,#591,.T.);
#811=ORIENTED_EDGE('',*,*,#594,.F.);
#812=ORIENTED_EDGE('',*,*,#528,.T.);
#813=ORIENTED_EDGE('',*,*,#491,.F.);
#814=ORIENTED_EDGE('',*,*,#489,.T.);
#815=ORIENTED_EDGE('',*,*,#488,.F.);
#816=ORIENTED_EDGE('',*,*,#498,.T.);
#817=ORIENTED_EDGE('',*,*,#497,.F.);
#818=ORIENTED_EDGE('',*,*,#526,.T.);
#819=ORIENTED_EDGE('',*,*,#532,.F.);
#820=ORIENTED_EDGE('',*,*,#595,.T.);
#821=ORIENTED_EDGE('',*,*,#596,.F.);
#822=ORIENTED_EDGE('',*,*,#589,.F.);
#823=ORIENTED_EDGE('',*,*,#568,.F.);
#824=ORIENTED_EDGE('',*,*,#539,.T.);
#825=ORIENTED_EDGE('',*,*,#559,.F.);
#826=ORIENTED_EDGE('',*,*,#592,.T.);
#827=ORIENTED_EDGE('',*,*,#530,.F.);
#828=ORIENTED_EDGE('',*,*,#524,.F.);
#829=ORIENTED_EDGE('',*,*,#495,.F.);
#830=ORIENTED_EDGE('',*,*,#476,.T.);
#831=ORIENTED_EDGE('',*,*,#493,.F.);
#832=ORIENTED_EDGE('',*,*,#527,.T.);
#833=ORIENTED_EDGE('',*,*,#485,.F.);
#834=ORIENTED_EDGE('',*,*,#551,.F.);
#835=ORIENTED_EDGE('',*,*,#597,.F.);
#836=ORIENTED_EDGE('',*,*,#529,.T.);
#837=ORIENTED_EDGE('',*,*,#594,.T.);
#838=ORIENTED_EDGE('',*,*,#590,.F.);
#839=ORIENTED_EDGE('',*,*,#596,.T.);
#840=ORIENTED_EDGE('',*,*,#595,.F.);
#841=ORIENTED_EDGE('',*,*,#598,.T.);
#842=ORIENTED_EDGE('',*,*,#597,.T.);
#843=ORIENTED_EDGE('',*,*,#598,.F.);
#844=ORIENTED_EDGE('',*,*,#599,.T.);
#845=ORIENTED_EDGE('',*,*,#600,.T.);
#846=ORIENTED_EDGE('',*,*,#601,.F.);
#847=ORIENTED_EDGE('',*,*,#573,.F.);
#848=ORIENTED_EDGE('',*,*,#602,.F.);
#849=ORIENTED_EDGE('',*,*,#554,.T.);
#850=ORIENTED_EDGE('',*,*,#603,.F.);
#851=ORIENTED_EDGE('',*,*,#604,.F.);
#852=ORIENTED_EDGE('',*,*,#604,.T.);
#853=ORIENTED_EDGE('',*,*,#605,.T.);
#854=ORIENTED_EDGE('',*,*,#606,.F.);
#855=ORIENTED_EDGE('',*,*,#607,.T.);
#856=ORIENTED_EDGE('',*,*,#608,.F.);
#857=ORIENTED_EDGE('',*,*,#609,.T.);
#858=ORIENTED_EDGE('',*,*,#610,.T.);
#859=ORIENTED_EDGE('',*,*,#609,.F.);
#860=ORIENTED_EDGE('',*,*,#600,.F.);
#861=ORIENTED_EDGE('',*,*,#611,.T.);
#862=ORIENTED_EDGE('',*,*,#612,.T.);
#863=ORIENTED_EDGE('',*,*,#613,.T.);
#864=ORIENTED_EDGE('',*,*,#614,.T.);
#865=ORIENTED_EDGE('',*,*,#606,.T.);
#866=ORIENTED_EDGE('',*,*,#615,.F.);
#867=ORIENTED_EDGE('',*,*,#505,.F.);
#868=ORIENTED_EDGE('',*,*,#616,.F.);
#869=ORIENTED_EDGE('',*,*,#515,.T.);
#870=ORIENTED_EDGE('',*,*,#617,.F.);
#871=ORIENTED_EDGE('',*,*,#612,.F.);
#872=ORIENTED_EDGE('',*,*,#616,.T.);
#873=ORIENTED_EDGE('',*,*,#611,.F.);
#874=ORIENTED_EDGE('',*,*,#599,.F.);
#875=ORIENTED_EDGE('',*,*,#572,.F.);
#876=ORIENTED_EDGE('',*,*,#576,.T.);
#877=ORIENTED_EDGE('',*,*,#579,.F.);
#878=ORIENTED_EDGE('',*,*,#582,.T.);
#879=ORIENTED_EDGE('',*,*,#585,.F.);
#880=ORIENTED_EDGE('',*,*,#588,.T.);
#881=ORIENTED_EDGE('',*,*,#555,.F.);
#882=ORIENTED_EDGE('',*,*,#602,.T.);
#883=ORIENTED_EDGE('',*,*,#607,.F.);
#884=ORIENTED_EDGE('',*,*,#614,.F.);
#885=ORIENTED_EDGE('',*,*,#504,.T.);
#886=ORIENTED_EDGE('',*,*,#500,.T.);
#887=ORIENTED_EDGE('',*,*,#519,.T.);
#888=ORIENTED_EDGE('',*,*,#520,.T.);
#889=ORIENTED_EDGE('',*,*,#516,.T.);
#890=ORIENTED_EDGE('',*,*,#610,.F.);
#891=ORIENTED_EDGE('',*,*,#617,.T.);
#892=ORIENTED_EDGE('',*,*,#514,.T.);
#893=ORIENTED_EDGE('',*,*,#523,.T.);
#894=ORIENTED_EDGE('',*,*,#506,.T.);
#895=ORIENTED_EDGE('',*,*,#615,.T.);
#896=ORIENTED_EDGE('',*,*,#605,.F.);
#897=ORIENTED_EDGE('',*,*,#603,.T.);
#898=ORIENTED_EDGE('',*,*,#553,.T.);
#899=ORIENTED_EDGE('',*,*,#535,.T.);
#900=ORIENTED_EDGE('',*,*,#574,.T.);
#901=ORIENTED_EDGE('',*,*,#601,.T.);
#902=ORIENTED_EDGE('',*,*,#613,.F.);
#903=ORIENTED_EDGE('',*,*,#521,.T.);
#904=ORIENTED_EDGE('',*,*,#547,.T.);
#905=ORIENTED_EDGE('',*,*,#608,.T.);
#906=CYLINDRICAL_SURFACE('',#999,5.);
#907=CYLINDRICAL_SURFACE('',#1008,2.5);
#908=CYLINDRICAL_SURFACE('',#1011,1.);
#909=CYLINDRICAL_SURFACE('',#1013,35.5);
#910=CYLINDRICAL_SURFACE('',#1016,35.5);
#911=CYLINDRICAL_SURFACE('',#1019,1.);
#912=CYLINDRICAL_SURFACE('',#1021,1.);
#913=CYLINDRICAL_SURFACE('',#1024,35.5);
#914=CYLINDRICAL_SURFACE('',#1033,35.5);
#915=CYLINDRICAL_SURFACE('',#1037,1.);
#916=CYLINDRICAL_SURFACE('',#1039,2.5);
#917=CYLINDRICAL_SURFACE('',#1041,5.);
#918=CYLINDRICAL_SURFACE('',#1045,5.);
#919=CYLINDRICAL_SURFACE('',#1048,5.);
#920=CYLINDRICAL_SURFACE('',#1051,5.);
#921=CYLINDRICAL_SURFACE('',#1060,2.5);
#922=CYLINDRICAL_SURFACE('',#1062,2.5);
#923=CYLINDRICAL_SURFACE('',#1065,70.);
#924=CYLINDRICAL_SURFACE('',#1071,1.);
#925=CYLINDRICAL_SURFACE('',#1074,1.);
#926=CYLINDRICAL_SURFACE('',#1076,35.);
#927=CYLINDRICAL_SURFACE('',#1082,2.);
#928=CYLINDRICAL_SURFACE('',#1086,1.);
#929=CYLINDRICAL_SURFACE('',#1090,1.);
#930=CYLINDRICAL_SURFACE('',#1102,5.);
#931=CYLINDRICAL_SURFACE('',#1103,2.5);
#932=CYLINDRICAL_SURFACE('',#1106,5.);
#933=CYLINDRICAL_SURFACE('',#1109,2.5);
#934=CYLINDRICAL_SURFACE('',#1112,5.);
#935=ADVANCED_FACE('',(#48),#906,.T.);
#936=ADVANCED_FACE('',(#49,#15),#27,.T.);
#937=ADVANCED_FACE('',(#50),#907,.F.);
#938=ADVANCED_FACE('',(#51),#28,.F.);
#939=ADVANCED_FACE('',(#52),#908,.T.);
#940=ADVANCED_FACE('',(#53),#909,.F.);
#941=ADVANCED_FACE('',(#54),#910,.F.);
#942=ADVANCED_FACE('',(#55),#911,.T.);
#943=ADVANCED_FACE('',(#56),#912,.T.);
#944=ADVANCED_FACE('',(#57),#913,.F.);
#945=ADVANCED_FACE('',(#58,#16),#29,.F.);
#946=ADVANCED_FACE('',(#59),#914,.F.);
#947=ADVANCED_FACE('',(#60),#30,.F.);
#948=ADVANCED_FACE('',(#61),#915,.T.);
#949=ADVANCED_FACE('',(#62),#916,.F.);
#950=ADVANCED_FACE('',(#63),#917,.T.);
#951=ADVANCED_FACE('',(#64),#31,.T.);
#952=ADVANCED_FACE('',(#65),#32,.T.);
#953=ADVANCED_FACE('',(#66),#918,.T.);
#954=ADVANCED_FACE('',(#67),#919,.T.);
#955=ADVANCED_FACE('',(#68),#920,.T.);
#956=ADVANCED_FACE('',(#69,#17),#33,.T.);
#957=ADVANCED_FACE('',(#70),#921,.F.);
#958=ADVANCED_FACE('',(#71),#922,.F.);
#959=ADVANCED_FACE('',(#72),#923,.F.);
#960=ADVANCED_FACE('',(#73),#924,.T.);
#961=ADVANCED_FACE('',(#74),#34,.F.);
#962=ADVANCED_FACE('',(#75),#925,.T.);
#963=ADVANCED_FACE('',(#76),#926,.F.);
#964=ADVANCED_FACE('',(#77),#927,.T.);
#965=ADVANCED_FACE('',(#78),#35,.F.);
#966=ADVANCED_FACE('',(#79),#928,.T.);
#967=ADVANCED_FACE('',(#80),#36,.F.);
#968=ADVANCED_FACE('',(#81),#929,.T.);
#969=ADVANCED_FACE('',(#82,#18),#37,.F.);
#970=ADVANCED_FACE('',(#83),#38,.T.);
#971=ADVANCED_FACE('',(#84),#39,.T.);
#972=ADVANCED_FACE('',(#85,#19),#40,.T.);
#973=ADVANCED_FACE('',(#86,#20,#21,#22),#41,.F.);
#974=ADVANCED_FACE('',(#87),#930,.T.);
#975=ADVANCED_FACE('',(#88),#931,.F.);
#976=ADVANCED_FACE('',(#89),#42,.T.);
#977=ADVANCED_FACE('',(#90),#43,.T.);
#978=ADVANCED_FACE('',(#91),#932,.T.);
#979=ADVANCED_FACE('',(#92),#933,.F.);
#980=ADVANCED_FACE('',(#93),#934,.T.);
#981=ADVANCED_FACE('',(#94),#44,.T.);
#982=ADVANCED_FACE('',(#95),#45,.T.);
#983=ADVANCED_FACE('',(#96,#23),#46,.T.);
#984=ADVANCED_FACE('',(#97,#24,#25,#26),#47,.F.);
#985=CLOSED_SHELL('',(#935,#936,#937,#938,#939,#940,#941,#942,#943,#944,
#945,#946,#947,#948,#949,#950,#951,#952,#953,#954,#955,#956,#957,#958,#959,
#960,#961,#962,#963,#964,#965,#966,#967,#968,#969,#970,#971,#972,#973,#974,
#975,#976,#977,#978,#979,#980,#981,#982,#983,#984));
#986=DERIVED_UNIT_ELEMENT(#988,1.);
#987=DERIVED_UNIT_ELEMENT(#1731,-3.);
#988=(
MASS_UNIT()
NAMED_UNIT(*)
SI_UNIT(.KILO.,.GRAM.)
);
#989=DERIVED_UNIT((#986,#987));
#990=MEASURE_REPRESENTATION_ITEM('density measure',
POSITIVE_RATIO_MEASURE(7850.),#989);
#991=PROPERTY_DEFINITION_REPRESENTATION(#996,#993);
#992=PROPERTY_DEFINITION_REPRESENTATION(#997,#994);
#993=REPRESENTATION('material name',(#995),#1728);
#994=REPRESENTATION('density',(#990),#1728);
#995=DESCRIPTIVE_REPRESENTATION_ITEM('Acier','Acier');
#996=PROPERTY_DEFINITION('material property','material name',#1738);
#997=PROPERTY_DEFINITION('material property','density of part',#1738);
#998=AXIS2_PLACEMENT_3D('',#1435,#1119,#1120);
#999=AXIS2_PLACEMENT_3D('',#1436,#1121,#1122);
#1000=AXIS2_PLACEMENT_3D('',#1439,#1123,#1124);
#1001=AXIS2_PLACEMENT_3D('',#1443,#1126,#1127);
#1002=AXIS2_PLACEMENT_3D('',#1445,#1129,#1130);
#1003=AXIS2_PLACEMENT_3D('',#1450,#1132,#1133);
#1004=AXIS2_PLACEMENT_3D('',#1451,#1134,#1135);
#1005=AXIS2_PLACEMENT_3D('',#1453,#1136,#1137);
#1006=AXIS2_PLACEMENT_3D('',#1454,#1138,#1139);
#1007=AXIS2_PLACEMENT_3D('',#1456,#1140,#1141);
#1008=AXIS2_PLACEMENT_3D('',#1457,#1142,#1143);
#1009=AXIS2_PLACEMENT_3D('',#1460,#1145,#1146);
#1010=AXIS2_PLACEMENT_3D('',#1461,#1147,#1148);
#1011=AXIS2_PLACEMENT_3D('',#1467,#1152,#1153);
#1012=AXIS2_PLACEMENT_3D('',#1469,#1154,#1155);
#1013=AXIS2_PLACEMENT_3D('',#1471,#1157,#1158);
#1014=AXIS2_PLACEMENT_3D('',#1473,#1159,#1160);
#1015=AXIS2_PLACEMENT_3D('',#1476,#1162,#1163);
#1016=AXIS2_PLACEMENT_3D('',#1477,#1164,#1165);
#1017=AXIS2_PLACEMENT_3D('',#1481,#1167,#1168);
#1018=AXIS2_PLACEMENT_3D('',#1484,#1170,#1171);
#1019=AXIS2_PLACEMENT_3D('',#1485,#1172,#1173);
#1020=AXIS2_PLACEMENT_3D('',#1486,#1174,#1175);
#1021=AXIS2_PLACEMENT_3D('',#1487,#1176,#1177);
#1022=AXIS2_PLACEMENT_3D('',#1492,#1179,#1180);
#1023=AXIS2_PLACEMENT_3D('',#1495,#1182,#1183);
#1024=AXIS2_PLACEMENT_3D('',#1496,#1184,#1185);
#1025=AXIS2_PLACEMENT_3D('',#1498,#1186,#1187);
#1026=AXIS2_PLACEMENT_3D('',#1500,#1188,#1189);
#1027=AXIS2_PLACEMENT_3D('',#1504,#1191,#1192);
#1028=AXIS2_PLACEMENT_3D('',#1506,#1194,#1195);
#1029=AXIS2_PLACEMENT_3D('',#1508,#1196,#1197);
#1030=AXIS2_PLACEMENT_3D('',#1510,#1198,#1199);
#1031=AXIS2_PLACEMENT_3D('',#1512,#1200,#1201);
#1032=AXIS2_PLACEMENT_3D('',#1515,#1203,#1204);
#1033=AXIS2_PLACEMENT_3D('',#1516,#1205,#1206);
#1034=AXIS2_PLACEMENT_3D('',#1520,#1208,#1209);
#1035=AXIS2_PLACEMENT_3D('',#1524,#1211,#1212);
#1036=AXIS2_PLACEMENT_3D('',#1526,#1214,#1215);
#1037=AXIS2_PLACEMENT_3D('',#1530,#1218,#1219);
#1038=AXIS2_PLACEMENT_3D('',#1531,#1220,#1221);
#1039=AXIS2_PLACEMENT_3D('',#1532,#1222,#1223);
#1040=AXIS2_PLACEMENT_3D('',#1534,#1224,#1225);
#1041=AXIS2_PLACEMENT_3D('',#1536,#1227,#1228);
#1042=AXIS2_PLACEMENT_3D('',#1537,#1229,#1230);
#1043=AXIS2_PLACEMENT_3D('',#1538,#1231,#1232);
#1044=AXIS2_PLACEMENT_3D('',#1544,#1236,#1237);
#1045=AXIS2_PLACEMENT_3D('',#1550,#1241,#1242);
#1046=AXIS2_PLACEMENT_3D('',#1552,#1243,#1244);
#1047=AXIS2_PLACEMENT_3D('',#1555,#1246,#1247);
#1048=AXIS2_PLACEMENT_3D('',#1556,#1248,#1249);
#1049=AXIS2_PLACEMENT_3D('',#1559,#1250,#1251);
#1050=AXIS2_PLACEMENT_3D('',#1563,#1253,#1254);
#1051=AXIS2_PLACEMENT_3D('',#1565,#1256,#1257);
#1052=AXIS2_PLACEMENT_3D('',#1568,#1258,#1259);
#1053=AXIS2_PLACEMENT_3D('',#1572,#1261,#1262);
#1054=AXIS2_PLACEMENT_3D('',#1574,#1264,#1265);
#1055=AXIS2_PLACEMENT_3D('',#1576,#1266,#1267);
#1056=AXIS2_PLACEMENT_3D('',#1578,#1268,#1269);
#1057=AXIS2_PLACEMENT_3D('',#1580,#1270,#1271);
#1058=AXIS2_PLACEMENT_3D('',#1583,#1273,#1274);
#1059=AXIS2_PLACEMENT_3D('',#1585,#1275,#1276);
#1060=AXIS2_PLACEMENT_3D('',#1586,#1277,#1278);
#1061=AXIS2_PLACEMENT_3D('',#1588,#1279,#1280);
#1062=AXIS2_PLACEMENT_3D('',#1590,#1282,#1283);
#1063=AXIS2_PLACEMENT_3D('',#1592,#1284,#1285);
#1064=AXIS2_PLACEMENT_3D('',#1595,#1287,#1288);
#1065=AXIS2_PLACEMENT_3D('',#1596,#1289,#1290);
#1066=AXIS2_PLACEMENT_3D('',#1600,#1292,#1293);
#1067=AXIS2_PLACEMENT_3D('',#1604,#1295,#1296);
#1068=AXIS2_PLACEMENT_3D('',#1608,#1298,#1299);
#1069=AXIS2_PLACEMENT_3D('',#1611,#1301,#1302);
#1070=AXIS2_PLACEMENT_3D('',#1612,#1303,#1304);
#1071=AXIS2_PLACEMENT_3D('',#1613,#1305,#1306);
#1072=AXIS2_PLACEMENT_3D('',#1616,#1308,#1309);
#1073=AXIS2_PLACEMENT_3D('',#1617,#1310,#1311);
#1074=AXIS2_PLACEMENT_3D('',#1621,#1314,#1315);
#1075=AXIS2_PLACEMENT_3D('',#1623,#1316,#1317);
#1076=AXIS2_PLACEMENT_3D('',#1625,#1319,#1320);
#1077=AXIS2_PLACEMENT_3D('',#1626,#1321,#1322);
#1078=AXIS2_PLACEMENT_3D('',#1628,#1323,#1324);
#1079=AXIS2_PLACEMENT_3D('',#1632,#1326,#1327);
#1080=AXIS2_PLACEMENT_3D('',#1636,#1329,#1330);
#1081=AXIS2_PLACEMENT_3D('',#1639,#1332,#1333);
#1082=AXIS2_PLACEMENT_3D('',#1640,#1334,#1335);
#1083=AXIS2_PLACEMENT_3D('',#1644,#1337,#1338);
#1084=AXIS2_PLACEMENT_3D('',#1645,#1339,#1340);
#1085=AXIS2_PLACEMENT_3D('',#1646,#1341,#1342);
#1086=AXIS2_PLACEMENT_3D('',#1652,#1346,#1347);
#1087=AXIS2_PLACEMENT_3D('',#1656,#1349,#1350);
#1088=AXIS2_PLACEMENT_3D('',#1657,#1351,#1352);
#1089=AXIS2_PLACEMENT_3D('',#1658,#1353,#1354);
#1090=AXIS2_PLACEMENT_3D('',#1664,#1358,#1359);
#1091=AXIS2_PLACEMENT_3D('',#1665,#1360,#1361);
#1092=AXIS2_PLACEMENT_3D('',#1666,#1362,#1363);
#1093=AXIS2_PLACEMENT_3D('',#1667,#1364,#1365);
#1094=AXIS2_PLACEMENT_3D('',#1668,#1366,#1367);
#1095=AXIS2_PLACEMENT_3D('',#1674,#1371,#1372);
#1096=AXIS2_PLACEMENT_3D('',#1677,#1375,#1376);
#1097=AXIS2_PLACEMENT_3D('',#1678,#1377,#1378);
#1098=AXIS2_PLACEMENT_3D('',#1680,#1379,#1380);
#1099=AXIS2_PLACEMENT_3D('',#1681,#1381,#1382);
#1100=AXIS2_PLACEMENT_3D('',#1682,#1383,#1384);
#1101=AXIS2_PLACEMENT_3D('',#1684,#1385,#1386);
#1102=AXIS2_PLACEMENT_3D('',#1685,#1387,#1388);
#1103=AXIS2_PLACEMENT_3D('',#1686,#1389,#1390);
#1104=AXIS2_PLACEMENT_3D('',#1688,#1392,#1393);
#1105=AXIS2_PLACEMENT_3D('',#1694,#1397,#1398);
#1106=AXIS2_PLACEMENT_3D('',#1700,#1402,#1403);
#1107=AXIS2_PLACEMENT_3D('',#1702,#1404,#1405);
#1108=AXIS2_PLACEMENT_3D('',#1705,#1407,#1408);
#1109=AXIS2_PLACEMENT_3D('',#1706,#1409,#1410);
#1110=AXIS2_PLACEMENT_3D('',#1708,#1411,#1412);
#1111=AXIS2_PLACEMENT_3D('',#1711,#1414,#1415);
#1112=AXIS2_PLACEMENT_3D('',#1712,#1416,#1417);
#1113=AXIS2_PLACEMENT_3D('',#1714,#1418,#1419);
#1114=AXIS2_PLACEMENT_3D('',#1717,#1421,#1422);
#1115=AXIS2_PLACEMENT_3D('',#1718,#1423,#1424);
#1116=AXIS2_PLACEMENT_3D('',#1721,#1427,#1428);
#1117=AXIS2_PLACEMENT_3D('',#1724,#1431,#1432);
#1118=AXIS2_PLACEMENT_3D('',#1725,#1433,#1434);
#1119=DIRECTION('axis',(0.,0.,1.));
#1120=DIRECTION('refdir',(1.,0.,0.));
#1121=DIRECTION('center_axis',(0.,0.,1.));
#1122=DIRECTION('ref_axis',(-0.0871557427476582,0.996194698091746,0.));
#1123=DIRECTION('center_axis',(0.,0.,1.));
#1124=DIRECTION('ref_axis',(0.763534038115383,-0.645767584072796,0.));
#1125=DIRECTION('',(0.,0.,1.));
#1126=DIRECTION('center_axis',(0.,0.,-1.));
#1127=DIRECTION('ref_axis',(-0.999992408809688,-0.00389645005081513,0.));
#1128=DIRECTION('',(0.,0.,1.));
#1129=DIRECTION('center_axis',(0.,0.,1.));
#1130=DIRECTION('ref_axis',(-0.996194698091746,-0.0871557427476582,0.));
#1131=DIRECTION('',(0.866025403784449,0.499999999999982,0.));
#1132=DIRECTION('center_axis',(0.,0.,-1.));
#1133=DIRECTION('ref_axis',(-0.500000000000019,0.866025403784428,0.));
#1134=DIRECTION('center_axis',(0.,0.,1.));
#1135=DIRECTION('ref_axis',(-0.763534038115383,0.645767584072797,0.));
#1136=DIRECTION('center_axis',(0.,0.,1.));
#1137=DIRECTION('ref_axis',(0.948799925425774,-0.315877668587139,0.));
#1138=DIRECTION('center_axis',(0.,0.,-1.));
#1139=DIRECTION('ref_axis',(-0.948799925425774,0.315877668587139,0.));
#1140=DIRECTION('center_axis',(0.,0.,-1.));
#1141=DIRECTION('ref_axis',(0.0871557427476582,-0.996194698091746,0.));
#1142=DIRECTION('center_axis',(0.,0.,-1.));
#1143=DIRECTION('ref_axis',(0.0871557427476582,-0.996194698091746,0.));
#1144=DIRECTION('',(0.,0.,-1.));
#1145=DIRECTION('center_axis',(0.,0.,-1.));
#1146=DIRECTION('ref_axis',(0.0871557427476582,-0.996194698091746,0.));
#1147=DIRECTION('center_axis',(0.499999999999982,-0.866025403784449,0.));
#1148=DIRECTION('ref_axis',(0.866025403784449,0.499999999999982,0.));
#1149=DIRECTION('',(0.,0.,1.));
#1150=DIRECTION('',(0.,0.,-1.));
#1151=DIRECTION('',(0.866025403784449,0.499999999999982,0.));
#1152=DIRECTION('center_axis',(0.,0.,1.));
#1153=DIRECTION('ref_axis',(0.883669135578962,-0.468112015253967,0.));
#1154=DIRECTION('center_axis',(0.,0.,1.));
#1155=DIRECTION('ref_axis',(0.883669135578962,-0.468112015253967,0.));
#1156=DIRECTION('',(0.,0.,1.));
#1157=DIRECTION('center_axis',(0.,0.,1.));
#1158=DIRECTION('ref_axis',(-0.0871557427476582,0.996194698091746,0.));
#1159=DIRECTION('center_axis',(0.,0.,1.));
#1160=DIRECTION('ref_axis',(-0.883669135578962,0.468112015253967,0.));
#1161=DIRECTION('',(0.,0.,1.));
#1162=DIRECTION('center_axis',(0.,0.,-1.));
#1163=DIRECTION('ref_axis',(-0.999992408809688,-0.00389645005081514,0.));
#1164=DIRECTION('center_axis',(0.,0.,1.));
#1165=DIRECTION('ref_axis',(-0.0871557427476582,0.996194698091746,0.));
#1166=DIRECTION('',(1.80505340581506E-14,5.86397685869435E-14,-1.));
#1167=DIRECTION('center_axis',(0.,0.,-1.));
#1168=DIRECTION('ref_axis',(0.999992408809688,0.00389645005081514,0.));
#1169=DIRECTION('',(0.,0.,1.));
#1170=DIRECTION('center_axis',(0.,0.,1.));
#1171=DIRECTION('ref_axis',(0.763534038115383,-0.645767584072797,0.));
#1172=DIRECTION('center_axis',(0.,0.,-1.));
#1173=DIRECTION('ref_axis',(-0.948799925425774,0.315877668587139,0.));
#1174=DIRECTION('center_axis',(0.,0.,1.));
#1175=DIRECTION('ref_axis',(-0.500000000000019,0.866025403784428,0.));
#1176=DIRECTION('center_axis',(0.,0.,-1.));
#1177=DIRECTION('ref_axis',(-0.948799925425774,0.315877668587139,0.));
#1178=DIRECTION('',(2.70749986474863E-14,1.6633893318199E-14,-1.));
#1179=DIRECTION('center_axis',(0.,0.,-1.));
#1180=DIRECTION('ref_axis',(-0.948799925425774,0.315877668587139,0.));
#1181=DIRECTION('',(-1.5573418862586E-14,-8.69533248322121E-14,-1.));
#1182=DIRECTION('center_axis',(0.,0.,1.));
#1183=DIRECTION('ref_axis',(-0.499999999999982,0.866025403784449,0.));
#1184=DIRECTION('center_axis',(0.,0.,1.));
#1185=DIRECTION('ref_axis',(-0.0871557427476582,0.996194698091746,0.));
#1186=DIRECTION('center_axis',(0.,0.,-1.));
#1187=DIRECTION('ref_axis',(0.999992408809688,0.00389645005081514,0.));
#1188=DIRECTION('center_axis',(0.,0.,1.));
#1189=DIRECTION('ref_axis',(0.763534038115383,-0.645767584072797,0.));
#1190=DIRECTION('',(0.,0.,1.));
#1191=DIRECTION('center_axis',(0.,0.,-1.));
#1192=DIRECTION('ref_axis',(0.999992408809688,0.00389645005081514,0.));
#1193=DIRECTION('',(0.,0.,1.));
#1194=DIRECTION('center_axis',(0.,0.,1.));
#1195=DIRECTION('ref_axis',(-0.996194698091746,-0.0871557427476582,0.));
#1196=DIRECTION('center_axis',(0.,0.,1.));
#1197=DIRECTION('ref_axis',(0.763534038115383,-0.645767584072796,0.));
#1198=DIRECTION('center_axis',(0.,0.,-1.));
#1199=DIRECTION('ref_axis',(-0.883669135578962,0.468112015253967,0.));
#1200=DIRECTION('center_axis',(0.,0.,1.));
#1201=DIRECTION('ref_axis',(0.883669135578962,-0.468112015253967,0.));
#1202=DIRECTION('',(0.866025403784449,0.499999999999982,0.));
#1203=DIRECTION('center_axis',(0.,0.,-1.));
#1204=DIRECTION('ref_axis',(0.0871557427476582,-0.996194698091746,0.));
#1205=DIRECTION('center_axis',(0.,0.,1.));
#1206=DIRECTION('ref_axis',(-0.0871557427476582,0.996194698091746,0.));
#1207=DIRECTION('',(0.,0.,1.));
#1208=DIRECTION('center_axis',(0.,0.,-1.));
#1209=DIRECTION('ref_axis',(-0.999992408809688,-0.00389645005081514,0.));
#1210=DIRECTION('',(0.,0.,1.));
#1211=DIRECTION('center_axis',(0.,0.,1.));
#1212=DIRECTION('ref_axis',(-0.883669135578962,0.468112015253967,0.));
#1213=DIRECTION('',(0.,0.,1.));
#1214=DIRECTION('center_axis',(0.499999999999982,-0.866025403784449,0.));
#1215=DIRECTION('ref_axis',(0.866025403784449,0.499999999999982,0.));
#1216=DIRECTION('',(1.06175835919757E-14,9.28918198336737E-16,1.));
#1217=DIRECTION('',(0.866025403784449,0.499999999999982,0.));
#1218=DIRECTION('center_axis',(0.,0.,1.));
#1219=DIRECTION('ref_axis',(0.883669135578962,-0.468112015253967,0.));
#1220=DIRECTION('center_axis',(0.,0.,-1.));
#1221=DIRECTION('ref_axis',(-0.499999999999982,0.866025403784449,0.));
#1222=DIRECTION('center_axis',(0.,0.,-1.));
#1223=DIRECTION('ref_axis',(0.0871557427476582,-0.996194698091746,0.));
#1224=DIRECTION('center_axis',(0.,0.,-1.));
#1225=DIRECTION('ref_axis',(0.0871557427476582,-0.996194698091746,0.));
#1226=DIRECTION('',(0.,0.,-1.));
#1227=DIRECTION('center_axis',(0.,0.,1.));
#1228=DIRECTION('ref_axis',(-0.0871557427476582,0.996194698091746,0.));
#1229=DIRECTION('center_axis',(0.,0.,1.));
#1230=DIRECTION('ref_axis',(0.763534038115383,-0.645767584072796,0.));
#1231=DIRECTION('center_axis',(-0.933924122948933,0.357471303147633,0.));
#1232=DIRECTION('ref_axis',(-0.357471303147633,-0.933924122948933,0.));
#1233=DIRECTION('',(-0.357471303147633,-0.933924122948933,0.));
#1234=DIRECTION('',(0.,0.,1.));
#1235=DIRECTION('',(-0.357471303147633,-0.933924122948933,0.));
#1236=DIRECTION('center_axis',(0.919976752778223,-0.391972925528838,0.));
#1237=DIRECTION('ref_axis',(0.391972925528838,0.919976752778223,0.));
#1238=DIRECTION('',(-0.391972925528838,-0.919976752778223,0.));
#1239=DIRECTION('',(0.391972925528838,0.919976752778223,0.));
#1240=DIRECTION('',(0.,0.,1.));
#1241=DIRECTION('center_axis',(0.,0.,1.));
#1242=DIRECTION('ref_axis',(0.,1.,0.));
#1243=DIRECTION('center_axis',(0.,0.,1.));
#1244=DIRECTION('ref_axis',(-1.,0.,0.));
#1245=DIRECTION('',(0.,0.,1.));
#1246=DIRECTION('center_axis',(0.,0.,-1.));
#1247=DIRECTION('ref_axis',(-1.,0.,0.));
#1248=DIRECTION('center_axis',(0.,0.,1.));
#1249=DIRECTION('ref_axis',(0.0913917221928412,-0.995815019526532,0.));
#1250=DIRECTION('center_axis',(0.,0.,-1.));
#1251=DIRECTION('ref_axis',(0.927024810886964,0.374999999999985,0.));
#1252=DIRECTION('',(0.,0.,1.));
#1253=DIRECTION('center_axis',(0.,0.,1.));
#1254=DIRECTION('ref_axis',(-0.979795897113272,0.199999999999994,0.));
#1255=DIRECTION('',(0.,0.,1.));
#1256=DIRECTION('center_axis',(0.,0.,1.));
#1257=DIRECTION('ref_axis',(0.0913917221928412,-0.995815019526532,0.));
#1258=DIRECTION('center_axis',(0.,0.,1.));
#1259=DIRECTION('ref_axis',(-0.979795897113272,0.199999999999994,0.));
#1260=DIRECTION('',(0.,0.,1.));
#1261=DIRECTION('center_axis',(0.,0.,-1.));
#1262=DIRECTION('ref_axis',(0.927024810886964,0.374999999999985,0.));
#1263=DIRECTION('',(0.,0.,1.));
#1264=DIRECTION('center_axis',(0.,0.,-1.));
#1265=DIRECTION('ref_axis',(0.,1.,0.));
#1266=DIRECTION('center_axis',(0.,0.,-1.));
#1267=DIRECTION('ref_axis',(-0.927024810886964,-0.374999999999985,0.));
#1268=DIRECTION('center_axis',(0.,0.,-1.));
#1269=DIRECTION('ref_axis',(0.996541405889814,-0.0830976915873912,0.));
#1270=DIRECTION('center_axis',(0.,0.,1.));
#1271=DIRECTION('ref_axis',(-0.996541405889814,0.0830976915873912,0.));
#1272=DIRECTION('',(0.953979002880507,0.299873410063502,0.));
#1273=DIRECTION('center_axis',(0.,0.,1.));
#1274=DIRECTION('ref_axis',(0.299873410063502,-0.953979002880507,0.));
#1275=DIRECTION('center_axis',(0.,0.,-1.));
#1276=DIRECTION('ref_axis',(0.,-1.,0.));
#1277=DIRECTION('center_axis',(0.,0.,-1.));
#1278=DIRECTION('ref_axis',(0.,-1.,0.));
#1279=DIRECTION('center_axis',(0.,0.,-1.));
#1280=DIRECTION('ref_axis',(0.,-1.,0.));
#1281=DIRECTION('',(0.,0.,-1.));
#1282=DIRECTION('center_axis',(0.,0.,-1.));
#1283=DIRECTION('ref_axis',(0.,-1.,0.));
#1284=DIRECTION('center_axis',(0.,0.,-1.));
#1285=DIRECTION('ref_axis',(0.,-1.,0.));
#1286=DIRECTION('',(0.,0.,-1.));
#1287=DIRECTION('center_axis',(0.,0.,-1.));
#1288=DIRECTION('ref_axis',(0.,-1.,0.));
#1289=DIRECTION('center_axis',(0.,0.,1.));
#1290=DIRECTION('ref_axis',(0.,1.,0.));
#1291=DIRECTION('',(0.,0.,1.));
#1292=DIRECTION('center_axis',(0.,0.,-1.));
#1293=DIRECTION('ref_axis',(0.979795897113272,0.199999999999994,0.));
#1294=DIRECTION('',(0.,0.,1.));
#1295=DIRECTION('center_axis',(0.,0.,-1.));
#1296=DIRECTION('ref_axis',(0.979795897113272,0.199999999999994,0.));
#1297=DIRECTION('',(0.,0.,-1.));
#1298=DIRECTION('center_axis',(0.,0.,1.));
#1299=DIRECTION('ref_axis',(0.999905217493682,0.0137679348092997,0.));
#1300=DIRECTION('',(0.,0.,1.));
#1301=DIRECTION('center_axis',(0.,0.,-1.));
#1302=DIRECTION('ref_axis',(0.979795897113272,0.199999999999994,0.));
#1303=DIRECTION('center_axis',(0.,0.,1.));
#1304=DIRECTION('ref_axis',(0.979795897113272,-0.199999999999994,0.));
#1305=DIRECTION('center_axis',(0.,0.,1.));
#1306=DIRECTION('ref_axis',(-0.996541405889814,0.0830976915873912,0.));
#1307=DIRECTION('',(0.,0.,1.));
#1308=DIRECTION('center_axis',(0.,0.,-1.));
#1309=DIRECTION('ref_axis',(0.299873410063502,-0.953979002880507,0.));
#1310=DIRECTION('center_axis',(-0.299873410063502,0.953979002880507,0.));
#1311=DIRECTION('ref_axis',(0.953979002880507,0.299873410063502,0.));
#1312=DIRECTION('',(0.953979002880507,0.299873410063502,0.));
#1313=DIRECTION('',(0.,0.,-1.));
#1314=DIRECTION('center_axis',(0.,0.,-1.));
#1315=DIRECTION('ref_axis',(0.991771323890745,0.128022033681706,0.));
#1316=DIRECTION('center_axis',(0.,0.,-1.));
#1317=DIRECTION('ref_axis',(0.991771323890746,0.128022033681693,0.));
#1318=DIRECTION('',(0.,0.,-1.));
#1319=DIRECTION('center_axis',(0.,0.,1.));
#1320=DIRECTION('ref_axis',(0.,1.,0.));
#1321=DIRECTION('center_axis',(0.,0.,1.));
#1322=DIRECTION('ref_axis',(-0.991771323890746,-0.128022033681693,0.));
#1323=DIRECTION('center_axis',(0.,0.,-1.));
#1324=DIRECTION('ref_axis',(-0.927024810886964,-0.374999999999985,0.));
#1325=DIRECTION('',(0.,0.,1.));
#1326=DIRECTION('center_axis',(0.,0.,1.));
#1327=DIRECTION('ref_axis',(-0.927024810886964,0.374999999999985,0.));
#1328=DIRECTION('',(0.,0.,1.));
#1329=DIRECTION('center_axis',(0.,0.,-1.));
#1330=DIRECTION('ref_axis',(-0.999189782316989,0.0402464770300296,0.));
#1331=DIRECTION('',(0.,0.,1.));
#1332=DIRECTION('center_axis',(0.,0.,-1.));
#1333=DIRECTION('ref_axis',(-0.927024810886964,-0.374999999999985,0.));
#1334=DIRECTION('center_axis',(0.,0.,1.));
#1335=DIRECTION('ref_axis',(0.999189782316989,-0.0402464770300296,0.));
#1336=DIRECTION('',(0.,0.,1.));
#1337=DIRECTION('center_axis',(0.,0.,1.));
#1338=DIRECTION('ref_axis',(0.999189782316989,-0.0402464770300296,0.));
#1339=DIRECTION('center_axis',(0.,0.,-1.));
#1340=DIRECTION('ref_axis',(0.906307787036659,0.422618261740681,0.));
#1341=DIRECTION('center_axis',(-0.906307787036659,-0.422618261740681,0.));
#1342=DIRECTION('ref_axis',(0.422618261740681,-0.906307787036659,0.));
#1343=DIRECTION('',(0.,0.,1.));
#1344=DIRECTION('',(0.422618261740681,-0.906307787036659,0.));
#1345=DIRECTION('',(0.422618261740681,-0.906307787036659,0.));
#1346=DIRECTION('center_axis',(0.,0.,1.));
#1347=DIRECTION('ref_axis',(0.906307787036641,0.422618261740719,0.));
#1348=DIRECTION('',(0.,0.,1.));
#1349=DIRECTION('center_axis',(0.,0.,1.));
#1350=DIRECTION('ref_axis',(0.906307787036659,0.422618261740681,0.));
#1351=DIRECTION('center_axis',(0.,0.,-1.));
#1352=DIRECTION('ref_axis',(-0.82903757255505,0.559192903470734,0.));
#1353=DIRECTION('center_axis',(0.82903757255505,-0.559192903470734,0.));
#1354=DIRECTION('ref_axis',(0.559192903470734,0.82903757255505,0.));
#1355=DIRECTION('',(0.,0.,-1.));
#1356=DIRECTION('',(0.559192903470734,0.82903757255505,0.));
#1357=DIRECTION('',(0.559192903470734,0.82903757255505,0.));
#1358=DIRECTION('center_axis',(0.,0.,-1.));
#1359=DIRECTION('ref_axis',(-0.999905217493681,-0.0137679348093297,0.));
#1360=DIRECTION('center_axis',(0.,0.,-1.));
#1361=DIRECTION('ref_axis',(-0.999905217493681,-0.0137679348093297,0.));
#1362=DIRECTION('center_axis',(0.,0.,1.));
#1363=DIRECTION('ref_axis',(-0.82903757255505,0.559192903470734,0.));
#1364=DIRECTION('center_axis',(0.,0.,-1.));
#1365=DIRECTION('ref_axis',(0.,1.,0.));
#1366=DIRECTION('center_axis',(0.99983074226455,-0.0183980113794447,0.));
#1367=DIRECTION('ref_axis',(0.0183980113794447,0.99983074226455,0.));
#1368=DIRECTION('',(0.0183980113794447,0.99983074226455,0.));
#1369=DIRECTION('',(0.,0.,1.));
#1370=DIRECTION('',(0.0183980113794447,0.99983074226455,0.));
#1371=DIRECTION('center_axis',(-0.99998584594033,-0.00532051867798434,0.));
#1372=DIRECTION('ref_axis',(0.00532051867798434,-0.99998584594033,0.));
#1373=DIRECTION('',(-0.00532051867798434,0.99998584594033,0.));
#1374=DIRECTION('',(0.00532051867798434,-0.99998584594033,0.));
#1375=DIRECTION('center_axis',(0.,0.,1.));
#1376=DIRECTION('ref_axis',(0.,-1.,0.));
#1377=DIRECTION('center_axis',(0.,0.,-1.));
#1378=DIRECTION('ref_axis',(-1.,0.,0.));
#1379=DIRECTION('center_axis',(0.,0.,-1.));
#1380=DIRECTION('ref_axis',(0.,-1.,0.));
#1381=DIRECTION('center_axis',(0.,0.,1.));
#1382=DIRECTION('ref_axis',(0.,1.,0.));
#1383=DIRECTION('center_axis',(0.,0.,1.));
#1384=DIRECTION('ref_axis',(-1.,0.,0.));
#1385=DIRECTION('center_axis',(0.,0.,-1.));
#1386=DIRECTION('ref_axis',(0.,-1.,0.));
#1387=DIRECTION('center_axis',(0.,0.,1.));
#1388=DIRECTION('ref_axis',(0.,1.,0.));
#1389=DIRECTION('center_axis',(0.,0.,-1.));
#1390=DIRECTION('ref_axis',(0.,-1.,0.));
#1391=DIRECTION('',(0.,0.,-1.));
#1392=DIRECTION('center_axis',(0.99983074226455,-0.0183980113794447,0.));
#1393=DIRECTION('ref_axis',(0.0183980113794447,0.99983074226455,0.));
#1394=DIRECTION('',(0.0183980113794447,0.99983074226455,0.));
#1395=DIRECTION('',(0.,0.,1.));
#1396=DIRECTION('',(0.0183980113794447,0.99983074226455,0.));
#1397=DIRECTION('center_axis',(-0.99998584594033,-0.00532051867798434,0.));
#1398=DIRECTION('ref_axis',(0.00532051867798434,-0.99998584594033,0.));
#1399=DIRECTION('',(-0.00532051867798434,0.99998584594033,0.));
#1400=DIRECTION('',(0.00532051867798434,-0.99998584594033,0.));
#1401=DIRECTION('',(0.,0.,1.));
#1402=DIRECTION('center_axis',(0.,0.,1.));
#1403=DIRECTION('ref_axis',(0.,1.,0.));
#1404=DIRECTION('center_axis',(0.,0.,-1.));
#1405=DIRECTION('ref_axis',(-1.,0.,0.));
#1406=DIRECTION('',(0.,0.,1.));
#1407=DIRECTION('center_axis',(0.,0.,1.));
#1408=DIRECTION('ref_axis',(-1.,0.,0.));
#1409=DIRECTION('center_axis',(0.,0.,-1.));
#1410=DIRECTION('ref_axis',(0.,-1.,0.));
#1411=DIRECTION('center_axis',(0.,0.,-1.));
#1412=DIRECTION('ref_axis',(0.,-1.,0.));
#1413=DIRECTION('',(0.,0.,-1.));
#1414=DIRECTION('center_axis',(0.,0.,-1.));
#1415=DIRECTION('ref_axis',(0.,-1.,0.));
#1416=DIRECTION('center_axis',(0.,0.,1.));
#1417=DIRECTION('ref_axis',(0.,1.,0.));
#1418=DIRECTION('center_axis',(0.,0.,1.));
#1419=DIRECTION('ref_axis',(-1.,0.,0.));
#1420=DIRECTION('',(0.,0.,1.));
#1421=DIRECTION('center_axis',(0.,0.,-1.));
#1422=DIRECTION('ref_axis',(-1.,0.,0.));
#1423=DIRECTION('center_axis',(-0.933924122948933,0.357471303147633,0.));
#1424=DIRECTION('ref_axis',(-0.357471303147633,-0.933924122948933,0.));
#1425=DIRECTION('',(-0.357471303147633,-0.933924122948933,0.));
#1426=DIRECTION('',(-0.357471303147633,-0.933924122948933,0.));
#1427=DIRECTION('center_axis',(0.919976752778223,-0.391972925528838,0.));
#1428=DIRECTION('ref_axis',(0.391972925528838,0.919976752778223,0.));
#1429=DIRECTION('',(-0.391972925528838,-0.919976752778223,0.));
#1430=DIRECTION('',(0.391972925528838,0.919976752778223,0.));
#1431=DIRECTION('center_axis',(0.,0.,-1.));
#1432=DIRECTION('ref_axis',(-1.,0.,0.));
#1433=DIRECTION('center_axis',(0.,0.,-1.));
#1434=DIRECTION('ref_axis',(-1.,0.,0.));
#1435=CARTESIAN_POINT('',(0.,0.,0.));
#1436=CARTESIAN_POINT('Origin',(15.3909064496552,72.2861679353697,10.5));
#1437=CARTESIAN_POINT('',(19.2085766402277,69.0573300150048,-5.1));
#1438=CARTESIAN_POINT('',(10.390944405606,72.2666856851164,-5.1));
#1439=CARTESIAN_POINT('Origin',(15.3909064496552,72.2861679353697,-5.1));
#1440=CARTESIAN_POINT('',(19.2085766402277,69.0573300150048,-10.5));
#1441=CARTESIAN_POINT('',(19.2085766402277,69.0573300150048,-10.5));
#1442=CARTESIAN_POINT('',(10.390944405606,72.2666856851164,-10.5));
#1443=CARTESIAN_POINT('Origin',(15.3909064496552,72.2861679353697,-10.5));
#1444=CARTESIAN_POINT('',(10.390944405606,72.2666856851164,-10.5));
#1445=CARTESIAN_POINT('Origin',(8.42901471896611,16.0889336106081,-5.1));
#1446=CARTESIAN_POINT('',(9.02241117090349,61.4648522086605,-5.1));
#1447=CARTESIAN_POINT('',(13.5601115446964,64.0846947409723,-5.1));
#1448=CARTESIAN_POINT('',(9.02241117090349,61.4648522086605,-5.1));
#1449=CARTESIAN_POINT('',(14.9437806802781,62.7505573219343,-5.1));
#1450=CARTESIAN_POINT('Origin',(14.060111544697,63.2186693371845,-5.1));
#1451=CARTESIAN_POINT('Origin',(46.3140349933272,46.1325807804163,-5.1));
#1452=CARTESIAN_POINT('',(8.57361124547745,60.9147044734683,-5.1));
#1453=CARTESIAN_POINT('Origin',(-25.1087861071348,72.1283617083039,-5.1));
#1454=CARTESIAN_POINT('Origin',(9.52241117090308,60.5988268048726,-5.1));
#1455=CARTESIAN_POINT('',(15.173017092786,74.7766546805991,-5.1));
#1456=CARTESIAN_POINT('Origin',(15.3909064496552,72.2861679353697,-5.1));
#1457=CARTESIAN_POINT('Origin',(15.3909064496552,72.2861679353697,-10.5));
#1458=CARTESIAN_POINT('',(15.173017092786,74.7766546805991,-10.5));
#1459=CARTESIAN_POINT('',(15.173017092786,74.7766546805991,-10.5));
#1460=CARTESIAN_POINT('Origin',(15.3909064496552,72.2861679353697,-10.5));
#1461=CARTESIAN_POINT('Origin',(8.69093996801183,61.2734772204452,-5.1));
#1462=CARTESIAN_POINT('',(13.5601115446964,64.0846947409723,-4.6));
#1463=CARTESIAN_POINT('',(13.5601115446964,64.0846947409723,-5.1));
#1464=CARTESIAN_POINT('',(9.02241117090349,61.4648522086605,-4.6));
#1465=CARTESIAN_POINT('',(9.02241117090349,61.4648522086605,-4.6));
#1466=CARTESIAN_POINT('',(9.02241117090349,61.4648522086605,-4.6));
#1467=CARTESIAN_POINT('Origin',(14.060111544697,63.2186693371845,-37.8756));
#1468=CARTESIAN_POINT('',(14.9437806802781,62.7505573219343,-4.6));
#1469=CARTESIAN_POINT('Origin',(14.060111544697,63.2186693371845,-4.6));
#1470=CARTESIAN_POINT('',(14.9437806802781,62.7505573219343,-5.1));
#1471=CARTESIAN_POINT('Origin',(46.3140349933272,46.1325807804163,10.5));
#1472=CARTESIAN_POINT('',(10.8143044805894,45.9942568036136,-4.6));
#1473=CARTESIAN_POINT('Origin',(46.3140349933272,46.1325807804163,-4.6));
#1474=CARTESIAN_POINT('',(10.8143044805894,45.9942568036136,-10.5));
#1475=CARTESIAN_POINT('',(10.8143044805894,45.9942568036136,-10.5));
#1476=CARTESIAN_POINT('Origin',(46.3140349933272,46.1325807804163,-10.5));
#1477=CARTESIAN_POINT('Origin',(-25.1087861071348,72.1283617083039,10.5));
#1478=CARTESIAN_POINT('',(8.57361124547745,60.9147044734683,-4.6));
#1479=CARTESIAN_POINT('',(8.57361124547745,60.9147044734683,-4.6));
#1480=CARTESIAN_POINT('',(1.99667224595598,49.2036124737274,-10.5));
#1481=CARTESIAN_POINT('Origin',(-25.1087861071348,72.1283617083039,-10.5));
#1482=CARTESIAN_POINT('',(1.99667224595598,49.2036124737274,-4.6));
#1483=CARTESIAN_POINT('',(1.99667224595598,49.2036124737274,-10.5));
#1484=CARTESIAN_POINT('Origin',(-25.1087861071348,72.1283617083039,-4.6));
#1485=CARTESIAN_POINT('Origin',(9.52241117090308,60.5988268048726,37.8756));
#1486=CARTESIAN_POINT('Origin',(9.52241117090308,60.5988268048726,-4.6));
#1487=CARTESIAN_POINT('Origin',(9.52241117090308,60.5988268048726,37.8756));
#1488=CARTESIAN_POINT('',(9.02241117090349,61.4648522086605,5.1));
#1489=CARTESIAN_POINT('',(9.02241117090349,61.4648522086605,4.6));
#1490=CARTESIAN_POINT('',(9.02241117090349,61.4648522086605,5.1));
#1491=CARTESIAN_POINT('',(8.57361124547745,60.9147044734683,4.6));
#1492=CARTESIAN_POINT('Origin',(9.52241117090308,60.5988268048726,4.6));
#1493=CARTESIAN_POINT('',(8.57361124547745,60.9147044734683,5.1));
#1494=CARTESIAN_POINT('',(8.57361124547745,60.9147044734683,5.1));
#1495=CARTESIAN_POINT('Origin',(9.52241117090308,60.5988268048726,5.1));
#1496=CARTESIAN_POINT('Origin',(-25.1087861071348,72.1283617083039,10.5));
#1497=CARTESIAN_POINT('',(10.390944405606,72.2666856851164,5.1));
#1498=CARTESIAN_POINT('Origin',(-25.1087861071348,72.1283617083039,5.1));
#1499=CARTESIAN_POINT('',(1.99667224595598,49.2036124737274,4.6));
#1500=CARTESIAN_POINT('Origin',(-25.1087861071348,72.1283617083039,4.6));
#1501=CARTESIAN_POINT('',(1.99667224595598,49.2036124737274,10.5));
#1502=CARTESIAN_POINT('',(1.99667224595598,49.2036124737274,4.6));
#1503=CARTESIAN_POINT('',(10.390944405606,72.2666856851164,10.5));
#1504=CARTESIAN_POINT('Origin',(-25.1087861071348,72.1283617083039,10.5));
#1505=CARTESIAN_POINT('',(10.390944405606,72.2666856851164,5.1));
#1506=CARTESIAN_POINT('Origin',(8.42901471896611,16.0889336106081,5.1));
#1507=CARTESIAN_POINT('',(19.2085766402277,69.0573300150048,5.1));
#1508=CARTESIAN_POINT('Origin',(15.3909064496552,72.2861679353697,5.1));
#1509=CARTESIAN_POINT('',(14.9437806802781,62.7505573219343,5.1));
#1510=CARTESIAN_POINT('Origin',(46.3140349933272,46.1325807804163,5.1));
#1511=CARTESIAN_POINT('',(13.5601115446964,64.0846947409723,5.1));
#1512=CARTESIAN_POINT('Origin',(14.060111544697,63.2186693371845,5.1));
#1513=CARTESIAN_POINT('',(9.02241117090349,61.4648522086605,5.1));
#1514=CARTESIAN_POINT('',(15.173017092786,74.7766546805991,5.1));
#1515=CARTESIAN_POINT('Origin',(15.3909064496552,72.2861679353697,5.1));
#1516=CARTESIAN_POINT('Origin',(46.3140349933272,46.1325807804163,10.5));
#1517=CARTESIAN_POINT('',(19.2085766402277,69.0573300150048,10.5));
#1518=CARTESIAN_POINT('',(19.2085766402277,69.0573300150048,5.1));
#1519=CARTESIAN_POINT('',(10.8143044805894,45.9942568036136,10.5));
#1520=CARTESIAN_POINT('Origin',(46.3140349933272,46.1325807804163,10.5));
#1521=CARTESIAN_POINT('',(10.8143044805894,45.9942568036136,4.6));
#1522=CARTESIAN_POINT('',(10.8143044805894,45.9942568036136,4.6));
#1523=CARTESIAN_POINT('',(14.9437806802781,62.7505573219343,4.6));
#1524=CARTESIAN_POINT('Origin',(46.3140349933272,46.1325807804163,4.6));
#1525=CARTESIAN_POINT('',(14.9437806802781,62.7505573219343,4.6));
#1526=CARTESIAN_POINT('Origin',(8.69093996801183,61.2734772204452,-5.1));
#1527=CARTESIAN_POINT('',(13.5601115446964,64.0846947409723,4.6));
#1528=CARTESIAN_POINT('',(13.5601115446964,64.0846947409723,4.6));
#1529=CARTESIAN_POINT('',(9.02241117090349,61.4648522086605,4.6));
#1530=CARTESIAN_POINT('Origin',(14.060111544697,63.2186693371845,-37.8756));
#1531=CARTESIAN_POINT('Origin',(14.060111544697,63.2186693371845,4.6));
#1532=CARTESIAN_POINT('Origin',(15.3909064496552,72.2861679353697,-10.5));
#1533=CARTESIAN_POINT('',(15.173017092786,74.7766546805991,10.5));
#1534=CARTESIAN_POINT('Origin',(15.3909064496552,72.2861679353697,10.5));
#1535=CARTESIAN_POINT('',(15.173017092786,74.7766546805991,-10.5));
#1536=CARTESIAN_POINT('Origin',(15.3909064496552,72.2861679353697,10.5));
#1537=CARTESIAN_POINT('Origin',(15.3909064496552,72.2861679353697,10.5));
#1538=CARTESIAN_POINT('Origin',(1.99667224595598,49.2036124737274,-10.5));
#1539=CARTESIAN_POINT('',(-4.66962061474891,31.7873565157398,-10.5));
#1540=CARTESIAN_POINT('',(1.99667224595598,49.2036124737274,-10.5));
#1541=CARTESIAN_POINT('',(-4.66962061474891,31.7873565157398,-4.6));
#1542=CARTESIAN_POINT('',(-4.66962061474891,31.7873565157398,10.5));
#1543=CARTESIAN_POINT('',(1.99667224595598,49.2036124737274,-4.6));
#1544=CARTESIAN_POINT('Origin',(4.7121056492761,31.6721424431267,-10.5));
#1545=CARTESIAN_POINT('',(4.7121056492761,31.6721424431267,-10.5));
#1546=CARTESIAN_POINT('',(10.8143044805894,45.9942568036136,-10.5));
#1547=CARTESIAN_POINT('',(4.7121056492761,31.6721424431267,-4.6));
#1548=CARTESIAN_POINT('',(10.8143044805894,45.9942568036136,-4.6));
#1549=CARTESIAN_POINT('',(4.71210564927347,31.6721424431205,10.5));
#1550=CARTESIAN_POINT('Origin',(0.,30.,10.5));
#1551=CARTESIAN_POINT('',(-4.99992920174877,29.9733921520414,-10.5));
#1552=CARTESIAN_POINT('Origin',(0.,30.,-10.5));
#1553=CARTESIAN_POINT('',(-4.99992920174877,29.9733921520414,-4.6));
#1554=CARTESIAN_POINT('',(-4.9999292297062,29.9733974066101,10.5));
#1555=CARTESIAN_POINT('Origin',(0.,30.,-4.6));
#1556=CARTESIAN_POINT('Origin',(0.,-18.,10.5));
#1557=CARTESIAN_POINT('',(4.635124054435,-16.125,5.6));
#1558=CARTESIAN_POINT('',(-4.898979485566,-17.,5.6));
#1559=CARTESIAN_POINT('Origin',(0.,-18.,5.6));
#1560=CARTESIAN_POINT('',(4.635124054435,-16.125,10.5));
#1561=CARTESIAN_POINT('',(4.635124054435,-16.125,5.6));
#1562=CARTESIAN_POINT('',(-4.898979485566,-17.,10.5));
#1563=CARTESIAN_POINT('Origin',(0.,-18.,10.5));
#1564=CARTESIAN_POINT('',(-4.898979485566,-17.,5.6));
#1565=CARTESIAN_POINT('Origin',(0.,-18.,10.5));
#1566=CARTESIAN_POINT('',(-4.898979485566,-17.,-5.6));
#1567=CARTESIAN_POINT('',(4.635124054435,-16.125,-5.6));
#1568=CARTESIAN_POINT('Origin',(0.,-18.,-5.6));
#1569=CARTESIAN_POINT('',(-4.898979485566,-17.,-10.5));
#1570=CARTESIAN_POINT('',(-4.898979485566,-17.,-10.5));
#1571=CARTESIAN_POINT('',(4.635124054435,-16.125,-10.5));
#1572=CARTESIAN_POINT('Origin',(0.,-18.,-10.5));
#1573=CARTESIAN_POINT('',(4.635124054435,-16.125,-10.5));
#1574=CARTESIAN_POINT('Origin',(0.,-18.,5.6));
#1575=CARTESIAN_POINT('',(2.368996099302,-7.48077117886,5.6));
#1576=CARTESIAN_POINT('Origin',(37.08099243548,-3.,5.6));
#1577=CARTESIAN_POINT('',(-3.726793871208,-8.816838411117,5.6));
#1578=CARTESIAN_POINT('Origin',(-73.4846922835,-3.,5.6));
#1579=CARTESIAN_POINT('',(-2.430379055255,-9.853915105585,5.6));
#1580=CARTESIAN_POINT('Origin',(-2.730252465319,-8.899936102705,5.6));
#1581=CARTESIAN_POINT('',(1.677098185475,-8.56277221542,5.6));
#1582=CARTESIAN_POINT('',(-2.430379055255,-9.853915105585,5.6));
#1583=CARTESIAN_POINT('Origin',(1.377224775411,-7.60879321254,5.6));
#1584=CARTESIAN_POINT('',(3.06161699786838E-16,-15.5,5.6));
#1585=CARTESIAN_POINT('Origin',(0.,-18.,5.6));
#1586=CARTESIAN_POINT('Origin',(0.,-18.,-10.5));
#1587=CARTESIAN_POINT('',(3.06161699786838E-16,-15.5,10.5));
#1588=CARTESIAN_POINT('Origin',(0.,-18.,10.5));
#1589=CARTESIAN_POINT('',(3.06161699786838E-16,-15.5,-10.5));
#1590=CARTESIAN_POINT('Origin',(0.,-18.,-10.5));
#1591=CARTESIAN_POINT('',(0.,-15.5,-5.6));
#1592=CARTESIAN_POINT('Origin',(0.,-18.,-5.6));
#1593=CARTESIAN_POINT('',(0.,-15.5,-10.5));
#1594=CARTESIAN_POINT('',(3.06161699786838E-16,-15.5,-10.5));
#1595=CARTESIAN_POINT('Origin',(0.,-18.,-10.5));
#1596=CARTESIAN_POINT('Origin',(-73.4846922835,-3.,10.5));
#1597=CARTESIAN_POINT('',(-3.726793871208,-8.816838411117,-5.6));
#1598=CARTESIAN_POINT('',(-3.726793871208,-8.816838411117,-5.6));
#1599=CARTESIAN_POINT('',(-4.8989794855708,10.999999999999,10.5));
#1600=CARTESIAN_POINT('Origin',(-73.4846922835,-3.,10.5));
#1601=CARTESIAN_POINT('',(-4.8989794855708,10.999999999999,4.6));
#1602=CARTESIAN_POINT('',(-4.8989794855708,10.999999999999,4.6));
#1603=CARTESIAN_POINT('',(-3.491327058938,-2.03624456335,4.6));
#1604=CARTESIAN_POINT('Origin',(-73.4846922835,-3.,4.6));
#1605=CARTESIAN_POINT('',(-3.491327058938,-2.03624456335,-4.6));
#1606=CARTESIAN_POINT('',(-3.491327058938,-2.03624456335,4.6));
#1607=CARTESIAN_POINT('',(-4.8989794855708,10.999999999999,-4.6));
#1608=CARTESIAN_POINT('Origin',(-73.4846922835,-3.,-4.6));
#1609=CARTESIAN_POINT('',(-4.8989794855708,10.999999999999,-10.5));
#1610=CARTESIAN_POINT('',(-4.8989794855708,10.999999999999,-10.5));
#1611=CARTESIAN_POINT('Origin',(-73.4846922835,-3.,-10.5));
#1612=CARTESIAN_POINT('Origin',(-73.4846922835,-3.,-5.6));
#1613=CARTESIAN_POINT('Origin',(-2.730252465319,-8.899936102705,-37.8756));
#1614=CARTESIAN_POINT('',(-2.430379055255,-9.853915105585,-5.6));
#1615=CARTESIAN_POINT('',(-2.430379055255,-9.853915105585,-5.6));
#1616=CARTESIAN_POINT('Origin',(-2.730252465319,-8.899936102705,-5.6));
#1617=CARTESIAN_POINT('Origin',(-5.,-10.661648811405,5.6));
#1618=CARTESIAN_POINT('',(1.677098185475,-8.56277221542,-5.6));
#1619=CARTESIAN_POINT('',(-2.430379055255,-9.853915105585,-5.6));
#1620=CARTESIAN_POINT('',(1.677098185475,-8.56277221542,5.6));
#1621=CARTESIAN_POINT('Origin',(1.377224775411,-7.60879321254,37.8756));
#1622=CARTESIAN_POINT('',(2.368996099302,-7.48077117886,-5.6));
#1623=CARTESIAN_POINT('Origin',(1.377224775411,-7.60879321254,-5.6));
#1624=CARTESIAN_POINT('',(2.368996099302,-7.48077117886,5.6));
#1625=CARTESIAN_POINT('Origin',(37.08099243548,-3.,10.5));
#1626=CARTESIAN_POINT('Origin',(37.08099243548,-3.,-5.6));
#1627=CARTESIAN_POINT('',(4.63512405443904,10.1249999999984,-10.5));
#1628=CARTESIAN_POINT('Origin',(37.08099243548,-3.,-10.5));
#1629=CARTESIAN_POINT('',(4.63512405443904,10.1249999999984,-4.6));
#1630=CARTESIAN_POINT('',(4.63512405443904,10.1249999999984,-10.5));
#1631=CARTESIAN_POINT('',(2.109350054384,-1.59137330395,-4.6));
#1632=CARTESIAN_POINT('Origin',(37.08099243548,-3.,-4.6));
#1633=CARTESIAN_POINT('',(2.109350054384,-1.59137330395,4.6));
#1634=CARTESIAN_POINT('',(2.109350054384,-1.59137330395,-4.6));
#1635=CARTESIAN_POINT('',(4.63512405443904,10.1249999999984,4.6));
#1636=CARTESIAN_POINT('Origin',(37.08099243548,-3.,4.6));
#1637=CARTESIAN_POINT('',(4.63512405443904,10.1249999999984,10.5));
#1638=CARTESIAN_POINT('',(4.63512405443904,10.1249999999984,4.6));
#1639=CARTESIAN_POINT('Origin',(37.08099243548,-3.,10.5));
#1640=CARTESIAN_POINT('Origin',(0.1109704897497,-1.51088034989,-37.8756));
#1641=CARTESIAN_POINT('',(1.923586063823,-0.665643826410001,-4.6));
#1642=CARTESIAN_POINT('',(1.923586063823,-0.665643826410001,4.6));
#1643=CARTESIAN_POINT('',(1.923586063823,-0.665643826410001,-4.6));
#1644=CARTESIAN_POINT('Origin',(0.1109704897497,-1.51088034989,4.6));
#1645=CARTESIAN_POINT('Origin',(0.1109704897497,-1.51088034989,-4.6));
#1646=CARTESIAN_POINT('Origin',(0.,3.45949979966,-4.6));
#1647=CARTESIAN_POINT('',(0.7469752487817,1.8576062092,-4.6));
#1648=CARTESIAN_POINT('',(0.7469752487817,1.8576062092,4.6));
#1649=CARTESIAN_POINT('',(0.7469752487817,1.8576062092,-4.6));
#1650=CARTESIAN_POINT('',(0.7469752487817,1.8576062092,4.6));
#1651=CARTESIAN_POINT('',(0.7469752487817,1.8576062092,-4.6));
#1652=CARTESIAN_POINT('Origin',(-0.159332538255,1.43498794745,-37.8756));
#1653=CARTESIAN_POINT('',(-0.98837011081,1.99418085093,-4.6));
#1654=CARTESIAN_POINT('',(-0.98837011081,1.99418085093,4.6));
#1655=CARTESIAN_POINT('',(-0.98837011081,1.99418085093,-4.6));
#1656=CARTESIAN_POINT('Origin',(-0.159332538255,1.43498794745,4.6));
#1657=CARTESIAN_POINT('Origin',(-0.159332538255,1.43498794745,-4.6));
#1658=CARTESIAN_POINT('Origin',(-5.,-3.95330504291,-4.6));
#1659=CARTESIAN_POINT('',(-3.320459413999,-1.46328372507,4.6));
#1660=CARTESIAN_POINT('',(-3.320459413999,-1.46328372507,-4.6));
#1661=CARTESIAN_POINT('',(-3.320459413999,-1.46328372507,4.6));
#1662=CARTESIAN_POINT('',(-3.320459413999,-1.46328372507,4.6));
#1663=CARTESIAN_POINT('',(-3.320459413999,-1.46328372507,-4.6));
#1664=CARTESIAN_POINT('Origin',(-2.491421841444,-2.02247662854,37.8756));
#1665=CARTESIAN_POINT('Origin',(-2.491421841444,-2.02247662854,-4.6));
#1666=CARTESIAN_POINT('Origin',(-2.491421841444,-2.02247662854,4.6));
#1667=CARTESIAN_POINT('Origin',(0.,-18.,-5.6));
#1668=CARTESIAN_POINT('Origin',(4.63512405443904,10.1249999999984,-10.5));
#1669=CARTESIAN_POINT('',(4.9991537113273,29.9080099431027,-10.5));
#1670=CARTESIAN_POINT('',(4.63512405443904,10.1249999999984,-10.5));
#1671=CARTESIAN_POINT('',(4.9991537113273,29.9080099431027,-4.6));
#1672=CARTESIAN_POINT('',(4.9991537113273,29.9080099431027,10.5));
#1673=CARTESIAN_POINT('',(4.63512405443904,10.1249999999984,-4.6));
#1674=CARTESIAN_POINT('Origin',(-4.99992920174877,29.9733921520414,-10.5));
#1675=CARTESIAN_POINT('',(-4.8989794855708,10.999999999999,-10.5));
#1676=CARTESIAN_POINT('',(-4.8989794855708,10.999999999999,-4.6));
#1677=CARTESIAN_POINT('Origin',(0.,0.,-4.6));
#1678=CARTESIAN_POINT('Origin',(0.,30.,-4.6));
#1679=CARTESIAN_POINT('',(0.,32.5,-4.6));
#1680=CARTESIAN_POINT('Origin',(0.,30.,-4.6));
#1681=CARTESIAN_POINT('Origin',(0.,0.,-10.5));
#1682=CARTESIAN_POINT('Origin',(0.,30.,-10.5));
#1683=CARTESIAN_POINT('',(0.,32.5,-10.5));
#1684=CARTESIAN_POINT('Origin',(0.,30.,-10.5));
#1685=CARTESIAN_POINT('Origin',(0.,30.,10.5));
#1686=CARTESIAN_POINT('Origin',(0.,30.,-10.5));
#1687=CARTESIAN_POINT('',(3.06161699786838E-16,32.5,-10.5));
#1688=CARTESIAN_POINT('Origin',(4.63512405443904,10.1249999999984,4.6));
#1689=CARTESIAN_POINT('',(4.9991537113273,29.9080099431027,4.6));
#1690=CARTESIAN_POINT('',(4.63512405443904,10.1249999999984,4.6));
#1691=CARTESIAN_POINT('',(4.9991537113273,29.9080099431027,10.5));
#1692=CARTESIAN_POINT('',(4.9991537113273,29.9080099431027,10.5));
#1693=CARTESIAN_POINT('',(4.63512405443904,10.1249999999984,10.5));
#1694=CARTESIAN_POINT('Origin',(-4.99992920174877,29.9733921520414,4.6));
#1695=CARTESIAN_POINT('',(-4.99992920174877,29.9733921520414,4.6));
#1696=CARTESIAN_POINT('',(-4.8989794855708,10.999999999999,4.6));
#1697=CARTESIAN_POINT('',(-4.99992920174877,29.9733921520414,10.5));
#1698=CARTESIAN_POINT('',(-4.8989794855708,10.999999999999,10.5));
#1699=CARTESIAN_POINT('',(-4.9999292297062,29.9733974066101,10.5));
#1700=CARTESIAN_POINT('Origin',(0.,30.,10.5));
#1701=CARTESIAN_POINT('',(-4.66962061474891,31.7873565157398,10.5));
#1702=CARTESIAN_POINT('Origin',(0.,30.,10.5));
#1703=CARTESIAN_POINT('',(-4.66962061474891,31.7873565157398,4.6));
#1704=CARTESIAN_POINT('',(-4.66962061474891,31.7873565157398,4.6));
#1705=CARTESIAN_POINT('Origin',(0.,30.,4.6));
#1706=CARTESIAN_POINT('Origin',(0.,30.,-10.5));
#1707=CARTESIAN_POINT('',(3.06161699786838E-16,32.5,10.5));
#1708=CARTESIAN_POINT('Origin',(0.,30.,10.5));
#1709=CARTESIAN_POINT('',(3.06161699786838E-16,32.5,4.6));
#1710=CARTESIAN_POINT('',(3.06161699786838E-16,32.5,-10.5));
#1711=CARTESIAN_POINT('Origin',(0.,30.,4.6));
#1712=CARTESIAN_POINT('Origin',(0.,30.,10.5));
#1713=CARTESIAN_POINT('',(4.7121056492761,31.6721424431267,4.6));
#1714=CARTESIAN_POINT('Origin',(0.,30.,4.6));
#1715=CARTESIAN_POINT('',(4.7121056492761,31.6721424431267,10.5));
#1716=CARTESIAN_POINT('',(4.7121056492761,31.6721424431267,4.6));
#1717=CARTESIAN_POINT('Origin',(0.,30.,10.5));
#1718=CARTESIAN_POINT('Origin',(1.99667224595598,49.2036124737274,4.6));
#1719=CARTESIAN_POINT('',(1.99667224595598,49.2036124737274,4.6));
#1720=CARTESIAN_POINT('',(1.99667224595598,49.2036124737274,10.5));
#1721=CARTESIAN_POINT('Origin',(4.7121056492761,31.6721424431267,4.6));
#1722=CARTESIAN_POINT('',(10.8143044805894,45.9942568036136,4.6));
#1723=CARTESIAN_POINT('',(10.8143044805894,45.9942568036136,10.5));
#1724=CARTESIAN_POINT('Origin',(7.69545322482412,51.1430839676814,4.6));
#1725=CARTESIAN_POINT('Origin',(7.69545322482412,51.1430839676814,10.5));
#1726=UNCERTAINTY_MEASURE_WITH_UNIT(LENGTH_MEASURE(0.01),#1730,
'DISTANCE_ACCURACY_VALUE',
'Maximum model space distance between geometric entities at asserted c
onnectivities');
#1727=UNCERTAINTY_MEASURE_WITH_UNIT(LENGTH_MEASURE(0.01),#1730,
'DISTANCE_ACCURACY_VALUE',
'Maximum model space distance between geometric entities at asserted c
onnectivities');
#1728=(
GEOMETRIC_REPRESENTATION_CONTEXT(3)
GLOBAL_UNCERTAINTY_ASSIGNED_CONTEXT((#1726))
GLOBAL_UNIT_ASSIGNED_CONTEXT((#1730,#1732,#1733))
REPRESENTATION_CONTEXT('','3D')
);
#1729=(
GEOMETRIC_REPRESENTATION_CONTEXT(3)
GLOBAL_UNCERTAINTY_ASSIGNED_CONTEXT((#1727))
GLOBAL_UNIT_ASSIGNED_CONTEXT((#1730,#1732,#1733))
REPRESENTATION_CONTEXT('','3D')
);
#1730=(
LENGTH_UNIT()
NAMED_UNIT(*)
SI_UNIT(.MILLI.,.METRE.)
);
#1731=(
LENGTH_UNIT()
NAMED_UNIT(*)
SI_UNIT($,.METRE.)
);
#1732=(
NAMED_UNIT(*)
PLANE_ANGLE_UNIT()
SI_UNIT($,.RADIAN.)
);
#1733=(
NAMED_UNIT(*)
SI_UNIT($,.STERADIAN.)
SOLID_ANGLE_UNIT()
);
#1734=SHAPE_DEFINITION_REPRESENTATION(#1735,#1736);
#1735=PRODUCT_DEFINITION_SHAPE('',$,#1738);
#1736=SHAPE_REPRESENTATION('',(#998),#1728);
#1737=PRODUCT_DEFINITION_CONTEXT('part definition',#1742,'design');
#1738=PRODUCT_DEFINITION('ACWA-0X29_BIELLETTE1_350-400',
'ACWA-0X29_BIELLETTE1_350-400 v4',#1739,#1737);
#1739=PRODUCT_DEFINITION_FORMATION('',$,#1744);
#1740=PRODUCT_RELATED_PRODUCT_CATEGORY(
'ACWA-0X29_BIELLETTE1_350-400 v4','ACWA-0X29_BIELLETTE1_350-400 v4',(#1744));
#1741=APPLICATION_PROTOCOL_DEFINITION('international standard',
'automotive_design',2009,#1742);
#1742=APPLICATION_CONTEXT(
'Core Data for Automotive Mechanical Design Process');
#1743=PRODUCT_CONTEXT('part definition',#1742,'mechanical');
#1744=PRODUCT('ACWA-0X29_BIELLETTE1_350-400',
'ACWA-0X29_BIELLETTE1_350-400 v4',$,(#1743));
#1745=PRESENTATION_STYLE_ASSIGNMENT((#1746));
#1746=SURFACE_STYLE_USAGE(.BOTH.,#1747);
#1747=SURFACE_SIDE_STYLE('',(#1748));
#1748=SURFACE_STYLE_FILL_AREA(#1749);
#1749=FILL_AREA_STYLE('Acier - Satin\X\E9',(#1750));
#1750=FILL_AREA_STYLE_COLOUR('Acier - Satin\X\E9',#1751);
#1751=COLOUR_RGB('Acier - Satin\X\E9',0.627450980392157,0.627450980392157,
0.627450980392157);
ENDSEC;
END-ISO-10303-21;
