ISO-10303-21;
HEADER;
/* Generated by software containing ST-Developer
 * from STEP Tools, Inc. (www.steptools.com) 
 */

FILE_DESCRIPTION(
/* description */ (''),
/* implementation_level */ '2;1');

FILE_NAME(
/* name */ 'ACWA-0029_v2.step',
/* time_stamp */ '2025-04-10T10:38:01+02:00',
/* author */ (''),
/* organization */ (''),
/* preprocessor_version */ 'ST-DEVELOPER v20.1',
/* originating_system */ 'Autodesk Translation Framework v14.4.0.0',
/* authorisation */ '');

FILE_SCHEMA (('AUTOMOTIVE_DESIGN { 1 0 10303 214 3 1 1 }'));
ENDSEC;

DATA;
#10=MECHANICAL_DESIGN_GEOMETRIC_PRESENTATION_REPRESENTATION('',(#13),#1887);
#11=SHAPE_REPRESENTATION_RELATIONSHIP('SRR','None',#1894,#12);
#12=ADVANCED_BREP_SHAPE_REPRESENTATION('',(#14),#1886);
#13=STYLED_ITEM('',(#1903),#14);
#14=MANIFOLD_SOLID_BREP('Corps1',#1057);
#15=FACE_BOUND('',#177,.T.);
#16=FACE_BOUND('',#182,.T.);
#17=FACE_BOUND('',#187,.T.);
#18=FACE_BOUND('',#190,.T.);
#19=FACE_BOUND('',#191,.T.);
#20=FACE_BOUND('',#192,.T.);
#21=FACE_BOUND('',#196,.T.);
#22=FACE_BOUND('',#200,.T.);
#23=FACE_BOUND('',#214,.T.);
#24=FACE_BOUND('',#225,.T.);
#25=FACE_BOUND('',#226,.T.);
#26=FACE_BOUND('',#227,.T.);
#27=CIRCLE('',#1073,35.5);
#28=CIRCLE('',#1074,5.);
#29=CIRCLE('',#1075,35.);
#30=CIRCLE('',#1076,2.);
#31=CIRCLE('',#1077,1.);
#32=CIRCLE('',#1078,1.);
#33=CIRCLE('',#1079,70.);
#34=CIRCLE('',#1080,5.);
#35=CIRCLE('',#1081,35.5);
#36=CIRCLE('',#1082,2.5);
#37=CIRCLE('',#1084,35.5);
#38=CIRCLE('',#1086,10.);
#39=CIRCLE('',#1087,10.);
#40=CIRCLE('',#1090,35.5);
#41=CIRCLE('',#1091,5.);
#42=CIRCLE('',#1092,70.);
#43=CIRCLE('',#1093,1.);
#44=CIRCLE('',#1094,1.);
#45=CIRCLE('',#1095,2.);
#46=CIRCLE('',#1096,35.);
#47=CIRCLE('',#1097,5.);
#48=CIRCLE('',#1098,35.5);
#49=CIRCLE('',#1099,2.5);
#50=CIRCLE('',#1101,35.5);
#51=CIRCLE('',#1103,10.);
#52=CIRCLE('',#1104,10.);
#53=CIRCLE('',#1106,10.);
#54=CIRCLE('',#1107,10.);
#55=CIRCLE('',#1109,5.);
#56=CIRCLE('',#1110,2.5);
#57=CIRCLE('',#1113,35.5);
#58=CIRCLE('',#1114,5.);
#59=CIRCLE('',#1115,35.);
#60=CIRCLE('',#1116,10.);
#61=CIRCLE('',#1117,5.00000007450581);
#62=CIRCLE('',#1118,10.);
#63=CIRCLE('',#1119,70.);
#64=CIRCLE('',#1120,5.);
#65=CIRCLE('',#1121,5.);
#66=CIRCLE('',#1122,2.5);
#67=CIRCLE('',#1123,2.5);
#68=CIRCLE('',#1124,2.5);
#69=CIRCLE('',#1126,10.);
#70=CIRCLE('',#1127,10.);
#71=CIRCLE('',#1129,35.5);
#72=CIRCLE('',#1130,35.5);
#73=CIRCLE('',#1132,5.);
#74=CIRCLE('',#1133,2.5);
#75=CIRCLE('',#1135,10.);
#76=CIRCLE('',#1136,10.);
#77=CIRCLE('',#1139,70.);
#78=CIRCLE('',#1140,0.5);
#79=CIRCLE('',#1141,1.);
#80=CIRCLE('',#1142,35.);
#81=CIRCLE('',#1143,10.);
#82=CIRCLE('',#1144,5.);
#83=CIRCLE('',#1145,2.5);
#84=CIRCLE('',#1147,10.);
#85=CIRCLE('',#1150,10.);
#86=CIRCLE('',#1153,10.);
#87=CIRCLE('',#1156,1.);
#88=CIRCLE('',#1158,35.);
#89=CIRCLE('',#1159,35.);
#90=CIRCLE('',#1161,0.5);
#91=CIRCLE('',#1163,70.);
#92=CIRCLE('',#1164,70.);
#93=CIRCLE('',#1166,5.00000007450581);
#94=CIRCLE('',#1168,2.5);
#95=CIRCLE('',#1171,2.5);
#96=CIRCLE('',#1173,5.);
#97=CIRCLE('',#1178,5.);
#98=CIRCLE('',#1180,2.5);
#99=CIRCLE('',#1184,5.);
#100=CIRCLE('',#1185,5.);
#101=CIRCLE('',#1186,2.5);
#102=PLANE('',#1072);
#103=PLANE('',#1089);
#104=PLANE('',#1108);
#105=PLANE('',#1111);
#106=PLANE('',#1112);
#107=PLANE('',#1131);
#108=PLANE('',#1137);
#109=PLANE('',#1138);
#110=PLANE('',#1148);
#111=PLANE('',#1151);
#112=PLANE('',#1154);
#113=PLANE('',#1169);
#114=PLANE('',#1176);
#115=PLANE('',#1181);
#116=PLANE('',#1182);
#117=PLANE('',#1183);
#118=PLANE('',#1188);
#119=PLANE('',#1196);
#120=PLANE('',#1198);
#121=FACE_OUTER_BOUND('',#175,.T.);
#122=FACE_OUTER_BOUND('',#176,.T.);
#123=FACE_OUTER_BOUND('',#178,.T.);
#124=FACE_OUTER_BOUND('',#179,.T.);
#125=FACE_OUTER_BOUND('',#180,.T.);
#126=FACE_OUTER_BOUND('',#181,.T.);
#127=FACE_OUTER_BOUND('',#183,.T.);
#128=FACE_OUTER_BOUND('',#184,.T.);
#129=FACE_OUTER_BOUND('',#185,.T.);
#130=FACE_OUTER_BOUND('',#186,.T.);
#131=FACE_OUTER_BOUND('',#188,.T.);
#132=FACE_OUTER_BOUND('',#189,.T.);
#133=FACE_OUTER_BOUND('',#193,.T.);
#134=FACE_OUTER_BOUND('',#194,.T.);
#135=FACE_OUTER_BOUND('',#195,.T.);
#136=FACE_OUTER_BOUND('',#197,.T.);
#137=FACE_OUTER_BOUND('',#198,.T.);
#138=FACE_OUTER_BOUND('',#199,.T.);
#139=FACE_OUTER_BOUND('',#201,.T.);
#140=FACE_OUTER_BOUND('',#202,.T.);
#141=FACE_OUTER_BOUND('',#203,.T.);
#142=FACE_OUTER_BOUND('',#204,.T.);
#143=FACE_OUTER_BOUND('',#205,.T.);
#144=FACE_OUTER_BOUND('',#206,.T.);
#145=FACE_OUTER_BOUND('',#207,.T.);
#146=FACE_OUTER_BOUND('',#208,.T.);
#147=FACE_OUTER_BOUND('',#209,.T.);
#148=FACE_OUTER_BOUND('',#210,.T.);
#149=FACE_OUTER_BOUND('',#211,.T.);
#150=FACE_OUTER_BOUND('',#212,.T.);
#151=FACE_OUTER_BOUND('',#213,.T.);
#152=FACE_OUTER_BOUND('',#215,.T.);
#153=FACE_OUTER_BOUND('',#216,.T.);
#154=FACE_OUTER_BOUND('',#217,.T.);
#155=FACE_OUTER_BOUND('',#218,.T.);
#156=FACE_OUTER_BOUND('',#219,.T.);
#157=FACE_OUTER_BOUND('',#220,.T.);
#158=FACE_OUTER_BOUND('',#221,.T.);
#159=FACE_OUTER_BOUND('',#222,.T.);
#160=FACE_OUTER_BOUND('',#223,.T.);
#161=FACE_OUTER_BOUND('',#224,.T.);
#162=FACE_OUTER_BOUND('',#228,.T.);
#163=FACE_OUTER_BOUND('',#229,.T.);
#164=FACE_OUTER_BOUND('',#230,.T.);
#165=FACE_OUTER_BOUND('',#231,.T.);
#166=FACE_OUTER_BOUND('',#232,.T.);
#167=FACE_OUTER_BOUND('',#233,.T.);
#168=FACE_OUTER_BOUND('',#234,.T.);
#169=FACE_OUTER_BOUND('',#235,.T.);
#170=FACE_OUTER_BOUND('',#236,.T.);
#171=FACE_OUTER_BOUND('',#237,.T.);
#172=FACE_OUTER_BOUND('',#238,.T.);
#173=FACE_OUTER_BOUND('',#239,.T.);
#174=FACE_OUTER_BOUND('',#240,.T.);
#175=EDGE_LOOP('',(#656,#657,#658,#659,#660));
#176=EDGE_LOOP('',(#661,#662,#663,#664,#665,#666,#667,#668,#669,#670,#671,
#672));
#177=EDGE_LOOP('',(#673));
#178=EDGE_LOOP('',(#674,#675,#676,#677,#678));
#179=EDGE_LOOP('',(#679,#680,#681,#682,#683));
#180=EDGE_LOOP('',(#684,#685,#686,#687,#688,#689));
#181=EDGE_LOOP('',(#690,#691,#692,#693,#694,#695,#696,#697,#698,#699,#700,
#701));
#182=EDGE_LOOP('',(#702));
#183=EDGE_LOOP('',(#703,#704,#705,#706,#707));
#184=EDGE_LOOP('',(#708,#709,#710,#711,#712));
#185=EDGE_LOOP('',(#713,#714,#715,#716,#717));
#186=EDGE_LOOP('',(#718,#719,#720,#721,#722,#723));
#187=EDGE_LOOP('',(#724));
#188=EDGE_LOOP('',(#725,#726,#727,#728));
#189=EDGE_LOOP('',(#729,#730,#731,#732,#733,#734,#735,#736,#737,#738,#739,
#740,#741,#742,#743,#744));
#190=EDGE_LOOP('',(#745));
#191=EDGE_LOOP('',(#746));
#192=EDGE_LOOP('',(#747));
#193=EDGE_LOOP('',(#748,#749,#750,#751));
#194=EDGE_LOOP('',(#752,#753,#754,#755,#756,#757));
#195=EDGE_LOOP('',(#758,#759,#760,#761,#762,#763,#764));
#196=EDGE_LOOP('',(#765));
#197=EDGE_LOOP('',(#766,#767,#768,#769));
#198=EDGE_LOOP('',(#770,#771,#772,#773));
#199=EDGE_LOOP('',(#774,#775,#776,#777,#778,#779,#780,#781,#782,#783));
#200=EDGE_LOOP('',(#784));
#201=EDGE_LOOP('',(#785,#786,#787,#788));
#202=EDGE_LOOP('',(#789,#790,#791,#792));
#203=EDGE_LOOP('',(#793,#794,#795,#796));
#204=EDGE_LOOP('',(#797,#798,#799,#800));
#205=EDGE_LOOP('',(#801,#802,#803,#804));
#206=EDGE_LOOP('',(#805,#806,#807,#808));
#207=EDGE_LOOP('',(#809,#810,#811,#812));
#208=EDGE_LOOP('',(#813,#814,#815,#816,#817,#818,#819,#820,#821,#822,#823,
#824));
#209=EDGE_LOOP('',(#825,#826,#827,#828));
#210=EDGE_LOOP('',(#829,#830,#831,#832,#833,#834,#835,#836,#837,#838,#839,
#840));
#211=EDGE_LOOP('',(#841,#842,#843,#844));
#212=EDGE_LOOP('',(#845,#846,#847,#848));
#213=EDGE_LOOP('',(#849,#850,#851,#852,#853,#854,#855,#856,#857,#858));
#214=EDGE_LOOP('',(#859));
#215=EDGE_LOOP('',(#860,#861,#862,#863));
#216=EDGE_LOOP('',(#864,#865,#866,#867));
#217=EDGE_LOOP('',(#868,#869,#870,#871));
#218=EDGE_LOOP('',(#872,#873,#874,#875));
#219=EDGE_LOOP('',(#876,#877,#878,#879));
#220=EDGE_LOOP('',(#880,#881,#882,#883));
#221=EDGE_LOOP('',(#884,#885,#886,#887));
#222=EDGE_LOOP('',(#888,#889,#890,#891));
#223=EDGE_LOOP('',(#892,#893,#894,#895));
#224=EDGE_LOOP('',(#896,#897,#898,#899,#900,#901,#902,#903,#904,#905,#906,
#907,#908,#909,#910,#911));
#225=EDGE_LOOP('',(#912));
#226=EDGE_LOOP('',(#913));
#227=EDGE_LOOP('',(#914));
#228=EDGE_LOOP('',(#915,#916,#917,#918,#919));
#229=EDGE_LOOP('',(#920,#921,#922,#923));
#230=EDGE_LOOP('',(#924,#925,#926,#927));
#231=EDGE_LOOP('',(#928,#929,#930,#931));
#232=EDGE_LOOP('',(#932,#933,#934,#935));
#233=EDGE_LOOP('',(#936,#937,#938,#939));
#234=EDGE_LOOP('',(#940,#941,#942,#943));
#235=EDGE_LOOP('',(#944,#945,#946,#947));
#236=EDGE_LOOP('',(#948,#949,#950,#951));
#237=EDGE_LOOP('',(#952,#953,#954,#955));
#238=EDGE_LOOP('',(#956,#957,#958,#959));
#239=EDGE_LOOP('',(#960,#961,#962,#963));
#240=EDGE_LOOP('',(#964,#965,#966,#967));
#241=LINE('',#1543,#315);
#242=LINE('',#1554,#316);
#243=LINE('',#1571,#317);
#244=LINE('',#1575,#318);
#245=LINE('',#1587,#319);
#246=LINE('',#1590,#320);
#247=LINE('',#1595,#321);
#248=LINE('',#1607,#322);
#249=LINE('',#1623,#323);
#250=LINE('',#1640,#324);
#251=LINE('',#1644,#325);
#252=LINE('',#1656,#326);
#253=LINE('',#1659,#327);
#254=LINE('',#1664,#328);
#255=LINE('',#1668,#329);
#256=LINE('',#1672,#330);
#257=LINE('',#1676,#331);
#258=LINE('',#1679,#332);
#259=LINE('',#1684,#333);
#260=LINE('',#1685,#334);
#261=LINE('',#1696,#335);
#262=LINE('',#1700,#336);
#263=LINE('',#1707,#337);
#264=LINE('',#1720,#338);
#265=LINE('',#1723,#339);
#266=LINE('',#1726,#340);
#267=LINE('',#1731,#341);
#268=LINE('',#1734,#342);
#269=LINE('',#1742,#343);
#270=LINE('',#1745,#344);
#271=LINE('',#1748,#345);
#272=LINE('',#1750,#346);
#273=LINE('',#1751,#347);
#274=LINE('',#1758,#348);
#275=LINE('',#1766,#349);
#276=LINE('',#1772,#350);
#277=LINE('',#1775,#351);
#278=LINE('',#1778,#352);
#279=LINE('',#1779,#353);
#280=LINE('',#1782,#354);
#281=LINE('',#1785,#355);
#282=LINE('',#1788,#356);
#283=LINE('',#1789,#357);
#284=LINE('',#1794,#358);
#285=LINE('',#1795,#359);
#286=LINE('',#1798,#360);
#287=LINE('',#1799,#361);
#288=LINE('',#1802,#362);
#289=LINE('',#1805,#363);
#290=LINE('',#1807,#364);
#291=LINE('',#1808,#365);
#292=LINE('',#1810,#366);
#293=LINE('',#1817,#367);
#294=LINE('',#1818,#368);
#295=LINE('',#1822,#369);
#296=LINE('',#1823,#370);
#297=LINE('',#1824,#371);
#298=LINE('',#1831,#372);
#299=LINE('',#1833,#373);
#300=LINE('',#1836,#374);
#301=LINE('',#1841,#375);
#302=LINE('',#1843,#376);
#303=LINE('',#1847,#377);
#304=LINE('',#1850,#378);
#305=LINE('',#1853,#379);
#306=LINE('',#1856,#380);
#307=LINE('',#1858,#381);
#308=LINE('',#1865,#382);
#309=LINE('',#1872,#383);
#310=LINE('',#1874,#384);
#311=LINE('',#1876,#385);
#312=LINE('',#1878,#386);
#313=LINE('',#1880,#387);
#314=LINE('',#1882,#388);
#315=VECTOR('',#1204,1.);
#316=VECTOR('',#1205,10.);
#317=VECTOR('',#1216,2.78409837330513);
#318=VECTOR('',#1219,4.17045582787975);
#319=VECTOR('',#1232,10.);
#320=VECTOR('',#1235,5.9);
#321=VECTOR('',#1240,10.);
#322=VECTOR('',#1245,1.);
#323=VECTOR('',#1246,10.);
#324=VECTOR('',#1257,4.17045582787975);
#325=VECTOR('',#1260,2.78409837330513);
#326=VECTOR('',#1273,10.);
#327=VECTOR('',#1276,5.9);
#328=VECTOR('',#1281,10.);
#329=VECTOR('',#1286,10.);
#330=VECTOR('',#1289,10.);
#331=VECTOR('',#1294,10.);
#332=VECTOR('',#1297,10.);
#333=VECTOR('',#1302,10.);
#334=VECTOR('',#1303,10.);
#335=VECTOR('',#1314,10.);
#336=VECTOR('',#1317,10.);
#337=VECTOR('',#1324,10.);
#338=VECTOR('',#1337,10.);
#339=VECTOR('',#1340,10.);
#340=VECTOR('',#1343,5.9);
#341=VECTOR('',#1350,10.);
#342=VECTOR('',#1353,10.);
#343=VECTOR('',#1360,10.);
#344=VECTOR('',#1363,10.);
#345=VECTOR('',#1366,10.);
#346=VECTOR('',#1367,10.);
#347=VECTOR('',#1368,10.);
#348=VECTOR('',#1375,10.);
#349=VECTOR('',#1382,10.);
#350=VECTOR('',#1389,10.);
#351=VECTOR('',#1392,10.);
#352=VECTOR('',#1395,10.);
#353=VECTOR('',#1396,10.);
#354=VECTOR('',#1399,10.);
#355=VECTOR('',#1402,10.);
#356=VECTOR('',#1405,10.);
#357=VECTOR('',#1406,10.);
#358=VECTOR('',#1411,10.);
#359=VECTOR('',#1412,10.);
#360=VECTOR('',#1415,10.);
#361=VECTOR('',#1416,10.);
#362=VECTOR('',#1419,10.);
#363=VECTOR('',#1422,10.);
#364=VECTOR('',#1425,5.9);
#365=VECTOR('',#1426,9.2);
#366=VECTOR('',#1427,5.9);
#367=VECTOR('',#1436,10.);
#368=VECTOR('',#1437,10.);
#369=VECTOR('',#1442,5.9);
#370=VECTOR('',#1443,9.2);
#371=VECTOR('',#1444,5.9);
#372=VECTOR('',#1455,2.5);
#373=VECTOR('',#1458,10.);
#374=VECTOR('',#1461,2.5);
#375=VECTOR('',#1470,2.5);
#376=VECTOR('',#1473,10.);
#377=VECTOR('',#1478,10.);
#378=VECTOR('',#1481,10.);
#379=VECTOR('',#1484,2.5);
#380=VECTOR('',#1489,10.);
#381=VECTOR('',#1492,10.);
#382=VECTOR('',#1503,5.9);
#383=VECTOR('',#1516,2.5);
#384=VECTOR('',#1519,2.5);
#385=VECTOR('',#1522,9.2);
#386=VECTOR('',#1525,9.2);
#387=VECTOR('',#1528,9.2);
#388=VECTOR('',#1531,9.2);
#389=B_SPLINE_CURVE_WITH_KNOTS('',3,(#1538,#1539,#1540,#1541),
 .UNSPECIFIED.,.F.,.F.,(4,4),(-0.343636086306332,-0.227299418304321),
 .UNSPECIFIED.);
#390=B_SPLINE_CURVE_WITH_KNOTS('',3,(#1545,#1546,#1547,#1548,#1549,#1550,
#1551,#1552),.UNSPECIFIED.,.F.,.F.,(4,2,2,4),(0.198480938628927,0.252377145911017,
0.306273353193106,0.336839230513725),.UNSPECIFIED.);
#391=B_SPLINE_CURVE_WITH_KNOTS('',3,(#1555,#1556,#1557,#1558,#1559,#1560),
 .UNSPECIFIED.,.F.,.F.,(4,2,4),(0.630796148680359,0.668285248224216,0.695953272817905),
 .UNSPECIFIED.);
#392=B_SPLINE_CURVE_WITH_KNOTS('',3,(#1600,#1601,#1602,#1603,#1604,#1605),
 .UNSPECIFIED.,.F.,.F.,(4,2,4),(0.104598284095016,0.132984922674767,0.191934304216357),
 .UNSPECIFIED.);
#393=B_SPLINE_CURVE_WITH_KNOTS('',3,(#1609,#1610,#1611,#1612,#1613,#1614),
 .UNSPECIFIED.,.F.,.F.,(4,2,4),(0.702245480357869,0.787714152603089,0.819145993374602),
 .UNSPECIFIED.);
#394=B_SPLINE_CURVE_WITH_KNOTS('',3,(#1616,#1617,#1618,#1619,#1620,#1621),
 .UNSPECIFIED.,.F.,.F.,(4,2,4),(1.60352178857153,1.63118981316522,1.66867891270907),
 .UNSPECIFIED.);
#395=B_SPLINE_CURVE_WITH_KNOTS('',3,(#1624,#1625,#1626,#1627,#1628,#1629),
 .UNSPECIFIED.,.F.,.F.,(4,2,4),(0.0527376100739023,0.073093623870486,0.103782705301098),
 .UNSPECIFIED.);
#396=VERTEX_POINT('',#1536);
#397=VERTEX_POINT('',#1537);
#398=VERTEX_POINT('',#1542);
#399=VERTEX_POINT('',#1544);
#400=VERTEX_POINT('',#1553);
#401=VERTEX_POINT('',#1562);
#402=VERTEX_POINT('',#1564);
#403=VERTEX_POINT('',#1566);
#404=VERTEX_POINT('',#1568);
#405=VERTEX_POINT('',#1570);
#406=VERTEX_POINT('',#1572);
#407=VERTEX_POINT('',#1574);
#408=VERTEX_POINT('',#1576);
#409=VERTEX_POINT('',#1578);
#410=VERTEX_POINT('',#1580);
#411=VERTEX_POINT('',#1583);
#412=VERTEX_POINT('',#1586);
#413=VERTEX_POINT('',#1588);
#414=VERTEX_POINT('',#1592);
#415=VERTEX_POINT('',#1594);
#416=VERTEX_POINT('',#1598);
#417=VERTEX_POINT('',#1599);
#418=VERTEX_POINT('',#1606);
#419=VERTEX_POINT('',#1608);
#420=VERTEX_POINT('',#1615);
#421=VERTEX_POINT('',#1622);
#422=VERTEX_POINT('',#1631);
#423=VERTEX_POINT('',#1633);
#424=VERTEX_POINT('',#1635);
#425=VERTEX_POINT('',#1637);
#426=VERTEX_POINT('',#1639);
#427=VERTEX_POINT('',#1641);
#428=VERTEX_POINT('',#1643);
#429=VERTEX_POINT('',#1645);
#430=VERTEX_POINT('',#1647);
#431=VERTEX_POINT('',#1649);
#432=VERTEX_POINT('',#1652);
#433=VERTEX_POINT('',#1655);
#434=VERTEX_POINT('',#1657);
#435=VERTEX_POINT('',#1661);
#436=VERTEX_POINT('',#1663);
#437=VERTEX_POINT('',#1667);
#438=VERTEX_POINT('',#1669);
#439=VERTEX_POINT('',#1671);
#440=VERTEX_POINT('',#1675);
#441=VERTEX_POINT('',#1677);
#442=VERTEX_POINT('',#1680);
#443=VERTEX_POINT('',#1683);
#444=VERTEX_POINT('',#1687);
#445=VERTEX_POINT('',#1689);
#446=VERTEX_POINT('',#1691);
#447=VERTEX_POINT('',#1693);
#448=VERTEX_POINT('',#1695);
#449=VERTEX_POINT('',#1697);
#450=VERTEX_POINT('',#1699);
#451=VERTEX_POINT('',#1701);
#452=VERTEX_POINT('',#1703);
#453=VERTEX_POINT('',#1706);
#454=VERTEX_POINT('',#1709);
#455=VERTEX_POINT('',#1711);
#456=VERTEX_POINT('',#1713);
#457=VERTEX_POINT('',#1716);
#458=VERTEX_POINT('',#1717);
#459=VERTEX_POINT('',#1719);
#460=VERTEX_POINT('',#1721);
#461=VERTEX_POINT('',#1725);
#462=VERTEX_POINT('',#1730);
#463=VERTEX_POINT('',#1732);
#464=VERTEX_POINT('',#1735);
#465=VERTEX_POINT('',#1738);
#466=VERTEX_POINT('',#1739);
#467=VERTEX_POINT('',#1741);
#468=VERTEX_POINT('',#1743);
#469=VERTEX_POINT('',#1747);
#470=VERTEX_POINT('',#1749);
#471=VERTEX_POINT('',#1753);
#472=VERTEX_POINT('',#1755);
#473=VERTEX_POINT('',#1757);
#474=VERTEX_POINT('',#1759);
#475=VERTEX_POINT('',#1761);
#476=VERTEX_POINT('',#1763);
#477=VERTEX_POINT('',#1765);
#478=VERTEX_POINT('',#1768);
#479=VERTEX_POINT('',#1771);
#480=VERTEX_POINT('',#1773);
#481=VERTEX_POINT('',#1777);
#482=VERTEX_POINT('',#1781);
#483=VERTEX_POINT('',#1783);
#484=VERTEX_POINT('',#1787);
#485=VERTEX_POINT('',#1791);
#486=VERTEX_POINT('',#1792);
#487=VERTEX_POINT('',#1797);
#488=VERTEX_POINT('',#1801);
#489=VERTEX_POINT('',#1803);
#490=VERTEX_POINT('',#1809);
#491=VERTEX_POINT('',#1814);
#492=VERTEX_POINT('',#1815);
#493=VERTEX_POINT('',#1820);
#494=VERTEX_POINT('',#1829);
#495=VERTEX_POINT('',#1835);
#496=VERTEX_POINT('',#1846);
#497=VERTEX_POINT('',#1848);
#498=VERTEX_POINT('',#1852);
#499=VERTEX_POINT('',#1862);
#500=EDGE_CURVE('',#396,#397,#389,.T.);
#501=EDGE_CURVE('',#397,#398,#241,.T.);
#502=EDGE_CURVE('',#398,#399,#390,.T.);
#503=EDGE_CURVE('',#399,#400,#242,.T.);
#504=EDGE_CURVE('',#400,#396,#391,.T.);
#505=EDGE_CURVE('',#397,#401,#27,.T.);
#506=EDGE_CURVE('',#402,#401,#28,.T.);
#507=EDGE_CURVE('',#403,#402,#29,.T.);
#508=EDGE_CURVE('',#403,#404,#30,.T.);
#509=EDGE_CURVE('',#405,#404,#243,.T.);
#510=EDGE_CURVE('',#405,#406,#31,.T.);
#511=EDGE_CURVE('',#407,#406,#244,.T.);
#512=EDGE_CURVE('',#407,#408,#32,.T.);
#513=EDGE_CURVE('',#409,#408,#33,.T.);
#514=EDGE_CURVE('',#409,#410,#34,.T.);
#515=EDGE_CURVE('',#410,#398,#35,.T.);
#516=EDGE_CURVE('',#411,#411,#36,.T.);
#517=EDGE_CURVE('',#412,#396,#245,.T.);
#518=EDGE_CURVE('',#413,#412,#37,.T.);
#519=EDGE_CURVE('',#401,#413,#246,.T.);
#520=EDGE_CURVE('',#400,#414,#38,.T.);
#521=EDGE_CURVE('',#414,#415,#247,.T.);
#522=EDGE_CURVE('',#415,#412,#39,.T.);
#523=EDGE_CURVE('',#416,#417,#392,.T.);
#524=EDGE_CURVE('',#417,#418,#248,.T.);
#525=EDGE_CURVE('',#418,#419,#393,.T.);
#526=EDGE_CURVE('',#419,#420,#394,.T.);
#527=EDGE_CURVE('',#420,#421,#249,.F.);
#528=EDGE_CURVE('',#421,#416,#395,.T.);
#529=EDGE_CURVE('',#422,#417,#40,.T.);
#530=EDGE_CURVE('',#422,#423,#41,.T.);
#531=EDGE_CURVE('',#424,#423,#42,.T.);
#532=EDGE_CURVE('',#424,#425,#43,.T.);
#533=EDGE_CURVE('',#425,#426,#250,.T.);
#534=EDGE_CURVE('',#426,#427,#44,.T.);
#535=EDGE_CURVE('',#427,#428,#251,.T.);
#536=EDGE_CURVE('',#428,#429,#45,.T.);
#537=EDGE_CURVE('',#430,#429,#46,.T.);
#538=EDGE_CURVE('',#430,#431,#47,.T.);
#539=EDGE_CURVE('',#418,#431,#48,.T.);
#540=EDGE_CURVE('',#432,#432,#49,.T.);
#541=EDGE_CURVE('',#433,#416,#252,.T.);
#542=EDGE_CURVE('',#433,#434,#50,.T.);
#543=EDGE_CURVE('',#434,#422,#253,.T.);
#544=EDGE_CURVE('',#421,#435,#51,.T.);
#545=EDGE_CURVE('',#435,#436,#254,.T.);
#546=EDGE_CURVE('',#436,#433,#52,.T.);
#547=EDGE_CURVE('',#419,#437,#255,.T.);
#548=EDGE_CURVE('',#437,#438,#53,.T.);
#549=EDGE_CURVE('',#438,#439,#256,.T.);
#550=EDGE_CURVE('',#439,#420,#54,.T.);
#551=EDGE_CURVE('',#439,#440,#257,.T.);
#552=EDGE_CURVE('',#440,#441,#55,.T.);
#553=EDGE_CURVE('',#441,#435,#258,.T.);
#554=EDGE_CURVE('',#442,#442,#56,.T.);
#555=EDGE_CURVE('',#438,#443,#259,.T.);
#556=EDGE_CURVE('',#443,#440,#260,.T.);
#557=EDGE_CURVE('',#444,#437,#57,.T.);
#558=EDGE_CURVE('',#444,#445,#58,.T.);
#559=EDGE_CURVE('',#446,#445,#59,.T.);
#560=EDGE_CURVE('',#447,#446,#60,.T.);
#561=EDGE_CURVE('',#447,#448,#261,.T.);
#562=EDGE_CURVE('',#448,#449,#61,.T.);
#563=EDGE_CURVE('',#450,#449,#262,.T.);
#564=EDGE_CURVE('',#451,#450,#62,.T.);
#565=EDGE_CURVE('',#452,#451,#63,.T.);
#566=EDGE_CURVE('',#452,#434,#64,.T.);
#567=EDGE_CURVE('',#436,#453,#263,.T.);
#568=EDGE_CURVE('',#453,#443,#65,.T.);
#569=EDGE_CURVE('',#454,#454,#66,.T.);
#570=EDGE_CURVE('',#455,#455,#67,.T.);
#571=EDGE_CURVE('',#456,#456,#68,.T.);
#572=EDGE_CURVE('',#457,#458,#69,.T.);
#573=EDGE_CURVE('',#458,#459,#264,.T.);
#574=EDGE_CURVE('',#459,#460,#70,.T.);
#575=EDGE_CURVE('',#460,#457,#265,.T.);
#576=EDGE_CURVE('',#410,#461,#266,.T.);
#577=EDGE_CURVE('',#459,#461,#71,.T.);
#578=EDGE_CURVE('',#399,#458,#72,.T.);
#579=EDGE_CURVE('',#457,#462,#267,.T.);
#580=EDGE_CURVE('',#462,#463,#73,.T.);
#581=EDGE_CURVE('',#463,#414,#268,.T.);
#582=EDGE_CURVE('',#464,#464,#74,.T.);
#583=EDGE_CURVE('',#465,#466,#75,.T.);
#584=EDGE_CURVE('',#466,#467,#269,.T.);
#585=EDGE_CURVE('',#467,#468,#76,.T.);
#586=EDGE_CURVE('',#468,#465,#270,.T.);
#587=EDGE_CURVE('',#469,#468,#271,.T.);
#588=EDGE_CURVE('',#470,#469,#272,.T.);
#589=EDGE_CURVE('',#465,#470,#273,.T.);
#590=EDGE_CURVE('',#467,#471,#77,.T.);
#591=EDGE_CURVE('',#471,#472,#78,.T.);
#592=EDGE_CURVE('',#473,#472,#274,.T.);
#593=EDGE_CURVE('',#474,#473,#79,.F.);
#594=EDGE_CURVE('',#474,#475,#80,.T.);
#595=EDGE_CURVE('',#476,#475,#81,.T.);
#596=EDGE_CURVE('',#476,#477,#275,.T.);
#597=EDGE_CURVE('',#477,#469,#82,.T.);
#598=EDGE_CURVE('',#478,#478,#83,.T.);
#599=EDGE_CURVE('',#450,#479,#276,.T.);
#600=EDGE_CURVE('',#479,#480,#84,.T.);
#601=EDGE_CURVE('',#480,#451,#277,.T.);
#602=EDGE_CURVE('',#449,#481,#278,.T.);
#603=EDGE_CURVE('',#479,#481,#279,.T.);
#604=EDGE_CURVE('',#446,#482,#280,.T.);
#605=EDGE_CURVE('',#482,#483,#85,.T.);
#606=EDGE_CURVE('',#483,#447,#281,.T.);
#607=EDGE_CURVE('',#484,#483,#282,.T.);
#608=EDGE_CURVE('',#448,#484,#283,.T.);
#609=EDGE_CURVE('',#485,#486,#86,.T.);
#610=EDGE_CURVE('',#486,#476,#284,.T.);
#611=EDGE_CURVE('',#475,#485,#285,.T.);
#612=EDGE_CURVE('',#486,#487,#286,.T.);
#613=EDGE_CURVE('',#487,#477,#287,.T.);
#614=EDGE_CURVE('',#473,#488,#288,.T.);
#615=EDGE_CURVE('',#489,#488,#87,.T.);
#616=EDGE_CURVE('',#489,#474,#289,.T.);
#617=EDGE_CURVE('',#445,#430,#290,.T.);
#618=EDGE_CURVE('',#429,#403,#291,.T.);
#619=EDGE_CURVE('',#402,#490,#292,.T.);
#620=EDGE_CURVE('',#485,#490,#88,.T.);
#621=EDGE_CURVE('',#482,#489,#89,.T.);
#622=EDGE_CURVE('',#491,#492,#90,.F.);
#623=EDGE_CURVE('',#492,#472,#293,.T.);
#624=EDGE_CURVE('',#471,#491,#294,.T.);
#625=EDGE_CURVE('',#493,#466,#91,.T.);
#626=EDGE_CURVE('',#409,#493,#295,.T.);
#627=EDGE_CURVE('',#408,#424,#296,.T.);
#628=EDGE_CURVE('',#452,#423,#297,.T.);
#629=EDGE_CURVE('',#491,#480,#92,.T.);
#630=EDGE_CURVE('',#481,#484,#93,.T.);
#631=EDGE_CURVE('',#494,#494,#94,.T.);
#632=EDGE_CURVE('',#494,#456,#298,.T.);
#633=EDGE_CURVE('',#492,#488,#299,.T.);
#634=EDGE_CURVE('',#478,#495,#300,.T.);
#635=EDGE_CURVE('',#495,#495,#95,.T.);
#636=EDGE_CURVE('',#470,#487,#96,.T.);
#637=EDGE_CURVE('',#442,#455,#301,.T.);
#638=EDGE_CURVE('',#453,#441,#302,.T.);
#639=EDGE_CURVE('',#496,#462,#303,.T.);
#640=EDGE_CURVE('',#497,#496,#97,.T.);
#641=EDGE_CURVE('',#497,#463,#304,.T.);
#642=EDGE_CURVE('',#464,#498,#305,.T.);
#643=EDGE_CURVE('',#498,#498,#98,.T.);
#644=EDGE_CURVE('',#496,#460,#306,.T.);
#645=EDGE_CURVE('',#497,#415,#307,.T.);
#646=EDGE_CURVE('',#461,#493,#99,.T.);
#647=EDGE_CURVE('',#490,#413,#100,.T.);
#648=EDGE_CURVE('',#499,#499,#101,.T.);
#649=EDGE_CURVE('',#444,#431,#308,.T.);
#650=EDGE_CURVE('',#432,#454,#309,.T.);
#651=EDGE_CURVE('',#499,#411,#310,.T.);
#652=EDGE_CURVE('',#428,#404,#311,.T.);
#653=EDGE_CURVE('',#427,#405,#312,.T.);
#654=EDGE_CURVE('',#426,#406,#313,.T.);
#655=EDGE_CURVE('',#407,#425,#314,.T.);
#656=ORIENTED_EDGE('',*,*,#500,.T.);
#657=ORIENTED_EDGE('',*,*,#501,.T.);
#658=ORIENTED_EDGE('',*,*,#502,.T.);
#659=ORIENTED_EDGE('',*,*,#503,.T.);
#660=ORIENTED_EDGE('',*,*,#504,.T.);
#661=ORIENTED_EDGE('',*,*,#501,.F.);
#662=ORIENTED_EDGE('',*,*,#505,.T.);
#663=ORIENTED_EDGE('',*,*,#506,.F.);
#664=ORIENTED_EDGE('',*,*,#507,.F.);
#665=ORIENTED_EDGE('',*,*,#508,.T.);
#666=ORIENTED_EDGE('',*,*,#509,.F.);
#667=ORIENTED_EDGE('',*,*,#510,.T.);
#668=ORIENTED_EDGE('',*,*,#511,.F.);
#669=ORIENTED_EDGE('',*,*,#512,.T.);
#670=ORIENTED_EDGE('',*,*,#513,.F.);
#671=ORIENTED_EDGE('',*,*,#514,.T.);
#672=ORIENTED_EDGE('',*,*,#515,.T.);
#673=ORIENTED_EDGE('',*,*,#516,.F.);
#674=ORIENTED_EDGE('',*,*,#500,.F.);
#675=ORIENTED_EDGE('',*,*,#517,.F.);
#676=ORIENTED_EDGE('',*,*,#518,.F.);
#677=ORIENTED_EDGE('',*,*,#519,.F.);
#678=ORIENTED_EDGE('',*,*,#505,.F.);
#679=ORIENTED_EDGE('',*,*,#504,.F.);
#680=ORIENTED_EDGE('',*,*,#520,.T.);
#681=ORIENTED_EDGE('',*,*,#521,.T.);
#682=ORIENTED_EDGE('',*,*,#522,.T.);
#683=ORIENTED_EDGE('',*,*,#517,.T.);
#684=ORIENTED_EDGE('',*,*,#523,.T.);
#685=ORIENTED_EDGE('',*,*,#524,.T.);
#686=ORIENTED_EDGE('',*,*,#525,.T.);
#687=ORIENTED_EDGE('',*,*,#526,.T.);
#688=ORIENTED_EDGE('',*,*,#527,.T.);
#689=ORIENTED_EDGE('',*,*,#528,.T.);
#690=ORIENTED_EDGE('',*,*,#524,.F.);
#691=ORIENTED_EDGE('',*,*,#529,.F.);
#692=ORIENTED_EDGE('',*,*,#530,.T.);
#693=ORIENTED_EDGE('',*,*,#531,.F.);
#694=ORIENTED_EDGE('',*,*,#532,.T.);
#695=ORIENTED_EDGE('',*,*,#533,.T.);
#696=ORIENTED_EDGE('',*,*,#534,.T.);
#697=ORIENTED_EDGE('',*,*,#535,.T.);
#698=ORIENTED_EDGE('',*,*,#536,.T.);
#699=ORIENTED_EDGE('',*,*,#537,.F.);
#700=ORIENTED_EDGE('',*,*,#538,.T.);
#701=ORIENTED_EDGE('',*,*,#539,.F.);
#702=ORIENTED_EDGE('',*,*,#540,.T.);
#703=ORIENTED_EDGE('',*,*,#523,.F.);
#704=ORIENTED_EDGE('',*,*,#541,.F.);
#705=ORIENTED_EDGE('',*,*,#542,.T.);
#706=ORIENTED_EDGE('',*,*,#543,.T.);
#707=ORIENTED_EDGE('',*,*,#529,.T.);
#708=ORIENTED_EDGE('',*,*,#528,.F.);
#709=ORIENTED_EDGE('',*,*,#544,.T.);
#710=ORIENTED_EDGE('',*,*,#545,.T.);
#711=ORIENTED_EDGE('',*,*,#546,.T.);
#712=ORIENTED_EDGE('',*,*,#541,.T.);
#713=ORIENTED_EDGE('',*,*,#526,.F.);
#714=ORIENTED_EDGE('',*,*,#547,.T.);
#715=ORIENTED_EDGE('',*,*,#548,.T.);
#716=ORIENTED_EDGE('',*,*,#549,.T.);
#717=ORIENTED_EDGE('',*,*,#550,.T.);
#718=ORIENTED_EDGE('',*,*,#550,.F.);
#719=ORIENTED_EDGE('',*,*,#551,.T.);
#720=ORIENTED_EDGE('',*,*,#552,.T.);
#721=ORIENTED_EDGE('',*,*,#553,.T.);
#722=ORIENTED_EDGE('',*,*,#544,.F.);
#723=ORIENTED_EDGE('',*,*,#527,.F.);
#724=ORIENTED_EDGE('',*,*,#554,.T.);
#725=ORIENTED_EDGE('',*,*,#549,.F.);
#726=ORIENTED_EDGE('',*,*,#555,.T.);
#727=ORIENTED_EDGE('',*,*,#556,.T.);
#728=ORIENTED_EDGE('',*,*,#551,.F.);
#729=ORIENTED_EDGE('',*,*,#548,.F.);
#730=ORIENTED_EDGE('',*,*,#557,.F.);
#731=ORIENTED_EDGE('',*,*,#558,.T.);
#732=ORIENTED_EDGE('',*,*,#559,.F.);
#733=ORIENTED_EDGE('',*,*,#560,.F.);
#734=ORIENTED_EDGE('',*,*,#561,.T.);
#735=ORIENTED_EDGE('',*,*,#562,.T.);
#736=ORIENTED_EDGE('',*,*,#563,.F.);
#737=ORIENTED_EDGE('',*,*,#564,.F.);
#738=ORIENTED_EDGE('',*,*,#565,.F.);
#739=ORIENTED_EDGE('',*,*,#566,.T.);
#740=ORIENTED_EDGE('',*,*,#542,.F.);
#741=ORIENTED_EDGE('',*,*,#546,.F.);
#742=ORIENTED_EDGE('',*,*,#567,.T.);
#743=ORIENTED_EDGE('',*,*,#568,.T.);
#744=ORIENTED_EDGE('',*,*,#555,.F.);
#745=ORIENTED_EDGE('',*,*,#569,.F.);
#746=ORIENTED_EDGE('',*,*,#570,.F.);
#747=ORIENTED_EDGE('',*,*,#571,.F.);
#748=ORIENTED_EDGE('',*,*,#572,.T.);
#749=ORIENTED_EDGE('',*,*,#573,.T.);
#750=ORIENTED_EDGE('',*,*,#574,.T.);
#751=ORIENTED_EDGE('',*,*,#575,.T.);
#752=ORIENTED_EDGE('',*,*,#502,.F.);
#753=ORIENTED_EDGE('',*,*,#515,.F.);
#754=ORIENTED_EDGE('',*,*,#576,.T.);
#755=ORIENTED_EDGE('',*,*,#577,.F.);
#756=ORIENTED_EDGE('',*,*,#573,.F.);
#757=ORIENTED_EDGE('',*,*,#578,.F.);
#758=ORIENTED_EDGE('',*,*,#572,.F.);
#759=ORIENTED_EDGE('',*,*,#579,.T.);
#760=ORIENTED_EDGE('',*,*,#580,.T.);
#761=ORIENTED_EDGE('',*,*,#581,.T.);
#762=ORIENTED_EDGE('',*,*,#520,.F.);
#763=ORIENTED_EDGE('',*,*,#503,.F.);
#764=ORIENTED_EDGE('',*,*,#578,.T.);
#765=ORIENTED_EDGE('',*,*,#582,.T.);
#766=ORIENTED_EDGE('',*,*,#583,.T.);
#767=ORIENTED_EDGE('',*,*,#584,.T.);
#768=ORIENTED_EDGE('',*,*,#585,.T.);
#769=ORIENTED_EDGE('',*,*,#586,.T.);
#770=ORIENTED_EDGE('',*,*,#586,.F.);
#771=ORIENTED_EDGE('',*,*,#587,.F.);
#772=ORIENTED_EDGE('',*,*,#588,.F.);
#773=ORIENTED_EDGE('',*,*,#589,.F.);
#774=ORIENTED_EDGE('',*,*,#585,.F.);
#775=ORIENTED_EDGE('',*,*,#590,.T.);
#776=ORIENTED_EDGE('',*,*,#591,.T.);
#777=ORIENTED_EDGE('',*,*,#592,.F.);
#778=ORIENTED_EDGE('',*,*,#593,.F.);
#779=ORIENTED_EDGE('',*,*,#594,.T.);
#780=ORIENTED_EDGE('',*,*,#595,.F.);
#781=ORIENTED_EDGE('',*,*,#596,.T.);
#782=ORIENTED_EDGE('',*,*,#597,.T.);
#783=ORIENTED_EDGE('',*,*,#587,.T.);
#784=ORIENTED_EDGE('',*,*,#598,.T.);
#785=ORIENTED_EDGE('',*,*,#564,.T.);
#786=ORIENTED_EDGE('',*,*,#599,.T.);
#787=ORIENTED_EDGE('',*,*,#600,.T.);
#788=ORIENTED_EDGE('',*,*,#601,.T.);
#789=ORIENTED_EDGE('',*,*,#599,.F.);
#790=ORIENTED_EDGE('',*,*,#563,.T.);
#791=ORIENTED_EDGE('',*,*,#602,.T.);
#792=ORIENTED_EDGE('',*,*,#603,.F.);
#793=ORIENTED_EDGE('',*,*,#560,.T.);
#794=ORIENTED_EDGE('',*,*,#604,.T.);
#795=ORIENTED_EDGE('',*,*,#605,.T.);
#796=ORIENTED_EDGE('',*,*,#606,.T.);
#797=ORIENTED_EDGE('',*,*,#606,.F.);
#798=ORIENTED_EDGE('',*,*,#607,.F.);
#799=ORIENTED_EDGE('',*,*,#608,.F.);
#800=ORIENTED_EDGE('',*,*,#561,.F.);
#801=ORIENTED_EDGE('',*,*,#609,.T.);
#802=ORIENTED_EDGE('',*,*,#610,.T.);
#803=ORIENTED_EDGE('',*,*,#595,.T.);
#804=ORIENTED_EDGE('',*,*,#611,.T.);
#805=ORIENTED_EDGE('',*,*,#610,.F.);
#806=ORIENTED_EDGE('',*,*,#612,.T.);
#807=ORIENTED_EDGE('',*,*,#613,.T.);
#808=ORIENTED_EDGE('',*,*,#596,.F.);
#809=ORIENTED_EDGE('',*,*,#593,.T.);
#810=ORIENTED_EDGE('',*,*,#614,.T.);
#811=ORIENTED_EDGE('',*,*,#615,.F.);
#812=ORIENTED_EDGE('',*,*,#616,.T.);
#813=ORIENTED_EDGE('',*,*,#604,.F.);
#814=ORIENTED_EDGE('',*,*,#559,.T.);
#815=ORIENTED_EDGE('',*,*,#617,.T.);
#816=ORIENTED_EDGE('',*,*,#537,.T.);
#817=ORIENTED_EDGE('',*,*,#618,.T.);
#818=ORIENTED_EDGE('',*,*,#507,.T.);
#819=ORIENTED_EDGE('',*,*,#619,.T.);
#820=ORIENTED_EDGE('',*,*,#620,.F.);
#821=ORIENTED_EDGE('',*,*,#611,.F.);
#822=ORIENTED_EDGE('',*,*,#594,.F.);
#823=ORIENTED_EDGE('',*,*,#616,.F.);
#824=ORIENTED_EDGE('',*,*,#621,.F.);
#825=ORIENTED_EDGE('',*,*,#622,.T.);
#826=ORIENTED_EDGE('',*,*,#623,.T.);
#827=ORIENTED_EDGE('',*,*,#591,.F.);
#828=ORIENTED_EDGE('',*,*,#624,.T.);
#829=ORIENTED_EDGE('',*,*,#584,.F.);
#830=ORIENTED_EDGE('',*,*,#625,.F.);
#831=ORIENTED_EDGE('',*,*,#626,.F.);
#832=ORIENTED_EDGE('',*,*,#513,.T.);
#833=ORIENTED_EDGE('',*,*,#627,.T.);
#834=ORIENTED_EDGE('',*,*,#531,.T.);
#835=ORIENTED_EDGE('',*,*,#628,.F.);
#836=ORIENTED_EDGE('',*,*,#565,.T.);
#837=ORIENTED_EDGE('',*,*,#601,.F.);
#838=ORIENTED_EDGE('',*,*,#629,.F.);
#839=ORIENTED_EDGE('',*,*,#624,.F.);
#840=ORIENTED_EDGE('',*,*,#590,.F.);
#841=ORIENTED_EDGE('',*,*,#602,.F.);
#842=ORIENTED_EDGE('',*,*,#562,.F.);
#843=ORIENTED_EDGE('',*,*,#608,.T.);
#844=ORIENTED_EDGE('',*,*,#630,.F.);
#845=ORIENTED_EDGE('',*,*,#631,.F.);
#846=ORIENTED_EDGE('',*,*,#632,.T.);
#847=ORIENTED_EDGE('',*,*,#571,.T.);
#848=ORIENTED_EDGE('',*,*,#632,.F.);
#849=ORIENTED_EDGE('',*,*,#600,.F.);
#850=ORIENTED_EDGE('',*,*,#603,.T.);
#851=ORIENTED_EDGE('',*,*,#630,.T.);
#852=ORIENTED_EDGE('',*,*,#607,.T.);
#853=ORIENTED_EDGE('',*,*,#605,.F.);
#854=ORIENTED_EDGE('',*,*,#621,.T.);
#855=ORIENTED_EDGE('',*,*,#615,.T.);
#856=ORIENTED_EDGE('',*,*,#633,.F.);
#857=ORIENTED_EDGE('',*,*,#622,.F.);
#858=ORIENTED_EDGE('',*,*,#629,.T.);
#859=ORIENTED_EDGE('',*,*,#631,.T.);
#860=ORIENTED_EDGE('',*,*,#598,.F.);
#861=ORIENTED_EDGE('',*,*,#634,.T.);
#862=ORIENTED_EDGE('',*,*,#635,.T.);
#863=ORIENTED_EDGE('',*,*,#634,.F.);
#864=ORIENTED_EDGE('',*,*,#588,.T.);
#865=ORIENTED_EDGE('',*,*,#597,.F.);
#866=ORIENTED_EDGE('',*,*,#613,.F.);
#867=ORIENTED_EDGE('',*,*,#636,.F.);
#868=ORIENTED_EDGE('',*,*,#554,.F.);
#869=ORIENTED_EDGE('',*,*,#637,.T.);
#870=ORIENTED_EDGE('',*,*,#570,.T.);
#871=ORIENTED_EDGE('',*,*,#637,.F.);
#872=ORIENTED_EDGE('',*,*,#638,.T.);
#873=ORIENTED_EDGE('',*,*,#552,.F.);
#874=ORIENTED_EDGE('',*,*,#556,.F.);
#875=ORIENTED_EDGE('',*,*,#568,.F.);
#876=ORIENTED_EDGE('',*,*,#545,.F.);
#877=ORIENTED_EDGE('',*,*,#553,.F.);
#878=ORIENTED_EDGE('',*,*,#638,.F.);
#879=ORIENTED_EDGE('',*,*,#567,.F.);
#880=ORIENTED_EDGE('',*,*,#639,.F.);
#881=ORIENTED_EDGE('',*,*,#640,.F.);
#882=ORIENTED_EDGE('',*,*,#641,.T.);
#883=ORIENTED_EDGE('',*,*,#580,.F.);
#884=ORIENTED_EDGE('',*,*,#582,.F.);
#885=ORIENTED_EDGE('',*,*,#642,.T.);
#886=ORIENTED_EDGE('',*,*,#643,.T.);
#887=ORIENTED_EDGE('',*,*,#642,.F.);
#888=ORIENTED_EDGE('',*,*,#575,.F.);
#889=ORIENTED_EDGE('',*,*,#644,.F.);
#890=ORIENTED_EDGE('',*,*,#639,.T.);
#891=ORIENTED_EDGE('',*,*,#579,.F.);
#892=ORIENTED_EDGE('',*,*,#521,.F.);
#893=ORIENTED_EDGE('',*,*,#581,.F.);
#894=ORIENTED_EDGE('',*,*,#641,.F.);
#895=ORIENTED_EDGE('',*,*,#645,.T.);
#896=ORIENTED_EDGE('',*,*,#574,.F.);
#897=ORIENTED_EDGE('',*,*,#577,.T.);
#898=ORIENTED_EDGE('',*,*,#646,.T.);
#899=ORIENTED_EDGE('',*,*,#625,.T.);
#900=ORIENTED_EDGE('',*,*,#583,.F.);
#901=ORIENTED_EDGE('',*,*,#589,.T.);
#902=ORIENTED_EDGE('',*,*,#636,.T.);
#903=ORIENTED_EDGE('',*,*,#612,.F.);
#904=ORIENTED_EDGE('',*,*,#609,.F.);
#905=ORIENTED_EDGE('',*,*,#620,.T.);
#906=ORIENTED_EDGE('',*,*,#647,.T.);
#907=ORIENTED_EDGE('',*,*,#518,.T.);
#908=ORIENTED_EDGE('',*,*,#522,.F.);
#909=ORIENTED_EDGE('',*,*,#645,.F.);
#910=ORIENTED_EDGE('',*,*,#640,.T.);
#911=ORIENTED_EDGE('',*,*,#644,.T.);
#912=ORIENTED_EDGE('',*,*,#635,.F.);
#913=ORIENTED_EDGE('',*,*,#643,.F.);
#914=ORIENTED_EDGE('',*,*,#648,.T.);
#915=ORIENTED_EDGE('',*,*,#525,.F.);
#916=ORIENTED_EDGE('',*,*,#539,.T.);
#917=ORIENTED_EDGE('',*,*,#649,.F.);
#918=ORIENTED_EDGE('',*,*,#557,.T.);
#919=ORIENTED_EDGE('',*,*,#547,.F.);
#920=ORIENTED_EDGE('',*,*,#614,.F.);
#921=ORIENTED_EDGE('',*,*,#592,.T.);
#922=ORIENTED_EDGE('',*,*,#623,.F.);
#923=ORIENTED_EDGE('',*,*,#633,.T.);
#924=ORIENTED_EDGE('',*,*,#538,.F.);
#925=ORIENTED_EDGE('',*,*,#617,.F.);
#926=ORIENTED_EDGE('',*,*,#558,.F.);
#927=ORIENTED_EDGE('',*,*,#649,.T.);
#928=ORIENTED_EDGE('',*,*,#530,.F.);
#929=ORIENTED_EDGE('',*,*,#543,.F.);
#930=ORIENTED_EDGE('',*,*,#566,.F.);
#931=ORIENTED_EDGE('',*,*,#628,.T.);
#932=ORIENTED_EDGE('',*,*,#506,.T.);
#933=ORIENTED_EDGE('',*,*,#519,.T.);
#934=ORIENTED_EDGE('',*,*,#647,.F.);
#935=ORIENTED_EDGE('',*,*,#619,.F.);
#936=ORIENTED_EDGE('',*,*,#514,.F.);
#937=ORIENTED_EDGE('',*,*,#626,.T.);
#938=ORIENTED_EDGE('',*,*,#646,.F.);
#939=ORIENTED_EDGE('',*,*,#576,.F.);
#940=ORIENTED_EDGE('',*,*,#540,.F.);
#941=ORIENTED_EDGE('',*,*,#650,.T.);
#942=ORIENTED_EDGE('',*,*,#569,.T.);
#943=ORIENTED_EDGE('',*,*,#650,.F.);
#944=ORIENTED_EDGE('',*,*,#648,.F.);
#945=ORIENTED_EDGE('',*,*,#651,.T.);
#946=ORIENTED_EDGE('',*,*,#516,.T.);
#947=ORIENTED_EDGE('',*,*,#651,.F.);
#948=ORIENTED_EDGE('',*,*,#652,.T.);
#949=ORIENTED_EDGE('',*,*,#508,.F.);
#950=ORIENTED_EDGE('',*,*,#618,.F.);
#951=ORIENTED_EDGE('',*,*,#536,.F.);
#952=ORIENTED_EDGE('',*,*,#653,.T.);
#953=ORIENTED_EDGE('',*,*,#509,.T.);
#954=ORIENTED_EDGE('',*,*,#652,.F.);
#955=ORIENTED_EDGE('',*,*,#535,.F.);
#956=ORIENTED_EDGE('',*,*,#654,.T.);
#957=ORIENTED_EDGE('',*,*,#510,.F.);
#958=ORIENTED_EDGE('',*,*,#653,.F.);
#959=ORIENTED_EDGE('',*,*,#534,.F.);
#960=ORIENTED_EDGE('',*,*,#655,.F.);
#961=ORIENTED_EDGE('',*,*,#511,.T.);
#962=ORIENTED_EDGE('',*,*,#654,.F.);
#963=ORIENTED_EDGE('',*,*,#533,.F.);
#964=ORIENTED_EDGE('',*,*,#655,.T.);
#965=ORIENTED_EDGE('',*,*,#532,.F.);
#966=ORIENTED_EDGE('',*,*,#627,.F.);
#967=ORIENTED_EDGE('',*,*,#512,.F.);
#968=CYLINDRICAL_SURFACE('',#1071,1.);
#969=CYLINDRICAL_SURFACE('',#1083,35.5);
#970=CYLINDRICAL_SURFACE('',#1085,10.);
#971=CYLINDRICAL_SURFACE('',#1088,1.);
#972=CYLINDRICAL_SURFACE('',#1100,35.5);
#973=CYLINDRICAL_SURFACE('',#1102,10.);
#974=CYLINDRICAL_SURFACE('',#1105,10.);
#975=CYLINDRICAL_SURFACE('',#1125,10.);
#976=CYLINDRICAL_SURFACE('',#1128,35.5);
#977=CYLINDRICAL_SURFACE('',#1134,10.);
#978=CYLINDRICAL_SURFACE('',#1146,10.);
#979=CYLINDRICAL_SURFACE('',#1149,10.);
#980=CYLINDRICAL_SURFACE('',#1152,10.);
#981=CYLINDRICAL_SURFACE('',#1155,1.);
#982=CYLINDRICAL_SURFACE('',#1157,35.);
#983=CYLINDRICAL_SURFACE('',#1160,0.5);
#984=CYLINDRICAL_SURFACE('',#1162,70.);
#985=CYLINDRICAL_SURFACE('',#1165,5.00000007450581);
#986=CYLINDRICAL_SURFACE('',#1167,2.5);
#987=CYLINDRICAL_SURFACE('',#1170,2.5);
#988=CYLINDRICAL_SURFACE('',#1172,5.);
#989=CYLINDRICAL_SURFACE('',#1174,2.5);
#990=CYLINDRICAL_SURFACE('',#1175,5.);
#991=CYLINDRICAL_SURFACE('',#1177,5.);
#992=CYLINDRICAL_SURFACE('',#1179,2.5);
#993=CYLINDRICAL_SURFACE('',#1187,35.5);
#994=CYLINDRICAL_SURFACE('',#1189,5.);
#995=CYLINDRICAL_SURFACE('',#1190,5.);
#996=CYLINDRICAL_SURFACE('',#1191,5.);
#997=CYLINDRICAL_SURFACE('',#1192,5.);
#998=CYLINDRICAL_SURFACE('',#1193,2.5);
#999=CYLINDRICAL_SURFACE('',#1194,2.5);
#1000=CYLINDRICAL_SURFACE('',#1195,2.);
#1001=CYLINDRICAL_SURFACE('',#1197,1.);
#1002=CYLINDRICAL_SURFACE('',#1199,1.);
#1003=ADVANCED_FACE('',(#121),#968,.T.);
#1004=ADVANCED_FACE('',(#122,#15),#102,.F.);
#1005=ADVANCED_FACE('',(#123),#969,.F.);
#1006=ADVANCED_FACE('',(#124),#970,.T.);
#1007=ADVANCED_FACE('',(#125),#971,.T.);
#1008=ADVANCED_FACE('',(#126,#16),#103,.T.);
#1009=ADVANCED_FACE('',(#127),#972,.F.);
#1010=ADVANCED_FACE('',(#128),#973,.F.);
#1011=ADVANCED_FACE('',(#129),#974,.T.);
#1012=ADVANCED_FACE('',(#130,#17),#104,.F.);
#1013=ADVANCED_FACE('',(#131),#105,.T.);
#1014=ADVANCED_FACE('',(#132,#18,#19,#20),#106,.F.);
#1015=ADVANCED_FACE('',(#133),#975,.T.);
#1016=ADVANCED_FACE('',(#134),#976,.F.);
#1017=ADVANCED_FACE('',(#135,#21),#107,.F.);
#1018=ADVANCED_FACE('',(#136),#977,.T.);
#1019=ADVANCED_FACE('',(#137),#108,.T.);
#1020=ADVANCED_FACE('',(#138,#22),#109,.F.);
#1021=ADVANCED_FACE('',(#139),#978,.T.);
#1022=ADVANCED_FACE('',(#140),#110,.T.);
#1023=ADVANCED_FACE('',(#141),#979,.T.);
#1024=ADVANCED_FACE('',(#142),#111,.T.);
#1025=ADVANCED_FACE('',(#143),#980,.T.);
#1026=ADVANCED_FACE('',(#144),#112,.T.);
#1027=ADVANCED_FACE('',(#145),#981,.T.);
#1028=ADVANCED_FACE('',(#146),#982,.F.);
#1029=ADVANCED_FACE('',(#147),#983,.T.);
#1030=ADVANCED_FACE('',(#148),#984,.F.);
#1031=ADVANCED_FACE('',(#149),#985,.T.);
#1032=ADVANCED_FACE('',(#150),#986,.F.);
#1033=ADVANCED_FACE('',(#151,#23),#113,.F.);
#1034=ADVANCED_FACE('',(#152),#987,.F.);
#1035=ADVANCED_FACE('',(#153),#988,.T.);
#1036=ADVANCED_FACE('',(#154),#989,.F.);
#1037=ADVANCED_FACE('',(#155),#990,.T.);
#1038=ADVANCED_FACE('',(#156),#114,.T.);
#1039=ADVANCED_FACE('',(#157),#991,.T.);
#1040=ADVANCED_FACE('',(#158),#992,.F.);
#1041=ADVANCED_FACE('',(#159),#115,.T.);
#1042=ADVANCED_FACE('',(#160),#116,.T.);
#1043=ADVANCED_FACE('',(#161,#24,#25,#26),#117,.T.);
#1044=ADVANCED_FACE('',(#162),#993,.F.);
#1045=ADVANCED_FACE('',(#163),#118,.F.);
#1046=ADVANCED_FACE('',(#164),#994,.T.);
#1047=ADVANCED_FACE('',(#165),#995,.T.);
#1048=ADVANCED_FACE('',(#166),#996,.T.);
#1049=ADVANCED_FACE('',(#167),#997,.T.);
#1050=ADVANCED_FACE('',(#168),#998,.F.);
#1051=ADVANCED_FACE('',(#169),#999,.F.);
#1052=ADVANCED_FACE('',(#170),#1000,.T.);
#1053=ADVANCED_FACE('',(#171),#119,.F.);
#1054=ADVANCED_FACE('',(#172),#1001,.T.);
#1055=ADVANCED_FACE('',(#173),#120,.F.);
#1056=ADVANCED_FACE('',(#174),#1002,.T.);
#1057=CLOSED_SHELL('',(#1003,#1004,#1005,#1006,#1007,#1008,#1009,#1010,
#1011,#1012,#1013,#1014,#1015,#1016,#1017,#1018,#1019,#1020,#1021,#1022,
#1023,#1024,#1025,#1026,#1027,#1028,#1029,#1030,#1031,#1032,#1033,#1034,
#1035,#1036,#1037,#1038,#1039,#1040,#1041,#1042,#1043,#1044,#1045,#1046,
#1047,#1048,#1049,#1050,#1051,#1052,#1053,#1054,#1055,#1056));
#1058=DERIVED_UNIT_ELEMENT(#1060,1.);
#1059=DERIVED_UNIT_ELEMENT(#1889,-3.);
#1060=(
MASS_UNIT()
NAMED_UNIT(*)
SI_UNIT(.KILO.,.GRAM.)
);
#1061=DERIVED_UNIT((#1058,#1059));
#1062=MEASURE_REPRESENTATION_ITEM('density measure',
POSITIVE_RATIO_MEASURE(7850.),#1061);
#1063=PROPERTY_DEFINITION_REPRESENTATION(#1068,#1065);
#1064=PROPERTY_DEFINITION_REPRESENTATION(#1069,#1066);
#1065=REPRESENTATION('material name',(#1067),#1886);
#1066=REPRESENTATION('density',(#1062),#1886);
#1067=DESCRIPTIVE_REPRESENTATION_ITEM('Acier','Acier');
#1068=PROPERTY_DEFINITION('material property','material name',#1896);
#1069=PROPERTY_DEFINITION('material property','density of part',#1896);
#1070=AXIS2_PLACEMENT_3D('',#1534,#1200,#1201);
#1071=AXIS2_PLACEMENT_3D('',#1535,#1202,#1203);
#1072=AXIS2_PLACEMENT_3D('',#1561,#1206,#1207);
#1073=AXIS2_PLACEMENT_3D('',#1563,#1208,#1209);
#1074=AXIS2_PLACEMENT_3D('',#1565,#1210,#1211);
#1075=AXIS2_PLACEMENT_3D('',#1567,#1212,#1213);
#1076=AXIS2_PLACEMENT_3D('',#1569,#1214,#1215);
#1077=AXIS2_PLACEMENT_3D('',#1573,#1217,#1218);
#1078=AXIS2_PLACEMENT_3D('',#1577,#1220,#1221);
#1079=AXIS2_PLACEMENT_3D('',#1579,#1222,#1223);
#1080=AXIS2_PLACEMENT_3D('',#1581,#1224,#1225);
#1081=AXIS2_PLACEMENT_3D('',#1582,#1226,#1227);
#1082=AXIS2_PLACEMENT_3D('',#1584,#1228,#1229);
#1083=AXIS2_PLACEMENT_3D('',#1585,#1230,#1231);
#1084=AXIS2_PLACEMENT_3D('',#1589,#1233,#1234);
#1085=AXIS2_PLACEMENT_3D('',#1591,#1236,#1237);
#1086=AXIS2_PLACEMENT_3D('',#1593,#1238,#1239);
#1087=AXIS2_PLACEMENT_3D('',#1596,#1241,#1242);
#1088=AXIS2_PLACEMENT_3D('',#1597,#1243,#1244);
#1089=AXIS2_PLACEMENT_3D('',#1630,#1247,#1248);
#1090=AXIS2_PLACEMENT_3D('',#1632,#1249,#1250);
#1091=AXIS2_PLACEMENT_3D('',#1634,#1251,#1252);
#1092=AXIS2_PLACEMENT_3D('',#1636,#1253,#1254);
#1093=AXIS2_PLACEMENT_3D('',#1638,#1255,#1256);
#1094=AXIS2_PLACEMENT_3D('',#1642,#1258,#1259);
#1095=AXIS2_PLACEMENT_3D('',#1646,#1261,#1262);
#1096=AXIS2_PLACEMENT_3D('',#1648,#1263,#1264);
#1097=AXIS2_PLACEMENT_3D('',#1650,#1265,#1266);
#1098=AXIS2_PLACEMENT_3D('',#1651,#1267,#1268);
#1099=AXIS2_PLACEMENT_3D('',#1653,#1269,#1270);
#1100=AXIS2_PLACEMENT_3D('',#1654,#1271,#1272);
#1101=AXIS2_PLACEMENT_3D('',#1658,#1274,#1275);
#1102=AXIS2_PLACEMENT_3D('',#1660,#1277,#1278);
#1103=AXIS2_PLACEMENT_3D('',#1662,#1279,#1280);
#1104=AXIS2_PLACEMENT_3D('',#1665,#1282,#1283);
#1105=AXIS2_PLACEMENT_3D('',#1666,#1284,#1285);
#1106=AXIS2_PLACEMENT_3D('',#1670,#1287,#1288);
#1107=AXIS2_PLACEMENT_3D('',#1673,#1290,#1291);
#1108=AXIS2_PLACEMENT_3D('',#1674,#1292,#1293);
#1109=AXIS2_PLACEMENT_3D('',#1678,#1295,#1296);
#1110=AXIS2_PLACEMENT_3D('',#1681,#1298,#1299);
#1111=AXIS2_PLACEMENT_3D('',#1682,#1300,#1301);
#1112=AXIS2_PLACEMENT_3D('',#1686,#1304,#1305);
#1113=AXIS2_PLACEMENT_3D('',#1688,#1306,#1307);
#1114=AXIS2_PLACEMENT_3D('',#1690,#1308,#1309);
#1115=AXIS2_PLACEMENT_3D('',#1692,#1310,#1311);
#1116=AXIS2_PLACEMENT_3D('',#1694,#1312,#1313);
#1117=AXIS2_PLACEMENT_3D('',#1698,#1315,#1316);
#1118=AXIS2_PLACEMENT_3D('',#1702,#1318,#1319);
#1119=AXIS2_PLACEMENT_3D('',#1704,#1320,#1321);
#1120=AXIS2_PLACEMENT_3D('',#1705,#1322,#1323);
#1121=AXIS2_PLACEMENT_3D('',#1708,#1325,#1326);
#1122=AXIS2_PLACEMENT_3D('',#1710,#1327,#1328);
#1123=AXIS2_PLACEMENT_3D('',#1712,#1329,#1330);
#1124=AXIS2_PLACEMENT_3D('',#1714,#1331,#1332);
#1125=AXIS2_PLACEMENT_3D('',#1715,#1333,#1334);
#1126=AXIS2_PLACEMENT_3D('',#1718,#1335,#1336);
#1127=AXIS2_PLACEMENT_3D('',#1722,#1338,#1339);
#1128=AXIS2_PLACEMENT_3D('',#1724,#1341,#1342);
#1129=AXIS2_PLACEMENT_3D('',#1727,#1344,#1345);
#1130=AXIS2_PLACEMENT_3D('',#1728,#1346,#1347);
#1131=AXIS2_PLACEMENT_3D('',#1729,#1348,#1349);
#1132=AXIS2_PLACEMENT_3D('',#1733,#1351,#1352);
#1133=AXIS2_PLACEMENT_3D('',#1736,#1354,#1355);
#1134=AXIS2_PLACEMENT_3D('',#1737,#1356,#1357);
#1135=AXIS2_PLACEMENT_3D('',#1740,#1358,#1359);
#1136=AXIS2_PLACEMENT_3D('',#1744,#1361,#1362);
#1137=AXIS2_PLACEMENT_3D('',#1746,#1364,#1365);
#1138=AXIS2_PLACEMENT_3D('',#1752,#1369,#1370);
#1139=AXIS2_PLACEMENT_3D('',#1754,#1371,#1372);
#1140=AXIS2_PLACEMENT_3D('',#1756,#1373,#1374);
#1141=AXIS2_PLACEMENT_3D('',#1760,#1376,#1377);
#1142=AXIS2_PLACEMENT_3D('',#1762,#1378,#1379);
#1143=AXIS2_PLACEMENT_3D('',#1764,#1380,#1381);
#1144=AXIS2_PLACEMENT_3D('',#1767,#1383,#1384);
#1145=AXIS2_PLACEMENT_3D('',#1769,#1385,#1386);
#1146=AXIS2_PLACEMENT_3D('',#1770,#1387,#1388);
#1147=AXIS2_PLACEMENT_3D('',#1774,#1390,#1391);
#1148=AXIS2_PLACEMENT_3D('',#1776,#1393,#1394);
#1149=AXIS2_PLACEMENT_3D('',#1780,#1397,#1398);
#1150=AXIS2_PLACEMENT_3D('',#1784,#1400,#1401);
#1151=AXIS2_PLACEMENT_3D('',#1786,#1403,#1404);
#1152=AXIS2_PLACEMENT_3D('',#1790,#1407,#1408);
#1153=AXIS2_PLACEMENT_3D('',#1793,#1409,#1410);
#1154=AXIS2_PLACEMENT_3D('',#1796,#1413,#1414);
#1155=AXIS2_PLACEMENT_3D('',#1800,#1417,#1418);
#1156=AXIS2_PLACEMENT_3D('',#1804,#1420,#1421);
#1157=AXIS2_PLACEMENT_3D('',#1806,#1423,#1424);
#1158=AXIS2_PLACEMENT_3D('',#1811,#1428,#1429);
#1159=AXIS2_PLACEMENT_3D('',#1812,#1430,#1431);
#1160=AXIS2_PLACEMENT_3D('',#1813,#1432,#1433);
#1161=AXIS2_PLACEMENT_3D('',#1816,#1434,#1435);
#1162=AXIS2_PLACEMENT_3D('',#1819,#1438,#1439);
#1163=AXIS2_PLACEMENT_3D('',#1821,#1440,#1441);
#1164=AXIS2_PLACEMENT_3D('',#1825,#1445,#1446);
#1165=AXIS2_PLACEMENT_3D('',#1826,#1447,#1448);
#1166=AXIS2_PLACEMENT_3D('',#1827,#1449,#1450);
#1167=AXIS2_PLACEMENT_3D('',#1828,#1451,#1452);
#1168=AXIS2_PLACEMENT_3D('',#1830,#1453,#1454);
#1169=AXIS2_PLACEMENT_3D('',#1832,#1456,#1457);
#1170=AXIS2_PLACEMENT_3D('',#1834,#1459,#1460);
#1171=AXIS2_PLACEMENT_3D('',#1837,#1462,#1463);
#1172=AXIS2_PLACEMENT_3D('',#1838,#1464,#1465);
#1173=AXIS2_PLACEMENT_3D('',#1839,#1466,#1467);
#1174=AXIS2_PLACEMENT_3D('',#1840,#1468,#1469);
#1175=AXIS2_PLACEMENT_3D('',#1842,#1471,#1472);
#1176=AXIS2_PLACEMENT_3D('',#1844,#1474,#1475);
#1177=AXIS2_PLACEMENT_3D('',#1845,#1476,#1477);
#1178=AXIS2_PLACEMENT_3D('',#1849,#1479,#1480);
#1179=AXIS2_PLACEMENT_3D('',#1851,#1482,#1483);
#1180=AXIS2_PLACEMENT_3D('',#1854,#1485,#1486);
#1181=AXIS2_PLACEMENT_3D('',#1855,#1487,#1488);
#1182=AXIS2_PLACEMENT_3D('',#1857,#1490,#1491);
#1183=AXIS2_PLACEMENT_3D('',#1859,#1493,#1494);
#1184=AXIS2_PLACEMENT_3D('',#1860,#1495,#1496);
#1185=AXIS2_PLACEMENT_3D('',#1861,#1497,#1498);
#1186=AXIS2_PLACEMENT_3D('',#1863,#1499,#1500);
#1187=AXIS2_PLACEMENT_3D('',#1864,#1501,#1502);
#1188=AXIS2_PLACEMENT_3D('',#1866,#1504,#1505);
#1189=AXIS2_PLACEMENT_3D('',#1867,#1506,#1507);
#1190=AXIS2_PLACEMENT_3D('',#1868,#1508,#1509);
#1191=AXIS2_PLACEMENT_3D('',#1869,#1510,#1511);
#1192=AXIS2_PLACEMENT_3D('',#1870,#1512,#1513);
#1193=AXIS2_PLACEMENT_3D('',#1871,#1514,#1515);
#1194=AXIS2_PLACEMENT_3D('',#1873,#1517,#1518);
#1195=AXIS2_PLACEMENT_3D('',#1875,#1520,#1521);
#1196=AXIS2_PLACEMENT_3D('',#1877,#1523,#1524);
#1197=AXIS2_PLACEMENT_3D('',#1879,#1526,#1527);
#1198=AXIS2_PLACEMENT_3D('',#1881,#1529,#1530);
#1199=AXIS2_PLACEMENT_3D('',#1883,#1532,#1533);
#1200=DIRECTION('axis',(0.,0.,1.));
#1201=DIRECTION('refdir',(1.,0.,0.));
#1202=DIRECTION('center_axis',(-0.906307787036659,-0.422618261740681,0.));
#1203=DIRECTION('ref_axis',(-0.36599815077065,0.784885567221404,-0.499999999999999));
#1204=DIRECTION('',(-0.906307787036659,-0.422618261740681,0.));
#1205=DIRECTION('',(0.906307787036659,0.422618261740681,0.));
#1206=DIRECTION('center_axis',(0.,0.,1.));
#1207=DIRECTION('ref_axis',(0.,-1.,0.));
#1208=DIRECTION('center_axis',(0.,0.,1.));
#1209=DIRECTION('ref_axis',(-0.839507857352515,0.54334754756361,0.));
#1210=DIRECTION('center_axis',(0.,0.,1.));
#1211=DIRECTION('ref_axis',(0.927024810886964,-0.374999999999985,0.));
#1212=DIRECTION('center_axis',(0.,0.,-1.));
#1213=DIRECTION('ref_axis',(-0.999189782316989,0.0402464770300296,0.));
#1214=DIRECTION('center_axis',(0.,0.,1.));
#1215=DIRECTION('ref_axis',(0.999189782316989,-0.0402464770300296,0.));
#1216=DIRECTION('',(0.422618261740681,-0.906307787036659,0.));
#1217=DIRECTION('center_axis',(0.,0.,1.));
#1218=DIRECTION('ref_axis',(0.906307787036659,0.422618261740681,0.));
#1219=DIRECTION('',(0.559192903470734,0.82903757255505,0.));
#1220=DIRECTION('center_axis',(0.,0.,1.));
#1221=DIRECTION('ref_axis',(-0.82903757255505,0.559192903470734,0.));
#1222=DIRECTION('center_axis',(0.,0.,-1.));
#1223=DIRECTION('ref_axis',(0.979795897113272,0.199999999999994,0.));
#1224=DIRECTION('center_axis',(0.,0.,-1.));
#1225=DIRECTION('ref_axis',(-0.979795897113272,-0.199999999999994,0.));
#1226=DIRECTION('center_axis',(0.,0.,1.));
#1227=DIRECTION('ref_axis',(0.7043462071509,-0.7098566196579,0.));
#1228=DIRECTION('center_axis',(0.,0.,-1.));
#1229=DIRECTION('ref_axis',(0.,-1.,0.));
#1230=DIRECTION('center_axis',(0.,0.,1.));
#1231=DIRECTION('ref_axis',(0.,1.,0.));
#1232=DIRECTION('',(0.,0.,-1.));
#1233=DIRECTION('center_axis',(0.,0.,-1.));
#1234=DIRECTION('ref_axis',(-0.996526733786462,0.0832734582498268,0.));
#1235=DIRECTION('',(0.,0.,1.));
#1236=DIRECTION('center_axis',(0.,0.,-1.));
#1237=DIRECTION('ref_axis',(0.828988518464609,-0.559265622270718,0.));
#1238=DIRECTION('center_axis',(0.,0.,1.));
#1239=DIRECTION('ref_axis',(0.828988518464609,-0.559265622270718,0.));
#1240=DIRECTION('',(0.,0.,1.));
#1241=DIRECTION('center_axis',(0.,0.,-1.));
#1242=DIRECTION('ref_axis',(0.828988518464609,-0.559265622270718,0.));
#1243=DIRECTION('center_axis',(0.906307787036659,0.422618261740681,0.));
#1244=DIRECTION('ref_axis',(-0.36599815077065,0.784885567221404,0.499999999999999));
#1245=DIRECTION('',(0.906307787036659,0.422618261740681,0.));
#1246=DIRECTION('',(0.906307787036659,0.422618261740681,0.));
#1247=DIRECTION('center_axis',(0.,0.,1.));
#1248=DIRECTION('ref_axis',(0.,-1.,0.));
#1249=DIRECTION('center_axis',(0.,0.,1.));
#1250=DIRECTION('ref_axis',(0.7043462071509,-0.7098566196579,0.));
#1251=DIRECTION('center_axis',(0.,0.,1.));
#1252=DIRECTION('ref_axis',(-0.7043462071509,0.7098566196579,0.));
#1253=DIRECTION('center_axis',(0.,0.,1.));
#1254=DIRECTION('ref_axis',(0.999905217493682,0.0137679348092997,0.));
#1255=DIRECTION('center_axis',(0.,0.,-1.));
#1256=DIRECTION('ref_axis',(-0.999905217493681,-0.0137679348093297,0.));
#1257=DIRECTION('',(0.559192903470734,0.82903757255505,0.));
#1258=DIRECTION('center_axis',(0.,0.,-1.));
#1259=DIRECTION('ref_axis',(-0.82903757255505,0.559192903470734,0.));
#1260=DIRECTION('',(0.422618261740681,-0.906307787036659,0.));
#1261=DIRECTION('center_axis',(0.,0.,-1.));
#1262=DIRECTION('ref_axis',(0.906307787036659,0.422618261740681,0.));
#1263=DIRECTION('center_axis',(0.,0.,1.));
#1264=DIRECTION('ref_axis',(-0.927024810886964,0.374999999999985,0.));
#1265=DIRECTION('center_axis',(0.,0.,1.));
#1266=DIRECTION('ref_axis',(0.927024810886964,-0.374999999999985,0.));
#1267=DIRECTION('center_axis',(0.,0.,1.));
#1268=DIRECTION('ref_axis',(-0.839507857352515,0.54334754756361,0.));
#1269=DIRECTION('center_axis',(0.,0.,-1.));
#1270=DIRECTION('ref_axis',(0.,-1.,0.));
#1271=DIRECTION('center_axis',(0.,0.,1.));
#1272=DIRECTION('ref_axis',(0.,1.,0.));
#1273=DIRECTION('',(0.,0.,1.));
#1274=DIRECTION('center_axis',(0.,0.,-1.));
#1275=DIRECTION('ref_axis',(0.996526733786462,-0.0832734582498268,0.));
#1276=DIRECTION('',(0.,0.,1.));
#1277=DIRECTION('center_axis',(0.,0.,1.));
#1278=DIRECTION('ref_axis',(0.931994350466567,-0.362472799942839,0.));
#1279=DIRECTION('center_axis',(0.,0.,1.));
#1280=DIRECTION('ref_axis',(0.931994350466567,-0.362472799942839,0.));
#1281=DIRECTION('',(0.,0.,-1.));
#1282=DIRECTION('center_axis',(0.,0.,-1.));
#1283=DIRECTION('ref_axis',(0.931994350466567,-0.362472799942839,0.));
#1284=DIRECTION('center_axis',(0.,0.,-1.));
#1285=DIRECTION('ref_axis',(0.828988518464609,-0.559265622270717,0.));
#1286=DIRECTION('',(0.,0.,-1.));
#1287=DIRECTION('center_axis',(0.,0.,1.));
#1288=DIRECTION('ref_axis',(0.828988518464609,-0.559265622270717,0.));
#1289=DIRECTION('',(0.,0.,1.));
#1290=DIRECTION('center_axis',(0.,0.,-1.));
#1291=DIRECTION('ref_axis',(0.828988518464609,-0.559265622270717,0.));
#1292=DIRECTION('center_axis',(0.,0.,-1.));
#1293=DIRECTION('ref_axis',(-1.,0.,0.));
#1294=DIRECTION('',(0.500103073895958,0.865965885863764,0.));
#1295=DIRECTION('center_axis',(0.,0.,1.));
#1296=DIRECTION('ref_axis',(-1.,0.,0.));
#1297=DIRECTION('',(-0.325868846358434,-0.945414985587294,0.));
#1298=DIRECTION('center_axis',(0.,0.,-1.));
#1299=DIRECTION('ref_axis',(-1.,0.,0.));
#1300=DIRECTION('center_axis',(0.865965885863764,-0.500103073895958,0.));
#1301=DIRECTION('ref_axis',(0.500103073895958,0.865965885863764,0.));
#1302=DIRECTION('',(0.500103073895958,0.865965885863764,0.));
#1303=DIRECTION('',(0.,0.,1.));
#1304=DIRECTION('center_axis',(0.,0.,1.));
#1305=DIRECTION('ref_axis',(0.,1.,0.));
#1306=DIRECTION('center_axis',(0.,0.,-1.));
#1307=DIRECTION('ref_axis',(-0.996526733786462,0.0832734582498268,0.));
#1308=DIRECTION('center_axis',(0.,0.,-1.));
#1309=DIRECTION('ref_axis',(0.996526733786462,-0.0832734582498268,0.));
#1310=DIRECTION('center_axis',(0.,0.,-1.));
#1311=DIRECTION('ref_axis',(-0.927024810886964,-0.374999999999985,0.));
#1312=DIRECTION('center_axis',(0.,0.,1.));
#1313=DIRECTION('ref_axis',(0.991231962814334,0.132133250528555,0.));
#1314=DIRECTION('',(0.116684955867696,-0.993168979113904,0.));
#1315=DIRECTION('center_axis',(0.,0.,-1.));
#1316=DIRECTION('ref_axis',(-1.,0.,0.));
#1317=DIRECTION('',(-0.0578601301358028,-0.998324699354207,0.));
#1318=DIRECTION('center_axis',(0.,0.,1.));
#1319=DIRECTION('ref_axis',(-0.996824331850304,0.0796319749296393,0.));
#1320=DIRECTION('center_axis',(0.,0.,-1.));
#1321=DIRECTION('ref_axis',(0.979795897113272,0.199999999999994,0.));
#1322=DIRECTION('center_axis',(0.,0.,-1.));
#1323=DIRECTION('ref_axis',(-0.979795897113272,-0.199999999999994,0.));
#1324=DIRECTION('',(0.325868846358434,0.945414985587294,0.));
#1325=DIRECTION('center_axis',(0.,0.,-1.));
#1326=DIRECTION('ref_axis',(-1.,0.,0.));
#1327=DIRECTION('center_axis',(0.,0.,-1.));
#1328=DIRECTION('ref_axis',(0.,-1.,0.));
#1329=DIRECTION('center_axis',(0.,0.,-1.));
#1330=DIRECTION('ref_axis',(-1.,0.,0.));
#1331=DIRECTION('center_axis',(0.,0.,-1.));
#1332=DIRECTION('ref_axis',(-1.,0.,0.));
#1333=DIRECTION('center_axis',(0.,0.,-1.));
#1334=DIRECTION('ref_axis',(-0.954521517229489,0.298142035187784,0.));
#1335=DIRECTION('center_axis',(0.,0.,1.));
#1336=DIRECTION('ref_axis',(-0.954521517229489,0.298142035187784,0.));
#1337=DIRECTION('',(0.,0.,1.));
#1338=DIRECTION('center_axis',(0.,0.,-1.));
#1339=DIRECTION('ref_axis',(-0.954521517229489,0.298142035187784,0.));
#1340=DIRECTION('',(0.,0.,-1.));
#1341=DIRECTION('center_axis',(0.,0.,1.));
#1342=DIRECTION('ref_axis',(0.,1.,0.));
#1343=DIRECTION('',(0.,0.,1.));
#1344=DIRECTION('center_axis',(0.,0.,-1.));
#1345=DIRECTION('ref_axis',(0.996526733786462,-0.0832734582498268,0.));
#1346=DIRECTION('center_axis',(0.,0.,1.));
#1347=DIRECTION('ref_axis',(0.704346207150949,-0.709856619657852,0.));
#1348=DIRECTION('center_axis',(0.,0.,1.));
#1349=DIRECTION('ref_axis',(1.,0.,0.));
#1350=DIRECTION('',(0.325868846358433,0.945414985587294,0.));
#1351=DIRECTION('center_axis',(0.,0.,-1.));
#1352=DIRECTION('ref_axis',(1.,0.,0.));
#1353=DIRECTION('',(-0.500103073895958,-0.865965885863764,0.));
#1354=DIRECTION('center_axis',(0.,0.,1.));
#1355=DIRECTION('ref_axis',(1.,0.,0.));
#1356=DIRECTION('center_axis',(0.,0.,-1.));
#1357=DIRECTION('ref_axis',(-0.99682433199022,0.0796319731781906,0.));
#1358=DIRECTION('center_axis',(0.,0.,-1.));
#1359=DIRECTION('ref_axis',(-0.99682433199022,0.0796319731781906,0.));
#1360=DIRECTION('',(0.,0.,-1.));
#1361=DIRECTION('center_axis',(0.,0.,1.));
#1362=DIRECTION('ref_axis',(-0.99682433199022,0.0796319731781906,0.));
#1363=DIRECTION('',(0.,0.,1.));
#1364=DIRECTION('center_axis',(-0.99832469954519,0.0578601268405638,0.));
#1365=DIRECTION('ref_axis',(0.0578601268405638,0.99832469954519,0.));
#1366=DIRECTION('',(0.0578601268405638,0.99832469954519,0.));
#1367=DIRECTION('',(0.,0.,-1.));
#1368=DIRECTION('',(-0.0578601268405638,-0.99832469954519,0.));
#1369=DIRECTION('center_axis',(0.,0.,1.));
#1370=DIRECTION('ref_axis',(1.,0.,0.));
#1371=DIRECTION('center_axis',(0.,0.,1.));
#1372=DIRECTION('ref_axis',(0.,1.,0.));
#1373=DIRECTION('center_axis',(0.,0.,1.));
#1374=DIRECTION('ref_axis',(-0.628797173646319,-0.77756936308885,0.));
#1375=DIRECTION('',(-0.953979002880507,-0.299873410063502,0.));
#1376=DIRECTION('center_axis',(0.,0.,1.));
#1377=DIRECTION('ref_axis',(0.842477353089286,-0.538731760277479,0.));
#1378=DIRECTION('center_axis',(0.,0.,1.));
#1379=DIRECTION('ref_axis',(0.,1.,0.));
#1380=DIRECTION('center_axis',(0.,0.,1.));
#1381=DIRECTION('ref_axis',(0.991231963000773,0.132133249129938,0.));
#1382=DIRECTION('',(0.116684953361044,-0.993168979408404,0.));
#1383=DIRECTION('center_axis',(0.,0.,-1.));
#1384=DIRECTION('ref_axis',(1.,0.,0.));
#1385=DIRECTION('center_axis',(0.,0.,1.));
#1386=DIRECTION('ref_axis',(1.,0.,0.));
#1387=DIRECTION('center_axis',(0.,0.,-1.));
#1388=DIRECTION('ref_axis',(-0.996824331850304,0.0796319749296393,0.));
#1389=DIRECTION('',(0.,0.,1.));
#1390=DIRECTION('center_axis',(0.,0.,-1.));
#1391=DIRECTION('ref_axis',(-0.996824331850304,0.0796319749296393,0.));
#1392=DIRECTION('',(0.,0.,-1.));
#1393=DIRECTION('center_axis',(-0.998324699354207,0.0578601301358028,0.));
#1394=DIRECTION('ref_axis',(-0.0578601301358028,-0.998324699354207,0.));
#1395=DIRECTION('',(0.,0.,1.));
#1396=DIRECTION('',(-0.0578601301358028,-0.998324699354207,0.));
#1397=DIRECTION('center_axis',(0.,0.,1.));
#1398=DIRECTION('ref_axis',(0.991231962814334,0.132133250528555,0.));
#1399=DIRECTION('',(0.,0.,1.));
#1400=DIRECTION('center_axis',(0.,0.,-1.));
#1401=DIRECTION('ref_axis',(0.991231962814334,0.132133250528555,0.));
#1402=DIRECTION('',(0.,0.,-1.));
#1403=DIRECTION('center_axis',(0.993168979113904,0.116684955867696,0.));
#1404=DIRECTION('ref_axis',(-0.116684955867696,0.993168979113904,0.));
#1405=DIRECTION('',(-0.116684955867696,0.993168979113904,0.));
#1406=DIRECTION('',(0.,0.,1.));
#1407=DIRECTION('center_axis',(0.,0.,1.));
#1408=DIRECTION('ref_axis',(0.991231963000773,0.132133249129938,0.));
#1409=DIRECTION('center_axis',(0.,0.,-1.));
#1410=DIRECTION('ref_axis',(0.991231963000773,0.132133249129938,0.));
#1411=DIRECTION('',(0.,0.,-1.));
#1412=DIRECTION('',(0.,0.,1.));
#1413=DIRECTION('center_axis',(0.993168979408404,0.116684953361044,0.));
#1414=DIRECTION('ref_axis',(0.116684953361044,-0.993168979408404,0.));
#1415=DIRECTION('',(0.116684953361044,-0.993168979408404,0.));
#1416=DIRECTION('',(0.,0.,-1.));
#1417=DIRECTION('center_axis',(0.,0.,1.));
#1418=DIRECTION('ref_axis',(0.842477353089286,-0.538731760277479,0.));
#1419=DIRECTION('',(0.,0.,-1.));
#1420=DIRECTION('center_axis',(0.,0.,-1.));
#1421=DIRECTION('ref_axis',(0.842477353089286,-0.538731760277479,0.));
#1422=DIRECTION('',(0.,0.,1.));
#1423=DIRECTION('center_axis',(0.,0.,1.));
#1424=DIRECTION('ref_axis',(0.,1.,0.));
#1425=DIRECTION('',(0.,0.,1.));
#1426=DIRECTION('',(0.,0.,1.));
#1427=DIRECTION('',(0.,0.,1.));
#1428=DIRECTION('center_axis',(0.,0.,-1.));
#1429=DIRECTION('ref_axis',(-0.927024810886964,-0.374999999999985,0.));
#1430=DIRECTION('center_axis',(0.,0.,-1.));
#1431=DIRECTION('ref_axis',(0.,1.,0.));
#1432=DIRECTION('center_axis',(0.,0.,-1.));
#1433=DIRECTION('ref_axis',(-0.628797173646319,-0.77756936308885,0.));
#1434=DIRECTION('center_axis',(0.,0.,-1.));
#1435=DIRECTION('ref_axis',(-0.628797173646319,-0.77756936308885,0.));
#1436=DIRECTION('',(0.,0.,1.));
#1437=DIRECTION('',(0.,0.,-1.));
#1438=DIRECTION('center_axis',(0.,0.,1.));
#1439=DIRECTION('ref_axis',(0.,1.,0.));
#1440=DIRECTION('center_axis',(0.,0.,-1.));
#1441=DIRECTION('ref_axis',(0.979795897113272,0.199999999999994,0.));
#1442=DIRECTION('',(0.,0.,1.));
#1443=DIRECTION('',(0.,0.,-1.));
#1444=DIRECTION('',(0.,0.,1.));
#1445=DIRECTION('center_axis',(0.,0.,-1.));
#1446=DIRECTION('ref_axis',(0.,1.,0.));
#1447=DIRECTION('center_axis',(0.,0.,1.));
#1448=DIRECTION('ref_axis',(0.0295252073239021,-0.99956403603395,0.));
#1449=DIRECTION('center_axis',(0.,0.,1.));
#1450=DIRECTION('ref_axis',(-1.,0.,0.));
#1451=DIRECTION('center_axis',(0.,0.,1.));
#1452=DIRECTION('ref_axis',(-1.,0.,0.));
#1453=DIRECTION('center_axis',(0.,0.,-1.));
#1454=DIRECTION('ref_axis',(-1.,0.,0.));
#1455=DIRECTION('',(0.,0.,-1.));
#1456=DIRECTION('center_axis',(0.,0.,-1.));
#1457=DIRECTION('ref_axis',(-1.,0.,0.));
#1458=DIRECTION('',(0.953979002880507,0.299873410063502,0.));
#1459=DIRECTION('center_axis',(0.,0.,-1.));
#1460=DIRECTION('ref_axis',(1.,0.,0.));
#1461=DIRECTION('',(0.,0.,1.));
#1462=DIRECTION('center_axis',(0.,0.,1.));
#1463=DIRECTION('ref_axis',(1.,0.,0.));
#1464=DIRECTION('center_axis',(0.,0.,-1.));
#1465=DIRECTION('ref_axis',(0.0295251195303704,-0.999564038627199,0.));
#1466=DIRECTION('center_axis',(0.,0.,1.));
#1467=DIRECTION('ref_axis',(1.,0.,0.));
#1468=DIRECTION('center_axis',(0.,0.,1.));
#1469=DIRECTION('ref_axis',(-1.,0.,0.));
#1470=DIRECTION('',(0.,0.,-1.));
#1471=DIRECTION('center_axis',(0.,0.,1.));
#1472=DIRECTION('ref_axis',(0.414887613485417,0.90987266591341,0.));
#1473=DIRECTION('',(0.,0.,1.));
#1474=DIRECTION('center_axis',(-0.945414985587294,0.325868846358434,0.));
#1475=DIRECTION('ref_axis',(-0.325868846358434,-0.945414985587294,0.));
#1476=DIRECTION('center_axis',(0.,0.,-1.));
#1477=DIRECTION('ref_axis',(1.,0.,0.));
#1478=DIRECTION('',(0.,0.,-1.));
#1479=DIRECTION('center_axis',(0.,0.,1.));
#1480=DIRECTION('ref_axis',(1.,0.,0.));
#1481=DIRECTION('',(0.,0.,-1.));
#1482=DIRECTION('center_axis',(0.,0.,-1.));
#1483=DIRECTION('ref_axis',(1.,0.,0.));
#1484=DIRECTION('',(0.,0.,1.));
#1485=DIRECTION('center_axis',(0.,0.,1.));
#1486=DIRECTION('ref_axis',(1.,0.,0.));
#1487=DIRECTION('center_axis',(-0.945414985587294,0.325868846358433,0.));
#1488=DIRECTION('ref_axis',(0.325868846358433,0.945414985587294,0.));
#1489=DIRECTION('',(-0.325868846358433,-0.945414985587294,0.));
#1490=DIRECTION('center_axis',(0.865965885863764,-0.500103073895958,0.));
#1491=DIRECTION('ref_axis',(-0.500103073895958,-0.865965885863764,0.));
#1492=DIRECTION('',(-0.500103073895958,-0.865965885863764,0.));
#1493=DIRECTION('center_axis',(0.,0.,1.));
#1494=DIRECTION('ref_axis',(0.,1.,0.));
#1495=DIRECTION('center_axis',(0.,0.,1.));
#1496=DIRECTION('ref_axis',(-0.7043462071509,0.7098566196579,0.));
#1497=DIRECTION('center_axis',(0.,0.,1.));
#1498=DIRECTION('ref_axis',(0.927024810886964,-0.374999999999985,0.));
#1499=DIRECTION('center_axis',(0.,0.,-1.));
#1500=DIRECTION('ref_axis',(0.,-1.,0.));
#1501=DIRECTION('center_axis',(0.,0.,1.));
#1502=DIRECTION('ref_axis',(0.,1.,0.));
#1503=DIRECTION('',(0.,0.,1.));
#1504=DIRECTION('center_axis',(-0.299873410063502,0.953979002880507,0.));
#1505=DIRECTION('ref_axis',(0.953979002880507,0.299873410063502,0.));
#1506=DIRECTION('center_axis',(0.,0.,1.));
#1507=DIRECTION('ref_axis',(0.,1.,0.));
#1508=DIRECTION('center_axis',(0.,0.,1.));
#1509=DIRECTION('ref_axis',(0.,1.,0.));
#1510=DIRECTION('center_axis',(0.,0.,1.));
#1511=DIRECTION('ref_axis',(0.,1.,0.));
#1512=DIRECTION('center_axis',(0.,0.,1.));
#1513=DIRECTION('ref_axis',(0.,1.,0.));
#1514=DIRECTION('center_axis',(0.,0.,-1.));
#1515=DIRECTION('ref_axis',(0.,-1.,0.));
#1516=DIRECTION('',(0.,0.,-1.));
#1517=DIRECTION('center_axis',(0.,0.,-1.));
#1518=DIRECTION('ref_axis',(0.,-1.,0.));
#1519=DIRECTION('',(0.,0.,-1.));
#1520=DIRECTION('center_axis',(0.,0.,1.));
#1521=DIRECTION('ref_axis',(0.999189782316989,-0.0402464770300296,0.));
#1522=DIRECTION('',(0.,0.,1.));
#1523=DIRECTION('center_axis',(-0.906307787036659,-0.422618261740681,0.));
#1524=DIRECTION('ref_axis',(0.422618261740681,-0.906307787036659,0.));
#1525=DIRECTION('',(0.,0.,1.));
#1526=DIRECTION('center_axis',(0.,0.,1.));
#1527=DIRECTION('ref_axis',(0.906307787036641,0.422618261740719,0.));
#1528=DIRECTION('',(0.,0.,1.));
#1529=DIRECTION('center_axis',(0.82903757255505,-0.559192903470734,0.));
#1530=DIRECTION('ref_axis',(0.559192903470734,0.82903757255505,0.));
#1531=DIRECTION('',(0.,0.,-1.));
#1532=DIRECTION('center_axis',(0.,0.,-1.));
#1533=DIRECTION('ref_axis',(-0.999905217493681,-0.0137679348093297,0.));
#1534=CARTESIAN_POINT('',(0.,0.,0.));
#1535=CARTESIAN_POINT('Origin',(2.75191857690321,43.3594262387719,5.6));
#1536=CARTESIAN_POINT('',(12.3861839289663,48.4849853447083,4.78094685578898));
#1537=CARTESIAN_POINT('',(11.6500571857346,47.5086964153945,4.6));
#1538=CARTESIAN_POINT('Ctrl Pts',(12.3861839289663,48.4849853447083,4.78094685578898));
#1539=CARTESIAN_POINT('Ctrl Pts',(12.1459690112287,48.1775600185897,4.65689266164416));
#1540=CARTESIAN_POINT('Ctrl Pts',(11.8781564859215,47.8223059417997,4.6));
#1541=CARTESIAN_POINT('Ctrl Pts',(11.6500571857346,47.5086964153945,4.6));
#1542=CARTESIAN_POINT('',(3.66633150694534,43.7858239907665,4.6));
#1543=CARTESIAN_POINT('',(2.75191857690321,43.3594262387719,4.6));
#1544=CARTESIAN_POINT('',(4.19902100343069,44.9897744901927,5.1));
#1545=CARTESIAN_POINT('Ctrl Pts',(3.66633150694533,43.7858239907665,4.6));
#1546=CARTESIAN_POINT('Ctrl Pts',(3.74205628093046,43.9487390822793,4.6));
#1547=CARTESIAN_POINT('Ctrl Pts',(3.82318134262285,44.1268048725214,4.62095628477221));
#1548=CARTESIAN_POINT('Ctrl Pts',(3.97583086121419,44.4693207233189,4.71757986416958));
#1549=CARTESIAN_POINT('Ctrl Pts',(4.04738633120045,44.6337599256437,4.7932366508597));
#1550=CARTESIAN_POINT('Ctrl Pts',(4.13962286202063,44.8490897805733,4.94941093283969));
#1551=CARTESIAN_POINT('Ctrl Pts',(4.17208419106713,44.9257086781278,5.01914898454132));
#1552=CARTESIAN_POINT('Ctrl Pts',(4.19902100343069,44.9897744901927,5.1));
#1553=CARTESIAN_POINT('',(12.7457628629583,48.975185671564,5.1));
#1554=CARTESIAN_POINT('',(2.38592042613256,44.1443118059933,5.1));
#1555=CARTESIAN_POINT('Ctrl Pts',(12.7457628629583,48.975185671564,5.10000000000001));
#1556=CARTESIAN_POINT('Ctrl Pts',(12.6916034191482,48.8964404565073,5.01603254699093));
#1557=CARTESIAN_POINT('Ctrl Pts',(12.6255846605326,48.8030357019166,4.94587342568126));
#1558=CARTESIAN_POINT('Ctrl Pts',(12.5000557844407,48.6328926390656,4.84600084278709));
#1559=CARTESIAN_POINT('Ctrl Pts',(12.443381367912,48.5581862161888,4.81048533017842));
#1560=CARTESIAN_POINT('Ctrl Pts',(12.3861839289663,48.4849853447083,4.78094685578898));
#1561=CARTESIAN_POINT('Origin',(0.,0.,4.6));
#1562=CARTESIAN_POINT('',(4.982633668932,29.58363270875,4.6));
#1563=CARTESIAN_POINT('Origin',(40.35933271835,26.62742494088,4.6));
#1564=CARTESIAN_POINT('',(4.635124054435,28.125,4.6));
#1565=CARTESIAN_POINT('Origin',(0.,30.,4.6));
#1566=CARTESIAN_POINT('',(2.109350054384,16.40862669605,4.6));
#1567=CARTESIAN_POINT('Origin',(37.08099243548,15.,4.6));
#1568=CARTESIAN_POINT('',(1.923586063823,17.33435617359,4.6));
#1569=CARTESIAN_POINT('Origin',(0.1109704897497,16.48911965011,4.6));
#1570=CARTESIAN_POINT('',(0.7469752487817,19.8576062092,4.6));
#1571=CARTESIAN_POINT('',(0.7469752487817,19.8576062092,4.6));
#1572=CARTESIAN_POINT('',(-0.98837011081,19.99418085093,4.6));
#1573=CARTESIAN_POINT('Origin',(-0.159332538255,19.43498794745,4.6));
#1574=CARTESIAN_POINT('',(-3.320459413999,16.53671627493,4.6));
#1575=CARTESIAN_POINT('',(-3.320459413999,16.53671627493,4.6));
#1576=CARTESIAN_POINT('',(-3.491327058938,15.96375543665,4.6));
#1577=CARTESIAN_POINT('Origin',(-2.491421841444,15.97752337146,4.6));
#1578=CARTESIAN_POINT('',(-4.898979485566,29.,4.6));
#1579=CARTESIAN_POINT('Origin',(-73.4846922835,15.,4.6));
#1580=CARTESIAN_POINT('',(-3.521731035755,33.54928309829,4.6));
#1581=CARTESIAN_POINT('Origin',(0.,30.,4.6));
#1582=CARTESIAN_POINT('Origin',(-28.52602138961,58.74919309614,4.6));
#1583=CARTESIAN_POINT('',(3.06161699786838E-16,32.5,4.6));
#1584=CARTESIAN_POINT('Origin',(0.,30.,4.6));
#1585=CARTESIAN_POINT('Origin',(40.35933271835,26.62742494088,10.5));
#1586=CARTESIAN_POINT('',(12.3861839289663,48.4849853447083,10.5));
#1587=CARTESIAN_POINT('',(12.3861839289663,48.4849853447083,10.5));
#1588=CARTESIAN_POINT('',(4.982633668932,29.58363270875,10.5));
#1589=CARTESIAN_POINT('Origin',(40.35933271835,26.62742494088,10.5));
#1590=CARTESIAN_POINT('',(4.982633668932,29.58363270875,4.6));
#1591=CARTESIAN_POINT('Origin',(4.50642370660467,54.6420446133923,10.5));
#1592=CARTESIAN_POINT('',(13.1660825652423,49.6410138744327,5.1));
#1593=CARTESIAN_POINT('Origin',(4.50642370660467,54.6420446133923,5.1));
#1594=CARTESIAN_POINT('',(13.1660825652423,49.6410138744327,10.5));
#1595=CARTESIAN_POINT('',(13.1660825652423,49.6410138744327,10.5));
#1596=CARTESIAN_POINT('Origin',(4.50642370660467,54.6420446133923,10.5));
#1597=CARTESIAN_POINT('Origin',(2.75191853734679,43.3594262203265,-5.6));
#1598=CARTESIAN_POINT('',(4.03305631865556,44.6015269003632,-4.78845742948021));
#1599=CARTESIAN_POINT('',(3.66633150694533,43.7858239907665,-4.6));
#1600=CARTESIAN_POINT('Ctrl Pts',(4.03305631865556,44.6015269003632,-4.78845742948022));
#1601=CARTESIAN_POINT('Ctrl Pts',(3.99740345963722,44.5194763210496,-4.74576591612616));
#1602=CARTESIAN_POINT('Ctrl Pts',(3.95924853965468,44.4325336367413,-4.71054709646768));
#1603=CARTESIAN_POINT('Ctrl Pts',(3.83755729378784,44.1584513137342,-4.62501404876065));
#1604=CARTESIAN_POINT('Ctrl Pts',(3.74915604727774,43.9640135958013,-4.6));
#1605=CARTESIAN_POINT('Ctrl Pts',(3.66633150694532,43.7858239907665,-4.6));
#1606=CARTESIAN_POINT('',(11.6500571857346,47.5086964153944,-4.6));
#1607=CARTESIAN_POINT('',(2.75191853734679,43.3594262203265,-4.6));
#1608=CARTESIAN_POINT('',(12.3861839289663,48.4849853447083,-4.78094685578899));
#1609=CARTESIAN_POINT('Ctrl Pts',(11.6500571857346,47.5086964153944,-4.6));
#1610=CARTESIAN_POINT('Ctrl Pts',(11.817634138572,47.7390948812062,-4.6));
#1611=CARTESIAN_POINT('Ctrl Pts',(12.0034334685002,47.9882188993898,-4.629324519893));
#1612=CARTESIAN_POINT('Ctrl Pts',(12.2538416303125,48.3148317927834,-4.71843929844981));
#1613=CARTESIAN_POINT('Ctrl Pts',(12.3207688988063,48.4012676590234,-4.74716457062584));
#1614=CARTESIAN_POINT('Ctrl Pts',(12.3861839289663,48.4849853447083,-4.78094685578899));
#1615=CARTESIAN_POINT('',(12.7457628629583,48.975185671564,-5.1));
#1616=CARTESIAN_POINT('Ctrl Pts',(12.3861839289663,48.4849853447083,-4.78094685578899));
#1617=CARTESIAN_POINT('Ctrl Pts',(12.4433813679119,48.5581862161888,-4.81048533017842));
#1618=CARTESIAN_POINT('Ctrl Pts',(12.5000557844407,48.6328926390656,-4.84600084278709));
#1619=CARTESIAN_POINT('Ctrl Pts',(12.6255846605326,48.8030357019166,-4.94587342568126));
#1620=CARTESIAN_POINT('Ctrl Pts',(12.6916034191482,48.8964404565073,-5.01603254699093));
#1621=CARTESIAN_POINT('Ctrl Pts',(12.7457628629583,48.975185671564,-5.1));
#1622=CARTESIAN_POINT('',(4.19065663830443,44.9858741226787,-5.1));
#1623=CARTESIAN_POINT('',(2.38592038657613,44.1443117875479,-5.1));
#1624=CARTESIAN_POINT('Ctrl Pts',(4.19065663830443,44.9858741226787,-5.1));
#1625=CARTESIAN_POINT('Ctrl Pts',(4.1742310822672,44.9433191038924,-5.04522180615368));
#1626=CARTESIAN_POINT('Ctrl Pts',(4.15539873918417,44.8954488152429,-4.99605105931974));
#1627=CARTESIAN_POINT('Ctrl Pts',(4.1058314737739,44.7725473700527,-4.88932968615863));
#1628=CARTESIAN_POINT('Ctrl Pts',(4.07138968946501,44.6897463410635,-4.83435864629359));
#1629=CARTESIAN_POINT('Ctrl Pts',(4.03305631865556,44.6015269003632,-4.78845742948022));
#1630=CARTESIAN_POINT('Origin',(0.,0.,-4.6));
#1631=CARTESIAN_POINT('',(-3.521731035755,33.54928309829,-4.6));
#1632=CARTESIAN_POINT('Origin',(-28.52602138961,58.74919309614,-4.6));
#1633=CARTESIAN_POINT('',(-4.898979485566,29.,-4.6));
#1634=CARTESIAN_POINT('Origin',(0.,30.,-4.6));
#1635=CARTESIAN_POINT('',(-3.491327058938,15.96375543665,-4.6));
#1636=CARTESIAN_POINT('Origin',(-73.4846922835,15.,-4.6));
#1637=CARTESIAN_POINT('',(-3.320459413999,16.53671627493,-4.6));
#1638=CARTESIAN_POINT('Origin',(-2.491421841444,15.97752337146,-4.6));
#1639=CARTESIAN_POINT('',(-0.98837011081,19.99418085093,-4.6));
#1640=CARTESIAN_POINT('',(-3.320459413999,16.53671627493,-4.6));
#1641=CARTESIAN_POINT('',(0.7469752487817,19.8576062092,-4.6));
#1642=CARTESIAN_POINT('Origin',(-0.159332538255,19.43498794745,-4.6));
#1643=CARTESIAN_POINT('',(1.923586063823,17.33435617359,-4.6));
#1644=CARTESIAN_POINT('',(0.7469752487817,19.8576062092,-4.6));
#1645=CARTESIAN_POINT('',(2.109350054384,16.40862669605,-4.6));
#1646=CARTESIAN_POINT('Origin',(0.1109704897497,16.48911965011,-4.6));
#1647=CARTESIAN_POINT('',(4.635124054435,28.125,-4.6));
#1648=CARTESIAN_POINT('Origin',(37.08099243548,15.,-4.6));
#1649=CARTESIAN_POINT('',(4.982633668932,29.58363270875,-4.6));
#1650=CARTESIAN_POINT('Origin',(0.,30.,-4.6));
#1651=CARTESIAN_POINT('Origin',(40.35933271835,26.62742494088,-4.6));
#1652=CARTESIAN_POINT('',(0.,32.5,-4.6));
#1653=CARTESIAN_POINT('Origin',(0.,30.,-4.6));
#1654=CARTESIAN_POINT('Origin',(-28.52602138961,58.74919309614,10.5));
#1655=CARTESIAN_POINT('',(4.03305631865557,44.6015269003632,-10.5));
#1656=CARTESIAN_POINT('',(4.03305631865556,44.6015269003632,10.5));
#1657=CARTESIAN_POINT('',(-3.521731035755,33.54928309829,-10.5));
#1658=CARTESIAN_POINT('Origin',(-28.52602138961,58.74919309614,-10.5));
#1659=CARTESIAN_POINT('',(-3.521731035755,33.54928309829,-10.5));
#1660=CARTESIAN_POINT('Origin',(-5.13851486677136,48.5867849836806,10.5));
#1661=CARTESIAN_POINT('',(4.31563498910161,45.3280965200963,-5.1));
#1662=CARTESIAN_POINT('Origin',(-5.13851486677136,48.5867849836806,-5.1));
#1663=CARTESIAN_POINT('',(4.31563498910161,45.3280965200963,-10.5));
#1664=CARTESIAN_POINT('',(4.3156349891016,45.3280965200963,10.5));
#1665=CARTESIAN_POINT('Origin',(-5.13851486677136,48.5867849836806,-10.5));
#1666=CARTESIAN_POINT('Origin',(4.50642370660467,54.6420446133923,10.5));
#1667=CARTESIAN_POINT('',(12.3861839289663,48.4849853447083,-10.5));
#1668=CARTESIAN_POINT('',(12.3861839289663,48.4849853447083,10.5));
#1669=CARTESIAN_POINT('',(13.1660825652423,49.6410138744327,-10.5));
#1670=CARTESIAN_POINT('Origin',(4.50642370660467,54.6420446133923,-10.5));
#1671=CARTESIAN_POINT('',(13.1660825652423,49.6410138744327,-5.1));
#1672=CARTESIAN_POINT('',(13.1660825652423,49.6410138744327,10.5));
#1673=CARTESIAN_POINT('Origin',(4.50642370660467,54.6420446133923,-5.1));
#1674=CARTESIAN_POINT('Origin',(8.28331789286479,26.7636324992605,-5.1));
#1675=CARTESIAN_POINT('',(20.8964653063898,63.026749911513,-5.1));
#1676=CARTESIAN_POINT('',(12.7947539445523,48.9980305880926,-5.1));
#1677=CARTESIAN_POINT('',(11.8395449246158,67.156563041932,-5.1));
#1678=CARTESIAN_POINT('Origin',(16.5666358602354,65.5272652518407,-5.1));
#1679=CARTESIAN_POINT('',(4.19902100343069,44.9897744901927,-5.1));
#1680=CARTESIAN_POINT('',(19.0666358602354,65.5272652518407,-5.1));
#1681=CARTESIAN_POINT('Origin',(16.5666358602354,65.5272652518407,-5.1));
#1682=CARTESIAN_POINT('Origin',(12.7947539445523,48.9980305880926,-10.5));
#1683=CARTESIAN_POINT('',(20.8964653063898,63.026749911513,-10.5));
#1684=CARTESIAN_POINT('',(12.7947539445523,48.9980305880926,-10.5));
#1685=CARTESIAN_POINT('',(20.8964653063898,63.026749911513,-10.5));
#1686=CARTESIAN_POINT('Origin',(0.,0.,-10.5));
#1687=CARTESIAN_POINT('',(4.982633668932,29.58363270875,-10.5));
#1688=CARTESIAN_POINT('Origin',(40.35933271835,26.62742494088,-10.5));
#1689=CARTESIAN_POINT('',(4.635124054435,28.125,-10.5));
#1690=CARTESIAN_POINT('Origin',(0.,30.,-10.5));
#1691=CARTESIAN_POINT('',(2.46407898327363,9.8357669453777,-10.5));
#1692=CARTESIAN_POINT('Origin',(37.08099243548,15.,-10.5));
#1693=CARTESIAN_POINT('',(2.5052220737823,9.52712134559114,-10.5));
#1694=CARTESIAN_POINT('Origin',(-7.42646771735676,8.36027178691418,-10.5));
#1695=CARTESIAN_POINT('',(4.96584490249402,-11.4165748198934,-10.5));
#1696=CARTESIAN_POINT('',(2.48591311487086,9.69147037299764,-10.5));
#1697=CARTESIAN_POINT('',(-4.99162356214627,-11.7106993684378,-10.5));
#1698=CARTESIAN_POINT('Origin',(0.,-12.0000001788139,-10.5));
#1699=CARTESIAN_POINT('',(-3.88000227900319,7.46932979300452,-10.5));
#1700=CARTESIAN_POINT('',(-3.86695126692028,7.69451331200738,-10.5));
#1701=CARTESIAN_POINT('',(-3.84524741021596,7.90438743019067,-10.5));
#1702=CARTESIAN_POINT('Origin',(6.10324471453888,6.89072849164649,-10.5));
#1703=CARTESIAN_POINT('',(-4.898979485566,29.,-10.5));
#1704=CARTESIAN_POINT('Origin',(-73.4846922835,15.,-10.5));
#1705=CARTESIAN_POINT('Origin',(0.,30.,-10.5));
#1706=CARTESIAN_POINT('',(11.8395449246158,67.156563041932,-10.5));
#1707=CARTESIAN_POINT('',(4.19902100343069,44.9897744901927,-10.5));
#1708=CARTESIAN_POINT('Origin',(16.5666358602354,65.5272652518407,-10.5));
#1709=CARTESIAN_POINT('',(0.,32.5,-10.5));
#1710=CARTESIAN_POINT('Origin',(0.,30.,-10.5));
#1711=CARTESIAN_POINT('',(19.0666358602354,65.5272652518407,-10.5));
#1712=CARTESIAN_POINT('Origin',(16.5666358602354,65.5272652518407,-10.5));
#1713=CARTESIAN_POINT('',(2.5,-12.0000001788139,-10.5));
#1714=CARTESIAN_POINT('Origin',(0.,-12.0000001788139,-10.5));
#1715=CARTESIAN_POINT('Origin',(15.2820646660116,46.4568541753627,10.5));
#1716=CARTESIAN_POINT('',(5.82791481013862,49.715542638947,5.1));
#1717=CARTESIAN_POINT('',(5.65391388455627,49.1584671249841,5.1));
#1718=CARTESIAN_POINT('Origin',(15.2820646660116,46.4568541753627,5.1));
#1719=CARTESIAN_POINT('',(5.65391388455627,49.1584671249841,10.5));
#1720=CARTESIAN_POINT('',(5.65391388455627,49.1584671249841,10.5));
#1721=CARTESIAN_POINT('',(5.82791481013862,49.715542638947,10.5));
#1722=CARTESIAN_POINT('Origin',(15.2820646660116,46.4568541753627,10.5));
#1723=CARTESIAN_POINT('',(5.82791481013862,49.715542638947,10.5));
#1724=CARTESIAN_POINT('Origin',(-28.52602138961,58.74919309614,10.5));
#1725=CARTESIAN_POINT('',(-3.521731035755,33.54928309829,10.5));
#1726=CARTESIAN_POINT('',(-3.521731035755,33.54928309829,4.6));
#1727=CARTESIAN_POINT('Origin',(-28.52602138961,58.74919309614,10.5));
#1728=CARTESIAN_POINT('Origin',(-28.52602138961,58.74919309614,5.1));
#1729=CARTESIAN_POINT('Origin',(8.28331793011769,26.7636326259203,5.1));
#1730=CARTESIAN_POINT('',(11.8395609363106,67.1566094952717,5.1));
#1731=CARTESIAN_POINT('',(12.3117427877154,68.5265096966225,5.1));
#1732=CARTESIAN_POINT('',(20.8964652897313,63.0267498826676,5.1));
#1733=CARTESIAN_POINT('Origin',(16.5666358602354,65.5272652518407,5.1));
#1734=CARTESIAN_POINT('',(21.3983081996293,63.8957284247284,5.1));
#1735=CARTESIAN_POINT('',(14.0666358602354,65.5272652518407,5.1));
#1736=CARTESIAN_POINT('Origin',(16.5666358602354,65.5272652518407,5.1));
#1737=CARTESIAN_POINT('Origin',(6.10324471626849,6.89072850862166,10.5));
#1738=CARTESIAN_POINT('',(-3.88000227918341,7.4693297770273,10.5));
#1739=CARTESIAN_POINT('',(-3.84524740870255,7.90438744504395,10.5));
#1740=CARTESIAN_POINT('Origin',(6.10324471626849,6.89072850862166,10.5));
#1741=CARTESIAN_POINT('',(-3.84524740870257,7.90438744504395,5.6));
#1742=CARTESIAN_POINT('',(-3.84524740870257,7.90438744504395,10.5));
#1743=CARTESIAN_POINT('',(-3.88000227918341,7.4693297770273,5.6));
#1744=CARTESIAN_POINT('Origin',(6.10324471626849,6.89072850862166,5.6));
#1745=CARTESIAN_POINT('',(-3.88000227918341,7.4693297770273,10.5));
#1746=CARTESIAN_POINT('Origin',(-4.99162349399431,-11.7106993014111,10.5));
#1747=CARTESIAN_POINT('',(-4.99162349399431,-11.7106993014111,5.6));
#1748=CARTESIAN_POINT('',(-3.86695126692028,7.69451331200738,5.6));
#1749=CARTESIAN_POINT('',(-4.99162349399431,-11.7106993014111,10.5));
#1750=CARTESIAN_POINT('',(-4.99162349399431,-11.7106993014111,10.5));
#1751=CARTESIAN_POINT('',(-3.86695126692028,7.69451331200738,10.5));
#1752=CARTESIAN_POINT('Origin',(8.28331793011769,26.7636326259203,5.6));
#1753=CARTESIAN_POINT('',(-3.79224349374007,8.44541521630166,5.6));
#1754=CARTESIAN_POINT('Origin',(-73.4846922835,15.,5.6));
#1755=CARTESIAN_POINT('',(-3.14450358306718,7.9216072521207,5.6));
#1756=CARTESIAN_POINT('Origin',(-3.29444028809894,8.39859675356096,5.6));
#1757=CARTESIAN_POINT('',(1.67709818547636,9.43722778458065,5.6));
#1758=CARTESIAN_POINT('',(3.82293766580372,10.1117501802222,5.6));
#1759=CARTESIAN_POINT('',(2.36899609930362,10.5192288211428,5.6));
#1760=CARTESIAN_POINT('Origin',(1.37722477541286,10.3912067874612,5.6));
#1761=CARTESIAN_POINT('',(2.46407898173425,9.83576695569648,5.6));
#1762=CARTESIAN_POINT('Origin',(37.08099243548,15.,5.6));
#1763=CARTESIAN_POINT('',(2.50522207474807,9.52712133379162,5.6));
#1764=CARTESIAN_POINT('Origin',(-7.42646771933596,8.36027180018118,5.6));
#1765=CARTESIAN_POINT('',(4.96584494354566,-11.4165756290129,5.6));
#1766=CARTESIAN_POINT('',(2.48591311487086,9.69147037299764,5.6));
#1767=CARTESIAN_POINT('Origin',(0.,-12.,5.6));
#1768=CARTESIAN_POINT('',(-2.5,-12.,5.6));
#1769=CARTESIAN_POINT('Origin',(0.,-12.,5.6));
#1770=CARTESIAN_POINT('Origin',(6.10324471453888,6.89072849164649,10.5));
#1771=CARTESIAN_POINT('',(-3.88000227900319,7.46932979300452,-5.6));
#1772=CARTESIAN_POINT('',(-3.88000227900319,7.46932979300452,10.5));
#1773=CARTESIAN_POINT('',(-3.84524741021598,7.90438743019067,-5.6));
#1774=CARTESIAN_POINT('Origin',(6.10324471453888,6.89072849164649,-5.6));
#1775=CARTESIAN_POINT('',(-3.84524741021598,7.90438743019068,10.5));
#1776=CARTESIAN_POINT('Origin',(-3.86695126692028,7.69451331200738,-10.5));
#1777=CARTESIAN_POINT('',(-4.99162356214627,-11.7106993684378,-5.6));
#1778=CARTESIAN_POINT('',(-4.99162356214627,-11.7106993684378,-10.5));
#1779=CARTESIAN_POINT('',(-3.86695126692028,7.69451331200738,-5.6));
#1780=CARTESIAN_POINT('Origin',(-7.42646771735676,8.36027178691418,10.5));
#1781=CARTESIAN_POINT('',(2.46407898327363,9.8357669453777,-5.6));
#1782=CARTESIAN_POINT('',(2.46407898327363,9.8357669453777,10.5));
#1783=CARTESIAN_POINT('',(2.5052220737823,9.52712134559114,-5.6));
#1784=CARTESIAN_POINT('Origin',(-7.42646771735676,8.36027178691418,-5.6));
#1785=CARTESIAN_POINT('',(2.5052220737823,9.52712134559114,10.5));
#1786=CARTESIAN_POINT('Origin',(4.96584490249402,-11.4165748198934,-10.5));
#1787=CARTESIAN_POINT('',(4.96584490249402,-11.4165748198934,-5.6));
#1788=CARTESIAN_POINT('',(2.48591311487086,9.69147037299764,-5.6));
#1789=CARTESIAN_POINT('',(4.96584490249402,-11.4165748198934,-10.5));
#1790=CARTESIAN_POINT('Origin',(-7.42646771933596,8.36027180018118,10.5));
#1791=CARTESIAN_POINT('',(2.46407898173425,9.83576695569648,10.5));
#1792=CARTESIAN_POINT('',(2.50522207474807,9.52712133379162,10.5));
#1793=CARTESIAN_POINT('Origin',(-7.42646771933596,8.36027180018118,10.5));
#1794=CARTESIAN_POINT('',(2.50522207474807,9.52712133379162,10.5));
#1795=CARTESIAN_POINT('',(2.46407898173425,9.83576695569648,10.5));
#1796=CARTESIAN_POINT('Origin',(2.48591311487086,9.69147037299764,10.5));
#1797=CARTESIAN_POINT('',(4.96584494354566,-11.4165756290129,10.5));
#1798=CARTESIAN_POINT('',(2.48591311487086,9.69147037299764,10.5));
#1799=CARTESIAN_POINT('',(4.96584494354566,-11.4165756290129,10.5));
#1800=CARTESIAN_POINT('Origin',(1.37722477541286,10.3912067874612,10.5));
#1801=CARTESIAN_POINT('',(1.67709818547636,9.43722778458065,-5.6));
#1802=CARTESIAN_POINT('',(1.67709818547636,9.43722778458065,10.5));
#1803=CARTESIAN_POINT('',(2.36899609930362,10.5192288211428,-5.6));
#1804=CARTESIAN_POINT('Origin',(1.37722477541286,10.3912067874612,-5.6));
#1805=CARTESIAN_POINT('',(2.36899609930362,10.5192288211428,10.5));
#1806=CARTESIAN_POINT('Origin',(37.08099243548,15.,10.5));
#1807=CARTESIAN_POINT('',(4.635124054435,28.125,-10.5));
#1808=CARTESIAN_POINT('',(2.109350054384,16.40862669605,-4.6));
#1809=CARTESIAN_POINT('',(4.635124054435,28.125,10.5));
#1810=CARTESIAN_POINT('',(4.635124054435,28.125,4.6));
#1811=CARTESIAN_POINT('Origin',(37.08099243548,15.,10.5));
#1812=CARTESIAN_POINT('Origin',(37.08099243548,15.,-5.6));
#1813=CARTESIAN_POINT('Origin',(-3.29444028809894,8.39859675356096,10.5));
#1814=CARTESIAN_POINT('',(-3.79224349374007,8.44541521630166,-5.6));
#1815=CARTESIAN_POINT('',(-3.14450358306718,7.9216072521207,-5.6));
#1816=CARTESIAN_POINT('Origin',(-3.29444028809894,8.39859675356096,-5.6));
#1817=CARTESIAN_POINT('',(-3.14450358306718,7.9216072521207,10.5));
#1818=CARTESIAN_POINT('',(-3.79224349374007,8.44541521630166,10.5));
#1819=CARTESIAN_POINT('Origin',(-73.4846922835,15.,10.5));
#1820=CARTESIAN_POINT('',(-4.898979485566,29.,10.5));
#1821=CARTESIAN_POINT('Origin',(-73.4846922835,15.,10.5));
#1822=CARTESIAN_POINT('',(-4.898979485566,29.,4.6));
#1823=CARTESIAN_POINT('',(-3.491327058938,15.96375543665,4.6));
#1824=CARTESIAN_POINT('',(-4.898979485566,29.,-10.5));
#1825=CARTESIAN_POINT('Origin',(-73.4846922835,15.,-5.6));
#1826=CARTESIAN_POINT('Origin',(0.,-12.0000001788139,-10.5));
#1827=CARTESIAN_POINT('Origin',(0.,-12.0000001788139,-5.6));
#1828=CARTESIAN_POINT('Origin',(0.,-12.0000001788139,-10.5));
#1829=CARTESIAN_POINT('',(2.5,-12.0000001788139,-5.6));
#1830=CARTESIAN_POINT('Origin',(0.,-12.0000001788139,-5.6));
#1831=CARTESIAN_POINT('',(2.5,-12.0000001788139,-10.5));
#1832=CARTESIAN_POINT('Origin',(8.28331789286479,26.7636324992605,-5.6));
#1833=CARTESIAN_POINT('',(3.82293763073526,10.1117501691987,-5.6));
#1834=CARTESIAN_POINT('Origin',(0.,-12.,10.5));
#1835=CARTESIAN_POINT('',(-2.5,-12.,10.5));
#1836=CARTESIAN_POINT('',(-2.5,-12.,10.5));
#1837=CARTESIAN_POINT('Origin',(0.,-12.,10.5));
#1838=CARTESIAN_POINT('Origin',(0.,-12.,10.5));
#1839=CARTESIAN_POINT('Origin',(0.,-12.,10.5));
#1840=CARTESIAN_POINT('Origin',(16.5666358602354,65.5272652518407,-10.5));
#1841=CARTESIAN_POINT('',(19.0666358602354,65.5272652518407,-10.5));
#1842=CARTESIAN_POINT('Origin',(16.5666358602354,65.5272652518407,-10.5));
#1843=CARTESIAN_POINT('',(11.8395449246158,67.156563041932,-10.5));
#1844=CARTESIAN_POINT('Origin',(11.8395449246158,67.156563041932,-10.5));
#1845=CARTESIAN_POINT('Origin',(16.5666358602354,65.5272652518407,10.5));
#1846=CARTESIAN_POINT('',(11.8395609363106,67.1566094952717,10.5));
#1847=CARTESIAN_POINT('',(11.8395609363106,67.1566094952717,10.5));
#1848=CARTESIAN_POINT('',(20.8964652897313,63.0267498826676,10.5));
#1849=CARTESIAN_POINT('Origin',(16.5666358602354,65.5272652518407,10.5));
#1850=CARTESIAN_POINT('',(20.8964652897313,63.0267498826676,10.5));
#1851=CARTESIAN_POINT('Origin',(16.5666358602354,65.5272652518407,10.5));
#1852=CARTESIAN_POINT('',(14.0666358602354,65.5272652518407,10.5));
#1853=CARTESIAN_POINT('',(14.0666358602354,65.5272652518407,10.5));
#1854=CARTESIAN_POINT('Origin',(16.5666358602354,65.5272652518407,10.5));
#1855=CARTESIAN_POINT('Origin',(5.72688233228265,49.4224258845734,10.5));
#1856=CARTESIAN_POINT('',(12.3117427877154,68.5265096966225,10.5));
#1857=CARTESIAN_POINT('Origin',(20.8964652897313,63.0267498826676,10.5));
#1858=CARTESIAN_POINT('',(21.3983081996293,63.8957284247284,10.5));
#1859=CARTESIAN_POINT('Origin',(0.,0.,10.5));
#1860=CARTESIAN_POINT('Origin',(0.,30.,10.5));
#1861=CARTESIAN_POINT('Origin',(0.,30.,10.5));
#1862=CARTESIAN_POINT('',(3.06161699786838E-16,32.5,10.5));
#1863=CARTESIAN_POINT('Origin',(0.,30.,10.5));
#1864=CARTESIAN_POINT('Origin',(40.35933271835,26.62742494088,10.5));
#1865=CARTESIAN_POINT('',(4.982633668932,29.58363270875,-10.5));
#1866=CARTESIAN_POINT('Origin',(-5.,7.338351188595,5.6));
#1867=CARTESIAN_POINT('Origin',(0.,30.,10.5));
#1868=CARTESIAN_POINT('Origin',(0.,30.,10.5));
#1869=CARTESIAN_POINT('Origin',(0.,30.,10.5));
#1870=CARTESIAN_POINT('Origin',(0.,30.,10.5));
#1871=CARTESIAN_POINT('Origin',(0.,30.,-10.5));
#1872=CARTESIAN_POINT('',(3.06161699786838E-16,32.5,-10.5));
#1873=CARTESIAN_POINT('Origin',(0.,30.,-10.5));
#1874=CARTESIAN_POINT('',(3.06161699786838E-16,32.5,-10.5));
#1875=CARTESIAN_POINT('Origin',(0.1109704897497,16.48911965011,-37.8756));
#1876=CARTESIAN_POINT('',(1.923586063823,17.33435617359,-4.6));
#1877=CARTESIAN_POINT('Origin',(0.,21.45949979966,-4.6));
#1878=CARTESIAN_POINT('',(0.7469752487817,19.8576062092,-4.6));
#1879=CARTESIAN_POINT('Origin',(-0.159332538255,19.43498794745,-37.8756));
#1880=CARTESIAN_POINT('',(-0.98837011081,19.99418085093,-4.6));
#1881=CARTESIAN_POINT('Origin',(-5.,14.04669495709,-4.6));
#1882=CARTESIAN_POINT('',(-3.320459413999,16.53671627493,4.6));
#1883=CARTESIAN_POINT('Origin',(-2.491421841444,15.97752337146,37.8756));
#1884=UNCERTAINTY_MEASURE_WITH_UNIT(LENGTH_MEASURE(0.01),#1888,
'DISTANCE_ACCURACY_VALUE',
'Maximum model space distance between geometric entities at asserted c
onnectivities');
#1885=UNCERTAINTY_MEASURE_WITH_UNIT(LENGTH_MEASURE(0.01),#1888,
'DISTANCE_ACCURACY_VALUE',
'Maximum model space distance between geometric entities at asserted c
onnectivities');
#1886=(
GEOMETRIC_REPRESENTATION_CONTEXT(3)
GLOBAL_UNCERTAINTY_ASSIGNED_CONTEXT((#1884))
GLOBAL_UNIT_ASSIGNED_CONTEXT((#1888,#1890,#1891))
REPRESENTATION_CONTEXT('','3D')
);
#1887=(
GEOMETRIC_REPRESENTATION_CONTEXT(3)
GLOBAL_UNCERTAINTY_ASSIGNED_CONTEXT((#1885))
GLOBAL_UNIT_ASSIGNED_CONTEXT((#1888,#1890,#1891))
REPRESENTATION_CONTEXT('','3D')
);
#1888=(
LENGTH_UNIT()
NAMED_UNIT(*)
SI_UNIT(.MILLI.,.METRE.)
);
#1889=(
LENGTH_UNIT()
NAMED_UNIT(*)
SI_UNIT($,.METRE.)
);
#1890=(
NAMED_UNIT(*)
PLANE_ANGLE_UNIT()
SI_UNIT($,.RADIAN.)
);
#1891=(
NAMED_UNIT(*)
SI_UNIT($,.STERADIAN.)
SOLID_ANGLE_UNIT()
);
#1892=SHAPE_DEFINITION_REPRESENTATION(#1893,#1894);
#1893=PRODUCT_DEFINITION_SHAPE('',$,#1896);
#1894=SHAPE_REPRESENTATION('',(#1070),#1886);
#1895=PRODUCT_DEFINITION_CONTEXT('part definition',#1900,'design');
#1896=PRODUCT_DEFINITION('ACWA-0029','ACWA-0029 v1',#1897,#1895);
#1897=PRODUCT_DEFINITION_FORMATION('',$,#1902);
#1898=PRODUCT_RELATED_PRODUCT_CATEGORY('ACWA-0029 v1','ACWA-0029 v1',(#1902));
#1899=APPLICATION_PROTOCOL_DEFINITION('international standard',
'automotive_design',2009,#1900);
#1900=APPLICATION_CONTEXT(
'Core Data for Automotive Mechanical Design Process');
#1901=PRODUCT_CONTEXT('part definition',#1900,'mechanical');
#1902=PRODUCT('ACWA-0029','ACWA-0029 v1',$,(#1901));
#1903=PRESENTATION_STYLE_ASSIGNMENT((#1904));
#1904=SURFACE_STYLE_USAGE(.BOTH.,#1905);
#1905=SURFACE_SIDE_STYLE('',(#1906));
#1906=SURFACE_STYLE_FILL_AREA(#1907);
#1907=FILL_AREA_STYLE('Acier - Satin\X\E9',(#1908));
#1908=FILL_AREA_STYLE_COLOUR('Acier - Satin\X\E9',#1909);
#1909=COLOUR_RGB('Acier - Satin\X\E9',0.627450980392157,0.627450980392157,
0.627450980392157);
ENDSEC;
END-ISO-10303-21;
