ISO-10303-21;
HEADER;
/* Generated by software containing ST-Developer
 * from STEP Tools, Inc. (www.steptools.com) 
 */

FILE_DESCRIPTION(
/* description */ (''),
/* implementation_level */ '2;1');

FILE_NAME(
/* name */ 'ACWA-0029_PF40.step',
/* time_stamp */ '2025-04-11T15:50:14+02:00',
/* author */ (''),
/* organization */ (''),
/* preprocessor_version */ 'ST-DEVELOPER v20.1',
/* originating_system */ 'Autodesk Translation Framework v14.4.0.0',
/* authorisation */ '');

FILE_SCHEMA (('AUTOMOTIVE_DESIGN { 1 0 10303 214 3 1 1 }'));
ENDSEC;

DATA;
#10=MECHANICAL_DESIGN_GEOMETRIC_PRESENTATION_REPRESENTATION('',(#13),#1449);
#11=SHAPE_REPRESENTATION_RELATIONSHIP('SRR','None',#1456,#12);
#12=ADVANCED_BREP_SHAPE_REPRESENTATION('',(#14),#1448);
#13=STYLED_ITEM('',(#1465),#14);
#14=MANIFOLD_SOLID_BREP('Corps6',#836);
#15=FACE_BOUND('',#97,.T.);
#16=FACE_BOUND('',#103,.T.);
#17=FACE_BOUND('',#106,.T.);
#18=FACE_BOUND('',#108,.T.);
#19=FACE_BOUND('',#133,.T.);
#20=FACE_BOUND('',#136,.T.);
#21=FACE_BOUND('',#139,.T.);
#22=FACE_BOUND('',#140,.T.);
#23=FACE_BOUND('',#141,.T.);
#24=FACE_BOUND('',#144,.T.);
#25=FACE_BOUND('',#145,.T.);
#26=FACE_BOUND('',#146,.T.);
#27=PLANE('',#853);
#28=PLANE('',#857);
#29=PLANE('',#858);
#30=PLANE('',#862);
#31=PLANE('',#866);
#32=PLANE('',#867);
#33=PLANE('',#868);
#34=PLANE('',#869);
#35=PLANE('',#873);
#36=PLANE('',#876);
#37=PLANE('',#877);
#38=PLANE('',#881);
#39=PLANE('',#882);
#40=PLANE('',#891);
#41=PLANE('',#894);
#42=PLANE('',#912);
#43=PLANE('',#915);
#44=PLANE('',#925);
#45=PLANE('',#931);
#46=PLANE('',#937);
#47=PLANE('',#942);
#48=FACE_OUTER_BOUND('',#92,.T.);
#49=FACE_OUTER_BOUND('',#93,.T.);
#50=FACE_OUTER_BOUND('',#94,.T.);
#51=FACE_OUTER_BOUND('',#95,.T.);
#52=FACE_OUTER_BOUND('',#96,.T.);
#53=FACE_OUTER_BOUND('',#98,.T.);
#54=FACE_OUTER_BOUND('',#99,.T.);
#55=FACE_OUTER_BOUND('',#100,.T.);
#56=FACE_OUTER_BOUND('',#101,.T.);
#57=FACE_OUTER_BOUND('',#102,.T.);
#58=FACE_OUTER_BOUND('',#104,.T.);
#59=FACE_OUTER_BOUND('',#105,.T.);
#60=FACE_OUTER_BOUND('',#107,.T.);
#61=FACE_OUTER_BOUND('',#109,.T.);
#62=FACE_OUTER_BOUND('',#110,.T.);
#63=FACE_OUTER_BOUND('',#111,.T.);
#64=FACE_OUTER_BOUND('',#112,.T.);
#65=FACE_OUTER_BOUND('',#113,.T.);
#66=FACE_OUTER_BOUND('',#114,.T.);
#67=FACE_OUTER_BOUND('',#115,.T.);
#68=FACE_OUTER_BOUND('',#116,.T.);
#69=FACE_OUTER_BOUND('',#117,.T.);
#70=FACE_OUTER_BOUND('',#118,.T.);
#71=FACE_OUTER_BOUND('',#119,.T.);
#72=FACE_OUTER_BOUND('',#120,.T.);
#73=FACE_OUTER_BOUND('',#121,.T.);
#74=FACE_OUTER_BOUND('',#122,.T.);
#75=FACE_OUTER_BOUND('',#123,.T.);
#76=FACE_OUTER_BOUND('',#124,.T.);
#77=FACE_OUTER_BOUND('',#125,.T.);
#78=FACE_OUTER_BOUND('',#126,.T.);
#79=FACE_OUTER_BOUND('',#127,.T.);
#80=FACE_OUTER_BOUND('',#128,.T.);
#81=FACE_OUTER_BOUND('',#129,.T.);
#82=FACE_OUTER_BOUND('',#130,.T.);
#83=FACE_OUTER_BOUND('',#131,.T.);
#84=FACE_OUTER_BOUND('',#132,.T.);
#85=FACE_OUTER_BOUND('',#134,.T.);
#86=FACE_OUTER_BOUND('',#135,.T.);
#87=FACE_OUTER_BOUND('',#137,.T.);
#88=FACE_OUTER_BOUND('',#138,.T.);
#89=FACE_OUTER_BOUND('',#142,.T.);
#90=FACE_OUTER_BOUND('',#143,.T.);
#91=FACE_OUTER_BOUND('',#147,.T.);
#92=EDGE_LOOP('',(#531,#532,#533,#534));
#93=EDGE_LOOP('',(#535,#536,#537,#538));
#94=EDGE_LOOP('',(#539,#540,#541,#542));
#95=EDGE_LOOP('',(#543,#544,#545,#546));
#96=EDGE_LOOP('',(#547,#548,#549,#550));
#97=EDGE_LOOP('',(#551));
#98=EDGE_LOOP('',(#552,#553,#554,#555));
#99=EDGE_LOOP('',(#556,#557,#558,#559));
#100=EDGE_LOOP('',(#560,#561,#562,#563));
#101=EDGE_LOOP('',(#564,#565,#566,#567));
#102=EDGE_LOOP('',(#568,#569,#570,#571));
#103=EDGE_LOOP('',(#572));
#104=EDGE_LOOP('',(#573,#574,#575,#576));
#105=EDGE_LOOP('',(#577,#578,#579,#580,#581));
#106=EDGE_LOOP('',(#582));
#107=EDGE_LOOP('',(#583,#584,#585,#586));
#108=EDGE_LOOP('',(#587));
#109=EDGE_LOOP('',(#588,#589,#590,#591));
#110=EDGE_LOOP('',(#592,#593,#594,#595));
#111=EDGE_LOOP('',(#596,#597,#598,#599));
#112=EDGE_LOOP('',(#600,#601,#602,#603));
#113=EDGE_LOOP('',(#604,#605,#606,#607));
#114=EDGE_LOOP('',(#608,#609,#610,#611));
#115=EDGE_LOOP('',(#612,#613,#614,#615));
#116=EDGE_LOOP('',(#616,#617,#618,#619,#620,#621));
#117=EDGE_LOOP('',(#622,#623,#624,#625));
#118=EDGE_LOOP('',(#626,#627,#628,#629));
#119=EDGE_LOOP('',(#630,#631,#632,#633));
#120=EDGE_LOOP('',(#634,#635,#636,#637,#638));
#121=EDGE_LOOP('',(#639,#640,#641,#642));
#122=EDGE_LOOP('',(#643,#644,#645,#646));
#123=EDGE_LOOP('',(#647,#648,#649,#650));
#124=EDGE_LOOP('',(#651,#652,#653,#654));
#125=EDGE_LOOP('',(#655,#656,#657,#658,#659));
#126=EDGE_LOOP('',(#660,#661,#662,#663));
#127=EDGE_LOOP('',(#664,#665,#666,#667));
#128=EDGE_LOOP('',(#668,#669,#670,#671));
#129=EDGE_LOOP('',(#672,#673,#674,#675,#676));
#130=EDGE_LOOP('',(#677,#678,#679,#680));
#131=EDGE_LOOP('',(#681,#682,#683,#684));
#132=EDGE_LOOP('',(#685,#686,#687,#688,#689,#690,#691,#692,#693,#694,#695,
#696));
#133=EDGE_LOOP('',(#697));
#134=EDGE_LOOP('',(#698,#699,#700,#701));
#135=EDGE_LOOP('',(#702,#703,#704,#705,#706,#707,#708,#709,#710,#711,#712,
#713));
#136=EDGE_LOOP('',(#714));
#137=EDGE_LOOP('',(#715,#716,#717,#718));
#138=EDGE_LOOP('',(#719,#720,#721,#722,#723,#724,#725,#726,#727,#728,#729,
#730));
#139=EDGE_LOOP('',(#731));
#140=EDGE_LOOP('',(#732));
#141=EDGE_LOOP('',(#733));
#142=EDGE_LOOP('',(#734,#735,#736,#737,#738,#739,#740,#741,#742,#743));
#143=EDGE_LOOP('',(#744,#745,#746,#747,#748,#749,#750,#751,#752,#753,#754,
#755));
#144=EDGE_LOOP('',(#756));
#145=EDGE_LOOP('',(#757));
#146=EDGE_LOOP('',(#758));
#147=EDGE_LOOP('',(#759,#760,#761,#762,#763,#764,#765,#766,#767,#768));
#148=LINE('',#1210,#216);
#149=LINE('',#1215,#217);
#150=LINE('',#1217,#218);
#151=LINE('',#1219,#219);
#152=LINE('',#1220,#220);
#153=LINE('',#1226,#221);
#154=LINE('',#1229,#222);
#155=LINE('',#1231,#223);
#156=LINE('',#1232,#224);
#157=LINE('',#1234,#225);
#158=LINE('',#1239,#226);
#159=LINE('',#1244,#227);
#160=LINE('',#1246,#228);
#161=LINE('',#1248,#229);
#162=LINE('',#1249,#230);
#163=LINE('',#1255,#231);
#164=LINE('',#1258,#232);
#165=LINE('',#1260,#233);
#166=LINE('',#1261,#234);
#167=LINE('',#1263,#235);
#168=LINE('',#1265,#236);
#169=LINE('',#1266,#237);
#170=LINE('',#1270,#238);
#171=LINE('',#1274,#239);
#172=LINE('',#1277,#240);
#173=LINE('',#1283,#241);
#174=LINE('',#1287,#242);
#175=LINE('',#1288,#243);
#176=LINE('',#1293,#244);
#177=LINE('',#1295,#245);
#178=LINE('',#1296,#246);
#179=LINE('',#1300,#247);
#180=LINE('',#1302,#248);
#181=LINE('',#1304,#249);
#182=LINE('',#1305,#250);
#183=LINE('',#1310,#251);
#184=LINE('',#1314,#252);
#185=LINE('',#1316,#253);
#186=LINE('',#1317,#254);
#187=LINE('',#1320,#255);
#188=LINE('',#1322,#256);
#189=LINE('',#1323,#257);
#190=LINE('',#1328,#258);
#191=LINE('',#1332,#259);
#192=LINE('',#1338,#260);
#193=LINE('',#1341,#261);
#194=LINE('',#1344,#262);
#195=LINE('',#1345,#263);
#196=LINE('',#1349,#264);
#197=LINE('',#1352,#265);
#198=LINE('',#1353,#266);
#199=LINE('',#1358,#267);
#200=LINE('',#1365,#268);
#201=LINE('',#1370,#269);
#202=LINE('',#1374,#270);
#203=LINE('',#1381,#271);
#204=LINE('',#1384,#272);
#205=LINE('',#1389,#273);
#206=LINE('',#1392,#274);
#207=LINE('',#1393,#275);
#208=LINE('',#1397,#276);
#209=LINE('',#1400,#277);
#210=LINE('',#1401,#278);
#211=LINE('',#1406,#279);
#212=LINE('',#1412,#280);
#213=LINE('',#1419,#281);
#214=LINE('',#1427,#282);
#215=LINE('',#1436,#283);
#216=VECTOR('',#951,2.5);
#217=VECTOR('',#956,10.);
#218=VECTOR('',#957,10.);
#219=VECTOR('',#958,10.);
#220=VECTOR('',#959,10.);
#221=VECTOR('',#966,10.);
#222=VECTOR('',#969,10.);
#223=VECTOR('',#970,10.);
#224=VECTOR('',#971,10.);
#225=VECTOR('',#974,10.);
#226=VECTOR('',#979,2.5);
#227=VECTOR('',#984,10.);
#228=VECTOR('',#985,10.);
#229=VECTOR('',#986,10.);
#230=VECTOR('',#987,10.);
#231=VECTOR('',#994,10.);
#232=VECTOR('',#997,10.);
#233=VECTOR('',#998,10.);
#234=VECTOR('',#999,10.);
#235=VECTOR('',#1002,10.);
#236=VECTOR('',#1005,10.);
#237=VECTOR('',#1006,10.);
#238=VECTOR('',#1009,10.);
#239=VECTOR('',#1012,10.);
#240=VECTOR('',#1015,10.);
#241=VECTOR('',#1020,10.);
#242=VECTOR('',#1023,10.);
#243=VECTOR('',#1024,10.);
#244=VECTOR('',#1029,10.);
#245=VECTOR('',#1030,10.);
#246=VECTOR('',#1031,10.);
#247=VECTOR('',#1034,9.2);
#248=VECTOR('',#1035,4.17045582787975);
#249=VECTOR('',#1036,9.2);
#250=VECTOR('',#1037,4.17045582787975);
#251=VECTOR('',#1042,9.2);
#252=VECTOR('',#1047,2.78409837330513);
#253=VECTOR('',#1048,9.2);
#254=VECTOR('',#1049,2.78409837330513);
#255=VECTOR('',#1052,10.);
#256=VECTOR('',#1053,10.);
#257=VECTOR('',#1054,10.);
#258=VECTOR('',#1059,2.5);
#259=VECTOR('',#1064,2.5);
#260=VECTOR('',#1071,10.);
#261=VECTOR('',#1074,5.9);
#262=VECTOR('',#1077,10.);
#263=VECTOR('',#1078,10.);
#264=VECTOR('',#1083,10.);
#265=VECTOR('',#1086,10.);
#266=VECTOR('',#1087,10.);
#267=VECTOR('',#1092,5.9);
#268=VECTOR('',#1101,5.9);
#269=VECTOR('',#1106,9.2);
#270=VECTOR('',#1111,2.5);
#271=VECTOR('',#1118,5.9);
#272=VECTOR('',#1121,5.9);
#273=VECTOR('',#1128,10.);
#274=VECTOR('',#1131,10.);
#275=VECTOR('',#1132,10.);
#276=VECTOR('',#1137,10.);
#277=VECTOR('',#1140,10.);
#278=VECTOR('',#1141,10.);
#279=VECTOR('',#1146,5.9);
#280=VECTOR('',#1153,2.5);
#281=VECTOR('',#1162,5.9);
#282=VECTOR('',#1173,9.2);
#283=VECTOR('',#1186,5.9);
#284=CIRCLE('',#851,2.5);
#285=CIRCLE('',#852,2.5);
#286=CIRCLE('',#855,5.);
#287=CIRCLE('',#856,5.);
#288=CIRCLE('',#860,2.5);
#289=CIRCLE('',#861,2.5);
#290=CIRCLE('',#864,5.);
#291=CIRCLE('',#865,5.);
#292=CIRCLE('',#870,35.5);
#293=CIRCLE('',#871,5.);
#294=CIRCLE('',#872,2.5);
#295=CIRCLE('',#874,5.);
#296=CIRCLE('',#875,2.5);
#297=CIRCLE('',#879,1.);
#298=CIRCLE('',#880,1.);
#299=CIRCLE('',#884,2.5);
#300=CIRCLE('',#885,2.5);
#301=CIRCLE('',#887,2.5);
#302=CIRCLE('',#889,35.5);
#303=CIRCLE('',#890,35.5);
#304=CIRCLE('',#893,5.);
#305=CIRCLE('',#896,35.5);
#306=CIRCLE('',#897,35.5);
#307=CIRCLE('',#899,5.);
#308=CIRCLE('',#900,5.);
#309=CIRCLE('',#902,2.);
#310=CIRCLE('',#903,2.);
#311=CIRCLE('',#905,2.5);
#312=CIRCLE('',#907,5.);
#313=CIRCLE('',#908,5.);
#314=CIRCLE('',#910,35.5);
#315=CIRCLE('',#911,35.5);
#316=CIRCLE('',#914,5.);
#317=CIRCLE('',#917,35.5);
#318=CIRCLE('',#918,35.5);
#319=CIRCLE('',#920,2.5);
#320=CIRCLE('',#921,2.5);
#321=CIRCLE('',#923,5.);
#322=CIRCLE('',#924,5.);
#323=CIRCLE('',#926,70.);
#324=CIRCLE('',#927,1.);
#325=CIRCLE('',#928,35.);
#326=CIRCLE('',#930,1.);
#327=CIRCLE('',#932,35.);
#328=CIRCLE('',#933,70.);
#329=CIRCLE('',#934,5.);
#330=CIRCLE('',#936,5.);
#331=CIRCLE('',#938,35.);
#332=CIRCLE('',#939,70.);
#333=CIRCLE('',#941,35.);
#334=CIRCLE('',#943,70.);
#335=VERTEX_POINT('',#1207);
#336=VERTEX_POINT('',#1209);
#337=VERTEX_POINT('',#1213);
#338=VERTEX_POINT('',#1214);
#339=VERTEX_POINT('',#1216);
#340=VERTEX_POINT('',#1218);
#341=VERTEX_POINT('',#1222);
#342=VERTEX_POINT('',#1224);
#343=VERTEX_POINT('',#1228);
#344=VERTEX_POINT('',#1230);
#345=VERTEX_POINT('',#1236);
#346=VERTEX_POINT('',#1238);
#347=VERTEX_POINT('',#1242);
#348=VERTEX_POINT('',#1243);
#349=VERTEX_POINT('',#1245);
#350=VERTEX_POINT('',#1247);
#351=VERTEX_POINT('',#1251);
#352=VERTEX_POINT('',#1253);
#353=VERTEX_POINT('',#1257);
#354=VERTEX_POINT('',#1259);
#355=VERTEX_POINT('',#1268);
#356=VERTEX_POINT('',#1269);
#357=VERTEX_POINT('',#1271);
#358=VERTEX_POINT('',#1273);
#359=VERTEX_POINT('',#1275);
#360=VERTEX_POINT('',#1278);
#361=VERTEX_POINT('',#1281);
#362=VERTEX_POINT('',#1282);
#363=VERTEX_POINT('',#1284);
#364=VERTEX_POINT('',#1286);
#365=VERTEX_POINT('',#1289);
#366=VERTEX_POINT('',#1292);
#367=VERTEX_POINT('',#1294);
#368=VERTEX_POINT('',#1298);
#369=VERTEX_POINT('',#1299);
#370=VERTEX_POINT('',#1301);
#371=VERTEX_POINT('',#1303);
#372=VERTEX_POINT('',#1307);
#373=VERTEX_POINT('',#1309);
#374=VERTEX_POINT('',#1313);
#375=VERTEX_POINT('',#1315);
#376=VERTEX_POINT('',#1319);
#377=VERTEX_POINT('',#1321);
#378=VERTEX_POINT('',#1325);
#379=VERTEX_POINT('',#1327);
#380=VERTEX_POINT('',#1331);
#381=VERTEX_POINT('',#1335);
#382=VERTEX_POINT('',#1336);
#383=VERTEX_POINT('',#1339);
#384=VERTEX_POINT('',#1343);
#385=VERTEX_POINT('',#1347);
#386=VERTEX_POINT('',#1351);
#387=VERTEX_POINT('',#1355);
#388=VERTEX_POINT('',#1357);
#389=VERTEX_POINT('',#1361);
#390=VERTEX_POINT('',#1363);
#391=VERTEX_POINT('',#1367);
#392=VERTEX_POINT('',#1369);
#393=VERTEX_POINT('',#1373);
#394=VERTEX_POINT('',#1377);
#395=VERTEX_POINT('',#1378);
#396=VERTEX_POINT('',#1380);
#397=VERTEX_POINT('',#1382);
#398=VERTEX_POINT('',#1387);
#399=VERTEX_POINT('',#1391);
#400=VERTEX_POINT('',#1395);
#401=VERTEX_POINT('',#1399);
#402=VERTEX_POINT('',#1403);
#403=VERTEX_POINT('',#1405);
#404=VERTEX_POINT('',#1409);
#405=VERTEX_POINT('',#1411);
#406=VERTEX_POINT('',#1415);
#407=VERTEX_POINT('',#1417);
#408=VERTEX_POINT('',#1421);
#409=VERTEX_POINT('',#1426);
#410=VERTEX_POINT('',#1431);
#411=VERTEX_POINT('',#1435);
#412=EDGE_CURVE('',#335,#335,#284,.T.);
#413=EDGE_CURVE('',#335,#336,#148,.T.);
#414=EDGE_CURVE('',#336,#336,#285,.T.);
#415=EDGE_CURVE('',#337,#338,#149,.T.);
#416=EDGE_CURVE('',#339,#337,#150,.T.);
#417=EDGE_CURVE('',#340,#339,#151,.T.);
#418=EDGE_CURVE('',#338,#340,#152,.T.);
#419=EDGE_CURVE('',#338,#341,#286,.T.);
#420=EDGE_CURVE('',#342,#340,#287,.T.);
#421=EDGE_CURVE('',#341,#342,#153,.T.);
#422=EDGE_CURVE('',#343,#341,#154,.T.);
#423=EDGE_CURVE('',#344,#342,#155,.T.);
#424=EDGE_CURVE('',#343,#344,#156,.T.);
#425=EDGE_CURVE('',#344,#339,#157,.T.);
#426=EDGE_CURVE('',#345,#345,#288,.T.);
#427=EDGE_CURVE('',#345,#346,#158,.T.);
#428=EDGE_CURVE('',#346,#346,#289,.T.);
#429=EDGE_CURVE('',#347,#348,#159,.T.);
#430=EDGE_CURVE('',#349,#347,#160,.T.);
#431=EDGE_CURVE('',#350,#349,#161,.T.);
#432=EDGE_CURVE('',#348,#350,#162,.T.);
#433=EDGE_CURVE('',#348,#351,#290,.T.);
#434=EDGE_CURVE('',#352,#350,#291,.T.);
#435=EDGE_CURVE('',#351,#352,#163,.T.);
#436=EDGE_CURVE('',#353,#351,#164,.T.);
#437=EDGE_CURVE('',#354,#352,#165,.T.);
#438=EDGE_CURVE('',#353,#354,#166,.T.);
#439=EDGE_CURVE('',#354,#349,#167,.T.);
#440=EDGE_CURVE('',#354,#339,#168,.T.);
#441=EDGE_CURVE('',#344,#349,#169,.T.);
#442=EDGE_CURVE('',#355,#356,#170,.T.);
#443=EDGE_CURVE('',#355,#357,#292,.T.);
#444=EDGE_CURVE('',#357,#358,#171,.T.);
#445=EDGE_CURVE('',#358,#359,#293,.T.);
#446=EDGE_CURVE('',#359,#356,#172,.T.);
#447=EDGE_CURVE('',#360,#360,#294,.T.);
#448=EDGE_CURVE('',#361,#362,#173,.T.);
#449=EDGE_CURVE('',#362,#363,#295,.T.);
#450=EDGE_CURVE('',#363,#364,#174,.T.);
#451=EDGE_CURVE('',#361,#364,#175,.T.);
#452=EDGE_CURVE('',#365,#365,#296,.T.);
#453=EDGE_CURVE('',#366,#364,#176,.T.);
#454=EDGE_CURVE('',#367,#366,#177,.T.);
#455=EDGE_CURVE('',#367,#361,#178,.T.);
#456=EDGE_CURVE('',#368,#369,#179,.T.);
#457=EDGE_CURVE('',#368,#370,#180,.T.);
#458=EDGE_CURVE('',#371,#370,#181,.T.);
#459=EDGE_CURVE('',#369,#371,#182,.T.);
#460=EDGE_CURVE('',#372,#370,#297,.T.);
#461=EDGE_CURVE('',#373,#372,#183,.T.);
#462=EDGE_CURVE('',#371,#373,#298,.T.);
#463=EDGE_CURVE('',#372,#374,#184,.T.);
#464=EDGE_CURVE('',#375,#374,#185,.T.);
#465=EDGE_CURVE('',#373,#375,#186,.T.);
#466=EDGE_CURVE('',#356,#376,#187,.T.);
#467=EDGE_CURVE('',#377,#376,#188,.T.);
#468=EDGE_CURVE('',#355,#377,#189,.T.);
#469=EDGE_CURVE('',#378,#378,#299,.T.);
#470=EDGE_CURVE('',#378,#379,#190,.T.);
#471=EDGE_CURVE('',#379,#379,#300,.T.);
#472=EDGE_CURVE('',#360,#380,#191,.T.);
#473=EDGE_CURVE('',#380,#380,#301,.T.);
#474=EDGE_CURVE('',#381,#382,#302,.T.);
#475=EDGE_CURVE('',#381,#357,#192,.T.);
#476=EDGE_CURVE('',#383,#377,#303,.T.);
#477=EDGE_CURVE('',#383,#382,#193,.T.);
#478=EDGE_CURVE('',#384,#381,#194,.T.);
#479=EDGE_CURVE('',#384,#358,#195,.T.);
#480=EDGE_CURVE('',#385,#384,#304,.T.);
#481=EDGE_CURVE('',#385,#359,#196,.T.);
#482=EDGE_CURVE('',#385,#386,#197,.T.);
#483=EDGE_CURVE('',#386,#356,#198,.T.);
#484=EDGE_CURVE('',#387,#386,#305,.T.);
#485=EDGE_CURVE('',#388,#387,#199,.T.);
#486=EDGE_CURVE('',#376,#388,#306,.T.);
#487=EDGE_CURVE('',#389,#388,#307,.T.);
#488=EDGE_CURVE('',#390,#387,#308,.T.);
#489=EDGE_CURVE('',#389,#390,#200,.T.);
#490=EDGE_CURVE('',#391,#374,#309,.T.);
#491=EDGE_CURVE('',#392,#391,#201,.T.);
#492=EDGE_CURVE('',#375,#392,#310,.T.);
#493=EDGE_CURVE('',#365,#393,#202,.T.);
#494=EDGE_CURVE('',#393,#393,#311,.T.);
#495=EDGE_CURVE('',#394,#395,#312,.T.);
#496=EDGE_CURVE('',#396,#394,#203,.T.);
#497=EDGE_CURVE('',#397,#396,#313,.T.);
#498=EDGE_CURVE('',#397,#395,#204,.T.);
#499=EDGE_CURVE('',#367,#395,#314,.T.);
#500=EDGE_CURVE('',#397,#398,#315,.T.);
#501=EDGE_CURVE('',#361,#398,#205,.T.);
#502=EDGE_CURVE('',#398,#399,#206,.T.);
#503=EDGE_CURVE('',#399,#362,#207,.T.);
#504=EDGE_CURVE('',#400,#399,#316,.T.);
#505=EDGE_CURVE('',#400,#363,#208,.T.);
#506=EDGE_CURVE('',#401,#400,#209,.T.);
#507=EDGE_CURVE('',#364,#401,#210,.T.);
#508=EDGE_CURVE('',#401,#402,#317,.T.);
#509=EDGE_CURVE('',#402,#403,#211,.T.);
#510=EDGE_CURVE('',#403,#366,#318,.T.);
#511=EDGE_CURVE('',#404,#404,#319,.T.);
#512=EDGE_CURVE('',#404,#405,#212,.T.);
#513=EDGE_CURVE('',#405,#405,#320,.T.);
#514=EDGE_CURVE('',#403,#406,#321,.T.);
#515=EDGE_CURVE('',#407,#402,#322,.T.);
#516=EDGE_CURVE('',#407,#406,#213,.T.);
#517=EDGE_CURVE('',#408,#406,#323,.T.);
#518=EDGE_CURVE('',#408,#369,#324,.T.);
#519=EDGE_CURVE('',#394,#392,#325,.T.);
#520=EDGE_CURVE('',#409,#408,#214,.T.);
#521=EDGE_CURVE('',#368,#409,#326,.T.);
#522=EDGE_CURVE('',#391,#389,#327,.T.);
#523=EDGE_CURVE('',#410,#409,#328,.T.);
#524=EDGE_CURVE('',#410,#383,#329,.T.);
#525=EDGE_CURVE('',#410,#411,#215,.T.);
#526=EDGE_CURVE('',#382,#411,#330,.T.);
#527=EDGE_CURVE('',#343,#390,#331,.T.);
#528=EDGE_CURVE('',#411,#337,#332,.T.);
#529=EDGE_CURVE('',#347,#396,#333,.T.);
#530=EDGE_CURVE('',#407,#353,#334,.T.);
#531=ORIENTED_EDGE('',*,*,#412,.F.);
#532=ORIENTED_EDGE('',*,*,#413,.T.);
#533=ORIENTED_EDGE('',*,*,#414,.T.);
#534=ORIENTED_EDGE('',*,*,#413,.F.);
#535=ORIENTED_EDGE('',*,*,#415,.F.);
#536=ORIENTED_EDGE('',*,*,#416,.F.);
#537=ORIENTED_EDGE('',*,*,#417,.F.);
#538=ORIENTED_EDGE('',*,*,#418,.F.);
#539=ORIENTED_EDGE('',*,*,#419,.F.);
#540=ORIENTED_EDGE('',*,*,#418,.T.);
#541=ORIENTED_EDGE('',*,*,#420,.F.);
#542=ORIENTED_EDGE('',*,*,#421,.F.);
#543=ORIENTED_EDGE('',*,*,#422,.T.);
#544=ORIENTED_EDGE('',*,*,#421,.T.);
#545=ORIENTED_EDGE('',*,*,#423,.F.);
#546=ORIENTED_EDGE('',*,*,#424,.F.);
#547=ORIENTED_EDGE('',*,*,#425,.F.);
#548=ORIENTED_EDGE('',*,*,#423,.T.);
#549=ORIENTED_EDGE('',*,*,#420,.T.);
#550=ORIENTED_EDGE('',*,*,#417,.T.);
#551=ORIENTED_EDGE('',*,*,#412,.T.);
#552=ORIENTED_EDGE('',*,*,#426,.F.);
#553=ORIENTED_EDGE('',*,*,#427,.T.);
#554=ORIENTED_EDGE('',*,*,#428,.T.);
#555=ORIENTED_EDGE('',*,*,#427,.F.);
#556=ORIENTED_EDGE('',*,*,#429,.F.);
#557=ORIENTED_EDGE('',*,*,#430,.F.);
#558=ORIENTED_EDGE('',*,*,#431,.F.);
#559=ORIENTED_EDGE('',*,*,#432,.F.);
#560=ORIENTED_EDGE('',*,*,#433,.F.);
#561=ORIENTED_EDGE('',*,*,#432,.T.);
#562=ORIENTED_EDGE('',*,*,#434,.F.);
#563=ORIENTED_EDGE('',*,*,#435,.F.);
#564=ORIENTED_EDGE('',*,*,#436,.T.);
#565=ORIENTED_EDGE('',*,*,#435,.T.);
#566=ORIENTED_EDGE('',*,*,#437,.F.);
#567=ORIENTED_EDGE('',*,*,#438,.F.);
#568=ORIENTED_EDGE('',*,*,#437,.T.);
#569=ORIENTED_EDGE('',*,*,#434,.T.);
#570=ORIENTED_EDGE('',*,*,#431,.T.);
#571=ORIENTED_EDGE('',*,*,#439,.F.);
#572=ORIENTED_EDGE('',*,*,#426,.T.);
#573=ORIENTED_EDGE('',*,*,#425,.T.);
#574=ORIENTED_EDGE('',*,*,#440,.F.);
#575=ORIENTED_EDGE('',*,*,#439,.T.);
#576=ORIENTED_EDGE('',*,*,#441,.F.);
#577=ORIENTED_EDGE('',*,*,#442,.F.);
#578=ORIENTED_EDGE('',*,*,#443,.T.);
#579=ORIENTED_EDGE('',*,*,#444,.T.);
#580=ORIENTED_EDGE('',*,*,#445,.T.);
#581=ORIENTED_EDGE('',*,*,#446,.T.);
#582=ORIENTED_EDGE('',*,*,#447,.T.);
#583=ORIENTED_EDGE('',*,*,#448,.T.);
#584=ORIENTED_EDGE('',*,*,#449,.T.);
#585=ORIENTED_EDGE('',*,*,#450,.T.);
#586=ORIENTED_EDGE('',*,*,#451,.F.);
#587=ORIENTED_EDGE('',*,*,#452,.T.);
#588=ORIENTED_EDGE('',*,*,#451,.T.);
#589=ORIENTED_EDGE('',*,*,#453,.F.);
#590=ORIENTED_EDGE('',*,*,#454,.F.);
#591=ORIENTED_EDGE('',*,*,#455,.T.);
#592=ORIENTED_EDGE('',*,*,#456,.F.);
#593=ORIENTED_EDGE('',*,*,#457,.T.);
#594=ORIENTED_EDGE('',*,*,#458,.F.);
#595=ORIENTED_EDGE('',*,*,#459,.F.);
#596=ORIENTED_EDGE('',*,*,#458,.T.);
#597=ORIENTED_EDGE('',*,*,#460,.F.);
#598=ORIENTED_EDGE('',*,*,#461,.F.);
#599=ORIENTED_EDGE('',*,*,#462,.F.);
#600=ORIENTED_EDGE('',*,*,#461,.T.);
#601=ORIENTED_EDGE('',*,*,#463,.T.);
#602=ORIENTED_EDGE('',*,*,#464,.F.);
#603=ORIENTED_EDGE('',*,*,#465,.F.);
#604=ORIENTED_EDGE('',*,*,#442,.T.);
#605=ORIENTED_EDGE('',*,*,#466,.T.);
#606=ORIENTED_EDGE('',*,*,#467,.F.);
#607=ORIENTED_EDGE('',*,*,#468,.F.);
#608=ORIENTED_EDGE('',*,*,#469,.F.);
#609=ORIENTED_EDGE('',*,*,#470,.T.);
#610=ORIENTED_EDGE('',*,*,#471,.T.);
#611=ORIENTED_EDGE('',*,*,#470,.F.);
#612=ORIENTED_EDGE('',*,*,#447,.F.);
#613=ORIENTED_EDGE('',*,*,#472,.T.);
#614=ORIENTED_EDGE('',*,*,#473,.T.);
#615=ORIENTED_EDGE('',*,*,#472,.F.);
#616=ORIENTED_EDGE('',*,*,#474,.F.);
#617=ORIENTED_EDGE('',*,*,#475,.T.);
#618=ORIENTED_EDGE('',*,*,#443,.F.);
#619=ORIENTED_EDGE('',*,*,#468,.T.);
#620=ORIENTED_EDGE('',*,*,#476,.F.);
#621=ORIENTED_EDGE('',*,*,#477,.T.);
#622=ORIENTED_EDGE('',*,*,#478,.F.);
#623=ORIENTED_EDGE('',*,*,#479,.T.);
#624=ORIENTED_EDGE('',*,*,#444,.F.);
#625=ORIENTED_EDGE('',*,*,#475,.F.);
#626=ORIENTED_EDGE('',*,*,#480,.F.);
#627=ORIENTED_EDGE('',*,*,#481,.T.);
#628=ORIENTED_EDGE('',*,*,#445,.F.);
#629=ORIENTED_EDGE('',*,*,#479,.F.);
#630=ORIENTED_EDGE('',*,*,#482,.T.);
#631=ORIENTED_EDGE('',*,*,#483,.T.);
#632=ORIENTED_EDGE('',*,*,#446,.F.);
#633=ORIENTED_EDGE('',*,*,#481,.F.);
#634=ORIENTED_EDGE('',*,*,#483,.F.);
#635=ORIENTED_EDGE('',*,*,#484,.F.);
#636=ORIENTED_EDGE('',*,*,#485,.F.);
#637=ORIENTED_EDGE('',*,*,#486,.F.);
#638=ORIENTED_EDGE('',*,*,#466,.F.);
#639=ORIENTED_EDGE('',*,*,#487,.T.);
#640=ORIENTED_EDGE('',*,*,#485,.T.);
#641=ORIENTED_EDGE('',*,*,#488,.F.);
#642=ORIENTED_EDGE('',*,*,#489,.F.);
#643=ORIENTED_EDGE('',*,*,#464,.T.);
#644=ORIENTED_EDGE('',*,*,#490,.F.);
#645=ORIENTED_EDGE('',*,*,#491,.F.);
#646=ORIENTED_EDGE('',*,*,#492,.F.);
#647=ORIENTED_EDGE('',*,*,#452,.F.);
#648=ORIENTED_EDGE('',*,*,#493,.T.);
#649=ORIENTED_EDGE('',*,*,#494,.T.);
#650=ORIENTED_EDGE('',*,*,#493,.F.);
#651=ORIENTED_EDGE('',*,*,#495,.F.);
#652=ORIENTED_EDGE('',*,*,#496,.F.);
#653=ORIENTED_EDGE('',*,*,#497,.F.);
#654=ORIENTED_EDGE('',*,*,#498,.T.);
#655=ORIENTED_EDGE('',*,*,#455,.F.);
#656=ORIENTED_EDGE('',*,*,#499,.T.);
#657=ORIENTED_EDGE('',*,*,#498,.F.);
#658=ORIENTED_EDGE('',*,*,#500,.T.);
#659=ORIENTED_EDGE('',*,*,#501,.F.);
#660=ORIENTED_EDGE('',*,*,#502,.T.);
#661=ORIENTED_EDGE('',*,*,#503,.T.);
#662=ORIENTED_EDGE('',*,*,#448,.F.);
#663=ORIENTED_EDGE('',*,*,#501,.T.);
#664=ORIENTED_EDGE('',*,*,#504,.F.);
#665=ORIENTED_EDGE('',*,*,#505,.T.);
#666=ORIENTED_EDGE('',*,*,#449,.F.);
#667=ORIENTED_EDGE('',*,*,#503,.F.);
#668=ORIENTED_EDGE('',*,*,#506,.F.);
#669=ORIENTED_EDGE('',*,*,#507,.F.);
#670=ORIENTED_EDGE('',*,*,#450,.F.);
#671=ORIENTED_EDGE('',*,*,#505,.F.);
#672=ORIENTED_EDGE('',*,*,#453,.T.);
#673=ORIENTED_EDGE('',*,*,#507,.T.);
#674=ORIENTED_EDGE('',*,*,#508,.T.);
#675=ORIENTED_EDGE('',*,*,#509,.T.);
#676=ORIENTED_EDGE('',*,*,#510,.T.);
#677=ORIENTED_EDGE('',*,*,#511,.F.);
#678=ORIENTED_EDGE('',*,*,#512,.T.);
#679=ORIENTED_EDGE('',*,*,#513,.T.);
#680=ORIENTED_EDGE('',*,*,#512,.F.);
#681=ORIENTED_EDGE('',*,*,#514,.F.);
#682=ORIENTED_EDGE('',*,*,#509,.F.);
#683=ORIENTED_EDGE('',*,*,#515,.F.);
#684=ORIENTED_EDGE('',*,*,#516,.T.);
#685=ORIENTED_EDGE('',*,*,#454,.T.);
#686=ORIENTED_EDGE('',*,*,#510,.F.);
#687=ORIENTED_EDGE('',*,*,#514,.T.);
#688=ORIENTED_EDGE('',*,*,#517,.F.);
#689=ORIENTED_EDGE('',*,*,#518,.T.);
#690=ORIENTED_EDGE('',*,*,#459,.T.);
#691=ORIENTED_EDGE('',*,*,#462,.T.);
#692=ORIENTED_EDGE('',*,*,#465,.T.);
#693=ORIENTED_EDGE('',*,*,#492,.T.);
#694=ORIENTED_EDGE('',*,*,#519,.F.);
#695=ORIENTED_EDGE('',*,*,#495,.T.);
#696=ORIENTED_EDGE('',*,*,#499,.F.);
#697=ORIENTED_EDGE('',*,*,#511,.T.);
#698=ORIENTED_EDGE('',*,*,#456,.T.);
#699=ORIENTED_EDGE('',*,*,#518,.F.);
#700=ORIENTED_EDGE('',*,*,#520,.F.);
#701=ORIENTED_EDGE('',*,*,#521,.F.);
#702=ORIENTED_EDGE('',*,*,#467,.T.);
#703=ORIENTED_EDGE('',*,*,#486,.T.);
#704=ORIENTED_EDGE('',*,*,#487,.F.);
#705=ORIENTED_EDGE('',*,*,#522,.F.);
#706=ORIENTED_EDGE('',*,*,#490,.T.);
#707=ORIENTED_EDGE('',*,*,#463,.F.);
#708=ORIENTED_EDGE('',*,*,#460,.T.);
#709=ORIENTED_EDGE('',*,*,#457,.F.);
#710=ORIENTED_EDGE('',*,*,#521,.T.);
#711=ORIENTED_EDGE('',*,*,#523,.F.);
#712=ORIENTED_EDGE('',*,*,#524,.T.);
#713=ORIENTED_EDGE('',*,*,#476,.T.);
#714=ORIENTED_EDGE('',*,*,#471,.F.);
#715=ORIENTED_EDGE('',*,*,#524,.F.);
#716=ORIENTED_EDGE('',*,*,#525,.T.);
#717=ORIENTED_EDGE('',*,*,#526,.F.);
#718=ORIENTED_EDGE('',*,*,#477,.F.);
#719=ORIENTED_EDGE('',*,*,#527,.T.);
#720=ORIENTED_EDGE('',*,*,#488,.T.);
#721=ORIENTED_EDGE('',*,*,#484,.T.);
#722=ORIENTED_EDGE('',*,*,#482,.F.);
#723=ORIENTED_EDGE('',*,*,#480,.T.);
#724=ORIENTED_EDGE('',*,*,#478,.T.);
#725=ORIENTED_EDGE('',*,*,#474,.T.);
#726=ORIENTED_EDGE('',*,*,#526,.T.);
#727=ORIENTED_EDGE('',*,*,#528,.T.);
#728=ORIENTED_EDGE('',*,*,#415,.T.);
#729=ORIENTED_EDGE('',*,*,#419,.T.);
#730=ORIENTED_EDGE('',*,*,#422,.F.);
#731=ORIENTED_EDGE('',*,*,#414,.F.);
#732=ORIENTED_EDGE('',*,*,#473,.F.);
#733=ORIENTED_EDGE('',*,*,#469,.T.);
#734=ORIENTED_EDGE('',*,*,#424,.T.);
#735=ORIENTED_EDGE('',*,*,#441,.T.);
#736=ORIENTED_EDGE('',*,*,#430,.T.);
#737=ORIENTED_EDGE('',*,*,#529,.T.);
#738=ORIENTED_EDGE('',*,*,#496,.T.);
#739=ORIENTED_EDGE('',*,*,#519,.T.);
#740=ORIENTED_EDGE('',*,*,#491,.T.);
#741=ORIENTED_EDGE('',*,*,#522,.T.);
#742=ORIENTED_EDGE('',*,*,#489,.T.);
#743=ORIENTED_EDGE('',*,*,#527,.F.);
#744=ORIENTED_EDGE('',*,*,#530,.F.);
#745=ORIENTED_EDGE('',*,*,#515,.T.);
#746=ORIENTED_EDGE('',*,*,#508,.F.);
#747=ORIENTED_EDGE('',*,*,#506,.T.);
#748=ORIENTED_EDGE('',*,*,#504,.T.);
#749=ORIENTED_EDGE('',*,*,#502,.F.);
#750=ORIENTED_EDGE('',*,*,#500,.F.);
#751=ORIENTED_EDGE('',*,*,#497,.T.);
#752=ORIENTED_EDGE('',*,*,#529,.F.);
#753=ORIENTED_EDGE('',*,*,#429,.T.);
#754=ORIENTED_EDGE('',*,*,#433,.T.);
#755=ORIENTED_EDGE('',*,*,#436,.F.);
#756=ORIENTED_EDGE('',*,*,#428,.F.);
#757=ORIENTED_EDGE('',*,*,#513,.F.);
#758=ORIENTED_EDGE('',*,*,#494,.F.);
#759=ORIENTED_EDGE('',*,*,#438,.T.);
#760=ORIENTED_EDGE('',*,*,#440,.T.);
#761=ORIENTED_EDGE('',*,*,#416,.T.);
#762=ORIENTED_EDGE('',*,*,#528,.F.);
#763=ORIENTED_EDGE('',*,*,#525,.F.);
#764=ORIENTED_EDGE('',*,*,#523,.T.);
#765=ORIENTED_EDGE('',*,*,#520,.T.);
#766=ORIENTED_EDGE('',*,*,#517,.T.);
#767=ORIENTED_EDGE('',*,*,#516,.F.);
#768=ORIENTED_EDGE('',*,*,#530,.T.);
#769=CYLINDRICAL_SURFACE('',#850,2.5);
#770=CYLINDRICAL_SURFACE('',#854,5.);
#771=CYLINDRICAL_SURFACE('',#859,2.5);
#772=CYLINDRICAL_SURFACE('',#863,5.);
#773=CYLINDRICAL_SURFACE('',#878,1.);
#774=CYLINDRICAL_SURFACE('',#883,2.5);
#775=CYLINDRICAL_SURFACE('',#886,2.5);
#776=CYLINDRICAL_SURFACE('',#888,35.5);
#777=CYLINDRICAL_SURFACE('',#892,5.);
#778=CYLINDRICAL_SURFACE('',#895,35.5);
#779=CYLINDRICAL_SURFACE('',#898,5.);
#780=CYLINDRICAL_SURFACE('',#901,2.);
#781=CYLINDRICAL_SURFACE('',#904,2.5);
#782=CYLINDRICAL_SURFACE('',#906,5.);
#783=CYLINDRICAL_SURFACE('',#909,35.5);
#784=CYLINDRICAL_SURFACE('',#913,5.);
#785=CYLINDRICAL_SURFACE('',#916,35.5);
#786=CYLINDRICAL_SURFACE('',#919,2.5);
#787=CYLINDRICAL_SURFACE('',#922,5.);
#788=CYLINDRICAL_SURFACE('',#929,1.);
#789=CYLINDRICAL_SURFACE('',#935,5.);
#790=CYLINDRICAL_SURFACE('',#940,35.);
#791=CYLINDRICAL_SURFACE('',#944,70.);
#792=ADVANCED_FACE('',(#48),#769,.F.);
#793=ADVANCED_FACE('',(#49),#27,.T.);
#794=ADVANCED_FACE('',(#50),#770,.T.);
#795=ADVANCED_FACE('',(#51),#28,.T.);
#796=ADVANCED_FACE('',(#52,#15),#29,.F.);
#797=ADVANCED_FACE('',(#53),#771,.F.);
#798=ADVANCED_FACE('',(#54),#30,.T.);
#799=ADVANCED_FACE('',(#55),#772,.T.);
#800=ADVANCED_FACE('',(#56),#31,.T.);
#801=ADVANCED_FACE('',(#57,#16),#32,.F.);
#802=ADVANCED_FACE('',(#58),#33,.F.);
#803=ADVANCED_FACE('',(#59,#17),#34,.F.);
#804=ADVANCED_FACE('',(#60,#18),#35,.F.);
#805=ADVANCED_FACE('',(#61),#36,.F.);
#806=ADVANCED_FACE('',(#62),#37,.F.);
#807=ADVANCED_FACE('',(#63),#773,.T.);
#808=ADVANCED_FACE('',(#64),#38,.F.);
#809=ADVANCED_FACE('',(#65),#39,.F.);
#810=ADVANCED_FACE('',(#66),#774,.F.);
#811=ADVANCED_FACE('',(#67),#775,.F.);
#812=ADVANCED_FACE('',(#68),#776,.F.);
#813=ADVANCED_FACE('',(#69),#40,.T.);
#814=ADVANCED_FACE('',(#70),#777,.T.);
#815=ADVANCED_FACE('',(#71),#41,.T.);
#816=ADVANCED_FACE('',(#72),#778,.F.);
#817=ADVANCED_FACE('',(#73),#779,.T.);
#818=ADVANCED_FACE('',(#74),#780,.T.);
#819=ADVANCED_FACE('',(#75),#781,.F.);
#820=ADVANCED_FACE('',(#76),#782,.T.);
#821=ADVANCED_FACE('',(#77),#783,.F.);
#822=ADVANCED_FACE('',(#78),#42,.T.);
#823=ADVANCED_FACE('',(#79),#784,.T.);
#824=ADVANCED_FACE('',(#80),#43,.T.);
#825=ADVANCED_FACE('',(#81),#785,.F.);
#826=ADVANCED_FACE('',(#82),#786,.F.);
#827=ADVANCED_FACE('',(#83),#787,.T.);
#828=ADVANCED_FACE('',(#84,#19),#44,.T.);
#829=ADVANCED_FACE('',(#85),#788,.T.);
#830=ADVANCED_FACE('',(#86,#20),#45,.F.);
#831=ADVANCED_FACE('',(#87),#789,.T.);
#832=ADVANCED_FACE('',(#88,#21,#22,#23),#46,.T.);
#833=ADVANCED_FACE('',(#89),#790,.F.);
#834=ADVANCED_FACE('',(#90,#24,#25,#26),#47,.F.);
#835=ADVANCED_FACE('',(#91),#791,.F.);
#836=CLOSED_SHELL('',(#792,#793,#794,#795,#796,#797,#798,#799,#800,#801,
#802,#803,#804,#805,#806,#807,#808,#809,#810,#811,#812,#813,#814,#815,#816,
#817,#818,#819,#820,#821,#822,#823,#824,#825,#826,#827,#828,#829,#830,#831,
#832,#833,#834,#835));
#837=DERIVED_UNIT_ELEMENT(#839,1.);
#838=DERIVED_UNIT_ELEMENT(#1451,-3.);
#839=(
MASS_UNIT()
NAMED_UNIT(*)
SI_UNIT(.KILO.,.GRAM.)
);
#840=DERIVED_UNIT((#837,#838));
#841=MEASURE_REPRESENTATION_ITEM('density measure',
POSITIVE_RATIO_MEASURE(7850.),#840);
#842=PROPERTY_DEFINITION_REPRESENTATION(#847,#844);
#843=PROPERTY_DEFINITION_REPRESENTATION(#848,#845);
#844=REPRESENTATION('material name',(#846),#1448);
#845=REPRESENTATION('density',(#841),#1448);
#846=DESCRIPTIVE_REPRESENTATION_ITEM('Acier','Acier');
#847=PROPERTY_DEFINITION('material property','material name',#1458);
#848=PROPERTY_DEFINITION('material property','density of part',#1458);
#849=AXIS2_PLACEMENT_3D('',#1205,#945,#946);
#850=AXIS2_PLACEMENT_3D('',#1206,#947,#948);
#851=AXIS2_PLACEMENT_3D('',#1208,#949,#950);
#852=AXIS2_PLACEMENT_3D('',#1211,#952,#953);
#853=AXIS2_PLACEMENT_3D('',#1212,#954,#955);
#854=AXIS2_PLACEMENT_3D('',#1221,#960,#961);
#855=AXIS2_PLACEMENT_3D('',#1223,#962,#963);
#856=AXIS2_PLACEMENT_3D('',#1225,#964,#965);
#857=AXIS2_PLACEMENT_3D('',#1227,#967,#968);
#858=AXIS2_PLACEMENT_3D('',#1233,#972,#973);
#859=AXIS2_PLACEMENT_3D('',#1235,#975,#976);
#860=AXIS2_PLACEMENT_3D('',#1237,#977,#978);
#861=AXIS2_PLACEMENT_3D('',#1240,#980,#981);
#862=AXIS2_PLACEMENT_3D('',#1241,#982,#983);
#863=AXIS2_PLACEMENT_3D('',#1250,#988,#989);
#864=AXIS2_PLACEMENT_3D('',#1252,#990,#991);
#865=AXIS2_PLACEMENT_3D('',#1254,#992,#993);
#866=AXIS2_PLACEMENT_3D('',#1256,#995,#996);
#867=AXIS2_PLACEMENT_3D('',#1262,#1000,#1001);
#868=AXIS2_PLACEMENT_3D('',#1264,#1003,#1004);
#869=AXIS2_PLACEMENT_3D('',#1267,#1007,#1008);
#870=AXIS2_PLACEMENT_3D('',#1272,#1010,#1011);
#871=AXIS2_PLACEMENT_3D('',#1276,#1013,#1014);
#872=AXIS2_PLACEMENT_3D('',#1279,#1016,#1017);
#873=AXIS2_PLACEMENT_3D('',#1280,#1018,#1019);
#874=AXIS2_PLACEMENT_3D('',#1285,#1021,#1022);
#875=AXIS2_PLACEMENT_3D('',#1290,#1025,#1026);
#876=AXIS2_PLACEMENT_3D('',#1291,#1027,#1028);
#877=AXIS2_PLACEMENT_3D('',#1297,#1032,#1033);
#878=AXIS2_PLACEMENT_3D('',#1306,#1038,#1039);
#879=AXIS2_PLACEMENT_3D('',#1308,#1040,#1041);
#880=AXIS2_PLACEMENT_3D('',#1311,#1043,#1044);
#881=AXIS2_PLACEMENT_3D('',#1312,#1045,#1046);
#882=AXIS2_PLACEMENT_3D('',#1318,#1050,#1051);
#883=AXIS2_PLACEMENT_3D('',#1324,#1055,#1056);
#884=AXIS2_PLACEMENT_3D('',#1326,#1057,#1058);
#885=AXIS2_PLACEMENT_3D('',#1329,#1060,#1061);
#886=AXIS2_PLACEMENT_3D('',#1330,#1062,#1063);
#887=AXIS2_PLACEMENT_3D('',#1333,#1065,#1066);
#888=AXIS2_PLACEMENT_3D('',#1334,#1067,#1068);
#889=AXIS2_PLACEMENT_3D('',#1337,#1069,#1070);
#890=AXIS2_PLACEMENT_3D('',#1340,#1072,#1073);
#891=AXIS2_PLACEMENT_3D('',#1342,#1075,#1076);
#892=AXIS2_PLACEMENT_3D('',#1346,#1079,#1080);
#893=AXIS2_PLACEMENT_3D('',#1348,#1081,#1082);
#894=AXIS2_PLACEMENT_3D('',#1350,#1084,#1085);
#895=AXIS2_PLACEMENT_3D('',#1354,#1088,#1089);
#896=AXIS2_PLACEMENT_3D('',#1356,#1090,#1091);
#897=AXIS2_PLACEMENT_3D('',#1359,#1093,#1094);
#898=AXIS2_PLACEMENT_3D('',#1360,#1095,#1096);
#899=AXIS2_PLACEMENT_3D('',#1362,#1097,#1098);
#900=AXIS2_PLACEMENT_3D('',#1364,#1099,#1100);
#901=AXIS2_PLACEMENT_3D('',#1366,#1102,#1103);
#902=AXIS2_PLACEMENT_3D('',#1368,#1104,#1105);
#903=AXIS2_PLACEMENT_3D('',#1371,#1107,#1108);
#904=AXIS2_PLACEMENT_3D('',#1372,#1109,#1110);
#905=AXIS2_PLACEMENT_3D('',#1375,#1112,#1113);
#906=AXIS2_PLACEMENT_3D('',#1376,#1114,#1115);
#907=AXIS2_PLACEMENT_3D('',#1379,#1116,#1117);
#908=AXIS2_PLACEMENT_3D('',#1383,#1119,#1120);
#909=AXIS2_PLACEMENT_3D('',#1385,#1122,#1123);
#910=AXIS2_PLACEMENT_3D('',#1386,#1124,#1125);
#911=AXIS2_PLACEMENT_3D('',#1388,#1126,#1127);
#912=AXIS2_PLACEMENT_3D('',#1390,#1129,#1130);
#913=AXIS2_PLACEMENT_3D('',#1394,#1133,#1134);
#914=AXIS2_PLACEMENT_3D('',#1396,#1135,#1136);
#915=AXIS2_PLACEMENT_3D('',#1398,#1138,#1139);
#916=AXIS2_PLACEMENT_3D('',#1402,#1142,#1143);
#917=AXIS2_PLACEMENT_3D('',#1404,#1144,#1145);
#918=AXIS2_PLACEMENT_3D('',#1407,#1147,#1148);
#919=AXIS2_PLACEMENT_3D('',#1408,#1149,#1150);
#920=AXIS2_PLACEMENT_3D('',#1410,#1151,#1152);
#921=AXIS2_PLACEMENT_3D('',#1413,#1154,#1155);
#922=AXIS2_PLACEMENT_3D('',#1414,#1156,#1157);
#923=AXIS2_PLACEMENT_3D('',#1416,#1158,#1159);
#924=AXIS2_PLACEMENT_3D('',#1418,#1160,#1161);
#925=AXIS2_PLACEMENT_3D('',#1420,#1163,#1164);
#926=AXIS2_PLACEMENT_3D('',#1422,#1165,#1166);
#927=AXIS2_PLACEMENT_3D('',#1423,#1167,#1168);
#928=AXIS2_PLACEMENT_3D('',#1424,#1169,#1170);
#929=AXIS2_PLACEMENT_3D('',#1425,#1171,#1172);
#930=AXIS2_PLACEMENT_3D('',#1428,#1174,#1175);
#931=AXIS2_PLACEMENT_3D('',#1429,#1176,#1177);
#932=AXIS2_PLACEMENT_3D('',#1430,#1178,#1179);
#933=AXIS2_PLACEMENT_3D('',#1432,#1180,#1181);
#934=AXIS2_PLACEMENT_3D('',#1433,#1182,#1183);
#935=AXIS2_PLACEMENT_3D('',#1434,#1184,#1185);
#936=AXIS2_PLACEMENT_3D('',#1437,#1187,#1188);
#937=AXIS2_PLACEMENT_3D('',#1438,#1189,#1190);
#938=AXIS2_PLACEMENT_3D('',#1439,#1191,#1192);
#939=AXIS2_PLACEMENT_3D('',#1440,#1193,#1194);
#940=AXIS2_PLACEMENT_3D('',#1441,#1195,#1196);
#941=AXIS2_PLACEMENT_3D('',#1442,#1197,#1198);
#942=AXIS2_PLACEMENT_3D('',#1443,#1199,#1200);
#943=AXIS2_PLACEMENT_3D('',#1444,#1201,#1202);
#944=AXIS2_PLACEMENT_3D('',#1445,#1203,#1204);
#945=DIRECTION('axis',(0.,0.,1.));
#946=DIRECTION('refdir',(1.,0.,0.));
#947=DIRECTION('center_axis',(0.,0.,-1.));
#948=DIRECTION('ref_axis',(1.,0.,0.));
#949=DIRECTION('center_axis',(0.,0.,1.));
#950=DIRECTION('ref_axis',(1.,0.,0.));
#951=DIRECTION('',(0.,0.,1.));
#952=DIRECTION('center_axis',(0.,0.,1.));
#953=DIRECTION('ref_axis',(1.,0.,0.));
#954=DIRECTION('center_axis',(-0.999464638147801,0.0327175349328961,0.));
#955=DIRECTION('ref_axis',(0.0327175349328961,0.999464638147801,0.));
#956=DIRECTION('',(-0.0327175349328961,-0.999464638147801,0.));
#957=DIRECTION('',(0.,0.,1.));
#958=DIRECTION('',(0.0327175349328961,0.999464638147801,0.));
#959=DIRECTION('',(0.,0.,-1.));
#960=DIRECTION('center_axis',(0.,0.,-1.));
#961=DIRECTION('ref_axis',(0.0180037299014742,-0.999837919719809,0.));
#962=DIRECTION('center_axis',(0.,0.,1.));
#963=DIRECTION('ref_axis',(1.,0.,0.));
#964=DIRECTION('center_axis',(0.,0.,-1.));
#965=DIRECTION('ref_axis',(1.,0.,0.));
#966=DIRECTION('',(0.,0.,-1.));
#967=DIRECTION('center_axis',(0.997638766316705,0.0686796326583281,0.));
#968=DIRECTION('ref_axis',(0.0686796326583281,-0.997638766316705,0.));
#969=DIRECTION('',(0.0686796326583281,-0.997638766316705,0.));
#970=DIRECTION('',(0.0686796326583281,-0.997638766316705,0.));
#971=DIRECTION('',(0.,0.,-1.));
#972=DIRECTION('center_axis',(0.,0.,1.));
#973=DIRECTION('ref_axis',(1.,0.,0.));
#974=DIRECTION('',(-0.953979002880507,-0.299873410063502,0.));
#975=DIRECTION('center_axis',(0.,0.,1.));
#976=DIRECTION('ref_axis',(-1.,0.,0.));
#977=DIRECTION('center_axis',(0.,0.,-1.));
#978=DIRECTION('ref_axis',(-1.,0.,0.));
#979=DIRECTION('',(0.,0.,-1.));
#980=DIRECTION('center_axis',(0.,0.,-1.));
#981=DIRECTION('ref_axis',(-1.,0.,0.));
#982=DIRECTION('center_axis',(0.997638766316715,0.0686796326581856,0.));
#983=DIRECTION('ref_axis',(-0.0686796326581856,0.997638766316715,0.));
#984=DIRECTION('',(0.0686796326581856,-0.997638766316715,0.));
#985=DIRECTION('',(0.,0.,-1.));
#986=DIRECTION('',(-0.0686796326581856,0.997638766316715,0.));
#987=DIRECTION('',(0.,0.,1.));
#988=DIRECTION('center_axis',(0.,0.,1.));
#989=DIRECTION('ref_axis',(0.0180042262959755,-0.999837910781284,0.));
#990=DIRECTION('center_axis',(0.,0.,-1.));
#991=DIRECTION('ref_axis',(-1.,0.,0.));
#992=DIRECTION('center_axis',(0.,0.,1.));
#993=DIRECTION('ref_axis',(-1.,0.,0.));
#994=DIRECTION('',(0.,0.,1.));
#995=DIRECTION('center_axis',(-0.999464638147798,0.0327175349329843,0.));
#996=DIRECTION('ref_axis',(-0.0327175349329843,-0.999464638147798,0.));
#997=DIRECTION('',(-0.0327175349329843,-0.999464638147798,0.));
#998=DIRECTION('',(-0.0327175349329843,-0.999464638147798,0.));
#999=DIRECTION('',(0.,0.,1.));
#1000=DIRECTION('center_axis',(0.,0.,-1.));
#1001=DIRECTION('ref_axis',(-1.,0.,0.));
#1002=DIRECTION('',(0.953979002880507,0.299873410063502,0.));
#1003=DIRECTION('center_axis',(-0.299873410063502,0.953979002880507,0.));
#1004=DIRECTION('ref_axis',(0.953979002880507,0.299873410063502,0.));
#1005=DIRECTION('',(0.,0.,1.));
#1006=DIRECTION('',(0.,0.,-1.));
#1007=DIRECTION('center_axis',(0.,0.,1.));
#1008=DIRECTION('ref_axis',(1.,0.,0.));
#1009=DIRECTION('',(0.906307787036659,0.422618261740681,0.));
#1010=DIRECTION('center_axis',(0.,0.,1.));
#1011=DIRECTION('ref_axis',(0.704346207150949,-0.709856619657852,0.));
#1012=DIRECTION('',(0.362408047998451,0.932019531311416,0.));
#1013=DIRECTION('center_axis',(0.,0.,-1.));
#1014=DIRECTION('ref_axis',(1.,0.,0.));
#1015=DIRECTION('',(-0.464743706935849,-0.885445247806732,0.));
#1016=DIRECTION('center_axis',(0.,0.,1.));
#1017=DIRECTION('ref_axis',(1.,0.,0.));
#1018=DIRECTION('center_axis',(0.,0.,-1.));
#1019=DIRECTION('ref_axis',(-1.,0.,0.));
#1020=DIRECTION('',(0.464743706935849,0.885445247806732,0.));
#1021=DIRECTION('center_axis',(0.,0.,1.));
#1022=DIRECTION('ref_axis',(-1.,0.,0.));
#1023=DIRECTION('',(-0.362408047998453,-0.932019531311416,0.));
#1024=DIRECTION('',(-0.906307787036658,-0.422618261740682,0.));
#1025=DIRECTION('center_axis',(0.,0.,-1.));
#1026=DIRECTION('ref_axis',(-1.,0.,0.));
#1027=DIRECTION('center_axis',(0.422618261740682,-0.906307787036658,0.));
#1028=DIRECTION('ref_axis',(0.906307787036658,0.422618261740682,0.));
#1029=DIRECTION('',(0.,0.,-1.));
#1030=DIRECTION('',(-0.906307787036658,-0.422618261740682,0.));
#1031=DIRECTION('',(0.,0.,-1.));
#1032=DIRECTION('center_axis',(0.82903757255505,-0.559192903470734,0.));
#1033=DIRECTION('ref_axis',(0.559192903470734,0.82903757255505,0.));
#1034=DIRECTION('',(0.,0.,-1.));
#1035=DIRECTION('',(0.559192903470734,0.82903757255505,0.));
#1036=DIRECTION('',(0.,0.,1.));
#1037=DIRECTION('',(0.559192903470734,0.82903757255505,0.));
#1038=DIRECTION('center_axis',(0.,0.,1.));
#1039=DIRECTION('ref_axis',(0.906307787036641,0.422618261740719,0.));
#1040=DIRECTION('center_axis',(0.,0.,1.));
#1041=DIRECTION('ref_axis',(0.906307787036659,0.422618261740681,0.));
#1042=DIRECTION('',(0.,0.,1.));
#1043=DIRECTION('center_axis',(0.,0.,-1.));
#1044=DIRECTION('ref_axis',(-0.82903757255505,0.559192903470734,0.));
#1045=DIRECTION('center_axis',(-0.906307787036659,-0.422618261740681,0.));
#1046=DIRECTION('ref_axis',(0.422618261740681,-0.906307787036659,0.));
#1047=DIRECTION('',(0.422618261740681,-0.906307787036659,0.));
#1048=DIRECTION('',(0.,0.,1.));
#1049=DIRECTION('',(0.422618261740681,-0.906307787036659,0.));
#1050=DIRECTION('center_axis',(0.422618261740681,-0.906307787036659,0.));
#1051=DIRECTION('ref_axis',(0.906307787036659,0.422618261740681,0.));
#1052=DIRECTION('',(0.,0.,-1.));
#1053=DIRECTION('',(0.906307787036659,0.422618261740681,0.));
#1054=DIRECTION('',(0.,0.,-1.));
#1055=DIRECTION('center_axis',(0.,0.,-1.));
#1056=DIRECTION('ref_axis',(0.,-1.,0.));
#1057=DIRECTION('center_axis',(0.,0.,-1.));
#1058=DIRECTION('ref_axis',(0.,-1.,0.));
#1059=DIRECTION('',(0.,0.,-1.));
#1060=DIRECTION('center_axis',(0.,0.,-1.));
#1061=DIRECTION('ref_axis',(0.,-1.,0.));
#1062=DIRECTION('center_axis',(0.,0.,-1.));
#1063=DIRECTION('ref_axis',(1.,0.,0.));
#1064=DIRECTION('',(0.,0.,1.));
#1065=DIRECTION('center_axis',(0.,0.,1.));
#1066=DIRECTION('ref_axis',(1.,0.,0.));
#1067=DIRECTION('center_axis',(0.,0.,1.));
#1068=DIRECTION('ref_axis',(0.,1.,0.));
#1069=DIRECTION('center_axis',(0.,0.,-1.));
#1070=DIRECTION('ref_axis',(0.996526733786462,-0.0832734582498268,0.));
#1071=DIRECTION('',(0.,0.,-1.));
#1072=DIRECTION('center_axis',(0.,0.,1.));
#1073=DIRECTION('ref_axis',(0.7043462071509,-0.7098566196579,0.));
#1074=DIRECTION('',(0.,0.,1.));
#1075=DIRECTION('center_axis',(-0.932019531311416,0.362408047998452,0.));
#1076=DIRECTION('ref_axis',(0.362408047998451,0.932019531311416,0.));
#1077=DIRECTION('',(-0.362408047998451,-0.932019531311416,0.));
#1078=DIRECTION('',(0.,0.,-1.));
#1079=DIRECTION('center_axis',(0.,0.,-1.));
#1080=DIRECTION('ref_axis',(1.,0.,0.));
#1081=DIRECTION('center_axis',(0.,0.,1.));
#1082=DIRECTION('ref_axis',(1.,0.,0.));
#1083=DIRECTION('',(0.,0.,-1.));
#1084=DIRECTION('center_axis',(0.885445247806732,-0.464743706935849,0.));
#1085=DIRECTION('ref_axis',(-0.464743706935849,-0.885445247806732,0.));
#1086=DIRECTION('',(-0.464743706935849,-0.885445247806732,0.));
#1087=DIRECTION('',(0.,0.,-1.));
#1088=DIRECTION('center_axis',(0.,0.,1.));
#1089=DIRECTION('ref_axis',(0.,1.,0.));
#1090=DIRECTION('center_axis',(0.,0.,-1.));
#1091=DIRECTION('ref_axis',(-0.996526733786462,0.0832734582498268,0.));
#1092=DIRECTION('',(0.,0.,1.));
#1093=DIRECTION('center_axis',(0.,0.,1.));
#1094=DIRECTION('ref_axis',(-0.839507857352515,0.54334754756361,0.));
#1095=DIRECTION('center_axis',(0.,0.,1.));
#1096=DIRECTION('ref_axis',(0.,1.,0.));
#1097=DIRECTION('center_axis',(0.,0.,1.));
#1098=DIRECTION('ref_axis',(0.927024810886964,-0.374999999999985,0.));
#1099=DIRECTION('center_axis',(0.,0.,1.));
#1100=DIRECTION('ref_axis',(0.927024810886964,-0.374999999999985,0.));
#1101=DIRECTION('',(0.,0.,1.));
#1102=DIRECTION('center_axis',(0.,0.,1.));
#1103=DIRECTION('ref_axis',(0.999189782316989,-0.0402464770300296,0.));
#1104=DIRECTION('center_axis',(0.,0.,1.));
#1105=DIRECTION('ref_axis',(0.999189782316989,-0.0402464770300296,0.));
#1106=DIRECTION('',(0.,0.,1.));
#1107=DIRECTION('center_axis',(0.,0.,-1.));
#1108=DIRECTION('ref_axis',(0.906307787036659,0.422618261740681,0.));
#1109=DIRECTION('center_axis',(0.,0.,1.));
#1110=DIRECTION('ref_axis',(-1.,0.,0.));
#1111=DIRECTION('',(0.,0.,-1.));
#1112=DIRECTION('center_axis',(0.,0.,-1.));
#1113=DIRECTION('ref_axis',(-1.,0.,0.));
#1114=DIRECTION('center_axis',(0.,0.,1.));
#1115=DIRECTION('ref_axis',(0.,1.,0.));
#1116=DIRECTION('center_axis',(0.,0.,1.));
#1117=DIRECTION('ref_axis',(0.927024810886964,-0.374999999999985,0.));
#1118=DIRECTION('',(0.,0.,1.));
#1119=DIRECTION('center_axis',(0.,0.,-1.));
#1120=DIRECTION('ref_axis',(0.996526733786462,-0.0832734582498268,0.));
#1121=DIRECTION('',(0.,0.,1.));
#1122=DIRECTION('center_axis',(0.,0.,1.));
#1123=DIRECTION('ref_axis',(0.,1.,0.));
#1124=DIRECTION('center_axis',(0.,0.,1.));
#1125=DIRECTION('ref_axis',(-0.839507857352515,0.54334754756361,0.));
#1126=DIRECTION('center_axis',(0.,0.,-1.));
#1127=DIRECTION('ref_axis',(-0.996526733786462,0.0832734582498268,0.));
#1128=DIRECTION('',(0.,0.,-1.));
#1129=DIRECTION('center_axis',(0.885445247806732,-0.464743706935849,0.));
#1130=DIRECTION('ref_axis',(0.464743706935849,0.885445247806732,0.));
#1131=DIRECTION('',(0.464743706935849,0.885445247806732,0.));
#1132=DIRECTION('',(0.,0.,1.));
#1133=DIRECTION('center_axis',(0.,0.,1.));
#1134=DIRECTION('ref_axis',(0.414228005431555,0.910173148096666,0.));
#1135=DIRECTION('center_axis',(0.,0.,-1.));
#1136=DIRECTION('ref_axis',(-1.,0.,0.));
#1137=DIRECTION('',(0.,0.,1.));
#1138=DIRECTION('center_axis',(-0.932019531311416,0.362408047998453,0.));
#1139=DIRECTION('ref_axis',(-0.362408047998453,-0.932019531311416,0.));
#1140=DIRECTION('',(0.362408047998453,0.932019531311416,0.));
#1141=DIRECTION('',(0.,0.,-1.));
#1142=DIRECTION('center_axis',(0.,0.,1.));
#1143=DIRECTION('ref_axis',(0.,1.,0.));
#1144=DIRECTION('center_axis',(0.,0.,-1.));
#1145=DIRECTION('ref_axis',(0.996526733786462,-0.0832734582498268,0.));
#1146=DIRECTION('',(0.,0.,1.));
#1147=DIRECTION('center_axis',(0.,0.,1.));
#1148=DIRECTION('ref_axis',(0.7043462071509,-0.7098566196579,0.));
#1149=DIRECTION('center_axis',(0.,0.,-1.));
#1150=DIRECTION('ref_axis',(0.,-1.,0.));
#1151=DIRECTION('center_axis',(0.,0.,-1.));
#1152=DIRECTION('ref_axis',(0.,-1.,0.));
#1153=DIRECTION('',(0.,0.,-1.));
#1154=DIRECTION('center_axis',(0.,0.,-1.));
#1155=DIRECTION('ref_axis',(0.,-1.,0.));
#1156=DIRECTION('center_axis',(0.,0.,1.));
#1157=DIRECTION('ref_axis',(0.,1.,0.));
#1158=DIRECTION('center_axis',(0.,0.,1.));
#1159=DIRECTION('ref_axis',(-0.7043462071509,0.7098566196579,0.));
#1160=DIRECTION('center_axis',(0.,0.,-1.));
#1161=DIRECTION('ref_axis',(-0.979795897113272,-0.199999999999994,0.));
#1162=DIRECTION('',(0.,0.,1.));
#1163=DIRECTION('center_axis',(0.,0.,1.));
#1164=DIRECTION('ref_axis',(0.,-1.,0.));
#1165=DIRECTION('center_axis',(0.,0.,1.));
#1166=DIRECTION('ref_axis',(0.999905217493682,0.0137679348092997,0.));
#1167=DIRECTION('center_axis',(0.,0.,-1.));
#1168=DIRECTION('ref_axis',(-0.999905217493681,-0.0137679348093297,0.));
#1169=DIRECTION('center_axis',(0.,0.,1.));
#1170=DIRECTION('ref_axis',(-0.927024810886964,0.374999999999985,0.));
#1171=DIRECTION('center_axis',(0.,0.,-1.));
#1172=DIRECTION('ref_axis',(-0.999905217493681,-0.0137679348093297,0.));
#1173=DIRECTION('',(0.,0.,-1.));
#1174=DIRECTION('center_axis',(0.,0.,1.));
#1175=DIRECTION('ref_axis',(-0.82903757255505,0.559192903470734,0.));
#1176=DIRECTION('center_axis',(0.,0.,1.));
#1177=DIRECTION('ref_axis',(0.,-1.,0.));
#1178=DIRECTION('center_axis',(0.,0.,-1.));
#1179=DIRECTION('ref_axis',(-0.999189782316989,0.0402464770300296,0.));
#1180=DIRECTION('center_axis',(0.,0.,-1.));
#1181=DIRECTION('ref_axis',(0.979795897113272,0.199999999999994,0.));
#1182=DIRECTION('center_axis',(0.,0.,-1.));
#1183=DIRECTION('ref_axis',(-0.979795897113272,-0.199999999999994,0.));
#1184=DIRECTION('center_axis',(0.,0.,1.));
#1185=DIRECTION('ref_axis',(0.,1.,0.));
#1186=DIRECTION('',(0.,0.,1.));
#1187=DIRECTION('center_axis',(0.,0.,1.));
#1188=DIRECTION('ref_axis',(-0.7043462071509,0.7098566196579,0.));
#1189=DIRECTION('center_axis',(0.,0.,1.));
#1190=DIRECTION('ref_axis',(0.,1.,0.));
#1191=DIRECTION('center_axis',(0.,0.,-1.));
#1192=DIRECTION('ref_axis',(-0.927024810886964,-0.374999999999985,0.));
#1193=DIRECTION('center_axis',(0.,0.,-1.));
#1194=DIRECTION('ref_axis',(0.979795897113272,0.199999999999994,0.));
#1195=DIRECTION('center_axis',(0.,0.,1.));
#1196=DIRECTION('ref_axis',(0.,1.,0.));
#1197=DIRECTION('center_axis',(0.,0.,-1.));
#1198=DIRECTION('ref_axis',(-0.927024810886964,-0.374999999999985,0.));
#1199=DIRECTION('center_axis',(0.,0.,1.));
#1200=DIRECTION('ref_axis',(0.,1.,0.));
#1201=DIRECTION('center_axis',(0.,0.,-1.));
#1202=DIRECTION('ref_axis',(0.979795897113272,0.199999999999994,0.));
#1203=DIRECTION('center_axis',(0.,0.,1.));
#1204=DIRECTION('ref_axis',(0.,1.,0.));
#1205=CARTESIAN_POINT('',(0.,0.,0.));
#1206=CARTESIAN_POINT('Origin',(-6.16297582203915E-32,-27.,10.5));
#1207=CARTESIAN_POINT('',(-2.5,-27.,5.6));
#1208=CARTESIAN_POINT('Origin',(-6.16297582203915E-32,-27.,5.6));
#1209=CARTESIAN_POINT('',(-2.5,-27.,10.5));
#1210=CARTESIAN_POINT('',(-2.5,-27.,10.5));
#1211=CARTESIAN_POINT('Origin',(-6.16297582203915E-32,-27.,10.5));
#1212=CARTESIAN_POINT('Origin',(-4.9973230336987,-26.8364075282344,10.5));
#1213=CARTESIAN_POINT('',(-3.86695126692026,7.6945133120077,10.5));
#1214=CARTESIAN_POINT('',(-4.9973230336987,-26.8364075282344,10.5));
#1215=CARTESIAN_POINT('',(-3.86695126692028,7.69451331200738,10.5));
#1216=CARTESIAN_POINT('',(-3.86695126692028,7.69451331200738,5.6));
#1217=CARTESIAN_POINT('',(-3.86695126692023,7.69451331200811,10.5));
#1218=CARTESIAN_POINT('',(-4.9973230336987,-26.8364075282344,5.6));
#1219=CARTESIAN_POINT('',(-3.86695126692028,7.69451331200738,5.6));
#1220=CARTESIAN_POINT('',(-4.9973230336987,-26.8364075282344,10.5));
#1221=CARTESIAN_POINT('Origin',(-6.16297582203915E-32,-27.,10.5));
#1222=CARTESIAN_POINT('',(4.98819383158519,-26.656601836708,10.5));
#1223=CARTESIAN_POINT('Origin',(-6.16297582203915E-32,-27.,10.5));
#1224=CARTESIAN_POINT('',(4.98819383158519,-26.656601836708,5.6));
#1225=CARTESIAN_POINT('Origin',(-6.16297582203915E-32,-27.,5.6));
#1226=CARTESIAN_POINT('',(4.98819383158519,-26.656601836708,10.5));
#1227=CARTESIAN_POINT('Origin',(2.48591311487086,9.69147037299764,10.5));
#1228=CARTESIAN_POINT('',(2.48591311487086,9.6914703729977,10.5));
#1229=CARTESIAN_POINT('',(2.48591311487086,9.69147037299764,10.5));
#1230=CARTESIAN_POINT('',(2.48591311487086,9.69147037299764,5.6));
#1231=CARTESIAN_POINT('',(2.48591311487086,9.69147037299764,5.6));
#1232=CARTESIAN_POINT('',(2.48591311487086,9.69147037299764,8.05));
#1233=CARTESIAN_POINT('Origin',(11.2416457623023,25.607787135177,5.6));
#1234=CARTESIAN_POINT('',(5.00376109713648,10.4829297847705,5.6));
#1235=CARTESIAN_POINT('Origin',(6.16297582203915E-32,-27.,-10.5));
#1236=CARTESIAN_POINT('',(2.5,-27.,-5.6));
#1237=CARTESIAN_POINT('Origin',(6.16297582203915E-32,-27.,-5.6));
#1238=CARTESIAN_POINT('',(2.5,-27.,-10.5));
#1239=CARTESIAN_POINT('',(2.5,-27.,-10.5));
#1240=CARTESIAN_POINT('Origin',(6.16297582203915E-32,-27.,-10.5));
#1241=CARTESIAN_POINT('Origin',(4.98819406672232,-26.6566052523803,-10.5));
#1242=CARTESIAN_POINT('',(2.48591311487085,9.69147037299771,-10.5));
#1243=CARTESIAN_POINT('',(4.98819406672232,-26.6566052523803,-10.5));
#1244=CARTESIAN_POINT('',(2.48591311487086,9.69147037299764,-10.5));
#1245=CARTESIAN_POINT('',(2.48591311487086,9.69147037299764,-5.6));
#1246=CARTESIAN_POINT('',(2.48591311487086,9.69147037299764,8.05));
#1247=CARTESIAN_POINT('',(4.98819406672232,-26.6566052523803,-5.6));
#1248=CARTESIAN_POINT('',(2.48591311487086,9.69147037299764,-5.6));
#1249=CARTESIAN_POINT('',(4.98819406672232,-26.6566052523803,-10.5));
#1250=CARTESIAN_POINT('Origin',(6.16297582203915E-32,-27.,-10.5));
#1251=CARTESIAN_POINT('',(-4.99732330815298,-26.8364159122494,-10.5));
#1252=CARTESIAN_POINT('Origin',(6.16297582203915E-32,-27.,-10.5));
#1253=CARTESIAN_POINT('',(-4.99732330815298,-26.8364159122494,-5.6));
#1254=CARTESIAN_POINT('Origin',(6.16297582203915E-32,-27.,-5.6));
#1255=CARTESIAN_POINT('',(-4.99732330815298,-26.8364159122494,-10.5));
#1256=CARTESIAN_POINT('Origin',(-3.86695126692028,7.69451331200738,-10.5));
#1257=CARTESIAN_POINT('',(-3.86695126692023,7.69451331200811,-10.5));
#1258=CARTESIAN_POINT('',(-3.86695126692028,7.69451331200738,-10.5));
#1259=CARTESIAN_POINT('',(-3.86695126692028,7.69451331200738,-5.6));
#1260=CARTESIAN_POINT('',(-3.86695126692028,7.69451331200738,-5.6));
#1261=CARTESIAN_POINT('',(-3.86695126692023,7.69451331200811,10.5));
#1262=CARTESIAN_POINT('Origin',(11.2416457623023,25.607787135177,-5.6));
#1263=CARTESIAN_POINT('',(5.00376109713648,10.4829297847705,-5.6));
#1264=CARTESIAN_POINT('Origin',(-5.,7.338351188595,5.6));
#1265=CARTESIAN_POINT('',(-3.86695126692023,7.69451331200811,10.5));
#1266=CARTESIAN_POINT('',(2.48591311487086,9.69147037299764,8.05));
#1267=CARTESIAN_POINT('Origin',(11.2416457623023,25.607787135177,5.1));
#1268=CARTESIAN_POINT('',(4.19902100343069,44.9897744901927,5.1));
#1269=CARTESIAN_POINT('',(12.7947539445523,48.9980305880926,5.1));
#1270=CARTESIAN_POINT('',(3.37953924933936,44.6076438725416,5.1));
#1271=CARTESIAN_POINT('',(4.89790908379271,46.7871334194318,5.1));
#1272=CARTESIAN_POINT('Origin',(-28.52602138961,58.74919309614,5.1));
#1273=CARTESIAN_POINT('',(17.8231938678426,80.0276145098194,5.1));
#1274=CARTESIAN_POINT('',(18.2826015791718,81.2090920243464,5.1));
#1275=CARTESIAN_POINT('',(26.9105177636292,75.8918557356576,5.1));
#1276=CARTESIAN_POINT('Origin',(22.4832915246046,78.2155742703541,5.1));
#1277=CARTESIAN_POINT('',(28.2112782274782,78.3701080585211,5.1));
#1278=CARTESIAN_POINT('',(19.9832915246046,78.2155742703541,5.1));
#1279=CARTESIAN_POINT('Origin',(22.4832915246046,78.2155742703541,5.1));
#1280=CARTESIAN_POINT('Origin',(11.2416457623023,25.607787135177,-5.1));
#1281=CARTESIAN_POINT('',(12.7947539445523,48.9980305880926,-5.1));
#1282=CARTESIAN_POINT('',(26.9105177613131,75.8918557312447,-5.1));
#1283=CARTESIAN_POINT('',(12.7947539445523,48.9980305880926,-5.1));
#1284=CARTESIAN_POINT('',(17.8231820577989,80.0275841374489,-5.1));
#1285=CARTESIAN_POINT('Origin',(22.4832915246046,78.215574270354,-5.1));
#1286=CARTESIAN_POINT('',(4.19902100343069,44.9897744901927,-5.1));
#1287=CARTESIAN_POINT('',(4.19902100343069,44.9897744901927,-5.1));
#1288=CARTESIAN_POINT('',(3.37953924933935,44.6076438725416,-5.1));
#1289=CARTESIAN_POINT('',(24.9832915246046,78.215574270354,-5.1));
#1290=CARTESIAN_POINT('Origin',(22.4832915246046,78.215574270354,-5.1));
#1291=CARTESIAN_POINT('Origin',(4.19902100343069,44.9897744901926,-10.5));
#1292=CARTESIAN_POINT('',(4.19902100343068,44.9897744901926,-4.6));
#1293=CARTESIAN_POINT('',(4.19902100343071,44.9897744901927,10.5));
#1294=CARTESIAN_POINT('',(12.7947539445523,48.9980305880926,-4.6));
#1295=CARTESIAN_POINT('',(-6.14154560222844,40.1678890923122,-4.6));
#1296=CARTESIAN_POINT('',(12.7947539445523,48.9980305880926,10.5));
#1297=CARTESIAN_POINT('Origin',(-5.,14.04669495709,-4.6));
#1298=CARTESIAN_POINT('',(-3.320459413999,16.53671627493,4.6));
#1299=CARTESIAN_POINT('',(-3.320459413999,16.53671627493,-4.6));
#1300=CARTESIAN_POINT('',(-3.320459413999,16.53671627493,4.6));
#1301=CARTESIAN_POINT('',(-0.98837011081,19.99418085093,4.6));
#1302=CARTESIAN_POINT('',(-3.320459413999,16.53671627493,4.6));
#1303=CARTESIAN_POINT('',(-0.98837011081,19.99418085093,-4.6));
#1304=CARTESIAN_POINT('',(-0.98837011081,19.99418085093,-4.6));
#1305=CARTESIAN_POINT('',(-3.320459413999,16.53671627493,-4.6));
#1306=CARTESIAN_POINT('Origin',(-0.159332538255,19.43498794745,-37.8756));
#1307=CARTESIAN_POINT('',(0.7469752487817,19.8576062092,4.6));
#1308=CARTESIAN_POINT('Origin',(-0.159332538255,19.43498794745,4.6));
#1309=CARTESIAN_POINT('',(0.7469752487817,19.8576062092,-4.6));
#1310=CARTESIAN_POINT('',(0.7469752487817,19.8576062092,-4.6));
#1311=CARTESIAN_POINT('Origin',(-0.159332538255,19.43498794745,-4.6));
#1312=CARTESIAN_POINT('Origin',(0.,21.45949979966,-4.6));
#1313=CARTESIAN_POINT('',(1.923586063823,17.33435617359,4.6));
#1314=CARTESIAN_POINT('',(0.7469752487817,19.8576062092,4.6));
#1315=CARTESIAN_POINT('',(1.923586063823,17.33435617359,-4.6));
#1316=CARTESIAN_POINT('',(1.923586063823,17.33435617359,-4.6));
#1317=CARTESIAN_POINT('',(0.7469752487817,19.8576062092,-4.6));
#1318=CARTESIAN_POINT('Origin',(4.19902100343069,44.9897744901927,5.1));
#1319=CARTESIAN_POINT('',(12.7947539445523,48.9980305880926,4.6));
#1320=CARTESIAN_POINT('',(12.7947539445523,48.9980305880926,7.8));
#1321=CARTESIAN_POINT('',(4.19902100343068,44.9897744901927,4.6));
#1322=CARTESIAN_POINT('',(-6.14154560222842,40.1678890923122,4.6));
#1323=CARTESIAN_POINT('',(4.19902100343068,44.9897744901927,10.5));
#1324=CARTESIAN_POINT('Origin',(0.,30.,-10.5));
#1325=CARTESIAN_POINT('',(3.06161699786838E-16,32.5,10.5));
#1326=CARTESIAN_POINT('Origin',(0.,30.,10.5));
#1327=CARTESIAN_POINT('',(3.06161699786838E-16,32.5,4.6));
#1328=CARTESIAN_POINT('',(3.06161699786838E-16,32.5,-10.5));
#1329=CARTESIAN_POINT('Origin',(0.,30.,4.6));
#1330=CARTESIAN_POINT('Origin',(22.4832915246046,78.2155742703541,10.5));
#1331=CARTESIAN_POINT('',(19.9832915246046,78.2155742703541,10.5));
#1332=CARTESIAN_POINT('',(19.9832915246046,78.2155742703541,10.5));
#1333=CARTESIAN_POINT('Origin',(22.4832915246046,78.2155742703541,10.5));
#1334=CARTESIAN_POINT('Origin',(-28.52602138961,58.74919309614,10.5));
#1335=CARTESIAN_POINT('',(4.89790908379271,46.7871334194318,10.5));
#1336=CARTESIAN_POINT('',(-3.521731035755,33.54928309829,10.5));
#1337=CARTESIAN_POINT('Origin',(-28.52602138961,58.74919309614,10.5));
#1338=CARTESIAN_POINT('',(4.89790908379271,46.7871334194318,10.5));
#1339=CARTESIAN_POINT('',(-3.521731035755,33.54928309829,4.6));
#1340=CARTESIAN_POINT('Origin',(-28.52602138961,58.74919309614,4.6));
#1341=CARTESIAN_POINT('',(-3.521731035755,33.54928309829,4.6));
#1342=CARTESIAN_POINT('Origin',(4.89790908379271,46.7871334194318,10.5));
#1343=CARTESIAN_POINT('',(17.8231938678426,80.0276145098194,10.5));
#1344=CARTESIAN_POINT('',(18.2826015791718,81.2090920243464,10.5));
#1345=CARTESIAN_POINT('',(17.8231938678426,80.0276145098194,10.5));
#1346=CARTESIAN_POINT('Origin',(22.4832915246046,78.2155742703541,10.5));
#1347=CARTESIAN_POINT('',(26.9105177636292,75.8918557356576,10.5));
#1348=CARTESIAN_POINT('Origin',(22.4832915246046,78.2155742703541,10.5));
#1349=CARTESIAN_POINT('',(26.9105177636292,75.8918557356576,10.5));
#1350=CARTESIAN_POINT('Origin',(26.9105177636292,75.8918557356576,10.5));
#1351=CARTESIAN_POINT('',(12.7947539445523,48.9980305880926,10.5));
#1352=CARTESIAN_POINT('',(28.2112782274782,78.3701080585211,10.5));
#1353=CARTESIAN_POINT('',(12.7947539445523,48.9980305880926,7.8));
#1354=CARTESIAN_POINT('Origin',(40.35933271835,26.62742494088,10.5));
#1355=CARTESIAN_POINT('',(4.982633668932,29.58363270875,10.5));
#1356=CARTESIAN_POINT('Origin',(40.35933271835,26.62742494088,10.5));
#1357=CARTESIAN_POINT('',(4.982633668932,29.58363270875,4.6));
#1358=CARTESIAN_POINT('',(4.982633668932,29.58363270875,4.6));
#1359=CARTESIAN_POINT('Origin',(40.35933271835,26.62742494088,4.6));
#1360=CARTESIAN_POINT('Origin',(0.,30.,10.5));
#1361=CARTESIAN_POINT('',(4.635124054435,28.125,4.6));
#1362=CARTESIAN_POINT('Origin',(0.,30.,4.6));
#1363=CARTESIAN_POINT('',(4.635124054435,28.125,10.5));
#1364=CARTESIAN_POINT('Origin',(0.,30.,10.5));
#1365=CARTESIAN_POINT('',(4.635124054435,28.125,4.6));
#1366=CARTESIAN_POINT('Origin',(0.1109704897497,16.48911965011,-37.8756));
#1367=CARTESIAN_POINT('',(2.109350054384,16.40862669605,4.6));
#1368=CARTESIAN_POINT('Origin',(0.1109704897497,16.48911965011,4.6));
#1369=CARTESIAN_POINT('',(2.109350054384,16.40862669605,-4.6));
#1370=CARTESIAN_POINT('',(2.109350054384,16.40862669605,-4.6));
#1371=CARTESIAN_POINT('Origin',(0.1109704897497,16.48911965011,-4.6));
#1372=CARTESIAN_POINT('Origin',(22.4832915246046,78.215574270354,-10.5));
#1373=CARTESIAN_POINT('',(24.9832915246046,78.215574270354,-10.5));
#1374=CARTESIAN_POINT('',(24.9832915246046,78.215574270354,-10.5));
#1375=CARTESIAN_POINT('Origin',(22.4832915246046,78.215574270354,-10.5));
#1376=CARTESIAN_POINT('Origin',(0.,30.,10.5));
#1377=CARTESIAN_POINT('',(4.635124054435,28.125,-4.6));
#1378=CARTESIAN_POINT('',(4.982633668932,29.58363270875,-4.6));
#1379=CARTESIAN_POINT('Origin',(0.,30.,-4.6));
#1380=CARTESIAN_POINT('',(4.635124054435,28.125,-10.5));
#1381=CARTESIAN_POINT('',(4.635124054435,28.125,-10.5));
#1382=CARTESIAN_POINT('',(4.982633668932,29.58363270875,-10.5));
#1383=CARTESIAN_POINT('Origin',(0.,30.,-10.5));
#1384=CARTESIAN_POINT('',(4.982633668932,29.58363270875,-10.5));
#1385=CARTESIAN_POINT('Origin',(40.35933271835,26.62742494088,10.5));
#1386=CARTESIAN_POINT('Origin',(40.35933271835,26.62742494088,-4.6));
#1387=CARTESIAN_POINT('',(12.7947539445523,48.9980305880926,-10.5));
#1388=CARTESIAN_POINT('Origin',(40.35933271835,26.62742494088,-10.5));
#1389=CARTESIAN_POINT('',(12.7947539445523,48.9980305880926,10.5));
#1390=CARTESIAN_POINT('Origin',(12.7947539445523,48.9980305880926,-10.5));
#1391=CARTESIAN_POINT('',(26.9105177613131,75.8918557312447,-10.5));
#1392=CARTESIAN_POINT('',(12.7947539445523,48.9980305880926,-10.5));
#1393=CARTESIAN_POINT('',(26.9105177613131,75.8918557312447,-10.5));
#1394=CARTESIAN_POINT('Origin',(22.4832915246046,78.215574270354,-10.5));
#1395=CARTESIAN_POINT('',(17.8231820577989,80.0275841374489,-10.5));
#1396=CARTESIAN_POINT('Origin',(22.4832915246046,78.215574270354,-10.5));
#1397=CARTESIAN_POINT('',(17.8231820577989,80.0275841374489,-10.5));
#1398=CARTESIAN_POINT('Origin',(17.8231820577989,80.0275841374489,-10.5));
#1399=CARTESIAN_POINT('',(4.19902100343068,44.9897744901926,-10.5));
#1400=CARTESIAN_POINT('',(4.19902100343069,44.9897744901927,-10.5));
#1401=CARTESIAN_POINT('',(4.19902100343071,44.9897744901927,10.5));
#1402=CARTESIAN_POINT('Origin',(-28.52602138961,58.74919309614,10.5));
#1403=CARTESIAN_POINT('',(-3.521731035755,33.54928309829,-10.5));
#1404=CARTESIAN_POINT('Origin',(-28.52602138961,58.74919309614,-10.5));
#1405=CARTESIAN_POINT('',(-3.521731035755,33.54928309829,-4.6));
#1406=CARTESIAN_POINT('',(-3.521731035755,33.54928309829,-10.5));
#1407=CARTESIAN_POINT('Origin',(-28.52602138961,58.74919309614,-4.6));
#1408=CARTESIAN_POINT('Origin',(0.,30.,-10.5));
#1409=CARTESIAN_POINT('',(0.,32.5,-4.6));
#1410=CARTESIAN_POINT('Origin',(0.,30.,-4.6));
#1411=CARTESIAN_POINT('',(0.,32.5,-10.5));
#1412=CARTESIAN_POINT('',(3.06161699786838E-16,32.5,-10.5));
#1413=CARTESIAN_POINT('Origin',(0.,30.,-10.5));
#1414=CARTESIAN_POINT('Origin',(0.,30.,10.5));
#1415=CARTESIAN_POINT('',(-4.898979485566,29.,-4.6));
#1416=CARTESIAN_POINT('Origin',(0.,30.,-4.6));
#1417=CARTESIAN_POINT('',(-4.898979485566,29.,-10.5));
#1418=CARTESIAN_POINT('Origin',(0.,30.,-10.5));
#1419=CARTESIAN_POINT('',(-4.898979485566,29.,-10.5));
#1420=CARTESIAN_POINT('Origin',(0.,0.,-4.6));
#1421=CARTESIAN_POINT('',(-3.491327058938,15.96375543665,-4.6));
#1422=CARTESIAN_POINT('Origin',(-73.4846922835,15.,-4.6));
#1423=CARTESIAN_POINT('Origin',(-2.491421841444,15.97752337146,-4.6));
#1424=CARTESIAN_POINT('Origin',(37.08099243548,15.,-4.6));
#1425=CARTESIAN_POINT('Origin',(-2.491421841444,15.97752337146,37.8756));
#1426=CARTESIAN_POINT('',(-3.491327058938,15.96375543665,4.6));
#1427=CARTESIAN_POINT('',(-3.491327058938,15.96375543665,4.6));
#1428=CARTESIAN_POINT('Origin',(-2.491421841444,15.97752337146,4.6));
#1429=CARTESIAN_POINT('Origin',(0.,0.,4.6));
#1430=CARTESIAN_POINT('Origin',(37.08099243548,15.,4.6));
#1431=CARTESIAN_POINT('',(-4.898979485566,29.,4.6));
#1432=CARTESIAN_POINT('Origin',(-73.4846922835,15.,4.6));
#1433=CARTESIAN_POINT('Origin',(0.,30.,4.6));
#1434=CARTESIAN_POINT('Origin',(0.,30.,10.5));
#1435=CARTESIAN_POINT('',(-4.898979485566,29.,10.5));
#1436=CARTESIAN_POINT('',(-4.898979485566,29.,4.6));
#1437=CARTESIAN_POINT('Origin',(0.,30.,10.5));
#1438=CARTESIAN_POINT('Origin',(0.,0.,10.5));
#1439=CARTESIAN_POINT('Origin',(37.08099243548,15.,10.5));
#1440=CARTESIAN_POINT('Origin',(-73.4846922835,15.,10.5));
#1441=CARTESIAN_POINT('Origin',(37.08099243548,15.,10.5));
#1442=CARTESIAN_POINT('Origin',(37.08099243548,15.,-10.5));
#1443=CARTESIAN_POINT('Origin',(0.,0.,-10.5));
#1444=CARTESIAN_POINT('Origin',(-73.4846922835,15.,-10.5));
#1445=CARTESIAN_POINT('Origin',(-73.4846922835,15.,10.5));
#1446=UNCERTAINTY_MEASURE_WITH_UNIT(LENGTH_MEASURE(0.01),#1450,
'DISTANCE_ACCURACY_VALUE',
'Maximum model space distance between geometric entities at asserted c
onnectivities');
#1447=UNCERTAINTY_MEASURE_WITH_UNIT(LENGTH_MEASURE(0.01),#1450,
'DISTANCE_ACCURACY_VALUE',
'Maximum model space distance between geometric entities at asserted c
onnectivities');
#1448=(
GEOMETRIC_REPRESENTATION_CONTEXT(3)
GLOBAL_UNCERTAINTY_ASSIGNED_CONTEXT((#1446))
GLOBAL_UNIT_ASSIGNED_CONTEXT((#1450,#1452,#1453))
REPRESENTATION_CONTEXT('','3D')
);
#1449=(
GEOMETRIC_REPRESENTATION_CONTEXT(3)
GLOBAL_UNCERTAINTY_ASSIGNED_CONTEXT((#1447))
GLOBAL_UNIT_ASSIGNED_CONTEXT((#1450,#1452,#1453))
REPRESENTATION_CONTEXT('','3D')
);
#1450=(
LENGTH_UNIT()
NAMED_UNIT(*)
SI_UNIT(.MILLI.,.METRE.)
);
#1451=(
LENGTH_UNIT()
NAMED_UNIT(*)
SI_UNIT($,.METRE.)
);
#1452=(
NAMED_UNIT(*)
PLANE_ANGLE_UNIT()
SI_UNIT($,.RADIAN.)
);
#1453=(
NAMED_UNIT(*)
SI_UNIT($,.STERADIAN.)
SOLID_ANGLE_UNIT()
);
#1454=SHAPE_DEFINITION_REPRESENTATION(#1455,#1456);
#1455=PRODUCT_DEFINITION_SHAPE('',$,#1458);
#1456=SHAPE_REPRESENTATION('',(#849),#1448);
#1457=PRODUCT_DEFINITION_CONTEXT('part definition',#1462,'design');
#1458=PRODUCT_DEFINITION('ACWA-0029','ACWA-0029 v4',#1459,#1457);
#1459=PRODUCT_DEFINITION_FORMATION('',$,#1464);
#1460=PRODUCT_RELATED_PRODUCT_CATEGORY('ACWA-0029 v4','ACWA-0029 v4',(#1464));
#1461=APPLICATION_PROTOCOL_DEFINITION('international standard',
'automotive_design',2009,#1462);
#1462=APPLICATION_CONTEXT(
'Core Data for Automotive Mechanical Design Process');
#1463=PRODUCT_CONTEXT('part definition',#1462,'mechanical');
#1464=PRODUCT('ACWA-0029','ACWA-0029 v4',$,(#1463));
#1465=PRESENTATION_STYLE_ASSIGNMENT((#1466));
#1466=SURFACE_STYLE_USAGE(.BOTH.,#1467);
#1467=SURFACE_SIDE_STYLE('',(#1468));
#1468=SURFACE_STYLE_FILL_AREA(#1469);
#1469=FILL_AREA_STYLE('Acier - Satin\X\E9',(#1470));
#1470=FILL_AREA_STYLE_COLOUR('Acier - Satin\X\E9',#1471);
#1471=COLOUR_RGB('Acier - Satin\X\E9',0.627450980392157,0.627450980392157,
0.627450980392157);
ENDSEC;
END-ISO-10303-21;
