ISO-10303-21;
HEADER;
/* Generated by software containing ST-Developer
 * from STEP Tools, Inc. (www.steptools.com) 
 */

FILE_DESCRIPTION(
/* description */ (''),
/* implementation_level */ '2;1');

FILE_NAME(
/* name */ 'ACWA-0X28_BIELLETTE1_350-400.step',
/* time_stamp */ '2025-05-06T12:00:07+02:00',
/* author */ (''),
/* organization */ (''),
/* preprocessor_version */ 'ST-DEVELOPER v20.1',
/* originating_system */ 'Autodesk Translation Framework v14.4.0.0',
/* authorisation */ '');

FILE_SCHEMA (('AUTOMOTIVE_DESIGN { 1 0 10303 214 3 1 1 }'));
ENDSEC;

DATA;
#10=MECHANICAL_DESIGN_GEOMETRIC_PRESENTATION_REPRESENTATION('',(#13),#2140);
#11=SHAPE_REPRESENTATION_RELATIONSHIP('SRR','None',#2147,#12);
#12=ADVANCED_BREP_SHAPE_REPRESENTATION('',(#14),#2139);
#13=STYLED_ITEM('',(#2156),#14);
#14=MANIFOLD_SOLID_BREP('Corps1',#1196);
#15=B_SPLINE_CURVE_WITH_KNOTS('',3,(#1991,#1992,#1993,#1994,#1995,#1996,
#1997,#1998,#1999,#2000,#2001,#2002,#2003,#2004,#2005,#2006,#2007,#2008),
 .UNSPECIFIED.,.F.,.F.,(4,2,2,2,2,2,2,2,4),(0.38439055210377,0.432504952213958,
0.480619352324145,0.528602590239918,0.576585828155691,0.624569066071435,
0.672552303987178,0.720666704097359,0.76878110420754),.UNSPECIFIED.);
#16=B_SPLINE_CURVE_WITH_KNOTS('',3,(#2009,#2010,#2011,#2012,#2013,#2014,
#2015,#2016,#2017,#2018,#2019,#2020,#2021,#2022,#2023,#2024,#2025,#2026),
 .UNSPECIFIED.,.F.,.F.,(4,2,2,2,2,2,2,2,4),(0.76878110420754,0.816895501887149,
0.865009899566759,0.912993135058557,0.960976370550356,1.00895960604218,
1.05694284153401,1.10505723921363,1.15317163689324),.UNSPECIFIED.);
#17=CONICAL_SURFACE('',#1278,1.375,0.785398163397448);
#18=FACE_BOUND('',#117,.T.);
#19=FACE_BOUND('',#119,.T.);
#20=FACE_BOUND('',#123,.T.);
#21=FACE_BOUND('',#125,.T.);
#22=FACE_BOUND('',#149,.T.);
#23=FACE_BOUND('',#158,.T.);
#24=FACE_BOUND('',#162,.T.);
#25=FACE_BOUND('',#164,.T.);
#26=FACE_BOUND('',#170,.T.);
#27=FACE_BOUND('',#174,.T.);
#28=FACE_BOUND('',#176,.T.);
#29=FACE_BOUND('',#182,.T.);
#30=PLANE('',#1217);
#31=PLANE('',#1224);
#32=PLANE('',#1235);
#33=PLANE('',#1240);
#34=PLANE('',#1249);
#35=PLANE('',#1253);
#36=PLANE('',#1260);
#37=PLANE('',#1267);
#38=PLANE('',#1268);
#39=PLANE('',#1269);
#40=PLANE('',#1270);
#41=PLANE('',#1274);
#42=PLANE('',#1281);
#43=PLANE('',#1297);
#44=PLANE('',#1298);
#45=PLANE('',#1299);
#46=PLANE('',#1311);
#47=PLANE('',#1323);
#48=PLANE('',#1326);
#49=PLANE('',#1335);
#50=PLANE('',#1340);
#51=PLANE('',#1346);
#52=PLANE('',#1350);
#53=PLANE('',#1354);
#54=FACE_OUTER_BOUND('',#115,.T.);
#55=FACE_OUTER_BOUND('',#116,.T.);
#56=FACE_OUTER_BOUND('',#118,.T.);
#57=FACE_OUTER_BOUND('',#120,.T.);
#58=FACE_OUTER_BOUND('',#121,.T.);
#59=FACE_OUTER_BOUND('',#122,.T.);
#60=FACE_OUTER_BOUND('',#124,.T.);
#61=FACE_OUTER_BOUND('',#126,.T.);
#62=FACE_OUTER_BOUND('',#127,.T.);
#63=FACE_OUTER_BOUND('',#128,.T.);
#64=FACE_OUTER_BOUND('',#129,.T.);
#65=FACE_OUTER_BOUND('',#130,.T.);
#66=FACE_OUTER_BOUND('',#131,.T.);
#67=FACE_OUTER_BOUND('',#132,.T.);
#68=FACE_OUTER_BOUND('',#133,.T.);
#69=FACE_OUTER_BOUND('',#134,.T.);
#70=FACE_OUTER_BOUND('',#135,.T.);
#71=FACE_OUTER_BOUND('',#136,.T.);
#72=FACE_OUTER_BOUND('',#137,.T.);
#73=FACE_OUTER_BOUND('',#138,.T.);
#74=FACE_OUTER_BOUND('',#139,.T.);
#75=FACE_OUTER_BOUND('',#140,.T.);
#76=FACE_OUTER_BOUND('',#141,.T.);
#77=FACE_OUTER_BOUND('',#142,.T.);
#78=FACE_OUTER_BOUND('',#143,.T.);
#79=FACE_OUTER_BOUND('',#144,.T.);
#80=FACE_OUTER_BOUND('',#145,.T.);
#81=FACE_OUTER_BOUND('',#146,.T.);
#82=FACE_OUTER_BOUND('',#147,.T.);
#83=FACE_OUTER_BOUND('',#148,.T.);
#84=FACE_OUTER_BOUND('',#150,.T.);
#85=FACE_OUTER_BOUND('',#151,.T.);
#86=FACE_OUTER_BOUND('',#152,.T.);
#87=FACE_OUTER_BOUND('',#153,.T.);
#88=FACE_OUTER_BOUND('',#154,.T.);
#89=FACE_OUTER_BOUND('',#155,.T.);
#90=FACE_OUTER_BOUND('',#156,.T.);
#91=FACE_OUTER_BOUND('',#157,.T.);
#92=FACE_OUTER_BOUND('',#159,.T.);
#93=FACE_OUTER_BOUND('',#160,.T.);
#94=FACE_OUTER_BOUND('',#161,.T.);
#95=FACE_OUTER_BOUND('',#163,.T.);
#96=FACE_OUTER_BOUND('',#165,.T.);
#97=FACE_OUTER_BOUND('',#166,.T.);
#98=FACE_OUTER_BOUND('',#167,.T.);
#99=FACE_OUTER_BOUND('',#168,.T.);
#100=FACE_OUTER_BOUND('',#169,.T.);
#101=FACE_OUTER_BOUND('',#171,.T.);
#102=FACE_OUTER_BOUND('',#172,.T.);
#103=FACE_OUTER_BOUND('',#173,.T.);
#104=FACE_OUTER_BOUND('',#175,.T.);
#105=FACE_OUTER_BOUND('',#177,.T.);
#106=FACE_OUTER_BOUND('',#178,.T.);
#107=FACE_OUTER_BOUND('',#179,.T.);
#108=FACE_OUTER_BOUND('',#180,.T.);
#109=FACE_OUTER_BOUND('',#181,.T.);
#110=FACE_OUTER_BOUND('',#183,.T.);
#111=FACE_OUTER_BOUND('',#184,.T.);
#112=FACE_OUTER_BOUND('',#185,.T.);
#113=FACE_OUTER_BOUND('',#186,.T.);
#114=FACE_OUTER_BOUND('',#187,.T.);
#115=EDGE_LOOP('',(#745,#746,#747,#748,#749,#750,#751,#752,#753,#754,#755,
#756));
#116=EDGE_LOOP('',(#757,#758,#759,#760,#761,#762,#763,#764));
#117=EDGE_LOOP('',(#765));
#118=EDGE_LOOP('',(#766,#767,#768,#769,#770,#771,#772,#773));
#119=EDGE_LOOP('',(#774));
#120=EDGE_LOOP('',(#775,#776,#777,#778));
#121=EDGE_LOOP('',(#779,#780,#781,#782));
#122=EDGE_LOOP('',(#783,#784,#785,#786,#787,#788));
#123=EDGE_LOOP('',(#789));
#124=EDGE_LOOP('',(#790,#791,#792,#793,#794,#795));
#125=EDGE_LOOP('',(#796));
#126=EDGE_LOOP('',(#797,#798,#799,#800,#801,#802,#803,#804,#805,#806,#807,
#808));
#127=EDGE_LOOP('',(#809,#810,#811,#812));
#128=EDGE_LOOP('',(#813,#814,#815,#816));
#129=EDGE_LOOP('',(#817,#818,#819,#820));
#130=EDGE_LOOP('',(#821,#822,#823,#824));
#131=EDGE_LOOP('',(#825,#826,#827,#828));
#132=EDGE_LOOP('',(#829,#830,#831,#832));
#133=EDGE_LOOP('',(#833,#834,#835,#836));
#134=EDGE_LOOP('',(#837,#838,#839,#840));
#135=EDGE_LOOP('',(#841,#842,#843,#844));
#136=EDGE_LOOP('',(#845,#846,#847,#848));
#137=EDGE_LOOP('',(#849,#850,#851,#852));
#138=EDGE_LOOP('',(#853,#854,#855,#856));
#139=EDGE_LOOP('',(#857,#858,#859,#860));
#140=EDGE_LOOP('',(#861,#862,#863,#864));
#141=EDGE_LOOP('',(#865,#866,#867,#868));
#142=EDGE_LOOP('',(#869,#870,#871,#872));
#143=EDGE_LOOP('',(#873,#874,#875,#876));
#144=EDGE_LOOP('',(#877,#878,#879,#880));
#145=EDGE_LOOP('',(#881,#882,#883,#884));
#146=EDGE_LOOP('',(#885,#886,#887,#888));
#147=EDGE_LOOP('',(#889,#890,#891,#892));
#148=EDGE_LOOP('',(#893,#894,#895,#896));
#149=EDGE_LOOP('',(#897));
#150=EDGE_LOOP('',(#898,#899,#900,#901));
#151=EDGE_LOOP('',(#902,#903,#904,#905));
#152=EDGE_LOOP('',(#906,#907,#908,#909));
#153=EDGE_LOOP('',(#910,#911,#912,#913));
#154=EDGE_LOOP('',(#914,#915,#916,#917));
#155=EDGE_LOOP('',(#918,#919,#920,#921));
#156=EDGE_LOOP('',(#922,#923,#924,#925));
#157=EDGE_LOOP('',(#926,#927,#928,#929,#930,#931,#932,#933,#934,#935,#936,
#937,#938,#939,#940,#941,#942,#943,#944,#945,#946,#947,#948,#949,#950,#951));
#158=EDGE_LOOP('',(#952));
#159=EDGE_LOOP('',(#953,#954,#955,#956,#957));
#160=EDGE_LOOP('',(#958,#959,#960,#961));
#161=EDGE_LOOP('',(#962,#963,#964,#965));
#162=EDGE_LOOP('',(#966,#967));
#163=EDGE_LOOP('',(#968,#969,#970,#971,#972,#973,#974,#975,#976,#977,#978,
#979,#980,#981,#982,#983,#984,#985,#986,#987,#988,#989,#990,#991,#992,#993));
#164=EDGE_LOOP('',(#994));
#165=EDGE_LOOP('',(#995,#996,#997,#998,#999,#1000,#1001,#1002,#1003,#1004,
#1005,#1006));
#166=EDGE_LOOP('',(#1007,#1008,#1009,#1010));
#167=EDGE_LOOP('',(#1011,#1012,#1013,#1014));
#168=EDGE_LOOP('',(#1015,#1016,#1017,#1018));
#169=EDGE_LOOP('',(#1019,#1020,#1021,#1022,#1023,#1024));
#170=EDGE_LOOP('',(#1025));
#171=EDGE_LOOP('',(#1026,#1027,#1028,#1029));
#172=EDGE_LOOP('',(#1030,#1031,#1032,#1033));
#173=EDGE_LOOP('',(#1034,#1035,#1036,#1037,#1038,#1039));
#174=EDGE_LOOP('',(#1040));
#175=EDGE_LOOP('',(#1041,#1042,#1043,#1044,#1045,#1046));
#176=EDGE_LOOP('',(#1047));
#177=EDGE_LOOP('',(#1048,#1049,#1050,#1051));
#178=EDGE_LOOP('',(#1052,#1053,#1054,#1055));
#179=EDGE_LOOP('',(#1056,#1057,#1058,#1059));
#180=EDGE_LOOP('',(#1060,#1061,#1062,#1063,#1064,#1065,#1066,#1067,#1068,
#1069,#1070,#1071));
#181=EDGE_LOOP('',(#1072,#1073,#1074,#1075,#1076,#1077));
#182=EDGE_LOOP('',(#1078));
#183=EDGE_LOOP('',(#1079,#1080,#1081,#1082));
#184=EDGE_LOOP('',(#1083,#1084,#1085,#1086));
#185=EDGE_LOOP('',(#1087,#1088,#1089,#1090));
#186=EDGE_LOOP('',(#1091,#1092,#1093,#1094));
#187=EDGE_LOOP('',(#1095,#1096,#1097,#1098));
#188=CIRCLE('',#1211,70.);
#189=CIRCLE('',#1212,70.);
#190=CIRCLE('',#1213,70.);
#191=CIRCLE('',#1214,70.);
#192=CIRCLE('',#1215,70.);
#193=CIRCLE('',#1216,70.);
#194=CIRCLE('',#1218,1.);
#195=CIRCLE('',#1219,5.);
#196=CIRCLE('',#1220,35.);
#197=CIRCLE('',#1221,1.);
#198=CIRCLE('',#1222,1.);
#199=CIRCLE('',#1223,2.5);
#200=CIRCLE('',#1225,1.);
#201=CIRCLE('',#1226,1.);
#202=CIRCLE('',#1227,1.);
#203=CIRCLE('',#1228,35.);
#204=CIRCLE('',#1229,5.);
#205=CIRCLE('',#1230,2.5);
#206=CIRCLE('',#1232,2.5);
#207=CIRCLE('',#1234,2.5);
#208=CIRCLE('',#1236,0.5);
#209=CIRCLE('',#1237,5.);
#210=CIRCLE('',#1238,35.);
#211=CIRCLE('',#1239,1.);
#212=CIRCLE('',#1241,35.);
#213=CIRCLE('',#1242,5.);
#214=CIRCLE('',#1243,0.5);
#215=CIRCLE('',#1244,1.);
#216=CIRCLE('',#1246,35.);
#217=CIRCLE('',#1247,35.);
#218=CIRCLE('',#1252,1.);
#219=CIRCLE('',#1255,1.);
#220=CIRCLE('',#1257,1.);
#221=CIRCLE('',#1259,1.);
#222=CIRCLE('',#1262,1.);
#223=CIRCLE('',#1264,1.);
#224=CIRCLE('',#1272,1.);
#225=CIRCLE('',#1273,1.);
#226=CIRCLE('',#1276,1.);
#227=CIRCLE('',#1277,1.);
#228=CIRCLE('',#1279,1.25);
#229=CIRCLE('',#1280,1.5);
#230=CIRCLE('',#1283,1.);
#231=CIRCLE('',#1284,1.);
#232=CIRCLE('',#1286,35.);
#233=CIRCLE('',#1287,35.);
#234=CIRCLE('',#1289,70.);
#235=CIRCLE('',#1290,70.);
#236=CIRCLE('',#1292,10.);
#237=CIRCLE('',#1293,10.);
#238=CIRCLE('',#1295,4.99999999999544);
#239=CIRCLE('',#1296,4.99999999999544);
#240=CIRCLE('',#1300,35.5);
#241=CIRCLE('',#1301,1.);
#242=CIRCLE('',#1302,1.);
#243=CIRCLE('',#1303,35.5);
#244=CIRCLE('',#1304,4.99999999999544);
#245=CIRCLE('',#1305,2.5);
#246=CIRCLE('',#1308,4.99999999999544);
#247=CIRCLE('',#1310,2.5);
#248=CIRCLE('',#1312,35.5);
#249=CIRCLE('',#1313,1.);
#250=CIRCLE('',#1314,1.);
#251=CIRCLE('',#1315,35.5);
#252=CIRCLE('',#1317,35.5);
#253=CIRCLE('',#1318,35.5);
#254=CIRCLE('',#1319,35.5);
#255=CIRCLE('',#1320,35.5);
#256=CIRCLE('',#1322,1.);
#257=CIRCLE('',#1325,1.);
#258=CIRCLE('',#1327,5.);
#259=CIRCLE('',#1328,35.5);
#260=CIRCLE('',#1329,2.5);
#261=CIRCLE('',#1331,2.5);
#262=CIRCLE('',#1332,2.5);
#263=CIRCLE('',#1334,2.5);
#264=CIRCLE('',#1336,5.);
#265=CIRCLE('',#1337,35.5);
#266=CIRCLE('',#1338,0.8);
#267=CIRCLE('',#1339,1.);
#268=CIRCLE('',#1341,1.);
#269=CIRCLE('',#1342,1.);
#270=CIRCLE('',#1343,35.5);
#271=CIRCLE('',#1344,5.);
#272=CIRCLE('',#1349,35.5);
#273=CIRCLE('',#1351,0.8);
#274=CIRCLE('',#1352,5.);
#275=CIRCLE('',#1353,1.);
#276=LINE('',#1750,#363);
#277=LINE('',#1754,#364);
#278=LINE('',#1758,#365);
#279=LINE('',#1762,#366);
#280=LINE('',#1766,#367);
#281=LINE('',#1770,#368);
#282=LINE('',#1782,#369);
#283=LINE('',#1785,#370);
#284=LINE('',#1792,#371);
#285=LINE('',#1796,#372);
#286=LINE('',#1806,#373);
#287=LINE('',#1811,#374);
#288=LINE('',#1815,#375);
#289=LINE('',#1830,#376);
#290=LINE('',#1835,#377);
#291=LINE('',#1838,#378);
#292=LINE('',#1839,#379);
#293=LINE('',#1840,#380);
#294=LINE('',#1841,#381);
#295=LINE('',#1843,#382);
#296=LINE('',#1846,#383);
#297=LINE('',#1848,#384);
#298=LINE('',#1853,#385);
#299=LINE('',#1856,#386);
#300=LINE('',#1857,#387);
#301=LINE('',#1861,#388);
#302=LINE('',#1864,#389);
#303=LINE('',#1868,#390);
#304=LINE('',#1872,#391);
#305=LINE('',#1873,#392);
#306=LINE('',#1876,#393);
#307=LINE('',#1881,#394);
#308=LINE('',#1885,#395);
#309=LINE('',#1887,#396);
#310=LINE('',#1891,#397);
#311=LINE('',#1892,#398);
#312=LINE('',#1893,#399);
#313=LINE('',#1897,#400);
#314=LINE('',#1898,#401);
#315=LINE('',#1899,#402);
#316=LINE('',#1903,#403);
#317=LINE('',#1907,#404);
#318=LINE('',#1912,#405);
#319=LINE('',#1913,#406);
#320=LINE('',#1914,#407);
#321=LINE('',#1919,#408);
#322=LINE('',#1925,#409);
#323=LINE('',#1929,#410);
#324=LINE('',#1931,#411);
#325=LINE('',#1932,#412);
#326=LINE('',#1936,#413);
#327=LINE('',#1943,#414);
#328=LINE('',#1948,#415);
#329=LINE('',#1958,#416);
#330=LINE('',#1962,#417);
#331=LINE('',#1964,#418);
#332=LINE('',#1965,#419);
#333=LINE('',#1969,#420);
#334=LINE('',#1971,#421);
#335=LINE('',#1973,#422);
#336=LINE('',#1974,#423);
#337=LINE('',#1981,#424);
#338=LINE('',#2027,#425);
#339=LINE('',#2032,#426);
#340=LINE('',#2040,#427);
#341=LINE('',#2046,#428);
#342=LINE('',#2048,#429);
#343=LINE('',#2052,#430);
#344=LINE('',#2056,#431);
#345=LINE('',#2060,#432);
#346=LINE('',#2064,#433);
#347=LINE('',#2068,#434);
#348=LINE('',#2069,#435);
#349=LINE('',#2073,#436);
#350=LINE('',#2084,#437);
#351=LINE('',#2089,#438);
#352=LINE('',#2098,#439);
#353=LINE('',#2104,#440);
#354=LINE('',#2111,#441);
#355=LINE('',#2113,#442);
#356=LINE('',#2115,#443);
#357=LINE('',#2120,#444);
#358=LINE('',#2121,#445);
#359=LINE('',#2122,#446);
#360=LINE('',#2126,#447);
#361=LINE('',#2131,#448);
#362=LINE('',#2132,#449);
#363=VECTOR('',#1363,10.);
#364=VECTOR('',#1366,6.5);
#365=VECTOR('',#1369,4.9);
#366=VECTOR('',#1372,11.2);
#367=VECTOR('',#1375,4.9);
#368=VECTOR('',#1378,6.5);
#369=VECTOR('',#1391,1.781047637597);
#370=VECTOR('',#1394,2.19617778479796);
#371=VECTOR('',#1401,2.19617778479796);
#372=VECTOR('',#1404,1.781047637597);
#373=VECTOR('',#1415,2.5);
#374=VECTOR('',#1422,2.5);
#375=VECTOR('',#1425,5.17715922877301);
#376=VECTOR('',#1442,5.17715922877301);
#377=VECTOR('',#1447,10.);
#378=VECTOR('',#1450,6.5);
#379=VECTOR('',#1451,4.9);
#380=VECTOR('',#1452,11.2);
#381=VECTOR('',#1453,4.9);
#382=VECTOR('',#1454,6.5);
#383=VECTOR('',#1459,11.2);
#384=VECTOR('',#1462,11.2);
#385=VECTOR('',#1469,6.5);
#386=VECTOR('',#1472,2.19617778479796);
#387=VECTOR('',#1473,6.5);
#388=VECTOR('',#1478,6.5);
#389=VECTOR('',#1481,6.5);
#390=VECTOR('',#1486,6.5);
#391=VECTOR('',#1491,6.5);
#392=VECTOR('',#1492,2.19617778479796);
#393=VECTOR('',#1495,6.5);
#394=VECTOR('',#1502,6.5);
#395=VECTOR('',#1509,10.);
#396=VECTOR('',#1512,10.);
#397=VECTOR('',#1515,10.);
#398=VECTOR('',#1516,10.);
#399=VECTOR('',#1517,10.);
#400=VECTOR('',#1520,10.);
#401=VECTOR('',#1521,10.);
#402=VECTOR('',#1522,10.);
#403=VECTOR('',#1525,10.);
#404=VECTOR('',#1528,8.);
#405=VECTOR('',#1533,8.);
#406=VECTOR('',#1534,2.17024385904886);
#407=VECTOR('',#1535,2.17024385904886);
#408=VECTOR('',#1540,8.);
#409=VECTOR('',#1547,1.375);
#410=VECTOR('',#1552,3.67914806371375);
#411=VECTOR('',#1553,8.);
#412=VECTOR('',#1554,3.67914806371375);
#413=VECTOR('',#1557,8.);
#414=VECTOR('',#1566,10.);
#415=VECTOR('',#1571,10.);
#416=VECTOR('',#1586,10.);
#417=VECTOR('',#1591,10.);
#418=VECTOR('',#1592,10.);
#419=VECTOR('',#1593,8.);
#420=VECTOR('',#1596,10.);
#421=VECTOR('',#1597,8.);
#422=VECTOR('',#1598,10.);
#423=VECTOR('',#1599,10.);
#424=VECTOR('',#1606,6.09906913568379);
#425=VECTOR('',#1617,1.25);
#426=VECTOR('',#1624,2.5);
#427=VECTOR('',#1633,6.09906913568379);
#428=VECTOR('',#1640,6.5);
#429=VECTOR('',#1641,6.5);
#430=VECTOR('',#1644,5.4);
#431=VECTOR('',#1647,10.2);
#432=VECTOR('',#1650,5.4);
#433=VECTOR('',#1655,6.5);
#434=VECTOR('',#1660,6.09906913568379);
#435=VECTOR('',#1661,6.5);
#436=VECTOR('',#1666,6.5);
#437=VECTOR('',#1679,2.5);
#438=VECTOR('',#1686,2.5);
#439=VECTOR('',#1695,5.58738255020725);
#440=VECTOR('',#1702,6.09906913568379);
#441=VECTOR('',#1711,6.5);
#442=VECTOR('',#1714,6.5);
#443=VECTOR('',#1717,6.5);
#444=VECTOR('',#1722,10.2);
#445=VECTOR('',#1723,5.4);
#446=VECTOR('',#1724,5.4);
#447=VECTOR('',#1727,5.58738255020725);
#448=VECTOR('',#1736,10.2);
#449=VECTOR('',#1737,10.2);
#450=VERTEX_POINT('',#1748);
#451=VERTEX_POINT('',#1749);
#452=VERTEX_POINT('',#1751);
#453=VERTEX_POINT('',#1753);
#454=VERTEX_POINT('',#1755);
#455=VERTEX_POINT('',#1757);
#456=VERTEX_POINT('',#1759);
#457=VERTEX_POINT('',#1761);
#458=VERTEX_POINT('',#1763);
#459=VERTEX_POINT('',#1765);
#460=VERTEX_POINT('',#1767);
#461=VERTEX_POINT('',#1769);
#462=VERTEX_POINT('',#1773);
#463=VERTEX_POINT('',#1775);
#464=VERTEX_POINT('',#1777);
#465=VERTEX_POINT('',#1779);
#466=VERTEX_POINT('',#1781);
#467=VERTEX_POINT('',#1783);
#468=VERTEX_POINT('',#1786);
#469=VERTEX_POINT('',#1789);
#470=VERTEX_POINT('',#1791);
#471=VERTEX_POINT('',#1793);
#472=VERTEX_POINT('',#1795);
#473=VERTEX_POINT('',#1797);
#474=VERTEX_POINT('',#1799);
#475=VERTEX_POINT('',#1802);
#476=VERTEX_POINT('',#1805);
#477=VERTEX_POINT('',#1809);
#478=VERTEX_POINT('',#1813);
#479=VERTEX_POINT('',#1814);
#480=VERTEX_POINT('',#1817);
#481=VERTEX_POINT('',#1819);
#482=VERTEX_POINT('',#1823);
#483=VERTEX_POINT('',#1824);
#484=VERTEX_POINT('',#1827);
#485=VERTEX_POINT('',#1829);
#486=VERTEX_POINT('',#1833);
#487=VERTEX_POINT('',#1834);
#488=VERTEX_POINT('',#1836);
#489=VERTEX_POINT('',#1842);
#490=VERTEX_POINT('',#1851);
#491=VERTEX_POINT('',#1855);
#492=VERTEX_POINT('',#1859);
#493=VERTEX_POINT('',#1863);
#494=VERTEX_POINT('',#1867);
#495=VERTEX_POINT('',#1871);
#496=VERTEX_POINT('',#1875);
#497=VERTEX_POINT('',#1879);
#498=VERTEX_POINT('',#1889);
#499=VERTEX_POINT('',#1890);
#500=VERTEX_POINT('',#1895);
#501=VERTEX_POINT('',#1896);
#502=VERTEX_POINT('',#1901);
#503=VERTEX_POINT('',#1902);
#504=VERTEX_POINT('',#1904);
#505=VERTEX_POINT('',#1906);
#506=VERTEX_POINT('',#1910);
#507=VERTEX_POINT('',#1911);
#508=VERTEX_POINT('',#1916);
#509=VERTEX_POINT('',#1918);
#510=VERTEX_POINT('',#1922);
#511=VERTEX_POINT('',#1924);
#512=VERTEX_POINT('',#1928);
#513=VERTEX_POINT('',#1930);
#514=VERTEX_POINT('',#1934);
#515=VERTEX_POINT('',#1935);
#516=VERTEX_POINT('',#1940);
#517=VERTEX_POINT('',#1942);
#518=VERTEX_POINT('',#1946);
#519=VERTEX_POINT('',#1947);
#520=VERTEX_POINT('',#1955);
#521=VERTEX_POINT('',#1957);
#522=VERTEX_POINT('',#1961);
#523=VERTEX_POINT('',#1963);
#524=VERTEX_POINT('',#1967);
#525=VERTEX_POINT('',#1968);
#526=VERTEX_POINT('',#1970);
#527=VERTEX_POINT('',#1972);
#528=VERTEX_POINT('',#1976);
#529=VERTEX_POINT('',#1978);
#530=VERTEX_POINT('',#1980);
#531=VERTEX_POINT('',#1982);
#532=VERTEX_POINT('',#1986);
#533=VERTEX_POINT('',#1989);
#534=VERTEX_POINT('',#1990);
#535=VERTEX_POINT('',#2031);
#536=VERTEX_POINT('',#2035);
#537=VERTEX_POINT('',#2037);
#538=VERTEX_POINT('',#2039);
#539=VERTEX_POINT('',#2041);
#540=VERTEX_POINT('',#2045);
#541=VERTEX_POINT('',#2047);
#542=VERTEX_POINT('',#2049);
#543=VERTEX_POINT('',#2051);
#544=VERTEX_POINT('',#2053);
#545=VERTEX_POINT('',#2055);
#546=VERTEX_POINT('',#2057);
#547=VERTEX_POINT('',#2059);
#548=VERTEX_POINT('',#2063);
#549=VERTEX_POINT('',#2067);
#550=VERTEX_POINT('',#2071);
#551=VERTEX_POINT('',#2075);
#552=VERTEX_POINT('',#2078);
#553=VERTEX_POINT('',#2081);
#554=VERTEX_POINT('',#2083);
#555=VERTEX_POINT('',#2087);
#556=VERTEX_POINT('',#2091);
#557=VERTEX_POINT('',#2093);
#558=VERTEX_POINT('',#2095);
#559=VERTEX_POINT('',#2097);
#560=VERTEX_POINT('',#2101);
#561=VERTEX_POINT('',#2103);
#562=VERTEX_POINT('',#2105);
#563=VERTEX_POINT('',#2107);
#564=VERTEX_POINT('',#2117);
#565=VERTEX_POINT('',#2118);
#566=VERTEX_POINT('',#2124);
#567=VERTEX_POINT('',#2125);
#568=EDGE_CURVE('',#450,#451,#276,.T.);
#569=EDGE_CURVE('',#450,#452,#188,.T.);
#570=EDGE_CURVE('',#452,#453,#277,.T.);
#571=EDGE_CURVE('',#453,#454,#189,.T.);
#572=EDGE_CURVE('',#454,#455,#278,.T.);
#573=EDGE_CURVE('',#455,#456,#190,.T.);
#574=EDGE_CURVE('',#456,#457,#279,.T.);
#575=EDGE_CURVE('',#457,#458,#191,.T.);
#576=EDGE_CURVE('',#458,#459,#280,.T.);
#577=EDGE_CURVE('',#460,#459,#192,.T.);
#578=EDGE_CURVE('',#460,#461,#281,.T.);
#579=EDGE_CURVE('',#461,#451,#193,.T.);
#580=EDGE_CURVE('',#462,#460,#194,.T.);
#581=EDGE_CURVE('',#459,#463,#195,.T.);
#582=EDGE_CURVE('',#463,#464,#196,.T.);
#583=EDGE_CURVE('',#464,#465,#197,.T.);
#584=EDGE_CURVE('',#466,#465,#282,.T.);
#585=EDGE_CURVE('',#466,#467,#198,.T.);
#586=EDGE_CURVE('',#467,#462,#283,.T.);
#587=EDGE_CURVE('',#468,#468,#199,.T.);
#588=EDGE_CURVE('',#453,#469,#200,.T.);
#589=EDGE_CURVE('',#470,#469,#284,.T.);
#590=EDGE_CURVE('',#470,#471,#201,.T.);
#591=EDGE_CURVE('',#471,#472,#285,.T.);
#592=EDGE_CURVE('',#472,#473,#202,.T.);
#593=EDGE_CURVE('',#474,#473,#203,.T.);
#594=EDGE_CURVE('',#474,#454,#204,.T.);
#595=EDGE_CURVE('',#475,#475,#205,.T.);
#596=EDGE_CURVE('',#475,#476,#286,.T.);
#597=EDGE_CURVE('',#476,#476,#206,.T.);
#598=EDGE_CURVE('',#477,#477,#207,.T.);
#599=EDGE_CURVE('',#477,#468,#287,.T.);
#600=EDGE_CURVE('',#478,#479,#288,.T.);
#601=EDGE_CURVE('',#479,#456,#208,.T.);
#602=EDGE_CURVE('',#455,#480,#209,.T.);
#603=EDGE_CURVE('',#481,#480,#210,.T.);
#604=EDGE_CURVE('',#481,#478,#211,.T.);
#605=EDGE_CURVE('',#482,#483,#212,.T.);
#606=EDGE_CURVE('',#458,#482,#213,.T.);
#607=EDGE_CURVE('',#457,#484,#214,.T.);
#608=EDGE_CURVE('',#485,#484,#289,.T.);
#609=EDGE_CURVE('',#485,#483,#215,.T.);
#610=EDGE_CURVE('',#486,#487,#290,.T.);
#611=EDGE_CURVE('',#486,#488,#216,.T.);
#612=EDGE_CURVE('',#488,#464,#291,.T.);
#613=EDGE_CURVE('',#482,#463,#292,.T.);
#614=EDGE_CURVE('',#483,#481,#293,.T.);
#615=EDGE_CURVE('',#474,#480,#294,.T.);
#616=EDGE_CURVE('',#473,#489,#295,.T.);
#617=EDGE_CURVE('',#489,#487,#217,.T.);
#618=EDGE_CURVE('',#485,#478,#296,.T.);
#619=EDGE_CURVE('',#479,#484,#297,.T.);
#620=EDGE_CURVE('',#490,#452,#218,.T.);
#621=EDGE_CURVE('',#490,#469,#298,.T.);
#622=EDGE_CURVE('',#491,#490,#299,.T.);
#623=EDGE_CURVE('',#491,#470,#300,.T.);
#624=EDGE_CURVE('',#492,#491,#219,.T.);
#625=EDGE_CURVE('',#492,#471,#301,.T.);
#626=EDGE_CURVE('',#472,#493,#302,.T.);
#627=EDGE_CURVE('',#489,#493,#220,.T.);
#628=EDGE_CURVE('',#462,#494,#303,.T.);
#629=EDGE_CURVE('',#461,#494,#221,.T.);
#630=EDGE_CURVE('',#467,#495,#304,.T.);
#631=EDGE_CURVE('',#495,#494,#305,.T.);
#632=EDGE_CURVE('',#466,#496,#306,.T.);
#633=EDGE_CURVE('',#495,#496,#222,.T.);
#634=EDGE_CURVE('',#497,#488,#223,.T.);
#635=EDGE_CURVE('',#497,#465,#307,.T.);
#636=EDGE_CURVE('',#497,#496,#308,.T.);
#637=EDGE_CURVE('',#492,#493,#309,.T.);
#638=EDGE_CURVE('',#498,#499,#310,.T.);
#639=EDGE_CURVE('',#498,#450,#311,.T.);
#640=EDGE_CURVE('',#499,#451,#312,.T.);
#641=EDGE_CURVE('',#500,#501,#313,.T.);
#642=EDGE_CURVE('',#501,#486,#314,.T.);
#643=EDGE_CURVE('',#500,#487,#315,.T.);
#644=EDGE_CURVE('',#502,#503,#316,.T.);
#645=EDGE_CURVE('',#504,#503,#224,.T.);
#646=EDGE_CURVE('',#505,#504,#317,.T.);
#647=EDGE_CURVE('',#502,#505,#225,.T.);
#648=EDGE_CURVE('',#506,#507,#318,.T.);
#649=EDGE_CURVE('',#505,#506,#319,.T.);
#650=EDGE_CURVE('',#504,#507,#320,.T.);
#651=EDGE_CURVE('',#508,#507,#226,.T.);
#652=EDGE_CURVE('',#509,#508,#321,.T.);
#653=EDGE_CURVE('',#506,#509,#227,.T.);
#654=EDGE_CURVE('',#510,#510,#228,.T.);
#655=EDGE_CURVE('',#510,#511,#322,.T.);
#656=EDGE_CURVE('',#511,#511,#229,.T.);
#657=EDGE_CURVE('',#508,#512,#323,.T.);
#658=EDGE_CURVE('',#512,#513,#324,.T.);
#659=EDGE_CURVE('',#509,#513,#325,.T.);
#660=EDGE_CURVE('',#514,#515,#326,.T.);
#661=EDGE_CURVE('',#513,#515,#230,.T.);
#662=EDGE_CURVE('',#514,#512,#231,.T.);
#663=EDGE_CURVE('',#500,#516,#232,.T.);
#664=EDGE_CURVE('',#516,#517,#327,.T.);
#665=EDGE_CURVE('',#517,#501,#233,.T.);
#666=EDGE_CURVE('',#518,#519,#328,.T.);
#667=EDGE_CURVE('',#518,#515,#234,.T.);
#668=EDGE_CURVE('',#514,#519,#235,.T.);
#669=EDGE_CURVE('',#499,#518,#236,.T.);
#670=EDGE_CURVE('',#519,#498,#237,.T.);
#671=EDGE_CURVE('',#516,#520,#238,.T.);
#672=EDGE_CURVE('',#520,#521,#329,.T.);
#673=EDGE_CURVE('',#521,#517,#239,.T.);
#674=EDGE_CURVE('',#522,#521,#330,.T.);
#675=EDGE_CURVE('',#523,#520,#331,.T.);
#676=EDGE_CURVE('',#523,#522,#332,.T.);
#677=EDGE_CURVE('',#524,#525,#333,.T.);
#678=EDGE_CURVE('',#526,#524,#334,.T.);
#679=EDGE_CURVE('',#527,#526,#335,.T.);
#680=EDGE_CURVE('',#527,#525,#336,.T.);
#681=EDGE_CURVE('',#528,#526,#240,.T.);
#682=EDGE_CURVE('',#528,#529,#241,.T.);
#683=EDGE_CURVE('',#529,#530,#337,.T.);
#684=EDGE_CURVE('',#530,#531,#242,.T.);
#685=EDGE_CURVE('',#523,#531,#243,.T.);
#686=EDGE_CURVE('',#527,#503,#244,.T.);
#687=EDGE_CURVE('',#532,#532,#245,.T.);
#688=EDGE_CURVE('',#533,#534,#15,.T.);
#689=EDGE_CURVE('',#534,#533,#16,.T.);
#690=EDGE_CURVE('',#534,#510,#338,.T.);
#691=EDGE_CURVE('',#502,#525,#246,.T.);
#692=EDGE_CURVE('',#532,#535,#339,.T.);
#693=EDGE_CURVE('',#535,#535,#247,.T.);
#694=EDGE_CURVE('',#536,#522,#248,.T.);
#695=EDGE_CURVE('',#536,#537,#249,.T.);
#696=EDGE_CURVE('',#538,#537,#340,.T.);
#697=EDGE_CURVE('',#538,#539,#250,.T.);
#698=EDGE_CURVE('',#524,#539,#251,.T.);
#699=EDGE_CURVE('',#540,#536,#341,.T.);
#700=EDGE_CURVE('',#531,#541,#342,.T.);
#701=EDGE_CURVE('',#541,#542,#252,.T.);
#702=EDGE_CURVE('',#542,#543,#343,.T.);
#703=EDGE_CURVE('',#543,#544,#253,.T.);
#704=EDGE_CURVE('',#544,#545,#344,.T.);
#705=EDGE_CURVE('',#545,#546,#254,.T.);
#706=EDGE_CURVE('',#546,#547,#345,.T.);
#707=EDGE_CURVE('',#540,#547,#255,.T.);
#708=EDGE_CURVE('',#548,#537,#346,.T.);
#709=EDGE_CURVE('',#548,#540,#256,.T.);
#710=EDGE_CURVE('',#549,#548,#347,.T.);
#711=EDGE_CURVE('',#538,#549,#348,.T.);
#712=EDGE_CURVE('',#550,#549,#257,.T.);
#713=EDGE_CURVE('',#539,#550,#349,.T.);
#714=EDGE_CURVE('',#547,#551,#258,.T.);
#715=EDGE_CURVE('',#551,#550,#259,.T.);
#716=EDGE_CURVE('',#552,#552,#260,.T.);
#717=EDGE_CURVE('',#553,#553,#261,.T.);
#718=EDGE_CURVE('',#553,#554,#350,.T.);
#719=EDGE_CURVE('',#554,#554,#262,.T.);
#720=EDGE_CURVE('',#555,#555,#263,.T.);
#721=EDGE_CURVE('',#555,#552,#351,.T.);
#722=EDGE_CURVE('',#543,#556,#264,.T.);
#723=EDGE_CURVE('',#557,#556,#265,.T.);
#724=EDGE_CURVE('',#557,#558,#266,.T.);
#725=EDGE_CURVE('',#558,#559,#352,.T.);
#726=EDGE_CURVE('',#559,#544,#267,.T.);
#727=EDGE_CURVE('',#541,#560,#268,.T.);
#728=EDGE_CURVE('',#561,#560,#353,.T.);
#729=EDGE_CURVE('',#561,#562,#269,.T.);
#730=EDGE_CURVE('',#563,#562,#270,.T.);
#731=EDGE_CURVE('',#563,#542,#271,.T.);
#732=EDGE_CURVE('',#530,#560,#354,.T.);
#733=EDGE_CURVE('',#561,#529,#355,.T.);
#734=EDGE_CURVE('',#562,#528,#356,.T.);
#735=EDGE_CURVE('',#564,#565,#272,.T.);
#736=EDGE_CURVE('',#565,#557,#357,.T.);
#737=EDGE_CURVE('',#563,#556,#358,.T.);
#738=EDGE_CURVE('',#564,#551,#359,.T.);
#739=EDGE_CURVE('',#566,#567,#360,.T.);
#740=EDGE_CURVE('',#566,#565,#273,.T.);
#741=EDGE_CURVE('',#546,#564,#274,.T.);
#742=EDGE_CURVE('',#545,#567,#275,.T.);
#743=EDGE_CURVE('',#559,#567,#361,.T.);
#744=EDGE_CURVE('',#566,#558,#362,.T.);
#745=ORIENTED_EDGE('',*,*,#568,.F.);
#746=ORIENTED_EDGE('',*,*,#569,.T.);
#747=ORIENTED_EDGE('',*,*,#570,.T.);
#748=ORIENTED_EDGE('',*,*,#571,.T.);
#749=ORIENTED_EDGE('',*,*,#572,.T.);
#750=ORIENTED_EDGE('',*,*,#573,.T.);
#751=ORIENTED_EDGE('',*,*,#574,.T.);
#752=ORIENTED_EDGE('',*,*,#575,.T.);
#753=ORIENTED_EDGE('',*,*,#576,.T.);
#754=ORIENTED_EDGE('',*,*,#577,.F.);
#755=ORIENTED_EDGE('',*,*,#578,.T.);
#756=ORIENTED_EDGE('',*,*,#579,.T.);
#757=ORIENTED_EDGE('',*,*,#580,.T.);
#758=ORIENTED_EDGE('',*,*,#577,.T.);
#759=ORIENTED_EDGE('',*,*,#581,.T.);
#760=ORIENTED_EDGE('',*,*,#582,.T.);
#761=ORIENTED_EDGE('',*,*,#583,.T.);
#762=ORIENTED_EDGE('',*,*,#584,.F.);
#763=ORIENTED_EDGE('',*,*,#585,.T.);
#764=ORIENTED_EDGE('',*,*,#586,.T.);
#765=ORIENTED_EDGE('',*,*,#587,.F.);
#766=ORIENTED_EDGE('',*,*,#588,.T.);
#767=ORIENTED_EDGE('',*,*,#589,.F.);
#768=ORIENTED_EDGE('',*,*,#590,.T.);
#769=ORIENTED_EDGE('',*,*,#591,.T.);
#770=ORIENTED_EDGE('',*,*,#592,.T.);
#771=ORIENTED_EDGE('',*,*,#593,.F.);
#772=ORIENTED_EDGE('',*,*,#594,.T.);
#773=ORIENTED_EDGE('',*,*,#571,.F.);
#774=ORIENTED_EDGE('',*,*,#595,.T.);
#775=ORIENTED_EDGE('',*,*,#595,.F.);
#776=ORIENTED_EDGE('',*,*,#596,.T.);
#777=ORIENTED_EDGE('',*,*,#597,.T.);
#778=ORIENTED_EDGE('',*,*,#596,.F.);
#779=ORIENTED_EDGE('',*,*,#598,.F.);
#780=ORIENTED_EDGE('',*,*,#599,.T.);
#781=ORIENTED_EDGE('',*,*,#587,.T.);
#782=ORIENTED_EDGE('',*,*,#599,.F.);
#783=ORIENTED_EDGE('',*,*,#600,.T.);
#784=ORIENTED_EDGE('',*,*,#601,.T.);
#785=ORIENTED_EDGE('',*,*,#573,.F.);
#786=ORIENTED_EDGE('',*,*,#602,.T.);
#787=ORIENTED_EDGE('',*,*,#603,.F.);
#788=ORIENTED_EDGE('',*,*,#604,.T.);
#789=ORIENTED_EDGE('',*,*,#597,.F.);
#790=ORIENTED_EDGE('',*,*,#605,.F.);
#791=ORIENTED_EDGE('',*,*,#606,.F.);
#792=ORIENTED_EDGE('',*,*,#575,.F.);
#793=ORIENTED_EDGE('',*,*,#607,.T.);
#794=ORIENTED_EDGE('',*,*,#608,.F.);
#795=ORIENTED_EDGE('',*,*,#609,.T.);
#796=ORIENTED_EDGE('',*,*,#598,.T.);
#797=ORIENTED_EDGE('',*,*,#610,.F.);
#798=ORIENTED_EDGE('',*,*,#611,.T.);
#799=ORIENTED_EDGE('',*,*,#612,.T.);
#800=ORIENTED_EDGE('',*,*,#582,.F.);
#801=ORIENTED_EDGE('',*,*,#613,.F.);
#802=ORIENTED_EDGE('',*,*,#605,.T.);
#803=ORIENTED_EDGE('',*,*,#614,.T.);
#804=ORIENTED_EDGE('',*,*,#603,.T.);
#805=ORIENTED_EDGE('',*,*,#615,.F.);
#806=ORIENTED_EDGE('',*,*,#593,.T.);
#807=ORIENTED_EDGE('',*,*,#616,.T.);
#808=ORIENTED_EDGE('',*,*,#617,.T.);
#809=ORIENTED_EDGE('',*,*,#618,.T.);
#810=ORIENTED_EDGE('',*,*,#604,.F.);
#811=ORIENTED_EDGE('',*,*,#614,.F.);
#812=ORIENTED_EDGE('',*,*,#609,.F.);
#813=ORIENTED_EDGE('',*,*,#618,.F.);
#814=ORIENTED_EDGE('',*,*,#608,.T.);
#815=ORIENTED_EDGE('',*,*,#619,.F.);
#816=ORIENTED_EDGE('',*,*,#600,.F.);
#817=ORIENTED_EDGE('',*,*,#619,.T.);
#818=ORIENTED_EDGE('',*,*,#607,.F.);
#819=ORIENTED_EDGE('',*,*,#574,.F.);
#820=ORIENTED_EDGE('',*,*,#601,.F.);
#821=ORIENTED_EDGE('',*,*,#588,.F.);
#822=ORIENTED_EDGE('',*,*,#570,.F.);
#823=ORIENTED_EDGE('',*,*,#620,.F.);
#824=ORIENTED_EDGE('',*,*,#621,.T.);
#825=ORIENTED_EDGE('',*,*,#621,.F.);
#826=ORIENTED_EDGE('',*,*,#622,.F.);
#827=ORIENTED_EDGE('',*,*,#623,.T.);
#828=ORIENTED_EDGE('',*,*,#589,.T.);
#829=ORIENTED_EDGE('',*,*,#590,.F.);
#830=ORIENTED_EDGE('',*,*,#623,.F.);
#831=ORIENTED_EDGE('',*,*,#624,.F.);
#832=ORIENTED_EDGE('',*,*,#625,.T.);
#833=ORIENTED_EDGE('',*,*,#626,.T.);
#834=ORIENTED_EDGE('',*,*,#627,.F.);
#835=ORIENTED_EDGE('',*,*,#616,.F.);
#836=ORIENTED_EDGE('',*,*,#592,.F.);
#837=ORIENTED_EDGE('',*,*,#628,.T.);
#838=ORIENTED_EDGE('',*,*,#629,.F.);
#839=ORIENTED_EDGE('',*,*,#578,.F.);
#840=ORIENTED_EDGE('',*,*,#580,.F.);
#841=ORIENTED_EDGE('',*,*,#628,.F.);
#842=ORIENTED_EDGE('',*,*,#586,.F.);
#843=ORIENTED_EDGE('',*,*,#630,.T.);
#844=ORIENTED_EDGE('',*,*,#631,.T.);
#845=ORIENTED_EDGE('',*,*,#632,.T.);
#846=ORIENTED_EDGE('',*,*,#633,.F.);
#847=ORIENTED_EDGE('',*,*,#630,.F.);
#848=ORIENTED_EDGE('',*,*,#585,.F.);
#849=ORIENTED_EDGE('',*,*,#583,.F.);
#850=ORIENTED_EDGE('',*,*,#612,.F.);
#851=ORIENTED_EDGE('',*,*,#634,.F.);
#852=ORIENTED_EDGE('',*,*,#635,.T.);
#853=ORIENTED_EDGE('',*,*,#602,.F.);
#854=ORIENTED_EDGE('',*,*,#572,.F.);
#855=ORIENTED_EDGE('',*,*,#594,.F.);
#856=ORIENTED_EDGE('',*,*,#615,.T.);
#857=ORIENTED_EDGE('',*,*,#606,.T.);
#858=ORIENTED_EDGE('',*,*,#613,.T.);
#859=ORIENTED_EDGE('',*,*,#581,.F.);
#860=ORIENTED_EDGE('',*,*,#576,.F.);
#861=ORIENTED_EDGE('',*,*,#636,.T.);
#862=ORIENTED_EDGE('',*,*,#632,.F.);
#863=ORIENTED_EDGE('',*,*,#584,.T.);
#864=ORIENTED_EDGE('',*,*,#635,.F.);
#865=ORIENTED_EDGE('',*,*,#637,.T.);
#866=ORIENTED_EDGE('',*,*,#626,.F.);
#867=ORIENTED_EDGE('',*,*,#591,.F.);
#868=ORIENTED_EDGE('',*,*,#625,.F.);
#869=ORIENTED_EDGE('',*,*,#638,.F.);
#870=ORIENTED_EDGE('',*,*,#639,.T.);
#871=ORIENTED_EDGE('',*,*,#568,.T.);
#872=ORIENTED_EDGE('',*,*,#640,.F.);
#873=ORIENTED_EDGE('',*,*,#641,.T.);
#874=ORIENTED_EDGE('',*,*,#642,.T.);
#875=ORIENTED_EDGE('',*,*,#610,.T.);
#876=ORIENTED_EDGE('',*,*,#643,.F.);
#877=ORIENTED_EDGE('',*,*,#644,.T.);
#878=ORIENTED_EDGE('',*,*,#645,.F.);
#879=ORIENTED_EDGE('',*,*,#646,.F.);
#880=ORIENTED_EDGE('',*,*,#647,.F.);
#881=ORIENTED_EDGE('',*,*,#648,.F.);
#882=ORIENTED_EDGE('',*,*,#649,.F.);
#883=ORIENTED_EDGE('',*,*,#646,.T.);
#884=ORIENTED_EDGE('',*,*,#650,.T.);
#885=ORIENTED_EDGE('',*,*,#651,.F.);
#886=ORIENTED_EDGE('',*,*,#652,.F.);
#887=ORIENTED_EDGE('',*,*,#653,.F.);
#888=ORIENTED_EDGE('',*,*,#648,.T.);
#889=ORIENTED_EDGE('',*,*,#654,.F.);
#890=ORIENTED_EDGE('',*,*,#655,.T.);
#891=ORIENTED_EDGE('',*,*,#656,.T.);
#892=ORIENTED_EDGE('',*,*,#655,.F.);
#893=ORIENTED_EDGE('',*,*,#652,.T.);
#894=ORIENTED_EDGE('',*,*,#657,.T.);
#895=ORIENTED_EDGE('',*,*,#658,.T.);
#896=ORIENTED_EDGE('',*,*,#659,.F.);
#897=ORIENTED_EDGE('',*,*,#656,.F.);
#898=ORIENTED_EDGE('',*,*,#660,.T.);
#899=ORIENTED_EDGE('',*,*,#661,.F.);
#900=ORIENTED_EDGE('',*,*,#658,.F.);
#901=ORIENTED_EDGE('',*,*,#662,.F.);
#902=ORIENTED_EDGE('',*,*,#641,.F.);
#903=ORIENTED_EDGE('',*,*,#663,.T.);
#904=ORIENTED_EDGE('',*,*,#664,.T.);
#905=ORIENTED_EDGE('',*,*,#665,.T.);
#906=ORIENTED_EDGE('',*,*,#666,.F.);
#907=ORIENTED_EDGE('',*,*,#667,.T.);
#908=ORIENTED_EDGE('',*,*,#660,.F.);
#909=ORIENTED_EDGE('',*,*,#668,.T.);
#910=ORIENTED_EDGE('',*,*,#669,.T.);
#911=ORIENTED_EDGE('',*,*,#666,.T.);
#912=ORIENTED_EDGE('',*,*,#670,.T.);
#913=ORIENTED_EDGE('',*,*,#638,.T.);
#914=ORIENTED_EDGE('',*,*,#664,.F.);
#915=ORIENTED_EDGE('',*,*,#671,.T.);
#916=ORIENTED_EDGE('',*,*,#672,.T.);
#917=ORIENTED_EDGE('',*,*,#673,.T.);
#918=ORIENTED_EDGE('',*,*,#674,.T.);
#919=ORIENTED_EDGE('',*,*,#672,.F.);
#920=ORIENTED_EDGE('',*,*,#675,.F.);
#921=ORIENTED_EDGE('',*,*,#676,.T.);
#922=ORIENTED_EDGE('',*,*,#677,.F.);
#923=ORIENTED_EDGE('',*,*,#678,.F.);
#924=ORIENTED_EDGE('',*,*,#679,.F.);
#925=ORIENTED_EDGE('',*,*,#680,.T.);
#926=ORIENTED_EDGE('',*,*,#679,.T.);
#927=ORIENTED_EDGE('',*,*,#681,.F.);
#928=ORIENTED_EDGE('',*,*,#682,.T.);
#929=ORIENTED_EDGE('',*,*,#683,.T.);
#930=ORIENTED_EDGE('',*,*,#684,.T.);
#931=ORIENTED_EDGE('',*,*,#685,.F.);
#932=ORIENTED_EDGE('',*,*,#675,.T.);
#933=ORIENTED_EDGE('',*,*,#671,.F.);
#934=ORIENTED_EDGE('',*,*,#663,.F.);
#935=ORIENTED_EDGE('',*,*,#643,.T.);
#936=ORIENTED_EDGE('',*,*,#617,.F.);
#937=ORIENTED_EDGE('',*,*,#627,.T.);
#938=ORIENTED_EDGE('',*,*,#637,.F.);
#939=ORIENTED_EDGE('',*,*,#624,.T.);
#940=ORIENTED_EDGE('',*,*,#622,.T.);
#941=ORIENTED_EDGE('',*,*,#620,.T.);
#942=ORIENTED_EDGE('',*,*,#569,.F.);
#943=ORIENTED_EDGE('',*,*,#639,.F.);
#944=ORIENTED_EDGE('',*,*,#670,.F.);
#945=ORIENTED_EDGE('',*,*,#668,.F.);
#946=ORIENTED_EDGE('',*,*,#662,.T.);
#947=ORIENTED_EDGE('',*,*,#657,.F.);
#948=ORIENTED_EDGE('',*,*,#651,.T.);
#949=ORIENTED_EDGE('',*,*,#650,.F.);
#950=ORIENTED_EDGE('',*,*,#645,.T.);
#951=ORIENTED_EDGE('',*,*,#686,.F.);
#952=ORIENTED_EDGE('',*,*,#687,.T.);
#953=ORIENTED_EDGE('',*,*,#688,.F.);
#954=ORIENTED_EDGE('',*,*,#689,.F.);
#955=ORIENTED_EDGE('',*,*,#690,.T.);
#956=ORIENTED_EDGE('',*,*,#654,.T.);
#957=ORIENTED_EDGE('',*,*,#690,.F.);
#958=ORIENTED_EDGE('',*,*,#644,.F.);
#959=ORIENTED_EDGE('',*,*,#691,.T.);
#960=ORIENTED_EDGE('',*,*,#680,.F.);
#961=ORIENTED_EDGE('',*,*,#686,.T.);
#962=ORIENTED_EDGE('',*,*,#687,.F.);
#963=ORIENTED_EDGE('',*,*,#692,.T.);
#964=ORIENTED_EDGE('',*,*,#693,.T.);
#965=ORIENTED_EDGE('',*,*,#692,.F.);
#966=ORIENTED_EDGE('',*,*,#688,.T.);
#967=ORIENTED_EDGE('',*,*,#689,.T.);
#968=ORIENTED_EDGE('',*,*,#673,.F.);
#969=ORIENTED_EDGE('',*,*,#674,.F.);
#970=ORIENTED_EDGE('',*,*,#694,.F.);
#971=ORIENTED_EDGE('',*,*,#695,.T.);
#972=ORIENTED_EDGE('',*,*,#696,.F.);
#973=ORIENTED_EDGE('',*,*,#697,.T.);
#974=ORIENTED_EDGE('',*,*,#698,.F.);
#975=ORIENTED_EDGE('',*,*,#677,.T.);
#976=ORIENTED_EDGE('',*,*,#691,.F.);
#977=ORIENTED_EDGE('',*,*,#647,.T.);
#978=ORIENTED_EDGE('',*,*,#649,.T.);
#979=ORIENTED_EDGE('',*,*,#653,.T.);
#980=ORIENTED_EDGE('',*,*,#659,.T.);
#981=ORIENTED_EDGE('',*,*,#661,.T.);
#982=ORIENTED_EDGE('',*,*,#667,.F.);
#983=ORIENTED_EDGE('',*,*,#669,.F.);
#984=ORIENTED_EDGE('',*,*,#640,.T.);
#985=ORIENTED_EDGE('',*,*,#579,.F.);
#986=ORIENTED_EDGE('',*,*,#629,.T.);
#987=ORIENTED_EDGE('',*,*,#631,.F.);
#988=ORIENTED_EDGE('',*,*,#633,.T.);
#989=ORIENTED_EDGE('',*,*,#636,.F.);
#990=ORIENTED_EDGE('',*,*,#634,.T.);
#991=ORIENTED_EDGE('',*,*,#611,.F.);
#992=ORIENTED_EDGE('',*,*,#642,.F.);
#993=ORIENTED_EDGE('',*,*,#665,.F.);
#994=ORIENTED_EDGE('',*,*,#693,.F.);
#995=ORIENTED_EDGE('',*,*,#699,.T.);
#996=ORIENTED_EDGE('',*,*,#694,.T.);
#997=ORIENTED_EDGE('',*,*,#676,.F.);
#998=ORIENTED_EDGE('',*,*,#685,.T.);
#999=ORIENTED_EDGE('',*,*,#700,.T.);
#1000=ORIENTED_EDGE('',*,*,#701,.T.);
#1001=ORIENTED_EDGE('',*,*,#702,.T.);
#1002=ORIENTED_EDGE('',*,*,#703,.T.);
#1003=ORIENTED_EDGE('',*,*,#704,.T.);
#1004=ORIENTED_EDGE('',*,*,#705,.T.);
#1005=ORIENTED_EDGE('',*,*,#706,.T.);
#1006=ORIENTED_EDGE('',*,*,#707,.F.);
#1007=ORIENTED_EDGE('',*,*,#708,.T.);
#1008=ORIENTED_EDGE('',*,*,#695,.F.);
#1009=ORIENTED_EDGE('',*,*,#699,.F.);
#1010=ORIENTED_EDGE('',*,*,#709,.F.);
#1011=ORIENTED_EDGE('',*,*,#708,.F.);
#1012=ORIENTED_EDGE('',*,*,#710,.F.);
#1013=ORIENTED_EDGE('',*,*,#711,.F.);
#1014=ORIENTED_EDGE('',*,*,#696,.T.);
#1015=ORIENTED_EDGE('',*,*,#712,.F.);
#1016=ORIENTED_EDGE('',*,*,#713,.F.);
#1017=ORIENTED_EDGE('',*,*,#697,.F.);
#1018=ORIENTED_EDGE('',*,*,#711,.T.);
#1019=ORIENTED_EDGE('',*,*,#709,.T.);
#1020=ORIENTED_EDGE('',*,*,#707,.T.);
#1021=ORIENTED_EDGE('',*,*,#714,.T.);
#1022=ORIENTED_EDGE('',*,*,#715,.T.);
#1023=ORIENTED_EDGE('',*,*,#712,.T.);
#1024=ORIENTED_EDGE('',*,*,#710,.T.);
#1025=ORIENTED_EDGE('',*,*,#716,.F.);
#1026=ORIENTED_EDGE('',*,*,#717,.F.);
#1027=ORIENTED_EDGE('',*,*,#718,.T.);
#1028=ORIENTED_EDGE('',*,*,#719,.T.);
#1029=ORIENTED_EDGE('',*,*,#718,.F.);
#1030=ORIENTED_EDGE('',*,*,#720,.F.);
#1031=ORIENTED_EDGE('',*,*,#721,.T.);
#1032=ORIENTED_EDGE('',*,*,#716,.T.);
#1033=ORIENTED_EDGE('',*,*,#721,.F.);
#1034=ORIENTED_EDGE('',*,*,#703,.F.);
#1035=ORIENTED_EDGE('',*,*,#722,.T.);
#1036=ORIENTED_EDGE('',*,*,#723,.F.);
#1037=ORIENTED_EDGE('',*,*,#724,.T.);
#1038=ORIENTED_EDGE('',*,*,#725,.T.);
#1039=ORIENTED_EDGE('',*,*,#726,.T.);
#1040=ORIENTED_EDGE('',*,*,#719,.F.);
#1041=ORIENTED_EDGE('',*,*,#727,.T.);
#1042=ORIENTED_EDGE('',*,*,#728,.F.);
#1043=ORIENTED_EDGE('',*,*,#729,.T.);
#1044=ORIENTED_EDGE('',*,*,#730,.F.);
#1045=ORIENTED_EDGE('',*,*,#731,.T.);
#1046=ORIENTED_EDGE('',*,*,#701,.F.);
#1047=ORIENTED_EDGE('',*,*,#717,.T.);
#1048=ORIENTED_EDGE('',*,*,#727,.F.);
#1049=ORIENTED_EDGE('',*,*,#700,.F.);
#1050=ORIENTED_EDGE('',*,*,#684,.F.);
#1051=ORIENTED_EDGE('',*,*,#732,.T.);
#1052=ORIENTED_EDGE('',*,*,#732,.F.);
#1053=ORIENTED_EDGE('',*,*,#683,.F.);
#1054=ORIENTED_EDGE('',*,*,#733,.F.);
#1055=ORIENTED_EDGE('',*,*,#728,.T.);
#1056=ORIENTED_EDGE('',*,*,#733,.T.);
#1057=ORIENTED_EDGE('',*,*,#682,.F.);
#1058=ORIENTED_EDGE('',*,*,#734,.F.);
#1059=ORIENTED_EDGE('',*,*,#729,.F.);
#1060=ORIENTED_EDGE('',*,*,#735,.T.);
#1061=ORIENTED_EDGE('',*,*,#736,.T.);
#1062=ORIENTED_EDGE('',*,*,#723,.T.);
#1063=ORIENTED_EDGE('',*,*,#737,.F.);
#1064=ORIENTED_EDGE('',*,*,#730,.T.);
#1065=ORIENTED_EDGE('',*,*,#734,.T.);
#1066=ORIENTED_EDGE('',*,*,#681,.T.);
#1067=ORIENTED_EDGE('',*,*,#678,.T.);
#1068=ORIENTED_EDGE('',*,*,#698,.T.);
#1069=ORIENTED_EDGE('',*,*,#713,.T.);
#1070=ORIENTED_EDGE('',*,*,#715,.F.);
#1071=ORIENTED_EDGE('',*,*,#738,.F.);
#1072=ORIENTED_EDGE('',*,*,#739,.F.);
#1073=ORIENTED_EDGE('',*,*,#740,.T.);
#1074=ORIENTED_EDGE('',*,*,#735,.F.);
#1075=ORIENTED_EDGE('',*,*,#741,.F.);
#1076=ORIENTED_EDGE('',*,*,#705,.F.);
#1077=ORIENTED_EDGE('',*,*,#742,.T.);
#1078=ORIENTED_EDGE('',*,*,#720,.T.);
#1079=ORIENTED_EDGE('',*,*,#743,.F.);
#1080=ORIENTED_EDGE('',*,*,#725,.F.);
#1081=ORIENTED_EDGE('',*,*,#744,.F.);
#1082=ORIENTED_EDGE('',*,*,#739,.T.);
#1083=ORIENTED_EDGE('',*,*,#743,.T.);
#1084=ORIENTED_EDGE('',*,*,#742,.F.);
#1085=ORIENTED_EDGE('',*,*,#704,.F.);
#1086=ORIENTED_EDGE('',*,*,#726,.F.);
#1087=ORIENTED_EDGE('',*,*,#744,.T.);
#1088=ORIENTED_EDGE('',*,*,#724,.F.);
#1089=ORIENTED_EDGE('',*,*,#736,.F.);
#1090=ORIENTED_EDGE('',*,*,#740,.F.);
#1091=ORIENTED_EDGE('',*,*,#722,.F.);
#1092=ORIENTED_EDGE('',*,*,#702,.F.);
#1093=ORIENTED_EDGE('',*,*,#731,.F.);
#1094=ORIENTED_EDGE('',*,*,#737,.T.);
#1095=ORIENTED_EDGE('',*,*,#741,.T.);
#1096=ORIENTED_EDGE('',*,*,#738,.T.);
#1097=ORIENTED_EDGE('',*,*,#714,.F.);
#1098=ORIENTED_EDGE('',*,*,#706,.F.);
#1099=CYLINDRICAL_SURFACE('',#1210,70.);
#1100=CYLINDRICAL_SURFACE('',#1231,2.5);
#1101=CYLINDRICAL_SURFACE('',#1233,2.5);
#1102=CYLINDRICAL_SURFACE('',#1245,35.);
#1103=CYLINDRICAL_SURFACE('',#1248,1.);
#1104=CYLINDRICAL_SURFACE('',#1250,0.5);
#1105=CYLINDRICAL_SURFACE('',#1251,1.);
#1106=CYLINDRICAL_SURFACE('',#1254,1.);
#1107=CYLINDRICAL_SURFACE('',#1256,1.);
#1108=CYLINDRICAL_SURFACE('',#1258,1.);
#1109=CYLINDRICAL_SURFACE('',#1261,1.);
#1110=CYLINDRICAL_SURFACE('',#1263,1.);
#1111=CYLINDRICAL_SURFACE('',#1265,5.);
#1112=CYLINDRICAL_SURFACE('',#1266,5.);
#1113=CYLINDRICAL_SURFACE('',#1271,1.);
#1114=CYLINDRICAL_SURFACE('',#1275,1.);
#1115=CYLINDRICAL_SURFACE('',#1282,1.);
#1116=CYLINDRICAL_SURFACE('',#1285,35.);
#1117=CYLINDRICAL_SURFACE('',#1288,70.);
#1118=CYLINDRICAL_SURFACE('',#1291,10.);
#1119=CYLINDRICAL_SURFACE('',#1294,5.);
#1120=CYLINDRICAL_SURFACE('',#1306,1.25);
#1121=CYLINDRICAL_SURFACE('',#1307,5.);
#1122=CYLINDRICAL_SURFACE('',#1309,2.5);
#1123=CYLINDRICAL_SURFACE('',#1316,35.5);
#1124=CYLINDRICAL_SURFACE('',#1321,1.);
#1125=CYLINDRICAL_SURFACE('',#1324,1.);
#1126=CYLINDRICAL_SURFACE('',#1330,2.5);
#1127=CYLINDRICAL_SURFACE('',#1333,2.5);
#1128=CYLINDRICAL_SURFACE('',#1345,1.);
#1129=CYLINDRICAL_SURFACE('',#1347,1.);
#1130=CYLINDRICAL_SURFACE('',#1348,35.5);
#1131=CYLINDRICAL_SURFACE('',#1355,1.);
#1132=CYLINDRICAL_SURFACE('',#1356,0.8);
#1133=CYLINDRICAL_SURFACE('',#1357,5.);
#1134=CYLINDRICAL_SURFACE('',#1358,5.);
#1135=ADVANCED_FACE('',(#54),#1099,.F.);
#1136=ADVANCED_FACE('',(#55,#18),#30,.T.);
#1137=ADVANCED_FACE('',(#56,#19),#31,.F.);
#1138=ADVANCED_FACE('',(#57),#1100,.F.);
#1139=ADVANCED_FACE('',(#58),#1101,.F.);
#1140=ADVANCED_FACE('',(#59,#20),#32,.T.);
#1141=ADVANCED_FACE('',(#60,#21),#33,.F.);
#1142=ADVANCED_FACE('',(#61),#1102,.F.);
#1143=ADVANCED_FACE('',(#62),#1103,.T.);
#1144=ADVANCED_FACE('',(#63),#34,.F.);
#1145=ADVANCED_FACE('',(#64),#1104,.T.);
#1146=ADVANCED_FACE('',(#65),#1105,.T.);
#1147=ADVANCED_FACE('',(#66),#35,.F.);
#1148=ADVANCED_FACE('',(#67),#1106,.T.);
#1149=ADVANCED_FACE('',(#68),#1107,.T.);
#1150=ADVANCED_FACE('',(#69),#1108,.T.);
#1151=ADVANCED_FACE('',(#70),#36,.T.);
#1152=ADVANCED_FACE('',(#71),#1109,.T.);
#1153=ADVANCED_FACE('',(#72),#1110,.T.);
#1154=ADVANCED_FACE('',(#73),#1111,.T.);
#1155=ADVANCED_FACE('',(#74),#1112,.T.);
#1156=ADVANCED_FACE('',(#75),#37,.T.);
#1157=ADVANCED_FACE('',(#76),#38,.T.);
#1158=ADVANCED_FACE('',(#77),#39,.T.);
#1159=ADVANCED_FACE('',(#78),#40,.T.);
#1160=ADVANCED_FACE('',(#79),#1113,.F.);
#1161=ADVANCED_FACE('',(#80),#41,.T.);
#1162=ADVANCED_FACE('',(#81),#1114,.T.);
#1163=ADVANCED_FACE('',(#82),#17,.F.);
#1164=ADVANCED_FACE('',(#83,#22),#42,.T.);
#1165=ADVANCED_FACE('',(#84),#1115,.F.);
#1166=ADVANCED_FACE('',(#85),#1116,.F.);
#1167=ADVANCED_FACE('',(#86),#1117,.F.);
#1168=ADVANCED_FACE('',(#87),#1118,.F.);
#1169=ADVANCED_FACE('',(#88),#1119,.T.);
#1170=ADVANCED_FACE('',(#89),#43,.T.);
#1171=ADVANCED_FACE('',(#90),#44,.T.);
#1172=ADVANCED_FACE('',(#91,#23),#45,.T.);
#1173=ADVANCED_FACE('',(#92),#1120,.F.);
#1174=ADVANCED_FACE('',(#93),#1121,.T.);
#1175=ADVANCED_FACE('',(#94,#24),#1122,.F.);
#1176=ADVANCED_FACE('',(#95,#25),#46,.F.);
#1177=ADVANCED_FACE('',(#96),#1123,.F.);
#1178=ADVANCED_FACE('',(#97),#1124,.T.);
#1179=ADVANCED_FACE('',(#98),#47,.T.);
#1180=ADVANCED_FACE('',(#99),#1125,.T.);
#1181=ADVANCED_FACE('',(#100,#26),#48,.T.);
#1182=ADVANCED_FACE('',(#101),#1126,.F.);
#1183=ADVANCED_FACE('',(#102),#1127,.F.);
#1184=ADVANCED_FACE('',(#103,#27),#49,.T.);
#1185=ADVANCED_FACE('',(#104,#28),#50,.F.);
#1186=ADVANCED_FACE('',(#105),#1128,.T.);
#1187=ADVANCED_FACE('',(#106),#51,.F.);
#1188=ADVANCED_FACE('',(#107),#1129,.T.);
#1189=ADVANCED_FACE('',(#108),#1130,.F.);
#1190=ADVANCED_FACE('',(#109,#29),#52,.F.);
#1191=ADVANCED_FACE('',(#110),#53,.F.);
#1192=ADVANCED_FACE('',(#111),#1131,.T.);
#1193=ADVANCED_FACE('',(#112),#1132,.T.);
#1194=ADVANCED_FACE('',(#113),#1133,.T.);
#1195=ADVANCED_FACE('',(#114),#1134,.T.);
#1196=CLOSED_SHELL('',(#1135,#1136,#1137,#1138,#1139,#1140,#1141,#1142,
#1143,#1144,#1145,#1146,#1147,#1148,#1149,#1150,#1151,#1152,#1153,#1154,
#1155,#1156,#1157,#1158,#1159,#1160,#1161,#1162,#1163,#1164,#1165,#1166,
#1167,#1168,#1169,#1170,#1171,#1172,#1173,#1174,#1175,#1176,#1177,#1178,
#1179,#1180,#1181,#1182,#1183,#1184,#1185,#1186,#1187,#1188,#1189,#1190,
#1191,#1192,#1193,#1194,#1195));
#1197=DERIVED_UNIT_ELEMENT(#1199,1.);
#1198=DERIVED_UNIT_ELEMENT(#2142,-3.);
#1199=(
MASS_UNIT()
NAMED_UNIT(*)
SI_UNIT(.KILO.,.GRAM.)
);
#1200=DERIVED_UNIT((#1197,#1198));
#1201=MEASURE_REPRESENTATION_ITEM('density measure',
POSITIVE_RATIO_MEASURE(7850.),#1200);
#1202=PROPERTY_DEFINITION_REPRESENTATION(#1207,#1204);
#1203=PROPERTY_DEFINITION_REPRESENTATION(#1208,#1205);
#1204=REPRESENTATION('material name',(#1206),#2139);
#1205=REPRESENTATION('density',(#1201),#2139);
#1206=DESCRIPTIVE_REPRESENTATION_ITEM('Acier','Acier');
#1207=PROPERTY_DEFINITION('material property','material name',#2149);
#1208=PROPERTY_DEFINITION('material property','density of part',#2149);
#1209=AXIS2_PLACEMENT_3D('',#1746,#1359,#1360);
#1210=AXIS2_PLACEMENT_3D('',#1747,#1361,#1362);
#1211=AXIS2_PLACEMENT_3D('',#1752,#1364,#1365);
#1212=AXIS2_PLACEMENT_3D('',#1756,#1367,#1368);
#1213=AXIS2_PLACEMENT_3D('',#1760,#1370,#1371);
#1214=AXIS2_PLACEMENT_3D('',#1764,#1373,#1374);
#1215=AXIS2_PLACEMENT_3D('',#1768,#1376,#1377);
#1216=AXIS2_PLACEMENT_3D('',#1771,#1379,#1380);
#1217=AXIS2_PLACEMENT_3D('',#1772,#1381,#1382);
#1218=AXIS2_PLACEMENT_3D('',#1774,#1383,#1384);
#1219=AXIS2_PLACEMENT_3D('',#1776,#1385,#1386);
#1220=AXIS2_PLACEMENT_3D('',#1778,#1387,#1388);
#1221=AXIS2_PLACEMENT_3D('',#1780,#1389,#1390);
#1222=AXIS2_PLACEMENT_3D('',#1784,#1392,#1393);
#1223=AXIS2_PLACEMENT_3D('',#1787,#1395,#1396);
#1224=AXIS2_PLACEMENT_3D('',#1788,#1397,#1398);
#1225=AXIS2_PLACEMENT_3D('',#1790,#1399,#1400);
#1226=AXIS2_PLACEMENT_3D('',#1794,#1402,#1403);
#1227=AXIS2_PLACEMENT_3D('',#1798,#1405,#1406);
#1228=AXIS2_PLACEMENT_3D('',#1800,#1407,#1408);
#1229=AXIS2_PLACEMENT_3D('',#1801,#1409,#1410);
#1230=AXIS2_PLACEMENT_3D('',#1803,#1411,#1412);
#1231=AXIS2_PLACEMENT_3D('',#1804,#1413,#1414);
#1232=AXIS2_PLACEMENT_3D('',#1807,#1416,#1417);
#1233=AXIS2_PLACEMENT_3D('',#1808,#1418,#1419);
#1234=AXIS2_PLACEMENT_3D('',#1810,#1420,#1421);
#1235=AXIS2_PLACEMENT_3D('',#1812,#1423,#1424);
#1236=AXIS2_PLACEMENT_3D('',#1816,#1426,#1427);
#1237=AXIS2_PLACEMENT_3D('',#1818,#1428,#1429);
#1238=AXIS2_PLACEMENT_3D('',#1820,#1430,#1431);
#1239=AXIS2_PLACEMENT_3D('',#1821,#1432,#1433);
#1240=AXIS2_PLACEMENT_3D('',#1822,#1434,#1435);
#1241=AXIS2_PLACEMENT_3D('',#1825,#1436,#1437);
#1242=AXIS2_PLACEMENT_3D('',#1826,#1438,#1439);
#1243=AXIS2_PLACEMENT_3D('',#1828,#1440,#1441);
#1244=AXIS2_PLACEMENT_3D('',#1831,#1443,#1444);
#1245=AXIS2_PLACEMENT_3D('',#1832,#1445,#1446);
#1246=AXIS2_PLACEMENT_3D('',#1837,#1448,#1449);
#1247=AXIS2_PLACEMENT_3D('',#1844,#1455,#1456);
#1248=AXIS2_PLACEMENT_3D('',#1845,#1457,#1458);
#1249=AXIS2_PLACEMENT_3D('',#1847,#1460,#1461);
#1250=AXIS2_PLACEMENT_3D('',#1849,#1463,#1464);
#1251=AXIS2_PLACEMENT_3D('',#1850,#1465,#1466);
#1252=AXIS2_PLACEMENT_3D('',#1852,#1467,#1468);
#1253=AXIS2_PLACEMENT_3D('',#1854,#1470,#1471);
#1254=AXIS2_PLACEMENT_3D('',#1858,#1474,#1475);
#1255=AXIS2_PLACEMENT_3D('',#1860,#1476,#1477);
#1256=AXIS2_PLACEMENT_3D('',#1862,#1479,#1480);
#1257=AXIS2_PLACEMENT_3D('',#1865,#1482,#1483);
#1258=AXIS2_PLACEMENT_3D('',#1866,#1484,#1485);
#1259=AXIS2_PLACEMENT_3D('',#1869,#1487,#1488);
#1260=AXIS2_PLACEMENT_3D('',#1870,#1489,#1490);
#1261=AXIS2_PLACEMENT_3D('',#1874,#1493,#1494);
#1262=AXIS2_PLACEMENT_3D('',#1877,#1496,#1497);
#1263=AXIS2_PLACEMENT_3D('',#1878,#1498,#1499);
#1264=AXIS2_PLACEMENT_3D('',#1880,#1500,#1501);
#1265=AXIS2_PLACEMENT_3D('',#1882,#1503,#1504);
#1266=AXIS2_PLACEMENT_3D('',#1883,#1505,#1506);
#1267=AXIS2_PLACEMENT_3D('',#1884,#1507,#1508);
#1268=AXIS2_PLACEMENT_3D('',#1886,#1510,#1511);
#1269=AXIS2_PLACEMENT_3D('',#1888,#1513,#1514);
#1270=AXIS2_PLACEMENT_3D('',#1894,#1518,#1519);
#1271=AXIS2_PLACEMENT_3D('',#1900,#1523,#1524);
#1272=AXIS2_PLACEMENT_3D('',#1905,#1526,#1527);
#1273=AXIS2_PLACEMENT_3D('',#1908,#1529,#1530);
#1274=AXIS2_PLACEMENT_3D('',#1909,#1531,#1532);
#1275=AXIS2_PLACEMENT_3D('',#1915,#1536,#1537);
#1276=AXIS2_PLACEMENT_3D('',#1917,#1538,#1539);
#1277=AXIS2_PLACEMENT_3D('',#1920,#1541,#1542);
#1278=AXIS2_PLACEMENT_3D('',#1921,#1543,#1544);
#1279=AXIS2_PLACEMENT_3D('',#1923,#1545,#1546);
#1280=AXIS2_PLACEMENT_3D('',#1926,#1548,#1549);
#1281=AXIS2_PLACEMENT_3D('',#1927,#1550,#1551);
#1282=AXIS2_PLACEMENT_3D('',#1933,#1555,#1556);
#1283=AXIS2_PLACEMENT_3D('',#1937,#1558,#1559);
#1284=AXIS2_PLACEMENT_3D('',#1938,#1560,#1561);
#1285=AXIS2_PLACEMENT_3D('',#1939,#1562,#1563);
#1286=AXIS2_PLACEMENT_3D('',#1941,#1564,#1565);
#1287=AXIS2_PLACEMENT_3D('',#1944,#1567,#1568);
#1288=AXIS2_PLACEMENT_3D('',#1945,#1569,#1570);
#1289=AXIS2_PLACEMENT_3D('',#1949,#1572,#1573);
#1290=AXIS2_PLACEMENT_3D('',#1950,#1574,#1575);
#1291=AXIS2_PLACEMENT_3D('',#1951,#1576,#1577);
#1292=AXIS2_PLACEMENT_3D('',#1952,#1578,#1579);
#1293=AXIS2_PLACEMENT_3D('',#1953,#1580,#1581);
#1294=AXIS2_PLACEMENT_3D('',#1954,#1582,#1583);
#1295=AXIS2_PLACEMENT_3D('',#1956,#1584,#1585);
#1296=AXIS2_PLACEMENT_3D('',#1959,#1587,#1588);
#1297=AXIS2_PLACEMENT_3D('',#1960,#1589,#1590);
#1298=AXIS2_PLACEMENT_3D('',#1966,#1594,#1595);
#1299=AXIS2_PLACEMENT_3D('',#1975,#1600,#1601);
#1300=AXIS2_PLACEMENT_3D('',#1977,#1602,#1603);
#1301=AXIS2_PLACEMENT_3D('',#1979,#1604,#1605);
#1302=AXIS2_PLACEMENT_3D('',#1983,#1607,#1608);
#1303=AXIS2_PLACEMENT_3D('',#1984,#1609,#1610);
#1304=AXIS2_PLACEMENT_3D('',#1985,#1611,#1612);
#1305=AXIS2_PLACEMENT_3D('',#1987,#1613,#1614);
#1306=AXIS2_PLACEMENT_3D('',#1988,#1615,#1616);
#1307=AXIS2_PLACEMENT_3D('',#2028,#1618,#1619);
#1308=AXIS2_PLACEMENT_3D('',#2029,#1620,#1621);
#1309=AXIS2_PLACEMENT_3D('',#2030,#1622,#1623);
#1310=AXIS2_PLACEMENT_3D('',#2033,#1625,#1626);
#1311=AXIS2_PLACEMENT_3D('',#2034,#1627,#1628);
#1312=AXIS2_PLACEMENT_3D('',#2036,#1629,#1630);
#1313=AXIS2_PLACEMENT_3D('',#2038,#1631,#1632);
#1314=AXIS2_PLACEMENT_3D('',#2042,#1634,#1635);
#1315=AXIS2_PLACEMENT_3D('',#2043,#1636,#1637);
#1316=AXIS2_PLACEMENT_3D('',#2044,#1638,#1639);
#1317=AXIS2_PLACEMENT_3D('',#2050,#1642,#1643);
#1318=AXIS2_PLACEMENT_3D('',#2054,#1645,#1646);
#1319=AXIS2_PLACEMENT_3D('',#2058,#1648,#1649);
#1320=AXIS2_PLACEMENT_3D('',#2061,#1651,#1652);
#1321=AXIS2_PLACEMENT_3D('',#2062,#1653,#1654);
#1322=AXIS2_PLACEMENT_3D('',#2065,#1656,#1657);
#1323=AXIS2_PLACEMENT_3D('',#2066,#1658,#1659);
#1324=AXIS2_PLACEMENT_3D('',#2070,#1662,#1663);
#1325=AXIS2_PLACEMENT_3D('',#2072,#1664,#1665);
#1326=AXIS2_PLACEMENT_3D('',#2074,#1667,#1668);
#1327=AXIS2_PLACEMENT_3D('',#2076,#1669,#1670);
#1328=AXIS2_PLACEMENT_3D('',#2077,#1671,#1672);
#1329=AXIS2_PLACEMENT_3D('',#2079,#1673,#1674);
#1330=AXIS2_PLACEMENT_3D('',#2080,#1675,#1676);
#1331=AXIS2_PLACEMENT_3D('',#2082,#1677,#1678);
#1332=AXIS2_PLACEMENT_3D('',#2085,#1680,#1681);
#1333=AXIS2_PLACEMENT_3D('',#2086,#1682,#1683);
#1334=AXIS2_PLACEMENT_3D('',#2088,#1684,#1685);
#1335=AXIS2_PLACEMENT_3D('',#2090,#1687,#1688);
#1336=AXIS2_PLACEMENT_3D('',#2092,#1689,#1690);
#1337=AXIS2_PLACEMENT_3D('',#2094,#1691,#1692);
#1338=AXIS2_PLACEMENT_3D('',#2096,#1693,#1694);
#1339=AXIS2_PLACEMENT_3D('',#2099,#1696,#1697);
#1340=AXIS2_PLACEMENT_3D('',#2100,#1698,#1699);
#1341=AXIS2_PLACEMENT_3D('',#2102,#1700,#1701);
#1342=AXIS2_PLACEMENT_3D('',#2106,#1703,#1704);
#1343=AXIS2_PLACEMENT_3D('',#2108,#1705,#1706);
#1344=AXIS2_PLACEMENT_3D('',#2109,#1707,#1708);
#1345=AXIS2_PLACEMENT_3D('',#2110,#1709,#1710);
#1346=AXIS2_PLACEMENT_3D('',#2112,#1712,#1713);
#1347=AXIS2_PLACEMENT_3D('',#2114,#1715,#1716);
#1348=AXIS2_PLACEMENT_3D('',#2116,#1718,#1719);
#1349=AXIS2_PLACEMENT_3D('',#2119,#1720,#1721);
#1350=AXIS2_PLACEMENT_3D('',#2123,#1725,#1726);
#1351=AXIS2_PLACEMENT_3D('',#2127,#1728,#1729);
#1352=AXIS2_PLACEMENT_3D('',#2128,#1730,#1731);
#1353=AXIS2_PLACEMENT_3D('',#2129,#1732,#1733);
#1354=AXIS2_PLACEMENT_3D('',#2130,#1734,#1735);
#1355=AXIS2_PLACEMENT_3D('',#2133,#1738,#1739);
#1356=AXIS2_PLACEMENT_3D('',#2134,#1740,#1741);
#1357=AXIS2_PLACEMENT_3D('',#2135,#1742,#1743);
#1358=AXIS2_PLACEMENT_3D('',#2136,#1744,#1745);
#1359=DIRECTION('axis',(0.,0.,1.));
#1360=DIRECTION('refdir',(1.,0.,0.));
#1361=DIRECTION('center_axis',(0.,0.,1.));
#1362=DIRECTION('ref_axis',(0.,1.,0.));
#1363=DIRECTION('',(0.,0.,1.));
#1364=DIRECTION('center_axis',(0.,0.,-1.));
#1365=DIRECTION('ref_axis',(0.993558776937682,0.113317945490098,0.));
#1366=DIRECTION('',(0.,0.,-1.));
#1367=DIRECTION('center_axis',(0.,0.,-1.));
#1368=DIRECTION('ref_axis',(0.999993311668237,-0.00365740601968513,0.));
#1369=DIRECTION('',(0.,0.,1.));
#1370=DIRECTION('center_axis',(0.,0.,1.));
#1371=DIRECTION('ref_axis',(0.979795897113272,-0.199999999999994,0.));
#1372=DIRECTION('',(0.,0.,1.));
#1373=DIRECTION('center_axis',(0.,0.,-1.));
#1374=DIRECTION('ref_axis',(0.995278536152046,-0.0970599581446445,0.));
#1375=DIRECTION('',(0.,0.,1.));
#1376=DIRECTION('center_axis',(0.,0.,-1.));
#1377=DIRECTION('ref_axis',(0.999993311668237,-0.00365740601968513,0.));
#1378=DIRECTION('',(0.,0.,-1.));
#1379=DIRECTION('center_axis',(0.,0.,1.));
#1380=DIRECTION('ref_axis',(0.999993311668237,-0.00365740601968513,0.));
#1381=DIRECTION('center_axis',(0.,0.,1.));
#1382=DIRECTION('ref_axis',(0.,1.,0.));
#1383=DIRECTION('center_axis',(0.,0.,1.));
#1384=DIRECTION('ref_axis',(-0.573576436351011,0.819152044289016,0.));
#1385=DIRECTION('center_axis',(0.,0.,1.));
#1386=DIRECTION('ref_axis',(-0.979795897113272,0.199999999999994,0.));
#1387=DIRECTION('center_axis',(0.,0.,-1.));
#1388=DIRECTION('ref_axis',(-0.927024810886964,-0.374999999999985,0.));
#1389=DIRECTION('center_axis',(0.,0.,1.));
#1390=DIRECTION('ref_axis',(0.999614123080366,-0.027777777777779,0.));
#1391=DIRECTION('',(1.,0.,0.));
#1392=DIRECTION('center_axis',(0.,0.,1.));
#1393=DIRECTION('ref_axis',(0.,1.,0.));
#1394=DIRECTION('',(-0.819152044289016,-0.573576436351011,0.));
#1395=DIRECTION('center_axis',(0.,0.,1.));
#1396=DIRECTION('ref_axis',(0.,1.,0.));
#1397=DIRECTION('center_axis',(0.,0.,1.));
#1398=DIRECTION('ref_axis',(0.,1.,0.));
#1399=DIRECTION('center_axis',(0.,0.,-1.));
#1400=DIRECTION('ref_axis',(-0.999993311668237,0.00365740601970213,0.));
#1401=DIRECTION('',(-0.819152044289016,-0.573576436351011,0.));
#1402=DIRECTION('center_axis',(0.,0.,-1.));
#1403=DIRECTION('ref_axis',(-0.573576436351011,0.819152044289016,0.));
#1404=DIRECTION('',(1.,0.,0.));
#1405=DIRECTION('center_axis',(0.,0.,-1.));
#1406=DIRECTION('ref_axis',(0.,1.,0.));
#1407=DIRECTION('center_axis',(0.,0.,-1.));
#1408=DIRECTION('ref_axis',(-0.927024810886964,-0.374999999999985,0.));
#1409=DIRECTION('center_axis',(0.,0.,-1.));
#1410=DIRECTION('ref_axis',(0.927024810886964,0.374999999999985,0.));
#1411=DIRECTION('center_axis',(0.,0.,1.));
#1412=DIRECTION('ref_axis',(0.,1.,0.));
#1413=DIRECTION('center_axis',(0.,0.,1.));
#1414=DIRECTION('ref_axis',(0.,1.,0.));
#1415=DIRECTION('',(0.,0.,1.));
#1416=DIRECTION('center_axis',(0.,0.,1.));
#1417=DIRECTION('ref_axis',(0.,1.,0.));
#1418=DIRECTION('center_axis',(0.,0.,1.));
#1419=DIRECTION('ref_axis',(0.,1.,0.));
#1420=DIRECTION('center_axis',(0.,0.,1.));
#1421=DIRECTION('ref_axis',(0.,1.,0.));
#1422=DIRECTION('',(0.,0.,1.));
#1423=DIRECTION('center_axis',(0.,0.,1.));
#1424=DIRECTION('ref_axis',(0.,1.,0.));
#1425=DIRECTION('',(-0.939692620785897,-0.342020143325699,0.));
#1426=DIRECTION('center_axis',(0.,0.,-1.));
#1427=DIRECTION('ref_axis',(0.342020143325699,-0.939692620785897,0.));
#1428=DIRECTION('center_axis',(0.,0.,1.));
#1429=DIRECTION('ref_axis',(-0.979795897113272,0.199999999999994,0.));
#1430=DIRECTION('center_axis',(0.,0.,1.));
#1431=DIRECTION('ref_axis',(-0.991794990777944,-0.127838555482206,0.));
#1432=DIRECTION('center_axis',(0.,0.,-1.));
#1433=DIRECTION('ref_axis',(0.991794990777945,0.127838555482206,0.));
#1434=DIRECTION('center_axis',(0.,0.,1.));
#1435=DIRECTION('ref_axis',(0.,1.,0.));
#1436=DIRECTION('center_axis',(0.,0.,-1.));
#1437=DIRECTION('ref_axis',(-0.927024810886964,-0.374999999999985,0.));
#1438=DIRECTION('center_axis',(0.,0.,1.));
#1439=DIRECTION('ref_axis',(-0.979795897113272,0.199999999999994,0.));
#1440=DIRECTION('center_axis',(0.,0.,1.));
#1441=DIRECTION('ref_axis',(-0.995278536152046,0.0970599581446445,0.));
#1442=DIRECTION('',(-0.939692620785897,-0.342020143325699,0.));
#1443=DIRECTION('center_axis',(0.,0.,1.));
#1444=DIRECTION('ref_axis',(0.342020143325699,-0.939692620785897,0.));
#1445=DIRECTION('center_axis',(0.,0.,1.));
#1446=DIRECTION('ref_axis',(0.,1.,0.));
#1447=DIRECTION('',(0.,0.,-1.));
#1448=DIRECTION('center_axis',(0.,0.,1.));
#1449=DIRECTION('ref_axis',(-0.927024810886964,0.374999999999985,0.));
#1450=DIRECTION('',(0.,0.,1.));
#1451=DIRECTION('',(0.,0.,1.));
#1452=DIRECTION('',(0.,0.,-1.));
#1453=DIRECTION('',(0.,0.,1.));
#1454=DIRECTION('',(0.,0.,1.));
#1455=DIRECTION('center_axis',(0.,0.,-1.));
#1456=DIRECTION('ref_axis',(-0.999614123080366,0.027777777777779,0.));
#1457=DIRECTION('center_axis',(0.,0.,-1.));
#1458=DIRECTION('ref_axis',(0.991794990777945,0.127838555482206,0.));
#1459=DIRECTION('',(0.,0.,-1.));
#1460=DIRECTION('center_axis',(-0.342020143325699,0.939692620785897,0.));
#1461=DIRECTION('ref_axis',(-0.939692620785897,-0.342020143325699,0.));
#1462=DIRECTION('',(0.,0.,1.));
#1463=DIRECTION('center_axis',(0.,0.,1.));
#1464=DIRECTION('ref_axis',(-0.995278536152046,0.0970599581446445,0.));
#1465=DIRECTION('center_axis',(0.,0.,-1.));
#1466=DIRECTION('ref_axis',(-0.999993311668237,0.00365740601970013,0.));
#1467=DIRECTION('center_axis',(0.,0.,1.));
#1468=DIRECTION('ref_axis',(-0.573576436351011,0.819152044289016,0.));
#1469=DIRECTION('',(0.,0.,-1.));
#1470=DIRECTION('center_axis',(0.573576436351011,-0.819152044289016,0.));
#1471=DIRECTION('ref_axis',(-0.819152044289016,-0.573576436351011,0.));
#1472=DIRECTION('',(-0.819152044289016,-0.573576436351011,0.));
#1473=DIRECTION('',(1.11363909547E-14,0.,-1.));
#1474=DIRECTION('center_axis',(0.,0.,-1.));
#1475=DIRECTION('ref_axis',(-0.573576436351078,0.819152044288969,0.));
#1476=DIRECTION('center_axis',(0.,0.,1.));
#1477=DIRECTION('ref_axis',(0.,1.,0.));
#1478=DIRECTION('',(0.,0.,-1.));
#1479=DIRECTION('center_axis',(0.,0.,1.));
#1480=DIRECTION('ref_axis',(0.999614123080366,-0.027777777777779,0.));
#1481=DIRECTION('',(0.,0.,1.));
#1482=DIRECTION('center_axis',(0.,0.,1.));
#1483=DIRECTION('ref_axis',(0.999614123080366,-0.027777777777779,0.));
#1484=DIRECTION('center_axis',(0.,0.,-1.));
#1485=DIRECTION('ref_axis',(-0.999993311668237,0.00365740601970013,0.));
#1486=DIRECTION('',(0.,0.,-1.));
#1487=DIRECTION('center_axis',(0.,0.,-1.));
#1488=DIRECTION('ref_axis',(-0.999993311668237,0.00365740601970013,0.));
#1489=DIRECTION('center_axis',(-0.573576436351011,0.819152044289016,0.));
#1490=DIRECTION('ref_axis',(-0.819152044289016,-0.573576436351011,0.));
#1491=DIRECTION('',(0.,0.,-1.));
#1492=DIRECTION('',(-0.819152044289016,-0.573576436351011,0.));
#1493=DIRECTION('center_axis',(0.,0.,-1.));
#1494=DIRECTION('ref_axis',(-0.573576436351011,0.819152044289016,0.));
#1495=DIRECTION('',(0.,0.,-1.));
#1496=DIRECTION('center_axis',(0.,0.,-1.));
#1497=DIRECTION('ref_axis',(-0.573576436351011,0.819152044289016,0.));
#1498=DIRECTION('center_axis',(0.,0.,1.));
#1499=DIRECTION('ref_axis',(0.999614123080366,-0.027777777777779,0.));
#1500=DIRECTION('center_axis',(0.,0.,-1.));
#1501=DIRECTION('ref_axis',(0.,1.,0.));
#1502=DIRECTION('',(0.,0.,1.));
#1503=DIRECTION('center_axis',(0.,0.,1.));
#1504=DIRECTION('ref_axis',(0.0913917221928412,-0.995815019526532,0.));
#1505=DIRECTION('center_axis',(0.,0.,1.));
#1506=DIRECTION('ref_axis',(0.0913917221928412,-0.995815019526532,0.));
#1507=DIRECTION('center_axis',(0.,1.,0.));
#1508=DIRECTION('ref_axis',(1.,0.,0.));
#1509=DIRECTION('',(-1.,0.,0.));
#1510=DIRECTION('center_axis',(0.,1.,0.));
#1511=DIRECTION('ref_axis',(1.,0.,0.));
#1512=DIRECTION('',(1.,0.,0.));
#1513=DIRECTION('center_axis',(-1.,0.,0.));
#1514=DIRECTION('ref_axis',(0.,0.,-1.));
#1515=DIRECTION('',(0.,0.,1.));
#1516=DIRECTION('',(0.,-1.,0.));
#1517=DIRECTION('',(0.,-1.,0.));
#1518=DIRECTION('center_axis',(1.,0.,-5.55111512312578E-16));
#1519=DIRECTION('ref_axis',(5.55111512312578E-16,0.,1.));
#1520=DIRECTION('',(5.55111512312578E-16,0.,1.));
#1521=DIRECTION('',(0.,-1.,0.));
#1522=DIRECTION('',(0.,-1.,0.));
#1523=DIRECTION('center_axis',(0.,0.,-1.));
#1524=DIRECTION('ref_axis',(0.999348845012445,0.0360816570059016,0.));
#1525=DIRECTION('',(0.,0.,-1.));
#1526=DIRECTION('center_axis',(0.,0.,1.));
#1527=DIRECTION('ref_axis',(0.707106781186548,-0.707106781186548,0.));
#1528=DIRECTION('',(0.,0.,-1.));
#1529=DIRECTION('center_axis',(0.,0.,-1.));
#1530=DIRECTION('ref_axis',(0.999348845012446,0.0360816570058916,0.));
#1531=DIRECTION('center_axis',(-0.707106781186548,0.707106781186548,0.));
#1532=DIRECTION('ref_axis',(-0.707106781186548,-0.707106781186548,0.));
#1533=DIRECTION('',(0.,0.,-1.));
#1534=DIRECTION('',(-0.707106781186547,-0.707106781186547,0.));
#1535=DIRECTION('',(-0.707106781186547,-0.707106781186547,0.));
#1536=DIRECTION('center_axis',(0.,0.,-1.));
#1537=DIRECTION('ref_axis',(-0.707106781186548,-0.707106781186548,0.));
#1538=DIRECTION('center_axis',(0.,0.,-1.));
#1539=DIRECTION('ref_axis',(-0.707106781186548,-0.707106781186548,0.));
#1540=DIRECTION('',(0.,0.,-1.));
#1541=DIRECTION('center_axis',(0.,0.,1.));
#1542=DIRECTION('ref_axis',(-0.707106781186548,0.707106781186548,0.));
#1543=DIRECTION('center_axis',(-0.707106781186548,-0.707106781186548,0.));
#1544=DIRECTION('ref_axis',(-0.707106781186548,0.707106781186548,0.));
#1545=DIRECTION('center_axis',(-0.707106781186548,-0.707106781186548,0.));
#1546=DIRECTION('ref_axis',(-0.707106781186548,0.707106781186548,0.));
#1547=DIRECTION('',(0.,-1.,8.65956056235493E-17));
#1548=DIRECTION('center_axis',(-0.707106781186548,-0.707106781186548,0.));
#1549=DIRECTION('ref_axis',(-0.707106781186547,0.707106781186547,0.));
#1550=DIRECTION('center_axis',(-0.707106781186548,-0.707106781186548,0.));
#1551=DIRECTION('ref_axis',(0.707106781186548,-0.707106781186548,0.));
#1552=DIRECTION('',(0.707106781186547,-0.707106781186547,0.));
#1553=DIRECTION('',(0.,0.,1.));
#1554=DIRECTION('',(0.707106781186547,-0.707106781186547,0.));
#1555=DIRECTION('center_axis',(0.,0.,1.));
#1556=DIRECTION('ref_axis',(0.993558776937682,0.113317945490098,0.));
#1557=DIRECTION('',(0.,0.,1.));
#1558=DIRECTION('center_axis',(0.,0.,-1.));
#1559=DIRECTION('ref_axis',(0.707106781186548,0.707106781186548,0.));
#1560=DIRECTION('center_axis',(0.,0.,1.));
#1561=DIRECTION('ref_axis',(0.993558776937682,0.113317945490098,0.));
#1562=DIRECTION('center_axis',(0.,0.,1.));
#1563=DIRECTION('ref_axis',(0.,1.,0.));
#1564=DIRECTION('center_axis',(0.,0.,-1.));
#1565=DIRECTION('ref_axis',(-0.999614123080366,0.027777777777779,0.));
#1566=DIRECTION('',(0.,0.,1.));
#1567=DIRECTION('center_axis',(0.,0.,1.));
#1568=DIRECTION('ref_axis',(-0.927024810886964,0.374999999999985,0.));
#1569=DIRECTION('center_axis',(0.,0.,1.));
#1570=DIRECTION('ref_axis',(0.,1.,0.));
#1571=DIRECTION('',(0.,0.,-1.));
#1572=DIRECTION('center_axis',(0.,0.,1.));
#1573=DIRECTION('ref_axis',(0.999993311668237,-0.00365740601968513,0.));
#1574=DIRECTION('center_axis',(0.,0.,-1.));
#1575=DIRECTION('ref_axis',(0.993558776937682,0.113317945490098,0.));
#1576=DIRECTION('center_axis',(0.,0.,-1.));
#1577=DIRECTION('ref_axis',(0.999880920985693,0.0154319100827865,0.));
#1578=DIRECTION('center_axis',(0.,0.,1.));
#1579=DIRECTION('ref_axis',(0.999880920985693,0.0154319100827865,0.));
#1580=DIRECTION('center_axis',(0.,0.,-1.));
#1581=DIRECTION('ref_axis',(0.999880920985693,0.0154319100827865,0.));
#1582=DIRECTION('center_axis',(0.,0.,1.));
#1583=DIRECTION('ref_axis',(0.,1.,0.));
#1584=DIRECTION('center_axis',(0.,0.,1.));
#1585=DIRECTION('ref_axis',(1.,0.,0.));
#1586=DIRECTION('',(0.,0.,1.));
#1587=DIRECTION('center_axis',(0.,0.,-1.));
#1588=DIRECTION('ref_axis',(1.,0.,0.));
#1589=DIRECTION('center_axis',(0.94520550916158,-0.326475949268241,0.));
#1590=DIRECTION('ref_axis',(-0.326475949268241,-0.94520550916158,0.));
#1591=DIRECTION('',(-0.326475949268241,-0.94520550916158,0.));
#1592=DIRECTION('',(-0.326475949268241,-0.94520550916158,0.));
#1593=DIRECTION('',(0.,0.,1.));
#1594=DIRECTION('center_axis',(-0.933924122948942,0.357471303147607,0.));
#1595=DIRECTION('ref_axis',(0.357471303147607,0.933924122948942,0.));
#1596=DIRECTION('',(-0.357471303147607,-0.933924122948942,0.));
#1597=DIRECTION('',(0.,0.,1.));
#1598=DIRECTION('',(0.357471303147607,0.933924122948942,0.));
#1599=DIRECTION('',(0.,0.,1.));
#1600=DIRECTION('center_axis',(0.,0.,-1.));
#1601=DIRECTION('ref_axis',(0.,1.,0.));
#1602=DIRECTION('center_axis',(0.,0.,-1.));
#1603=DIRECTION('ref_axis',(0.898749620280579,-0.438462221913718,0.));
#1604=DIRECTION('center_axis',(0.,0.,1.));
#1605=DIRECTION('ref_axis',(-0.898749620280579,0.438462221913718,0.));
#1606=DIRECTION('',(0.788010753606728,0.615661475325651,0.));
#1607=DIRECTION('center_axis',(0.,0.,1.));
#1608=DIRECTION('ref_axis',(0.615661475325651,-0.788010753606728,0.));
#1609=DIRECTION('center_axis',(0.,0.,-1.));
#1610=DIRECTION('ref_axis',(-0.999992408809688,-0.00389645005082508,0.));
#1611=DIRECTION('center_axis',(0.,0.,1.));
#1612=DIRECTION('ref_axis',(1.,0.,0.));
#1613=DIRECTION('center_axis',(0.,0.,1.));
#1614=DIRECTION('ref_axis',(0.,1.,0.));
#1615=DIRECTION('center_axis',(-0.707106781186548,-0.707106781186548,0.));
#1616=DIRECTION('ref_axis',(-0.707106781186548,0.707106781186548,0.));
#1617=DIRECTION('',(-0.707106781186548,-0.707106781186548,0.));
#1618=DIRECTION('center_axis',(0.,0.,1.));
#1619=DIRECTION('ref_axis',(0.,1.,0.));
#1620=DIRECTION('center_axis',(0.,0.,-1.));
#1621=DIRECTION('ref_axis',(1.,0.,0.));
#1622=DIRECTION('center_axis',(0.,0.,1.));
#1623=DIRECTION('ref_axis',(0.,1.,0.));
#1624=DIRECTION('',(0.,0.,1.));
#1625=DIRECTION('center_axis',(0.,0.,1.));
#1626=DIRECTION('ref_axis',(0.,1.,0.));
#1627=DIRECTION('center_axis',(0.,0.,-1.));
#1628=DIRECTION('ref_axis',(0.,1.,0.));
#1629=DIRECTION('center_axis',(0.,0.,1.));
#1630=DIRECTION('ref_axis',(-0.926365147789478,0.376626622745895,0.));
#1631=DIRECTION('center_axis',(0.,0.,-1.));
#1632=DIRECTION('ref_axis',(0.926365147789478,-0.376626622745895,0.));
#1633=DIRECTION('',(0.788010753606728,0.615661475325651,0.));
#1634=DIRECTION('center_axis',(0.,0.,-1.));
#1635=DIRECTION('ref_axis',(0.615661475325651,-0.788010753606728,0.));
#1636=DIRECTION('center_axis',(0.,0.,1.));
#1637=DIRECTION('ref_axis',(0.763534038115383,-0.645767584072797,0.));
#1638=DIRECTION('center_axis',(0.,0.,1.));
#1639=DIRECTION('ref_axis',(-0.0871557427476582,0.996194698091746,0.));
#1640=DIRECTION('',(0.,0.,-1.));
#1641=DIRECTION('',(0.,0.,-1.));
#1642=DIRECTION('center_axis',(0.,0.,-1.));
#1643=DIRECTION('ref_axis',(-0.926365147789478,0.376626622745895,0.));
#1644=DIRECTION('',(0.,0.,1.));
#1645=DIRECTION('center_axis',(0.,0.,1.));
#1646=DIRECTION('ref_axis',(-0.763534038115383,0.645767584072797,0.));
#1647=DIRECTION('',(0.,0.,1.));
#1648=DIRECTION('center_axis',(0.,0.,-1.));
#1649=DIRECTION('ref_axis',(-0.871032328039927,0.49122569508256,0.));
#1650=DIRECTION('',(0.,0.,1.));
#1651=DIRECTION('center_axis',(0.,0.,-1.));
#1652=DIRECTION('ref_axis',(-0.926365147789478,0.376626622745895,0.));
#1653=DIRECTION('center_axis',(0.,0.,-1.));
#1654=DIRECTION('ref_axis',(0.926365147789478,-0.376626622745895,0.));
#1655=DIRECTION('',(0.,0.,-1.));
#1656=DIRECTION('center_axis',(0.,0.,1.));
#1657=DIRECTION('ref_axis',(0.615661475325651,-0.788010753606728,0.));
#1658=DIRECTION('center_axis',(0.615661475325651,-0.788010753606728,0.));
#1659=DIRECTION('ref_axis',(0.788010753606728,0.615661475325651,0.));
#1660=DIRECTION('',(0.788010753606728,0.615661475325651,0.));
#1661=DIRECTION('',(0.,0.,1.));
#1662=DIRECTION('center_axis',(0.,0.,1.));
#1663=DIRECTION('ref_axis',(-0.898749620280579,0.438462221913718,0.));
#1664=DIRECTION('center_axis',(0.,0.,1.));
#1665=DIRECTION('ref_axis',(-0.898749620280579,0.438462221913718,0.));
#1666=DIRECTION('',(0.,0.,1.));
#1667=DIRECTION('center_axis',(0.,0.,1.));
#1668=DIRECTION('ref_axis',(-0.0871557427476582,0.996194698091746,0.));
#1669=DIRECTION('center_axis',(0.,0.,1.));
#1670=DIRECTION('ref_axis',(0.763534038115383,-0.645767584072796,0.));
#1671=DIRECTION('center_axis',(0.,0.,-1.));
#1672=DIRECTION('ref_axis',(0.999992408809688,0.00389645005081514,0.));
#1673=DIRECTION('center_axis',(0.,0.,1.));
#1674=DIRECTION('ref_axis',(-0.0871557427476582,0.996194698091746,0.));
#1675=DIRECTION('center_axis',(0.,0.,1.));
#1676=DIRECTION('ref_axis',(-0.0871557427476582,0.996194698091746,0.));
#1677=DIRECTION('center_axis',(0.,0.,1.));
#1678=DIRECTION('ref_axis',(-0.0871557427476582,0.996194698091746,0.));
#1679=DIRECTION('',(0.,0.,1.));
#1680=DIRECTION('center_axis',(0.,0.,1.));
#1681=DIRECTION('ref_axis',(-0.0871557427476582,0.996194698091746,0.));
#1682=DIRECTION('center_axis',(0.,0.,1.));
#1683=DIRECTION('ref_axis',(-0.0871557427476582,0.996194698091746,0.));
#1684=DIRECTION('center_axis',(0.,0.,1.));
#1685=DIRECTION('ref_axis',(-0.0871557427476582,0.996194698091746,0.));
#1686=DIRECTION('',(0.,0.,1.));
#1687=DIRECTION('center_axis',(0.,0.,1.));
#1688=DIRECTION('ref_axis',(-0.0871557427476582,0.996194698091746,0.));
#1689=DIRECTION('center_axis',(0.,0.,1.));
#1690=DIRECTION('ref_axis',(0.763534038115383,-0.645767584072796,0.));
#1691=DIRECTION('center_axis',(0.,0.,1.));
#1692=DIRECTION('ref_axis',(0.955683909032173,-0.294394745226514,0.));
#1693=DIRECTION('center_axis',(0.,0.,-1.));
#1694=DIRECTION('ref_axis',(-0.955683909032173,0.294394745226515,0.));
#1695=DIRECTION('',(0.866025403784449,0.499999999999982,0.));
#1696=DIRECTION('center_axis',(0.,0.,-1.));
#1697=DIRECTION('ref_axis',(-0.499999999999982,0.866025403784449,0.));
#1698=DIRECTION('center_axis',(0.,0.,1.));
#1699=DIRECTION('ref_axis',(-0.0871557427476582,0.996194698091746,0.));
#1700=DIRECTION('center_axis',(0.,0.,-1.));
#1701=DIRECTION('ref_axis',(0.926365147789478,-0.376626622745895,0.));
#1702=DIRECTION('',(0.788010753606728,0.615661475325651,0.));
#1703=DIRECTION('center_axis',(0.,0.,-1.));
#1704=DIRECTION('ref_axis',(0.615661475325651,-0.788010753606728,0.));
#1705=DIRECTION('center_axis',(0.,0.,-1.));
#1706=DIRECTION('ref_axis',(0.999992408809688,0.00389645005081514,0.));
#1707=DIRECTION('center_axis',(0.,0.,-1.));
#1708=DIRECTION('ref_axis',(-0.999992408809688,-0.00389645005080515,0.));
#1709=DIRECTION('center_axis',(0.,0.,-1.));
#1710=DIRECTION('ref_axis',(0.926365147789478,-0.376626622745895,0.));
#1711=DIRECTION('',(0.,0.,-1.));
#1712=DIRECTION('center_axis',(-0.615661475325651,0.788010753606728,0.));
#1713=DIRECTION('ref_axis',(0.788010753606728,0.615661475325651,0.));
#1714=DIRECTION('',(0.,0.,1.));
#1715=DIRECTION('center_axis',(0.,0.,1.));
#1716=DIRECTION('ref_axis',(-0.898749620280579,0.438462221913718,0.));
#1717=DIRECTION('',(0.,0.,1.));
#1718=DIRECTION('center_axis',(0.,0.,1.));
#1719=DIRECTION('ref_axis',(-0.0871557427476582,0.996194698091746,0.));
#1720=DIRECTION('center_axis',(0.,0.,-1.));
#1721=DIRECTION('ref_axis',(0.999992408809688,0.00389645005081514,0.));
#1722=DIRECTION('',(0.,0.,-1.));
#1723=DIRECTION('',(0.,0.,1.));
#1724=DIRECTION('',(0.,0.,1.));
#1725=DIRECTION('center_axis',(0.,0.,1.));
#1726=DIRECTION('ref_axis',(-0.0871557427476582,0.996194698091746,0.));
#1727=DIRECTION('',(0.866025403784449,0.499999999999982,0.));
#1728=DIRECTION('center_axis',(0.,0.,1.));
#1729=DIRECTION('ref_axis',(-0.499999999999982,0.866025403784449,0.));
#1730=DIRECTION('center_axis',(0.,0.,1.));
#1731=DIRECTION('ref_axis',(0.763534038115383,-0.645767584072796,0.));
#1732=DIRECTION('center_axis',(0.,0.,1.));
#1733=DIRECTION('ref_axis',(0.871032328039927,-0.49122569508256,0.));
#1734=DIRECTION('center_axis',(0.499999999999982,-0.866025403784449,0.));
#1735=DIRECTION('ref_axis',(0.866025403784449,0.499999999999982,0.));
#1736=DIRECTION('',(0.,0.,1.));
#1737=DIRECTION('',(0.,0.,-1.));
#1738=DIRECTION('center_axis',(0.,0.,1.));
#1739=DIRECTION('ref_axis',(0.871032328039927,-0.49122569508256,0.));
#1740=DIRECTION('center_axis',(0.,0.,-1.));
#1741=DIRECTION('ref_axis',(-0.955683909032173,0.294394745226515,0.));
#1742=DIRECTION('center_axis',(0.,0.,1.));
#1743=DIRECTION('ref_axis',(-0.0871557427476582,0.996194698091746,0.));
#1744=DIRECTION('center_axis',(0.,0.,1.));
#1745=DIRECTION('ref_axis',(-0.0871557427476582,0.996194698091746,0.));
#1746=CARTESIAN_POINT('',(0.,0.,0.));
#1747=CARTESIAN_POINT('Origin',(-73.4846922835,-3.,10.5));
#1748=CARTESIAN_POINT('',(-3.51326954535638,-1.,-4.));
#1749=CARTESIAN_POINT('',(-3.51326954535638,-1.,4.));
#1750=CARTESIAN_POINT('',(-3.51326954535639,-1.,10.5));
#1751=CARTESIAN_POINT('',(-3.485160466719,-3.25601842138,-4.));
#1752=CARTESIAN_POINT('Origin',(-73.4846922835,-3.,-4.));
#1753=CARTESIAN_POINT('',(-3.485160466719,-3.25601842138,-10.5));
#1754=CARTESIAN_POINT('',(-3.485160466719,-3.25601842138,-4.));
#1755=CARTESIAN_POINT('',(-4.898979485566,-17.,-10.5));
#1756=CARTESIAN_POINT('Origin',(-73.4846922835,-3.,-10.5));
#1757=CARTESIAN_POINT('',(-4.898979485566,-17.,-5.6));
#1758=CARTESIAN_POINT('',(-4.898979485566,-17.,-10.5));
#1759=CARTESIAN_POINT('',(-3.815194752852,-9.794197070125,-5.6));
#1760=CARTESIAN_POINT('Origin',(-73.4846922835,-3.,-5.6));
#1761=CARTESIAN_POINT('',(-3.815194752852,-9.794197070125,5.6));
#1762=CARTESIAN_POINT('',(-3.815194752852,-9.794197070125,-5.6));
#1763=CARTESIAN_POINT('',(-4.898979485566,-17.,5.6));
#1764=CARTESIAN_POINT('Origin',(-73.4846922835,-3.,5.6));
#1765=CARTESIAN_POINT('',(-4.898979485566,-17.,10.5));
#1766=CARTESIAN_POINT('',(-4.898979485566,-17.,5.6));
#1767=CARTESIAN_POINT('',(-3.485160466719,-3.25601842138,10.5));
#1768=CARTESIAN_POINT('Origin',(-73.4846922835,-3.,10.5));
#1769=CARTESIAN_POINT('',(-3.485160466719,-3.25601842138,4.));
#1770=CARTESIAN_POINT('',(-3.485160466719,-3.25601842138,10.5));
#1771=CARTESIAN_POINT('Origin',(-73.4846922835,-3.,4.));
#1772=CARTESIAN_POINT('Origin',(0.,-18.,10.5));
#1773=CARTESIAN_POINT('',(-3.058743591402,-2.44052378311,10.5));
#1774=CARTESIAN_POINT('Origin',(-2.485167155051,-3.2596758274,10.5));
#1775=CARTESIAN_POINT('',(4.635124054435,-16.125,10.5));
#1776=CARTESIAN_POINT('Origin',(0.,-18.,10.5));
#1777=CARTESIAN_POINT('',(2.094498127666,-2.02777777778,10.5));
#1778=CARTESIAN_POINT('Origin',(37.08099243548,-3.,10.5));
#1779=CARTESIAN_POINT('',(1.094884004585,-1.,10.5));
#1780=CARTESIAN_POINT('Origin',(1.094884004585,-2.,10.5));
#1781=CARTESIAN_POINT('',(-0.6861636330114,-1.,10.5));
#1782=CARTESIAN_POINT('',(-0.6861636330114,-1.,10.5));
#1783=CARTESIAN_POINT('',(-1.259740069362,-1.18084795571,10.5));
#1784=CARTESIAN_POINT('Origin',(-0.6861636330114,-2.,10.5));
#1785=CARTESIAN_POINT('',(-1.259740069362,-1.18084795571,10.5));
#1786=CARTESIAN_POINT('',(0.,-20.5,10.5));
#1787=CARTESIAN_POINT('Origin',(0.,-18.,10.5));
#1788=CARTESIAN_POINT('Origin',(0.,-18.,-10.5));
#1789=CARTESIAN_POINT('',(-3.058743591402,-2.44052378311,-10.5));
#1790=CARTESIAN_POINT('Origin',(-2.485167155051,-3.2596758274,-10.5));
#1791=CARTESIAN_POINT('',(-1.259740069362,-1.18084795571,-10.5));
#1792=CARTESIAN_POINT('',(-1.259740069362,-1.18084795571,-10.5));
#1793=CARTESIAN_POINT('',(-0.6861636330114,-1.,-10.5));
#1794=CARTESIAN_POINT('Origin',(-0.6861636330114,-2.,-10.5));
#1795=CARTESIAN_POINT('',(1.094884004585,-1.,-10.5));
#1796=CARTESIAN_POINT('',(-0.6861636330114,-1.,-10.5));
#1797=CARTESIAN_POINT('',(2.094498127666,-2.02777777778,-10.5));
#1798=CARTESIAN_POINT('Origin',(1.094884004585,-2.,-10.5));
#1799=CARTESIAN_POINT('',(4.635124054435,-16.125,-10.5));
#1800=CARTESIAN_POINT('Origin',(37.08099243548,-3.,-10.5));
#1801=CARTESIAN_POINT('Origin',(0.,-18.,-10.5));
#1802=CARTESIAN_POINT('',(3.06161699786838E-16,-20.5,-10.5));
#1803=CARTESIAN_POINT('Origin',(0.,-18.,-10.5));
#1804=CARTESIAN_POINT('Origin',(0.,-18.,10.5));
#1805=CARTESIAN_POINT('',(3.06161699786838E-16,-20.5,-5.6));
#1806=CARTESIAN_POINT('',(3.06161699786838E-16,-20.5,10.5));
#1807=CARTESIAN_POINT('Origin',(0.,-18.,-5.6));
#1808=CARTESIAN_POINT('Origin',(0.,-18.,10.5));
#1809=CARTESIAN_POINT('',(0.,-20.5,5.6));
#1810=CARTESIAN_POINT('Origin',(0.,-18.,5.6));
#1811=CARTESIAN_POINT('',(3.06161699786838E-16,-20.5,10.5));
#1812=CARTESIAN_POINT('Origin',(0.,-18.,-5.6));
#1813=CARTESIAN_POINT('',(1.718392910798,-8.541880618145,-5.6));
#1814=CARTESIAN_POINT('',(-3.146545413113,-10.31257335959,-5.6));
#1815=CARTESIAN_POINT('',(1.718392910798,-8.541880618145,-5.6));
#1816=CARTESIAN_POINT('Origin',(-3.317555484776,-9.842727049197,-5.6));
#1817=CARTESIAN_POINT('',(4.635124054435,-16.125,-5.6));
#1818=CARTESIAN_POINT('Origin',(0.,-18.,-5.6));
#1819=CARTESIAN_POINT('',(2.36816775825,-7.47434944188,-5.6));
#1820=CARTESIAN_POINT('Origin',(37.08099243548,-3.,-5.6));
#1821=CARTESIAN_POINT('Origin',(1.376372767472,-7.60218799736,-5.6));
#1822=CARTESIAN_POINT('Origin',(0.,-18.,5.6));
#1823=CARTESIAN_POINT('',(4.635124054435,-16.125,5.6));
#1824=CARTESIAN_POINT('',(2.36816775825,-7.47434944188,5.6));
#1825=CARTESIAN_POINT('Origin',(37.08099243548,-3.,5.6));
#1826=CARTESIAN_POINT('Origin',(0.,-18.,5.6));
#1827=CARTESIAN_POINT('',(-3.146545413113,-10.31257335959,5.6));
#1828=CARTESIAN_POINT('Origin',(-3.317555484776,-9.842727049197,5.6));
#1829=CARTESIAN_POINT('',(1.718392910798,-8.541880618145,5.6));
#1830=CARTESIAN_POINT('',(1.718392910798,-8.541880618145,5.6));
#1831=CARTESIAN_POINT('Origin',(1.376372767472,-7.60218799736,5.6));
#1832=CARTESIAN_POINT('Origin',(37.08099243548,-3.,10.5));
#1833=CARTESIAN_POINT('',(2.13818201616771,-1.,4.));
#1834=CARTESIAN_POINT('',(2.1381820161677,-1.,-4.));
#1835=CARTESIAN_POINT('',(2.13818201616771,-1.,10.5));
#1836=CARTESIAN_POINT('',(2.094498127666,-2.02777777778,4.));
#1837=CARTESIAN_POINT('Origin',(37.08099243548,-3.,4.));
#1838=CARTESIAN_POINT('',(2.094498127666,-2.02777777778,4.));
#1839=CARTESIAN_POINT('',(4.635124054435,-16.125,5.6));
#1840=CARTESIAN_POINT('',(2.36816775825,-7.47434944188,5.6));
#1841=CARTESIAN_POINT('',(4.635124054435,-16.125,-10.5));
#1842=CARTESIAN_POINT('',(2.094498127666,-2.02777777778,-4.));
#1843=CARTESIAN_POINT('',(2.094498127666,-2.02777777778,-10.5));
#1844=CARTESIAN_POINT('Origin',(37.08099243548,-3.,-4.));
#1845=CARTESIAN_POINT('Origin',(1.376372767472,-7.60218799736,37.8756));
#1846=CARTESIAN_POINT('',(1.718392910798,-8.541880618145,5.6));
#1847=CARTESIAN_POINT('Origin',(5.,-7.34747331712,-5.6));
#1848=CARTESIAN_POINT('',(-3.146545413113,-10.31257335959,-5.6));
#1849=CARTESIAN_POINT('Origin',(-3.317555484776,-9.842727049197,-37.8756));
#1850=CARTESIAN_POINT('Origin',(-2.485167155051,-3.2596758274,37.8756));
#1851=CARTESIAN_POINT('',(-3.058743591402,-2.44052378311,-4.));
#1852=CARTESIAN_POINT('Origin',(-2.485167155051,-3.2596758274,-4.));
#1853=CARTESIAN_POINT('',(-3.058743591402,-2.44052378311,-4.));
#1854=CARTESIAN_POINT('Origin',(379.174239977,265.2018926639,-10.5));
#1855=CARTESIAN_POINT('',(-1.259740069362,-1.18084795571,-4.));
#1856=CARTESIAN_POINT('',(-1.259740069362,-1.18084795571,-4.));
#1857=CARTESIAN_POINT('',(-1.259740069362,-1.18084795571,-4.));
#1858=CARTESIAN_POINT('Origin',(-0.6861636330114,-2.,37.8756));
#1859=CARTESIAN_POINT('',(-0.6861636330114,-1.,-4.));
#1860=CARTESIAN_POINT('Origin',(-0.6861636330114,-2.,-4.));
#1861=CARTESIAN_POINT('',(-0.6861636330114,-1.,-4.));
#1862=CARTESIAN_POINT('Origin',(1.094884004585,-2.,-37.8756));
#1863=CARTESIAN_POINT('',(1.094884004585,-1.,-4.));
#1864=CARTESIAN_POINT('',(1.094884004585,-1.,-10.5));
#1865=CARTESIAN_POINT('Origin',(1.094884004585,-2.,-4.));
#1866=CARTESIAN_POINT('Origin',(-2.485167155051,-3.2596758274,37.8756));
#1867=CARTESIAN_POINT('',(-3.058743591402,-2.44052378311,4.));
#1868=CARTESIAN_POINT('',(-3.058743591402,-2.44052378311,10.5));
#1869=CARTESIAN_POINT('Origin',(-2.485167155051,-3.2596758274,4.));
#1870=CARTESIAN_POINT('Origin',(379.174239977,265.2018926639,10.5));
#1871=CARTESIAN_POINT('',(-1.259740069362,-1.18084795571,4.));
#1872=CARTESIAN_POINT('',(-1.259740069362,-1.18084795571,10.5));
#1873=CARTESIAN_POINT('',(-1.259740069362,-1.18084795571,4.));
#1874=CARTESIAN_POINT('Origin',(-0.6861636330114,-2.,37.8756));
#1875=CARTESIAN_POINT('',(-0.6861636330114,-1.,4.));
#1876=CARTESIAN_POINT('',(-0.6861636330114,-1.,10.5));
#1877=CARTESIAN_POINT('Origin',(-0.6861636330114,-2.,4.));
#1878=CARTESIAN_POINT('Origin',(1.094884004585,-2.,-37.8756));
#1879=CARTESIAN_POINT('',(1.094884004585,-1.,4.));
#1880=CARTESIAN_POINT('Origin',(1.094884004585,-2.,4.));
#1881=CARTESIAN_POINT('',(1.094884004585,-1.,4.));
#1882=CARTESIAN_POINT('Origin',(0.,-18.,10.5));
#1883=CARTESIAN_POINT('Origin',(0.,-18.,10.5));
#1884=CARTESIAN_POINT('Origin',(-3.619872919644,-1.,4.));
#1885=CARTESIAN_POINT('',(-0.740845451738147,-1.,4.));
#1886=CARTESIAN_POINT('Origin',(-3.619872919644,-1.,4.));
#1887=CARTESIAN_POINT('',(-3.56657123250019,-1.,-4.));
#1888=CARTESIAN_POINT('Origin',(-3.51326954535638,17.,4.));
#1889=CARTESIAN_POINT('',(-3.51326954535638,16.8516086959374,-4.));
#1890=CARTESIAN_POINT('',(-3.51326954535638,16.8516086959374,4.));
#1891=CARTESIAN_POINT('',(-3.51326954535638,16.8516086959374,10.5));
#1892=CARTESIAN_POINT('',(-3.51326954535638,17.,-4.));
#1893=CARTESIAN_POINT('',(-3.51326954535638,17.,4.));
#1894=CARTESIAN_POINT('Origin',(2.1381820161677,17.,-4.));
#1895=CARTESIAN_POINT('',(2.1381820161677,17.,-4.));
#1896=CARTESIAN_POINT('',(2.13818201616771,17.,4.));
#1897=CARTESIAN_POINT('',(2.1381820161677,17.,-4.));
#1898=CARTESIAN_POINT('',(2.13818201616771,17.,4.));
#1899=CARTESIAN_POINT('',(2.1381820161677,17.,-4.));
#1900=CARTESIAN_POINT('Origin',(-5.996093070075,29.78351005796,37.8756));
#1901=CARTESIAN_POINT('',(-4.996744225062,29.81959171497,4.));
#1902=CARTESIAN_POINT('',(-4.996744225062,29.81959171497,-4.));
#1903=CARTESIAN_POINT('',(-4.99674422506258,29.8195917149667,37.8756));
#1904=CARTESIAN_POINT('',(-5.288986288888,29.07640327678,-4.));
#1905=CARTESIAN_POINT('Origin',(-5.996093070075,29.78351005796,-4.));
#1906=CARTESIAN_POINT('',(-5.288986288888,29.07640327678,4.));
#1907=CARTESIAN_POINT('',(-5.288986288888,29.07640327678,4.));
#1908=CARTESIAN_POINT('Origin',(-5.996093070075,29.78351005796,4.));
#1909=CARTESIAN_POINT('Origin',(-4.964033216932,29.40135634873,-4.));
#1910=CARTESIAN_POINT('',(-6.82358043845,27.54180912722,4.));
#1911=CARTESIAN_POINT('',(-6.82358043845,27.54180912722,-4.));
#1912=CARTESIAN_POINT('',(-6.82358043845,27.54180912722,4.));
#1913=CARTESIAN_POINT('',(-5.288986288888,29.07640327678,4.));
#1914=CARTESIAN_POINT('',(-5.288986288888,29.07640327678,-4.));
#1915=CARTESIAN_POINT('Origin',(-6.116473657264,26.83470234603,37.8756));
#1916=CARTESIAN_POINT('',(-6.82358043845,26.12759556484,-4.));
#1917=CARTESIAN_POINT('Origin',(-6.116473657264,26.83470234603,-4.));
#1918=CARTESIAN_POINT('',(-6.82358043845,26.12759556484,4.));
#1919=CARTESIAN_POINT('',(-6.82358043845,26.12759556484,4.));
#1920=CARTESIAN_POINT('Origin',(-6.116473657264,26.83470234603,4.));
#1921=CARTESIAN_POINT('Origin',(-5.259604089155,24.74039591084,0.));
#1922=CARTESIAN_POINT('',(-4.2873322650235,23.9449007820068,1.53080849893274E-16));
#1923=CARTESIAN_POINT('Origin',(-5.171215741507,24.82878425849,0.));
#1924=CARTESIAN_POINT('',(-4.2873322650235,23.5913473914112,1.83697019872162E-16));
#1925=CARTESIAN_POINT('',(-4.2873322650235,23.7681240867085,1.68388934882761E-16));
#1926=CARTESIAN_POINT('Origin',(-5.347992436804,24.6520075632,0.));
#1927=CARTESIAN_POINT('Origin',(-7.530687219637,26.83470234603,-4.));
#1928=CARTESIAN_POINT('',(-4.222029893608,23.52604502,-4.));
#1929=CARTESIAN_POINT('',(-6.82358043845,26.12759556484,-4.));
#1930=CARTESIAN_POINT('',(-4.222029893608,23.52604502,4.));
#1931=CARTESIAN_POINT('',(-4.222029893608,23.52604502,-4.));
#1932=CARTESIAN_POINT('',(-6.82358043845,26.12759556484,4.));
#1933=CARTESIAN_POINT('Origin',(-4.929136674795,22.81893823881,-37.8756));
#1934=CARTESIAN_POINT('',(-3.935577897857,22.9322561843,-4.));
#1935=CARTESIAN_POINT('',(-3.935577897857,22.9322561843,4.));
#1936=CARTESIAN_POINT('',(-3.935577897857,22.9322561843,-4.));
#1937=CARTESIAN_POINT('Origin',(-4.929136674795,22.81893823881,4.));
#1938=CARTESIAN_POINT('Origin',(-4.929136674795,22.81893823881,-4.));
#1939=CARTESIAN_POINT('Origin',(37.08099243548,15.,10.5));
#1940=CARTESIAN_POINT('',(4.635124054435,28.125,-4.));
#1941=CARTESIAN_POINT('Origin',(37.08099243548,15.,-4.));
#1942=CARTESIAN_POINT('',(4.635124054435,28.125,4.));
#1943=CARTESIAN_POINT('',(4.63512405443627,28.1249999999995,10.5));
#1944=CARTESIAN_POINT('Origin',(37.08099243548,15.,4.));
#1945=CARTESIAN_POINT('Origin',(-73.4846922835,15.,10.5));
#1946=CARTESIAN_POINT('',(-3.51803242233244,17.1602101452603,4.));
#1947=CARTESIAN_POINT('',(-3.51803242233244,17.1602101452603,-4.));
#1948=CARTESIAN_POINT('',(-3.51803242233244,17.1602101452603,10.5));
#1949=CARTESIAN_POINT('Origin',(-73.4846922835,15.,4.));
#1950=CARTESIAN_POINT('Origin',(-73.4846922835,15.,-4.));
#1951=CARTESIAN_POINT('Origin',(-13.5132695453564,16.8516086959374,10.5));
#1952=CARTESIAN_POINT('Origin',(-13.5132695453564,16.8516086959374,4.));
#1953=CARTESIAN_POINT('Origin',(-13.5132695453564,16.8516086959374,-4.));
#1954=CARTESIAN_POINT('Origin',(0.,30.,10.5));
#1955=CARTESIAN_POINT('',(4.72602754580359,28.3676202536603,-4.));
#1956=CARTESIAN_POINT('Origin',(0.,30.,-4.));
#1957=CARTESIAN_POINT('',(4.72602754580359,28.3676202536603,4.));
#1958=CARTESIAN_POINT('',(4.72602754580359,28.3676202536603,10.5));
#1959=CARTESIAN_POINT('Origin',(0.,30.,4.));
#1960=CARTESIAN_POINT('Origin',(10.8143044805802,45.9942568036136,4.));
#1961=CARTESIAN_POINT('',(10.8143044805846,45.9942568036136,4.));
#1962=CARTESIAN_POINT('',(10.8143044805802,45.9942568036136,4.));
#1963=CARTESIAN_POINT('',(10.8143044805846,45.9942568036136,-4.));
#1964=CARTESIAN_POINT('',(10.8143044805802,45.9942568036136,-4.));
#1965=CARTESIAN_POINT('',(10.8143044805846,45.9942568036136,-4.));
#1966=CARTESIAN_POINT('Origin',(-4.66962061474045,31.7873565157364,4.));
#1967=CARTESIAN_POINT('',(1.99667224595891,49.2036124737249,4.));
#1968=CARTESIAN_POINT('',(-4.66962061474045,31.7873565157364,4.));
#1969=CARTESIAN_POINT('',(1.99667224596293,49.2036124737215,4.));
#1970=CARTESIAN_POINT('',(1.99667224595891,49.2036124737249,-4.));
#1971=CARTESIAN_POINT('',(1.99667224595891,49.2036124737249,-4.));
#1972=CARTESIAN_POINT('',(-4.66962061474045,31.7873565157364,-4.));
#1973=CARTESIAN_POINT('',(1.99667224596293,49.2036124737215,-4.));
#1974=CARTESIAN_POINT('',(-4.66962061474045,31.7873565157364,10.5));
#1975=CARTESIAN_POINT('Origin',(0.,-18.,-4.));
#1976=CARTESIAN_POINT('',(6.79682541282364,56.5629528303681,-4.));
#1977=CARTESIAN_POINT('Origin',(-25.1087861071348,72.1283617083039,-4.));
#1978=CARTESIAN_POINT('',(8.31123650842912,55.3364798548467,-4.));
#1979=CARTESIAN_POINT('Origin',(7.69557503310309,56.124490608458,-4.));
#1980=CARTESIAN_POINT('',(13.1173685743394,59.0914417570363,-4.));
#1981=CARTESIAN_POINT('',(8.31123650842912,55.3364798548467,-4.));
#1982=CARTESIAN_POINT('',(13.4280722468028,59.5028258879025,-4.));
#1983=CARTESIAN_POINT('Origin',(12.5017070990133,59.8794525106476,-4.));
#1984=CARTESIAN_POINT('Origin',(46.3140349933272,46.1325807804163,-4.));
#1985=CARTESIAN_POINT('Origin',(0.,30.,-4.));
#1986=CARTESIAN_POINT('',(0.,27.5,-4.));
#1987=CARTESIAN_POINT('Origin',(0.,30.,-4.));
#1988=CARTESIAN_POINT('Origin',(-1.588755678775,28.41124432123,0.));
#1989=CARTESIAN_POINT('',(-2.41481456572372,29.3529523872476,1.94180647762591E-7));
#1990=CARTESIAN_POINT('',(-0.647047602586116,27.5851854444525,1.53080849893419E-16));
#1991=CARTESIAN_POINT('Ctrl Pts',(-2.41481456572373,29.3529523872476,-3.46944695195361E-17));
#1992=CARTESIAN_POINT('Ctrl Pts',(-2.41481456572373,29.3529523872476,-0.160381333700626));
#1993=CARTESIAN_POINT('Ctrl Pts',(-2.4056753987211,29.3159273534922,-0.328923251579114));
#1994=CARTESIAN_POINT('Ctrl Pts',(-2.36211205409631,29.1780172674559,-0.635727949384754));
#1995=CARTESIAN_POINT('Ctrl Pts',(-2.326784622317,29.0781584663355,-0.774322167802529));
#1996=CARTESIAN_POINT('Ctrl Pts',(-2.2305358849445,28.8649434088074,-0.993146115708484));
#1997=CARTESIAN_POINT('Ctrl Pts',(-2.16286781595582,28.736467283871,-1.08895634990568));
#1998=CARTESIAN_POINT('Ctrl Pts',(-1.98832862278879,28.4764969921108,-1.21745488233639));
#1999=CARTESIAN_POINT('Ctrl Pts',(-1.88086452934715,28.3453306234147,-1.25));
#2000=CARTESIAN_POINT('Ctrl Pts',(-1.65466937659066,28.1191354706576,-1.25));
#2001=CARTESIAN_POINT('Ctrl Pts',(-1.52350300789501,28.0116713772156,-1.21745488233643));
#2002=CARTESIAN_POINT('Ctrl Pts',(-1.26353271613551,27.837132184048,-1.08895634990577));
#2003=CARTESIAN_POINT('Ctrl Pts',(-1.13505659119934,27.7694641150589,-0.993146115708597));
#2004=CARTESIAN_POINT('Ctrl Pts',(-0.921841533671722,27.6732153776859,-0.774322167802624));
#2005=CARTESIAN_POINT('Ctrl Pts',(-0.821982732551501,27.6378879459063,-0.635727949384802));
#2006=CARTESIAN_POINT('Ctrl Pts',(-0.68407264651553,27.5943246012811,-0.328923251579101));
#2007=CARTESIAN_POINT('Ctrl Pts',(-0.647047612760247,27.5851854342784,-0.160381333700602));
#2008=CARTESIAN_POINT('Ctrl Pts',(-0.647047612760247,27.5851854342784,5.20417042793042E-17));
#2009=CARTESIAN_POINT('Ctrl Pts',(-0.647047612760248,27.5851854342784,1.56125112837913E-16));
#2010=CARTESIAN_POINT('Ctrl Pts',(-0.647047612760248,27.5851854342784,0.160381333700602));
#2011=CARTESIAN_POINT('Ctrl Pts',(-0.68407264651553,27.5943246012811,0.328923251579102));
#2012=CARTESIAN_POINT('Ctrl Pts',(-0.821982732551502,27.6378879459063,0.635727949384803));
#2013=CARTESIAN_POINT('Ctrl Pts',(-0.921841533671722,27.6732153776859,0.774322167802625));
#2014=CARTESIAN_POINT('Ctrl Pts',(-1.13505659119934,27.7694641150589,0.993146115708598));
#2015=CARTESIAN_POINT('Ctrl Pts',(-1.26353271613551,27.837132184048,1.08895634990578));
#2016=CARTESIAN_POINT('Ctrl Pts',(-1.52350300789502,28.0116713772157,1.21745488233643));
#2017=CARTESIAN_POINT('Ctrl Pts',(-1.65466937659066,28.1191354706576,1.25));
#2018=CARTESIAN_POINT('Ctrl Pts',(-1.88086452934715,28.3453306234147,1.25));
#2019=CARTESIAN_POINT('Ctrl Pts',(-1.98832862278879,28.4764969921108,1.21745488233639));
#2020=CARTESIAN_POINT('Ctrl Pts',(-2.16286781595582,28.736467283871,1.08895634990568));
#2021=CARTESIAN_POINT('Ctrl Pts',(-2.2305358849445,28.8649434088074,0.993146115708483));
#2022=CARTESIAN_POINT('Ctrl Pts',(-2.326784622317,29.0781584663355,0.774322167802528));
#2023=CARTESIAN_POINT('Ctrl Pts',(-2.36211205409631,29.1780172674559,0.635727949384754));
#2024=CARTESIAN_POINT('Ctrl Pts',(-2.4056753987211,29.3159273534922,0.328923251579114));
#2025=CARTESIAN_POINT('Ctrl Pts',(-2.41481455827786,29.3529523594593,0.160381527881272));
#2026=CARTESIAN_POINT('Ctrl Pts',(-2.41481456572372,29.3529523872476,1.94180649094877E-7));
#2027=CARTESIAN_POINT('',(-0.704872202291816,27.5273608447468,1.53080849893419E-16));
#2028=CARTESIAN_POINT('Origin',(0.,30.,10.5));
#2029=CARTESIAN_POINT('Origin',(0.,30.,4.));
#2030=CARTESIAN_POINT('Origin',(0.,30.,10.5));
#2031=CARTESIAN_POINT('',(0.,27.5,4.));
#2032=CARTESIAN_POINT('',(3.06161699786838E-16,27.5,10.5));
#2033=CARTESIAN_POINT('Origin',(0.,30.,4.));
#2034=CARTESIAN_POINT('Origin',(0.,-18.,4.));
#2035=CARTESIAN_POINT('',(13.4280722468028,59.5028258879025,4.));
#2036=CARTESIAN_POINT('Origin',(46.3140349933272,46.1325807804163,4.));
#2037=CARTESIAN_POINT('',(13.1173685743394,59.0914417570363,4.));
#2038=CARTESIAN_POINT('Origin',(12.5017070990133,59.8794525106476,4.));
#2039=CARTESIAN_POINT('',(8.31123650842912,55.3364798548467,4.));
#2040=CARTESIAN_POINT('',(8.31123650842912,55.3364798548467,4.));
#2041=CARTESIAN_POINT('',(6.79682541282364,56.5629528303681,4.));
#2042=CARTESIAN_POINT('Origin',(7.69557503310309,56.124490608458,4.));
#2043=CARTESIAN_POINT('Origin',(-25.1087861071348,72.1283617083039,4.));
#2044=CARTESIAN_POINT('Origin',(46.3140349933272,46.1325807804163,10.5));
#2045=CARTESIAN_POINT('',(13.4280722468028,59.5028258879025,10.5));
#2046=CARTESIAN_POINT('',(13.4280722468028,59.5028258879025,10.5));
#2047=CARTESIAN_POINT('',(13.4280722468028,59.5028258879025,-10.5));
#2048=CARTESIAN_POINT('',(13.4280722468028,59.5028258879025,-4.));
#2049=CARTESIAN_POINT('',(19.2085766402277,69.0573300150048,-10.5));
#2050=CARTESIAN_POINT('Origin',(46.3140349933272,46.1325807804163,-10.5));
#2051=CARTESIAN_POINT('',(19.2085766402277,69.0573300150048,-5.1));
#2052=CARTESIAN_POINT('',(19.2085766402277,69.0573300150048,-10.5));
#2053=CARTESIAN_POINT('',(15.392387347912,63.571092955847,-5.1));
#2054=CARTESIAN_POINT('Origin',(46.3140349933272,46.1325807804163,-5.1));
#2055=CARTESIAN_POINT('',(15.392387347912,63.571092955847,5.1));
#2056=CARTESIAN_POINT('',(15.392387347912,63.571092955847,-5.1));
#2057=CARTESIAN_POINT('',(19.2085766402277,69.0573300150048,5.1));
#2058=CARTESIAN_POINT('Origin',(46.3140349933272,46.1325807804163,5.1));
#2059=CARTESIAN_POINT('',(19.2085766402277,69.0573300150048,10.5));
#2060=CARTESIAN_POINT('',(19.2085766402277,69.0573300150048,5.1));
#2061=CARTESIAN_POINT('Origin',(46.3140349933272,46.1325807804163,10.5));
#2062=CARTESIAN_POINT('Origin',(12.5017070990133,59.8794525106476,37.8756));
#2063=CARTESIAN_POINT('',(13.1173685743394,59.0914417570363,10.5));
#2064=CARTESIAN_POINT('',(13.1173685743394,59.0914417570363,10.5));
#2065=CARTESIAN_POINT('Origin',(12.5017070990133,59.8794525106476,10.5));
#2066=CARTESIAN_POINT('Origin',(-97.5192351744753,-27.347346517428,10.5));
#2067=CARTESIAN_POINT('',(8.31123650842912,55.3364798548467,10.5));
#2068=CARTESIAN_POINT('',(8.31123650842912,55.3364798548467,10.5));
#2069=CARTESIAN_POINT('',(8.31123650842912,55.3364798548467,4.));
#2070=CARTESIAN_POINT('Origin',(7.69557503310309,56.124490608458,-37.8756));
#2071=CARTESIAN_POINT('',(6.79682541282364,56.5629528303681,10.5));
#2072=CARTESIAN_POINT('Origin',(7.69557503310309,56.124490608458,10.5));
#2073=CARTESIAN_POINT('',(6.79682541282364,56.5629528303681,4.));
#2074=CARTESIAN_POINT('Origin',(8.42901471896611,16.0889336106081,10.5));
#2075=CARTESIAN_POINT('',(10.390944405606,72.2666856851164,10.5));
#2076=CARTESIAN_POINT('Origin',(15.3909064496552,72.2861679353697,10.5));
#2077=CARTESIAN_POINT('Origin',(-25.1087861071348,72.1283617083039,10.5));
#2078=CARTESIAN_POINT('',(15.6087958065243,69.7956811901403,10.5));
#2079=CARTESIAN_POINT('Origin',(15.3909064496552,72.2861679353697,10.5));
#2080=CARTESIAN_POINT('Origin',(15.3909064496552,72.2861679353697,10.5));
#2081=CARTESIAN_POINT('',(15.6087958065243,69.7956811901403,-10.5));
#2082=CARTESIAN_POINT('Origin',(15.3909064496552,72.2861679353697,-10.5));
#2083=CARTESIAN_POINT('',(15.6087958065243,69.7956811901403,-5.1));
#2084=CARTESIAN_POINT('',(15.6087958065243,69.7956811901403,10.5));
#2085=CARTESIAN_POINT('Origin',(15.3909064496552,72.2861679353697,-5.1));
#2086=CARTESIAN_POINT('Origin',(15.3909064496552,72.2861679353697,10.5));
#2087=CARTESIAN_POINT('',(15.6087958065243,69.7956811901403,5.1));
#2088=CARTESIAN_POINT('Origin',(15.3909064496552,72.2861679353697,5.1));
#2089=CARTESIAN_POINT('',(15.6087958065243,69.7956811901403,10.5));
#2090=CARTESIAN_POINT('Origin',(8.42901471896611,16.0889336106081,-5.1));
#2091=CARTESIAN_POINT('',(10.390944405606,72.2666856851164,-5.1));
#2092=CARTESIAN_POINT('Origin',(15.3909064496552,72.2861679353697,-5.1));
#2093=CARTESIAN_POINT('',(8.81799266350499,61.6773482527689,-5.1));
#2094=CARTESIAN_POINT('Origin',(-25.1087861071348,72.1283617083039,-5.1));
#2095=CARTESIAN_POINT('',(9.18253979073052,62.1346527796175,-5.1));
#2096=CARTESIAN_POINT('Origin',(9.58253979073002,61.4418324565892,-5.1));
#2097=CARTESIAN_POINT('',(14.0213550198721,64.9283440547122,-5.1));
#2098=CARTESIAN_POINT('',(9.18253979073052,62.1346527796175,-5.1));
#2099=CARTESIAN_POINT('Origin',(14.5213550198699,64.0623186509342,-5.1));
#2100=CARTESIAN_POINT('Origin',(8.42901471896611,16.0889336106081,-10.5));
#2101=CARTESIAN_POINT('',(13.1173685743394,59.0914417570363,-10.5));
#2102=CARTESIAN_POINT('Origin',(12.5017070990133,59.8794525106476,-10.5));
#2103=CARTESIAN_POINT('',(8.31123650842912,55.3364798548467,-10.5));
#2104=CARTESIAN_POINT('',(8.31123650842912,55.3364798548467,-10.5));
#2105=CARTESIAN_POINT('',(6.79682541282364,56.5629528303681,-10.5));
#2106=CARTESIAN_POINT('Origin',(7.69557503310309,56.124490608458,-10.5));
#2107=CARTESIAN_POINT('',(10.390944405606,72.2666856851164,-10.5));
#2108=CARTESIAN_POINT('Origin',(-25.1087861071348,72.1283617083039,-10.5));
#2109=CARTESIAN_POINT('Origin',(15.3909064496552,72.2861679353697,-10.5));
#2110=CARTESIAN_POINT('Origin',(12.5017070990133,59.8794525106476,37.8756));
#2111=CARTESIAN_POINT('',(13.1173685743394,59.0914417570363,-4.));
#2112=CARTESIAN_POINT('Origin',(-97.5192351744753,-27.347346517428,-10.5));
#2113=CARTESIAN_POINT('',(8.31123650842912,55.3364798548467,-10.5));
#2114=CARTESIAN_POINT('Origin',(7.69557503310309,56.124490608458,-37.8756));
#2115=CARTESIAN_POINT('',(6.79682541282364,56.5629528303681,-10.5));
#2116=CARTESIAN_POINT('Origin',(-25.1087861071348,72.1283617083039,10.5));
#2117=CARTESIAN_POINT('',(10.390944405606,72.2666856851164,5.1));
#2118=CARTESIAN_POINT('',(8.81799266350499,61.6773482527689,5.1));
#2119=CARTESIAN_POINT('Origin',(-25.1087861071348,72.1283617083039,5.1));
#2120=CARTESIAN_POINT('',(8.81799266350499,61.6773482527689,5.1));
#2121=CARTESIAN_POINT('',(10.390944405606,72.2666856851164,-10.5));
#2122=CARTESIAN_POINT('',(10.390944405606,72.2666856851164,5.1));
#2123=CARTESIAN_POINT('Origin',(8.42901471896611,16.0889336106081,5.1));
#2124=CARTESIAN_POINT('',(9.18253979073052,62.1346527796175,5.1));
#2125=CARTESIAN_POINT('',(14.0213550198721,64.9283440547122,5.1));
#2126=CARTESIAN_POINT('',(9.18253979073052,62.1346527796175,5.1));
#2127=CARTESIAN_POINT('Origin',(9.58253979073002,61.4418324565892,5.1));
#2128=CARTESIAN_POINT('Origin',(15.3909064496552,72.2861679353697,5.1));
#2129=CARTESIAN_POINT('Origin',(14.5213550198699,64.0623186509342,5.1));
#2130=CARTESIAN_POINT('Origin',(4.63046869765359,59.5065133086562,-5.1));
#2131=CARTESIAN_POINT('',(14.0213550198721,64.9283440547122,-5.1));
#2132=CARTESIAN_POINT('',(9.18253979073052,62.1346527796175,5.1));
#2133=CARTESIAN_POINT('Origin',(14.5213550198699,64.0623186509342,-37.8756));
#2134=CARTESIAN_POINT('Origin',(9.58253979073002,61.4418324565892,37.8756));
#2135=CARTESIAN_POINT('Origin',(15.3909064496552,72.2861679353697,10.5));
#2136=CARTESIAN_POINT('Origin',(15.3909064496552,72.2861679353697,10.5));
#2137=UNCERTAINTY_MEASURE_WITH_UNIT(LENGTH_MEASURE(0.01),#2141,
'DISTANCE_ACCURACY_VALUE',
'Maximum model space distance between geometric entities at asserted c
onnectivities');
#2138=UNCERTAINTY_MEASURE_WITH_UNIT(LENGTH_MEASURE(0.01),#2141,
'DISTANCE_ACCURACY_VALUE',
'Maximum model space distance between geometric entities at asserted c
onnectivities');
#2139=(
GEOMETRIC_REPRESENTATION_CONTEXT(3)
GLOBAL_UNCERTAINTY_ASSIGNED_CONTEXT((#2137))
GLOBAL_UNIT_ASSIGNED_CONTEXT((#2141,#2143,#2144))
REPRESENTATION_CONTEXT('','3D')
);
#2140=(
GEOMETRIC_REPRESENTATION_CONTEXT(3)
GLOBAL_UNCERTAINTY_ASSIGNED_CONTEXT((#2138))
GLOBAL_UNIT_ASSIGNED_CONTEXT((#2141,#2143,#2144))
REPRESENTATION_CONTEXT('','3D')
);
#2141=(
LENGTH_UNIT()
NAMED_UNIT(*)
SI_UNIT(.MILLI.,.METRE.)
);
#2142=(
LENGTH_UNIT()
NAMED_UNIT(*)
SI_UNIT($,.METRE.)
);
#2143=(
NAMED_UNIT(*)
PLANE_ANGLE_UNIT()
SI_UNIT($,.RADIAN.)
);
#2144=(
NAMED_UNIT(*)
SI_UNIT($,.STERADIAN.)
SOLID_ANGLE_UNIT()
);
#2145=SHAPE_DEFINITION_REPRESENTATION(#2146,#2147);
#2146=PRODUCT_DEFINITION_SHAPE('',$,#2149);
#2147=SHAPE_REPRESENTATION('',(#1209),#2139);
#2148=PRODUCT_DEFINITION_CONTEXT('part definition',#2153,'design');
#2149=PRODUCT_DEFINITION('ACWA-0X28_BIELLETTE1_350-400',
'ACWA-0X28_BIELLETTE1_350-400 v2',#2150,#2148);
#2150=PRODUCT_DEFINITION_FORMATION('',$,#2155);
#2151=PRODUCT_RELATED_PRODUCT_CATEGORY(
'ACWA-0X28_BIELLETTE1_350-400 v2','ACWA-0X28_BIELLETTE1_350-400 v2',(#2155));
#2152=APPLICATION_PROTOCOL_DEFINITION('international standard',
'automotive_design',2009,#2153);
#2153=APPLICATION_CONTEXT(
'Core Data for Automotive Mechanical Design Process');
#2154=PRODUCT_CONTEXT('part definition',#2153,'mechanical');
#2155=PRODUCT('ACWA-0X28_BIELLETTE1_350-400',
'ACWA-0X28_BIELLETTE1_350-400 v2',$,(#2154));
#2156=PRESENTATION_STYLE_ASSIGNMENT((#2157));
#2157=SURFACE_STYLE_USAGE(.BOTH.,#2158);
#2158=SURFACE_SIDE_STYLE('',(#2159));
#2159=SURFACE_STYLE_FILL_AREA(#2160);
#2160=FILL_AREA_STYLE('Acier - Satin\X\E9',(#2161));
#2161=FILL_AREA_STYLE_COLOUR('Acier - Satin\X\E9',#2162);
#2162=COLOUR_RGB('Acier - Satin\X\E9',0.627450980392157,0.627450980392157,
0.627450980392157);
ENDSEC;
END-ISO-10303-21;
