ISO-10303-21;
HEADER;
/* Generated by software containing ST-Developer
 * from STEP Tools, Inc. (www.steptools.com) 
 */

FILE_DESCRIPTION(
/* description */ (''),
/* implementation_level */ '2;1');

FILE_NAME(
/* name */ 'POLO-0X29_BIELLETTE1_350-400 v3.step',
/* time_stamp */ '2025-05-07T10:55:45+02:00',
/* author */ (''),
/* organization */ (''),
/* preprocessor_version */ 'ST-DEVELOPER v20.1',
/* originating_system */ 'Autodesk Translation Framework v14.4.0.0',
/* authorisation */ '');

FILE_SCHEMA (('AUTOMOTIVE_DESIGN { 1 0 10303 214 3 1 1 }'));
ENDSEC;

DATA;
#10=MECHANICAL_DESIGN_GEOMETRIC_PRESENTATION_REPRESENTATION('',(#13,#14,
#15,#16,#17),#1875);
#11=SHAPE_REPRESENTATION_RELATIONSHIP('SRR','None',#1882,#12);
#12=ADVANCED_BREP_SHAPE_REPRESENTATION('',(#18,#19,#20,#21,#22),#1874);
#13=STYLED_ITEM('',(#1891),#18);
#14=STYLED_ITEM('',(#1891),#19);
#15=STYLED_ITEM('',(#1891),#20);
#16=STYLED_ITEM('',(#1891),#21);
#17=STYLED_ITEM('',(#1891),#22);
#18=MANIFOLD_SOLID_BREP('Corps1',#1063);
#19=MANIFOLD_SOLID_BREP('Corps10',#1064);
#20=MANIFOLD_SOLID_BREP('Corps11',#1065);
#21=MANIFOLD_SOLID_BREP('Corps12',#1066);
#22=MANIFOLD_SOLID_BREP('Corps13',#1067);
#23=FACE_BOUND('',#126,.T.);
#24=FACE_BOUND('',#129,.T.);
#25=FACE_BOUND('',#133,.T.);
#26=FACE_BOUND('',#137,.T.);
#27=FACE_BOUND('',#147,.T.);
#28=FACE_BOUND('',#150,.T.);
#29=FACE_BOUND('',#163,.T.);
#30=FACE_BOUND('',#169,.T.);
#31=FACE_BOUND('',#183,.T.);
#32=FACE_BOUND('',#189,.T.);
#33=FACE_BOUND('',#191,.T.);
#34=FACE_BOUND('',#195,.T.);
#35=PLANE('',#1084);
#36=PLANE('',#1088);
#37=PLANE('',#1092);
#38=PLANE('',#1097);
#39=PLANE('',#1106);
#40=PLANE('',#1112);
#41=PLANE('',#1116);
#42=PLANE('',#1117);
#43=PLANE('',#1121);
#44=PLANE('',#1128);
#45=PLANE('',#1135);
#46=PLANE('',#1144);
#47=PLANE('',#1145);
#48=PLANE('',#1146);
#49=PLANE('',#1153);
#50=PLANE('',#1158);
#51=PLANE('',#1164);
#52=PLANE('',#1175);
#53=PLANE('',#1190);
#54=PLANE('',#1197);
#55=PLANE('',#1199);
#56=PLANE('',#1201);
#57=PLANE('',#1202);
#58=PLANE('',#1203);
#59=PLANE('',#1204);
#60=PLANE('',#1205);
#61=PLANE('',#1206);
#62=PLANE('',#1207);
#63=PLANE('',#1214);
#64=FACE_OUTER_BOUND('',#124,.T.);
#65=FACE_OUTER_BOUND('',#125,.T.);
#66=FACE_OUTER_BOUND('',#127,.T.);
#67=FACE_OUTER_BOUND('',#128,.T.);
#68=FACE_OUTER_BOUND('',#130,.T.);
#69=FACE_OUTER_BOUND('',#131,.T.);
#70=FACE_OUTER_BOUND('',#132,.T.);
#71=FACE_OUTER_BOUND('',#134,.T.);
#72=FACE_OUTER_BOUND('',#135,.T.);
#73=FACE_OUTER_BOUND('',#136,.T.);
#74=FACE_OUTER_BOUND('',#138,.T.);
#75=FACE_OUTER_BOUND('',#139,.T.);
#76=FACE_OUTER_BOUND('',#140,.T.);
#77=FACE_OUTER_BOUND('',#141,.T.);
#78=FACE_OUTER_BOUND('',#142,.T.);
#79=FACE_OUTER_BOUND('',#143,.T.);
#80=FACE_OUTER_BOUND('',#144,.T.);
#81=FACE_OUTER_BOUND('',#145,.T.);
#82=FACE_OUTER_BOUND('',#146,.T.);
#83=FACE_OUTER_BOUND('',#148,.T.);
#84=FACE_OUTER_BOUND('',#149,.T.);
#85=FACE_OUTER_BOUND('',#151,.T.);
#86=FACE_OUTER_BOUND('',#152,.T.);
#87=FACE_OUTER_BOUND('',#153,.T.);
#88=FACE_OUTER_BOUND('',#154,.T.);
#89=FACE_OUTER_BOUND('',#155,.T.);
#90=FACE_OUTER_BOUND('',#156,.T.);
#91=FACE_OUTER_BOUND('',#157,.T.);
#92=FACE_OUTER_BOUND('',#158,.T.);
#93=FACE_OUTER_BOUND('',#159,.T.);
#94=FACE_OUTER_BOUND('',#160,.T.);
#95=FACE_OUTER_BOUND('',#161,.T.);
#96=FACE_OUTER_BOUND('',#162,.T.);
#97=FACE_OUTER_BOUND('',#164,.T.);
#98=FACE_OUTER_BOUND('',#165,.T.);
#99=FACE_OUTER_BOUND('',#166,.T.);
#100=FACE_OUTER_BOUND('',#167,.T.);
#101=FACE_OUTER_BOUND('',#168,.T.);
#102=FACE_OUTER_BOUND('',#170,.T.);
#103=FACE_OUTER_BOUND('',#171,.T.);
#104=FACE_OUTER_BOUND('',#172,.T.);
#105=FACE_OUTER_BOUND('',#173,.T.);
#106=FACE_OUTER_BOUND('',#174,.T.);
#107=FACE_OUTER_BOUND('',#175,.T.);
#108=FACE_OUTER_BOUND('',#176,.T.);
#109=FACE_OUTER_BOUND('',#177,.T.);
#110=FACE_OUTER_BOUND('',#178,.T.);
#111=FACE_OUTER_BOUND('',#179,.T.);
#112=FACE_OUTER_BOUND('',#180,.T.);
#113=FACE_OUTER_BOUND('',#181,.T.);
#114=FACE_OUTER_BOUND('',#182,.T.);
#115=FACE_OUTER_BOUND('',#184,.T.);
#116=FACE_OUTER_BOUND('',#185,.T.);
#117=FACE_OUTER_BOUND('',#186,.T.);
#118=FACE_OUTER_BOUND('',#187,.T.);
#119=FACE_OUTER_BOUND('',#188,.T.);
#120=FACE_OUTER_BOUND('',#190,.T.);
#121=FACE_OUTER_BOUND('',#192,.T.);
#122=FACE_OUTER_BOUND('',#193,.T.);
#123=FACE_OUTER_BOUND('',#194,.T.);
#124=EDGE_LOOP('',(#672,#673,#674,#675));
#125=EDGE_LOOP('',(#676));
#126=EDGE_LOOP('',(#677));
#127=EDGE_LOOP('',(#678,#679,#680,#681));
#128=EDGE_LOOP('',(#682));
#129=EDGE_LOOP('',(#683));
#130=EDGE_LOOP('',(#684,#685,#686,#687));
#131=EDGE_LOOP('',(#688,#689,#690,#691,#692,#693,#694,#695));
#132=EDGE_LOOP('',(#696,#697,#698,#699,#700,#701));
#133=EDGE_LOOP('',(#702));
#134=EDGE_LOOP('',(#703,#704,#705,#706));
#135=EDGE_LOOP('',(#707,#708,#709,#710,#711,#712));
#136=EDGE_LOOP('',(#713,#714,#715,#716,#717,#718));
#137=EDGE_LOOP('',(#719));
#138=EDGE_LOOP('',(#720,#721,#722,#723,#724,#725));
#139=EDGE_LOOP('',(#726,#727,#728,#729));
#140=EDGE_LOOP('',(#730,#731,#732,#733));
#141=EDGE_LOOP('',(#734,#735,#736,#737));
#142=EDGE_LOOP('',(#738,#739,#740,#741));
#143=EDGE_LOOP('',(#742,#743,#744,#745));
#144=EDGE_LOOP('',(#746,#747,#748,#749));
#145=EDGE_LOOP('',(#750,#751,#752,#753));
#146=EDGE_LOOP('',(#754,#755,#756,#757,#758,#759));
#147=EDGE_LOOP('',(#760));
#148=EDGE_LOOP('',(#761,#762,#763,#764));
#149=EDGE_LOOP('',(#765,#766,#767,#768,#769,#770));
#150=EDGE_LOOP('',(#771));
#151=EDGE_LOOP('',(#772,#773,#774,#775));
#152=EDGE_LOOP('',(#776,#777,#778,#779));
#153=EDGE_LOOP('',(#780,#781,#782,#783));
#154=EDGE_LOOP('',(#784,#785,#786,#787,#788,#789));
#155=EDGE_LOOP('',(#790,#791,#792,#793,#794,#795));
#156=EDGE_LOOP('',(#796,#797,#798,#799));
#157=EDGE_LOOP('',(#800,#801,#802,#803));
#158=EDGE_LOOP('',(#804,#805,#806,#807));
#159=EDGE_LOOP('',(#808,#809,#810,#811,#812,#813,#814,#815));
#160=EDGE_LOOP('',(#816,#817,#818,#819));
#161=EDGE_LOOP('',(#820,#821,#822,#823));
#162=EDGE_LOOP('',(#824,#825,#826,#827,#828,#829));
#163=EDGE_LOOP('',(#830));
#164=EDGE_LOOP('',(#831,#832,#833,#834,#835,#836,#837,#838,#839,#840));
#165=EDGE_LOOP('',(#841,#842,#843,#844,#845,#846,#847,#848,#849,#850));
#166=EDGE_LOOP('',(#851,#852,#853,#854));
#167=EDGE_LOOP('',(#855,#856,#857,#858));
#168=EDGE_LOOP('',(#859,#860,#861,#862,#863,#864));
#169=EDGE_LOOP('',(#865));
#170=EDGE_LOOP('',(#866,#867,#868,#869));
#171=EDGE_LOOP('',(#870,#871,#872,#873));
#172=EDGE_LOOP('',(#874,#875,#876,#877,#878,#879,#880,#881,#882,#883,#884,
#885));
#173=EDGE_LOOP('',(#886,#887,#888,#889));
#174=EDGE_LOOP('',(#890,#891,#892,#893));
#175=EDGE_LOOP('',(#894,#895,#896,#897));
#176=EDGE_LOOP('',(#898,#899,#900,#901,#902,#903,#904,#905,#906,#907,#908,
#909));
#177=EDGE_LOOP('',(#910,#911,#912,#913));
#178=EDGE_LOOP('',(#914,#915,#916,#917));
#179=EDGE_LOOP('',(#918,#919,#920,#921));
#180=EDGE_LOOP('',(#922,#923,#924,#925));
#181=EDGE_LOOP('',(#926,#927,#928,#929));
#182=EDGE_LOOP('',(#930,#931,#932,#933,#934,#935));
#183=EDGE_LOOP('',(#936));
#184=EDGE_LOOP('',(#937,#938,#939,#940));
#185=EDGE_LOOP('',(#941,#942,#943,#944));
#186=EDGE_LOOP('',(#945,#946,#947,#948));
#187=EDGE_LOOP('',(#949,#950,#951,#952));
#188=EDGE_LOOP('',(#953,#954,#955,#956,#957,#958));
#189=EDGE_LOOP('',(#959));
#190=EDGE_LOOP('',(#960));
#191=EDGE_LOOP('',(#961));
#192=EDGE_LOOP('',(#962,#963,#964,#965));
#193=EDGE_LOOP('',(#966,#967,#968,#969));
#194=EDGE_LOOP('',(#970));
#195=EDGE_LOOP('',(#971));
#196=LINE('',#1566,#272);
#197=LINE('',#1574,#273);
#198=LINE('',#1579,#274);
#199=LINE('',#1583,#275);
#200=LINE('',#1587,#276);
#201=LINE('',#1593,#277);
#202=LINE('',#1598,#278);
#203=LINE('',#1601,#279);
#204=LINE('',#1608,#280);
#205=LINE('',#1613,#281);
#206=LINE('',#1615,#282);
#207=LINE('',#1620,#283);
#208=LINE('',#1621,#284);
#209=LINE('',#1629,#285);
#210=LINE('',#1633,#286);
#211=LINE('',#1634,#287);
#212=LINE('',#1635,#288);
#213=LINE('',#1637,#289);
#214=LINE('',#1640,#290);
#215=LINE('',#1649,#291);
#216=LINE('',#1652,#292);
#217=LINE('',#1655,#293);
#218=LINE('',#1662,#294);
#219=LINE('',#1669,#295);
#220=LINE('',#1670,#296);
#221=LINE('',#1674,#297);
#222=LINE('',#1684,#298);
#223=LINE('',#1687,#299);
#224=LINE('',#1689,#300);
#225=LINE('',#1690,#301);
#226=LINE('',#1694,#302);
#227=LINE('',#1698,#303);
#228=LINE('',#1701,#304);
#229=LINE('',#1703,#305);
#230=LINE('',#1708,#306);
#231=LINE('',#1710,#307);
#232=LINE('',#1715,#308);
#233=LINE('',#1719,#309);
#234=LINE('',#1726,#310);
#235=LINE('',#1729,#311);
#236=LINE('',#1732,#312);
#237=LINE('',#1739,#313);
#238=LINE('',#1744,#314);
#239=LINE('',#1750,#315);
#240=LINE('',#1754,#316);
#241=LINE('',#1759,#317);
#242=LINE('',#1762,#318);
#243=LINE('',#1768,#319);
#244=LINE('',#1772,#320);
#245=LINE('',#1777,#321);
#246=LINE('',#1783,#322);
#247=LINE('',#1786,#323);
#248=LINE('',#1791,#324);
#249=LINE('',#1792,#325);
#250=LINE('',#1801,#326);
#251=LINE('',#1808,#327);
#252=LINE('',#1812,#328);
#253=LINE('',#1815,#329);
#254=LINE('',#1818,#330);
#255=LINE('',#1819,#331);
#256=LINE('',#1820,#332);
#257=LINE('',#1824,#333);
#258=LINE('',#1828,#334);
#259=LINE('',#1829,#335);
#260=LINE('',#1833,#336);
#261=LINE('',#1836,#337);
#262=LINE('',#1837,#338);
#263=LINE('',#1839,#339);
#264=LINE('',#1842,#340);
#265=LINE('',#1844,#341);
#266=LINE('',#1846,#342);
#267=LINE('',#1848,#343);
#268=LINE('',#1854,#344);
#269=LINE('',#1856,#345);
#270=LINE('',#1866,#346);
#271=LINE('',#1870,#347);
#272=VECTOR('',#1221,2.5);
#273=VECTOR('',#1232,5.);
#274=VECTOR('',#1237,10.);
#275=VECTOR('',#1240,10.);
#276=VECTOR('',#1245,10.);
#277=VECTOR('',#1250,5.23968506462324);
#278=VECTOR('',#1255,10.);
#279=VECTOR('',#1258,10.);
#280=VECTOR('',#1265,10.);
#281=VECTOR('',#1270,0.5);
#282=VECTOR('',#1271,0.5);
#283=VECTOR('',#1278,10.);
#284=VECTOR('',#1279,5.4);
#285=VECTOR('',#1288,5.23968506462324);
#286=VECTOR('',#1293,5.4);
#287=VECTOR('',#1294,10.);
#288=VECTOR('',#1295,0.5);
#289=VECTOR('',#1298,0.5);
#290=VECTOR('',#1303,2.5);
#291=VECTOR('',#1314,10.);
#292=VECTOR('',#1317,10.);
#293=VECTOR('',#1320,10.);
#294=VECTOR('',#1327,10.);
#295=VECTOR('',#1334,5.4);
#296=VECTOR('',#1335,5.4);
#297=VECTOR('',#1338,5.23968506462324);
#298=VECTOR('',#1351,2.5);
#299=VECTOR('',#1354,0.5);
#300=VECTOR('',#1355,0.5);
#301=VECTOR('',#1356,5.23968506462324);
#302=VECTOR('',#1361,0.5);
#303=VECTOR('',#1366,10.);
#304=VECTOR('',#1369,0.5);
#305=VECTOR('',#1370,10.);
#306=VECTOR('',#1379,10.);
#307=VECTOR('',#1382,10.);
#308=VECTOR('',#1387,10.);
#309=VECTOR('',#1390,10.);
#310=VECTOR('',#1397,10.);
#311=VECTOR('',#1400,10.);
#312=VECTOR('',#1403,10.);
#313=VECTOR('',#1410,10.);
#314=VECTOR('',#1415,10.);
#315=VECTOR('',#1420,4.17045582787975);
#316=VECTOR('',#1423,2.78409837330513);
#317=VECTOR('',#1428,10.);
#318=VECTOR('',#1431,10.);
#319=VECTOR('',#1436,2.78409837330513);
#320=VECTOR('',#1439,4.17045582787975);
#321=VECTOR('',#1444,10.);
#322=VECTOR('',#1449,4.9);
#323=VECTOR('',#1452,4.9);
#324=VECTOR('',#1457,4.9);
#325=VECTOR('',#1458,4.9);
#326=VECTOR('',#1467,4.30562646381897);
#327=VECTOR('',#1476,2.5);
#328=VECTOR('',#1481,2.5);
#329=VECTOR('',#1484,11.2);
#330=VECTOR('',#1487,10.);
#331=VECTOR('',#1488,9.2);
#332=VECTOR('',#1489,10.);
#333=VECTOR('',#1494,11.2);
#334=VECTOR('',#1499,4.30562646381897);
#335=VECTOR('',#1500,11.2);
#336=VECTOR('',#1505,11.2);
#337=VECTOR('',#1510,10.);
#338=VECTOR('',#1511,9.2);
#339=VECTOR('',#1512,10.);
#340=VECTOR('',#1517,9.2);
#341=VECTOR('',#1520,9.2);
#342=VECTOR('',#1523,9.2);
#343=VECTOR('',#1526,9.2);
#344=VECTOR('',#1537,10.);
#345=VECTOR('',#1540,10.);
#346=VECTOR('',#1553,2.5);
#347=VECTOR('',#1558,5.);
#348=CIRCLE('',#1082,2.5);
#349=CIRCLE('',#1083,2.5);
#350=CIRCLE('',#1085,5.00000000000729);
#351=CIRCLE('',#1087,5.00000000000729);
#352=CIRCLE('',#1090,5.00000000000729);
#353=CIRCLE('',#1091,5.00000000000729);
#354=CIRCLE('',#1093,35.5);
#355=CIRCLE('',#1094,1.);
#356=CIRCLE('',#1095,1.);
#357=CIRCLE('',#1096,35.5);
#358=CIRCLE('',#1098,35.5);
#359=CIRCLE('',#1099,5.);
#360=CIRCLE('',#1100,35.5);
#361=CIRCLE('',#1101,2.5);
#362=CIRCLE('',#1103,1.);
#363=CIRCLE('',#1105,35.5);
#364=CIRCLE('',#1107,5.);
#365=CIRCLE('',#1108,35.5);
#366=CIRCLE('',#1109,1.);
#367=CIRCLE('',#1110,2.5);
#368=CIRCLE('',#1119,5.00000000000729);
#369=CIRCLE('',#1120,5.00000000000729);
#370=CIRCLE('',#1122,35.5);
#371=CIRCLE('',#1123,5.);
#372=CIRCLE('',#1124,35.5);
#373=CIRCLE('',#1125,2.5);
#374=CIRCLE('',#1127,5.);
#375=CIRCLE('',#1129,1.);
#376=CIRCLE('',#1130,35.5);
#377=CIRCLE('',#1131,35.5);
#378=CIRCLE('',#1132,1.);
#379=CIRCLE('',#1133,2.5);
#380=CIRCLE('',#1137,1.);
#381=CIRCLE('',#1139,35.5);
#382=CIRCLE('',#1141,35.5);
#383=CIRCLE('',#1143,1.);
#384=CIRCLE('',#1148,5.00000000000729);
#385=CIRCLE('',#1149,5.00000000000729);
#386=CIRCLE('',#1151,5.00000000000729);
#387=CIRCLE('',#1152,5.00000000000729);
#388=CIRCLE('',#1154,35.);
#389=CIRCLE('',#1155,5.);
#390=CIRCLE('',#1156,70.);
#391=CIRCLE('',#1157,2.5);
#392=CIRCLE('',#1159,70.);
#393=CIRCLE('',#1160,1.);
#394=CIRCLE('',#1161,1.);
#395=CIRCLE('',#1162,2.);
#396=CIRCLE('',#1163,35.);
#397=CIRCLE('',#1165,35.);
#398=CIRCLE('',#1166,2.);
#399=CIRCLE('',#1167,1.);
#400=CIRCLE('',#1168,1.);
#401=CIRCLE('',#1169,70.);
#402=CIRCLE('',#1171,5.);
#403=CIRCLE('',#1172,5.);
#404=CIRCLE('',#1174,5.);
#405=CIRCLE('',#1176,35.);
#406=CIRCLE('',#1177,70.);
#407=CIRCLE('',#1178,1.);
#408=CIRCLE('',#1179,1.);
#409=CIRCLE('',#1180,2.5);
#410=CIRCLE('',#1182,2.5);
#411=CIRCLE('',#1184,2.5);
#412=CIRCLE('',#1186,70.);
#413=CIRCLE('',#1187,70.);
#414=CIRCLE('',#1189,1.);
#415=CIRCLE('',#1192,1.);
#416=CIRCLE('',#1194,35.);
#417=CIRCLE('',#1195,35.);
#418=CIRCLE('',#1208,5.00000000000729);
#419=CIRCLE('',#1209,2.5);
#420=CIRCLE('',#1211,2.5);
#421=CIRCLE('',#1213,5.00000000000455);
#422=VERTEX_POINT('',#1563);
#423=VERTEX_POINT('',#1565);
#424=VERTEX_POINT('',#1569);
#425=VERTEX_POINT('',#1572);
#426=VERTEX_POINT('',#1577);
#427=VERTEX_POINT('',#1578);
#428=VERTEX_POINT('',#1580);
#429=VERTEX_POINT('',#1582);
#430=VERTEX_POINT('',#1586);
#431=VERTEX_POINT('',#1588);
#432=VERTEX_POINT('',#1590);
#433=VERTEX_POINT('',#1592);
#434=VERTEX_POINT('',#1594);
#435=VERTEX_POINT('',#1596);
#436=VERTEX_POINT('',#1600);
#437=VERTEX_POINT('',#1602);
#438=VERTEX_POINT('',#1604);
#439=VERTEX_POINT('',#1606);
#440=VERTEX_POINT('',#1609);
#441=VERTEX_POINT('',#1612);
#442=VERTEX_POINT('',#1614);
#443=VERTEX_POINT('',#1618);
#444=VERTEX_POINT('',#1623);
#445=VERTEX_POINT('',#1625);
#446=VERTEX_POINT('',#1627);
#447=VERTEX_POINT('',#1630);
#448=VERTEX_POINT('',#1645);
#449=VERTEX_POINT('',#1646);
#450=VERTEX_POINT('',#1648);
#451=VERTEX_POINT('',#1650);
#452=VERTEX_POINT('',#1654);
#453=VERTEX_POINT('',#1656);
#454=VERTEX_POINT('',#1658);
#455=VERTEX_POINT('',#1660);
#456=VERTEX_POINT('',#1663);
#457=VERTEX_POINT('',#1666);
#458=VERTEX_POINT('',#1667);
#459=VERTEX_POINT('',#1672);
#460=VERTEX_POINT('',#1673);
#461=VERTEX_POINT('',#1675);
#462=VERTEX_POINT('',#1678);
#463=VERTEX_POINT('',#1681);
#464=VERTEX_POINT('',#1686);
#465=VERTEX_POINT('',#1688);
#466=VERTEX_POINT('',#1692);
#467=VERTEX_POINT('',#1696);
#468=VERTEX_POINT('',#1700);
#469=VERTEX_POINT('',#1702);
#470=VERTEX_POINT('',#1713);
#471=VERTEX_POINT('',#1714);
#472=VERTEX_POINT('',#1716);
#473=VERTEX_POINT('',#1718);
#474=VERTEX_POINT('',#1722);
#475=VERTEX_POINT('',#1723);
#476=VERTEX_POINT('',#1725);
#477=VERTEX_POINT('',#1727);
#478=VERTEX_POINT('',#1731);
#479=VERTEX_POINT('',#1733);
#480=VERTEX_POINT('',#1735);
#481=VERTEX_POINT('',#1737);
#482=VERTEX_POINT('',#1740);
#483=VERTEX_POINT('',#1743);
#484=VERTEX_POINT('',#1745);
#485=VERTEX_POINT('',#1747);
#486=VERTEX_POINT('',#1749);
#487=VERTEX_POINT('',#1751);
#488=VERTEX_POINT('',#1753);
#489=VERTEX_POINT('',#1755);
#490=VERTEX_POINT('',#1757);
#491=VERTEX_POINT('',#1761);
#492=VERTEX_POINT('',#1763);
#493=VERTEX_POINT('',#1765);
#494=VERTEX_POINT('',#1767);
#495=VERTEX_POINT('',#1769);
#496=VERTEX_POINT('',#1771);
#497=VERTEX_POINT('',#1773);
#498=VERTEX_POINT('',#1775);
#499=VERTEX_POINT('',#1779);
#500=VERTEX_POINT('',#1780);
#501=VERTEX_POINT('',#1782);
#502=VERTEX_POINT('',#1784);
#503=VERTEX_POINT('',#1788);
#504=VERTEX_POINT('',#1789);
#505=VERTEX_POINT('',#1794);
#506=VERTEX_POINT('',#1796);
#507=VERTEX_POINT('',#1798);
#508=VERTEX_POINT('',#1800);
#509=VERTEX_POINT('',#1803);
#510=VERTEX_POINT('',#1806);
#511=VERTEX_POINT('',#1810);
#512=VERTEX_POINT('',#1814);
#513=VERTEX_POINT('',#1816);
#514=VERTEX_POINT('',#1823);
#515=VERTEX_POINT('',#1827);
#516=VERTEX_POINT('',#1831);
#517=VERTEX_POINT('',#1838);
#518=VERTEX_POINT('',#1859);
#519=VERTEX_POINT('',#1861);
#520=VERTEX_POINT('',#1864);
#521=VERTEX_POINT('',#1868);
#522=EDGE_CURVE('',#422,#422,#348,.T.);
#523=EDGE_CURVE('',#422,#423,#196,.T.);
#524=EDGE_CURVE('',#423,#423,#349,.T.);
#525=EDGE_CURVE('',#424,#424,#350,.T.);
#526=EDGE_CURVE('',#425,#425,#351,.T.);
#527=EDGE_CURVE('',#425,#424,#197,.T.);
#528=EDGE_CURVE('',#426,#427,#198,.T.);
#529=EDGE_CURVE('',#428,#427,#352,.T.);
#530=EDGE_CURVE('',#429,#428,#199,.T.);
#531=EDGE_CURVE('',#426,#429,#353,.T.);
#532=EDGE_CURVE('',#430,#429,#200,.T.);
#533=EDGE_CURVE('',#430,#431,#354,.T.);
#534=EDGE_CURVE('',#431,#432,#355,.T.);
#535=EDGE_CURVE('',#432,#433,#201,.T.);
#536=EDGE_CURVE('',#433,#434,#356,.T.);
#537=EDGE_CURVE('',#434,#435,#357,.T.);
#538=EDGE_CURVE('',#435,#426,#202,.T.);
#539=EDGE_CURVE('',#427,#436,#203,.T.);
#540=EDGE_CURVE('',#436,#437,#358,.T.);
#541=EDGE_CURVE('',#437,#438,#359,.T.);
#542=EDGE_CURVE('',#438,#439,#360,.T.);
#543=EDGE_CURVE('',#439,#428,#204,.T.);
#544=EDGE_CURVE('',#440,#440,#361,.T.);
#545=EDGE_CURVE('',#441,#432,#205,.T.);
#546=EDGE_CURVE('',#442,#431,#206,.T.);
#547=EDGE_CURVE('',#441,#442,#362,.T.);
#548=EDGE_CURVE('',#443,#442,#363,.T.);
#549=EDGE_CURVE('',#430,#439,#207,.T.);
#550=EDGE_CURVE('',#443,#438,#208,.T.);
#551=EDGE_CURVE('',#444,#443,#364,.T.);
#552=EDGE_CURVE('',#445,#444,#365,.T.);
#553=EDGE_CURVE('',#445,#446,#366,.T.);
#554=EDGE_CURVE('',#441,#446,#209,.T.);
#555=EDGE_CURVE('',#447,#447,#367,.T.);
#556=EDGE_CURVE('',#444,#437,#210,.T.);
#557=EDGE_CURVE('',#435,#436,#211,.T.);
#558=EDGE_CURVE('',#434,#445,#212,.T.);
#559=EDGE_CURVE('',#433,#446,#213,.T.);
#560=EDGE_CURVE('',#440,#447,#214,.T.);
#561=EDGE_CURVE('',#448,#449,#368,.T.);
#562=EDGE_CURVE('',#450,#448,#215,.T.);
#563=EDGE_CURVE('',#451,#450,#369,.T.);
#564=EDGE_CURVE('',#451,#449,#216,.T.);
#565=EDGE_CURVE('',#452,#450,#217,.T.);
#566=EDGE_CURVE('',#453,#452,#370,.T.);
#567=EDGE_CURVE('',#453,#454,#371,.T.);
#568=EDGE_CURVE('',#455,#454,#372,.T.);
#569=EDGE_CURVE('',#455,#451,#218,.T.);
#570=EDGE_CURVE('',#456,#456,#373,.T.);
#571=EDGE_CURVE('',#457,#458,#374,.T.);
#572=EDGE_CURVE('',#454,#457,#219,.T.);
#573=EDGE_CURVE('',#453,#458,#220,.T.);
#574=EDGE_CURVE('',#459,#460,#221,.T.);
#575=EDGE_CURVE('',#460,#461,#375,.T.);
#576=EDGE_CURVE('',#457,#461,#376,.T.);
#577=EDGE_CURVE('',#462,#458,#377,.T.);
#578=EDGE_CURVE('',#462,#459,#378,.T.);
#579=EDGE_CURVE('',#463,#463,#379,.T.);
#580=EDGE_CURVE('',#463,#456,#222,.T.);
#581=EDGE_CURVE('',#460,#464,#223,.T.);
#582=EDGE_CURVE('',#465,#459,#224,.T.);
#583=EDGE_CURVE('',#465,#464,#225,.T.);
#584=EDGE_CURVE('',#466,#464,#380,.T.);
#585=EDGE_CURVE('',#461,#466,#226,.T.);
#586=EDGE_CURVE('',#466,#467,#381,.T.);
#587=EDGE_CURVE('',#455,#467,#227,.T.);
#588=EDGE_CURVE('',#468,#462,#228,.T.);
#589=EDGE_CURVE('',#452,#469,#229,.T.);
#590=EDGE_CURVE('',#469,#468,#382,.T.);
#591=EDGE_CURVE('',#465,#468,#383,.T.);
#592=EDGE_CURVE('',#469,#448,#230,.T.);
#593=EDGE_CURVE('',#449,#467,#231,.T.);
#594=EDGE_CURVE('',#470,#471,#232,.T.);
#595=EDGE_CURVE('',#472,#471,#384,.T.);
#596=EDGE_CURVE('',#473,#472,#233,.T.);
#597=EDGE_CURVE('',#470,#473,#385,.T.);
#598=EDGE_CURVE('',#474,#475,#386,.T.);
#599=EDGE_CURVE('',#476,#474,#234,.T.);
#600=EDGE_CURVE('',#477,#476,#387,.T.);
#601=EDGE_CURVE('',#477,#475,#235,.T.);
#602=EDGE_CURVE('',#478,#473,#236,.T.);
#603=EDGE_CURVE('',#479,#478,#388,.T.);
#604=EDGE_CURVE('',#479,#480,#389,.T.);
#605=EDGE_CURVE('',#481,#480,#390,.T.);
#606=EDGE_CURVE('',#481,#470,#237,.T.);
#607=EDGE_CURVE('',#482,#482,#391,.T.);
#608=EDGE_CURVE('',#471,#483,#238,.T.);
#609=EDGE_CURVE('',#484,#483,#392,.T.);
#610=EDGE_CURVE('',#484,#485,#393,.T.);
#611=EDGE_CURVE('',#485,#486,#239,.T.);
#612=EDGE_CURVE('',#486,#487,#394,.T.);
#613=EDGE_CURVE('',#487,#488,#240,.T.);
#614=EDGE_CURVE('',#488,#489,#395,.T.);
#615=EDGE_CURVE('',#490,#489,#396,.T.);
#616=EDGE_CURVE('',#490,#472,#241,.T.);
#617=EDGE_CURVE('',#491,#476,#242,.T.);
#618=EDGE_CURVE('',#492,#491,#397,.T.);
#619=EDGE_CURVE('',#492,#493,#398,.T.);
#620=EDGE_CURVE('',#494,#493,#243,.T.);
#621=EDGE_CURVE('',#494,#495,#399,.T.);
#622=EDGE_CURVE('',#496,#495,#244,.T.);
#623=EDGE_CURVE('',#496,#497,#400,.T.);
#624=EDGE_CURVE('',#498,#497,#401,.T.);
#625=EDGE_CURVE('',#498,#477,#245,.T.);
#626=EDGE_CURVE('',#499,#500,#402,.T.);
#627=EDGE_CURVE('',#499,#501,#246,.T.);
#628=EDGE_CURVE('',#502,#501,#403,.T.);
#629=EDGE_CURVE('',#500,#502,#247,.T.);
#630=EDGE_CURVE('',#503,#504,#404,.T.);
#631=EDGE_CURVE('',#480,#503,#248,.T.);
#632=EDGE_CURVE('',#479,#504,#249,.T.);
#633=EDGE_CURVE('',#499,#505,#405,.T.);
#634=EDGE_CURVE('',#506,#500,#406,.T.);
#635=EDGE_CURVE('',#506,#507,#407,.T.);
#636=EDGE_CURVE('',#507,#508,#250,.T.);
#637=EDGE_CURVE('',#508,#505,#408,.T.);
#638=EDGE_CURVE('',#509,#509,#409,.T.);
#639=EDGE_CURVE('',#510,#510,#410,.T.);
#640=EDGE_CURVE('',#510,#509,#251,.T.);
#641=EDGE_CURVE('',#511,#511,#411,.T.);
#642=EDGE_CURVE('',#511,#482,#252,.T.);
#643=EDGE_CURVE('',#512,#506,#253,.T.);
#644=EDGE_CURVE('',#513,#502,#412,.T.);
#645=EDGE_CURVE('',#498,#513,#254,.T.);
#646=EDGE_CURVE('',#497,#484,#255,.T.);
#647=EDGE_CURVE('',#481,#483,#256,.T.);
#648=EDGE_CURVE('',#503,#512,#413,.T.);
#649=EDGE_CURVE('',#514,#507,#257,.T.);
#650=EDGE_CURVE('',#514,#512,#414,.T.);
#651=EDGE_CURVE('',#514,#515,#258,.T.);
#652=EDGE_CURVE('',#508,#515,#259,.T.);
#653=EDGE_CURVE('',#516,#515,#415,.T.);
#654=EDGE_CURVE('',#505,#516,#260,.T.);
#655=EDGE_CURVE('',#516,#504,#416,.T.);
#656=EDGE_CURVE('',#478,#490,#261,.T.);
#657=EDGE_CURVE('',#489,#492,#262,.T.);
#658=EDGE_CURVE('',#491,#517,#263,.T.);
#659=EDGE_CURVE('',#501,#517,#417,.T.);
#660=EDGE_CURVE('',#488,#493,#264,.T.);
#661=EDGE_CURVE('',#487,#494,#265,.T.);
#662=EDGE_CURVE('',#486,#495,#266,.T.);
#663=EDGE_CURVE('',#496,#485,#267,.T.);
#664=EDGE_CURVE('',#517,#474,#268,.T.);
#665=EDGE_CURVE('',#475,#513,#269,.T.);
#666=EDGE_CURVE('',#518,#518,#418,.T.);
#667=EDGE_CURVE('',#519,#519,#419,.T.);
#668=EDGE_CURVE('',#520,#520,#420,.T.);
#669=EDGE_CURVE('',#520,#519,#270,.T.);
#670=EDGE_CURVE('',#521,#521,#421,.T.);
#671=EDGE_CURVE('',#521,#518,#271,.T.);
#672=ORIENTED_EDGE('',*,*,#522,.F.);
#673=ORIENTED_EDGE('',*,*,#523,.T.);
#674=ORIENTED_EDGE('',*,*,#524,.T.);
#675=ORIENTED_EDGE('',*,*,#523,.F.);
#676=ORIENTED_EDGE('',*,*,#525,.F.);
#677=ORIENTED_EDGE('',*,*,#524,.F.);
#678=ORIENTED_EDGE('',*,*,#526,.T.);
#679=ORIENTED_EDGE('',*,*,#527,.T.);
#680=ORIENTED_EDGE('',*,*,#525,.T.);
#681=ORIENTED_EDGE('',*,*,#527,.F.);
#682=ORIENTED_EDGE('',*,*,#526,.F.);
#683=ORIENTED_EDGE('',*,*,#522,.T.);
#684=ORIENTED_EDGE('',*,*,#528,.T.);
#685=ORIENTED_EDGE('',*,*,#529,.F.);
#686=ORIENTED_EDGE('',*,*,#530,.F.);
#687=ORIENTED_EDGE('',*,*,#531,.F.);
#688=ORIENTED_EDGE('',*,*,#531,.T.);
#689=ORIENTED_EDGE('',*,*,#532,.F.);
#690=ORIENTED_EDGE('',*,*,#533,.T.);
#691=ORIENTED_EDGE('',*,*,#534,.T.);
#692=ORIENTED_EDGE('',*,*,#535,.T.);
#693=ORIENTED_EDGE('',*,*,#536,.T.);
#694=ORIENTED_EDGE('',*,*,#537,.T.);
#695=ORIENTED_EDGE('',*,*,#538,.T.);
#696=ORIENTED_EDGE('',*,*,#529,.T.);
#697=ORIENTED_EDGE('',*,*,#539,.T.);
#698=ORIENTED_EDGE('',*,*,#540,.T.);
#699=ORIENTED_EDGE('',*,*,#541,.T.);
#700=ORIENTED_EDGE('',*,*,#542,.T.);
#701=ORIENTED_EDGE('',*,*,#543,.T.);
#702=ORIENTED_EDGE('',*,*,#544,.T.);
#703=ORIENTED_EDGE('',*,*,#545,.T.);
#704=ORIENTED_EDGE('',*,*,#534,.F.);
#705=ORIENTED_EDGE('',*,*,#546,.F.);
#706=ORIENTED_EDGE('',*,*,#547,.F.);
#707=ORIENTED_EDGE('',*,*,#548,.T.);
#708=ORIENTED_EDGE('',*,*,#546,.T.);
#709=ORIENTED_EDGE('',*,*,#533,.F.);
#710=ORIENTED_EDGE('',*,*,#549,.T.);
#711=ORIENTED_EDGE('',*,*,#542,.F.);
#712=ORIENTED_EDGE('',*,*,#550,.F.);
#713=ORIENTED_EDGE('',*,*,#548,.F.);
#714=ORIENTED_EDGE('',*,*,#551,.F.);
#715=ORIENTED_EDGE('',*,*,#552,.F.);
#716=ORIENTED_EDGE('',*,*,#553,.T.);
#717=ORIENTED_EDGE('',*,*,#554,.F.);
#718=ORIENTED_EDGE('',*,*,#547,.T.);
#719=ORIENTED_EDGE('',*,*,#555,.F.);
#720=ORIENTED_EDGE('',*,*,#552,.T.);
#721=ORIENTED_EDGE('',*,*,#556,.T.);
#722=ORIENTED_EDGE('',*,*,#540,.F.);
#723=ORIENTED_EDGE('',*,*,#557,.F.);
#724=ORIENTED_EDGE('',*,*,#537,.F.);
#725=ORIENTED_EDGE('',*,*,#558,.T.);
#726=ORIENTED_EDGE('',*,*,#545,.F.);
#727=ORIENTED_EDGE('',*,*,#554,.T.);
#728=ORIENTED_EDGE('',*,*,#559,.F.);
#729=ORIENTED_EDGE('',*,*,#535,.F.);
#730=ORIENTED_EDGE('',*,*,#559,.T.);
#731=ORIENTED_EDGE('',*,*,#553,.F.);
#732=ORIENTED_EDGE('',*,*,#558,.F.);
#733=ORIENTED_EDGE('',*,*,#536,.F.);
#734=ORIENTED_EDGE('',*,*,#544,.F.);
#735=ORIENTED_EDGE('',*,*,#560,.T.);
#736=ORIENTED_EDGE('',*,*,#555,.T.);
#737=ORIENTED_EDGE('',*,*,#560,.F.);
#738=ORIENTED_EDGE('',*,*,#551,.T.);
#739=ORIENTED_EDGE('',*,*,#550,.T.);
#740=ORIENTED_EDGE('',*,*,#541,.F.);
#741=ORIENTED_EDGE('',*,*,#556,.F.);
#742=ORIENTED_EDGE('',*,*,#532,.T.);
#743=ORIENTED_EDGE('',*,*,#530,.T.);
#744=ORIENTED_EDGE('',*,*,#543,.F.);
#745=ORIENTED_EDGE('',*,*,#549,.F.);
#746=ORIENTED_EDGE('',*,*,#538,.F.);
#747=ORIENTED_EDGE('',*,*,#557,.T.);
#748=ORIENTED_EDGE('',*,*,#539,.F.);
#749=ORIENTED_EDGE('',*,*,#528,.F.);
#750=ORIENTED_EDGE('',*,*,#561,.F.);
#751=ORIENTED_EDGE('',*,*,#562,.F.);
#752=ORIENTED_EDGE('',*,*,#563,.F.);
#753=ORIENTED_EDGE('',*,*,#564,.T.);
#754=ORIENTED_EDGE('',*,*,#563,.T.);
#755=ORIENTED_EDGE('',*,*,#565,.F.);
#756=ORIENTED_EDGE('',*,*,#566,.F.);
#757=ORIENTED_EDGE('',*,*,#567,.T.);
#758=ORIENTED_EDGE('',*,*,#568,.F.);
#759=ORIENTED_EDGE('',*,*,#569,.T.);
#760=ORIENTED_EDGE('',*,*,#570,.F.);
#761=ORIENTED_EDGE('',*,*,#571,.F.);
#762=ORIENTED_EDGE('',*,*,#572,.F.);
#763=ORIENTED_EDGE('',*,*,#567,.F.);
#764=ORIENTED_EDGE('',*,*,#573,.T.);
#765=ORIENTED_EDGE('',*,*,#574,.T.);
#766=ORIENTED_EDGE('',*,*,#575,.T.);
#767=ORIENTED_EDGE('',*,*,#576,.F.);
#768=ORIENTED_EDGE('',*,*,#571,.T.);
#769=ORIENTED_EDGE('',*,*,#577,.F.);
#770=ORIENTED_EDGE('',*,*,#578,.T.);
#771=ORIENTED_EDGE('',*,*,#579,.T.);
#772=ORIENTED_EDGE('',*,*,#579,.F.);
#773=ORIENTED_EDGE('',*,*,#580,.T.);
#774=ORIENTED_EDGE('',*,*,#570,.T.);
#775=ORIENTED_EDGE('',*,*,#580,.F.);
#776=ORIENTED_EDGE('',*,*,#581,.F.);
#777=ORIENTED_EDGE('',*,*,#574,.F.);
#778=ORIENTED_EDGE('',*,*,#582,.F.);
#779=ORIENTED_EDGE('',*,*,#583,.T.);
#780=ORIENTED_EDGE('',*,*,#581,.T.);
#781=ORIENTED_EDGE('',*,*,#584,.F.);
#782=ORIENTED_EDGE('',*,*,#585,.F.);
#783=ORIENTED_EDGE('',*,*,#575,.F.);
#784=ORIENTED_EDGE('',*,*,#585,.T.);
#785=ORIENTED_EDGE('',*,*,#586,.T.);
#786=ORIENTED_EDGE('',*,*,#587,.F.);
#787=ORIENTED_EDGE('',*,*,#568,.T.);
#788=ORIENTED_EDGE('',*,*,#572,.T.);
#789=ORIENTED_EDGE('',*,*,#576,.T.);
#790=ORIENTED_EDGE('',*,*,#588,.T.);
#791=ORIENTED_EDGE('',*,*,#577,.T.);
#792=ORIENTED_EDGE('',*,*,#573,.F.);
#793=ORIENTED_EDGE('',*,*,#566,.T.);
#794=ORIENTED_EDGE('',*,*,#589,.T.);
#795=ORIENTED_EDGE('',*,*,#590,.T.);
#796=ORIENTED_EDGE('',*,*,#582,.T.);
#797=ORIENTED_EDGE('',*,*,#578,.F.);
#798=ORIENTED_EDGE('',*,*,#588,.F.);
#799=ORIENTED_EDGE('',*,*,#591,.F.);
#800=ORIENTED_EDGE('',*,*,#565,.T.);
#801=ORIENTED_EDGE('',*,*,#562,.T.);
#802=ORIENTED_EDGE('',*,*,#592,.F.);
#803=ORIENTED_EDGE('',*,*,#589,.F.);
#804=ORIENTED_EDGE('',*,*,#569,.F.);
#805=ORIENTED_EDGE('',*,*,#587,.T.);
#806=ORIENTED_EDGE('',*,*,#593,.F.);
#807=ORIENTED_EDGE('',*,*,#564,.F.);
#808=ORIENTED_EDGE('',*,*,#561,.T.);
#809=ORIENTED_EDGE('',*,*,#593,.T.);
#810=ORIENTED_EDGE('',*,*,#586,.F.);
#811=ORIENTED_EDGE('',*,*,#584,.T.);
#812=ORIENTED_EDGE('',*,*,#583,.F.);
#813=ORIENTED_EDGE('',*,*,#591,.T.);
#814=ORIENTED_EDGE('',*,*,#590,.F.);
#815=ORIENTED_EDGE('',*,*,#592,.T.);
#816=ORIENTED_EDGE('',*,*,#594,.T.);
#817=ORIENTED_EDGE('',*,*,#595,.F.);
#818=ORIENTED_EDGE('',*,*,#596,.F.);
#819=ORIENTED_EDGE('',*,*,#597,.F.);
#820=ORIENTED_EDGE('',*,*,#598,.F.);
#821=ORIENTED_EDGE('',*,*,#599,.F.);
#822=ORIENTED_EDGE('',*,*,#600,.F.);
#823=ORIENTED_EDGE('',*,*,#601,.T.);
#824=ORIENTED_EDGE('',*,*,#597,.T.);
#825=ORIENTED_EDGE('',*,*,#602,.F.);
#826=ORIENTED_EDGE('',*,*,#603,.F.);
#827=ORIENTED_EDGE('',*,*,#604,.T.);
#828=ORIENTED_EDGE('',*,*,#605,.F.);
#829=ORIENTED_EDGE('',*,*,#606,.T.);
#830=ORIENTED_EDGE('',*,*,#607,.F.);
#831=ORIENTED_EDGE('',*,*,#595,.T.);
#832=ORIENTED_EDGE('',*,*,#608,.T.);
#833=ORIENTED_EDGE('',*,*,#609,.F.);
#834=ORIENTED_EDGE('',*,*,#610,.T.);
#835=ORIENTED_EDGE('',*,*,#611,.T.);
#836=ORIENTED_EDGE('',*,*,#612,.T.);
#837=ORIENTED_EDGE('',*,*,#613,.T.);
#838=ORIENTED_EDGE('',*,*,#614,.T.);
#839=ORIENTED_EDGE('',*,*,#615,.F.);
#840=ORIENTED_EDGE('',*,*,#616,.T.);
#841=ORIENTED_EDGE('',*,*,#600,.T.);
#842=ORIENTED_EDGE('',*,*,#617,.F.);
#843=ORIENTED_EDGE('',*,*,#618,.F.);
#844=ORIENTED_EDGE('',*,*,#619,.T.);
#845=ORIENTED_EDGE('',*,*,#620,.F.);
#846=ORIENTED_EDGE('',*,*,#621,.T.);
#847=ORIENTED_EDGE('',*,*,#622,.F.);
#848=ORIENTED_EDGE('',*,*,#623,.T.);
#849=ORIENTED_EDGE('',*,*,#624,.F.);
#850=ORIENTED_EDGE('',*,*,#625,.T.);
#851=ORIENTED_EDGE('',*,*,#626,.F.);
#852=ORIENTED_EDGE('',*,*,#627,.T.);
#853=ORIENTED_EDGE('',*,*,#628,.F.);
#854=ORIENTED_EDGE('',*,*,#629,.F.);
#855=ORIENTED_EDGE('',*,*,#630,.F.);
#856=ORIENTED_EDGE('',*,*,#631,.F.);
#857=ORIENTED_EDGE('',*,*,#604,.F.);
#858=ORIENTED_EDGE('',*,*,#632,.T.);
#859=ORIENTED_EDGE('',*,*,#633,.F.);
#860=ORIENTED_EDGE('',*,*,#626,.T.);
#861=ORIENTED_EDGE('',*,*,#634,.F.);
#862=ORIENTED_EDGE('',*,*,#635,.T.);
#863=ORIENTED_EDGE('',*,*,#636,.T.);
#864=ORIENTED_EDGE('',*,*,#637,.T.);
#865=ORIENTED_EDGE('',*,*,#638,.F.);
#866=ORIENTED_EDGE('',*,*,#639,.F.);
#867=ORIENTED_EDGE('',*,*,#640,.T.);
#868=ORIENTED_EDGE('',*,*,#638,.T.);
#869=ORIENTED_EDGE('',*,*,#640,.F.);
#870=ORIENTED_EDGE('',*,*,#641,.F.);
#871=ORIENTED_EDGE('',*,*,#642,.T.);
#872=ORIENTED_EDGE('',*,*,#607,.T.);
#873=ORIENTED_EDGE('',*,*,#642,.F.);
#874=ORIENTED_EDGE('',*,*,#643,.T.);
#875=ORIENTED_EDGE('',*,*,#634,.T.);
#876=ORIENTED_EDGE('',*,*,#629,.T.);
#877=ORIENTED_EDGE('',*,*,#644,.F.);
#878=ORIENTED_EDGE('',*,*,#645,.F.);
#879=ORIENTED_EDGE('',*,*,#624,.T.);
#880=ORIENTED_EDGE('',*,*,#646,.T.);
#881=ORIENTED_EDGE('',*,*,#609,.T.);
#882=ORIENTED_EDGE('',*,*,#647,.F.);
#883=ORIENTED_EDGE('',*,*,#605,.T.);
#884=ORIENTED_EDGE('',*,*,#631,.T.);
#885=ORIENTED_EDGE('',*,*,#648,.T.);
#886=ORIENTED_EDGE('',*,*,#649,.T.);
#887=ORIENTED_EDGE('',*,*,#635,.F.);
#888=ORIENTED_EDGE('',*,*,#643,.F.);
#889=ORIENTED_EDGE('',*,*,#650,.F.);
#890=ORIENTED_EDGE('',*,*,#649,.F.);
#891=ORIENTED_EDGE('',*,*,#651,.T.);
#892=ORIENTED_EDGE('',*,*,#652,.F.);
#893=ORIENTED_EDGE('',*,*,#636,.F.);
#894=ORIENTED_EDGE('',*,*,#652,.T.);
#895=ORIENTED_EDGE('',*,*,#653,.F.);
#896=ORIENTED_EDGE('',*,*,#654,.F.);
#897=ORIENTED_EDGE('',*,*,#637,.F.);
#898=ORIENTED_EDGE('',*,*,#654,.T.);
#899=ORIENTED_EDGE('',*,*,#655,.T.);
#900=ORIENTED_EDGE('',*,*,#632,.F.);
#901=ORIENTED_EDGE('',*,*,#603,.T.);
#902=ORIENTED_EDGE('',*,*,#656,.T.);
#903=ORIENTED_EDGE('',*,*,#615,.T.);
#904=ORIENTED_EDGE('',*,*,#657,.T.);
#905=ORIENTED_EDGE('',*,*,#618,.T.);
#906=ORIENTED_EDGE('',*,*,#658,.T.);
#907=ORIENTED_EDGE('',*,*,#659,.F.);
#908=ORIENTED_EDGE('',*,*,#627,.F.);
#909=ORIENTED_EDGE('',*,*,#633,.T.);
#910=ORIENTED_EDGE('',*,*,#660,.T.);
#911=ORIENTED_EDGE('',*,*,#619,.F.);
#912=ORIENTED_EDGE('',*,*,#657,.F.);
#913=ORIENTED_EDGE('',*,*,#614,.F.);
#914=ORIENTED_EDGE('',*,*,#661,.T.);
#915=ORIENTED_EDGE('',*,*,#620,.T.);
#916=ORIENTED_EDGE('',*,*,#660,.F.);
#917=ORIENTED_EDGE('',*,*,#613,.F.);
#918=ORIENTED_EDGE('',*,*,#662,.T.);
#919=ORIENTED_EDGE('',*,*,#621,.F.);
#920=ORIENTED_EDGE('',*,*,#661,.F.);
#921=ORIENTED_EDGE('',*,*,#612,.F.);
#922=ORIENTED_EDGE('',*,*,#663,.F.);
#923=ORIENTED_EDGE('',*,*,#622,.T.);
#924=ORIENTED_EDGE('',*,*,#662,.F.);
#925=ORIENTED_EDGE('',*,*,#611,.F.);
#926=ORIENTED_EDGE('',*,*,#663,.T.);
#927=ORIENTED_EDGE('',*,*,#610,.F.);
#928=ORIENTED_EDGE('',*,*,#646,.F.);
#929=ORIENTED_EDGE('',*,*,#623,.F.);
#930=ORIENTED_EDGE('',*,*,#651,.F.);
#931=ORIENTED_EDGE('',*,*,#650,.T.);
#932=ORIENTED_EDGE('',*,*,#648,.F.);
#933=ORIENTED_EDGE('',*,*,#630,.T.);
#934=ORIENTED_EDGE('',*,*,#655,.F.);
#935=ORIENTED_EDGE('',*,*,#653,.T.);
#936=ORIENTED_EDGE('',*,*,#641,.T.);
#937=ORIENTED_EDGE('',*,*,#602,.T.);
#938=ORIENTED_EDGE('',*,*,#596,.T.);
#939=ORIENTED_EDGE('',*,*,#616,.F.);
#940=ORIENTED_EDGE('',*,*,#656,.F.);
#941=ORIENTED_EDGE('',*,*,#606,.F.);
#942=ORIENTED_EDGE('',*,*,#647,.T.);
#943=ORIENTED_EDGE('',*,*,#608,.F.);
#944=ORIENTED_EDGE('',*,*,#594,.F.);
#945=ORIENTED_EDGE('',*,*,#617,.T.);
#946=ORIENTED_EDGE('',*,*,#599,.T.);
#947=ORIENTED_EDGE('',*,*,#664,.F.);
#948=ORIENTED_EDGE('',*,*,#658,.F.);
#949=ORIENTED_EDGE('',*,*,#625,.F.);
#950=ORIENTED_EDGE('',*,*,#645,.T.);
#951=ORIENTED_EDGE('',*,*,#665,.F.);
#952=ORIENTED_EDGE('',*,*,#601,.F.);
#953=ORIENTED_EDGE('',*,*,#598,.T.);
#954=ORIENTED_EDGE('',*,*,#665,.T.);
#955=ORIENTED_EDGE('',*,*,#644,.T.);
#956=ORIENTED_EDGE('',*,*,#628,.T.);
#957=ORIENTED_EDGE('',*,*,#659,.T.);
#958=ORIENTED_EDGE('',*,*,#664,.T.);
#959=ORIENTED_EDGE('',*,*,#639,.T.);
#960=ORIENTED_EDGE('',*,*,#666,.F.);
#961=ORIENTED_EDGE('',*,*,#667,.F.);
#962=ORIENTED_EDGE('',*,*,#668,.F.);
#963=ORIENTED_EDGE('',*,*,#669,.T.);
#964=ORIENTED_EDGE('',*,*,#667,.T.);
#965=ORIENTED_EDGE('',*,*,#669,.F.);
#966=ORIENTED_EDGE('',*,*,#670,.T.);
#967=ORIENTED_EDGE('',*,*,#671,.T.);
#968=ORIENTED_EDGE('',*,*,#666,.T.);
#969=ORIENTED_EDGE('',*,*,#671,.F.);
#970=ORIENTED_EDGE('',*,*,#670,.F.);
#971=ORIENTED_EDGE('',*,*,#668,.T.);
#972=CYLINDRICAL_SURFACE('',#1081,2.5);
#973=CYLINDRICAL_SURFACE('',#1086,5.);
#974=CYLINDRICAL_SURFACE('',#1089,5.00000000000729);
#975=CYLINDRICAL_SURFACE('',#1102,1.);
#976=CYLINDRICAL_SURFACE('',#1104,35.5);
#977=CYLINDRICAL_SURFACE('',#1111,35.5);
#978=CYLINDRICAL_SURFACE('',#1113,1.);
#979=CYLINDRICAL_SURFACE('',#1114,2.5);
#980=CYLINDRICAL_SURFACE('',#1115,5.);
#981=CYLINDRICAL_SURFACE('',#1118,5.00000000000729);
#982=CYLINDRICAL_SURFACE('',#1126,5.);
#983=CYLINDRICAL_SURFACE('',#1134,2.5);
#984=CYLINDRICAL_SURFACE('',#1136,1.);
#985=CYLINDRICAL_SURFACE('',#1138,35.5);
#986=CYLINDRICAL_SURFACE('',#1140,35.5);
#987=CYLINDRICAL_SURFACE('',#1142,1.);
#988=CYLINDRICAL_SURFACE('',#1147,5.00000000000729);
#989=CYLINDRICAL_SURFACE('',#1150,5.00000000000729);
#990=CYLINDRICAL_SURFACE('',#1170,5.);
#991=CYLINDRICAL_SURFACE('',#1173,5.);
#992=CYLINDRICAL_SURFACE('',#1181,2.5);
#993=CYLINDRICAL_SURFACE('',#1183,2.5);
#994=CYLINDRICAL_SURFACE('',#1185,70.);
#995=CYLINDRICAL_SURFACE('',#1188,1.);
#996=CYLINDRICAL_SURFACE('',#1191,1.);
#997=CYLINDRICAL_SURFACE('',#1193,35.);
#998=CYLINDRICAL_SURFACE('',#1196,2.);
#999=CYLINDRICAL_SURFACE('',#1198,1.);
#1000=CYLINDRICAL_SURFACE('',#1200,1.);
#1001=CYLINDRICAL_SURFACE('',#1210,2.5);
#1002=CYLINDRICAL_SURFACE('',#1212,5.);
#1003=ADVANCED_FACE('',(#64),#972,.F.);
#1004=ADVANCED_FACE('',(#65,#23),#35,.F.);
#1005=ADVANCED_FACE('',(#66),#973,.T.);
#1006=ADVANCED_FACE('',(#67,#24),#36,.T.);
#1007=ADVANCED_FACE('',(#68),#974,.F.);
#1008=ADVANCED_FACE('',(#69),#37,.T.);
#1009=ADVANCED_FACE('',(#70,#25),#38,.F.);
#1010=ADVANCED_FACE('',(#71),#975,.T.);
#1011=ADVANCED_FACE('',(#72),#976,.F.);
#1012=ADVANCED_FACE('',(#73,#26),#39,.F.);
#1013=ADVANCED_FACE('',(#74),#977,.F.);
#1014=ADVANCED_FACE('',(#75),#40,.F.);
#1015=ADVANCED_FACE('',(#76),#978,.T.);
#1016=ADVANCED_FACE('',(#77),#979,.F.);
#1017=ADVANCED_FACE('',(#78),#980,.T.);
#1018=ADVANCED_FACE('',(#79),#41,.T.);
#1019=ADVANCED_FACE('',(#80),#42,.T.);
#1020=ADVANCED_FACE('',(#81),#981,.F.);
#1021=ADVANCED_FACE('',(#82,#27),#43,.F.);
#1022=ADVANCED_FACE('',(#83),#982,.T.);
#1023=ADVANCED_FACE('',(#84,#28),#44,.T.);
#1024=ADVANCED_FACE('',(#85),#983,.F.);
#1025=ADVANCED_FACE('',(#86),#45,.F.);
#1026=ADVANCED_FACE('',(#87),#984,.T.);
#1027=ADVANCED_FACE('',(#88),#985,.F.);
#1028=ADVANCED_FACE('',(#89),#986,.F.);
#1029=ADVANCED_FACE('',(#90),#987,.T.);
#1030=ADVANCED_FACE('',(#91),#46,.T.);
#1031=ADVANCED_FACE('',(#92),#47,.T.);
#1032=ADVANCED_FACE('',(#93),#48,.T.);
#1033=ADVANCED_FACE('',(#94),#988,.F.);
#1034=ADVANCED_FACE('',(#95),#989,.F.);
#1035=ADVANCED_FACE('',(#96,#29),#49,.F.);
#1036=ADVANCED_FACE('',(#97),#50,.T.);
#1037=ADVANCED_FACE('',(#98),#51,.T.);
#1038=ADVANCED_FACE('',(#99),#990,.T.);
#1039=ADVANCED_FACE('',(#100),#991,.T.);
#1040=ADVANCED_FACE('',(#101,#30),#52,.T.);
#1041=ADVANCED_FACE('',(#102),#992,.F.);
#1042=ADVANCED_FACE('',(#103),#993,.F.);
#1043=ADVANCED_FACE('',(#104),#994,.F.);
#1044=ADVANCED_FACE('',(#105),#995,.T.);
#1045=ADVANCED_FACE('',(#106),#53,.F.);
#1046=ADVANCED_FACE('',(#107),#996,.T.);
#1047=ADVANCED_FACE('',(#108),#997,.F.);
#1048=ADVANCED_FACE('',(#109),#998,.T.);
#1049=ADVANCED_FACE('',(#110),#54,.F.);
#1050=ADVANCED_FACE('',(#111),#999,.T.);
#1051=ADVANCED_FACE('',(#112),#55,.F.);
#1052=ADVANCED_FACE('',(#113),#1000,.T.);
#1053=ADVANCED_FACE('',(#114,#31),#56,.F.);
#1054=ADVANCED_FACE('',(#115),#57,.T.);
#1055=ADVANCED_FACE('',(#116),#58,.T.);
#1056=ADVANCED_FACE('',(#117),#59,.T.);
#1057=ADVANCED_FACE('',(#118),#60,.T.);
#1058=ADVANCED_FACE('',(#119,#32),#61,.F.);
#1059=ADVANCED_FACE('',(#120,#33),#62,.T.);
#1060=ADVANCED_FACE('',(#121),#1001,.F.);
#1061=ADVANCED_FACE('',(#122),#1002,.T.);
#1062=ADVANCED_FACE('',(#123,#34),#63,.F.);
#1063=CLOSED_SHELL('',(#1003,#1004,#1005,#1006));
#1064=CLOSED_SHELL('',(#1007,#1008,#1009,#1010,#1011,#1012,#1013,#1014,
#1015,#1016,#1017,#1018,#1019));
#1065=CLOSED_SHELL('',(#1020,#1021,#1022,#1023,#1024,#1025,#1026,#1027,
#1028,#1029,#1030,#1031,#1032));
#1066=CLOSED_SHELL('',(#1033,#1034,#1035,#1036,#1037,#1038,#1039,#1040,
#1041,#1042,#1043,#1044,#1045,#1046,#1047,#1048,#1049,#1050,#1051,#1052,
#1053,#1054,#1055,#1056,#1057,#1058));
#1067=CLOSED_SHELL('',(#1059,#1060,#1061,#1062));
#1068=DERIVED_UNIT_ELEMENT(#1070,1.);
#1069=DERIVED_UNIT_ELEMENT(#1877,-3.);
#1070=(
MASS_UNIT()
NAMED_UNIT(*)
SI_UNIT(.KILO.,.GRAM.)
);
#1071=DERIVED_UNIT((#1068,#1069));
#1072=MEASURE_REPRESENTATION_ITEM('density measure',
POSITIVE_RATIO_MEASURE(7850.),#1071);
#1073=PROPERTY_DEFINITION_REPRESENTATION(#1078,#1075);
#1074=PROPERTY_DEFINITION_REPRESENTATION(#1079,#1076);
#1075=REPRESENTATION('material name',(#1077),#1874);
#1076=REPRESENTATION('density',(#1072),#1874);
#1077=DESCRIPTIVE_REPRESENTATION_ITEM('Acier','Acier');
#1078=PROPERTY_DEFINITION('material property','material name',#1884);
#1079=PROPERTY_DEFINITION('material property','density of part',#1884);
#1080=AXIS2_PLACEMENT_3D('',#1561,#1215,#1216);
#1081=AXIS2_PLACEMENT_3D('',#1562,#1217,#1218);
#1082=AXIS2_PLACEMENT_3D('',#1564,#1219,#1220);
#1083=AXIS2_PLACEMENT_3D('',#1567,#1222,#1223);
#1084=AXIS2_PLACEMENT_3D('',#1568,#1224,#1225);
#1085=AXIS2_PLACEMENT_3D('',#1570,#1226,#1227);
#1086=AXIS2_PLACEMENT_3D('',#1571,#1228,#1229);
#1087=AXIS2_PLACEMENT_3D('',#1573,#1230,#1231);
#1088=AXIS2_PLACEMENT_3D('',#1575,#1233,#1234);
#1089=AXIS2_PLACEMENT_3D('',#1576,#1235,#1236);
#1090=AXIS2_PLACEMENT_3D('',#1581,#1238,#1239);
#1091=AXIS2_PLACEMENT_3D('',#1584,#1241,#1242);
#1092=AXIS2_PLACEMENT_3D('',#1585,#1243,#1244);
#1093=AXIS2_PLACEMENT_3D('',#1589,#1246,#1247);
#1094=AXIS2_PLACEMENT_3D('',#1591,#1248,#1249);
#1095=AXIS2_PLACEMENT_3D('',#1595,#1251,#1252);
#1096=AXIS2_PLACEMENT_3D('',#1597,#1253,#1254);
#1097=AXIS2_PLACEMENT_3D('',#1599,#1256,#1257);
#1098=AXIS2_PLACEMENT_3D('',#1603,#1259,#1260);
#1099=AXIS2_PLACEMENT_3D('',#1605,#1261,#1262);
#1100=AXIS2_PLACEMENT_3D('',#1607,#1263,#1264);
#1101=AXIS2_PLACEMENT_3D('',#1610,#1266,#1267);
#1102=AXIS2_PLACEMENT_3D('',#1611,#1268,#1269);
#1103=AXIS2_PLACEMENT_3D('',#1616,#1272,#1273);
#1104=AXIS2_PLACEMENT_3D('',#1617,#1274,#1275);
#1105=AXIS2_PLACEMENT_3D('',#1619,#1276,#1277);
#1106=AXIS2_PLACEMENT_3D('',#1622,#1280,#1281);
#1107=AXIS2_PLACEMENT_3D('',#1624,#1282,#1283);
#1108=AXIS2_PLACEMENT_3D('',#1626,#1284,#1285);
#1109=AXIS2_PLACEMENT_3D('',#1628,#1286,#1287);
#1110=AXIS2_PLACEMENT_3D('',#1631,#1289,#1290);
#1111=AXIS2_PLACEMENT_3D('',#1632,#1291,#1292);
#1112=AXIS2_PLACEMENT_3D('',#1636,#1296,#1297);
#1113=AXIS2_PLACEMENT_3D('',#1638,#1299,#1300);
#1114=AXIS2_PLACEMENT_3D('',#1639,#1301,#1302);
#1115=AXIS2_PLACEMENT_3D('',#1641,#1304,#1305);
#1116=AXIS2_PLACEMENT_3D('',#1642,#1306,#1307);
#1117=AXIS2_PLACEMENT_3D('',#1643,#1308,#1309);
#1118=AXIS2_PLACEMENT_3D('',#1644,#1310,#1311);
#1119=AXIS2_PLACEMENT_3D('',#1647,#1312,#1313);
#1120=AXIS2_PLACEMENT_3D('',#1651,#1315,#1316);
#1121=AXIS2_PLACEMENT_3D('',#1653,#1318,#1319);
#1122=AXIS2_PLACEMENT_3D('',#1657,#1321,#1322);
#1123=AXIS2_PLACEMENT_3D('',#1659,#1323,#1324);
#1124=AXIS2_PLACEMENT_3D('',#1661,#1325,#1326);
#1125=AXIS2_PLACEMENT_3D('',#1664,#1328,#1329);
#1126=AXIS2_PLACEMENT_3D('',#1665,#1330,#1331);
#1127=AXIS2_PLACEMENT_3D('',#1668,#1332,#1333);
#1128=AXIS2_PLACEMENT_3D('',#1671,#1336,#1337);
#1129=AXIS2_PLACEMENT_3D('',#1676,#1339,#1340);
#1130=AXIS2_PLACEMENT_3D('',#1677,#1341,#1342);
#1131=AXIS2_PLACEMENT_3D('',#1679,#1343,#1344);
#1132=AXIS2_PLACEMENT_3D('',#1680,#1345,#1346);
#1133=AXIS2_PLACEMENT_3D('',#1682,#1347,#1348);
#1134=AXIS2_PLACEMENT_3D('',#1683,#1349,#1350);
#1135=AXIS2_PLACEMENT_3D('',#1685,#1352,#1353);
#1136=AXIS2_PLACEMENT_3D('',#1691,#1357,#1358);
#1137=AXIS2_PLACEMENT_3D('',#1693,#1359,#1360);
#1138=AXIS2_PLACEMENT_3D('',#1695,#1362,#1363);
#1139=AXIS2_PLACEMENT_3D('',#1697,#1364,#1365);
#1140=AXIS2_PLACEMENT_3D('',#1699,#1367,#1368);
#1141=AXIS2_PLACEMENT_3D('',#1704,#1371,#1372);
#1142=AXIS2_PLACEMENT_3D('',#1705,#1373,#1374);
#1143=AXIS2_PLACEMENT_3D('',#1706,#1375,#1376);
#1144=AXIS2_PLACEMENT_3D('',#1707,#1377,#1378);
#1145=AXIS2_PLACEMENT_3D('',#1709,#1380,#1381);
#1146=AXIS2_PLACEMENT_3D('',#1711,#1383,#1384);
#1147=AXIS2_PLACEMENT_3D('',#1712,#1385,#1386);
#1148=AXIS2_PLACEMENT_3D('',#1717,#1388,#1389);
#1149=AXIS2_PLACEMENT_3D('',#1720,#1391,#1392);
#1150=AXIS2_PLACEMENT_3D('',#1721,#1393,#1394);
#1151=AXIS2_PLACEMENT_3D('',#1724,#1395,#1396);
#1152=AXIS2_PLACEMENT_3D('',#1728,#1398,#1399);
#1153=AXIS2_PLACEMENT_3D('',#1730,#1401,#1402);
#1154=AXIS2_PLACEMENT_3D('',#1734,#1404,#1405);
#1155=AXIS2_PLACEMENT_3D('',#1736,#1406,#1407);
#1156=AXIS2_PLACEMENT_3D('',#1738,#1408,#1409);
#1157=AXIS2_PLACEMENT_3D('',#1741,#1411,#1412);
#1158=AXIS2_PLACEMENT_3D('',#1742,#1413,#1414);
#1159=AXIS2_PLACEMENT_3D('',#1746,#1416,#1417);
#1160=AXIS2_PLACEMENT_3D('',#1748,#1418,#1419);
#1161=AXIS2_PLACEMENT_3D('',#1752,#1421,#1422);
#1162=AXIS2_PLACEMENT_3D('',#1756,#1424,#1425);
#1163=AXIS2_PLACEMENT_3D('',#1758,#1426,#1427);
#1164=AXIS2_PLACEMENT_3D('',#1760,#1429,#1430);
#1165=AXIS2_PLACEMENT_3D('',#1764,#1432,#1433);
#1166=AXIS2_PLACEMENT_3D('',#1766,#1434,#1435);
#1167=AXIS2_PLACEMENT_3D('',#1770,#1437,#1438);
#1168=AXIS2_PLACEMENT_3D('',#1774,#1440,#1441);
#1169=AXIS2_PLACEMENT_3D('',#1776,#1442,#1443);
#1170=AXIS2_PLACEMENT_3D('',#1778,#1445,#1446);
#1171=AXIS2_PLACEMENT_3D('',#1781,#1447,#1448);
#1172=AXIS2_PLACEMENT_3D('',#1785,#1450,#1451);
#1173=AXIS2_PLACEMENT_3D('',#1787,#1453,#1454);
#1174=AXIS2_PLACEMENT_3D('',#1790,#1455,#1456);
#1175=AXIS2_PLACEMENT_3D('',#1793,#1459,#1460);
#1176=AXIS2_PLACEMENT_3D('',#1795,#1461,#1462);
#1177=AXIS2_PLACEMENT_3D('',#1797,#1463,#1464);
#1178=AXIS2_PLACEMENT_3D('',#1799,#1465,#1466);
#1179=AXIS2_PLACEMENT_3D('',#1802,#1468,#1469);
#1180=AXIS2_PLACEMENT_3D('',#1804,#1470,#1471);
#1181=AXIS2_PLACEMENT_3D('',#1805,#1472,#1473);
#1182=AXIS2_PLACEMENT_3D('',#1807,#1474,#1475);
#1183=AXIS2_PLACEMENT_3D('',#1809,#1477,#1478);
#1184=AXIS2_PLACEMENT_3D('',#1811,#1479,#1480);
#1185=AXIS2_PLACEMENT_3D('',#1813,#1482,#1483);
#1186=AXIS2_PLACEMENT_3D('',#1817,#1485,#1486);
#1187=AXIS2_PLACEMENT_3D('',#1821,#1490,#1491);
#1188=AXIS2_PLACEMENT_3D('',#1822,#1492,#1493);
#1189=AXIS2_PLACEMENT_3D('',#1825,#1495,#1496);
#1190=AXIS2_PLACEMENT_3D('',#1826,#1497,#1498);
#1191=AXIS2_PLACEMENT_3D('',#1830,#1501,#1502);
#1192=AXIS2_PLACEMENT_3D('',#1832,#1503,#1504);
#1193=AXIS2_PLACEMENT_3D('',#1834,#1506,#1507);
#1194=AXIS2_PLACEMENT_3D('',#1835,#1508,#1509);
#1195=AXIS2_PLACEMENT_3D('',#1840,#1513,#1514);
#1196=AXIS2_PLACEMENT_3D('',#1841,#1515,#1516);
#1197=AXIS2_PLACEMENT_3D('',#1843,#1518,#1519);
#1198=AXIS2_PLACEMENT_3D('',#1845,#1521,#1522);
#1199=AXIS2_PLACEMENT_3D('',#1847,#1524,#1525);
#1200=AXIS2_PLACEMENT_3D('',#1849,#1527,#1528);
#1201=AXIS2_PLACEMENT_3D('',#1850,#1529,#1530);
#1202=AXIS2_PLACEMENT_3D('',#1851,#1531,#1532);
#1203=AXIS2_PLACEMENT_3D('',#1852,#1533,#1534);
#1204=AXIS2_PLACEMENT_3D('',#1853,#1535,#1536);
#1205=AXIS2_PLACEMENT_3D('',#1855,#1538,#1539);
#1206=AXIS2_PLACEMENT_3D('',#1857,#1541,#1542);
#1207=AXIS2_PLACEMENT_3D('',#1858,#1543,#1544);
#1208=AXIS2_PLACEMENT_3D('',#1860,#1545,#1546);
#1209=AXIS2_PLACEMENT_3D('',#1862,#1547,#1548);
#1210=AXIS2_PLACEMENT_3D('',#1863,#1549,#1550);
#1211=AXIS2_PLACEMENT_3D('',#1865,#1551,#1552);
#1212=AXIS2_PLACEMENT_3D('',#1867,#1554,#1555);
#1213=AXIS2_PLACEMENT_3D('',#1869,#1556,#1557);
#1214=AXIS2_PLACEMENT_3D('',#1871,#1559,#1560);
#1215=DIRECTION('axis',(0.,0.,1.));
#1216=DIRECTION('refdir',(1.,0.,0.));
#1217=DIRECTION('center_axis',(0.,0.,-1.));
#1218=DIRECTION('ref_axis',(0.,-1.,0.));
#1219=DIRECTION('center_axis',(0.,0.,-1.));
#1220=DIRECTION('ref_axis',(0.,-1.,0.));
#1221=DIRECTION('',(0.,0.,-1.));
#1222=DIRECTION('center_axis',(0.,0.,-1.));
#1223=DIRECTION('ref_axis',(0.,-1.,0.));
#1224=DIRECTION('center_axis',(0.,0.,1.));
#1225=DIRECTION('ref_axis',(0.,1.,0.));
#1226=DIRECTION('center_axis',(0.,0.,1.));
#1227=DIRECTION('ref_axis',(-1.,0.,0.));
#1228=DIRECTION('center_axis',(0.,0.,1.));
#1229=DIRECTION('ref_axis',(0.,1.,0.));
#1230=DIRECTION('center_axis',(0.,0.,-1.));
#1231=DIRECTION('ref_axis',(-1.,0.,0.));
#1232=DIRECTION('',(0.,0.,-1.));
#1233=DIRECTION('center_axis',(0.,0.,1.));
#1234=DIRECTION('ref_axis',(0.,-1.,0.));
#1235=DIRECTION('center_axis',(0.,0.,-1.));
#1236=DIRECTION('ref_axis',(-0.984807753012208,-0.17364817766693,0.));
#1237=DIRECTION('',(0.,0.,1.));
#1238=DIRECTION('center_axis',(0.,0.,-1.));
#1239=DIRECTION('ref_axis',(-0.984807753012208,-0.17364817766693,0.));
#1240=DIRECTION('',(0.,0.,1.));
#1241=DIRECTION('center_axis',(0.,0.,1.));
#1242=DIRECTION('ref_axis',(-0.984807753012208,-0.17364817766693,0.));
#1243=DIRECTION('center_axis',(0.,0.,-1.));
#1244=DIRECTION('ref_axis',(-0.984807753012208,-0.17364817766693,0.));
#1245=DIRECTION('',(-0.189866288789898,-0.981809957365045,0.));
#1246=DIRECTION('center_axis',(0.,0.,1.));
#1247=DIRECTION('ref_axis',(0.864070604595366,-0.503370629133444,0.));
#1248=DIRECTION('center_axis',(0.,0.,-1.));
#1249=DIRECTION('ref_axis',(-0.989237104132542,0.14632139900733,0.));
#1250=DIRECTION('',(0.766044443118991,0.642787609686523,0.));
#1251=DIRECTION('center_axis',(0.,0.,-1.));
#1252=DIRECTION('ref_axis',(-0.642787609686524,0.766044443118991,0.));
#1253=DIRECTION('center_axis',(0.,0.,1.));
#1254=DIRECTION('ref_axis',(-0.951531014208603,0.307552806846477,0.));
#1255=DIRECTION('',(-0.226265689415798,-0.974065622939848,0.));
#1256=DIRECTION('center_axis',(0.,0.,-1.));
#1257=DIRECTION('ref_axis',(-0.984807753012208,-0.17364817766693,0.));
#1258=DIRECTION('',(0.226265689415798,0.974065622939848,0.));
#1259=DIRECTION('center_axis',(0.,0.,-1.));
#1260=DIRECTION('ref_axis',(-0.98412366569844,-0.177484113689834,0.));
#1261=DIRECTION('center_axis',(0.,0.,1.));
#1262=DIRECTION('ref_axis',(0.864070604595366,-0.503370629133444,0.));
#1263=DIRECTION('center_axis',(0.,0.,-1.));
#1264=DIRECTION('ref_axis',(0.98412366569844,0.177484113689834,0.));
#1265=DIRECTION('',(-0.189866288789898,-0.981809957365045,0.));
#1266=DIRECTION('center_axis',(0.,0.,-1.));
#1267=DIRECTION('ref_axis',(0.258819045102521,-0.965925826289068,0.));
#1268=DIRECTION('center_axis',(0.,0.,-1.));
#1269=DIRECTION('ref_axis',(-0.989237104132542,0.14632139900733,0.));
#1270=DIRECTION('',(2.37752233186282E-14,2.10827112780109E-14,-1.));
#1271=DIRECTION('',(-2.37537237586979E-16,-8.83366042504833E-14,-1.));
#1272=DIRECTION('center_axis',(0.,0.,1.));
#1273=DIRECTION('ref_axis',(-0.642787609686524,0.766044443118991,0.));
#1274=DIRECTION('center_axis',(0.,0.,1.));
#1275=DIRECTION('ref_axis',(-0.258819045102521,0.965925826289068,0.));
#1276=DIRECTION('center_axis',(0.,0.,-1.));
#1277=DIRECTION('ref_axis',(0.98412366569844,0.177484113689834,0.));
#1278=DIRECTION('',(0.,0.,1.));
#1279=DIRECTION('',(0.,0.,1.));
#1280=DIRECTION('center_axis',(0.,0.,1.));
#1281=DIRECTION('ref_axis',(-0.965925826289068,-0.258819045102521,0.));
#1282=DIRECTION('center_axis',(0.,0.,1.));
#1283=DIRECTION('ref_axis',(0.864070604595366,-0.503370629133444,0.));
#1284=DIRECTION('center_axis',(0.,0.,-1.));
#1285=DIRECTION('ref_axis',(-0.951531014208603,0.307552806846477,0.));
#1286=DIRECTION('center_axis',(0.,0.,1.));
#1287=DIRECTION('ref_axis',(0.951531014208604,-0.307552806846478,0.));
#1288=DIRECTION('',(0.766044443118991,0.642787609686523,0.));
#1289=DIRECTION('center_axis',(0.,0.,-1.));
#1290=DIRECTION('ref_axis',(0.258819045102521,-0.965925826289068,0.));
#1291=DIRECTION('center_axis',(0.,0.,1.));
#1292=DIRECTION('ref_axis',(-0.258819045102521,0.965925826289068,0.));
#1293=DIRECTION('',(0.,0.,1.));
#1294=DIRECTION('',(0.,0.,1.));
#1295=DIRECTION('',(0.,0.,1.));
#1296=DIRECTION('center_axis',(0.642787609686523,-0.766044443118991,0.));
#1297=DIRECTION('ref_axis',(0.766044443118991,0.642787609686524,0.));
#1298=DIRECTION('',(1.02949736872901E-14,2.75852988560904E-15,1.));
#1299=DIRECTION('center_axis',(0.,0.,1.));
#1300=DIRECTION('ref_axis',(0.951531014208604,-0.307552806846478,0.));
#1301=DIRECTION('center_axis',(0.,0.,-1.));
#1302=DIRECTION('ref_axis',(0.258819045102521,-0.965925826289068,0.));
#1303=DIRECTION('',(0.,0.,-1.));
#1304=DIRECTION('center_axis',(0.,0.,1.));
#1305=DIRECTION('ref_axis',(-0.258819045102521,0.965925826289068,0.));
#1306=DIRECTION('center_axis',(-0.981809957365045,0.189866288789898,0.));
#1307=DIRECTION('ref_axis',(-0.189866288789898,-0.981809957365045,0.));
#1308=DIRECTION('center_axis',(0.974065622939848,-0.226265689415798,0.));
#1309=DIRECTION('ref_axis',(0.226265689415798,0.974065622939848,0.));
#1310=DIRECTION('center_axis',(0.,0.,-1.));
#1311=DIRECTION('ref_axis',(-0.984807753012208,-0.17364817766693,0.));
#1312=DIRECTION('center_axis',(0.,0.,-1.));
#1313=DIRECTION('ref_axis',(-0.984807753012208,-0.17364817766693,0.));
#1314=DIRECTION('',(0.,0.,1.));
#1315=DIRECTION('center_axis',(0.,0.,1.));
#1316=DIRECTION('ref_axis',(-0.984807753012208,-0.17364817766693,0.));
#1317=DIRECTION('',(0.,0.,1.));
#1318=DIRECTION('center_axis',(0.,0.,1.));
#1319=DIRECTION('ref_axis',(-0.17364817766693,0.984807753012208,0.));
#1320=DIRECTION('',(-0.189866288789898,-0.981809957365045,0.));
#1321=DIRECTION('center_axis',(0.,0.,-1.));
#1322=DIRECTION('ref_axis',(0.98412366569844,0.177484113689834,0.));
#1323=DIRECTION('center_axis',(0.,0.,-1.));
#1324=DIRECTION('ref_axis',(-0.98412366569844,-0.177484113689834,0.));
#1325=DIRECTION('center_axis',(0.,0.,-1.));
#1326=DIRECTION('ref_axis',(-0.98412366569844,-0.177484113689834,0.));
#1327=DIRECTION('',(-0.226265689415798,-0.974065622939848,0.));
#1328=DIRECTION('center_axis',(0.,0.,-1.));
#1329=DIRECTION('ref_axis',(0.258819045102521,-0.965925826289068,0.));
#1330=DIRECTION('center_axis',(0.,0.,1.));
#1331=DIRECTION('ref_axis',(-0.258819045102521,0.965925826289068,0.));
#1332=DIRECTION('center_axis',(0.,0.,1.));
#1333=DIRECTION('ref_axis',(0.864070604595366,-0.503370629133444,0.));
#1334=DIRECTION('',(0.,0.,1.));
#1335=DIRECTION('',(0.,0.,1.));
#1336=DIRECTION('center_axis',(0.,0.,1.));
#1337=DIRECTION('ref_axis',(-0.965925826289068,-0.258819045102521,0.));
#1338=DIRECTION('',(0.766044443118991,0.642787609686523,0.));
#1339=DIRECTION('center_axis',(0.,0.,-1.));
#1340=DIRECTION('ref_axis',(-0.642787609686556,0.766044443118964,0.));
#1341=DIRECTION('center_axis',(0.,0.,1.));
#1342=DIRECTION('ref_axis',(-0.864070604595366,0.503370629133444,0.));
#1343=DIRECTION('center_axis',(0.,0.,1.));
#1344=DIRECTION('ref_axis',(0.989237104132542,-0.14632139900733,0.));
#1345=DIRECTION('center_axis',(0.,0.,-1.));
#1346=DIRECTION('ref_axis',(-0.989237104132542,0.14632139900733,0.));
#1347=DIRECTION('center_axis',(0.,0.,-1.));
#1348=DIRECTION('ref_axis',(0.258819045102521,-0.965925826289068,0.));
#1349=DIRECTION('center_axis',(0.,0.,-1.));
#1350=DIRECTION('ref_axis',(0.258819045102521,-0.965925826289068,0.));
#1351=DIRECTION('',(0.,0.,-1.));
#1352=DIRECTION('center_axis',(0.642787609686523,-0.766044443118991,0.));
#1353=DIRECTION('ref_axis',(0.766044443118991,0.642787609686524,0.));
#1354=DIRECTION('',(0.,0.,1.));
#1355=DIRECTION('',(0.,0.,-1.));
#1356=DIRECTION('',(0.766044443118991,0.642787609686523,0.));
#1357=DIRECTION('center_axis',(0.,0.,1.));
#1358=DIRECTION('ref_axis',(0.951531014208604,-0.307552806846478,0.));
#1359=DIRECTION('center_axis',(0.,0.,1.));
#1360=DIRECTION('ref_axis',(0.951531014208604,-0.307552806846478,0.));
#1361=DIRECTION('',(0.,0.,1.));
#1362=DIRECTION('center_axis',(0.,0.,1.));
#1363=DIRECTION('ref_axis',(-0.258819045102521,0.965925826289068,0.));
#1364=DIRECTION('center_axis',(0.,0.,1.));
#1365=DIRECTION('ref_axis',(-0.951531014208603,0.307552806846477,0.));
#1366=DIRECTION('',(0.,0.,1.));
#1367=DIRECTION('center_axis',(0.,0.,1.));
#1368=DIRECTION('ref_axis',(-0.258819045102521,0.965925826289068,0.));
#1369=DIRECTION('',(7.59361693254442E-15,6.08833410843764E-14,-1.));
#1370=DIRECTION('',(0.,0.,1.));
#1371=DIRECTION('center_axis',(0.,0.,1.));
#1372=DIRECTION('ref_axis',(0.864070604595366,-0.503370629133444,0.));
#1373=DIRECTION('center_axis',(0.,0.,-1.));
#1374=DIRECTION('ref_axis',(-0.989237104132542,0.14632139900733,0.));
#1375=DIRECTION('center_axis',(0.,0.,1.));
#1376=DIRECTION('ref_axis',(-0.642787609686556,0.766044443118964,0.));
#1377=DIRECTION('center_axis',(-0.981809957365045,0.189866288789898,0.));
#1378=DIRECTION('ref_axis',(-0.189866288789898,-0.981809957365045,0.));
#1379=DIRECTION('',(-0.189866288789898,-0.981809957365045,0.));
#1380=DIRECTION('center_axis',(0.974065622939848,-0.226265689415798,0.));
#1381=DIRECTION('ref_axis',(0.226265689415798,0.974065622939848,0.));
#1382=DIRECTION('',(0.226265689415798,0.974065622939848,0.));
#1383=DIRECTION('center_axis',(0.,0.,1.));
#1384=DIRECTION('ref_axis',(0.17364817766693,-0.984807753012208,0.));
#1385=DIRECTION('center_axis',(0.,0.,-1.));
#1386=DIRECTION('ref_axis',(-1.,0.,0.));
#1387=DIRECTION('',(0.,0.,1.));
#1388=DIRECTION('center_axis',(0.,0.,-1.));
#1389=DIRECTION('ref_axis',(-1.,0.,0.));
#1390=DIRECTION('',(0.,0.,1.));
#1391=DIRECTION('center_axis',(0.,0.,1.));
#1392=DIRECTION('ref_axis',(-1.,0.,0.));
#1393=DIRECTION('center_axis',(0.,0.,-1.));
#1394=DIRECTION('ref_axis',(-1.,0.,0.));
#1395=DIRECTION('center_axis',(0.,0.,-1.));
#1396=DIRECTION('ref_axis',(-1.,0.,0.));
#1397=DIRECTION('',(0.,0.,1.));
#1398=DIRECTION('center_axis',(0.,0.,1.));
#1399=DIRECTION('ref_axis',(-1.,0.,0.));
#1400=DIRECTION('',(0.,0.,1.));
#1401=DIRECTION('center_axis',(0.,0.,1.));
#1402=DIRECTION('ref_axis',(0.,1.,0.));
#1403=DIRECTION('',(0.0183980113794447,0.99983074226455,0.));
#1404=DIRECTION('center_axis',(0.,0.,-1.));
#1405=DIRECTION('ref_axis',(-0.927024810886964,-0.374999999999985,0.));
#1406=DIRECTION('center_axis',(0.,0.,-1.));
#1407=DIRECTION('ref_axis',(0.927024810886964,0.374999999999985,0.));
#1408=DIRECTION('center_axis',(0.,0.,-1.));
#1409=DIRECTION('ref_axis',(0.979795897113272,0.199999999999994,0.));
#1410=DIRECTION('',(-0.00532051867798434,0.99998584594033,0.));
#1411=DIRECTION('center_axis',(0.,0.,-1.));
#1412=DIRECTION('ref_axis',(0.,-1.,0.));
#1413=DIRECTION('center_axis',(0.,0.,1.));
#1414=DIRECTION('ref_axis',(0.,-1.,0.));
#1415=DIRECTION('',(0.00532051867798434,-0.99998584594033,0.));
#1416=DIRECTION('center_axis',(0.,0.,1.));
#1417=DIRECTION('ref_axis',(0.999905217493682,0.0137679348092997,0.));
#1418=DIRECTION('center_axis',(0.,0.,-1.));
#1419=DIRECTION('ref_axis',(-0.999905217493681,-0.0137679348093297,0.));
#1420=DIRECTION('',(0.559192903470734,0.82903757255505,0.));
#1421=DIRECTION('center_axis',(0.,0.,-1.));
#1422=DIRECTION('ref_axis',(-0.82903757255505,0.559192903470734,0.));
#1423=DIRECTION('',(0.422618261740681,-0.906307787036659,0.));
#1424=DIRECTION('center_axis',(0.,0.,-1.));
#1425=DIRECTION('ref_axis',(0.906307787036659,0.422618261740681,0.));
#1426=DIRECTION('center_axis',(0.,0.,1.));
#1427=DIRECTION('ref_axis',(-0.927024810886964,0.374999999999985,0.));
#1428=DIRECTION('',(0.0183980113794447,0.99983074226455,0.));
#1429=DIRECTION('center_axis',(0.,0.,-1.));
#1430=DIRECTION('ref_axis',(-1.,0.,0.));
#1431=DIRECTION('',(0.0183980113794447,0.99983074226455,0.));
#1432=DIRECTION('center_axis',(0.,0.,-1.));
#1433=DIRECTION('ref_axis',(-0.999189782316989,0.0402464770300296,0.));
#1434=DIRECTION('center_axis',(0.,0.,1.));
#1435=DIRECTION('ref_axis',(0.999189782316989,-0.0402464770300296,0.));
#1436=DIRECTION('',(0.422618261740681,-0.906307787036659,0.));
#1437=DIRECTION('center_axis',(0.,0.,1.));
#1438=DIRECTION('ref_axis',(0.906307787036659,0.422618261740681,0.));
#1439=DIRECTION('',(0.559192903470734,0.82903757255505,0.));
#1440=DIRECTION('center_axis',(0.,0.,1.));
#1441=DIRECTION('ref_axis',(-0.82903757255505,0.559192903470734,0.));
#1442=DIRECTION('center_axis',(0.,0.,-1.));
#1443=DIRECTION('ref_axis',(0.979795897113272,0.199999999999994,0.));
#1444=DIRECTION('',(-0.00532051867798434,0.99998584594033,0.));
#1445=DIRECTION('center_axis',(0.,0.,1.));
#1446=DIRECTION('ref_axis',(0.0913917221928412,-0.995815019526532,0.));
#1447=DIRECTION('center_axis',(0.,0.,-1.));
#1448=DIRECTION('ref_axis',(0.927024810886964,0.374999999999985,0.));
#1449=DIRECTION('',(0.,0.,1.));
#1450=DIRECTION('center_axis',(0.,0.,1.));
#1451=DIRECTION('ref_axis',(-0.979795897113272,0.199999999999994,0.));
#1452=DIRECTION('',(0.,0.,1.));
#1453=DIRECTION('center_axis',(0.,0.,1.));
#1454=DIRECTION('ref_axis',(0.0913917221928412,-0.995815019526532,0.));
#1455=DIRECTION('center_axis',(0.,0.,1.));
#1456=DIRECTION('ref_axis',(-0.979795897113272,0.199999999999994,0.));
#1457=DIRECTION('',(0.,0.,1.));
#1458=DIRECTION('',(0.,0.,1.));
#1459=DIRECTION('center_axis',(0.,0.,-1.));
#1460=DIRECTION('ref_axis',(0.,1.,0.));
#1461=DIRECTION('center_axis',(0.,0.,-1.));
#1462=DIRECTION('ref_axis',(-0.927024810886964,-0.374999999999985,0.));
#1463=DIRECTION('center_axis',(0.,0.,-1.));
#1464=DIRECTION('ref_axis',(0.996541405889814,-0.0830976915873912,0.));
#1465=DIRECTION('center_axis',(0.,0.,1.));
#1466=DIRECTION('ref_axis',(-0.996541405889814,0.0830976915873912,0.));
#1467=DIRECTION('',(0.953979002880507,0.299873410063502,0.));
#1468=DIRECTION('center_axis',(0.,0.,1.));
#1469=DIRECTION('ref_axis',(0.299873410063502,-0.953979002880507,0.));
#1470=DIRECTION('center_axis',(0.,0.,-1.));
#1471=DIRECTION('ref_axis',(0.,-1.,0.));
#1472=DIRECTION('center_axis',(0.,0.,-1.));
#1473=DIRECTION('ref_axis',(0.,-1.,0.));
#1474=DIRECTION('center_axis',(0.,0.,-1.));
#1475=DIRECTION('ref_axis',(0.,-1.,0.));
#1476=DIRECTION('',(0.,0.,-1.));
#1477=DIRECTION('center_axis',(0.,0.,-1.));
#1478=DIRECTION('ref_axis',(0.,-1.,0.));
#1479=DIRECTION('center_axis',(0.,0.,-1.));
#1480=DIRECTION('ref_axis',(0.,-1.,0.));
#1481=DIRECTION('',(0.,0.,-1.));
#1482=DIRECTION('center_axis',(0.,0.,1.));
#1483=DIRECTION('ref_axis',(0.,1.,0.));
#1484=DIRECTION('',(0.,0.,1.));
#1485=DIRECTION('center_axis',(0.,0.,-1.));
#1486=DIRECTION('ref_axis',(0.979795897113272,0.199999999999994,0.));
#1487=DIRECTION('',(0.,0.,1.));
#1488=DIRECTION('',(0.,0.,-1.));
#1489=DIRECTION('',(0.,0.,1.));
#1490=DIRECTION('center_axis',(0.,0.,1.));
#1491=DIRECTION('ref_axis',(0.979795897113272,-0.199999999999994,0.));
#1492=DIRECTION('center_axis',(0.,0.,1.));
#1493=DIRECTION('ref_axis',(-0.996541405889814,0.0830976915873912,0.));
#1494=DIRECTION('',(0.,0.,1.));
#1495=DIRECTION('center_axis',(0.,0.,-1.));
#1496=DIRECTION('ref_axis',(0.299873410063502,-0.953979002880507,0.));
#1497=DIRECTION('center_axis',(-0.299873410063502,0.953979002880507,0.));
#1498=DIRECTION('ref_axis',(0.953979002880507,0.299873410063502,0.));
#1499=DIRECTION('',(0.953979002880507,0.299873410063502,0.));
#1500=DIRECTION('',(0.,0.,-1.));
#1501=DIRECTION('center_axis',(0.,0.,-1.));
#1502=DIRECTION('ref_axis',(0.991771323890745,0.128022033681706,0.));
#1503=DIRECTION('center_axis',(0.,0.,-1.));
#1504=DIRECTION('ref_axis',(0.991771323890746,0.128022033681693,0.));
#1505=DIRECTION('',(0.,0.,-1.));
#1506=DIRECTION('center_axis',(0.,0.,1.));
#1507=DIRECTION('ref_axis',(0.,1.,0.));
#1508=DIRECTION('center_axis',(0.,0.,1.));
#1509=DIRECTION('ref_axis',(-0.991771323890746,-0.128022033681693,0.));
#1510=DIRECTION('',(0.,0.,1.));
#1511=DIRECTION('',(0.,0.,1.));
#1512=DIRECTION('',(0.,0.,1.));
#1513=DIRECTION('center_axis',(0.,0.,-1.));
#1514=DIRECTION('ref_axis',(-0.927024810886964,-0.374999999999985,0.));
#1515=DIRECTION('center_axis',(0.,0.,1.));
#1516=DIRECTION('ref_axis',(0.999189782316989,-0.0402464770300296,0.));
#1517=DIRECTION('',(0.,0.,1.));
#1518=DIRECTION('center_axis',(-0.906307787036659,-0.422618261740681,0.));
#1519=DIRECTION('ref_axis',(0.422618261740681,-0.906307787036659,0.));
#1520=DIRECTION('',(0.,0.,1.));
#1521=DIRECTION('center_axis',(0.,0.,1.));
#1522=DIRECTION('ref_axis',(0.906307787036641,0.422618261740719,0.));
#1523=DIRECTION('',(0.,0.,1.));
#1524=DIRECTION('center_axis',(0.82903757255505,-0.559192903470734,0.));
#1525=DIRECTION('ref_axis',(0.559192903470734,0.82903757255505,0.));
#1526=DIRECTION('',(0.,0.,-1.));
#1527=DIRECTION('center_axis',(0.,0.,-1.));
#1528=DIRECTION('ref_axis',(-0.999905217493681,-0.0137679348093297,0.));
#1529=DIRECTION('center_axis',(0.,0.,-1.));
#1530=DIRECTION('ref_axis',(0.,1.,0.));
#1531=DIRECTION('center_axis',(0.99983074226455,-0.0183980113794447,0.));
#1532=DIRECTION('ref_axis',(0.0183980113794447,0.99983074226455,0.));
#1533=DIRECTION('center_axis',(-0.99998584594033,-0.00532051867798434,0.));
#1534=DIRECTION('ref_axis',(0.00532051867798434,-0.99998584594033,0.));
#1535=DIRECTION('center_axis',(0.99983074226455,-0.0183980113794447,0.));
#1536=DIRECTION('ref_axis',(0.0183980113794447,0.99983074226455,0.));
#1537=DIRECTION('',(0.0183980113794447,0.99983074226455,0.));
#1538=DIRECTION('center_axis',(-0.99998584594033,-0.00532051867798434,0.));
#1539=DIRECTION('ref_axis',(0.00532051867798434,-0.99998584594033,0.));
#1540=DIRECTION('',(0.00532051867798434,-0.99998584594033,0.));
#1541=DIRECTION('center_axis',(0.,0.,-1.));
#1542=DIRECTION('ref_axis',(-1.,0.,0.));
#1543=DIRECTION('center_axis',(0.,0.,-1.));
#1544=DIRECTION('ref_axis',(-1.,0.,0.));
#1545=DIRECTION('center_axis',(0.,0.,1.));
#1546=DIRECTION('ref_axis',(-1.,0.,0.));
#1547=DIRECTION('center_axis',(0.,0.,-1.));
#1548=DIRECTION('ref_axis',(0.,-1.,0.));
#1549=DIRECTION('center_axis',(0.,0.,-1.));
#1550=DIRECTION('ref_axis',(0.,-1.,0.));
#1551=DIRECTION('center_axis',(0.,0.,-1.));
#1552=DIRECTION('ref_axis',(0.,-1.,0.));
#1553=DIRECTION('',(0.,0.,-1.));
#1554=DIRECTION('center_axis',(0.,0.,1.));
#1555=DIRECTION('ref_axis',(0.,1.,0.));
#1556=DIRECTION('center_axis',(0.,0.,-1.));
#1557=DIRECTION('ref_axis',(-1.,0.,0.));
#1558=DIRECTION('',(0.,0.,-1.));
#1559=DIRECTION('center_axis',(0.,0.,-1.));
#1560=DIRECTION('ref_axis',(-1.,0.,0.));
#1561=CARTESIAN_POINT('',(0.,0.,0.));
#1562=CARTESIAN_POINT('Origin',(0.,30.,-10.5));
#1563=CARTESIAN_POINT('',(0.,32.5,-4.6));
#1564=CARTESIAN_POINT('Origin',(0.,30.,-4.6));
#1565=CARTESIAN_POINT('',(0.,32.5,-10.5));
#1566=CARTESIAN_POINT('',(3.06161699786838E-16,32.5,-10.5));
#1567=CARTESIAN_POINT('Origin',(0.,30.,-10.5));
#1568=CARTESIAN_POINT('Origin',(0.,0.,-10.5));
#1569=CARTESIAN_POINT('',(6.12323399573677E-16,25.,-10.5));
#1570=CARTESIAN_POINT('Origin',(-1.60982338570648E-14,30.,-10.5));
#1571=CARTESIAN_POINT('Origin',(0.,30.,10.5));
#1572=CARTESIAN_POINT('',(6.12323399573677E-16,25.,-4.6));
#1573=CARTESIAN_POINT('Origin',(-1.60982338570648E-14,30.,-4.6));
#1574=CARTESIAN_POINT('',(6.12323399573677E-16,25.,10.5));
#1575=CARTESIAN_POINT('Origin',(0.,0.,-4.6));
#1576=CARTESIAN_POINT('Origin',(-1.55431223447522E-14,30.,-10.5));
#1577=CARTESIAN_POINT('',(4.35015368837125,32.4649874011028,4.6));
#1578=CARTESIAN_POINT('',(4.35015368837125,32.4649874011028,10.5));
#1579=CARTESIAN_POINT('',(4.35015368837125,32.4649874011028,4.6));
#1580=CARTESIAN_POINT('',(-4.90904978682969,30.9493314439503,10.5));
#1581=CARTESIAN_POINT('Origin',(-1.55431223447522E-14,30.,10.5));
#1582=CARTESIAN_POINT('',(-4.90904978682969,30.9493314439503,4.6));
#1583=CARTESIAN_POINT('',(-4.90904978682969,30.9493314439503,4.6));
#1584=CARTESIAN_POINT('Origin',(-1.55431223447522E-14,30.,4.6));
#1585=CARTESIAN_POINT('Origin',(3.90708399750283,52.1581744427726,4.6));
#1586=CARTESIAN_POINT('',(-1.36833400264294,49.258584946877,4.6));
#1587=CARTESIAN_POINT('',(-1.36833400264294,49.258584946877,4.6));
#1588=CARTESIAN_POINT('',(3.07507673092938,61.9338326163546,4.6));
#1589=CARTESIAN_POINT('Origin',(-32.0428404657718,67.1282422811076,4.6));
#1590=CARTESIAN_POINT('',(3.42152622537653,62.5535556604613,4.6));
#1591=CARTESIAN_POINT('Origin',(4.06431383506326,61.7875112173389,4.6));
#1592=CARTESIAN_POINT('',(7.43535785282396,65.9215602986608,4.6));
#1593=CARTESIAN_POINT('',(3.42152622537653,62.5535556604613,4.6));
#1594=CARTESIAN_POINT('',(9.02967647672173,64.8479630486962,4.6));
#1595=CARTESIAN_POINT('Origin',(8.07814546251165,65.1555158555386,4.6));
#1596=CARTESIAN_POINT('',(7.87263734883465,47.6291523696566,4.6));
#1597=CARTESIAN_POINT('Origin',(42.8090274811235,53.9298384056434,4.6));
#1598=CARTESIAN_POINT('',(7.87263734883465,47.6291523696566,4.6));
#1599=CARTESIAN_POINT('Origin',(3.90708399750283,52.1581744427726,10.5));
#1600=CARTESIAN_POINT('',(7.87263734883465,47.6291523696566,10.5));
#1601=CARTESIAN_POINT('',(7.87263734883465,47.6291523696566,10.5));
#1602=CARTESIAN_POINT('',(12.1345210179839,71.7994957398843,10.5));
#1603=CARTESIAN_POINT('Origin',(42.8090274811235,53.9298384056434,10.5));
#1604=CARTESIAN_POINT('',(2.8935496665182,73.4289283171046,10.5));
#1605=CARTESIAN_POINT('Origin',(7.81416799501129,74.3163488855531,10.5));
#1606=CARTESIAN_POINT('',(-1.36833400264294,49.258584946877,10.5));
#1607=CARTESIAN_POINT('Origin',(-32.0428404657718,67.1282422811076,10.5));
#1608=CARTESIAN_POINT('',(-1.36833400264294,49.258584946877,10.5));
#1609=CARTESIAN_POINT('',(7.16712038225499,76.7311634512758,10.5));
#1610=CARTESIAN_POINT('Origin',(7.81416799501129,74.3163488855531,10.5));
#1611=CARTESIAN_POINT('Origin',(4.06431383506326,61.7875112173389,37.8756));
#1612=CARTESIAN_POINT('',(3.42152622537653,62.5535556604613,5.1));
#1613=CARTESIAN_POINT('',(3.42152622537653,62.5535556604613,5.1));
#1614=CARTESIAN_POINT('',(3.07507673092938,61.9338326163546,5.1));
#1615=CARTESIAN_POINT('',(3.07507673092938,61.9338326163546,5.1));
#1616=CARTESIAN_POINT('Origin',(4.06431383506326,61.7875112173389,5.1));
#1617=CARTESIAN_POINT('Origin',(-32.0428404657718,67.1282422811076,10.5));
#1618=CARTESIAN_POINT('',(2.8935496665182,73.4289283171046,5.1));
#1619=CARTESIAN_POINT('Origin',(-32.0428404657718,67.1282422811076,5.1));
#1620=CARTESIAN_POINT('',(-1.36833400264294,49.258584946877,4.6));
#1621=CARTESIAN_POINT('',(2.8935496665182,73.4289283171046,5.1));
#1622=CARTESIAN_POINT('Origin',(10.7165903734134,17.7639570125355,5.1));
#1623=CARTESIAN_POINT('',(12.1345210179839,71.7994957398843,5.1));
#1624=CARTESIAN_POINT('Origin',(7.81416799501129,74.3163488855531,5.1));
#1625=CARTESIAN_POINT('',(9.02967647672173,64.8479630486962,5.1));
#1626=CARTESIAN_POINT('Origin',(42.8090274811235,53.9298384056434,5.1));
#1627=CARTESIAN_POINT('',(7.43535785282396,65.9215602986608,5.1));
#1628=CARTESIAN_POINT('Origin',(8.07814546251165,65.1555158555386,5.1));
#1629=CARTESIAN_POINT('',(3.42152622537653,62.5535556604613,5.1));
#1630=CARTESIAN_POINT('',(7.16712038225499,76.7311634512758,5.1));
#1631=CARTESIAN_POINT('Origin',(7.81416799501129,74.3163488855531,5.1));
#1632=CARTESIAN_POINT('Origin',(42.8090274811235,53.9298384056434,10.5));
#1633=CARTESIAN_POINT('',(12.1345210179839,71.7994957398843,5.1));
#1634=CARTESIAN_POINT('',(7.87263734883465,47.6291523696566,4.6));
#1635=CARTESIAN_POINT('',(9.02967647672173,64.8479630486962,4.6));
#1636=CARTESIAN_POINT('Origin',(3.12832273282316,62.307528718003,-5.1));
#1637=CARTESIAN_POINT('',(7.43535785282396,65.9215602986608,4.6));
#1638=CARTESIAN_POINT('Origin',(8.07814546251165,65.1555158555386,-37.8756));
#1639=CARTESIAN_POINT('Origin',(7.81416799501129,74.3163488855531,-10.5));
#1640=CARTESIAN_POINT('',(7.16712038225499,76.7311634512758,-10.5));
#1641=CARTESIAN_POINT('Origin',(7.81416799501129,74.3163488855531,10.5));
#1642=CARTESIAN_POINT('Origin',(-1.36833400264294,49.258584946877,4.6));
#1643=CARTESIAN_POINT('Origin',(4.35015368837125,32.4649874011028,4.6));
#1644=CARTESIAN_POINT('Origin',(-1.55431223447522E-14,30.,-10.5));
#1645=CARTESIAN_POINT('',(-4.90904978682969,30.9493314439503,-4.6));
#1646=CARTESIAN_POINT('',(4.35015368837125,32.4649874011028,-4.6));
#1647=CARTESIAN_POINT('Origin',(-1.55431223447522E-14,30.,-4.6));
#1648=CARTESIAN_POINT('',(-4.90904978682969,30.9493314439503,-10.5));
#1649=CARTESIAN_POINT('',(-4.90904978682969,30.9493314439504,10.5));
#1650=CARTESIAN_POINT('',(4.35015368837125,32.4649874011028,-10.5));
#1651=CARTESIAN_POINT('Origin',(-1.55431223447522E-14,30.,-10.5));
#1652=CARTESIAN_POINT('',(4.35015368836973,32.4649874010963,10.5));
#1653=CARTESIAN_POINT('Origin',(5.20944533000791,0.455767409633754,-10.5));
#1654=CARTESIAN_POINT('',(-1.36833400264294,49.258584946877,-10.5));
#1655=CARTESIAN_POINT('',(-1.36833400264294,49.258584946877,-10.5));
#1656=CARTESIAN_POINT('',(2.8935496665182,73.4289283171046,-10.5));
#1657=CARTESIAN_POINT('Origin',(-32.0428404657718,67.1282422811076,-10.5));
#1658=CARTESIAN_POINT('',(12.1345210179839,71.7994957398843,-10.5));
#1659=CARTESIAN_POINT('Origin',(7.81416799501129,74.3163488855531,-10.5));
#1660=CARTESIAN_POINT('',(7.87263734883465,47.6291523696566,-10.5));
#1661=CARTESIAN_POINT('Origin',(42.8090274811235,53.9298384056434,-10.5));
#1662=CARTESIAN_POINT('',(7.87263734883465,47.6291523696566,-10.5));
#1663=CARTESIAN_POINT('',(7.16712038225499,76.7311634512758,-10.5));
#1664=CARTESIAN_POINT('Origin',(7.81416799501129,74.3163488855531,-10.5));
#1665=CARTESIAN_POINT('Origin',(7.81416799501129,74.3163488855531,10.5));
#1666=CARTESIAN_POINT('',(12.1345210179839,71.7994957398843,-5.1));
#1667=CARTESIAN_POINT('',(2.8935496665182,73.4289283171046,-5.1));
#1668=CARTESIAN_POINT('Origin',(7.81416799501129,74.3163488855531,-5.1));
#1669=CARTESIAN_POINT('',(12.1345210179839,71.7994957398843,-10.5));
#1670=CARTESIAN_POINT('',(2.8935496665182,73.4289283171046,-10.5));
#1671=CARTESIAN_POINT('Origin',(10.7165903734134,17.7639570125355,-5.1));
#1672=CARTESIAN_POINT('',(3.42152622537653,62.5535556604613,-5.1));
#1673=CARTESIAN_POINT('',(7.43535785282396,65.9215602986608,-5.1));
#1674=CARTESIAN_POINT('',(3.42152622537653,62.5535556604613,-5.1));
#1675=CARTESIAN_POINT('',(9.02967647672173,64.8479630486962,-5.1));
#1676=CARTESIAN_POINT('Origin',(8.07814546251165,65.1555158555386,-5.1));
#1677=CARTESIAN_POINT('Origin',(42.8090274811235,53.9298384056434,-5.1));
#1678=CARTESIAN_POINT('',(3.07507673092938,61.9338326163546,-5.1));
#1679=CARTESIAN_POINT('Origin',(-32.0428404657718,67.1282422811076,-5.1));
#1680=CARTESIAN_POINT('Origin',(4.06431383506326,61.7875112173389,-5.1));
#1681=CARTESIAN_POINT('',(7.16712038225499,76.7311634512758,-5.1));
#1682=CARTESIAN_POINT('Origin',(7.81416799501129,74.3163488855531,-5.1));
#1683=CARTESIAN_POINT('Origin',(7.81416799501129,74.3163488855531,-10.5));
#1684=CARTESIAN_POINT('',(7.16712038225499,76.7311634512758,-10.5));
#1685=CARTESIAN_POINT('Origin',(3.12832273282316,62.307528718003,-5.1));
#1686=CARTESIAN_POINT('',(7.43535785282396,65.9215602986608,-4.6));
#1687=CARTESIAN_POINT('',(7.43535785282396,65.9215602986608,-5.1));
#1688=CARTESIAN_POINT('',(3.42152622537653,62.5535556604613,-4.6));
#1689=CARTESIAN_POINT('',(3.42152622537653,62.5535556604613,-4.6));
#1690=CARTESIAN_POINT('',(3.42152622537653,62.5535556604613,-4.6));
#1691=CARTESIAN_POINT('Origin',(8.07814546251165,65.1555158555386,-37.8756));
#1692=CARTESIAN_POINT('',(9.02967647672173,64.8479630486962,-4.6));
#1693=CARTESIAN_POINT('Origin',(8.07814546251165,65.1555158555386,-4.6));
#1694=CARTESIAN_POINT('',(9.02967647672173,64.8479630486962,-5.1));
#1695=CARTESIAN_POINT('Origin',(42.8090274811235,53.9298384056434,10.5));
#1696=CARTESIAN_POINT('',(7.87263734883465,47.6291523696566,-4.6));
#1697=CARTESIAN_POINT('Origin',(42.8090274811235,53.9298384056434,-4.6));
#1698=CARTESIAN_POINT('',(7.87263734883465,47.6291523696566,-10.5));
#1699=CARTESIAN_POINT('Origin',(-32.0428404657718,67.1282422811076,10.5));
#1700=CARTESIAN_POINT('',(3.07507673092938,61.9338326163546,-4.6));
#1701=CARTESIAN_POINT('',(3.07507673092938,61.9338326163546,-4.6));
#1702=CARTESIAN_POINT('',(-1.36833400264294,49.258584946877,-4.6));
#1703=CARTESIAN_POINT('',(-1.36833400264294,49.258584946877,-10.5));
#1704=CARTESIAN_POINT('Origin',(-32.0428404657718,67.1282422811076,-4.6));
#1705=CARTESIAN_POINT('Origin',(4.06431383506326,61.7875112173389,37.8756));
#1706=CARTESIAN_POINT('Origin',(4.06431383506326,61.7875112173389,-4.6));
#1707=CARTESIAN_POINT('Origin',(-1.36833400264294,49.258584946877,-10.5));
#1708=CARTESIAN_POINT('',(-1.36833400264294,49.258584946877,-4.6));
#1709=CARTESIAN_POINT('Origin',(4.35015368837125,32.4649874011028,-10.5));
#1710=CARTESIAN_POINT('',(7.87263734883465,47.6291523696566,-4.6));
#1711=CARTESIAN_POINT('Origin',(5.20944533000791,0.455767409633754,-4.6));
#1712=CARTESIAN_POINT('Origin',(-1.60982338570648E-14,30.,-10.5));
#1713=CARTESIAN_POINT('',(-4.99992920174877,29.9733921520414,-10.5));
#1714=CARTESIAN_POINT('',(-4.99992920174877,29.9733921520414,-4.6));
#1715=CARTESIAN_POINT('',(-4.9999292297062,29.9733974066101,10.5));
#1716=CARTESIAN_POINT('',(4.9991537113273,29.9080099431027,-4.6));
#1717=CARTESIAN_POINT('Origin',(-1.60982338570648E-14,30.,-4.6));
#1718=CARTESIAN_POINT('',(4.9991537113273,29.9080099431027,-10.5));
#1719=CARTESIAN_POINT('',(4.9991537113273,29.9080099431027,10.5));
#1720=CARTESIAN_POINT('Origin',(-1.60982338570648E-14,30.,-10.5));
#1721=CARTESIAN_POINT('Origin',(-1.60982338570648E-14,30.,-10.5));
#1722=CARTESIAN_POINT('',(4.9991537113273,29.9080099431027,10.5));
#1723=CARTESIAN_POINT('',(-4.99992920174877,29.9733921520414,10.5));
#1724=CARTESIAN_POINT('Origin',(-1.60982338570648E-14,30.,10.5));
#1725=CARTESIAN_POINT('',(4.9991537113273,29.9080099431027,4.6));
#1726=CARTESIAN_POINT('',(4.9991537113273,29.9080099431027,10.5));
#1727=CARTESIAN_POINT('',(-4.99992920174877,29.9733921520414,4.6));
#1728=CARTESIAN_POINT('Origin',(-1.60982338570648E-14,30.,4.6));
#1729=CARTESIAN_POINT('',(-4.9999292297062,29.9733974066101,10.5));
#1730=CARTESIAN_POINT('Origin',(0.,0.,-10.5));
#1731=CARTESIAN_POINT('',(4.63512405443904,10.1249999999984,-10.5));
#1732=CARTESIAN_POINT('',(4.63512405443904,10.1249999999984,-10.5));
#1733=CARTESIAN_POINT('',(4.635124054435,-16.125,-10.5));
#1734=CARTESIAN_POINT('Origin',(37.08099243548,-3.,-10.5));
#1735=CARTESIAN_POINT('',(-4.898979485566,-17.,-10.5));
#1736=CARTESIAN_POINT('Origin',(0.,-18.,-10.5));
#1737=CARTESIAN_POINT('',(-4.8989794855708,10.999999999999,-10.5));
#1738=CARTESIAN_POINT('Origin',(-73.4846922835,-3.,-10.5));
#1739=CARTESIAN_POINT('',(-4.8989794855708,10.999999999999,-10.5));
#1740=CARTESIAN_POINT('',(0.,-15.5,-10.5));
#1741=CARTESIAN_POINT('Origin',(0.,-18.,-10.5));
#1742=CARTESIAN_POINT('Origin',(0.,0.,-4.6));
#1743=CARTESIAN_POINT('',(-4.8989794855708,10.999999999999,-4.6));
#1744=CARTESIAN_POINT('',(-4.8989794855708,10.999999999999,-4.6));
#1745=CARTESIAN_POINT('',(-3.491327058938,-2.03624456335,-4.6));
#1746=CARTESIAN_POINT('Origin',(-73.4846922835,-3.,-4.6));
#1747=CARTESIAN_POINT('',(-3.320459413999,-1.46328372507,-4.6));
#1748=CARTESIAN_POINT('Origin',(-2.491421841444,-2.02247662854,-4.6));
#1749=CARTESIAN_POINT('',(-0.98837011081,1.99418085093,-4.6));
#1750=CARTESIAN_POINT('',(-3.320459413999,-1.46328372507,-4.6));
#1751=CARTESIAN_POINT('',(0.7469752487817,1.8576062092,-4.6));
#1752=CARTESIAN_POINT('Origin',(-0.159332538255,1.43498794745,-4.6));
#1753=CARTESIAN_POINT('',(1.923586063823,-0.665643826410001,-4.6));
#1754=CARTESIAN_POINT('',(0.7469752487817,1.8576062092,-4.6));
#1755=CARTESIAN_POINT('',(2.109350054384,-1.59137330395,-4.6));
#1756=CARTESIAN_POINT('Origin',(0.1109704897497,-1.51088034989,-4.6));
#1757=CARTESIAN_POINT('',(4.63512405443904,10.1249999999984,-4.6));
#1758=CARTESIAN_POINT('Origin',(37.08099243548,-3.,-4.6));
#1759=CARTESIAN_POINT('',(4.63512405443904,10.1249999999984,-4.6));
#1760=CARTESIAN_POINT('Origin',(7.69545322482412,51.1430839676814,4.6));
#1761=CARTESIAN_POINT('',(4.63512405443904,10.1249999999984,4.6));
#1762=CARTESIAN_POINT('',(4.63512405443904,10.1249999999984,4.6));
#1763=CARTESIAN_POINT('',(2.109350054384,-1.59137330395,4.6));
#1764=CARTESIAN_POINT('Origin',(37.08099243548,-3.,4.6));
#1765=CARTESIAN_POINT('',(1.923586063823,-0.665643826410001,4.6));
#1766=CARTESIAN_POINT('Origin',(0.1109704897497,-1.51088034989,4.6));
#1767=CARTESIAN_POINT('',(0.7469752487817,1.8576062092,4.6));
#1768=CARTESIAN_POINT('',(0.7469752487817,1.8576062092,4.6));
#1769=CARTESIAN_POINT('',(-0.98837011081,1.99418085093,4.6));
#1770=CARTESIAN_POINT('Origin',(-0.159332538255,1.43498794745,4.6));
#1771=CARTESIAN_POINT('',(-3.320459413999,-1.46328372507,4.6));
#1772=CARTESIAN_POINT('',(-3.320459413999,-1.46328372507,4.6));
#1773=CARTESIAN_POINT('',(-3.491327058938,-2.03624456335,4.6));
#1774=CARTESIAN_POINT('Origin',(-2.491421841444,-2.02247662854,4.6));
#1775=CARTESIAN_POINT('',(-4.8989794855708,10.999999999999,4.6));
#1776=CARTESIAN_POINT('Origin',(-73.4846922835,-3.,4.6));
#1777=CARTESIAN_POINT('',(-4.8989794855708,10.999999999999,4.6));
#1778=CARTESIAN_POINT('Origin',(0.,-18.,10.5));
#1779=CARTESIAN_POINT('',(4.635124054435,-16.125,5.6));
#1780=CARTESIAN_POINT('',(-4.898979485566,-17.,5.6));
#1781=CARTESIAN_POINT('Origin',(0.,-18.,5.6));
#1782=CARTESIAN_POINT('',(4.635124054435,-16.125,10.5));
#1783=CARTESIAN_POINT('',(4.635124054435,-16.125,5.6));
#1784=CARTESIAN_POINT('',(-4.898979485566,-17.,10.5));
#1785=CARTESIAN_POINT('Origin',(0.,-18.,10.5));
#1786=CARTESIAN_POINT('',(-4.898979485566,-17.,5.6));
#1787=CARTESIAN_POINT('Origin',(0.,-18.,10.5));
#1788=CARTESIAN_POINT('',(-4.898979485566,-17.,-5.6));
#1789=CARTESIAN_POINT('',(4.635124054435,-16.125,-5.6));
#1790=CARTESIAN_POINT('Origin',(0.,-18.,-5.6));
#1791=CARTESIAN_POINT('',(-4.898979485566,-17.,-10.5));
#1792=CARTESIAN_POINT('',(4.635124054435,-16.125,-10.5));
#1793=CARTESIAN_POINT('Origin',(0.,-18.,5.6));
#1794=CARTESIAN_POINT('',(2.368996099302,-7.48077117886,5.6));
#1795=CARTESIAN_POINT('Origin',(37.08099243548,-3.,5.6));
#1796=CARTESIAN_POINT('',(-3.726793871208,-8.816838411117,5.6));
#1797=CARTESIAN_POINT('Origin',(-73.4846922835,-3.,5.6));
#1798=CARTESIAN_POINT('',(-2.430379055255,-9.853915105585,5.6));
#1799=CARTESIAN_POINT('Origin',(-2.730252465319,-8.899936102705,5.6));
#1800=CARTESIAN_POINT('',(1.677098185475,-8.56277221542,5.6));
#1801=CARTESIAN_POINT('',(-2.430379055255,-9.853915105585,5.6));
#1802=CARTESIAN_POINT('Origin',(1.377224775411,-7.60879321254,5.6));
#1803=CARTESIAN_POINT('',(3.06161699786838E-16,-15.5,5.6));
#1804=CARTESIAN_POINT('Origin',(0.,-18.,5.6));
#1805=CARTESIAN_POINT('Origin',(0.,-18.,-10.5));
#1806=CARTESIAN_POINT('',(3.06161699786838E-16,-15.5,10.5));
#1807=CARTESIAN_POINT('Origin',(0.,-18.,10.5));
#1808=CARTESIAN_POINT('',(3.06161699786838E-16,-15.5,-10.5));
#1809=CARTESIAN_POINT('Origin',(0.,-18.,-10.5));
#1810=CARTESIAN_POINT('',(0.,-15.5,-5.6));
#1811=CARTESIAN_POINT('Origin',(0.,-18.,-5.6));
#1812=CARTESIAN_POINT('',(3.06161699786838E-16,-15.5,-10.5));
#1813=CARTESIAN_POINT('Origin',(-73.4846922835,-3.,10.5));
#1814=CARTESIAN_POINT('',(-3.726793871208,-8.816838411117,-5.6));
#1815=CARTESIAN_POINT('',(-3.726793871208,-8.816838411117,-5.6));
#1816=CARTESIAN_POINT('',(-4.8989794855708,10.999999999999,10.5));
#1817=CARTESIAN_POINT('Origin',(-73.4846922835,-3.,10.5));
#1818=CARTESIAN_POINT('',(-4.8989794855708,10.999999999999,4.6));
#1819=CARTESIAN_POINT('',(-3.491327058938,-2.03624456335,4.6));
#1820=CARTESIAN_POINT('',(-4.8989794855708,10.999999999999,-10.5));
#1821=CARTESIAN_POINT('Origin',(-73.4846922835,-3.,-5.6));
#1822=CARTESIAN_POINT('Origin',(-2.730252465319,-8.899936102705,-37.8756));
#1823=CARTESIAN_POINT('',(-2.430379055255,-9.853915105585,-5.6));
#1824=CARTESIAN_POINT('',(-2.430379055255,-9.853915105585,-5.6));
#1825=CARTESIAN_POINT('Origin',(-2.730252465319,-8.899936102705,-5.6));
#1826=CARTESIAN_POINT('Origin',(-5.,-10.661648811405,5.6));
#1827=CARTESIAN_POINT('',(1.677098185475,-8.56277221542,-5.6));
#1828=CARTESIAN_POINT('',(-2.430379055255,-9.853915105585,-5.6));
#1829=CARTESIAN_POINT('',(1.677098185475,-8.56277221542,5.6));
#1830=CARTESIAN_POINT('Origin',(1.377224775411,-7.60879321254,37.8756));
#1831=CARTESIAN_POINT('',(2.368996099302,-7.48077117886,-5.6));
#1832=CARTESIAN_POINT('Origin',(1.377224775411,-7.60879321254,-5.6));
#1833=CARTESIAN_POINT('',(2.368996099302,-7.48077117886,5.6));
#1834=CARTESIAN_POINT('Origin',(37.08099243548,-3.,10.5));
#1835=CARTESIAN_POINT('Origin',(37.08099243548,-3.,-5.6));
#1836=CARTESIAN_POINT('',(4.63512405443904,10.1249999999984,-10.5));
#1837=CARTESIAN_POINT('',(2.109350054384,-1.59137330395,-4.6));
#1838=CARTESIAN_POINT('',(4.63512405443904,10.1249999999984,10.5));
#1839=CARTESIAN_POINT('',(4.63512405443904,10.1249999999984,4.6));
#1840=CARTESIAN_POINT('Origin',(37.08099243548,-3.,10.5));
#1841=CARTESIAN_POINT('Origin',(0.1109704897497,-1.51088034989,-37.8756));
#1842=CARTESIAN_POINT('',(1.923586063823,-0.665643826410001,-4.6));
#1843=CARTESIAN_POINT('Origin',(0.,3.45949979966,-4.6));
#1844=CARTESIAN_POINT('',(0.7469752487817,1.8576062092,-4.6));
#1845=CARTESIAN_POINT('Origin',(-0.159332538255,1.43498794745,-37.8756));
#1846=CARTESIAN_POINT('',(-0.98837011081,1.99418085093,-4.6));
#1847=CARTESIAN_POINT('Origin',(-5.,-3.95330504291,-4.6));
#1848=CARTESIAN_POINT('',(-3.320459413999,-1.46328372507,4.6));
#1849=CARTESIAN_POINT('Origin',(-2.491421841444,-2.02247662854,37.8756));
#1850=CARTESIAN_POINT('Origin',(0.,-18.,-5.6));
#1851=CARTESIAN_POINT('Origin',(4.63512405443904,10.1249999999984,-10.5));
#1852=CARTESIAN_POINT('Origin',(-4.99992920174877,29.9733921520414,-10.5));
#1853=CARTESIAN_POINT('Origin',(4.63512405443904,10.1249999999984,4.6));
#1854=CARTESIAN_POINT('',(4.63512405443904,10.1249999999984,10.5));
#1855=CARTESIAN_POINT('Origin',(-4.99992920174877,29.9733921520414,4.6));
#1856=CARTESIAN_POINT('',(-4.8989794855708,10.999999999999,10.5));
#1857=CARTESIAN_POINT('Origin',(7.69545322482412,51.1430839676814,10.5));
#1858=CARTESIAN_POINT('Origin',(7.69545322482412,51.1430839676814,4.6));
#1859=CARTESIAN_POINT('',(6.12323399573677E-16,25.,4.6));
#1860=CARTESIAN_POINT('Origin',(-1.60982338570648E-14,30.,4.6));
#1861=CARTESIAN_POINT('',(3.06161699786838E-16,32.5,4.6));
#1862=CARTESIAN_POINT('Origin',(0.,30.,4.6));
#1863=CARTESIAN_POINT('Origin',(0.,30.,-10.5));
#1864=CARTESIAN_POINT('',(3.06161699786838E-16,32.5,10.5));
#1865=CARTESIAN_POINT('Origin',(0.,30.,10.5));
#1866=CARTESIAN_POINT('',(3.06161699786838E-16,32.5,-10.5));
#1867=CARTESIAN_POINT('Origin',(0.,30.,10.5));
#1868=CARTESIAN_POINT('',(6.12323399573677E-16,25.,10.5));
#1869=CARTESIAN_POINT('Origin',(0.,30.,10.5));
#1870=CARTESIAN_POINT('',(6.12323399573677E-16,25.,10.5));
#1871=CARTESIAN_POINT('Origin',(7.69545322482412,51.1430839676814,10.5));
#1872=UNCERTAINTY_MEASURE_WITH_UNIT(LENGTH_MEASURE(0.01),#1876,
'DISTANCE_ACCURACY_VALUE',
'Maximum model space distance between geometric entities at asserted c
onnectivities');
#1873=UNCERTAINTY_MEASURE_WITH_UNIT(LENGTH_MEASURE(0.01),#1876,
'DISTANCE_ACCURACY_VALUE',
'Maximum model space distance between geometric entities at asserted c
onnectivities');
#1874=(
GEOMETRIC_REPRESENTATION_CONTEXT(3)
GLOBAL_UNCERTAINTY_ASSIGNED_CONTEXT((#1872))
GLOBAL_UNIT_ASSIGNED_CONTEXT((#1876,#1878,#1879))
REPRESENTATION_CONTEXT('','3D')
);
#1875=(
GEOMETRIC_REPRESENTATION_CONTEXT(3)
GLOBAL_UNCERTAINTY_ASSIGNED_CONTEXT((#1873))
GLOBAL_UNIT_ASSIGNED_CONTEXT((#1876,#1878,#1879))
REPRESENTATION_CONTEXT('','3D')
);
#1876=(
LENGTH_UNIT()
NAMED_UNIT(*)
SI_UNIT(.MILLI.,.METRE.)
);
#1877=(
LENGTH_UNIT()
NAMED_UNIT(*)
SI_UNIT($,.METRE.)
);
#1878=(
NAMED_UNIT(*)
PLANE_ANGLE_UNIT()
SI_UNIT($,.RADIAN.)
);
#1879=(
NAMED_UNIT(*)
SI_UNIT($,.STERADIAN.)
SOLID_ANGLE_UNIT()
);
#1880=SHAPE_DEFINITION_REPRESENTATION(#1881,#1882);
#1881=PRODUCT_DEFINITION_SHAPE('',$,#1884);
#1882=SHAPE_REPRESENTATION('',(#1080),#1874);
#1883=PRODUCT_DEFINITION_CONTEXT('part definition',#1888,'design');
#1884=PRODUCT_DEFINITION('POLO-0X29_BIELLETTE1_350-400',
'POLO-0X29_BIELLETTE1_350-400 v3',#1885,#1883);
#1885=PRODUCT_DEFINITION_FORMATION('',$,#1890);
#1886=PRODUCT_RELATED_PRODUCT_CATEGORY(
'POLO-0X29_BIELLETTE1_350-400 v3','POLO-0X29_BIELLETTE1_350-400 v3',(#1890));
#1887=APPLICATION_PROTOCOL_DEFINITION('international standard',
'automotive_design',2009,#1888);
#1888=APPLICATION_CONTEXT(
'Core Data for Automotive Mechanical Design Process');
#1889=PRODUCT_CONTEXT('part definition',#1888,'mechanical');
#1890=PRODUCT('POLO-0X29_BIELLETTE1_350-400',
'POLO-0X29_BIELLETTE1_350-400 v3',$,(#1889));
#1891=PRESENTATION_STYLE_ASSIGNMENT((#1892));
#1892=SURFACE_STYLE_USAGE(.BOTH.,#1893);
#1893=SURFACE_SIDE_STYLE('',(#1894));
#1894=SURFACE_STYLE_FILL_AREA(#1895);
#1895=FILL_AREA_STYLE('Acier - Satin\X\E9',(#1896));
#1896=FILL_AREA_STYLE_COLOUR('Acier - Satin\X\E9',#1897);
#1897=COLOUR_RGB('Acier - Satin\X\E9',0.627450980392157,0.627450980392157,
0.627450980392157);
ENDSEC;
END-ISO-10303-21;
