ISO-10303-21;
HEADER;
/* Generated by software containing ST-Developer
 * from STEP Tools, Inc. (www.steptools.com) 
 */

FILE_DESCRIPTION(
/* description */ (''),
/* implementation_level */ '2;1');

FILE_NAME(
/* name */ 'POLO-0033_SUPPORT_PATIN_CFG3 v1.step',
/* time_stamp */ '2025-05-07T17:39:10+02:00',
/* author */ (''),
/* organization */ (''),
/* preprocessor_version */ 'ST-DEVELOPER v20.1',
/* originating_system */ 'Autodesk Translation Framework v14.4.0.0',
/* authorisation */ '');

FILE_SCHEMA (('AUTOMOTIVE_DESIGN { 1 0 10303 214 3 1 1 }'));
ENDSEC;

DATA;
#10=MECHANICAL_DESIGN_GEOMETRIC_PRESENTATION_REPRESENTATION('',(#13),#1198);
#11=SHAPE_REPRESENTATION_RELATIONSHIP('SRR','None',#1205,#12);
#12=ADVANCED_BREP_SHAPE_REPRESENTATION('',(#14),#1197);
#13=STYLED_ITEM('',(#1215),#14);
#14=MANIFOLD_SOLID_BREP('Corps1',#641);
#15=B_SPLINE_CURVE_WITH_KNOTS('',3,(#1003,#1004,#1005,#1006,#1007,#1008,
#1009,#1010),.UNSPECIFIED.,.F.,.F.,(4,2,2,4),(0.,0.419079983594384,0.628619975391576,
0.838159967188768),.UNSPECIFIED.);
#16=B_SPLINE_CURVE_WITH_KNOTS('',3,(#1016,#1017,#1018,#1019,#1020,#1021,
#1022,#1023),.UNSPECIFIED.,.F.,.F.,(4,2,2,4),(-0.838159967188768,-0.628619975391576,
-0.419079983594384,0.),.UNSPECIFIED.);
#17=B_SPLINE_CURVE_WITH_KNOTS('',3,(#1029,#1030,#1031,#1032,#1033,#1034,
#1035,#1036,#1037,#1038,#1039,#1040,#1041,#1042,#1043,#1044,#1045,#1046,
#1047,#1048,#1049,#1050,#1051,#1052,#1053,#1054,#1055,#1056,#1057,#1058,
#1059,#1060,#1061,#1062),.UNSPECIFIED.,.F.,.F.,(4,2,2,2,2,2,2,2,2,2,2,2,
2,2,2,2,4),(0.114322981978365,0.150485173707863,0.300970347415726,0.454134108501387,
0.607297869587048,0.762035663504503,0.916773457421958,1.06742544892787,
1.21807744043379,1.3687294319397,1.51938142344561,1.67411921736307,1.82885701128052,
1.98202077236619,2.13518453345185,2.28566970715971,2.32183189888921),
 .UNSPECIFIED.);
#18=B_SPLINE_CURVE_WITH_KNOTS('',3,(#1066,#1067,#1068,#1069,#1070,#1071,
#1072,#1073,#1074,#1075,#1076,#1077,#1078,#1079,#1080,#1081,#1082,#1083,
#1084,#1085,#1086,#1087,#1088,#1089,#1090,#1091,#1092,#1093,#1094,#1095,
#1096,#1097,#1098,#1099,#1100),.UNSPECIFIED.,.F.,.F.,(4,2,2,2,2,2,2,2,3,
2,2,2,2,2,2,2,4),(1.33240042241215,1.36856261414165,1.51904778784951,1.67221154893517,
1.82537531002083,1.98011310393829,2.13485089785574,2.28550288936166,2.43615488086757,
2.58680687237349,2.7374588638794,2.89219665779686,3.04693445171431,3.20009821279997,
3.35326197388563,3.5037471475935,3.53990933932299),.UNSPECIFIED.);
#19=B_SPLINE_CURVE_WITH_KNOTS('',3,(#1163,#1164,#1165,#1166,#1167,#1168,
#1169,#1170),.UNSPECIFIED.,.F.,.F.,(4,2,2,4),(0.,0.419079983594384,0.628619975391576,
0.838159967188768),.UNSPECIFIED.);
#20=B_SPLINE_CURVE_WITH_KNOTS('',3,(#1175,#1176,#1177,#1178,#1179,#1180,
#1181,#1182),.UNSPECIFIED.,.F.,.F.,(4,2,2,4),(-0.838159967188768,-0.628619975391576,
-0.419079983594384,0.),.UNSPECIFIED.);
#21=CONICAL_SURFACE('',#682,2.499999999839,0.785398163397448);
#22=CONICAL_SURFACE('',#696,2.449999998878,0.785398163397448);
#23=CONICAL_SURFACE('',#709,2.449999998878,0.785398163397448);
#24=CONICAL_SURFACE('',#714,2.499999999839,0.785398163397448);
#25=CONICAL_SURFACE('',#716,2.499999999839,0.785398163397448);
#26=CONICAL_SURFACE('',#724,2.499999999839,0.785398163397448);
#27=CYLINDRICAL_SURFACE('',#660,2.5);
#28=CYLINDRICAL_SURFACE('',#662,2.5);
#29=CYLINDRICAL_SURFACE('',#675,2.5);
#30=CYLINDRICAL_SURFACE('',#676,2.5);
#31=CYLINDRICAL_SURFACE('',#685,3.);
#32=CYLINDRICAL_SURFACE('',#686,10.);
#33=CYLINDRICAL_SURFACE('',#687,63.);
#34=CYLINDRICAL_SURFACE('',#688,4.);
#35=CYLINDRICAL_SURFACE('',#695,4.);
#36=CYLINDRICAL_SURFACE('',#699,2.2);
#37=CYLINDRICAL_SURFACE('',#706,2.2);
#38=CYLINDRICAL_SURFACE('',#712,3.);
#39=CYLINDRICAL_SURFACE('',#718,3.);
#40=CYLINDRICAL_SURFACE('',#719,10.);
#41=CYLINDRICAL_SURFACE('',#722,3.);
#42=FACE_BOUND('',#93,.T.);
#43=FACE_BOUND('',#94,.T.);
#44=FACE_BOUND('',#98,.T.);
#45=FACE_BOUND('',#99,.T.);
#46=FACE_BOUND('',#101,.T.);
#47=FACE_BOUND('',#102,.T.);
#48=FACE_BOUND('',#106,.T.);
#49=FACE_BOUND('',#107,.T.);
#50=FACE_BOUND('',#113,.T.);
#51=FACE_BOUND('',#114,.T.);
#52=FACE_BOUND('',#117,.T.);
#53=FACE_BOUND('',#119,.T.);
#54=FACE_BOUND('',#124,.T.);
#55=FACE_BOUND('',#125,.T.);
#56=FACE_OUTER_BOUND('',#92,.T.);
#57=FACE_OUTER_BOUND('',#95,.T.);
#58=FACE_OUTER_BOUND('',#96,.T.);
#59=FACE_OUTER_BOUND('',#97,.T.);
#60=FACE_OUTER_BOUND('',#100,.T.);
#61=FACE_OUTER_BOUND('',#103,.T.);
#62=FACE_OUTER_BOUND('',#104,.T.);
#63=FACE_OUTER_BOUND('',#105,.T.);
#64=FACE_OUTER_BOUND('',#108,.T.);
#65=FACE_OUTER_BOUND('',#109,.T.);
#66=FACE_OUTER_BOUND('',#110,.T.);
#67=FACE_OUTER_BOUND('',#111,.T.);
#68=FACE_OUTER_BOUND('',#112,.T.);
#69=FACE_OUTER_BOUND('',#115,.T.);
#70=FACE_OUTER_BOUND('',#116,.T.);
#71=FACE_OUTER_BOUND('',#118,.T.);
#72=FACE_OUTER_BOUND('',#120,.T.);
#73=FACE_OUTER_BOUND('',#121,.T.);
#74=FACE_OUTER_BOUND('',#122,.T.);
#75=FACE_OUTER_BOUND('',#123,.T.);
#76=FACE_OUTER_BOUND('',#126,.T.);
#77=FACE_OUTER_BOUND('',#127,.T.);
#78=FACE_OUTER_BOUND('',#128,.T.);
#79=FACE_OUTER_BOUND('',#129,.T.);
#80=FACE_OUTER_BOUND('',#130,.T.);
#81=FACE_OUTER_BOUND('',#131,.T.);
#82=FACE_OUTER_BOUND('',#132,.T.);
#83=FACE_OUTER_BOUND('',#133,.T.);
#84=FACE_OUTER_BOUND('',#134,.T.);
#85=FACE_OUTER_BOUND('',#135,.T.);
#86=FACE_OUTER_BOUND('',#136,.T.);
#87=FACE_OUTER_BOUND('',#137,.T.);
#88=FACE_OUTER_BOUND('',#138,.T.);
#89=FACE_OUTER_BOUND('',#139,.T.);
#90=FACE_OUTER_BOUND('',#140,.T.);
#91=FACE_OUTER_BOUND('',#141,.T.);
#92=EDGE_LOOP('',(#414,#415,#416,#417,#418,#419));
#93=EDGE_LOOP('',(#420));
#94=EDGE_LOOP('',(#421));
#95=EDGE_LOOP('',(#422,#423,#424,#425));
#96=EDGE_LOOP('',(#426,#427,#428,#429));
#97=EDGE_LOOP('',(#430,#431,#432,#433));
#98=EDGE_LOOP('',(#434));
#99=EDGE_LOOP('',(#435));
#100=EDGE_LOOP('',(#436,#437,#438,#439));
#101=EDGE_LOOP('',(#440));
#102=EDGE_LOOP('',(#441));
#103=EDGE_LOOP('',(#442,#443,#444,#445));
#104=EDGE_LOOP('',(#446,#447,#448,#449));
#105=EDGE_LOOP('',(#450,#451,#452,#453,#454,#455));
#106=EDGE_LOOP('',(#456));
#107=EDGE_LOOP('',(#457));
#108=EDGE_LOOP('',(#458,#459,#460,#461));
#109=EDGE_LOOP('',(#462,#463,#464,#465));
#110=EDGE_LOOP('',(#466,#467,#468,#469));
#111=EDGE_LOOP('',(#470,#471,#472,#473,#474,#475,#476,#477,#478,#479));
#112=EDGE_LOOP('',(#480,#481,#482,#483));
#113=EDGE_LOOP('',(#484,#485));
#114=EDGE_LOOP('',(#486,#487));
#115=EDGE_LOOP('',(#488,#489));
#116=EDGE_LOOP('',(#490,#491));
#117=EDGE_LOOP('',(#492));
#118=EDGE_LOOP('',(#493,#494));
#119=EDGE_LOOP('',(#495));
#120=EDGE_LOOP('',(#496,#497));
#121=EDGE_LOOP('',(#498,#499,#500,#501,#502));
#122=EDGE_LOOP('',(#503,#504,#505,#506,#507));
#123=EDGE_LOOP('',(#508,#509,#510,#511,#512,#513,#514,#515));
#124=EDGE_LOOP('',(#516));
#125=EDGE_LOOP('',(#517));
#126=EDGE_LOOP('',(#518,#519,#520,#521,#522));
#127=EDGE_LOOP('',(#523,#524,#525,#526,#527));
#128=EDGE_LOOP('',(#528,#529,#530,#531));
#129=EDGE_LOOP('',(#532,#533,#534,#535));
#130=EDGE_LOOP('',(#536,#537,#538,#539));
#131=EDGE_LOOP('',(#540,#541,#542,#543));
#132=EDGE_LOOP('',(#544,#545,#546,#547));
#133=EDGE_LOOP('',(#548,#549,#550,#551));
#134=EDGE_LOOP('',(#552,#553,#554,#555));
#135=EDGE_LOOP('',(#556,#557,#558,#559,#560,#561,#562,#563,#564,#565));
#136=EDGE_LOOP('',(#566,#567,#568,#569));
#137=EDGE_LOOP('',(#570,#571,#572,#573));
#138=EDGE_LOOP('',(#574,#575,#576,#577));
#139=EDGE_LOOP('',(#578,#579,#580,#581));
#140=EDGE_LOOP('',(#582,#583,#584,#585));
#141=EDGE_LOOP('',(#586,#587,#588,#589));
#142=CIRCLE('',#656,10.);
#143=CIRCLE('',#657,10.);
#144=CIRCLE('',#658,2.5);
#145=CIRCLE('',#659,2.5);
#146=CIRCLE('',#661,2.5);
#147=CIRCLE('',#663,2.5);
#148=CIRCLE('',#664,2.5);
#149=CIRCLE('',#666,10.);
#150=CIRCLE('',#667,10.);
#151=CIRCLE('',#668,63.);
#152=CIRCLE('',#669,2.5);
#153=CIRCLE('',#671,10.);
#154=CIRCLE('',#672,63.);
#155=CIRCLE('',#673,10.);
#156=CIRCLE('',#674,2.5);
#157=CIRCLE('',#677,2.5);
#158=CIRCLE('',#679,10.);
#159=CIRCLE('',#680,10.);
#160=CIRCLE('',#683,3.);
#161=CIRCLE('',#684,2.);
#162=CIRCLE('',#689,4.);
#163=CIRCLE('',#691,2.7);
#164=CIRCLE('',#693,4.);
#165=CIRCLE('',#694,2.7);
#166=CIRCLE('',#697,2.2);
#167=CIRCLE('',#698,2.2);
#168=CIRCLE('',#700,2.2);
#169=CIRCLE('',#702,2.);
#170=CIRCLE('',#703,2.);
#171=CIRCLE('',#704,2.);
#172=CIRCLE('',#705,2.2);
#173=CIRCLE('',#707,2.2);
#174=CIRCLE('',#708,2.2);
#175=CIRCLE('',#713,3.);
#176=CIRCLE('',#717,3.);
#177=CIRCLE('',#723,3.);
#178=LINE('',#923,#224);
#179=LINE('',#925,#225);
#180=LINE('',#929,#226);
#181=LINE('',#932,#227);
#182=LINE('',#939,#228);
#183=LINE('',#945,#229);
#184=LINE('',#952,#230);
#185=LINE('',#966,#231);
#186=LINE('',#970,#232);
#187=LINE('',#974,#233);
#188=LINE('',#978,#234);
#189=LINE('',#980,#235);
#190=LINE('',#984,#236);
#191=LINE('',#987,#237);
#192=LINE('',#990,#238);
#193=LINE('',#992,#239);
#194=LINE('',#993,#240);
#195=LINE('',#999,#241);
#196=LINE('',#1002,#242);
#197=LINE('',#1012,#243);
#198=LINE('',#1013,#244);
#199=LINE('',#1015,#245);
#200=LINE('',#1024,#246);
#201=LINE('',#1026,#247);
#202=LINE('',#1063,#248);
#203=LINE('',#1101,#249);
#204=LINE('',#1117,#250);
#205=LINE('',#1121,#251);
#206=LINE('',#1126,#252);
#207=LINE('',#1130,#253);
#208=LINE('',#1133,#254);
#209=LINE('',#1141,#255);
#210=LINE('',#1143,#256);
#211=LINE('',#1146,#257);
#212=LINE('',#1147,#258);
#213=LINE('',#1149,#259);
#214=LINE('',#1153,#260);
#215=LINE('',#1155,#261);
#216=LINE('',#1159,#262);
#217=LINE('',#1162,#263);
#218=LINE('',#1172,#264);
#219=LINE('',#1174,#265);
#220=LINE('',#1183,#266);
#221=LINE('',#1189,#267);
#222=LINE('',#1191,#268);
#223=LINE('',#1193,#269);
#224=VECTOR('',#731,27.99999998381);
#225=VECTOR('',#732,9.741428428663);
#226=VECTOR('',#735,14.);
#227=VECTOR('',#738,9.741428428663);
#228=VECTOR('',#745,2.5);
#229=VECTOR('',#752,2.5);
#230=VECTOR('',#759,14.);
#231=VECTOR('',#774,14.);
#232=VECTOR('',#779,2.5);
#233=VECTOR('',#784,2.5);
#234=VECTOR('',#787,27.99999998381);
#235=VECTOR('',#788,9.741428428663);
#236=VECTOR('',#791,14.);
#237=VECTOR('',#794,9.741428428663);
#238=VECTOR('',#797,1.41421356235391);
#239=VECTOR('',#798,27.9999999856);
#240=VECTOR('',#799,1.41421356235391);
#241=VECTOR('',#806,1.41421356235691);
#242=VECTOR('',#809,2.600000000105);
#243=VECTOR('',#812,8.2);
#244=VECTOR('',#813,6.4);
#245=VECTOR('',#814,15.);
#246=VECTOR('',#815,6.4);
#247=VECTOR('',#818,8.2);
#248=VECTOR('',#819,2.334510160196);
#249=VECTOR('',#820,2.334510160196);
#250=VECTOR('',#843,2.449999998878);
#251=VECTOR('',#848,2.2);
#252=VECTOR('',#853,14.99999998588);
#253=VECTOR('',#856,27.9999999856);
#254=VECTOR('',#859,14.99999998588);
#255=VECTOR('',#868,2.2);
#256=VECTOR('',#871,2.449999998878);
#257=VECTOR('',#874,14.99999998412);
#258=VECTOR('',#875,1.41421356235691);
#259=VECTOR('',#878,2.600000000105);
#260=VECTOR('',#885,1.41421356235391);
#261=VECTOR('',#888,1.41421356235391);
#262=VECTOR('',#893,1.41421356235691);
#263=VECTOR('',#896,2.600000000105);
#264=VECTOR('',#899,6.4);
#265=VECTOR('',#900,15.);
#266=VECTOR('',#901,6.4);
#267=VECTOR('',#910,2.600000000105);
#268=VECTOR('',#913,1.41421356235691);
#269=VECTOR('',#916,14.99999998412);
#270=VERTEX_POINT('',#921);
#271=VERTEX_POINT('',#922);
#272=VERTEX_POINT('',#924);
#273=VERTEX_POINT('',#926);
#274=VERTEX_POINT('',#928);
#275=VERTEX_POINT('',#930);
#276=VERTEX_POINT('',#933);
#277=VERTEX_POINT('',#935);
#278=VERTEX_POINT('',#938);
#279=VERTEX_POINT('',#942);
#280=VERTEX_POINT('',#944);
#281=VERTEX_POINT('',#948);
#282=VERTEX_POINT('',#949);
#283=VERTEX_POINT('',#951);
#284=VERTEX_POINT('',#953);
#285=VERTEX_POINT('',#956);
#286=VERTEX_POINT('',#959);
#287=VERTEX_POINT('',#960);
#288=VERTEX_POINT('',#962);
#289=VERTEX_POINT('',#964);
#290=VERTEX_POINT('',#967);
#291=VERTEX_POINT('',#972);
#292=VERTEX_POINT('',#976);
#293=VERTEX_POINT('',#977);
#294=VERTEX_POINT('',#979);
#295=VERTEX_POINT('',#981);
#296=VERTEX_POINT('',#983);
#297=VERTEX_POINT('',#985);
#298=VERTEX_POINT('',#989);
#299=VERTEX_POINT('',#991);
#300=VERTEX_POINT('',#995);
#301=VERTEX_POINT('',#997);
#302=VERTEX_POINT('',#1001);
#303=VERTEX_POINT('',#1014);
#304=VERTEX_POINT('',#1027);
#305=VERTEX_POINT('',#1028);
#306=VERTEX_POINT('',#1064);
#307=VERTEX_POINT('',#1065);
#308=VERTEX_POINT('',#1105);
#309=VERTEX_POINT('',#1109);
#310=VERTEX_POINT('',#1113);
#311=VERTEX_POINT('',#1114);
#312=VERTEX_POINT('',#1119);
#313=VERTEX_POINT('',#1123);
#314=VERTEX_POINT('',#1125);
#315=VERTEX_POINT('',#1127);
#316=VERTEX_POINT('',#1129);
#317=VERTEX_POINT('',#1131);
#318=VERTEX_POINT('',#1134);
#319=VERTEX_POINT('',#1137);
#320=VERTEX_POINT('',#1138);
#321=VERTEX_POINT('',#1145);
#322=VERTEX_POINT('',#1157);
#323=VERTEX_POINT('',#1161);
#324=VERTEX_POINT('',#1173);
#325=VERTEX_POINT('',#1187);
#326=EDGE_CURVE('',#270,#271,#178,.T.);
#327=EDGE_CURVE('',#271,#272,#179,.T.);
#328=EDGE_CURVE('',#272,#273,#142,.T.);
#329=EDGE_CURVE('',#274,#273,#180,.T.);
#330=EDGE_CURVE('',#274,#275,#143,.T.);
#331=EDGE_CURVE('',#275,#270,#181,.T.);
#332=EDGE_CURVE('',#276,#276,#144,.T.);
#333=EDGE_CURVE('',#277,#277,#145,.T.);
#334=EDGE_CURVE('',#277,#278,#182,.T.);
#335=EDGE_CURVE('',#278,#278,#146,.T.);
#336=EDGE_CURVE('',#279,#279,#147,.T.);
#337=EDGE_CURVE('',#279,#280,#183,.T.);
#338=EDGE_CURVE('',#280,#280,#148,.T.);
#339=EDGE_CURVE('',#281,#282,#149,.T.);
#340=EDGE_CURVE('',#281,#283,#184,.T.);
#341=EDGE_CURVE('',#284,#283,#150,.T.);
#342=EDGE_CURVE('',#284,#282,#151,.T.);
#343=EDGE_CURVE('',#285,#285,#152,.T.);
#344=EDGE_CURVE('',#286,#287,#153,.T.);
#345=EDGE_CURVE('',#288,#286,#154,.T.);
#346=EDGE_CURVE('',#289,#288,#155,.T.);
#347=EDGE_CURVE('',#287,#289,#185,.T.);
#348=EDGE_CURVE('',#290,#290,#156,.T.);
#349=EDGE_CURVE('',#285,#276,#186,.T.);
#350=EDGE_CURVE('',#291,#291,#157,.T.);
#351=EDGE_CURVE('',#291,#290,#187,.T.);
#352=EDGE_CURVE('',#292,#293,#188,.T.);
#353=EDGE_CURVE('',#293,#294,#189,.T.);
#354=EDGE_CURVE('',#294,#295,#158,.T.);
#355=EDGE_CURVE('',#295,#296,#190,.T.);
#356=EDGE_CURVE('',#296,#297,#159,.T.);
#357=EDGE_CURVE('',#297,#292,#191,.T.);
#358=EDGE_CURVE('',#292,#298,#192,.T.);
#359=EDGE_CURVE('',#298,#299,#193,.T.);
#360=EDGE_CURVE('',#293,#299,#194,.T.);
#361=EDGE_CURVE('',#293,#300,#160,.T.);
#362=EDGE_CURVE('',#299,#301,#161,.T.);
#363=EDGE_CURVE('',#300,#301,#195,.T.);
#364=EDGE_CURVE('',#300,#302,#196,.T.);
#365=EDGE_CURVE('',#302,#294,#15,.T.);
#366=EDGE_CURVE('',#286,#282,#197,.T.);
#367=EDGE_CURVE('',#295,#287,#198,.T.);
#368=EDGE_CURVE('',#303,#302,#199,.T.);
#369=EDGE_CURVE('',#275,#303,#16,.T.);
#370=EDGE_CURVE('',#281,#274,#200,.T.);
#371=EDGE_CURVE('',#284,#288,#201,.T.);
#372=EDGE_CURVE('',#304,#305,#17,.T.);
#373=EDGE_CURVE('',#304,#305,#202,.T.);
#374=EDGE_CURVE('',#306,#307,#18,.T.);
#375=EDGE_CURVE('',#307,#306,#203,.T.);
#376=EDGE_CURVE('',#307,#306,#162,.T.);
#377=EDGE_CURVE('',#308,#308,#163,.T.);
#378=EDGE_CURVE('',#305,#304,#164,.T.);
#379=EDGE_CURVE('',#309,#309,#165,.T.);
#380=EDGE_CURVE('',#310,#311,#166,.T.);
#381=EDGE_CURVE('',#311,#310,#167,.T.);
#382=EDGE_CURVE('',#311,#309,#204,.T.);
#383=EDGE_CURVE('',#312,#312,#168,.T.);
#384=EDGE_CURVE('',#312,#310,#205,.T.);
#385=EDGE_CURVE('',#313,#298,#169,.T.);
#386=EDGE_CURVE('',#314,#313,#206,.T.);
#387=EDGE_CURVE('',#315,#314,#170,.T.);
#388=EDGE_CURVE('',#316,#315,#207,.T.);
#389=EDGE_CURVE('',#317,#316,#171,.T.);
#390=EDGE_CURVE('',#301,#317,#208,.T.);
#391=EDGE_CURVE('',#318,#318,#172,.T.);
#392=EDGE_CURVE('',#319,#320,#173,.T.);
#393=EDGE_CURVE('',#320,#319,#174,.T.);
#394=EDGE_CURVE('',#319,#318,#209,.T.);
#395=EDGE_CURVE('',#320,#308,#210,.T.);
#396=EDGE_CURVE('',#300,#321,#211,.T.);
#397=EDGE_CURVE('',#321,#317,#212,.T.);
#398=EDGE_CURVE('',#303,#321,#213,.T.);
#399=EDGE_CURVE('',#321,#270,#175,.T.);
#400=EDGE_CURVE('',#270,#316,#214,.T.);
#401=EDGE_CURVE('',#271,#315,#215,.T.);
#402=EDGE_CURVE('',#271,#322,#176,.T.);
#403=EDGE_CURVE('',#322,#314,#216,.T.);
#404=EDGE_CURVE('',#322,#323,#217,.T.);
#405=EDGE_CURVE('',#323,#272,#19,.T.);
#406=EDGE_CURVE('',#273,#283,#218,.T.);
#407=EDGE_CURVE('',#324,#323,#219,.T.);
#408=EDGE_CURVE('',#297,#324,#20,.T.);
#409=EDGE_CURVE('',#289,#296,#220,.T.);
#410=EDGE_CURVE('',#325,#292,#177,.T.);
#411=EDGE_CURVE('',#324,#325,#221,.T.);
#412=EDGE_CURVE('',#325,#313,#222,.T.);
#413=EDGE_CURVE('',#322,#325,#223,.T.);
#414=ORIENTED_EDGE('',*,*,#326,.T.);
#415=ORIENTED_EDGE('',*,*,#327,.T.);
#416=ORIENTED_EDGE('',*,*,#328,.T.);
#417=ORIENTED_EDGE('',*,*,#329,.F.);
#418=ORIENTED_EDGE('',*,*,#330,.T.);
#419=ORIENTED_EDGE('',*,*,#331,.T.);
#420=ORIENTED_EDGE('',*,*,#332,.F.);
#421=ORIENTED_EDGE('',*,*,#333,.T.);
#422=ORIENTED_EDGE('',*,*,#333,.F.);
#423=ORIENTED_EDGE('',*,*,#334,.T.);
#424=ORIENTED_EDGE('',*,*,#335,.T.);
#425=ORIENTED_EDGE('',*,*,#334,.F.);
#426=ORIENTED_EDGE('',*,*,#336,.F.);
#427=ORIENTED_EDGE('',*,*,#337,.T.);
#428=ORIENTED_EDGE('',*,*,#338,.T.);
#429=ORIENTED_EDGE('',*,*,#337,.F.);
#430=ORIENTED_EDGE('',*,*,#339,.F.);
#431=ORIENTED_EDGE('',*,*,#340,.T.);
#432=ORIENTED_EDGE('',*,*,#341,.F.);
#433=ORIENTED_EDGE('',*,*,#342,.T.);
#434=ORIENTED_EDGE('',*,*,#343,.T.);
#435=ORIENTED_EDGE('',*,*,#335,.F.);
#436=ORIENTED_EDGE('',*,*,#344,.F.);
#437=ORIENTED_EDGE('',*,*,#345,.F.);
#438=ORIENTED_EDGE('',*,*,#346,.F.);
#439=ORIENTED_EDGE('',*,*,#347,.F.);
#440=ORIENTED_EDGE('',*,*,#348,.F.);
#441=ORIENTED_EDGE('',*,*,#336,.T.);
#442=ORIENTED_EDGE('',*,*,#343,.F.);
#443=ORIENTED_EDGE('',*,*,#349,.T.);
#444=ORIENTED_EDGE('',*,*,#332,.T.);
#445=ORIENTED_EDGE('',*,*,#349,.F.);
#446=ORIENTED_EDGE('',*,*,#350,.F.);
#447=ORIENTED_EDGE('',*,*,#351,.T.);
#448=ORIENTED_EDGE('',*,*,#348,.T.);
#449=ORIENTED_EDGE('',*,*,#351,.F.);
#450=ORIENTED_EDGE('',*,*,#352,.T.);
#451=ORIENTED_EDGE('',*,*,#353,.T.);
#452=ORIENTED_EDGE('',*,*,#354,.T.);
#453=ORIENTED_EDGE('',*,*,#355,.T.);
#454=ORIENTED_EDGE('',*,*,#356,.T.);
#455=ORIENTED_EDGE('',*,*,#357,.T.);
#456=ORIENTED_EDGE('',*,*,#350,.T.);
#457=ORIENTED_EDGE('',*,*,#338,.F.);
#458=ORIENTED_EDGE('',*,*,#352,.F.);
#459=ORIENTED_EDGE('',*,*,#358,.T.);
#460=ORIENTED_EDGE('',*,*,#359,.T.);
#461=ORIENTED_EDGE('',*,*,#360,.F.);
#462=ORIENTED_EDGE('',*,*,#361,.F.);
#463=ORIENTED_EDGE('',*,*,#360,.T.);
#464=ORIENTED_EDGE('',*,*,#362,.T.);
#465=ORIENTED_EDGE('',*,*,#363,.F.);
#466=ORIENTED_EDGE('',*,*,#361,.T.);
#467=ORIENTED_EDGE('',*,*,#364,.T.);
#468=ORIENTED_EDGE('',*,*,#365,.T.);
#469=ORIENTED_EDGE('',*,*,#353,.F.);
#470=ORIENTED_EDGE('',*,*,#366,.F.);
#471=ORIENTED_EDGE('',*,*,#344,.T.);
#472=ORIENTED_EDGE('',*,*,#367,.F.);
#473=ORIENTED_EDGE('',*,*,#354,.F.);
#474=ORIENTED_EDGE('',*,*,#365,.F.);
#475=ORIENTED_EDGE('',*,*,#368,.F.);
#476=ORIENTED_EDGE('',*,*,#369,.F.);
#477=ORIENTED_EDGE('',*,*,#330,.F.);
#478=ORIENTED_EDGE('',*,*,#370,.F.);
#479=ORIENTED_EDGE('',*,*,#339,.T.);
#480=ORIENTED_EDGE('',*,*,#366,.T.);
#481=ORIENTED_EDGE('',*,*,#342,.F.);
#482=ORIENTED_EDGE('',*,*,#371,.T.);
#483=ORIENTED_EDGE('',*,*,#345,.T.);
#484=ORIENTED_EDGE('',*,*,#372,.T.);
#485=ORIENTED_EDGE('',*,*,#373,.F.);
#486=ORIENTED_EDGE('',*,*,#374,.T.);
#487=ORIENTED_EDGE('',*,*,#375,.T.);
#488=ORIENTED_EDGE('',*,*,#374,.F.);
#489=ORIENTED_EDGE('',*,*,#376,.F.);
#490=ORIENTED_EDGE('',*,*,#376,.T.);
#491=ORIENTED_EDGE('',*,*,#375,.F.);
#492=ORIENTED_EDGE('',*,*,#377,.F.);
#493=ORIENTED_EDGE('',*,*,#378,.T.);
#494=ORIENTED_EDGE('',*,*,#373,.T.);
#495=ORIENTED_EDGE('',*,*,#379,.F.);
#496=ORIENTED_EDGE('',*,*,#378,.F.);
#497=ORIENTED_EDGE('',*,*,#372,.F.);
#498=ORIENTED_EDGE('',*,*,#380,.F.);
#499=ORIENTED_EDGE('',*,*,#381,.F.);
#500=ORIENTED_EDGE('',*,*,#382,.T.);
#501=ORIENTED_EDGE('',*,*,#379,.T.);
#502=ORIENTED_EDGE('',*,*,#382,.F.);
#503=ORIENTED_EDGE('',*,*,#383,.F.);
#504=ORIENTED_EDGE('',*,*,#384,.T.);
#505=ORIENTED_EDGE('',*,*,#380,.T.);
#506=ORIENTED_EDGE('',*,*,#381,.T.);
#507=ORIENTED_EDGE('',*,*,#384,.F.);
#508=ORIENTED_EDGE('',*,*,#362,.F.);
#509=ORIENTED_EDGE('',*,*,#359,.F.);
#510=ORIENTED_EDGE('',*,*,#385,.F.);
#511=ORIENTED_EDGE('',*,*,#386,.F.);
#512=ORIENTED_EDGE('',*,*,#387,.F.);
#513=ORIENTED_EDGE('',*,*,#388,.F.);
#514=ORIENTED_EDGE('',*,*,#389,.F.);
#515=ORIENTED_EDGE('',*,*,#390,.F.);
#516=ORIENTED_EDGE('',*,*,#383,.T.);
#517=ORIENTED_EDGE('',*,*,#391,.F.);
#518=ORIENTED_EDGE('',*,*,#392,.T.);
#519=ORIENTED_EDGE('',*,*,#393,.T.);
#520=ORIENTED_EDGE('',*,*,#394,.T.);
#521=ORIENTED_EDGE('',*,*,#391,.T.);
#522=ORIENTED_EDGE('',*,*,#394,.F.);
#523=ORIENTED_EDGE('',*,*,#392,.F.);
#524=ORIENTED_EDGE('',*,*,#393,.F.);
#525=ORIENTED_EDGE('',*,*,#395,.T.);
#526=ORIENTED_EDGE('',*,*,#377,.T.);
#527=ORIENTED_EDGE('',*,*,#395,.F.);
#528=ORIENTED_EDGE('',*,*,#396,.F.);
#529=ORIENTED_EDGE('',*,*,#363,.T.);
#530=ORIENTED_EDGE('',*,*,#390,.T.);
#531=ORIENTED_EDGE('',*,*,#397,.F.);
#532=ORIENTED_EDGE('',*,*,#396,.T.);
#533=ORIENTED_EDGE('',*,*,#398,.F.);
#534=ORIENTED_EDGE('',*,*,#368,.T.);
#535=ORIENTED_EDGE('',*,*,#364,.F.);
#536=ORIENTED_EDGE('',*,*,#399,.T.);
#537=ORIENTED_EDGE('',*,*,#331,.F.);
#538=ORIENTED_EDGE('',*,*,#369,.T.);
#539=ORIENTED_EDGE('',*,*,#398,.T.);
#540=ORIENTED_EDGE('',*,*,#399,.F.);
#541=ORIENTED_EDGE('',*,*,#397,.T.);
#542=ORIENTED_EDGE('',*,*,#389,.T.);
#543=ORIENTED_EDGE('',*,*,#400,.F.);
#544=ORIENTED_EDGE('',*,*,#326,.F.);
#545=ORIENTED_EDGE('',*,*,#400,.T.);
#546=ORIENTED_EDGE('',*,*,#388,.T.);
#547=ORIENTED_EDGE('',*,*,#401,.F.);
#548=ORIENTED_EDGE('',*,*,#402,.F.);
#549=ORIENTED_EDGE('',*,*,#401,.T.);
#550=ORIENTED_EDGE('',*,*,#387,.T.);
#551=ORIENTED_EDGE('',*,*,#403,.F.);
#552=ORIENTED_EDGE('',*,*,#402,.T.);
#553=ORIENTED_EDGE('',*,*,#404,.T.);
#554=ORIENTED_EDGE('',*,*,#405,.T.);
#555=ORIENTED_EDGE('',*,*,#327,.F.);
#556=ORIENTED_EDGE('',*,*,#371,.F.);
#557=ORIENTED_EDGE('',*,*,#341,.T.);
#558=ORIENTED_EDGE('',*,*,#406,.F.);
#559=ORIENTED_EDGE('',*,*,#328,.F.);
#560=ORIENTED_EDGE('',*,*,#405,.F.);
#561=ORIENTED_EDGE('',*,*,#407,.F.);
#562=ORIENTED_EDGE('',*,*,#408,.F.);
#563=ORIENTED_EDGE('',*,*,#356,.F.);
#564=ORIENTED_EDGE('',*,*,#409,.F.);
#565=ORIENTED_EDGE('',*,*,#346,.T.);
#566=ORIENTED_EDGE('',*,*,#367,.T.);
#567=ORIENTED_EDGE('',*,*,#347,.T.);
#568=ORIENTED_EDGE('',*,*,#409,.T.);
#569=ORIENTED_EDGE('',*,*,#355,.F.);
#570=ORIENTED_EDGE('',*,*,#370,.T.);
#571=ORIENTED_EDGE('',*,*,#329,.T.);
#572=ORIENTED_EDGE('',*,*,#406,.T.);
#573=ORIENTED_EDGE('',*,*,#340,.F.);
#574=ORIENTED_EDGE('',*,*,#410,.T.);
#575=ORIENTED_EDGE('',*,*,#357,.F.);
#576=ORIENTED_EDGE('',*,*,#408,.T.);
#577=ORIENTED_EDGE('',*,*,#411,.T.);
#578=ORIENTED_EDGE('',*,*,#410,.F.);
#579=ORIENTED_EDGE('',*,*,#412,.T.);
#580=ORIENTED_EDGE('',*,*,#385,.T.);
#581=ORIENTED_EDGE('',*,*,#358,.F.);
#582=ORIENTED_EDGE('',*,*,#413,.F.);
#583=ORIENTED_EDGE('',*,*,#403,.T.);
#584=ORIENTED_EDGE('',*,*,#386,.T.);
#585=ORIENTED_EDGE('',*,*,#412,.F.);
#586=ORIENTED_EDGE('',*,*,#413,.T.);
#587=ORIENTED_EDGE('',*,*,#411,.F.);
#588=ORIENTED_EDGE('',*,*,#407,.T.);
#589=ORIENTED_EDGE('',*,*,#404,.F.);
#590=PLANE('',#655);
#591=PLANE('',#665);
#592=PLANE('',#670);
#593=PLANE('',#678);
#594=PLANE('',#681);
#595=PLANE('',#690);
#596=PLANE('',#692);
#597=PLANE('',#701);
#598=PLANE('',#710);
#599=PLANE('',#711);
#600=PLANE('',#715);
#601=PLANE('',#720);
#602=PLANE('',#721);
#603=PLANE('',#725);
#604=PLANE('',#726);
#605=ADVANCED_FACE('',(#56,#42,#43),#590,.F.);
#606=ADVANCED_FACE('',(#57),#27,.F.);
#607=ADVANCED_FACE('',(#58),#28,.F.);
#608=ADVANCED_FACE('',(#59,#44,#45),#591,.T.);
#609=ADVANCED_FACE('',(#60,#46,#47),#592,.F.);
#610=ADVANCED_FACE('',(#61),#29,.F.);
#611=ADVANCED_FACE('',(#62),#30,.F.);
#612=ADVANCED_FACE('',(#63,#48,#49),#593,.T.);
#613=ADVANCED_FACE('',(#64),#594,.T.);
#614=ADVANCED_FACE('',(#65),#21,.T.);
#615=ADVANCED_FACE('',(#66),#31,.T.);
#616=ADVANCED_FACE('',(#67),#32,.T.);
#617=ADVANCED_FACE('',(#68,#50,#51),#33,.F.);
#618=ADVANCED_FACE('',(#69),#34,.F.);
#619=ADVANCED_FACE('',(#70,#52),#595,.T.);
#620=ADVANCED_FACE('',(#71,#53),#596,.T.);
#621=ADVANCED_FACE('',(#72),#35,.F.);
#622=ADVANCED_FACE('',(#73),#22,.F.);
#623=ADVANCED_FACE('',(#74),#36,.F.);
#624=ADVANCED_FACE('',(#75,#54,#55),#597,.T.);
#625=ADVANCED_FACE('',(#76),#37,.F.);
#626=ADVANCED_FACE('',(#77),#23,.F.);
#627=ADVANCED_FACE('',(#78),#598,.T.);
#628=ADVANCED_FACE('',(#79),#599,.T.);
#629=ADVANCED_FACE('',(#80),#38,.T.);
#630=ADVANCED_FACE('',(#81),#24,.T.);
#631=ADVANCED_FACE('',(#82),#600,.T.);
#632=ADVANCED_FACE('',(#83),#25,.T.);
#633=ADVANCED_FACE('',(#84),#39,.T.);
#634=ADVANCED_FACE('',(#85),#40,.T.);
#635=ADVANCED_FACE('',(#86),#601,.T.);
#636=ADVANCED_FACE('',(#87),#602,.T.);
#637=ADVANCED_FACE('',(#88),#41,.T.);
#638=ADVANCED_FACE('',(#89),#26,.T.);
#639=ADVANCED_FACE('',(#90),#603,.T.);
#640=ADVANCED_FACE('',(#91),#604,.T.);
#641=CLOSED_SHELL('',(#605,#606,#607,#608,#609,#610,#611,#612,#613,#614,
#615,#616,#617,#618,#619,#620,#621,#622,#623,#624,#625,#626,#627,#628,#629,
#630,#631,#632,#633,#634,#635,#636,#637,#638,#639,#640));
#642=DERIVED_UNIT_ELEMENT(#644,1.);
#643=DERIVED_UNIT_ELEMENT(#1200,-3.);
#644=(
MASS_UNIT()
NAMED_UNIT(*)
SI_UNIT(.KILO.,.GRAM.)
);
#645=DERIVED_UNIT((#642,#643));
#646=MEASURE_REPRESENTATION_ITEM('density measure',
POSITIVE_RATIO_MEASURE(7850.),#645);
#647=PROPERTY_DEFINITION_REPRESENTATION(#652,#649);
#648=PROPERTY_DEFINITION_REPRESENTATION(#653,#650);
#649=REPRESENTATION('material name',(#651),#1197);
#650=REPRESENTATION('density',(#646),#1197);
#651=DESCRIPTIVE_REPRESENTATION_ITEM('Acier','Acier');
#652=PROPERTY_DEFINITION('material property','material name',#1207);
#653=PROPERTY_DEFINITION('material property','density of part',#1207);
#654=AXIS2_PLACEMENT_3D('',#919,#727,#728);
#655=AXIS2_PLACEMENT_3D('',#920,#729,#730);
#656=AXIS2_PLACEMENT_3D('',#927,#733,#734);
#657=AXIS2_PLACEMENT_3D('',#931,#736,#737);
#658=AXIS2_PLACEMENT_3D('',#934,#739,#740);
#659=AXIS2_PLACEMENT_3D('',#936,#741,#742);
#660=AXIS2_PLACEMENT_3D('',#937,#743,#744);
#661=AXIS2_PLACEMENT_3D('',#940,#746,#747);
#662=AXIS2_PLACEMENT_3D('',#941,#748,#749);
#663=AXIS2_PLACEMENT_3D('',#943,#750,#751);
#664=AXIS2_PLACEMENT_3D('',#946,#753,#754);
#665=AXIS2_PLACEMENT_3D('',#947,#755,#756);
#666=AXIS2_PLACEMENT_3D('',#950,#757,#758);
#667=AXIS2_PLACEMENT_3D('',#954,#760,#761);
#668=AXIS2_PLACEMENT_3D('',#955,#762,#763);
#669=AXIS2_PLACEMENT_3D('',#957,#764,#765);
#670=AXIS2_PLACEMENT_3D('',#958,#766,#767);
#671=AXIS2_PLACEMENT_3D('',#961,#768,#769);
#672=AXIS2_PLACEMENT_3D('',#963,#770,#771);
#673=AXIS2_PLACEMENT_3D('',#965,#772,#773);
#674=AXIS2_PLACEMENT_3D('',#968,#775,#776);
#675=AXIS2_PLACEMENT_3D('',#969,#777,#778);
#676=AXIS2_PLACEMENT_3D('',#971,#780,#781);
#677=AXIS2_PLACEMENT_3D('',#973,#782,#783);
#678=AXIS2_PLACEMENT_3D('',#975,#785,#786);
#679=AXIS2_PLACEMENT_3D('',#982,#789,#790);
#680=AXIS2_PLACEMENT_3D('',#986,#792,#793);
#681=AXIS2_PLACEMENT_3D('',#988,#795,#796);
#682=AXIS2_PLACEMENT_3D('',#994,#800,#801);
#683=AXIS2_PLACEMENT_3D('',#996,#802,#803);
#684=AXIS2_PLACEMENT_3D('',#998,#804,#805);
#685=AXIS2_PLACEMENT_3D('',#1000,#807,#808);
#686=AXIS2_PLACEMENT_3D('',#1011,#810,#811);
#687=AXIS2_PLACEMENT_3D('',#1025,#816,#817);
#688=AXIS2_PLACEMENT_3D('',#1102,#821,#822);
#689=AXIS2_PLACEMENT_3D('',#1103,#823,#824);
#690=AXIS2_PLACEMENT_3D('',#1104,#825,#826);
#691=AXIS2_PLACEMENT_3D('',#1106,#827,#828);
#692=AXIS2_PLACEMENT_3D('',#1107,#829,#830);
#693=AXIS2_PLACEMENT_3D('',#1108,#831,#832);
#694=AXIS2_PLACEMENT_3D('',#1110,#833,#834);
#695=AXIS2_PLACEMENT_3D('',#1111,#835,#836);
#696=AXIS2_PLACEMENT_3D('',#1112,#837,#838);
#697=AXIS2_PLACEMENT_3D('',#1115,#839,#840);
#698=AXIS2_PLACEMENT_3D('',#1116,#841,#842);
#699=AXIS2_PLACEMENT_3D('',#1118,#844,#845);
#700=AXIS2_PLACEMENT_3D('',#1120,#846,#847);
#701=AXIS2_PLACEMENT_3D('',#1122,#849,#850);
#702=AXIS2_PLACEMENT_3D('',#1124,#851,#852);
#703=AXIS2_PLACEMENT_3D('',#1128,#854,#855);
#704=AXIS2_PLACEMENT_3D('',#1132,#857,#858);
#705=AXIS2_PLACEMENT_3D('',#1135,#860,#861);
#706=AXIS2_PLACEMENT_3D('',#1136,#862,#863);
#707=AXIS2_PLACEMENT_3D('',#1139,#864,#865);
#708=AXIS2_PLACEMENT_3D('',#1140,#866,#867);
#709=AXIS2_PLACEMENT_3D('',#1142,#869,#870);
#710=AXIS2_PLACEMENT_3D('',#1144,#872,#873);
#711=AXIS2_PLACEMENT_3D('',#1148,#876,#877);
#712=AXIS2_PLACEMENT_3D('',#1150,#879,#880);
#713=AXIS2_PLACEMENT_3D('',#1151,#881,#882);
#714=AXIS2_PLACEMENT_3D('',#1152,#883,#884);
#715=AXIS2_PLACEMENT_3D('',#1154,#886,#887);
#716=AXIS2_PLACEMENT_3D('',#1156,#889,#890);
#717=AXIS2_PLACEMENT_3D('',#1158,#891,#892);
#718=AXIS2_PLACEMENT_3D('',#1160,#894,#895);
#719=AXIS2_PLACEMENT_3D('',#1171,#897,#898);
#720=AXIS2_PLACEMENT_3D('',#1184,#902,#903);
#721=AXIS2_PLACEMENT_3D('',#1185,#904,#905);
#722=AXIS2_PLACEMENT_3D('',#1186,#906,#907);
#723=AXIS2_PLACEMENT_3D('',#1188,#908,#909);
#724=AXIS2_PLACEMENT_3D('',#1190,#911,#912);
#725=AXIS2_PLACEMENT_3D('',#1192,#914,#915);
#726=AXIS2_PLACEMENT_3D('',#1194,#917,#918);
#727=DIRECTION('axis',(0.,0.,1.));
#728=DIRECTION('refdir',(1.,0.,0.));
#729=DIRECTION('center_axis',(0.,0.,1.));
#730=DIRECTION('ref_axis',(1.,0.,0.));
#731=DIRECTION('',(1.,0.,0.));
#732=DIRECTION('',(8.312178396371E-10,-1.,-1.23644753677E-11));
#733=DIRECTION('center_axis',(0.,0.,-1.));
#734=DIRECTION('ref_axis',(0.699999999999993,-0.714142842854292,0.));
#735=DIRECTION('',(1.,0.,0.));
#736=DIRECTION('center_axis',(0.,0.,-1.));
#737=DIRECTION('ref_axis',(0.,-1.,0.));
#738=DIRECTION('',(8.312178396371E-10,1.,1.23644753677E-11));
#739=DIRECTION('center_axis',(0.,0.,-1.));
#740=DIRECTION('ref_axis',(-1.,0.,0.));
#741=DIRECTION('center_axis',(0.,0.,1.));
#742=DIRECTION('ref_axis',(1.,0.,0.));
#743=DIRECTION('center_axis',(0.,0.,1.));
#744=DIRECTION('ref_axis',(1.,0.,0.));
#745=DIRECTION('',(0.,0.,1.));
#746=DIRECTION('center_axis',(0.,0.,1.));
#747=DIRECTION('ref_axis',(1.,0.,0.));
#748=DIRECTION('center_axis',(0.,0.,1.));
#749=DIRECTION('ref_axis',(1.,0.,0.));
#750=DIRECTION('center_axis',(0.,0.,1.));
#751=DIRECTION('ref_axis',(1.,0.,0.));
#752=DIRECTION('',(0.,0.,1.));
#753=DIRECTION('center_axis',(0.,0.,1.));
#754=DIRECTION('ref_axis',(1.,0.,0.));
#755=DIRECTION('center_axis',(0.,0.,1.));
#756=DIRECTION('ref_axis',(0.,1.,0.));
#757=DIRECTION('center_axis',(0.,0.,-1.));
#758=DIRECTION('ref_axis',(0.,-1.,0.));
#759=DIRECTION('',(1.,0.,0.));
#760=DIRECTION('center_axis',(0.,0.,-1.));
#761=DIRECTION('ref_axis',(0.997335340264267,-0.0729535404210076,0.));
#762=DIRECTION('center_axis',(0.,0.,1.));
#763=DIRECTION('ref_axis',(0.269418307978502,0.963023247552208,0.));
#764=DIRECTION('center_axis',(0.,0.,-1.));
#765=DIRECTION('ref_axis',(-1.,0.,0.));
#766=DIRECTION('center_axis',(0.,0.,1.));
#767=DIRECTION('ref_axis',(0.,1.,0.));
#768=DIRECTION('center_axis',(0.,0.,1.));
#769=DIRECTION('ref_axis',(-0.997335340264267,-0.0729535404210076,0.));
#770=DIRECTION('center_axis',(0.,0.,1.));
#771=DIRECTION('ref_axis',(0.269418307978502,0.963023247552208,0.));
#772=DIRECTION('center_axis',(0.,0.,1.));
#773=DIRECTION('ref_axis',(0.,-1.,0.));
#774=DIRECTION('',(1.,0.,0.));
#775=DIRECTION('center_axis',(0.,0.,-1.));
#776=DIRECTION('ref_axis',(-1.,0.,0.));
#777=DIRECTION('center_axis',(0.,0.,-1.));
#778=DIRECTION('ref_axis',(-1.,0.,0.));
#779=DIRECTION('',(0.,0.,-1.));
#780=DIRECTION('center_axis',(0.,0.,-1.));
#781=DIRECTION('ref_axis',(-1.,0.,0.));
#782=DIRECTION('center_axis',(0.,0.,-1.));
#783=DIRECTION('ref_axis',(-1.,0.,0.));
#784=DIRECTION('',(0.,0.,-1.));
#785=DIRECTION('center_axis',(0.,0.,1.));
#786=DIRECTION('ref_axis',(1.,0.,0.));
#787=DIRECTION('',(-1.,0.,0.));
#788=DIRECTION('',(-8.312178396371E-10,-1.,1.23644753677E-11));
#789=DIRECTION('center_axis',(0.,0.,1.));
#790=DIRECTION('ref_axis',(-0.699999999999993,-0.714142842854292,0.));
#791=DIRECTION('',(1.,0.,0.));
#792=DIRECTION('center_axis',(0.,0.,1.));
#793=DIRECTION('ref_axis',(0.,-1.,0.));
#794=DIRECTION('',(-8.312178396371E-10,1.,-1.23644753677E-11));
#795=DIRECTION('center_axis',(0.,0.707106781186548,0.707106781186548));
#796=DIRECTION('ref_axis',(0.,0.707106781186548,-0.707106781186548));
#797=DIRECTION('',(6.36178854935843E-10,0.707106781186547,-0.707106781186547));
#798=DIRECTION('',(-1.,0.,0.));
#799=DIRECTION('',(-6.36181367083743E-10,0.707106781186547,-0.707106781186547));
#800=DIRECTION('center_axis',(0.,-1.,0.));
#801=DIRECTION('ref_axis',(-0.707106781161512,0.,0.707106781211583));
#802=DIRECTION('center_axis',(0.,-1.,0.));
#803=DIRECTION('ref_axis',(0.,0.,1.));
#804=DIRECTION('center_axis',(0.,-1.,0.));
#805=DIRECTION('ref_axis',(0.,0.,1.));
#806=DIRECTION('',(0.707106781186547,0.707106781186547,6.23892567426942E-10));
#807=DIRECTION('center_axis',(0.,-1.,0.));
#808=DIRECTION('ref_axis',(0.,0.,1.));
#809=DIRECTION('',(-4.053646307347E-11,-1.,3.054179814913E-9));
#810=DIRECTION('center_axis',(0.,0.,-1.));
#811=DIRECTION('ref_axis',(0.,-1.,0.));
#812=DIRECTION('',(0.,0.,-1.));
#813=DIRECTION('',(0.,0.,-1.));
#814=DIRECTION('',(0.,0.,1.));
#815=DIRECTION('',(0.,0.,-1.));
#816=DIRECTION('center_axis',(0.,0.,1.));
#817=DIRECTION('ref_axis',(0.,1.,0.));
#818=DIRECTION('',(0.,0.,1.));
#819=DIRECTION('',(0.,0.,1.));
#820=DIRECTION('',(0.,0.,1.));
#821=DIRECTION('center_axis',(0.,-1.,0.));
#822=DIRECTION('ref_axis',(1.,0.,0.));
#823=DIRECTION('center_axis',(0.,-1.,0.));
#824=DIRECTION('ref_axis',(-0.956475155779846,0.,-0.291813770024514));
#825=DIRECTION('center_axis',(0.,-1.,0.));
#826=DIRECTION('ref_axis',(1.,0.,0.));
#827=DIRECTION('center_axis',(0.,-1.,0.));
#828=DIRECTION('ref_axis',(-1.,0.,0.));
#829=DIRECTION('center_axis',(0.,-1.,0.));
#830=DIRECTION('ref_axis',(1.,0.,0.));
#831=DIRECTION('center_axis',(0.,-1.,0.));
#832=DIRECTION('ref_axis',(0.956475155779846,0.,0.291813770024514));
#833=DIRECTION('center_axis',(0.,-1.,0.));
#834=DIRECTION('ref_axis',(-1.,0.,0.));
#835=DIRECTION('center_axis',(0.,-1.,0.));
#836=DIRECTION('ref_axis',(-1.,0.,1.22464679914735E-16));
#837=DIRECTION('center_axis',(0.,-1.,0.));
#838=DIRECTION('ref_axis',(0.,0.,-1.));
#839=DIRECTION('center_axis',(0.,-1.,0.));
#840=DIRECTION('ref_axis',(-1.,0.,0.));
#841=DIRECTION('center_axis',(0.,-1.,0.));
#842=DIRECTION('ref_axis',(-1.,0.,0.));
#843=DIRECTION('',(-8.65956056235493E-17,-0.707106781186547,0.707106781186547));
#844=DIRECTION('center_axis',(0.,-1.,0.));
#845=DIRECTION('ref_axis',(1.,0.,0.));
#846=DIRECTION('center_axis',(0.,-1.,0.));
#847=DIRECTION('ref_axis',(-1.,0.,0.));
#848=DIRECTION('',(0.,-1.,0.));
#849=DIRECTION('center_axis',(0.,1.,0.));
#850=DIRECTION('ref_axis',(-1.,0.,0.));
#851=DIRECTION('center_axis',(0.,-1.,0.));
#852=DIRECTION('ref_axis',(1.,0.,0.));
#853=DIRECTION('',(0.,0.,1.));
#854=DIRECTION('center_axis',(0.,-1.,0.));
#855=DIRECTION('ref_axis',(0.,0.,-1.));
#856=DIRECTION('',(1.,0.,0.));
#857=DIRECTION('center_axis',(0.,-1.,0.));
#858=DIRECTION('ref_axis',(-1.,0.,0.));
#859=DIRECTION('',(0.,0.,-1.));
#860=DIRECTION('center_axis',(0.,1.,0.));
#861=DIRECTION('ref_axis',(-1.,0.,0.));
#862=DIRECTION('center_axis',(0.,1.,0.));
#863=DIRECTION('ref_axis',(-1.,0.,0.));
#864=DIRECTION('center_axis',(0.,-1.,0.));
#865=DIRECTION('ref_axis',(1.,0.,0.));
#866=DIRECTION('center_axis',(0.,-1.,0.));
#867=DIRECTION('ref_axis',(1.,0.,0.));
#868=DIRECTION('',(0.,1.,0.));
#869=DIRECTION('center_axis',(0.,-1.,0.));
#870=DIRECTION('ref_axis',(0.,0.,-1.));
#871=DIRECTION('',(-8.65956056235493E-17,-0.707106781186547,0.707106781186547));
#872=DIRECTION('center_axis',(-0.707106781186548,0.707106781186548,0.));
#873=DIRECTION('ref_axis',(0.707106781186548,0.707106781186548,0.));
#874=DIRECTION('',(0.,0.,-1.));
#875=DIRECTION('',(0.707106781186547,0.707106781186547,-6.23893823500842E-10));
#876=DIRECTION('center_axis',(-1.,0.,0.));
#877=DIRECTION('ref_axis',(0.,-1.,0.));
#878=DIRECTION('',(4.053646307347E-11,1.,3.054179814913E-9));
#879=DIRECTION('center_axis',(0.,1.,0.));
#880=DIRECTION('ref_axis',(0.,0.,-1.));
#881=DIRECTION('center_axis',(0.,-1.,0.));
#882=DIRECTION('ref_axis',(-1.,0.,0.));
#883=DIRECTION('center_axis',(0.,-1.,0.));
#884=DIRECTION('ref_axis',(0.,0.,-1.));
#885=DIRECTION('',(-6.36178854935843E-10,0.707106781186547,0.707106781186547));
#886=DIRECTION('center_axis',(0.,0.707106781186548,-0.707106781186548));
#887=DIRECTION('ref_axis',(0.,0.707106781186548,0.707106781186548));
#888=DIRECTION('',(6.36180111009743E-10,0.707106781186547,0.707106781186547));
#889=DIRECTION('center_axis',(0.,-1.,0.));
#890=DIRECTION('ref_axis',(0.,0.,-1.));
#891=DIRECTION('center_axis',(0.,-1.,0.));
#892=DIRECTION('ref_axis',(0.,0.,-1.));
#893=DIRECTION('',(-0.707106781186547,0.707106781186547,-6.23893195463942E-10));
#894=DIRECTION('center_axis',(0.,-1.,0.));
#895=DIRECTION('ref_axis',(0.,0.,-1.));
#896=DIRECTION('',(4.053646307347E-11,-1.,-3.054179814913E-9));
#897=DIRECTION('center_axis',(0.,0.,1.));
#898=DIRECTION('ref_axis',(0.,-1.,0.));
#899=DIRECTION('',(0.,0.,1.));
#900=DIRECTION('',(0.,0.,-1.));
#901=DIRECTION('',(0.,0.,1.));
#902=DIRECTION('center_axis',(0.,-1.,0.));
#903=DIRECTION('ref_axis',(1.,0.,0.));
#904=DIRECTION('center_axis',(0.,-1.,0.));
#905=DIRECTION('ref_axis',(1.,0.,0.));
#906=DIRECTION('center_axis',(0.,1.,0.));
#907=DIRECTION('ref_axis',(0.,0.,1.));
#908=DIRECTION('center_axis',(0.,-1.,0.));
#909=DIRECTION('ref_axis',(1.,0.,0.));
#910=DIRECTION('',(-4.053646307347E-11,1.,-3.054179131699E-9));
#911=DIRECTION('center_axis',(0.,-1.,0.));
#912=DIRECTION('ref_axis',(0.,0.,-1.));
#913=DIRECTION('',(-0.707106781186547,0.707106781186547,6.23893195463942E-10));
#914=DIRECTION('center_axis',(0.707106781186548,0.707106781186548,0.));
#915=DIRECTION('ref_axis',(-0.707106781186548,0.707106781186548,0.));
#916=DIRECTION('',(0.,0.,1.));
#917=DIRECTION('center_axis',(1.,0.,0.));
#918=DIRECTION('ref_axis',(0.,1.,0.));
#919=CARTESIAN_POINT('',(0.,0.,0.));
#920=CARTESIAN_POINT('Origin',(0.,0.,-10.5));
#921=CARTESIAN_POINT('',(-13.9999999924075,7.60000000006085,-10.4999999999233));
#922=CARTESIAN_POINT('',(13.9999999919,7.60000000012,-10.49999999988));
#923=CARTESIAN_POINT('',(-13.9999999919,7.60000000012,-10.49999999988));
#924=CARTESIAN_POINT('',(14.,-2.141428428543,-10.5));
#925=CARTESIAN_POINT('',(13.9999999919,7.60000000012,-10.49999999988));
#926=CARTESIAN_POINT('',(7.,-5.,-10.5));
#927=CARTESIAN_POINT('Origin',(7.,5.,-10.5));
#928=CARTESIAN_POINT('',(-7.,-5.,-10.5));
#929=CARTESIAN_POINT('',(-7.,-5.,-10.5));
#930=CARTESIAN_POINT('',(-14.,-2.141428428543,-10.5));
#931=CARTESIAN_POINT('Origin',(-7.,5.,-10.5));
#932=CARTESIAN_POINT('',(-14.,-2.141428428543,-10.5));
#933=CARTESIAN_POINT('',(-3.5,0.,-10.5));
#934=CARTESIAN_POINT('Origin',(-6.,0.,-10.5));
#935=CARTESIAN_POINT('',(3.5,-3.06161699786838E-16,-10.5));
#936=CARTESIAN_POINT('Origin',(6.,0.,-10.5));
#937=CARTESIAN_POINT('Origin',(6.,0.,-12.6));
#938=CARTESIAN_POINT('',(3.5,-3.06161699786838E-16,-4.1));
#939=CARTESIAN_POINT('',(3.5,-3.06161699786838E-16,-12.6));
#940=CARTESIAN_POINT('Origin',(6.,0.,-4.1));
#941=CARTESIAN_POINT('Origin',(6.,0.,-12.6));
#942=CARTESIAN_POINT('',(3.5,0.,4.1));
#943=CARTESIAN_POINT('Origin',(6.,0.,4.1));
#944=CARTESIAN_POINT('',(3.5,0.,10.5));
#945=CARTESIAN_POINT('',(3.5,-3.06161699786838E-16,-12.6));
#946=CARTESIAN_POINT('Origin',(6.,0.,10.5));
#947=CARTESIAN_POINT('Origin',(0.,0.,-4.1));
#948=CARTESIAN_POINT('',(-7.,-5.,-4.1));
#949=CARTESIAN_POINT('',(-16.97335340264,4.27046459579,-4.1));
#950=CARTESIAN_POINT('Origin',(-7.,5.,-4.1));
#951=CARTESIAN_POINT('',(7.,-5.,-4.1));
#952=CARTESIAN_POINT('',(-7.,-5.,-4.1));
#953=CARTESIAN_POINT('',(16.97335340264,4.27046459579,-4.1));
#954=CARTESIAN_POINT('Origin',(7.,5.,-4.1));
#955=CARTESIAN_POINT('Origin',(0.,-56.4,-4.1));
#956=CARTESIAN_POINT('',(-3.5,0.,-4.1));
#957=CARTESIAN_POINT('Origin',(-6.,0.,-4.1));
#958=CARTESIAN_POINT('Origin',(0.,0.,4.1));
#959=CARTESIAN_POINT('',(-16.97335340264,4.27046459579,4.1));
#960=CARTESIAN_POINT('',(-7.,-5.,4.1));
#961=CARTESIAN_POINT('Origin',(-7.,5.,4.1));
#962=CARTESIAN_POINT('',(16.97335340264,4.27046459579,4.1));
#963=CARTESIAN_POINT('Origin',(0.,-56.4,4.1));
#964=CARTESIAN_POINT('',(7.,-5.,4.1));
#965=CARTESIAN_POINT('Origin',(7.,5.,4.1));
#966=CARTESIAN_POINT('',(-7.,-5.,4.1));
#967=CARTESIAN_POINT('',(-3.5,-3.06161699786838E-16,4.1));
#968=CARTESIAN_POINT('Origin',(-6.,0.,4.1));
#969=CARTESIAN_POINT('Origin',(-6.,0.,-12.6));
#970=CARTESIAN_POINT('',(-3.5,-3.06161699786838E-16,-12.6));
#971=CARTESIAN_POINT('Origin',(-6.,0.,-12.6));
#972=CARTESIAN_POINT('',(-3.5,-3.06161699786838E-16,10.5));
#973=CARTESIAN_POINT('Origin',(-6.,0.,10.5));
#974=CARTESIAN_POINT('',(-3.5,-3.06161699786838E-16,-12.6));
#975=CARTESIAN_POINT('Origin',(0.,0.,10.5));
#976=CARTESIAN_POINT('',(13.9999999924075,7.60000000006085,10.4999999999233));
#977=CARTESIAN_POINT('',(-13.9999999924063,7.60000000006082,10.4999999999235));
#978=CARTESIAN_POINT('',(13.9999999919,7.60000000012,10.49999999988));
#979=CARTESIAN_POINT('',(-14.,-2.141428428543,10.5));
#980=CARTESIAN_POINT('',(-13.9999999919,7.60000000012,10.49999999988));
#981=CARTESIAN_POINT('',(-7.,-5.,10.5));
#982=CARTESIAN_POINT('Origin',(-7.,5.,10.5));
#983=CARTESIAN_POINT('',(7.,-5.,10.5));
#984=CARTESIAN_POINT('',(-7.,-5.,10.5));
#985=CARTESIAN_POINT('',(14.,-2.141428428543,10.5));
#986=CARTESIAN_POINT('Origin',(7.,5.,10.5));
#987=CARTESIAN_POINT('',(14.,-2.141428428543,10.5));
#988=CARTESIAN_POINT('Origin',(0.,8.1,10.));
#989=CARTESIAN_POINT('',(13.999999994222,8.60000000005284,9.49999999994716));
#990=CARTESIAN_POINT('',(13.9999999919,7.60000000012,10.49999999988));
#991=CARTESIAN_POINT('',(-13.999999994222,8.60000000005284,9.49999999994716));
#992=CARTESIAN_POINT('',(13.9999999928,8.600000000107,9.499999999893));
#993=CARTESIAN_POINT('',(-13.9999999919,7.60000000012,10.49999999988));
#994=CARTESIAN_POINT('Origin',(-14.,8.100000000161,7.5));
#995=CARTESIAN_POINT('',(-16.9999999999309,7.60000000004967,7.49999999305162));
#996=CARTESIAN_POINT('Origin',(-14.,7.6,7.5));
#997=CARTESIAN_POINT('',(-15.9999999999544,8.60000000004526,7.49999999433563));
#998=CARTESIAN_POINT('Origin',(-14.,8.6,7.5));
#999=CARTESIAN_POINT('',(-16.99999999989,7.600000000105,7.499999992059));
#1000=CARTESIAN_POINT('Origin',(-14.,26.32896,7.5));
#1001=CARTESIAN_POINT('',(-17.,5.,7.5));
#1002=CARTESIAN_POINT('',(-16.99999999989,7.600000000105,7.499999992059));
#1003=CARTESIAN_POINT('Ctrl Pts',(-17.,5.,7.5));
#1004=CARTESIAN_POINT('Ctrl Pts',(-17.,3.77480846552497,8.17106504069634));
#1005=CARTESIAN_POINT('Ctrl Pts',(-16.7638589393073,2.4607777177615,8.89572055000622));
#1006=CARTESIAN_POINT('Ctrl Pts',(-16.0082377716648,0.607168733132308,9.76132307651332));
#1007=CARTESIAN_POINT('Ctrl Pts',(-15.6919000616399,0.00874316302632627,
10.0127463099789));
#1008=CARTESIAN_POINT('Ctrl Pts',(-14.9367640306232,-1.12123750528263,10.3807799104122));
#1009=CARTESIAN_POINT('Ctrl Pts',(-14.4988049514457,-1.65250178101607,10.5));
#1010=CARTESIAN_POINT('Ctrl Pts',(-14.,-2.14142842854285,10.5));
#1011=CARTESIAN_POINT('Origin',(-7.,5.,37.8756));
#1012=CARTESIAN_POINT('',(-16.97335340264,4.27046459579,4.1));
#1013=CARTESIAN_POINT('',(-7.,-5.,10.5));
#1014=CARTESIAN_POINT('',(-17.,5.,-7.5));
#1015=CARTESIAN_POINT('',(-17.,5.,-7.5));
#1016=CARTESIAN_POINT('Ctrl Pts',(-14.,-2.14142842854285,-10.5));
#1017=CARTESIAN_POINT('Ctrl Pts',(-14.4988049514457,-1.65250178101608,-10.5));
#1018=CARTESIAN_POINT('Ctrl Pts',(-14.9367640306232,-1.12123750528263,-10.3807799104122));
#1019=CARTESIAN_POINT('Ctrl Pts',(-15.6919000616399,0.00874316302632697,
-10.0127463099789));
#1020=CARTESIAN_POINT('Ctrl Pts',(-16.0082377716648,0.607168733132308,-9.76132307651332));
#1021=CARTESIAN_POINT('Ctrl Pts',(-16.7638589393073,2.4607777177615,-8.89572055000622));
#1022=CARTESIAN_POINT('Ctrl Pts',(-17.,3.77480846552497,-8.17106504069634));
#1023=CARTESIAN_POINT('Ctrl Pts',(-17.,5.,-7.5));
#1024=CARTESIAN_POINT('',(-7.,-5.,-4.1));
#1025=CARTESIAN_POINT('Origin',(0.,-56.4,-4.1));
#1026=CARTESIAN_POINT('',(16.97335340264,4.27046459579,-4.1));
#1027=CARTESIAN_POINT('',(-8.674099376881,6.,-1.167255080098));
#1028=CARTESIAN_POINT('',(-8.674099376881,6.,1.167255080098));
#1029=CARTESIAN_POINT('Ctrl Pts',(-8.67409937688063,5.99999999999999,-1.16725508009811));
#1030=CARTESIAN_POINT('Ctrl Pts',(-8.71130818612641,5.99482767773888,-1.28921403226388));
#1031=CARTESIAN_POINT('Ctrl Pts',(-8.75446669067086,5.98879500744481,-1.40971930201413));
#1032=CARTESIAN_POINT('Ctrl Pts',(-9.00637779022232,5.95324556152973,-2.01924827827376));
#1033=CARTESIAN_POINT('Ctrl Pts',(-9.31239316426782,5.90895578120783,-2.46734729077175));
#1034=CARTESIAN_POINT('Ctrl Pts',(-10.0219506967774,5.79880778229478,-3.18069832619646));
#1035=CARTESIAN_POINT('Ctrl Pts',(-10.4748465192682,5.72511330625934,-3.49072577019732));
#1036=CARTESIAN_POINT('Ctrl Pts',(-11.4637242931271,5.55026342381357,-3.90032634227502));
#1037=CARTESIAN_POINT('Ctrl Pts',(-11.99960451434,5.44876836756814,-4.));
#1038=CARTESIAN_POINT('Ctrl Pts',(-13.005537948327,5.24512977298936,-4.));
#1039=CARTESIAN_POINT('Ctrl Pts',(-13.5438137580075,5.12904210258467,-3.89847919598417));
#1040=CARTESIAN_POINT('Ctrl Pts',(-14.5339770993858,4.90270322641601,-3.48577455359309));
#1041=CARTESIAN_POINT('Ctrl Pts',(-14.9859443171647,4.79278687475681,-3.17459832688016));
#1042=CARTESIAN_POINT('Ctrl Pts',(-15.6910572197276,4.61573030514911,-2.46205257815199));
#1043=CARTESIAN_POINT('Ctrl Pts',(-15.9950587882122,4.53604763083454,-2.01631413886435));
#1044=CARTESIAN_POINT('Ctrl Pts',(-16.3995882779177,4.42842519051381,-1.03642148142387));
#1045=CARTESIAN_POINT('Ctrl Pts',(-16.5,4.40090459853374,-0.502173305019714));
#1046=CARTESIAN_POINT('Ctrl Pts',(-16.5,4.40090459853374,0.502173305019714));
#1047=CARTESIAN_POINT('Ctrl Pts',(-16.3995882779177,4.42842519051381,1.03642148142387));
#1048=CARTESIAN_POINT('Ctrl Pts',(-15.9950587882122,4.53604763083454,2.01631413886435));
#1049=CARTESIAN_POINT('Ctrl Pts',(-15.6910572197276,4.61573030514911,2.46205257815199));
#1050=CARTESIAN_POINT('Ctrl Pts',(-14.9859443171647,4.79278687475681,3.17459832688016));
#1051=CARTESIAN_POINT('Ctrl Pts',(-14.5339770993858,4.90270322641601,3.48577455359309));
#1052=CARTESIAN_POINT('Ctrl Pts',(-13.5438137580075,5.12904210258467,3.89847919598417));
#1053=CARTESIAN_POINT('Ctrl Pts',(-13.005537948327,5.24512977298936,4.));
#1054=CARTESIAN_POINT('Ctrl Pts',(-11.99960451434,5.44876836756814,4.));
#1055=CARTESIAN_POINT('Ctrl Pts',(-11.4637242931271,5.55026342381357,3.90032634227502));
#1056=CARTESIAN_POINT('Ctrl Pts',(-10.4748465192682,5.72511330625934,3.49072577019732));
#1057=CARTESIAN_POINT('Ctrl Pts',(-10.0219506967774,5.79880778229478,3.18069832619646));
#1058=CARTESIAN_POINT('Ctrl Pts',(-9.31239316426782,5.90895578120783,2.46734729077175));
#1059=CARTESIAN_POINT('Ctrl Pts',(-9.00637779022232,5.95324556152973,2.01924827827376));
#1060=CARTESIAN_POINT('Ctrl Pts',(-8.75446669067086,5.98879500744481,1.40971930201413));
#1061=CARTESIAN_POINT('Ctrl Pts',(-8.71130818612641,5.99482767773888,1.28921403226388));
#1062=CARTESIAN_POINT('Ctrl Pts',(-8.67409937688063,5.99999999999999,1.16725508009811));
#1063=CARTESIAN_POINT('',(-8.674099376881,6.,-1.167255080098));
#1064=CARTESIAN_POINT('',(8.674099376881,6.,1.167255080098));
#1065=CARTESIAN_POINT('',(8.674099376881,6.,-1.167255080098));
#1066=CARTESIAN_POINT('Ctrl Pts',(8.67409937688063,5.99999999999999,1.16725508009811));
#1067=CARTESIAN_POINT('Ctrl Pts',(8.71130818612641,5.99482767773888,1.28921403226388));
#1068=CARTESIAN_POINT('Ctrl Pts',(8.75446669067086,5.98879500744481,1.40971930201413));
#1069=CARTESIAN_POINT('Ctrl Pts',(9.00637779022232,5.95324556152973,2.01924827827376));
#1070=CARTESIAN_POINT('Ctrl Pts',(9.31239316426781,5.90895578120783,2.46734729077175));
#1071=CARTESIAN_POINT('Ctrl Pts',(10.0219506967774,5.79880778229478,3.18069832619645));
#1072=CARTESIAN_POINT('Ctrl Pts',(10.4748465192682,5.72511330625934,3.49072577019732));
#1073=CARTESIAN_POINT('Ctrl Pts',(11.4637242931271,5.55026342381357,3.90032634227502));
#1074=CARTESIAN_POINT('Ctrl Pts',(11.99960451434,5.44876836756814,4.));
#1075=CARTESIAN_POINT('Ctrl Pts',(13.005537948327,5.24512977298936,4.));
#1076=CARTESIAN_POINT('Ctrl Pts',(13.5438137580075,5.12904210258467,3.89847919598417));
#1077=CARTESIAN_POINT('Ctrl Pts',(14.5339770993858,4.90270322641601,3.48577455359309));
#1078=CARTESIAN_POINT('Ctrl Pts',(14.9859443171647,4.79278687475681,3.17459832688016));
#1079=CARTESIAN_POINT('Ctrl Pts',(15.6910572197276,4.61573030514911,2.46205257815199));
#1080=CARTESIAN_POINT('Ctrl Pts',(15.9950587882122,4.53604763083454,2.01631413886435));
#1081=CARTESIAN_POINT('Ctrl Pts',(16.3995882779177,4.42842519051381,1.03642148142387));
#1082=CARTESIAN_POINT('Ctrl Pts',(16.5,4.40090459853374,0.502173305019713));
#1083=CARTESIAN_POINT('Ctrl Pts',(16.5,4.40090459853374,0.));
#1084=CARTESIAN_POINT('Ctrl Pts',(16.5,4.40090459853374,-0.502173305019713));
#1085=CARTESIAN_POINT('Ctrl Pts',(16.3995882779177,4.42842519051381,-1.03642148142387));
#1086=CARTESIAN_POINT('Ctrl Pts',(15.9950587882122,4.53604763083454,-2.01631413886435));
#1087=CARTESIAN_POINT('Ctrl Pts',(15.6910572197276,4.61573030514911,-2.46205257815199));
#1088=CARTESIAN_POINT('Ctrl Pts',(14.9859443171647,4.79278687475681,-3.17459832688016));
#1089=CARTESIAN_POINT('Ctrl Pts',(14.5339770993858,4.90270322641601,-3.48577455359309));
#1090=CARTESIAN_POINT('Ctrl Pts',(13.5438137580075,5.12904210258467,-3.89847919598417));
#1091=CARTESIAN_POINT('Ctrl Pts',(13.005537948327,5.24512977298936,-4.));
#1092=CARTESIAN_POINT('Ctrl Pts',(11.99960451434,5.44876836756814,-4.));
#1093=CARTESIAN_POINT('Ctrl Pts',(11.4637242931271,5.55026342381357,-3.90032634227502));
#1094=CARTESIAN_POINT('Ctrl Pts',(10.4748465192682,5.72511330625934,-3.49072577019732));
#1095=CARTESIAN_POINT('Ctrl Pts',(10.0219506967774,5.79880778229478,-3.18069832619646));
#1096=CARTESIAN_POINT('Ctrl Pts',(9.31239316426782,5.90895578120783,-2.46734729077175));
#1097=CARTESIAN_POINT('Ctrl Pts',(9.00637779022232,5.95324556152973,-2.01924827827376));
#1098=CARTESIAN_POINT('Ctrl Pts',(8.75446669067086,5.98879500744481,-1.40971930201413));
#1099=CARTESIAN_POINT('Ctrl Pts',(8.71130818612641,5.99482767773888,-1.28921403226388));
#1100=CARTESIAN_POINT('Ctrl Pts',(8.67409937688063,5.99999999999999,-1.16725508009811));
#1101=CARTESIAN_POINT('',(8.674099376881,6.,-1.167255080098));
#1102=CARTESIAN_POINT('Origin',(12.5,0.,0.));
#1103=CARTESIAN_POINT('Origin',(12.5,6.,0.));
#1104=CARTESIAN_POINT('Origin',(0.,6.,0.));
#1105=CARTESIAN_POINT('',(12.5,6.,2.7));
#1106=CARTESIAN_POINT('Origin',(12.5,6.,0.));
#1107=CARTESIAN_POINT('Origin',(0.,6.,0.));
#1108=CARTESIAN_POINT('Origin',(-12.5,6.,0.));
#1109=CARTESIAN_POINT('',(-12.5,6.,2.7));
#1110=CARTESIAN_POINT('Origin',(-12.5,6.,0.));
#1111=CARTESIAN_POINT('Origin',(-12.5,0.,0.));
#1112=CARTESIAN_POINT('Origin',(-12.5,6.250000001122,0.));
#1113=CARTESIAN_POINT('',(-14.7,6.5,-2.69422295812418E-16));
#1114=CARTESIAN_POINT('',(-12.5,6.5,2.2));
#1115=CARTESIAN_POINT('Origin',(-12.5,6.5,0.));
#1116=CARTESIAN_POINT('Origin',(-12.5,6.5,0.));
#1117=CARTESIAN_POINT('',(-12.5,6.250000001122,2.449999998878));
#1118=CARTESIAN_POINT('Origin',(-12.5,0.,0.));
#1119=CARTESIAN_POINT('',(-14.7,8.6,0.));
#1120=CARTESIAN_POINT('Origin',(-12.5,8.6,0.));
#1121=CARTESIAN_POINT('',(-14.7,0.,-2.69422295812418E-16));
#1122=CARTESIAN_POINT('Origin',(17.,8.6,-10.5));
#1123=CARTESIAN_POINT('',(15.99999999991,8.600000000094,7.499999992941));
#1124=CARTESIAN_POINT('Origin',(14.,8.6,7.5));
#1125=CARTESIAN_POINT('',(15.9999999999544,8.60000000004526,-7.49999999433563));
#1126=CARTESIAN_POINT('',(15.99999999991,8.600000000094,-7.499999992941));
#1127=CARTESIAN_POINT('',(13.9999999928,8.600000000107,-9.499999999893));
#1128=CARTESIAN_POINT('Origin',(14.,8.6,-7.5));
#1129=CARTESIAN_POINT('',(-13.999999994222,8.60000000005284,-9.49999999994716));
#1130=CARTESIAN_POINT('',(-13.9999999928,8.600000000107,-9.499999999893));
#1131=CARTESIAN_POINT('',(-15.99999999991,8.600000000094,-7.499999992941));
#1132=CARTESIAN_POINT('Origin',(-14.,8.6,-7.5));
#1133=CARTESIAN_POINT('',(-15.99999999991,8.600000000094,7.499999992941));
#1134=CARTESIAN_POINT('',(14.7,8.6,0.));
#1135=CARTESIAN_POINT('Origin',(12.5,8.6,0.));
#1136=CARTESIAN_POINT('Origin',(12.5,0.,0.));
#1137=CARTESIAN_POINT('',(14.7,6.5,0.));
#1138=CARTESIAN_POINT('',(12.5,6.5,2.2));
#1139=CARTESIAN_POINT('Origin',(12.5,6.5,0.));
#1140=CARTESIAN_POINT('Origin',(12.5,6.5,0.));
#1141=CARTESIAN_POINT('',(14.7,0.,-2.69422295812418E-16));
#1142=CARTESIAN_POINT('Origin',(12.5,6.250000001122,0.));
#1143=CARTESIAN_POINT('',(12.5,6.250000001122,2.449999998878));
#1144=CARTESIAN_POINT('Origin',(-16.5,8.1,0.));
#1145=CARTESIAN_POINT('',(-16.99999999989,7.600000000105,-7.499999992059));
#1146=CARTESIAN_POINT('',(-16.99999999989,7.600000000105,7.499999992059));
#1147=CARTESIAN_POINT('',(-16.99999999989,7.600000000105,-7.499999992059));
#1148=CARTESIAN_POINT('Origin',(-17.,8.6,-10.5));
#1149=CARTESIAN_POINT('',(-17.,5.,-7.5));
#1150=CARTESIAN_POINT('Origin',(-14.,-22.72896,-7.5));
#1151=CARTESIAN_POINT('Origin',(-14.,7.6,-7.5));
#1152=CARTESIAN_POINT('Origin',(-14.,8.100000000161,-7.5));
#1153=CARTESIAN_POINT('',(-13.9999999919,7.60000000012,-10.49999999988));
#1154=CARTESIAN_POINT('Origin',(0.,8.1,-10.));
#1155=CARTESIAN_POINT('',(13.9999999919,7.60000000012,-10.49999999988));
#1156=CARTESIAN_POINT('Origin',(14.,8.100000000161,-7.5));
#1157=CARTESIAN_POINT('',(16.9999999999309,7.60000000004967,-7.49999999305162));
#1158=CARTESIAN_POINT('Origin',(14.,7.6,-7.5));
#1159=CARTESIAN_POINT('',(16.99999999989,7.600000000105,-7.499999992059));
#1160=CARTESIAN_POINT('Origin',(14.,26.32896,-7.5));
#1161=CARTESIAN_POINT('',(17.,5.,-7.5));
#1162=CARTESIAN_POINT('',(16.99999999989,7.600000000105,-7.499999992059));
#1163=CARTESIAN_POINT('Ctrl Pts',(17.,5.,-7.5));
#1164=CARTESIAN_POINT('Ctrl Pts',(17.,3.77480846552497,-8.17106504069634));
#1165=CARTESIAN_POINT('Ctrl Pts',(16.7638589393073,2.4607777177615,-8.89572055000622));
#1166=CARTESIAN_POINT('Ctrl Pts',(16.0082377716648,0.607168733132308,-9.76132307651332));
#1167=CARTESIAN_POINT('Ctrl Pts',(15.6919000616399,0.00874316302632627,
-10.0127463099789));
#1168=CARTESIAN_POINT('Ctrl Pts',(14.9367640306232,-1.12123750528263,-10.3807799104122));
#1169=CARTESIAN_POINT('Ctrl Pts',(14.4988049514457,-1.65250178101607,-10.5));
#1170=CARTESIAN_POINT('Ctrl Pts',(14.,-2.14142842854285,-10.5));
#1171=CARTESIAN_POINT('Origin',(7.,5.,-37.8756));
#1172=CARTESIAN_POINT('',(7.,-5.,-10.5));
#1173=CARTESIAN_POINT('',(17.,5.,7.5));
#1174=CARTESIAN_POINT('',(17.,5.,7.5));
#1175=CARTESIAN_POINT('Ctrl Pts',(14.,-2.14142842854285,10.5));
#1176=CARTESIAN_POINT('Ctrl Pts',(14.4988049514457,-1.65250178101608,10.5));
#1177=CARTESIAN_POINT('Ctrl Pts',(14.9367640306232,-1.12123750528263,10.3807799104122));
#1178=CARTESIAN_POINT('Ctrl Pts',(15.6919000616399,0.00874316302632697,
10.0127463099789));
#1179=CARTESIAN_POINT('Ctrl Pts',(16.0082377716648,0.607168733132308,9.76132307651332));
#1180=CARTESIAN_POINT('Ctrl Pts',(16.7638589393073,2.4607777177615,8.89572055000622));
#1181=CARTESIAN_POINT('Ctrl Pts',(17.,3.77480846552497,8.17106504069634));
#1182=CARTESIAN_POINT('Ctrl Pts',(17.,5.,7.5));
#1183=CARTESIAN_POINT('',(7.,-5.,4.1));
#1184=CARTESIAN_POINT('Origin',(-17.,-5.,-10.5));
#1185=CARTESIAN_POINT('Origin',(-17.,-5.,-10.5));
#1186=CARTESIAN_POINT('Origin',(14.,-22.72896,7.5));
#1187=CARTESIAN_POINT('',(16.99999999989,7.600000000105,7.499999992059));
#1188=CARTESIAN_POINT('Origin',(14.,7.6,7.5));
#1189=CARTESIAN_POINT('',(17.,5.,7.5));
#1190=CARTESIAN_POINT('Origin',(14.,8.100000000161,7.5));
#1191=CARTESIAN_POINT('',(16.99999999989,7.600000000105,7.499999992059));
#1192=CARTESIAN_POINT('Origin',(16.5,8.1,0.));
#1193=CARTESIAN_POINT('',(16.99999999989,7.600000000105,-7.499999992059));
#1194=CARTESIAN_POINT('Origin',(17.,-5.,-10.5));
#1195=UNCERTAINTY_MEASURE_WITH_UNIT(LENGTH_MEASURE(0.01),#1199,
'DISTANCE_ACCURACY_VALUE',
'Maximum model space distance between geometric entities at asserted c
onnectivities');
#1196=UNCERTAINTY_MEASURE_WITH_UNIT(LENGTH_MEASURE(0.01),#1199,
'DISTANCE_ACCURACY_VALUE',
'Maximum model space distance between geometric entities at asserted c
onnectivities');
#1197=(
GEOMETRIC_REPRESENTATION_CONTEXT(3)
GLOBAL_UNCERTAINTY_ASSIGNED_CONTEXT((#1195))
GLOBAL_UNIT_ASSIGNED_CONTEXT((#1199,#1201,#1202))
REPRESENTATION_CONTEXT('','3D')
);
#1198=(
GEOMETRIC_REPRESENTATION_CONTEXT(3)
GLOBAL_UNCERTAINTY_ASSIGNED_CONTEXT((#1196))
GLOBAL_UNIT_ASSIGNED_CONTEXT((#1199,#1201,#1202))
REPRESENTATION_CONTEXT('','3D')
);
#1199=(
LENGTH_UNIT()
NAMED_UNIT(*)
SI_UNIT(.MILLI.,.METRE.)
);
#1200=(
LENGTH_UNIT()
NAMED_UNIT(*)
SI_UNIT($,.METRE.)
);
#1201=(
NAMED_UNIT(*)
PLANE_ANGLE_UNIT()
SI_UNIT($,.RADIAN.)
);
#1202=(
NAMED_UNIT(*)
SI_UNIT($,.STERADIAN.)
SOLID_ANGLE_UNIT()
);
#1203=SHAPE_DEFINITION_REPRESENTATION(#1204,#1205);
#1204=PRODUCT_DEFINITION_SHAPE('',$,#1207);
#1205=SHAPE_REPRESENTATION('',(#654),#1197);
#1206=PRODUCT_DEFINITION_CONTEXT('part definition',#1211,'design');
#1207=PRODUCT_DEFINITION('POLO-0033_SUPPORT_PATIN_CFG3',
'POLO-0033_SUPPORT_PATIN_CFG3 v1',#1208,#1206);
#1208=PRODUCT_DEFINITION_FORMATION('',$,#1213);
#1209=PRODUCT_RELATED_PRODUCT_CATEGORY(
'POLO-0033_SUPPORT_PATIN_CFG3 v1','POLO-0033_SUPPORT_PATIN_CFG3 v1',(#1213));
#1210=APPLICATION_PROTOCOL_DEFINITION('international standard',
'automotive_design',2009,#1211);
#1211=APPLICATION_CONTEXT(
'Core Data for Automotive Mechanical Design Process');
#1212=PRODUCT_CONTEXT('part definition',#1211,'mechanical');
#1213=PRODUCT('POLO-0033_SUPPORT_PATIN_CFG3',
'POLO-0033_SUPPORT_PATIN_CFG3 v1',$,(#1212));
#1214=PRESENTATION_STYLE_ASSIGNMENT((#1216));
#1215=PRESENTATION_STYLE_ASSIGNMENT((#1217));
#1216=SURFACE_STYLE_USAGE(.BOTH.,#1218);
#1217=SURFACE_STYLE_USAGE(.BOTH.,#1219);
#1218=SURFACE_SIDE_STYLE('',(#1220));
#1219=SURFACE_SIDE_STYLE('',(#1221));
#1220=SURFACE_STYLE_FILL_AREA(#1222);
#1221=SURFACE_STYLE_FILL_AREA(#1223);
#1222=FILL_AREA_STYLE('Acier - Satin\X\E9',(#1224));
#1223=FILL_AREA_STYLE('Opaque(230,230,230)',(#1225));
#1224=FILL_AREA_STYLE_COLOUR('Acier - Satin\X\E9',#1226);
#1225=FILL_AREA_STYLE_COLOUR('Opaque(230,230,230)',#1227);
#1226=COLOUR_RGB('Acier - Satin\X\E9',0.627450980392157,0.627450980392157,
0.627450980392157);
#1227=COLOUR_RGB('Opaque(230,230,230)',0.901960784313726,0.901960784313726,
0.901960784313726);
ENDSEC;
END-ISO-10303-21;
