ISO-10303-21;
HEADER;
/* Generated by software containing ST-Developer
 * from STEP Tools, Inc. (www.steptools.com) 
 */

FILE_DESCRIPTION(
/* description */ (''),
/* implementation_level */ '2;1');

FILE_NAME(
/* name */ 'POLO-0X29_BIELLETTE1_350-400_CFG3 v4.step',
/* time_stamp */ '2025-05-12T10:30:30+02:00',
/* author */ (''),
/* organization */ (''),
/* preprocessor_version */ 'ST-DEVELOPER v20.1',
/* originating_system */ 'Autodesk Translation Framework v14.4.0.0',
/* authorisation */ '');

FILE_SCHEMA (('AUTOMOTIVE_DESIGN { 1 0 10303 214 3 1 1 }'));
ENDSEC;

DATA;
#10=MECHANICAL_DESIGN_GEOMETRIC_PRESENTATION_REPRESENTATION('',(#13),#2011);
#11=SHAPE_REPRESENTATION_RELATIONSHIP('SRR','None',#2018,#12);
#12=ADVANCED_BREP_SHAPE_REPRESENTATION('',(#14),#2010);
#13=STYLED_ITEM('',(#2027),#14);
#14=MANIFOLD_SOLID_BREP('Corps1',#1135);
#15=FACE_BOUND('',#121,.T.);
#16=FACE_BOUND('',#122,.T.);
#17=FACE_BOUND('',#123,.T.);
#18=FACE_BOUND('',#125,.T.);
#19=FACE_BOUND('',#130,.T.);
#20=FACE_BOUND('',#134,.T.);
#21=FACE_BOUND('',#135,.T.);
#22=FACE_BOUND('',#136,.T.);
#23=FACE_BOUND('',#152,.T.);
#24=FACE_BOUND('',#158,.T.);
#25=FACE_BOUND('',#166,.T.);
#26=FACE_BOUND('',#173,.T.);
#27=PLANE('',#1152);
#28=PLANE('',#1176);
#29=PLANE('',#1192);
#30=PLANE('',#1196);
#31=PLANE('',#1208);
#32=PLANE('',#1219);
#33=PLANE('',#1225);
#34=PLANE('',#1239);
#35=PLANE('',#1255);
#36=PLANE('',#1256);
#37=PLANE('',#1257);
#38=PLANE('',#1258);
#39=PLANE('',#1267);
#40=PLANE('',#1268);
#41=PLANE('',#1270);
#42=PLANE('',#1272);
#43=PLANE('',#1281);
#44=PLANE('',#1282);
#45=PLANE('',#1289);
#46=PLANE('',#1292);
#47=FACE_OUTER_BOUND('',#105,.T.);
#48=FACE_OUTER_BOUND('',#106,.T.);
#49=FACE_OUTER_BOUND('',#107,.T.);
#50=FACE_OUTER_BOUND('',#108,.T.);
#51=FACE_OUTER_BOUND('',#109,.T.);
#52=FACE_OUTER_BOUND('',#110,.T.);
#53=FACE_OUTER_BOUND('',#111,.T.);
#54=FACE_OUTER_BOUND('',#112,.T.);
#55=FACE_OUTER_BOUND('',#113,.T.);
#56=FACE_OUTER_BOUND('',#114,.T.);
#57=FACE_OUTER_BOUND('',#115,.T.);
#58=FACE_OUTER_BOUND('',#116,.T.);
#59=FACE_OUTER_BOUND('',#117,.T.);
#60=FACE_OUTER_BOUND('',#118,.T.);
#61=FACE_OUTER_BOUND('',#119,.T.);
#62=FACE_OUTER_BOUND('',#120,.T.);
#63=FACE_OUTER_BOUND('',#124,.T.);
#64=FACE_OUTER_BOUND('',#126,.T.);
#65=FACE_OUTER_BOUND('',#127,.T.);
#66=FACE_OUTER_BOUND('',#128,.T.);
#67=FACE_OUTER_BOUND('',#129,.T.);
#68=FACE_OUTER_BOUND('',#131,.T.);
#69=FACE_OUTER_BOUND('',#132,.T.);
#70=FACE_OUTER_BOUND('',#133,.T.);
#71=FACE_OUTER_BOUND('',#137,.T.);
#72=FACE_OUTER_BOUND('',#138,.T.);
#73=FACE_OUTER_BOUND('',#139,.T.);
#74=FACE_OUTER_BOUND('',#140,.T.);
#75=FACE_OUTER_BOUND('',#141,.T.);
#76=FACE_OUTER_BOUND('',#142,.T.);
#77=FACE_OUTER_BOUND('',#143,.T.);
#78=FACE_OUTER_BOUND('',#144,.T.);
#79=FACE_OUTER_BOUND('',#145,.T.);
#80=FACE_OUTER_BOUND('',#146,.T.);
#81=FACE_OUTER_BOUND('',#147,.T.);
#82=FACE_OUTER_BOUND('',#148,.T.);
#83=FACE_OUTER_BOUND('',#149,.T.);
#84=FACE_OUTER_BOUND('',#150,.T.);
#85=FACE_OUTER_BOUND('',#151,.T.);
#86=FACE_OUTER_BOUND('',#153,.T.);
#87=FACE_OUTER_BOUND('',#154,.T.);
#88=FACE_OUTER_BOUND('',#155,.T.);
#89=FACE_OUTER_BOUND('',#156,.T.);
#90=FACE_OUTER_BOUND('',#157,.T.);
#91=FACE_OUTER_BOUND('',#159,.T.);
#92=FACE_OUTER_BOUND('',#160,.T.);
#93=FACE_OUTER_BOUND('',#161,.T.);
#94=FACE_OUTER_BOUND('',#162,.T.);
#95=FACE_OUTER_BOUND('',#163,.T.);
#96=FACE_OUTER_BOUND('',#164,.T.);
#97=FACE_OUTER_BOUND('',#165,.T.);
#98=FACE_OUTER_BOUND('',#167,.T.);
#99=FACE_OUTER_BOUND('',#168,.T.);
#100=FACE_OUTER_BOUND('',#169,.T.);
#101=FACE_OUTER_BOUND('',#170,.T.);
#102=FACE_OUTER_BOUND('',#171,.T.);
#103=FACE_OUTER_BOUND('',#172,.T.);
#104=FACE_OUTER_BOUND('',#174,.T.);
#105=EDGE_LOOP('',(#703,#704,#705,#706));
#106=EDGE_LOOP('',(#707,#708,#709,#710));
#107=EDGE_LOOP('',(#711,#712,#713,#714));
#108=EDGE_LOOP('',(#715,#716,#717,#718,#719,#720,#721,#722,#723,#724,#725,
#726));
#109=EDGE_LOOP('',(#727,#728,#729,#730));
#110=EDGE_LOOP('',(#731,#732,#733,#734,#735,#736,#737,#738,#739,#740,#741,
#742));
#111=EDGE_LOOP('',(#743,#744,#745,#746));
#112=EDGE_LOOP('',(#747,#748,#749,#750));
#113=EDGE_LOOP('',(#751,#752,#753,#754));
#114=EDGE_LOOP('',(#755,#756,#757,#758));
#115=EDGE_LOOP('',(#759,#760,#761,#762));
#116=EDGE_LOOP('',(#763,#764,#765,#766));
#117=EDGE_LOOP('',(#767,#768,#769,#770));
#118=EDGE_LOOP('',(#771,#772,#773,#774));
#119=EDGE_LOOP('',(#775,#776,#777,#778));
#120=EDGE_LOOP('',(#779,#780,#781,#782,#783,#784,#785,#786,#787,#788,#789,
#790,#791,#792,#793,#794,#795));
#121=EDGE_LOOP('',(#796));
#122=EDGE_LOOP('',(#797));
#123=EDGE_LOOP('',(#798));
#124=EDGE_LOOP('',(#799,#800,#801,#802,#803,#804,#805,#806,#807,#808,#809,
#810,#811,#812,#813,#814,#815,#816,#817,#818));
#125=EDGE_LOOP('',(#819));
#126=EDGE_LOOP('',(#820,#821,#822,#823));
#127=EDGE_LOOP('',(#824,#825,#826,#827));
#128=EDGE_LOOP('',(#828,#829,#830,#831,#832,#833));
#129=EDGE_LOOP('',(#834,#835,#836,#837,#838,#839,#840,#841,#842,#843,#844,
#845,#846,#847,#848,#849,#850,#851,#852,#853));
#130=EDGE_LOOP('',(#854));
#131=EDGE_LOOP('',(#855,#856,#857,#858));
#132=EDGE_LOOP('',(#859,#860,#861,#862,#863,#864));
#133=EDGE_LOOP('',(#865,#866,#867,#868,#869,#870,#871,#872,#873,#874,#875,
#876,#877,#878,#879,#880,#881));
#134=EDGE_LOOP('',(#882));
#135=EDGE_LOOP('',(#883));
#136=EDGE_LOOP('',(#884));
#137=EDGE_LOOP('',(#885,#886,#887,#888));
#138=EDGE_LOOP('',(#889,#890,#891,#892,#893,#894));
#139=EDGE_LOOP('',(#895,#896,#897,#898));
#140=EDGE_LOOP('',(#899,#900,#901,#902,#903,#904));
#141=EDGE_LOOP('',(#905,#906,#907,#908));
#142=EDGE_LOOP('',(#909,#910,#911,#912));
#143=EDGE_LOOP('',(#913,#914,#915,#916));
#144=EDGE_LOOP('',(#917,#918,#919,#920));
#145=EDGE_LOOP('',(#921,#922,#923,#924));
#146=EDGE_LOOP('',(#925,#926,#927,#928));
#147=EDGE_LOOP('',(#929,#930,#931,#932));
#148=EDGE_LOOP('',(#933,#934,#935,#936));
#149=EDGE_LOOP('',(#937,#938,#939,#940));
#150=EDGE_LOOP('',(#941,#942,#943,#944));
#151=EDGE_LOOP('',(#945,#946,#947,#948,#949,#950,#951));
#152=EDGE_LOOP('',(#952));
#153=EDGE_LOOP('',(#953,#954,#955,#956));
#154=EDGE_LOOP('',(#957,#958,#959,#960));
#155=EDGE_LOOP('',(#961,#962,#963,#964));
#156=EDGE_LOOP('',(#965,#966,#967,#968));
#157=EDGE_LOOP('',(#969,#970,#971,#972,#973,#974,#975));
#158=EDGE_LOOP('',(#976));
#159=EDGE_LOOP('',(#977,#978,#979,#980));
#160=EDGE_LOOP('',(#981,#982,#983,#984));
#161=EDGE_LOOP('',(#985,#986,#987,#988));
#162=EDGE_LOOP('',(#989,#990,#991,#992));
#163=EDGE_LOOP('',(#993,#994,#995,#996));
#164=EDGE_LOOP('',(#997,#998,#999,#1000));
#165=EDGE_LOOP('',(#1001,#1002,#1003,#1004,#1005,#1006));
#166=EDGE_LOOP('',(#1007));
#167=EDGE_LOOP('',(#1008,#1009,#1010,#1011));
#168=EDGE_LOOP('',(#1012,#1013,#1014,#1015));
#169=EDGE_LOOP('',(#1016,#1017,#1018,#1019));
#170=EDGE_LOOP('',(#1020,#1021,#1022,#1023));
#171=EDGE_LOOP('',(#1024,#1025,#1026,#1027));
#172=EDGE_LOOP('',(#1028,#1029,#1030,#1031,#1032,#1033));
#173=EDGE_LOOP('',(#1034));
#174=EDGE_LOOP('',(#1035,#1036,#1037,#1038));
#175=LINE('',#1675,#255);
#176=LINE('',#1678,#256);
#177=LINE('',#1681,#257);
#178=LINE('',#1683,#258);
#179=LINE('',#1684,#259);
#180=LINE('',#1690,#260);
#181=LINE('',#1693,#261);
#182=LINE('',#1698,#262);
#183=LINE('',#1702,#263);
#184=LINE('',#1707,#264);
#185=LINE('',#1711,#265);
#186=LINE('',#1717,#266);
#187=LINE('',#1725,#267);
#188=LINE('',#1729,#268);
#189=LINE('',#1733,#269);
#190=LINE('',#1737,#270);
#191=LINE('',#1740,#271);
#192=LINE('',#1745,#272);
#193=LINE('',#1748,#273);
#194=LINE('',#1749,#274);
#195=LINE('',#1755,#275);
#196=LINE('',#1764,#276);
#197=LINE('',#1772,#277);
#198=LINE('',#1776,#278);
#199=LINE('',#1778,#279);
#200=LINE('',#1779,#280);
#201=LINE('',#1785,#281);
#202=LINE('',#1790,#282);
#203=LINE('',#1802,#283);
#204=LINE('',#1806,#284);
#205=LINE('',#1816,#285);
#206=LINE('',#1820,#286);
#207=LINE('',#1828,#287);
#208=LINE('',#1836,#288);
#209=LINE('',#1840,#289);
#210=LINE('',#1846,#290);
#211=LINE('',#1847,#291);
#212=LINE('',#1850,#292);
#213=LINE('',#1853,#293);
#214=LINE('',#1858,#294);
#215=LINE('',#1861,#295);
#216=LINE('',#1866,#296);
#217=LINE('',#1870,#297);
#218=LINE('',#1878,#298);
#219=LINE('',#1881,#299);
#220=LINE('',#1887,#300);
#221=LINE('',#1890,#301);
#222=LINE('',#1895,#302);
#223=LINE('',#1898,#303);
#224=LINE('',#1903,#304);
#225=LINE('',#1907,#305);
#226=LINE('',#1914,#306);
#227=LINE('',#1923,#307);
#228=LINE('',#1924,#308);
#229=LINE('',#1927,#309);
#230=LINE('',#1930,#310);
#231=LINE('',#1932,#311);
#232=LINE('',#1933,#312);
#233=LINE('',#1936,#313);
#234=LINE('',#1939,#314);
#235=LINE('',#1941,#315);
#236=LINE('',#1943,#316);
#237=LINE('',#1945,#317);
#238=LINE('',#1947,#318);
#239=LINE('',#1949,#319);
#240=LINE('',#1952,#320);
#241=LINE('',#1954,#321);
#242=LINE('',#1958,#322);
#243=LINE('',#1961,#323);
#244=LINE('',#1965,#324);
#245=LINE('',#1968,#325);
#246=LINE('',#1972,#326);
#247=LINE('',#1978,#327);
#248=LINE('',#1982,#328);
#249=LINE('',#1986,#329);
#250=LINE('',#1987,#330);
#251=LINE('',#1993,#331);
#252=LINE('',#1997,#332);
#253=LINE('',#2000,#333);
#254=LINE('',#2004,#334);
#255=VECTOR('',#1301,10.);
#256=VECTOR('',#1304,10.);
#257=VECTOR('',#1307,10.);
#258=VECTOR('',#1308,10.);
#259=VECTOR('',#1309,10.);
#260=VECTOR('',#1314,10.);
#261=VECTOR('',#1317,10.);
#262=VECTOR('',#1322,10.);
#263=VECTOR('',#1325,20.);
#264=VECTOR('',#1330,20.);
#265=VECTOR('',#1333,10.);
#266=VECTOR('',#1340,10.);
#267=VECTOR('',#1349,10.);
#268=VECTOR('',#1352,10.);
#269=VECTOR('',#1355,10.);
#270=VECTOR('',#1358,10.);
#271=VECTOR('',#1361,10.);
#272=VECTOR('',#1366,10.);
#273=VECTOR('',#1371,10.);
#274=VECTOR('',#1372,10.);
#275=VECTOR('',#1379,20.);
#276=VECTOR('',#1392,20.);
#277=VECTOR('',#1403,10.);
#278=VECTOR('',#1408,10.);
#279=VECTOR('',#1409,10.);
#280=VECTOR('',#1410,10.);
#281=VECTOR('',#1417,10.);
#282=VECTOR('',#1422,10.);
#283=VECTOR('',#1433,10.);
#284=VECTOR('',#1436,10.);
#285=VECTOR('',#1447,10.);
#286=VECTOR('',#1450,10.);
#287=VECTOR('',#1457,5.23968506462324);
#288=VECTOR('',#1464,10.);
#289=VECTOR('',#1467,10.);
#290=VECTOR('',#1474,10.);
#291=VECTOR('',#1475,10.);
#292=VECTOR('',#1478,10.);
#293=VECTOR('',#1481,10.);
#294=VECTOR('',#1486,0.5);
#295=VECTOR('',#1489,5.4);
#296=VECTOR('',#1494,10.);
#297=VECTOR('',#1497,10.);
#298=VECTOR('',#1504,5.23968506462324);
#299=VECTOR('',#1507,10.);
#300=VECTOR('',#1514,10.);
#301=VECTOR('',#1517,10.);
#302=VECTOR('',#1522,5.4);
#303=VECTOR('',#1525,0.5);
#304=VECTOR('',#1530,10.);
#305=VECTOR('',#1533,10.);
#306=VECTOR('',#1540,10.);
#307=VECTOR('',#1551,10.);
#308=VECTOR('',#1552,10.);
#309=VECTOR('',#1555,0.5);
#310=VECTOR('',#1558,5.4);
#311=VECTOR('',#1561,10.);
#312=VECTOR('',#1562,10.);
#313=VECTOR('',#1565,5.4);
#314=VECTOR('',#1568,0.5);
#315=VECTOR('',#1571,10.);
#316=VECTOR('',#1574,10.);
#317=VECTOR('',#1577,10.);
#318=VECTOR('',#1580,10.);
#319=VECTOR('',#1583,10.);
#320=VECTOR('',#1588,2.5);
#321=VECTOR('',#1591,10.);
#322=VECTOR('',#1596,2.5);
#323=VECTOR('',#1599,2.5);
#324=VECTOR('',#1606,10.);
#325=VECTOR('',#1611,10.);
#326=VECTOR('',#1618,2.5);
#327=VECTOR('',#1627,2.5);
#328=VECTOR('',#1632,0.5);
#329=VECTOR('',#1637,0.5);
#330=VECTOR('',#1638,5.23968506462324);
#331=VECTOR('',#1647,0.5);
#332=VECTOR('',#1652,0.5);
#333=VECTOR('',#1657,5.23968506462324);
#334=VECTOR('',#1662,2.5);
#335=CIRCLE('',#1150,1.);
#336=CIRCLE('',#1151,1.);
#337=CIRCLE('',#1154,1.);
#338=CIRCLE('',#1155,1.);
#339=CIRCLE('',#1157,29.1000000000002);
#340=CIRCLE('',#1158,29.1000000000002);
#341=CIRCLE('',#1159,29.1000000000002);
#342=CIRCLE('',#1160,29.1000000000002);
#343=CIRCLE('',#1161,29.1000000000002);
#344=CIRCLE('',#1162,29.1000000000002);
#345=CIRCLE('',#1164,1.);
#346=CIRCLE('',#1165,1.);
#347=CIRCLE('',#1167,23.1000000000002);
#348=CIRCLE('',#1168,23.1000000000002);
#349=CIRCLE('',#1169,23.1000000000002);
#350=CIRCLE('',#1170,23.1000000000002);
#351=CIRCLE('',#1171,23.1000000000002);
#352=CIRCLE('',#1172,23.1000000000002);
#353=CIRCLE('',#1174,1.);
#354=CIRCLE('',#1175,1.);
#355=CIRCLE('',#1178,20.);
#356=CIRCLE('',#1179,20.);
#357=CIRCLE('',#1181,5.);
#358=CIRCLE('',#1182,5.);
#359=CIRCLE('',#1184,20.);
#360=CIRCLE('',#1185,20.);
#361=CIRCLE('',#1187,5.);
#362=CIRCLE('',#1188,5.);
#363=CIRCLE('',#1190,20.);
#364=CIRCLE('',#1191,20.);
#365=CIRCLE('',#1194,20.);
#366=CIRCLE('',#1195,20.);
#367=CIRCLE('',#1197,5.00000000000455);
#368=CIRCLE('',#1198,20.);
#369=CIRCLE('',#1199,35.5);
#370=CIRCLE('',#1200,5.);
#371=CIRCLE('',#1201,35.5);
#372=CIRCLE('',#1202,20.);
#373=CIRCLE('',#1203,5.00000000000455);
#374=CIRCLE('',#1204,5.);
#375=CIRCLE('',#1205,2.5);
#376=CIRCLE('',#1206,2.5);
#377=CIRCLE('',#1207,2.5);
#378=CIRCLE('',#1209,5.00000000000729);
#379=CIRCLE('',#1210,20.);
#380=CIRCLE('',#1211,35.5);
#381=CIRCLE('',#1212,1.);
#382=CIRCLE('',#1213,1.);
#383=CIRCLE('',#1214,35.5);
#384=CIRCLE('',#1215,20.);
#385=CIRCLE('',#1216,5.00000000000729);
#386=CIRCLE('',#1217,5.);
#387=CIRCLE('',#1218,2.5);
#388=CIRCLE('',#1221,20.);
#389=CIRCLE('',#1223,35.5);
#390=CIRCLE('',#1224,35.5);
#391=CIRCLE('',#1226,5.);
#392=CIRCLE('',#1227,5.00000000000729);
#393=CIRCLE('',#1228,20.);
#394=CIRCLE('',#1229,35.5);
#395=CIRCLE('',#1230,1.);
#396=CIRCLE('',#1231,1.);
#397=CIRCLE('',#1232,5.00000000000729);
#398=CIRCLE('',#1233,2.5);
#399=CIRCLE('',#1235,20.);
#400=CIRCLE('',#1237,35.5);
#401=CIRCLE('',#1238,35.5);
#402=CIRCLE('',#1240,5.);
#403=CIRCLE('',#1241,5.00000000000729);
#404=CIRCLE('',#1242,20.);
#405=CIRCLE('',#1243,35.5);
#406=CIRCLE('',#1244,5.);
#407=CIRCLE('',#1245,5.00000000000729);
#408=CIRCLE('',#1246,2.5);
#409=CIRCLE('',#1247,2.5);
#410=CIRCLE('',#1248,2.5);
#411=CIRCLE('',#1251,35.5);
#412=CIRCLE('',#1254,35.5);
#413=CIRCLE('',#1264,2.5);
#414=CIRCLE('',#1266,2.5);
#415=CIRCLE('',#1276,5.);
#416=CIRCLE('',#1278,2.5);
#417=CIRCLE('',#1280,1.);
#418=CIRCLE('',#1283,1.);
#419=CIRCLE('',#1286,1.);
#420=CIRCLE('',#1288,1.);
#421=CIRCLE('',#1291,2.5);
#422=CIRCLE('',#1293,5.);
#423=VERTEX_POINT('',#1671);
#424=VERTEX_POINT('',#1672);
#425=VERTEX_POINT('',#1674);
#426=VERTEX_POINT('',#1676);
#427=VERTEX_POINT('',#1680);
#428=VERTEX_POINT('',#1682);
#429=VERTEX_POINT('',#1686);
#430=VERTEX_POINT('',#1687);
#431=VERTEX_POINT('',#1689);
#432=VERTEX_POINT('',#1691);
#433=VERTEX_POINT('',#1695);
#434=VERTEX_POINT('',#1697);
#435=VERTEX_POINT('',#1699);
#436=VERTEX_POINT('',#1701);
#437=VERTEX_POINT('',#1704);
#438=VERTEX_POINT('',#1706);
#439=VERTEX_POINT('',#1708);
#440=VERTEX_POINT('',#1710);
#441=VERTEX_POINT('',#1714);
#442=VERTEX_POINT('',#1716);
#443=VERTEX_POINT('',#1720);
#444=VERTEX_POINT('',#1722);
#445=VERTEX_POINT('',#1724);
#446=VERTEX_POINT('',#1726);
#447=VERTEX_POINT('',#1728);
#448=VERTEX_POINT('',#1730);
#449=VERTEX_POINT('',#1732);
#450=VERTEX_POINT('',#1734);
#451=VERTEX_POINT('',#1736);
#452=VERTEX_POINT('',#1738);
#453=VERTEX_POINT('',#1742);
#454=VERTEX_POINT('',#1744);
#455=VERTEX_POINT('',#1751);
#456=VERTEX_POINT('',#1753);
#457=VERTEX_POINT('',#1760);
#458=VERTEX_POINT('',#1762);
#459=VERTEX_POINT('',#1769);
#460=VERTEX_POINT('',#1771);
#461=VERTEX_POINT('',#1775);
#462=VERTEX_POINT('',#1777);
#463=VERTEX_POINT('',#1781);
#464=VERTEX_POINT('',#1783);
#465=VERTEX_POINT('',#1787);
#466=VERTEX_POINT('',#1789);
#467=VERTEX_POINT('',#1791);
#468=VERTEX_POINT('',#1793);
#469=VERTEX_POINT('',#1795);
#470=VERTEX_POINT('',#1797);
#471=VERTEX_POINT('',#1799);
#472=VERTEX_POINT('',#1801);
#473=VERTEX_POINT('',#1803);
#474=VERTEX_POINT('',#1805);
#475=VERTEX_POINT('',#1808);
#476=VERTEX_POINT('',#1810);
#477=VERTEX_POINT('',#1812);
#478=VERTEX_POINT('',#1815);
#479=VERTEX_POINT('',#1817);
#480=VERTEX_POINT('',#1819);
#481=VERTEX_POINT('',#1821);
#482=VERTEX_POINT('',#1823);
#483=VERTEX_POINT('',#1825);
#484=VERTEX_POINT('',#1827);
#485=VERTEX_POINT('',#1829);
#486=VERTEX_POINT('',#1831);
#487=VERTEX_POINT('',#1833);
#488=VERTEX_POINT('',#1835);
#489=VERTEX_POINT('',#1837);
#490=VERTEX_POINT('',#1839);
#491=VERTEX_POINT('',#1842);
#492=VERTEX_POINT('',#1845);
#493=VERTEX_POINT('',#1849);
#494=VERTEX_POINT('',#1851);
#495=VERTEX_POINT('',#1855);
#496=VERTEX_POINT('',#1857);
#497=VERTEX_POINT('',#1859);
#498=VERTEX_POINT('',#1863);
#499=VERTEX_POINT('',#1865);
#500=VERTEX_POINT('',#1867);
#501=VERTEX_POINT('',#1869);
#502=VERTEX_POINT('',#1871);
#503=VERTEX_POINT('',#1873);
#504=VERTEX_POINT('',#1875);
#505=VERTEX_POINT('',#1877);
#506=VERTEX_POINT('',#1880);
#507=VERTEX_POINT('',#1883);
#508=VERTEX_POINT('',#1886);
#509=VERTEX_POINT('',#1888);
#510=VERTEX_POINT('',#1892);
#511=VERTEX_POINT('',#1894);
#512=VERTEX_POINT('',#1896);
#513=VERTEX_POINT('',#1900);
#514=VERTEX_POINT('',#1902);
#515=VERTEX_POINT('',#1904);
#516=VERTEX_POINT('',#1906);
#517=VERTEX_POINT('',#1908);
#518=VERTEX_POINT('',#1910);
#519=VERTEX_POINT('',#1913);
#520=VERTEX_POINT('',#1916);
#521=VERTEX_POINT('',#1918);
#522=VERTEX_POINT('',#1920);
#523=VERTEX_POINT('',#1926);
#524=VERTEX_POINT('',#1928);
#525=VERTEX_POINT('',#1935);
#526=VERTEX_POINT('',#1937);
#527=VERTEX_POINT('',#1956);
#528=VERTEX_POINT('',#1960);
#529=VERTEX_POINT('',#1977);
#530=VERTEX_POINT('',#1981);
#531=VERTEX_POINT('',#1985);
#532=VERTEX_POINT('',#1992);
#533=VERTEX_POINT('',#1996);
#534=VERTEX_POINT('',#2002);
#535=EDGE_CURVE('',#423,#424,#335,.F.);
#536=EDGE_CURVE('',#424,#425,#175,.T.);
#537=EDGE_CURVE('',#425,#426,#336,.F.);
#538=EDGE_CURVE('',#426,#423,#176,.T.);
#539=EDGE_CURVE('',#424,#427,#177,.T.);
#540=EDGE_CURVE('',#428,#427,#178,.T.);
#541=EDGE_CURVE('',#428,#425,#179,.T.);
#542=EDGE_CURVE('',#429,#430,#337,.F.);
#543=EDGE_CURVE('',#430,#431,#180,.T.);
#544=EDGE_CURVE('',#431,#432,#338,.F.);
#545=EDGE_CURVE('',#432,#429,#181,.T.);
#546=EDGE_CURVE('',#433,#426,#339,.T.);
#547=EDGE_CURVE('',#434,#433,#182,.T.);
#548=EDGE_CURVE('',#435,#434,#340,.T.);
#549=EDGE_CURVE('',#436,#435,#183,.T.);
#550=EDGE_CURVE('',#431,#436,#341,.T.);
#551=EDGE_CURVE('',#437,#430,#342,.T.);
#552=EDGE_CURVE('',#438,#437,#184,.T.);
#553=EDGE_CURVE('',#439,#438,#343,.T.);
#554=EDGE_CURVE('',#440,#439,#185,.T.);
#555=EDGE_CURVE('',#423,#440,#344,.T.);
#556=EDGE_CURVE('',#427,#441,#345,.F.);
#557=EDGE_CURVE('',#441,#442,#186,.T.);
#558=EDGE_CURVE('',#442,#428,#346,.F.);
#559=EDGE_CURVE('',#442,#443,#347,.T.);
#560=EDGE_CURVE('',#444,#441,#348,.T.);
#561=EDGE_CURVE('',#445,#444,#187,.T.);
#562=EDGE_CURVE('',#446,#445,#349,.T.);
#563=EDGE_CURVE('',#446,#447,#188,.T.);
#564=EDGE_CURVE('',#448,#447,#350,.T.);
#565=EDGE_CURVE('',#449,#448,#189,.T.);
#566=EDGE_CURVE('',#450,#449,#351,.T.);
#567=EDGE_CURVE('',#450,#451,#190,.T.);
#568=EDGE_CURVE('',#452,#451,#352,.T.);
#569=EDGE_CURVE('',#443,#452,#191,.T.);
#570=EDGE_CURVE('',#448,#453,#353,.F.);
#571=EDGE_CURVE('',#453,#454,#192,.T.);
#572=EDGE_CURVE('',#454,#449,#354,.F.);
#573=EDGE_CURVE('',#432,#454,#193,.T.);
#574=EDGE_CURVE('',#453,#429,#194,.T.);
#575=EDGE_CURVE('',#436,#455,#355,.F.);
#576=EDGE_CURVE('',#435,#456,#356,.T.);
#577=EDGE_CURVE('',#456,#455,#195,.T.);
#578=EDGE_CURVE('',#451,#456,#357,.T.);
#579=EDGE_CURVE('',#455,#450,#358,.T.);
#580=EDGE_CURVE('',#438,#457,#359,.F.);
#581=EDGE_CURVE('',#437,#458,#360,.T.);
#582=EDGE_CURVE('',#458,#457,#196,.T.);
#583=EDGE_CURVE('',#447,#458,#361,.T.);
#584=EDGE_CURVE('',#457,#446,#362,.T.);
#585=EDGE_CURVE('',#433,#459,#363,.T.);
#586=EDGE_CURVE('',#459,#460,#197,.T.);
#587=EDGE_CURVE('',#460,#434,#364,.T.);
#588=EDGE_CURVE('',#459,#461,#198,.T.);
#589=EDGE_CURVE('',#461,#462,#199,.T.);
#590=EDGE_CURVE('',#460,#462,#200,.T.);
#591=EDGE_CURVE('',#463,#440,#365,.T.);
#592=EDGE_CURVE('',#439,#464,#366,.T.);
#593=EDGE_CURVE('',#464,#463,#201,.T.);
#594=EDGE_CURVE('',#465,#462,#367,.T.);
#595=EDGE_CURVE('',#465,#466,#202,.T.);
#596=EDGE_CURVE('',#467,#466,#368,.T.);
#597=EDGE_CURVE('',#467,#468,#369,.T.);
#598=EDGE_CURVE('',#468,#469,#370,.T.);
#599=EDGE_CURVE('',#469,#470,#371,.T.);
#600=EDGE_CURVE('',#471,#470,#372,.T.);
#601=EDGE_CURVE('',#471,#472,#203,.T.);
#602=EDGE_CURVE('',#473,#472,#373,.T.);
#603=EDGE_CURVE('',#473,#474,#204,.T.);
#604=EDGE_CURVE('',#474,#452,#374,.T.);
#605=EDGE_CURVE('',#475,#475,#375,.T.);
#606=EDGE_CURVE('',#476,#476,#376,.T.);
#607=EDGE_CURVE('',#477,#477,#377,.T.);
#608=EDGE_CURVE('',#463,#478,#205,.T.);
#609=EDGE_CURVE('',#479,#478,#378,.T.);
#610=EDGE_CURVE('',#479,#480,#206,.T.);
#611=EDGE_CURVE('',#481,#480,#379,.T.);
#612=EDGE_CURVE('',#482,#481,#380,.T.);
#613=EDGE_CURVE('',#482,#483,#381,.T.);
#614=EDGE_CURVE('',#484,#483,#207,.T.);
#615=EDGE_CURVE('',#484,#485,#382,.T.);
#616=EDGE_CURVE('',#486,#485,#383,.T.);
#617=EDGE_CURVE('',#487,#486,#384,.T.);
#618=EDGE_CURVE('',#487,#488,#208,.T.);
#619=EDGE_CURVE('',#489,#488,#385,.T.);
#620=EDGE_CURVE('',#489,#490,#209,.T.);
#621=EDGE_CURVE('',#490,#444,#386,.T.);
#622=EDGE_CURVE('',#491,#491,#387,.T.);
#623=EDGE_CURVE('',#464,#492,#210,.T.);
#624=EDGE_CURVE('',#492,#478,#211,.T.);
#625=EDGE_CURVE('',#466,#493,#212,.T.);
#626=EDGE_CURVE('',#493,#494,#388,.T.);
#627=EDGE_CURVE('',#494,#467,#213,.T.);
#628=EDGE_CURVE('',#495,#494,#389,.T.);
#629=EDGE_CURVE('',#495,#496,#214,.T.);
#630=EDGE_CURVE('',#496,#497,#390,.T.);
#631=EDGE_CURVE('',#497,#468,#215,.T.);
#632=EDGE_CURVE('',#443,#498,#391,.T.);
#633=EDGE_CURVE('',#498,#499,#216,.T.);
#634=EDGE_CURVE('',#500,#499,#392,.T.);
#635=EDGE_CURVE('',#501,#500,#217,.T.);
#636=EDGE_CURVE('',#502,#501,#393,.T.);
#637=EDGE_CURVE('',#502,#503,#394,.T.);
#638=EDGE_CURVE('',#503,#504,#395,.T.);
#639=EDGE_CURVE('',#504,#505,#218,.T.);
#640=EDGE_CURVE('',#505,#495,#396,.T.);
#641=EDGE_CURVE('',#493,#506,#219,.T.);
#642=EDGE_CURVE('',#461,#506,#397,.T.);
#643=EDGE_CURVE('',#507,#507,#398,.T.);
#644=EDGE_CURVE('',#480,#508,#220,.T.);
#645=EDGE_CURVE('',#508,#509,#399,.T.);
#646=EDGE_CURVE('',#509,#481,#221,.T.);
#647=EDGE_CURVE('',#509,#510,#400,.T.);
#648=EDGE_CURVE('',#510,#511,#222,.T.);
#649=EDGE_CURVE('',#511,#512,#401,.T.);
#650=EDGE_CURVE('',#512,#482,#223,.T.);
#651=EDGE_CURVE('',#445,#513,#402,.T.);
#652=EDGE_CURVE('',#513,#514,#224,.T.);
#653=EDGE_CURVE('',#515,#514,#403,.T.);
#654=EDGE_CURVE('',#516,#515,#225,.T.);
#655=EDGE_CURVE('',#517,#516,#404,.T.);
#656=EDGE_CURVE('',#518,#517,#405,.T.);
#657=EDGE_CURVE('',#518,#510,#406,.T.);
#658=EDGE_CURVE('',#508,#519,#226,.T.);
#659=EDGE_CURVE('',#492,#519,#407,.T.);
#660=EDGE_CURVE('',#520,#520,#408,.T.);
#661=EDGE_CURVE('',#521,#521,#409,.T.);
#662=EDGE_CURVE('',#522,#522,#410,.T.);
#663=EDGE_CURVE('',#486,#517,#227,.T.);
#664=EDGE_CURVE('',#516,#487,#228,.T.);
#665=EDGE_CURVE('',#485,#523,#229,.T.);
#666=EDGE_CURVE('',#523,#524,#411,.T.);
#667=EDGE_CURVE('',#518,#524,#230,.T.);
#668=EDGE_CURVE('',#470,#502,#231,.T.);
#669=EDGE_CURVE('',#501,#471,#232,.T.);
#670=EDGE_CURVE('',#525,#469,#233,.T.);
#671=EDGE_CURVE('',#525,#526,#412,.T.);
#672=EDGE_CURVE('',#526,#503,#234,.T.);
#673=EDGE_CURVE('',#500,#472,#235,.T.);
#674=EDGE_CURVE('',#515,#488,#236,.T.);
#675=EDGE_CURVE('',#519,#479,#237,.T.);
#676=EDGE_CURVE('',#506,#465,#238,.T.);
#677=EDGE_CURVE('',#499,#473,#239,.T.);
#678=EDGE_CURVE('',#477,#507,#240,.T.);
#679=EDGE_CURVE('',#514,#489,#241,.T.);
#680=EDGE_CURVE('',#527,#527,#413,.T.);
#681=EDGE_CURVE('',#527,#521,#242,.T.);
#682=EDGE_CURVE('',#476,#528,#243,.T.);
#683=EDGE_CURVE('',#528,#528,#414,.T.);
#684=EDGE_CURVE('',#498,#474,#244,.T.);
#685=EDGE_CURVE('',#513,#490,#245,.T.);
#686=EDGE_CURVE('',#491,#520,#246,.T.);
#687=EDGE_CURVE('',#497,#525,#415,.T.);
#688=EDGE_CURVE('',#475,#529,#247,.T.);
#689=EDGE_CURVE('',#529,#529,#416,.T.);
#690=EDGE_CURVE('',#505,#530,#248,.T.);
#691=EDGE_CURVE('',#496,#530,#417,.T.);
#692=EDGE_CURVE('',#531,#504,#249,.T.);
#693=EDGE_CURVE('',#531,#530,#250,.T.);
#694=EDGE_CURVE('',#531,#526,#418,.T.);
#695=EDGE_CURVE('',#484,#532,#251,.T.);
#696=EDGE_CURVE('',#523,#532,#419,.T.);
#697=EDGE_CURVE('',#533,#483,#252,.T.);
#698=EDGE_CURVE('',#533,#512,#420,.T.);
#699=EDGE_CURVE('',#532,#533,#253,.T.);
#700=EDGE_CURVE('',#534,#534,#421,.T.);
#701=EDGE_CURVE('',#534,#522,#254,.T.);
#702=EDGE_CURVE('',#511,#524,#422,.T.);
#703=ORIENTED_EDGE('',*,*,#535,.T.);
#704=ORIENTED_EDGE('',*,*,#536,.T.);
#705=ORIENTED_EDGE('',*,*,#537,.T.);
#706=ORIENTED_EDGE('',*,*,#538,.T.);
#707=ORIENTED_EDGE('',*,*,#536,.F.);
#708=ORIENTED_EDGE('',*,*,#539,.T.);
#709=ORIENTED_EDGE('',*,*,#540,.F.);
#710=ORIENTED_EDGE('',*,*,#541,.T.);
#711=ORIENTED_EDGE('',*,*,#542,.T.);
#712=ORIENTED_EDGE('',*,*,#543,.T.);
#713=ORIENTED_EDGE('',*,*,#544,.T.);
#714=ORIENTED_EDGE('',*,*,#545,.T.);
#715=ORIENTED_EDGE('',*,*,#546,.F.);
#716=ORIENTED_EDGE('',*,*,#547,.F.);
#717=ORIENTED_EDGE('',*,*,#548,.F.);
#718=ORIENTED_EDGE('',*,*,#549,.F.);
#719=ORIENTED_EDGE('',*,*,#550,.F.);
#720=ORIENTED_EDGE('',*,*,#543,.F.);
#721=ORIENTED_EDGE('',*,*,#551,.F.);
#722=ORIENTED_EDGE('',*,*,#552,.F.);
#723=ORIENTED_EDGE('',*,*,#553,.F.);
#724=ORIENTED_EDGE('',*,*,#554,.F.);
#725=ORIENTED_EDGE('',*,*,#555,.F.);
#726=ORIENTED_EDGE('',*,*,#538,.F.);
#727=ORIENTED_EDGE('',*,*,#556,.T.);
#728=ORIENTED_EDGE('',*,*,#557,.T.);
#729=ORIENTED_EDGE('',*,*,#558,.T.);
#730=ORIENTED_EDGE('',*,*,#540,.T.);
#731=ORIENTED_EDGE('',*,*,#559,.F.);
#732=ORIENTED_EDGE('',*,*,#557,.F.);
#733=ORIENTED_EDGE('',*,*,#560,.F.);
#734=ORIENTED_EDGE('',*,*,#561,.F.);
#735=ORIENTED_EDGE('',*,*,#562,.F.);
#736=ORIENTED_EDGE('',*,*,#563,.T.);
#737=ORIENTED_EDGE('',*,*,#564,.F.);
#738=ORIENTED_EDGE('',*,*,#565,.F.);
#739=ORIENTED_EDGE('',*,*,#566,.F.);
#740=ORIENTED_EDGE('',*,*,#567,.T.);
#741=ORIENTED_EDGE('',*,*,#568,.F.);
#742=ORIENTED_EDGE('',*,*,#569,.F.);
#743=ORIENTED_EDGE('',*,*,#570,.T.);
#744=ORIENTED_EDGE('',*,*,#571,.T.);
#745=ORIENTED_EDGE('',*,*,#572,.T.);
#746=ORIENTED_EDGE('',*,*,#565,.T.);
#747=ORIENTED_EDGE('',*,*,#545,.F.);
#748=ORIENTED_EDGE('',*,*,#573,.T.);
#749=ORIENTED_EDGE('',*,*,#571,.F.);
#750=ORIENTED_EDGE('',*,*,#574,.T.);
#751=ORIENTED_EDGE('',*,*,#575,.F.);
#752=ORIENTED_EDGE('',*,*,#549,.T.);
#753=ORIENTED_EDGE('',*,*,#576,.T.);
#754=ORIENTED_EDGE('',*,*,#577,.T.);
#755=ORIENTED_EDGE('',*,*,#577,.F.);
#756=ORIENTED_EDGE('',*,*,#578,.F.);
#757=ORIENTED_EDGE('',*,*,#567,.F.);
#758=ORIENTED_EDGE('',*,*,#579,.F.);
#759=ORIENTED_EDGE('',*,*,#580,.F.);
#760=ORIENTED_EDGE('',*,*,#552,.T.);
#761=ORIENTED_EDGE('',*,*,#581,.T.);
#762=ORIENTED_EDGE('',*,*,#582,.T.);
#763=ORIENTED_EDGE('',*,*,#582,.F.);
#764=ORIENTED_EDGE('',*,*,#583,.F.);
#765=ORIENTED_EDGE('',*,*,#563,.F.);
#766=ORIENTED_EDGE('',*,*,#584,.F.);
#767=ORIENTED_EDGE('',*,*,#585,.T.);
#768=ORIENTED_EDGE('',*,*,#586,.T.);
#769=ORIENTED_EDGE('',*,*,#587,.T.);
#770=ORIENTED_EDGE('',*,*,#547,.T.);
#771=ORIENTED_EDGE('',*,*,#586,.F.);
#772=ORIENTED_EDGE('',*,*,#588,.T.);
#773=ORIENTED_EDGE('',*,*,#589,.T.);
#774=ORIENTED_EDGE('',*,*,#590,.F.);
#775=ORIENTED_EDGE('',*,*,#591,.T.);
#776=ORIENTED_EDGE('',*,*,#554,.T.);
#777=ORIENTED_EDGE('',*,*,#592,.T.);
#778=ORIENTED_EDGE('',*,*,#593,.T.);
#779=ORIENTED_EDGE('',*,*,#590,.T.);
#780=ORIENTED_EDGE('',*,*,#594,.F.);
#781=ORIENTED_EDGE('',*,*,#595,.T.);
#782=ORIENTED_EDGE('',*,*,#596,.F.);
#783=ORIENTED_EDGE('',*,*,#597,.T.);
#784=ORIENTED_EDGE('',*,*,#598,.T.);
#785=ORIENTED_EDGE('',*,*,#599,.T.);
#786=ORIENTED_EDGE('',*,*,#600,.F.);
#787=ORIENTED_EDGE('',*,*,#601,.T.);
#788=ORIENTED_EDGE('',*,*,#602,.F.);
#789=ORIENTED_EDGE('',*,*,#603,.T.);
#790=ORIENTED_EDGE('',*,*,#604,.T.);
#791=ORIENTED_EDGE('',*,*,#568,.T.);
#792=ORIENTED_EDGE('',*,*,#578,.T.);
#793=ORIENTED_EDGE('',*,*,#576,.F.);
#794=ORIENTED_EDGE('',*,*,#548,.T.);
#795=ORIENTED_EDGE('',*,*,#587,.F.);
#796=ORIENTED_EDGE('',*,*,#605,.T.);
#797=ORIENTED_EDGE('',*,*,#606,.T.);
#798=ORIENTED_EDGE('',*,*,#607,.T.);
#799=ORIENTED_EDGE('',*,*,#608,.T.);
#800=ORIENTED_EDGE('',*,*,#609,.F.);
#801=ORIENTED_EDGE('',*,*,#610,.T.);
#802=ORIENTED_EDGE('',*,*,#611,.F.);
#803=ORIENTED_EDGE('',*,*,#612,.F.);
#804=ORIENTED_EDGE('',*,*,#613,.T.);
#805=ORIENTED_EDGE('',*,*,#614,.F.);
#806=ORIENTED_EDGE('',*,*,#615,.T.);
#807=ORIENTED_EDGE('',*,*,#616,.F.);
#808=ORIENTED_EDGE('',*,*,#617,.F.);
#809=ORIENTED_EDGE('',*,*,#618,.T.);
#810=ORIENTED_EDGE('',*,*,#619,.F.);
#811=ORIENTED_EDGE('',*,*,#620,.T.);
#812=ORIENTED_EDGE('',*,*,#621,.T.);
#813=ORIENTED_EDGE('',*,*,#560,.T.);
#814=ORIENTED_EDGE('',*,*,#556,.F.);
#815=ORIENTED_EDGE('',*,*,#539,.F.);
#816=ORIENTED_EDGE('',*,*,#535,.F.);
#817=ORIENTED_EDGE('',*,*,#555,.T.);
#818=ORIENTED_EDGE('',*,*,#591,.F.);
#819=ORIENTED_EDGE('',*,*,#622,.T.);
#820=ORIENTED_EDGE('',*,*,#593,.F.);
#821=ORIENTED_EDGE('',*,*,#623,.T.);
#822=ORIENTED_EDGE('',*,*,#624,.T.);
#823=ORIENTED_EDGE('',*,*,#608,.F.);
#824=ORIENTED_EDGE('',*,*,#596,.T.);
#825=ORIENTED_EDGE('',*,*,#625,.T.);
#826=ORIENTED_EDGE('',*,*,#626,.T.);
#827=ORIENTED_EDGE('',*,*,#627,.T.);
#828=ORIENTED_EDGE('',*,*,#627,.F.);
#829=ORIENTED_EDGE('',*,*,#628,.F.);
#830=ORIENTED_EDGE('',*,*,#629,.T.);
#831=ORIENTED_EDGE('',*,*,#630,.T.);
#832=ORIENTED_EDGE('',*,*,#631,.T.);
#833=ORIENTED_EDGE('',*,*,#597,.F.);
#834=ORIENTED_EDGE('',*,*,#585,.F.);
#835=ORIENTED_EDGE('',*,*,#546,.T.);
#836=ORIENTED_EDGE('',*,*,#537,.F.);
#837=ORIENTED_EDGE('',*,*,#541,.F.);
#838=ORIENTED_EDGE('',*,*,#558,.F.);
#839=ORIENTED_EDGE('',*,*,#559,.T.);
#840=ORIENTED_EDGE('',*,*,#632,.T.);
#841=ORIENTED_EDGE('',*,*,#633,.T.);
#842=ORIENTED_EDGE('',*,*,#634,.F.);
#843=ORIENTED_EDGE('',*,*,#635,.F.);
#844=ORIENTED_EDGE('',*,*,#636,.F.);
#845=ORIENTED_EDGE('',*,*,#637,.T.);
#846=ORIENTED_EDGE('',*,*,#638,.T.);
#847=ORIENTED_EDGE('',*,*,#639,.T.);
#848=ORIENTED_EDGE('',*,*,#640,.T.);
#849=ORIENTED_EDGE('',*,*,#628,.T.);
#850=ORIENTED_EDGE('',*,*,#626,.F.);
#851=ORIENTED_EDGE('',*,*,#641,.T.);
#852=ORIENTED_EDGE('',*,*,#642,.F.);
#853=ORIENTED_EDGE('',*,*,#588,.F.);
#854=ORIENTED_EDGE('',*,*,#643,.F.);
#855=ORIENTED_EDGE('',*,*,#611,.T.);
#856=ORIENTED_EDGE('',*,*,#644,.T.);
#857=ORIENTED_EDGE('',*,*,#645,.T.);
#858=ORIENTED_EDGE('',*,*,#646,.T.);
#859=ORIENTED_EDGE('',*,*,#646,.F.);
#860=ORIENTED_EDGE('',*,*,#647,.T.);
#861=ORIENTED_EDGE('',*,*,#648,.T.);
#862=ORIENTED_EDGE('',*,*,#649,.T.);
#863=ORIENTED_EDGE('',*,*,#650,.T.);
#864=ORIENTED_EDGE('',*,*,#612,.T.);
#865=ORIENTED_EDGE('',*,*,#592,.F.);
#866=ORIENTED_EDGE('',*,*,#553,.T.);
#867=ORIENTED_EDGE('',*,*,#580,.T.);
#868=ORIENTED_EDGE('',*,*,#584,.T.);
#869=ORIENTED_EDGE('',*,*,#562,.T.);
#870=ORIENTED_EDGE('',*,*,#651,.T.);
#871=ORIENTED_EDGE('',*,*,#652,.T.);
#872=ORIENTED_EDGE('',*,*,#653,.F.);
#873=ORIENTED_EDGE('',*,*,#654,.F.);
#874=ORIENTED_EDGE('',*,*,#655,.F.);
#875=ORIENTED_EDGE('',*,*,#656,.F.);
#876=ORIENTED_EDGE('',*,*,#657,.T.);
#877=ORIENTED_EDGE('',*,*,#647,.F.);
#878=ORIENTED_EDGE('',*,*,#645,.F.);
#879=ORIENTED_EDGE('',*,*,#658,.T.);
#880=ORIENTED_EDGE('',*,*,#659,.F.);
#881=ORIENTED_EDGE('',*,*,#623,.F.);
#882=ORIENTED_EDGE('',*,*,#660,.F.);
#883=ORIENTED_EDGE('',*,*,#661,.F.);
#884=ORIENTED_EDGE('',*,*,#662,.F.);
#885=ORIENTED_EDGE('',*,*,#617,.T.);
#886=ORIENTED_EDGE('',*,*,#663,.T.);
#887=ORIENTED_EDGE('',*,*,#655,.T.);
#888=ORIENTED_EDGE('',*,*,#664,.T.);
#889=ORIENTED_EDGE('',*,*,#663,.F.);
#890=ORIENTED_EDGE('',*,*,#616,.T.);
#891=ORIENTED_EDGE('',*,*,#665,.T.);
#892=ORIENTED_EDGE('',*,*,#666,.T.);
#893=ORIENTED_EDGE('',*,*,#667,.F.);
#894=ORIENTED_EDGE('',*,*,#656,.T.);
#895=ORIENTED_EDGE('',*,*,#600,.T.);
#896=ORIENTED_EDGE('',*,*,#668,.T.);
#897=ORIENTED_EDGE('',*,*,#636,.T.);
#898=ORIENTED_EDGE('',*,*,#669,.T.);
#899=ORIENTED_EDGE('',*,*,#668,.F.);
#900=ORIENTED_EDGE('',*,*,#599,.F.);
#901=ORIENTED_EDGE('',*,*,#670,.F.);
#902=ORIENTED_EDGE('',*,*,#671,.T.);
#903=ORIENTED_EDGE('',*,*,#672,.T.);
#904=ORIENTED_EDGE('',*,*,#637,.F.);
#905=ORIENTED_EDGE('',*,*,#669,.F.);
#906=ORIENTED_EDGE('',*,*,#635,.T.);
#907=ORIENTED_EDGE('',*,*,#673,.T.);
#908=ORIENTED_EDGE('',*,*,#601,.F.);
#909=ORIENTED_EDGE('',*,*,#664,.F.);
#910=ORIENTED_EDGE('',*,*,#654,.T.);
#911=ORIENTED_EDGE('',*,*,#674,.T.);
#912=ORIENTED_EDGE('',*,*,#618,.F.);
#913=ORIENTED_EDGE('',*,*,#644,.F.);
#914=ORIENTED_EDGE('',*,*,#610,.F.);
#915=ORIENTED_EDGE('',*,*,#675,.F.);
#916=ORIENTED_EDGE('',*,*,#658,.F.);
#917=ORIENTED_EDGE('',*,*,#625,.F.);
#918=ORIENTED_EDGE('',*,*,#595,.F.);
#919=ORIENTED_EDGE('',*,*,#676,.F.);
#920=ORIENTED_EDGE('',*,*,#641,.F.);
#921=ORIENTED_EDGE('',*,*,#673,.F.);
#922=ORIENTED_EDGE('',*,*,#634,.T.);
#923=ORIENTED_EDGE('',*,*,#677,.T.);
#924=ORIENTED_EDGE('',*,*,#602,.T.);
#925=ORIENTED_EDGE('',*,*,#676,.T.);
#926=ORIENTED_EDGE('',*,*,#594,.T.);
#927=ORIENTED_EDGE('',*,*,#589,.F.);
#928=ORIENTED_EDGE('',*,*,#642,.T.);
#929=ORIENTED_EDGE('',*,*,#607,.F.);
#930=ORIENTED_EDGE('',*,*,#678,.T.);
#931=ORIENTED_EDGE('',*,*,#643,.T.);
#932=ORIENTED_EDGE('',*,*,#678,.F.);
#933=ORIENTED_EDGE('',*,*,#674,.F.);
#934=ORIENTED_EDGE('',*,*,#653,.T.);
#935=ORIENTED_EDGE('',*,*,#679,.T.);
#936=ORIENTED_EDGE('',*,*,#619,.T.);
#937=ORIENTED_EDGE('',*,*,#680,.F.);
#938=ORIENTED_EDGE('',*,*,#681,.T.);
#939=ORIENTED_EDGE('',*,*,#661,.T.);
#940=ORIENTED_EDGE('',*,*,#681,.F.);
#941=ORIENTED_EDGE('',*,*,#606,.F.);
#942=ORIENTED_EDGE('',*,*,#682,.T.);
#943=ORIENTED_EDGE('',*,*,#683,.T.);
#944=ORIENTED_EDGE('',*,*,#682,.F.);
#945=ORIENTED_EDGE('',*,*,#564,.T.);
#946=ORIENTED_EDGE('',*,*,#583,.T.);
#947=ORIENTED_EDGE('',*,*,#581,.F.);
#948=ORIENTED_EDGE('',*,*,#551,.T.);
#949=ORIENTED_EDGE('',*,*,#542,.F.);
#950=ORIENTED_EDGE('',*,*,#574,.F.);
#951=ORIENTED_EDGE('',*,*,#570,.F.);
#952=ORIENTED_EDGE('',*,*,#680,.T.);
#953=ORIENTED_EDGE('',*,*,#684,.T.);
#954=ORIENTED_EDGE('',*,*,#603,.F.);
#955=ORIENTED_EDGE('',*,*,#677,.F.);
#956=ORIENTED_EDGE('',*,*,#633,.F.);
#957=ORIENTED_EDGE('',*,*,#632,.F.);
#958=ORIENTED_EDGE('',*,*,#569,.T.);
#959=ORIENTED_EDGE('',*,*,#604,.F.);
#960=ORIENTED_EDGE('',*,*,#684,.F.);
#961=ORIENTED_EDGE('',*,*,#685,.T.);
#962=ORIENTED_EDGE('',*,*,#620,.F.);
#963=ORIENTED_EDGE('',*,*,#679,.F.);
#964=ORIENTED_EDGE('',*,*,#652,.F.);
#965=ORIENTED_EDGE('',*,*,#621,.F.);
#966=ORIENTED_EDGE('',*,*,#685,.F.);
#967=ORIENTED_EDGE('',*,*,#651,.F.);
#968=ORIENTED_EDGE('',*,*,#561,.T.);
#969=ORIENTED_EDGE('',*,*,#550,.T.);
#970=ORIENTED_EDGE('',*,*,#575,.T.);
#971=ORIENTED_EDGE('',*,*,#579,.T.);
#972=ORIENTED_EDGE('',*,*,#566,.T.);
#973=ORIENTED_EDGE('',*,*,#572,.F.);
#974=ORIENTED_EDGE('',*,*,#573,.F.);
#975=ORIENTED_EDGE('',*,*,#544,.F.);
#976=ORIENTED_EDGE('',*,*,#683,.F.);
#977=ORIENTED_EDGE('',*,*,#622,.F.);
#978=ORIENTED_EDGE('',*,*,#686,.T.);
#979=ORIENTED_EDGE('',*,*,#660,.T.);
#980=ORIENTED_EDGE('',*,*,#686,.F.);
#981=ORIENTED_EDGE('',*,*,#675,.T.);
#982=ORIENTED_EDGE('',*,*,#609,.T.);
#983=ORIENTED_EDGE('',*,*,#624,.F.);
#984=ORIENTED_EDGE('',*,*,#659,.T.);
#985=ORIENTED_EDGE('',*,*,#687,.T.);
#986=ORIENTED_EDGE('',*,*,#670,.T.);
#987=ORIENTED_EDGE('',*,*,#598,.F.);
#988=ORIENTED_EDGE('',*,*,#631,.F.);
#989=ORIENTED_EDGE('',*,*,#605,.F.);
#990=ORIENTED_EDGE('',*,*,#688,.T.);
#991=ORIENTED_EDGE('',*,*,#689,.T.);
#992=ORIENTED_EDGE('',*,*,#688,.F.);
#993=ORIENTED_EDGE('',*,*,#690,.T.);
#994=ORIENTED_EDGE('',*,*,#691,.F.);
#995=ORIENTED_EDGE('',*,*,#629,.F.);
#996=ORIENTED_EDGE('',*,*,#640,.F.);
#997=ORIENTED_EDGE('',*,*,#692,.F.);
#998=ORIENTED_EDGE('',*,*,#693,.T.);
#999=ORIENTED_EDGE('',*,*,#690,.F.);
#1000=ORIENTED_EDGE('',*,*,#639,.F.);
#1001=ORIENTED_EDGE('',*,*,#671,.F.);
#1002=ORIENTED_EDGE('',*,*,#687,.F.);
#1003=ORIENTED_EDGE('',*,*,#630,.F.);
#1004=ORIENTED_EDGE('',*,*,#691,.T.);
#1005=ORIENTED_EDGE('',*,*,#693,.F.);
#1006=ORIENTED_EDGE('',*,*,#694,.T.);
#1007=ORIENTED_EDGE('',*,*,#689,.F.);
#1008=ORIENTED_EDGE('',*,*,#692,.T.);
#1009=ORIENTED_EDGE('',*,*,#638,.F.);
#1010=ORIENTED_EDGE('',*,*,#672,.F.);
#1011=ORIENTED_EDGE('',*,*,#694,.F.);
#1012=ORIENTED_EDGE('',*,*,#695,.T.);
#1013=ORIENTED_EDGE('',*,*,#696,.F.);
#1014=ORIENTED_EDGE('',*,*,#665,.F.);
#1015=ORIENTED_EDGE('',*,*,#615,.F.);
#1016=ORIENTED_EDGE('',*,*,#697,.T.);
#1017=ORIENTED_EDGE('',*,*,#613,.F.);
#1018=ORIENTED_EDGE('',*,*,#650,.F.);
#1019=ORIENTED_EDGE('',*,*,#698,.F.);
#1020=ORIENTED_EDGE('',*,*,#697,.F.);
#1021=ORIENTED_EDGE('',*,*,#699,.F.);
#1022=ORIENTED_EDGE('',*,*,#695,.F.);
#1023=ORIENTED_EDGE('',*,*,#614,.T.);
#1024=ORIENTED_EDGE('',*,*,#700,.F.);
#1025=ORIENTED_EDGE('',*,*,#701,.T.);
#1026=ORIENTED_EDGE('',*,*,#662,.T.);
#1027=ORIENTED_EDGE('',*,*,#701,.F.);
#1028=ORIENTED_EDGE('',*,*,#699,.T.);
#1029=ORIENTED_EDGE('',*,*,#698,.T.);
#1030=ORIENTED_EDGE('',*,*,#649,.F.);
#1031=ORIENTED_EDGE('',*,*,#702,.T.);
#1032=ORIENTED_EDGE('',*,*,#666,.F.);
#1033=ORIENTED_EDGE('',*,*,#696,.T.);
#1034=ORIENTED_EDGE('',*,*,#700,.T.);
#1035=ORIENTED_EDGE('',*,*,#702,.F.);
#1036=ORIENTED_EDGE('',*,*,#648,.F.);
#1037=ORIENTED_EDGE('',*,*,#657,.F.);
#1038=ORIENTED_EDGE('',*,*,#667,.T.);
#1039=CYLINDRICAL_SURFACE('',#1149,1.);
#1040=CYLINDRICAL_SURFACE('',#1153,1.);
#1041=CYLINDRICAL_SURFACE('',#1156,29.1000000000002);
#1042=CYLINDRICAL_SURFACE('',#1163,1.);
#1043=CYLINDRICAL_SURFACE('',#1166,23.1000000000002);
#1044=CYLINDRICAL_SURFACE('',#1173,1.);
#1045=CYLINDRICAL_SURFACE('',#1177,20.);
#1046=CYLINDRICAL_SURFACE('',#1180,5.);
#1047=CYLINDRICAL_SURFACE('',#1183,20.);
#1048=CYLINDRICAL_SURFACE('',#1186,5.);
#1049=CYLINDRICAL_SURFACE('',#1189,20.);
#1050=CYLINDRICAL_SURFACE('',#1193,20.);
#1051=CYLINDRICAL_SURFACE('',#1220,20.);
#1052=CYLINDRICAL_SURFACE('',#1222,35.5);
#1053=CYLINDRICAL_SURFACE('',#1234,20.);
#1054=CYLINDRICAL_SURFACE('',#1236,35.5);
#1055=CYLINDRICAL_SURFACE('',#1249,20.);
#1056=CYLINDRICAL_SURFACE('',#1250,35.5);
#1057=CYLINDRICAL_SURFACE('',#1252,20.);
#1058=CYLINDRICAL_SURFACE('',#1253,35.5);
#1059=CYLINDRICAL_SURFACE('',#1259,5.);
#1060=CYLINDRICAL_SURFACE('',#1260,5.);
#1061=CYLINDRICAL_SURFACE('',#1261,2.5);
#1062=CYLINDRICAL_SURFACE('',#1262,5.);
#1063=CYLINDRICAL_SURFACE('',#1263,2.5);
#1064=CYLINDRICAL_SURFACE('',#1265,2.5);
#1065=CYLINDRICAL_SURFACE('',#1269,5.);
#1066=CYLINDRICAL_SURFACE('',#1271,5.);
#1067=CYLINDRICAL_SURFACE('',#1273,2.5);
#1068=CYLINDRICAL_SURFACE('',#1274,5.);
#1069=CYLINDRICAL_SURFACE('',#1275,5.);
#1070=CYLINDRICAL_SURFACE('',#1277,2.5);
#1071=CYLINDRICAL_SURFACE('',#1279,1.);
#1072=CYLINDRICAL_SURFACE('',#1284,1.);
#1073=CYLINDRICAL_SURFACE('',#1285,1.);
#1074=CYLINDRICAL_SURFACE('',#1287,1.);
#1075=CYLINDRICAL_SURFACE('',#1290,2.5);
#1076=CYLINDRICAL_SURFACE('',#1294,5.);
#1077=ADVANCED_FACE('',(#47),#1039,.T.);
#1078=ADVANCED_FACE('',(#48),#27,.T.);
#1079=ADVANCED_FACE('',(#49),#1040,.T.);
#1080=ADVANCED_FACE('',(#50),#1041,.T.);
#1081=ADVANCED_FACE('',(#51),#1042,.T.);
#1082=ADVANCED_FACE('',(#52),#1043,.F.);
#1083=ADVANCED_FACE('',(#53),#1044,.T.);
#1084=ADVANCED_FACE('',(#54),#28,.T.);
#1085=ADVANCED_FACE('',(#55),#1045,.F.);
#1086=ADVANCED_FACE('',(#56),#1046,.T.);
#1087=ADVANCED_FACE('',(#57),#1047,.F.);
#1088=ADVANCED_FACE('',(#58),#1048,.T.);
#1089=ADVANCED_FACE('',(#59),#1049,.F.);
#1090=ADVANCED_FACE('',(#60),#29,.T.);
#1091=ADVANCED_FACE('',(#61),#1050,.F.);
#1092=ADVANCED_FACE('',(#62,#15,#16,#17),#30,.F.);
#1093=ADVANCED_FACE('',(#63,#18),#31,.T.);
#1094=ADVANCED_FACE('',(#64),#32,.T.);
#1095=ADVANCED_FACE('',(#65),#1051,.T.);
#1096=ADVANCED_FACE('',(#66),#1052,.F.);
#1097=ADVANCED_FACE('',(#67,#19),#33,.T.);
#1098=ADVANCED_FACE('',(#68),#1053,.T.);
#1099=ADVANCED_FACE('',(#69),#1054,.F.);
#1100=ADVANCED_FACE('',(#70,#20,#21,#22),#34,.F.);
#1101=ADVANCED_FACE('',(#71),#1055,.T.);
#1102=ADVANCED_FACE('',(#72),#1056,.F.);
#1103=ADVANCED_FACE('',(#73),#1057,.T.);
#1104=ADVANCED_FACE('',(#74),#1058,.F.);
#1105=ADVANCED_FACE('',(#75),#35,.T.);
#1106=ADVANCED_FACE('',(#76),#36,.T.);
#1107=ADVANCED_FACE('',(#77),#37,.T.);
#1108=ADVANCED_FACE('',(#78),#38,.T.);
#1109=ADVANCED_FACE('',(#79),#1059,.T.);
#1110=ADVANCED_FACE('',(#80),#1060,.T.);
#1111=ADVANCED_FACE('',(#81),#1061,.F.);
#1112=ADVANCED_FACE('',(#82),#1062,.T.);
#1113=ADVANCED_FACE('',(#83),#1063,.F.);
#1114=ADVANCED_FACE('',(#84),#1064,.F.);
#1115=ADVANCED_FACE('',(#85,#23),#39,.F.);
#1116=ADVANCED_FACE('',(#86),#40,.T.);
#1117=ADVANCED_FACE('',(#87),#1065,.T.);
#1118=ADVANCED_FACE('',(#88),#41,.T.);
#1119=ADVANCED_FACE('',(#89),#1066,.T.);
#1120=ADVANCED_FACE('',(#90,#24),#42,.T.);
#1121=ADVANCED_FACE('',(#91),#1067,.F.);
#1122=ADVANCED_FACE('',(#92),#1068,.T.);
#1123=ADVANCED_FACE('',(#93),#1069,.T.);
#1124=ADVANCED_FACE('',(#94),#1070,.F.);
#1125=ADVANCED_FACE('',(#95),#1071,.T.);
#1126=ADVANCED_FACE('',(#96),#43,.F.);
#1127=ADVANCED_FACE('',(#97,#25),#44,.F.);
#1128=ADVANCED_FACE('',(#98),#1072,.T.);
#1129=ADVANCED_FACE('',(#99),#1073,.T.);
#1130=ADVANCED_FACE('',(#100),#1074,.T.);
#1131=ADVANCED_FACE('',(#101),#45,.F.);
#1132=ADVANCED_FACE('',(#102),#1075,.F.);
#1133=ADVANCED_FACE('',(#103,#26),#46,.T.);
#1134=ADVANCED_FACE('',(#104),#1076,.T.);
#1135=CLOSED_SHELL('',(#1077,#1078,#1079,#1080,#1081,#1082,#1083,#1084,
#1085,#1086,#1087,#1088,#1089,#1090,#1091,#1092,#1093,#1094,#1095,#1096,
#1097,#1098,#1099,#1100,#1101,#1102,#1103,#1104,#1105,#1106,#1107,#1108,
#1109,#1110,#1111,#1112,#1113,#1114,#1115,#1116,#1117,#1118,#1119,#1120,
#1121,#1122,#1123,#1124,#1125,#1126,#1127,#1128,#1129,#1130,#1131,#1132,
#1133,#1134));
#1136=DERIVED_UNIT_ELEMENT(#1138,1.);
#1137=DERIVED_UNIT_ELEMENT(#2013,-3.);
#1138=(
MASS_UNIT()
NAMED_UNIT(*)
SI_UNIT(.KILO.,.GRAM.)
);
#1139=DERIVED_UNIT((#1136,#1137));
#1140=MEASURE_REPRESENTATION_ITEM('density measure',
POSITIVE_RATIO_MEASURE(7850.),#1139);
#1141=PROPERTY_DEFINITION_REPRESENTATION(#1146,#1143);
#1142=PROPERTY_DEFINITION_REPRESENTATION(#1147,#1144);
#1143=REPRESENTATION('material name',(#1145),#2010);
#1144=REPRESENTATION('density',(#1140),#2010);
#1145=DESCRIPTIVE_REPRESENTATION_ITEM('Acier','Acier');
#1146=PROPERTY_DEFINITION('material property','material name',#2020);
#1147=PROPERTY_DEFINITION('material property','density of part',#2020);
#1148=AXIS2_PLACEMENT_3D('',#1669,#1295,#1296);
#1149=AXIS2_PLACEMENT_3D('',#1670,#1297,#1298);
#1150=AXIS2_PLACEMENT_3D('',#1673,#1299,#1300);
#1151=AXIS2_PLACEMENT_3D('',#1677,#1302,#1303);
#1152=AXIS2_PLACEMENT_3D('',#1679,#1305,#1306);
#1153=AXIS2_PLACEMENT_3D('',#1685,#1310,#1311);
#1154=AXIS2_PLACEMENT_3D('',#1688,#1312,#1313);
#1155=AXIS2_PLACEMENT_3D('',#1692,#1315,#1316);
#1156=AXIS2_PLACEMENT_3D('',#1694,#1318,#1319);
#1157=AXIS2_PLACEMENT_3D('',#1696,#1320,#1321);
#1158=AXIS2_PLACEMENT_3D('',#1700,#1323,#1324);
#1159=AXIS2_PLACEMENT_3D('',#1703,#1326,#1327);
#1160=AXIS2_PLACEMENT_3D('',#1705,#1328,#1329);
#1161=AXIS2_PLACEMENT_3D('',#1709,#1331,#1332);
#1162=AXIS2_PLACEMENT_3D('',#1712,#1334,#1335);
#1163=AXIS2_PLACEMENT_3D('',#1713,#1336,#1337);
#1164=AXIS2_PLACEMENT_3D('',#1715,#1338,#1339);
#1165=AXIS2_PLACEMENT_3D('',#1718,#1341,#1342);
#1166=AXIS2_PLACEMENT_3D('',#1719,#1343,#1344);
#1167=AXIS2_PLACEMENT_3D('',#1721,#1345,#1346);
#1168=AXIS2_PLACEMENT_3D('',#1723,#1347,#1348);
#1169=AXIS2_PLACEMENT_3D('',#1727,#1350,#1351);
#1170=AXIS2_PLACEMENT_3D('',#1731,#1353,#1354);
#1171=AXIS2_PLACEMENT_3D('',#1735,#1356,#1357);
#1172=AXIS2_PLACEMENT_3D('',#1739,#1359,#1360);
#1173=AXIS2_PLACEMENT_3D('',#1741,#1362,#1363);
#1174=AXIS2_PLACEMENT_3D('',#1743,#1364,#1365);
#1175=AXIS2_PLACEMENT_3D('',#1746,#1367,#1368);
#1176=AXIS2_PLACEMENT_3D('',#1747,#1369,#1370);
#1177=AXIS2_PLACEMENT_3D('',#1750,#1373,#1374);
#1178=AXIS2_PLACEMENT_3D('',#1752,#1375,#1376);
#1179=AXIS2_PLACEMENT_3D('',#1754,#1377,#1378);
#1180=AXIS2_PLACEMENT_3D('',#1756,#1380,#1381);
#1181=AXIS2_PLACEMENT_3D('',#1757,#1382,#1383);
#1182=AXIS2_PLACEMENT_3D('',#1758,#1384,#1385);
#1183=AXIS2_PLACEMENT_3D('',#1759,#1386,#1387);
#1184=AXIS2_PLACEMENT_3D('',#1761,#1388,#1389);
#1185=AXIS2_PLACEMENT_3D('',#1763,#1390,#1391);
#1186=AXIS2_PLACEMENT_3D('',#1765,#1393,#1394);
#1187=AXIS2_PLACEMENT_3D('',#1766,#1395,#1396);
#1188=AXIS2_PLACEMENT_3D('',#1767,#1397,#1398);
#1189=AXIS2_PLACEMENT_3D('',#1768,#1399,#1400);
#1190=AXIS2_PLACEMENT_3D('',#1770,#1401,#1402);
#1191=AXIS2_PLACEMENT_3D('',#1773,#1404,#1405);
#1192=AXIS2_PLACEMENT_3D('',#1774,#1406,#1407);
#1193=AXIS2_PLACEMENT_3D('',#1780,#1411,#1412);
#1194=AXIS2_PLACEMENT_3D('',#1782,#1413,#1414);
#1195=AXIS2_PLACEMENT_3D('',#1784,#1415,#1416);
#1196=AXIS2_PLACEMENT_3D('',#1786,#1418,#1419);
#1197=AXIS2_PLACEMENT_3D('',#1788,#1420,#1421);
#1198=AXIS2_PLACEMENT_3D('',#1792,#1423,#1424);
#1199=AXIS2_PLACEMENT_3D('',#1794,#1425,#1426);
#1200=AXIS2_PLACEMENT_3D('',#1796,#1427,#1428);
#1201=AXIS2_PLACEMENT_3D('',#1798,#1429,#1430);
#1202=AXIS2_PLACEMENT_3D('',#1800,#1431,#1432);
#1203=AXIS2_PLACEMENT_3D('',#1804,#1434,#1435);
#1204=AXIS2_PLACEMENT_3D('',#1807,#1437,#1438);
#1205=AXIS2_PLACEMENT_3D('',#1809,#1439,#1440);
#1206=AXIS2_PLACEMENT_3D('',#1811,#1441,#1442);
#1207=AXIS2_PLACEMENT_3D('',#1813,#1443,#1444);
#1208=AXIS2_PLACEMENT_3D('',#1814,#1445,#1446);
#1209=AXIS2_PLACEMENT_3D('',#1818,#1448,#1449);
#1210=AXIS2_PLACEMENT_3D('',#1822,#1451,#1452);
#1211=AXIS2_PLACEMENT_3D('',#1824,#1453,#1454);
#1212=AXIS2_PLACEMENT_3D('',#1826,#1455,#1456);
#1213=AXIS2_PLACEMENT_3D('',#1830,#1458,#1459);
#1214=AXIS2_PLACEMENT_3D('',#1832,#1460,#1461);
#1215=AXIS2_PLACEMENT_3D('',#1834,#1462,#1463);
#1216=AXIS2_PLACEMENT_3D('',#1838,#1465,#1466);
#1217=AXIS2_PLACEMENT_3D('',#1841,#1468,#1469);
#1218=AXIS2_PLACEMENT_3D('',#1843,#1470,#1471);
#1219=AXIS2_PLACEMENT_3D('',#1844,#1472,#1473);
#1220=AXIS2_PLACEMENT_3D('',#1848,#1476,#1477);
#1221=AXIS2_PLACEMENT_3D('',#1852,#1479,#1480);
#1222=AXIS2_PLACEMENT_3D('',#1854,#1482,#1483);
#1223=AXIS2_PLACEMENT_3D('',#1856,#1484,#1485);
#1224=AXIS2_PLACEMENT_3D('',#1860,#1487,#1488);
#1225=AXIS2_PLACEMENT_3D('',#1862,#1490,#1491);
#1226=AXIS2_PLACEMENT_3D('',#1864,#1492,#1493);
#1227=AXIS2_PLACEMENT_3D('',#1868,#1495,#1496);
#1228=AXIS2_PLACEMENT_3D('',#1872,#1498,#1499);
#1229=AXIS2_PLACEMENT_3D('',#1874,#1500,#1501);
#1230=AXIS2_PLACEMENT_3D('',#1876,#1502,#1503);
#1231=AXIS2_PLACEMENT_3D('',#1879,#1505,#1506);
#1232=AXIS2_PLACEMENT_3D('',#1882,#1508,#1509);
#1233=AXIS2_PLACEMENT_3D('',#1884,#1510,#1511);
#1234=AXIS2_PLACEMENT_3D('',#1885,#1512,#1513);
#1235=AXIS2_PLACEMENT_3D('',#1889,#1515,#1516);
#1236=AXIS2_PLACEMENT_3D('',#1891,#1518,#1519);
#1237=AXIS2_PLACEMENT_3D('',#1893,#1520,#1521);
#1238=AXIS2_PLACEMENT_3D('',#1897,#1523,#1524);
#1239=AXIS2_PLACEMENT_3D('',#1899,#1526,#1527);
#1240=AXIS2_PLACEMENT_3D('',#1901,#1528,#1529);
#1241=AXIS2_PLACEMENT_3D('',#1905,#1531,#1532);
#1242=AXIS2_PLACEMENT_3D('',#1909,#1534,#1535);
#1243=AXIS2_PLACEMENT_3D('',#1911,#1536,#1537);
#1244=AXIS2_PLACEMENT_3D('',#1912,#1538,#1539);
#1245=AXIS2_PLACEMENT_3D('',#1915,#1541,#1542);
#1246=AXIS2_PLACEMENT_3D('',#1917,#1543,#1544);
#1247=AXIS2_PLACEMENT_3D('',#1919,#1545,#1546);
#1248=AXIS2_PLACEMENT_3D('',#1921,#1547,#1548);
#1249=AXIS2_PLACEMENT_3D('',#1922,#1549,#1550);
#1250=AXIS2_PLACEMENT_3D('',#1925,#1553,#1554);
#1251=AXIS2_PLACEMENT_3D('',#1929,#1556,#1557);
#1252=AXIS2_PLACEMENT_3D('',#1931,#1559,#1560);
#1253=AXIS2_PLACEMENT_3D('',#1934,#1563,#1564);
#1254=AXIS2_PLACEMENT_3D('',#1938,#1566,#1567);
#1255=AXIS2_PLACEMENT_3D('',#1940,#1569,#1570);
#1256=AXIS2_PLACEMENT_3D('',#1942,#1572,#1573);
#1257=AXIS2_PLACEMENT_3D('',#1944,#1575,#1576);
#1258=AXIS2_PLACEMENT_3D('',#1946,#1578,#1579);
#1259=AXIS2_PLACEMENT_3D('',#1948,#1581,#1582);
#1260=AXIS2_PLACEMENT_3D('',#1950,#1584,#1585);
#1261=AXIS2_PLACEMENT_3D('',#1951,#1586,#1587);
#1262=AXIS2_PLACEMENT_3D('',#1953,#1589,#1590);
#1263=AXIS2_PLACEMENT_3D('',#1955,#1592,#1593);
#1264=AXIS2_PLACEMENT_3D('',#1957,#1594,#1595);
#1265=AXIS2_PLACEMENT_3D('',#1959,#1597,#1598);
#1266=AXIS2_PLACEMENT_3D('',#1962,#1600,#1601);
#1267=AXIS2_PLACEMENT_3D('',#1963,#1602,#1603);
#1268=AXIS2_PLACEMENT_3D('',#1964,#1604,#1605);
#1269=AXIS2_PLACEMENT_3D('',#1966,#1607,#1608);
#1270=AXIS2_PLACEMENT_3D('',#1967,#1609,#1610);
#1271=AXIS2_PLACEMENT_3D('',#1969,#1612,#1613);
#1272=AXIS2_PLACEMENT_3D('',#1970,#1614,#1615);
#1273=AXIS2_PLACEMENT_3D('',#1971,#1616,#1617);
#1274=AXIS2_PLACEMENT_3D('',#1973,#1619,#1620);
#1275=AXIS2_PLACEMENT_3D('',#1974,#1621,#1622);
#1276=AXIS2_PLACEMENT_3D('',#1975,#1623,#1624);
#1277=AXIS2_PLACEMENT_3D('',#1976,#1625,#1626);
#1278=AXIS2_PLACEMENT_3D('',#1979,#1628,#1629);
#1279=AXIS2_PLACEMENT_3D('',#1980,#1630,#1631);
#1280=AXIS2_PLACEMENT_3D('',#1983,#1633,#1634);
#1281=AXIS2_PLACEMENT_3D('',#1984,#1635,#1636);
#1282=AXIS2_PLACEMENT_3D('',#1988,#1639,#1640);
#1283=AXIS2_PLACEMENT_3D('',#1989,#1641,#1642);
#1284=AXIS2_PLACEMENT_3D('',#1990,#1643,#1644);
#1285=AXIS2_PLACEMENT_3D('',#1991,#1645,#1646);
#1286=AXIS2_PLACEMENT_3D('',#1994,#1648,#1649);
#1287=AXIS2_PLACEMENT_3D('',#1995,#1650,#1651);
#1288=AXIS2_PLACEMENT_3D('',#1998,#1653,#1654);
#1289=AXIS2_PLACEMENT_3D('',#1999,#1655,#1656);
#1290=AXIS2_PLACEMENT_3D('',#2001,#1658,#1659);
#1291=AXIS2_PLACEMENT_3D('',#2003,#1660,#1661);
#1292=AXIS2_PLACEMENT_3D('',#2005,#1663,#1664);
#1293=AXIS2_PLACEMENT_3D('',#2006,#1665,#1666);
#1294=AXIS2_PLACEMENT_3D('',#2007,#1667,#1668);
#1295=DIRECTION('axis',(0.,0.,1.));
#1296=DIRECTION('refdir',(1.,0.,0.));
#1297=DIRECTION('center_axis',(0.,0.,1.));
#1298=DIRECTION('ref_axis',(0.487909208832046,0.872894383036623,0.));
#1299=DIRECTION('center_axis',(0.,0.,-1.));
#1300=DIRECTION('ref_axis',(0.487909208832046,0.872894383036623,0.));
#1301=DIRECTION('',(0.,0.,1.));
#1302=DIRECTION('center_axis',(0.,0.,1.));
#1303=DIRECTION('ref_axis',(0.487909208832046,0.872894383036623,0.));
#1304=DIRECTION('',(0.,0.,-1.));
#1305=DIRECTION('center_axis',(-0.422618261740699,0.90630778703665,0.));
#1306=DIRECTION('ref_axis',(-0.90630778703665,-0.422618261740699,0.));
#1307=DIRECTION('',(-0.90630778703665,-0.422618261740699,0.));
#1308=DIRECTION('',(0.,0.,-1.));
#1309=DIRECTION('',(0.90630778703665,0.422618261740699,0.));
#1310=DIRECTION('center_axis',(0.,0.,1.));
#1311=DIRECTION('ref_axis',(0.755006257884554,-0.655717584448642,0.));
#1312=DIRECTION('center_axis',(0.,0.,-1.));
#1313=DIRECTION('ref_axis',(0.755006257884554,-0.655717584448642,0.));
#1314=DIRECTION('',(0.,0.,1.));
#1315=DIRECTION('center_axis',(0.,0.,1.));
#1316=DIRECTION('ref_axis',(0.755006257884554,-0.655717584448642,0.));
#1317=DIRECTION('',(0.,0.,-1.));
#1318=DIRECTION('center_axis',(0.,0.,1.));
#1319=DIRECTION('ref_axis',(0.932354686526264,0.361544932909469,0.));
#1320=DIRECTION('center_axis',(0.,0.,-1.));
#1321=DIRECTION('ref_axis',(0.932354686526264,0.361544932909469,0.));
#1322=DIRECTION('',(0.,0.,-1.));
#1323=DIRECTION('center_axis',(0.,0.,1.));
#1324=DIRECTION('ref_axis',(0.822064056939504,0.569395017793591,0.));
#1325=DIRECTION('',(0.,0.,1.));
#1326=DIRECTION('center_axis',(0.,0.,-1.));
#1327=DIRECTION('ref_axis',(0.822064056939504,0.569395017793591,0.));
#1328=DIRECTION('center_axis',(0.,0.,1.));
#1329=DIRECTION('ref_axis',(0.822064056939504,0.569395017793591,0.));
#1330=DIRECTION('',(0.,0.,1.));
#1331=DIRECTION('center_axis',(0.,0.,-1.));
#1332=DIRECTION('ref_axis',(0.932354686526264,0.361544932909469,0.));
#1333=DIRECTION('',(0.,0.,-1.));
#1334=DIRECTION('center_axis',(0.,0.,1.));
#1335=DIRECTION('ref_axis',(0.932354686526264,0.361544932909469,0.));
#1336=DIRECTION('center_axis',(0.,0.,1.));
#1337=DIRECTION('ref_axis',(-0.858948891441619,0.51206132629912,0.));
#1338=DIRECTION('center_axis',(0.,0.,-1.));
#1339=DIRECTION('ref_axis',(-0.858948891441619,0.51206132629912,0.));
#1340=DIRECTION('',(0.,0.,1.));
#1341=DIRECTION('center_axis',(0.,0.,1.));
#1342=DIRECTION('ref_axis',(-0.858948891441619,0.51206132629912,0.));
#1343=DIRECTION('center_axis',(0.,0.,1.));
#1344=DIRECTION('ref_axis',(0.822064056939504,0.569395017793591,0.));
#1345=DIRECTION('center_axis',(0.,0.,1.));
#1346=DIRECTION('ref_axis',(0.822064056939504,0.569395017793591,0.));
#1347=DIRECTION('center_axis',(0.,0.,-1.));
#1348=DIRECTION('ref_axis',(0.822064056939504,0.569395017793591,0.));
#1349=DIRECTION('',(0.,0.,1.));
#1350=DIRECTION('center_axis',(0.,0.,1.));
#1351=DIRECTION('ref_axis',(0.822064056939504,0.569395017793591,0.));
#1352=DIRECTION('',(0.,0.,1.));
#1353=DIRECTION('center_axis',(0.,0.,-1.));
#1354=DIRECTION('ref_axis',(0.822064056939504,0.569395017793591,0.));
#1355=DIRECTION('',(0.,0.,-1.));
#1356=DIRECTION('center_axis',(0.,0.,1.));
#1357=DIRECTION('ref_axis',(0.822064056939504,0.569395017793591,0.));
#1358=DIRECTION('',(0.,0.,1.));
#1359=DIRECTION('center_axis',(0.,0.,-1.));
#1360=DIRECTION('ref_axis',(0.822064056939504,0.569395017793591,0.));
#1361=DIRECTION('',(0.,0.,1.));
#1362=DIRECTION('center_axis',(0.,0.,1.));
#1363=DIRECTION('ref_axis',(-0.687563676377914,-0.726124087829131,0.));
#1364=DIRECTION('center_axis',(0.,0.,-1.));
#1365=DIRECTION('ref_axis',(-0.687563676377914,-0.726124087829131,0.));
#1366=DIRECTION('',(0.,0.,1.));
#1367=DIRECTION('center_axis',(0.,0.,1.));
#1368=DIRECTION('ref_axis',(-0.687563676377914,-0.726124087829131,0.));
#1369=DIRECTION('center_axis',(0.299873410064101,-0.953979002880319,0.));
#1370=DIRECTION('ref_axis',(0.953979002880319,0.299873410064101,-2.67038840728422E-16));
#1371=DIRECTION('',(-0.953979002880319,-0.299873410064101,0.));
#1372=DIRECTION('',(0.953979002880319,0.299873410064101,0.));
#1373=DIRECTION('center_axis',(0.,0.,-1.));
#1374=DIRECTION('ref_axis',(0.984395381157796,0.175970831546586,0.));
#1375=DIRECTION('center_axis',(0.,0.,-1.));
#1376=DIRECTION('ref_axis',(0.984395381157796,0.175970831546586,0.));
#1377=DIRECTION('center_axis',(0.,0.,1.));
#1378=DIRECTION('ref_axis',(0.984395381157796,0.175970831546586,0.));
#1379=DIRECTION('',(0.,0.,-1.));
#1380=DIRECTION('center_axis',(0.,0.,1.));
#1381=DIRECTION('ref_axis',(-0.212799229995419,-0.977095946012139,0.));
#1382=DIRECTION('center_axis',(0.,0.,1.));
#1383=DIRECTION('ref_axis',(-0.979795897113272,0.199999999999994,0.));
#1384=DIRECTION('center_axis',(0.,0.,-1.));
#1385=DIRECTION('ref_axis',(0.927024810886964,0.374999999999985,0.));
#1386=DIRECTION('center_axis',(0.,0.,-1.));
#1387=DIRECTION('ref_axis',(0.984395381157796,0.175970831546586,0.));
#1388=DIRECTION('center_axis',(0.,0.,-1.));
#1389=DIRECTION('ref_axis',(0.984395381157796,0.175970831546586,0.));
#1390=DIRECTION('center_axis',(0.,0.,1.));
#1391=DIRECTION('ref_axis',(0.984395381157796,0.175970831546586,0.));
#1392=DIRECTION('',(0.,0.,-1.));
#1393=DIRECTION('center_axis',(0.,0.,1.));
#1394=DIRECTION('ref_axis',(-0.212799229995419,-0.977095946012139,0.));
#1395=DIRECTION('center_axis',(0.,0.,1.));
#1396=DIRECTION('ref_axis',(-0.979795897113272,0.199999999999994,0.));
#1397=DIRECTION('center_axis',(0.,0.,-1.));
#1398=DIRECTION('ref_axis',(0.927024810886964,0.374999999999985,0.));
#1399=DIRECTION('center_axis',(0.,0.,-1.));
#1400=DIRECTION('ref_axis',(-0.994032788426046,-0.109081692019971,0.));
#1401=DIRECTION('center_axis',(0.,0.,-1.));
#1402=DIRECTION('ref_axis',(-0.994032788426046,-0.109081692019971,0.));
#1403=DIRECTION('',(0.,0.,1.));
#1404=DIRECTION('center_axis',(0.,0.,1.));
#1405=DIRECTION('ref_axis',(-0.994032788426046,-0.109081692019971,0.));
#1406=DIRECTION('center_axis',(0.99983074226455,-0.0183980113794447,0.));
#1407=DIRECTION('ref_axis',(0.0183980113794447,0.99983074226455,0.));
#1408=DIRECTION('',(0.0183980113794447,0.99983074226455,0.));
#1409=DIRECTION('',(0.,0.,1.));
#1410=DIRECTION('',(0.0183980113794447,0.99983074226455,0.));
#1411=DIRECTION('center_axis',(0.,0.,-1.));
#1412=DIRECTION('ref_axis',(-0.994032788426046,-0.109081692019971,0.));
#1413=DIRECTION('center_axis',(0.,0.,1.));
#1414=DIRECTION('ref_axis',(-0.994032788426046,-0.109081692019971,0.));
#1415=DIRECTION('center_axis',(0.,0.,-1.));
#1416=DIRECTION('ref_axis',(-0.994032788426046,-0.109081692019971,0.));
#1417=DIRECTION('',(0.,0.,1.));
#1418=DIRECTION('center_axis',(0.,0.,-1.));
#1419=DIRECTION('ref_axis',(-0.996194698091746,-0.0871557427476581,0.));
#1420=DIRECTION('center_axis',(0.,0.,-1.));
#1421=DIRECTION('ref_axis',(-1.,0.,0.));
#1422=DIRECTION('',(0.310300093008374,0.950638654946765,0.));
#1423=DIRECTION('center_axis',(0.,0.,-1.));
#1424=DIRECTION('ref_axis',(0.987443603254495,-0.157971929125966,0.));
#1425=DIRECTION('center_axis',(0.,0.,-1.));
#1426=DIRECTION('ref_axis',(-0.995847537789946,-0.0910367040138295,0.));
#1427=DIRECTION('center_axis',(0.,0.,1.));
#1428=DIRECTION('ref_axis',(0.816910914015351,-0.57676386724777,0.));
#1429=DIRECTION('center_axis',(0.,0.,-1.));
#1430=DIRECTION('ref_axis',(0.995847537789946,0.0910367040138295,0.));
#1431=DIRECTION('center_axis',(0.,0.,-1.));
#1432=DIRECTION('ref_axis',(-0.916076540120199,0.401003457143957,0.));
#1433=DIRECTION('',(-0.27471416631005,-0.961525936638515,0.));
#1434=DIRECTION('center_axis',(0.,0.,-1.));
#1435=DIRECTION('ref_axis',(-1.,0.,0.));
#1436=DIRECTION('',(0.00532051867798434,-0.99998584594033,0.));
#1437=DIRECTION('center_axis',(0.,0.,1.));
#1438=DIRECTION('ref_axis',(-1.,0.,0.));
#1439=DIRECTION('center_axis',(0.,0.,-1.));
#1440=DIRECTION('ref_axis',(0.17364817766693,-0.984807753012208,0.));
#1441=DIRECTION('center_axis',(0.,0.,-1.));
#1442=DIRECTION('ref_axis',(0.,-1.,0.));
#1443=DIRECTION('center_axis',(0.,0.,-1.));
#1444=DIRECTION('ref_axis',(0.,-1.,0.));
#1445=DIRECTION('center_axis',(0.,0.,1.));
#1446=DIRECTION('ref_axis',(0.0871557427476581,-0.996194698091746,0.));
#1447=DIRECTION('',(0.0183980113794447,0.99983074226455,0.));
#1448=DIRECTION('center_axis',(0.,0.,-1.));
#1449=DIRECTION('ref_axis',(-1.,0.,0.));
#1450=DIRECTION('',(0.310300093008374,0.950638654946765,0.));
#1451=DIRECTION('center_axis',(0.,0.,-1.));
#1452=DIRECTION('ref_axis',(0.987443603254495,-0.157971929125966,0.));
#1453=DIRECTION('center_axis',(0.,0.,1.));
#1454=DIRECTION('ref_axis',(-0.92110515810964,0.389313867854479,0.));
#1455=DIRECTION('center_axis',(0.,0.,1.));
#1456=DIRECTION('ref_axis',(0.92110515810964,-0.389313867854479,0.));
#1457=DIRECTION('',(0.819152044289004,0.573576436351029,0.));
#1458=DIRECTION('center_axis',(0.,0.,1.));
#1459=DIRECTION('ref_axis',(-0.573576436351064,0.819152044288979,0.));
#1460=DIRECTION('center_axis',(0.,0.,1.));
#1461=DIRECTION('ref_axis',(0.816910914015351,-0.57676386724777,0.));
#1462=DIRECTION('center_axis',(0.,0.,-1.));
#1463=DIRECTION('ref_axis',(-0.916076540120199,0.401003457143957,0.));
#1464=DIRECTION('',(-0.27471416631005,-0.961525936638515,0.));
#1465=DIRECTION('center_axis',(0.,0.,-1.));
#1466=DIRECTION('ref_axis',(-1.,0.,0.));
#1467=DIRECTION('',(0.00532051867798434,-0.99998584594033,0.));
#1468=DIRECTION('center_axis',(0.,0.,1.));
#1469=DIRECTION('ref_axis',(-1.,0.,0.));
#1470=DIRECTION('center_axis',(0.,0.,-1.));
#1471=DIRECTION('ref_axis',(0.,-1.,0.));
#1472=DIRECTION('center_axis',(0.99983074226455,-0.0183980113794447,0.));
#1473=DIRECTION('ref_axis',(0.0183980113794447,0.99983074226455,0.));
#1474=DIRECTION('',(0.0183980113794447,0.99983074226455,0.));
#1475=DIRECTION('',(0.,0.,1.));
#1476=DIRECTION('center_axis',(0.,0.,1.));
#1477=DIRECTION('ref_axis',(0.987443603254495,-0.157971929125966,0.));
#1478=DIRECTION('',(0.,0.,-1.));
#1479=DIRECTION('center_axis',(0.,0.,1.));
#1480=DIRECTION('ref_axis',(0.987443603254495,-0.157971929125966,0.));
#1481=DIRECTION('',(0.,0.,1.));
#1482=DIRECTION('center_axis',(0.,0.,1.));
#1483=DIRECTION('ref_axis',(-0.17364817766693,0.984807753012208,0.));
#1484=DIRECTION('center_axis',(0.,0.,1.));
#1485=DIRECTION('ref_axis',(-0.92110515810964,0.389313867854479,0.));
#1486=DIRECTION('',(0.,0.,1.));
#1487=DIRECTION('center_axis',(0.,0.,-1.));
#1488=DIRECTION('ref_axis',(-0.92110515810964,0.389313867854479,0.));
#1489=DIRECTION('',(0.,0.,1.));
#1490=DIRECTION('center_axis',(0.,0.,-1.));
#1491=DIRECTION('ref_axis',(-0.996194698091746,-0.0871557427476581,0.));
#1492=DIRECTION('center_axis',(0.,0.,-1.));
#1493=DIRECTION('ref_axis',(-1.,0.,0.));
#1494=DIRECTION('',(-0.00532051867798434,0.99998584594033,0.));
#1495=DIRECTION('center_axis',(0.,0.,1.));
#1496=DIRECTION('ref_axis',(-1.,0.,0.));
#1497=DIRECTION('',(-0.27471416631005,-0.961525936638515,0.));
#1498=DIRECTION('center_axis',(0.,0.,1.));
#1499=DIRECTION('ref_axis',(-0.916076540120199,0.401003457143957,0.));
#1500=DIRECTION('center_axis',(0.,0.,1.));
#1501=DIRECTION('ref_axis',(0.816910914015351,-0.57676386724777,0.));
#1502=DIRECTION('center_axis',(0.,0.,-1.));
#1503=DIRECTION('ref_axis',(-0.97272000808211,0.231982296472683,0.));
#1504=DIRECTION('',(0.819152044289004,0.573576436351029,0.));
#1505=DIRECTION('center_axis',(0.,0.,-1.));
#1506=DIRECTION('ref_axis',(-0.573576436351029,0.819152044289004,0.));
#1507=DIRECTION('',(-0.310300093008374,-0.950638654946765,0.));
#1508=DIRECTION('center_axis',(0.,0.,1.));
#1509=DIRECTION('ref_axis',(-1.,0.,0.));
#1510=DIRECTION('center_axis',(0.,0.,-1.));
#1511=DIRECTION('ref_axis',(0.,-1.,0.));
#1512=DIRECTION('center_axis',(0.,0.,1.));
#1513=DIRECTION('ref_axis',(0.987443603254495,-0.157971929125966,0.));
#1514=DIRECTION('',(0.,0.,-1.));
#1515=DIRECTION('center_axis',(0.,0.,1.));
#1516=DIRECTION('ref_axis',(0.987443603254495,-0.157971929125966,0.));
#1517=DIRECTION('',(0.,0.,1.));
#1518=DIRECTION('center_axis',(0.,0.,1.));
#1519=DIRECTION('ref_axis',(-0.17364817766693,0.984807753012208,0.));
#1520=DIRECTION('center_axis',(0.,0.,-1.));
#1521=DIRECTION('ref_axis',(-0.995847537789946,-0.0910367040138295,0.));
#1522=DIRECTION('',(0.,0.,1.));
#1523=DIRECTION('center_axis',(0.,0.,1.));
#1524=DIRECTION('ref_axis',(-0.816910914015351,0.57676386724777,0.));
#1525=DIRECTION('',(0.,0.,1.));
#1526=DIRECTION('center_axis',(0.,0.,1.));
#1527=DIRECTION('ref_axis',(-0.0871557427476581,0.996194698091746,0.));
#1528=DIRECTION('center_axis',(0.,0.,-1.));
#1529=DIRECTION('ref_axis',(-1.,0.,0.));
#1530=DIRECTION('',(-0.00532051867798434,0.99998584594033,0.));
#1531=DIRECTION('center_axis',(0.,0.,1.));
#1532=DIRECTION('ref_axis',(-1.,0.,0.));
#1533=DIRECTION('',(-0.27471416631005,-0.961525936638515,0.));
#1534=DIRECTION('center_axis',(0.,0.,1.));
#1535=DIRECTION('ref_axis',(-0.916076540120199,0.401003457143957,0.));
#1536=DIRECTION('center_axis',(0.,0.,-1.));
#1537=DIRECTION('ref_axis',(0.995847537789946,0.0910367040138295,0.));
#1538=DIRECTION('center_axis',(0.,0.,-1.));
#1539=DIRECTION('ref_axis',(-0.995847537789946,-0.0910367040138294,0.));
#1540=DIRECTION('',(-0.310300093008374,-0.950638654946765,0.));
#1541=DIRECTION('center_axis',(0.,0.,1.));
#1542=DIRECTION('ref_axis',(-1.,0.,0.));
#1543=DIRECTION('center_axis',(0.,0.,-1.));
#1544=DIRECTION('ref_axis',(0.,-1.,0.));
#1545=DIRECTION('center_axis',(0.,0.,-1.));
#1546=DIRECTION('ref_axis',(0.,-1.,0.));
#1547=DIRECTION('center_axis',(0.,0.,-1.));
#1548=DIRECTION('ref_axis',(0.17364817766693,-0.984807753012208,0.));
#1549=DIRECTION('center_axis',(0.,0.,1.));
#1550=DIRECTION('ref_axis',(-0.916076540120199,0.401003457143957,0.));
#1551=DIRECTION('',(0.,0.,-1.));
#1552=DIRECTION('',(0.,0.,1.));
#1553=DIRECTION('center_axis',(0.,0.,1.));
#1554=DIRECTION('ref_axis',(-0.17364817766693,0.984807753012208,0.));
#1555=DIRECTION('',(1.28710537407083E-14,5.998983426647E-14,-1.));
#1556=DIRECTION('center_axis',(0.,0.,1.));
#1557=DIRECTION('ref_axis',(0.97272000808211,-0.231982296472683,0.));
#1558=DIRECTION('',(0.,0.,1.));
#1559=DIRECTION('center_axis',(0.,0.,1.));
#1560=DIRECTION('ref_axis',(-0.916076540120199,0.401003457143957,0.));
#1561=DIRECTION('',(0.,0.,-1.));
#1562=DIRECTION('',(0.,0.,1.));
#1563=DIRECTION('center_axis',(0.,0.,1.));
#1564=DIRECTION('ref_axis',(-0.17364817766693,0.984807753012208,0.));
#1565=DIRECTION('',(0.,0.,1.));
#1566=DIRECTION('center_axis',(0.,0.,-1.));
#1567=DIRECTION('ref_axis',(0.995847537789946,0.0910367040138295,0.));
#1568=DIRECTION('',(-7.93567569194032E-15,-8.79797540673881E-14,-1.));
#1569=DIRECTION('center_axis',(-0.961525936638515,0.27471416631005,0.));
#1570=DIRECTION('ref_axis',(-0.27471416631005,-0.961525936638515,0.));
#1571=DIRECTION('',(0.,0.,1.));
#1572=DIRECTION('center_axis',(-0.961525936638515,0.27471416631005,0.));
#1573=DIRECTION('ref_axis',(-0.27471416631005,-0.961525936638515,0.));
#1574=DIRECTION('',(0.,0.,1.));
#1575=DIRECTION('center_axis',(0.950638654946765,-0.310300093008374,0.));
#1576=DIRECTION('ref_axis',(0.310300093008374,0.950638654946765,0.));
#1577=DIRECTION('',(0.,0.,1.));
#1578=DIRECTION('center_axis',(0.950638654946765,-0.310300093008374,0.));
#1579=DIRECTION('ref_axis',(0.310300093008374,0.950638654946765,0.));
#1580=DIRECTION('',(0.,0.,1.));
#1581=DIRECTION('center_axis',(0.,0.,1.));
#1582=DIRECTION('ref_axis',(0.,1.,0.));
#1583=DIRECTION('',(0.,0.,1.));
#1584=DIRECTION('center_axis',(0.,0.,1.));
#1585=DIRECTION('ref_axis',(0.,1.,0.));
#1586=DIRECTION('center_axis',(0.,0.,-1.));
#1587=DIRECTION('ref_axis',(0.,-1.,0.));
#1588=DIRECTION('',(0.,0.,-1.));
#1589=DIRECTION('center_axis',(0.,0.,1.));
#1590=DIRECTION('ref_axis',(0.,1.,0.));
#1591=DIRECTION('',(0.,0.,1.));
#1592=DIRECTION('center_axis',(0.,0.,-1.));
#1593=DIRECTION('ref_axis',(0.,-1.,0.));
#1594=DIRECTION('center_axis',(0.,0.,-1.));
#1595=DIRECTION('ref_axis',(0.,-1.,0.));
#1596=DIRECTION('',(0.,0.,-1.));
#1597=DIRECTION('center_axis',(0.,0.,-1.));
#1598=DIRECTION('ref_axis',(0.,-1.,0.));
#1599=DIRECTION('',(0.,0.,-1.));
#1600=DIRECTION('center_axis',(0.,0.,-1.));
#1601=DIRECTION('ref_axis',(0.,-1.,0.));
#1602=DIRECTION('center_axis',(0.,0.,-1.));
#1603=DIRECTION('ref_axis',(-1.,0.,0.));
#1604=DIRECTION('center_axis',(-0.99998584594033,-0.00532051867798434,0.));
#1605=DIRECTION('ref_axis',(0.00532051867798434,-0.99998584594033,0.));
#1606=DIRECTION('',(0.,0.,1.));
#1607=DIRECTION('center_axis',(0.,0.,1.));
#1608=DIRECTION('ref_axis',(-1.,0.,0.));
#1609=DIRECTION('center_axis',(-0.99998584594033,-0.00532051867798434,0.));
#1610=DIRECTION('ref_axis',(0.00532051867798434,-0.99998584594033,0.));
#1611=DIRECTION('',(0.,0.,1.));
#1612=DIRECTION('center_axis',(0.,0.,1.));
#1613=DIRECTION('ref_axis',(-1.,0.,0.));
#1614=DIRECTION('center_axis',(0.,0.,-1.));
#1615=DIRECTION('ref_axis',(-1.,0.,0.));
#1616=DIRECTION('center_axis',(0.,0.,-1.));
#1617=DIRECTION('ref_axis',(0.,-1.,0.));
#1618=DIRECTION('',(0.,0.,-1.));
#1619=DIRECTION('center_axis',(0.,0.,1.));
#1620=DIRECTION('ref_axis',(0.,1.,0.));
#1621=DIRECTION('center_axis',(0.,0.,1.));
#1622=DIRECTION('ref_axis',(-0.17364817766693,0.984807753012208,0.));
#1623=DIRECTION('center_axis',(0.,0.,1.));
#1624=DIRECTION('ref_axis',(0.816910914015351,-0.57676386724777,0.));
#1625=DIRECTION('center_axis',(0.,0.,-1.));
#1626=DIRECTION('ref_axis',(0.17364817766693,-0.984807753012208,0.));
#1627=DIRECTION('',(0.,0.,-1.));
#1628=DIRECTION('center_axis',(0.,0.,-1.));
#1629=DIRECTION('ref_axis',(0.17364817766693,-0.984807753012208,0.));
#1630=DIRECTION('center_axis',(0.,0.,1.));
#1631=DIRECTION('ref_axis',(0.92110515810964,-0.389313867854479,0.));
#1632=DIRECTION('',(1.04962199253443E-14,1.85076676828799E-15,1.));
#1633=DIRECTION('center_axis',(0.,0.,1.));
#1634=DIRECTION('ref_axis',(0.92110515810964,-0.389313867854479,0.));
#1635=DIRECTION('center_axis',(0.573576436351029,-0.819152044289004,0.));
#1636=DIRECTION('ref_axis',(0.819152044289004,0.573576436351029,0.));
#1637=DIRECTION('',(2.55222307765341E-14,1.8930337949227E-14,-1.));
#1638=DIRECTION('',(0.819152044289004,0.573576436351029,0.));
#1639=DIRECTION('center_axis',(0.,0.,1.));
#1640=DIRECTION('ref_axis',(-0.984807753012208,-0.17364817766693,0.));
#1641=DIRECTION('center_axis',(0.,0.,1.));
#1642=DIRECTION('ref_axis',(-0.573576436351029,0.819152044289004,0.));
#1643=DIRECTION('center_axis',(0.,0.,-1.));
#1644=DIRECTION('ref_axis',(-0.97272000808211,0.231982296472683,0.));
#1645=DIRECTION('center_axis',(0.,0.,-1.));
#1646=DIRECTION('ref_axis',(-0.97272000808211,0.231982296472683,0.));
#1647=DIRECTION('',(0.,0.,-1.));
#1648=DIRECTION('center_axis',(0.,0.,-1.));
#1649=DIRECTION('ref_axis',(-0.97272000808211,0.231982296472683,0.));
#1650=DIRECTION('center_axis',(0.,0.,1.));
#1651=DIRECTION('ref_axis',(0.92110515810964,-0.389313867854479,0.));
#1652=DIRECTION('',(0.,0.,1.));
#1653=DIRECTION('center_axis',(0.,0.,-1.));
#1654=DIRECTION('ref_axis',(-0.573576436351064,0.819152044288979,0.));
#1655=DIRECTION('center_axis',(0.573576436351029,-0.819152044289004,0.));
#1656=DIRECTION('ref_axis',(0.819152044289004,0.573576436351029,0.));
#1657=DIRECTION('',(0.819152044289004,0.573576436351029,0.));
#1658=DIRECTION('center_axis',(0.,0.,-1.));
#1659=DIRECTION('ref_axis',(0.17364817766693,-0.984807753012208,0.));
#1660=DIRECTION('center_axis',(0.,0.,-1.));
#1661=DIRECTION('ref_axis',(0.17364817766693,-0.984807753012208,0.));
#1662=DIRECTION('',(0.,0.,-1.));
#1663=DIRECTION('center_axis',(0.,0.,1.));
#1664=DIRECTION('ref_axis',(-0.984807753012208,-0.17364817766693,0.));
#1665=DIRECTION('center_axis',(0.,0.,1.));
#1666=DIRECTION('ref_axis',(0.816910914015351,-0.57676386724777,0.));
#1667=DIRECTION('center_axis',(0.,0.,1.));
#1668=DIRECTION('ref_axis',(-0.17364817766693,0.984807753012208,0.));
#1669=CARTESIAN_POINT('',(0.,0.,0.));
#1670=CARTESIAN_POINT('Origin',(4.81414119820525,1.22656491747069,-10.5));
#1671=CARTESIAN_POINT('',(5.80752700597056,1.3413892917579,-4.6));
#1672=CARTESIAN_POINT('',(4.39152293646455,2.13287270450734,-4.6));
#1673=CARTESIAN_POINT('Origin',(4.81414119820525,1.22656491747069,-4.6));
#1674=CARTESIAN_POINT('',(4.39152293646455,2.13287270450734,4.6));
#1675=CARTESIAN_POINT('',(4.39152293646455,2.13287270450734,-10.5));
#1676=CARTESIAN_POINT('',(5.80752700597056,1.3413892917579,4.6));
#1677=CARTESIAN_POINT('Origin',(4.81414119820525,1.22656491747069,4.6));
#1678=CARTESIAN_POINT('',(5.80752700597056,1.3413892917579,-10.5));
#1679=CARTESIAN_POINT('Origin',(2.33050999560947,1.17180658663006,-10.5));
#1680=CARTESIAN_POINT('',(0.535023007919859,0.334557254152749,-4.6));
#1681=CARTESIAN_POINT('',(1.14896277832546,0.620842070738801,-4.6));
#1682=CARTESIAN_POINT('',(0.535023007919859,0.33455725415275,4.6));
#1683=CARTESIAN_POINT('',(0.535023007919859,0.33455725415275,-10.5));
#1684=CARTESIAN_POINT('',(2.02507060972962,1.02937786189213,4.6));
#1685=CARTESIAN_POINT('Origin',(4.62282456422498,-6.58857256466496,-10.5));
#1686=CARTESIAN_POINT('',(4.92269797428908,-7.54255156754528,-5.6));
#1687=CARTESIAN_POINT('',(5.6094019508522,-6.751866961984,-5.6));
#1688=CARTESIAN_POINT('Origin',(4.62282456422498,-6.58857256466496,-5.6));
#1689=CARTESIAN_POINT('',(5.6094019508522,-6.751866961984,5.6));
#1690=CARTESIAN_POINT('',(5.6094019508522,-6.751866961984,-10.5));
#1691=CARTESIAN_POINT('',(4.92269797428908,-7.54255156754528,5.6));
#1692=CARTESIAN_POINT('Origin',(4.62282456422498,-6.58857256466496,5.6));
#1693=CARTESIAN_POINT('',(4.92269797428908,-7.54255156754528,-10.5));
#1694=CARTESIAN_POINT('Origin',(-23.1000000000003,-1.99999999999996,-10.5));
#1695=CARTESIAN_POINT('',(5.18657694614428,4.83224448258778,4.6));
#1696=CARTESIAN_POINT('Origin',(-23.1000000000003,-1.99999999999996,4.6));
#1697=CARTESIAN_POINT('',(5.18657694614427,4.83224448258778,10.5));
#1698=CARTESIAN_POINT('',(5.18657694614429,4.83224448258778,-10.5));
#1699=CARTESIAN_POINT('',(5.17612301002634,-8.87538126374457,10.5));
#1700=CARTESIAN_POINT('Origin',(-23.1000000000003,-1.99999999999996,10.5));
#1701=CARTESIAN_POINT('',(5.17612301002634,-8.87538126374457,5.6));
#1702=CARTESIAN_POINT('',(5.17612301002635,-8.87538126374457,10.5));
#1703=CARTESIAN_POINT('Origin',(-23.1000000000003,-1.99999999999996,5.6));
#1704=CARTESIAN_POINT('',(5.17612301002634,-8.87538126374457,-5.6));
#1705=CARTESIAN_POINT('Origin',(-23.1000000000003,-1.99999999999996,-5.6));
#1706=CARTESIAN_POINT('',(5.17612301002635,-8.87538126374457,-10.5));
#1707=CARTESIAN_POINT('',(5.17612301002635,-8.87538126374457,10.5));
#1708=CARTESIAN_POINT('',(5.18657694614428,4.83224448258778,-10.5));
#1709=CARTESIAN_POINT('Origin',(-23.1000000000003,-1.99999999999996,-10.5));
#1710=CARTESIAN_POINT('',(5.18657694614428,4.83224448258778,-4.6));
#1711=CARTESIAN_POINT('',(5.18657694614429,4.83224448258778,-10.5));
#1712=CARTESIAN_POINT('Origin',(-23.1000000000003,-1.99999999999996,-4.6));
#1713=CARTESIAN_POINT('Origin',(0.957641269660559,-0.571750532883901,-10.5));
#1714=CARTESIAN_POINT('',(-0.0406011066739076,-0.631013996249712,-4.6));
#1715=CARTESIAN_POINT('Origin',(0.957641269660559,-0.571750532883901,-4.6));
#1716=CARTESIAN_POINT('',(-0.0406011066739076,-0.631013996249712,4.6));
#1717=CARTESIAN_POINT('',(-0.0406011066739076,-0.631013996249712,-10.5));
#1718=CARTESIAN_POINT('Origin',(0.957641269660559,-0.571750532883901,4.6));
#1719=CARTESIAN_POINT('Origin',(-23.1000000000003,-1.99999999999996,-10.5));
#1720=CARTESIAN_POINT('',(-4.11032028469764,11.1530249110321,4.6));
#1721=CARTESIAN_POINT('Origin',(-23.1000000000003,-1.99999999999996,4.6));
#1722=CARTESIAN_POINT('',(-4.11032028469764,11.1530249110321,-4.6));
#1723=CARTESIAN_POINT('Origin',(-23.1000000000003,-1.99999999999996,-4.6));
#1724=CARTESIAN_POINT('',(-4.11032028469764,11.1530249110321,-10.5));
#1725=CARTESIAN_POINT('',(-4.11032028469764,11.1530249110321,-10.5));
#1726=CARTESIAN_POINT('',(-4.11032028469765,-15.153024911032,-10.5));
#1727=CARTESIAN_POINT('Origin',(-23.1000000000003,-1.99999999999996,-10.5));
#1728=CARTESIAN_POINT('',(-4.11032028469765,-15.153024911032,-5.6));
#1729=CARTESIAN_POINT('',(-4.11032028469765,-15.153024911032,-10.5));
#1730=CARTESIAN_POINT('',(-0.718240440190745,-7.71549114310219,-5.6));
#1731=CARTESIAN_POINT('Origin',(-23.1000000000003,-1.99999999999996,-5.6));
#1732=CARTESIAN_POINT('',(-0.718240440190745,-7.71549114310219,5.6));
#1733=CARTESIAN_POINT('',(-0.718240440190745,-7.71549114310219,-10.5));
#1734=CARTESIAN_POINT('',(-4.11032028469765,-15.153024911032,5.6));
#1735=CARTESIAN_POINT('Origin',(-23.1000000000003,-1.99999999999996,5.6));
#1736=CARTESIAN_POINT('',(-4.11032028469765,-15.153024911032,10.5));
#1737=CARTESIAN_POINT('',(-4.11032028469765,-15.153024911032,-10.5));
#1738=CARTESIAN_POINT('',(-4.11032028469764,11.1530249110321,10.5));
#1739=CARTESIAN_POINT('Origin',(-23.1000000000003,-1.99999999999996,10.5));
#1740=CARTESIAN_POINT('',(-4.11032028469764,11.1530249110321,-10.5));
#1741=CARTESIAN_POINT('Origin',(0.250666900060748,-7.96291500211094,-10.5));
#1742=CARTESIAN_POINT('',(0.550540310124848,-8.91689400499126,-5.6));
#1743=CARTESIAN_POINT('Origin',(0.250666900060748,-7.96291500211094,-5.6));
#1744=CARTESIAN_POINT('',(0.550540310124848,-8.91689400499126,5.6));
#1745=CARTESIAN_POINT('',(0.550540310124848,-8.91689400499126,-10.5));
#1746=CARTESIAN_POINT('Origin',(0.250666900060748,-7.96291500211094,5.6));
#1747=CARTESIAN_POINT('Origin',(-1.24502376205597,-9.48131095723837,-10.5));
#1748=CARTESIAN_POINT('',(-1.89697387380039,-9.68624471637792,5.6));
#1749=CARTESIAN_POINT('',(-1.89697387380039,-9.68624471637792,-5.6));
#1750=CARTESIAN_POINT('Origin',(24.6098845289449,-13.6007292113353,10.5));
#1751=CARTESIAN_POINT('',(4.92197690578898,-17.1201458422671,5.6));
#1752=CARTESIAN_POINT('Origin',(24.6098845289449,-13.6007292113353,5.6));
#1753=CARTESIAN_POINT('',(4.92197690578898,-17.1201458422671,10.5));
#1754=CARTESIAN_POINT('Origin',(24.6098845289449,-13.6007292113353,10.5));
#1755=CARTESIAN_POINT('',(4.92197690578898,-17.1201458422671,10.5));
#1756=CARTESIAN_POINT('Origin',(0.,-18.,10.5));
#1757=CARTESIAN_POINT('Origin',(0.,-18.,10.5));
#1758=CARTESIAN_POINT('Origin',(0.,-18.,5.6));
#1759=CARTESIAN_POINT('Origin',(24.6098845289449,-13.6007292113353,10.5));
#1760=CARTESIAN_POINT('',(4.92197690578898,-17.1201458422671,-10.5));
#1761=CARTESIAN_POINT('Origin',(24.6098845289449,-13.6007292113353,-10.5));
#1762=CARTESIAN_POINT('',(4.92197690578898,-17.1201458422671,-5.6));
#1763=CARTESIAN_POINT('Origin',(24.6098845289449,-13.6007292113353,-5.6));
#1764=CARTESIAN_POINT('',(4.92197690578898,-17.1201458422671,10.5));
#1765=CARTESIAN_POINT('Origin',(0.,-18.,10.5));
#1766=CARTESIAN_POINT('Origin',(0.,-18.,-5.6));
#1767=CARTESIAN_POINT('Origin',(0.,-18.,-10.5));
#1768=CARTESIAN_POINT('Origin',(24.6275233008827,9.52794515790578,-10.5));
#1769=CARTESIAN_POINT('',(4.63090845559172,9.89590538549468,4.6));
#1770=CARTESIAN_POINT('Origin',(24.6275233008827,9.52794515790578,4.6));
#1771=CARTESIAN_POINT('',(4.63090845559172,9.89590538549468,10.5));
#1772=CARTESIAN_POINT('',(4.63090845559171,9.89590538549468,-10.5));
#1773=CARTESIAN_POINT('Origin',(24.6275233008827,9.52794515790578,10.5));
#1774=CARTESIAN_POINT('Origin',(4.63512405443904,10.1249999999984,4.6));
#1775=CARTESIAN_POINT('',(4.9991537113273,29.9080099431027,4.6));
#1776=CARTESIAN_POINT('',(4.63512405443904,10.1249999999984,4.6));
#1777=CARTESIAN_POINT('',(4.9991537113273,29.9080099431027,10.5));
#1778=CARTESIAN_POINT('',(4.9991537113273,29.9080099431027,10.5));
#1779=CARTESIAN_POINT('',(4.63512405443904,10.1249999999984,10.5));
#1780=CARTESIAN_POINT('Origin',(24.6275233008827,9.52794515790578,-10.5));
#1781=CARTESIAN_POINT('',(4.63090845559172,9.89590538549468,-4.6));
#1782=CARTESIAN_POINT('Origin',(24.6275233008827,9.52794515790578,-4.6));
#1783=CARTESIAN_POINT('',(4.63090845559172,9.89590538549468,-10.5));
#1784=CARTESIAN_POINT('Origin',(24.6275233008827,9.52794515790578,-10.5));
#1785=CARTESIAN_POINT('',(4.63090845559171,9.89590538549468,-10.5));
#1786=CARTESIAN_POINT('Origin',(4.44985768325319,46.9257014083096,10.5));
#1787=CARTESIAN_POINT('',(4.54843784804642,32.0764665040651,10.5));
#1788=CARTESIAN_POINT('Origin',(0.,30.,10.5));
#1789=CARTESIAN_POINT('',(6.87103768537639,39.192007991445,10.5));
#1790=CARTESIAN_POINT('',(9.3791614556972,46.8759225669828,10.5));
#1791=CARTESIAN_POINT('',(7.85823346184396,45.3627255361771,10.5));
#1792=CARTESIAN_POINT('Origin',(-12.1417354135589,45.3980098516125,10.5));
#1793=CARTESIAN_POINT('',(14.3578407681353,65.7752131635792,10.5));
#1794=CARTESIAN_POINT('Origin',(43.3581782156841,45.3000958762794,10.5));
#1795=CARTESIAN_POINT('',(5.29404850911238,68.2038489797509,10.5));
#1796=CARTESIAN_POINT('Origin',(10.2732861980629,68.6590324998193,10.5));
#1797=CARTESIAN_POINT('',(0.262875742902269,46.509602947656,10.5));
#1798=CARTESIAN_POINT('Origin',(-30.0585390824268,64.9720459872516,10.5));
#1799=CARTESIAN_POINT('',(-1.88515576433056,41.6025099135214,10.5));
#1800=CARTESIAN_POINT('Origin',(17.3453629684398,36.1082265873204,10.5));
#1801=CARTESIAN_POINT('',(-4.80762968319695,31.3735708315515,10.5));
#1802=CARTESIAN_POINT('',(0.315369196662381,49.3045583831556,10.5));
#1803=CARTESIAN_POINT('',(-4.99992920174877,29.9733921520414,10.5));
#1804=CARTESIAN_POINT('Origin',(0.,30.,10.5));
#1805=CARTESIAN_POINT('',(-4.90991409860863,13.0551489301036,10.5));
#1806=CARTESIAN_POINT('',(-4.8989794855708,10.999999999999,10.5));
#1807=CARTESIAN_POINT('Origin',(-1.07321559047098E-14,14.,10.5));
#1808=CARTESIAN_POINT('',(9.83916575389561,71.1210518823498,10.5));
#1809=CARTESIAN_POINT('Origin',(10.2732861980629,68.6590324998193,10.5));
#1810=CARTESIAN_POINT('',(3.06161699786838E-16,-15.5,10.5));
#1811=CARTESIAN_POINT('Origin',(0.,-18.,10.5));
#1812=CARTESIAN_POINT('',(3.06161699786838E-16,32.5,10.5));
#1813=CARTESIAN_POINT('Origin',(0.,30.,10.5));
#1814=CARTESIAN_POINT('Origin',(1.24110145087949,-4.69347062594495,-4.6));
#1815=CARTESIAN_POINT('',(4.9991537113273,29.9080099431027,-4.6));
#1816=CARTESIAN_POINT('',(4.63512405443904,10.1249999999984,-4.6));
#1817=CARTESIAN_POINT('',(4.54843784804642,32.0764665040651,-4.6));
#1818=CARTESIAN_POINT('Origin',(-1.60982338570648E-14,30.,-4.6));
#1819=CARTESIAN_POINT('',(6.87103768537639,39.192007991445,-4.6));
#1820=CARTESIAN_POINT('',(9.3791614556972,46.8759225669828,-4.6));
#1821=CARTESIAN_POINT('',(7.85823346184396,45.3627255361771,-4.6));
#1822=CARTESIAN_POINT('Origin',(-12.1417354135589,45.3980098516125,-4.6));
#1823=CARTESIAN_POINT('',(10.6589451027958,59.120738185116,-4.6));
#1824=CARTESIAN_POINT('Origin',(43.3581782156841,45.3000958762794,-4.6));
#1825=CARTESIAN_POINT('',(9.16426350833237,60.3292040972587,-4.6));
#1826=CARTESIAN_POINT('Origin',(9.73783994468429,59.5100520529665,-4.6));
#1827=CARTESIAN_POINT('',(4.87216477621645,57.3238442102902,-4.6));
#1828=CARTESIAN_POINT('',(4.87216477621645,57.3238442102902,-4.6));
#1829=CARTESIAN_POINT('',(4.47302120448468,56.736674462479,-4.6));
#1830=CARTESIAN_POINT('Origin',(5.44574121256739,56.5046921659978,-4.6));
#1831=CARTESIAN_POINT('',(0.262875742902273,46.509602947656,-4.6));
#1832=CARTESIAN_POINT('Origin',(-30.0585390824268,64.9720459872516,-4.6));
#1833=CARTESIAN_POINT('',(-1.88515576433056,41.6025099135214,-4.6));
#1834=CARTESIAN_POINT('Origin',(17.3453629684398,36.1082265873204,-4.6));
#1835=CARTESIAN_POINT('',(-4.80762968319695,31.3735708315515,-4.6));
#1836=CARTESIAN_POINT('',(0.315369196662381,49.3045583831556,-4.6));
#1837=CARTESIAN_POINT('',(-4.99992920174877,29.9733921520414,-4.6));
#1838=CARTESIAN_POINT('Origin',(-1.60982338570648E-14,30.,-4.6));
#1839=CARTESIAN_POINT('',(-4.90991409860863,13.0551489301036,-4.6));
#1840=CARTESIAN_POINT('',(-4.8989794855708,10.999999999999,-4.6));
#1841=CARTESIAN_POINT('Origin',(-1.07321559047098E-14,14.,-4.6));
#1842=CARTESIAN_POINT('',(0.,32.5,-4.6));
#1843=CARTESIAN_POINT('Origin',(0.,30.,-4.6));
#1844=CARTESIAN_POINT('Origin',(4.63512405443904,10.1249999999984,-10.5));
#1845=CARTESIAN_POINT('',(4.9991537113273,29.9080099431027,-10.5));
#1846=CARTESIAN_POINT('',(4.63512405443904,10.1249999999984,-10.5));
#1847=CARTESIAN_POINT('',(4.9991537113273,29.9080099431027,10.5));
#1848=CARTESIAN_POINT('Origin',(-12.1417354135589,45.3980098516125,10.5));
#1849=CARTESIAN_POINT('',(6.87103768537639,39.192007991445,4.6));
#1850=CARTESIAN_POINT('',(6.87103768537639,39.192007991445,10.5));
#1851=CARTESIAN_POINT('',(7.85823346184396,45.3627255361771,4.6));
#1852=CARTESIAN_POINT('Origin',(-12.1417354135589,45.3980098516125,4.6));
#1853=CARTESIAN_POINT('',(7.85823346184397,45.3627255361771,10.5));
#1854=CARTESIAN_POINT('Origin',(43.3581782156841,45.3000958762794,10.5));
#1855=CARTESIAN_POINT('',(10.6589451027958,59.120738185116,4.6));
#1856=CARTESIAN_POINT('Origin',(43.3581782156841,45.3000958762794,4.6));
#1857=CARTESIAN_POINT('',(10.6589451027958,59.120738185116,5.1));
#1858=CARTESIAN_POINT('',(10.6589451027958,59.120738185116,4.6));
#1859=CARTESIAN_POINT('',(14.3578407681353,65.7752131635792,5.1));
#1860=CARTESIAN_POINT('Origin',(43.3581782156841,45.3000958762794,5.1));
#1861=CARTESIAN_POINT('',(14.3578407681353,65.7752131635792,5.1));
#1862=CARTESIAN_POINT('Origin',(4.44985768325319,46.9257014083096,4.6));
#1863=CARTESIAN_POINT('',(-4.90991409860863,13.0551489301036,4.6));
#1864=CARTESIAN_POINT('Origin',(-1.07321559047098E-14,14.,4.6));
#1865=CARTESIAN_POINT('',(-4.99992920174877,29.9733921520414,4.6));
#1866=CARTESIAN_POINT('',(-4.8989794855708,10.999999999999,4.6));
#1867=CARTESIAN_POINT('',(-4.80762968319695,31.3735708315515,4.6));
#1868=CARTESIAN_POINT('Origin',(-1.60982338570648E-14,30.,4.6));
#1869=CARTESIAN_POINT('',(-1.88515576433056,41.6025099135214,4.6));
#1870=CARTESIAN_POINT('',(0.315369196662381,49.3045583831556,4.6));
#1871=CARTESIAN_POINT('',(0.262875742902273,46.509602947656,4.6));
#1872=CARTESIAN_POINT('Origin',(17.3453629684398,36.1082265873204,4.6));
#1873=CARTESIAN_POINT('',(4.47302120448468,56.736674462479,4.6));
#1874=CARTESIAN_POINT('Origin',(-30.0585390824268,64.9720459872516,4.6));
#1875=CARTESIAN_POINT('',(4.87216477621645,57.3238442102902,4.6));
#1876=CARTESIAN_POINT('Origin',(5.44574121256739,56.5046921659978,4.6));
#1877=CARTESIAN_POINT('',(9.16426350833237,60.3292040972587,4.6));
#1878=CARTESIAN_POINT('',(4.87216477621645,57.3238442102902,4.6));
#1879=CARTESIAN_POINT('Origin',(9.73783994468429,59.5100520529665,4.6));
#1880=CARTESIAN_POINT('',(4.54843784804642,32.0764665040651,4.6));
#1881=CARTESIAN_POINT('',(9.3791614556972,46.8759225669828,4.6));
#1882=CARTESIAN_POINT('Origin',(-1.60982338570648E-14,30.,4.6));
#1883=CARTESIAN_POINT('',(3.06161699786838E-16,32.5,4.6));
#1884=CARTESIAN_POINT('Origin',(0.,30.,4.6));
#1885=CARTESIAN_POINT('Origin',(-12.1417354135589,45.3980098516125,10.5));
#1886=CARTESIAN_POINT('',(6.87103768537639,39.192007991445,-10.5));
#1887=CARTESIAN_POINT('',(6.87103768537639,39.192007991445,10.5));
#1888=CARTESIAN_POINT('',(7.85823346184396,45.3627255361771,-10.5));
#1889=CARTESIAN_POINT('Origin',(-12.1417354135589,45.3980098516125,-10.5));
#1890=CARTESIAN_POINT('',(7.85823346184397,45.3627255361771,10.5));
#1891=CARTESIAN_POINT('Origin',(43.3581782156841,45.3000958762794,10.5));
#1892=CARTESIAN_POINT('',(14.3578407681353,65.7752131635792,-10.5));
#1893=CARTESIAN_POINT('Origin',(43.3581782156841,45.3000958762794,-10.5));
#1894=CARTESIAN_POINT('',(14.3578407681353,65.7752131635792,-5.1));
#1895=CARTESIAN_POINT('',(14.3578407681353,65.7752131635792,-10.5));
#1896=CARTESIAN_POINT('',(10.6589451027958,59.120738185116,-5.1));
#1897=CARTESIAN_POINT('Origin',(43.3581782156841,45.3000958762794,-5.1));
#1898=CARTESIAN_POINT('',(10.6589451027958,59.120738185116,-5.1));
#1899=CARTESIAN_POINT('Origin',(1.24110145087949,-4.69347062594495,-10.5));
#1900=CARTESIAN_POINT('',(-4.90991409860863,13.0551489301036,-10.5));
#1901=CARTESIAN_POINT('Origin',(-1.07321559047098E-14,14.,-10.5));
#1902=CARTESIAN_POINT('',(-4.99992920174877,29.9733921520414,-10.5));
#1903=CARTESIAN_POINT('',(-4.8989794855708,10.999999999999,-10.5));
#1904=CARTESIAN_POINT('',(-4.80762968319695,31.3735708315515,-10.5));
#1905=CARTESIAN_POINT('Origin',(-1.60982338570648E-14,30.,-10.5));
#1906=CARTESIAN_POINT('',(-1.88515576433056,41.6025099135214,-10.5));
#1907=CARTESIAN_POINT('',(0.315369196662381,49.3045583831556,-10.5));
#1908=CARTESIAN_POINT('',(0.262875742902269,46.509602947656,-10.5));
#1909=CARTESIAN_POINT('Origin',(17.3453629684398,36.1082265873204,-10.5));
#1910=CARTESIAN_POINT('',(5.29404850911238,68.2038489797509,-10.5));
#1911=CARTESIAN_POINT('Origin',(-30.0585390824268,64.9720459872516,-10.5));
#1912=CARTESIAN_POINT('Origin',(10.2732861980629,68.6590324998193,-10.5));
#1913=CARTESIAN_POINT('',(4.54843784804642,32.0764665040651,-10.5));
#1914=CARTESIAN_POINT('',(9.3791614556972,46.8759225669828,-10.5));
#1915=CARTESIAN_POINT('Origin',(-1.60982338570648E-14,30.,-10.5));
#1916=CARTESIAN_POINT('',(0.,32.5,-10.5));
#1917=CARTESIAN_POINT('Origin',(0.,30.,-10.5));
#1918=CARTESIAN_POINT('',(0.,-15.5,-10.5));
#1919=CARTESIAN_POINT('Origin',(0.,-18.,-10.5));
#1920=CARTESIAN_POINT('',(9.83916575389561,71.1210518823498,-10.5));
#1921=CARTESIAN_POINT('Origin',(10.2732861980629,68.6590324998193,-10.5));
#1922=CARTESIAN_POINT('Origin',(17.3453629684398,36.1082265873204,10.5));
#1923=CARTESIAN_POINT('',(0.26287574290226,46.509602947656,10.5));
#1924=CARTESIAN_POINT('',(-1.88515576433056,41.6025099135214,10.5));
#1925=CARTESIAN_POINT('Origin',(-30.0585390824268,64.9720459872516,10.5));
#1926=CARTESIAN_POINT('',(4.47302120448468,56.736674462479,-5.1));
#1927=CARTESIAN_POINT('',(4.47302120448468,56.736674462479,-4.6));
#1928=CARTESIAN_POINT('',(5.29404850911238,68.2038489797509,-5.1));
#1929=CARTESIAN_POINT('Origin',(-30.0585390824268,64.9720459872516,-5.1));
#1930=CARTESIAN_POINT('',(5.29404850911238,68.2038489797509,-10.5));
#1931=CARTESIAN_POINT('Origin',(17.3453629684398,36.1082265873204,10.5));
#1932=CARTESIAN_POINT('',(0.26287574290226,46.509602947656,10.5));
#1933=CARTESIAN_POINT('',(-1.88515576433056,41.6025099135214,10.5));
#1934=CARTESIAN_POINT('Origin',(-30.0585390824268,64.9720459872516,10.5));
#1935=CARTESIAN_POINT('',(5.29404850911238,68.2038489797509,5.1));
#1936=CARTESIAN_POINT('',(5.29404850911238,68.2038489797509,5.1));
#1937=CARTESIAN_POINT('',(4.47302120448468,56.736674462479,5.1));
#1938=CARTESIAN_POINT('Origin',(-30.0585390824268,64.9720459872516,5.1));
#1939=CARTESIAN_POINT('',(4.47302120448468,56.736674462479,5.1));
#1940=CARTESIAN_POINT('Origin',(0.315369196662381,49.3045583831556,4.6));
#1941=CARTESIAN_POINT('',(-4.80762968319695,31.3735708315515,4.6));
#1942=CARTESIAN_POINT('Origin',(0.315369196662381,49.3045583831556,-10.5));
#1943=CARTESIAN_POINT('',(-4.80762968319695,31.3735708315515,10.5));
#1944=CARTESIAN_POINT('Origin',(4.54843784804642,32.0764665040651,-10.5));
#1945=CARTESIAN_POINT('',(4.54843784804434,32.0764665040587,10.5));
#1946=CARTESIAN_POINT('Origin',(4.54843784804642,32.0764665040651,4.6));
#1947=CARTESIAN_POINT('',(4.54843784804642,32.0764665040651,4.6));
#1948=CARTESIAN_POINT('Origin',(0.,30.,10.5));
#1949=CARTESIAN_POINT('',(-4.9999292297062,29.9733974066101,10.5));
#1950=CARTESIAN_POINT('Origin',(0.,30.,10.5));
#1951=CARTESIAN_POINT('Origin',(0.,30.,-10.5));
#1952=CARTESIAN_POINT('',(3.06161699786838E-16,32.5,-10.5));
#1953=CARTESIAN_POINT('Origin',(0.,30.,10.5));
#1954=CARTESIAN_POINT('',(-4.9999292297062,29.9733974066101,10.5));
#1955=CARTESIAN_POINT('Origin',(0.,-18.,-10.5));
#1956=CARTESIAN_POINT('',(0.,-15.5,-5.6));
#1957=CARTESIAN_POINT('Origin',(0.,-18.,-5.6));
#1958=CARTESIAN_POINT('',(3.06161699786838E-16,-15.5,-10.5));
#1959=CARTESIAN_POINT('Origin',(0.,-18.,-10.5));
#1960=CARTESIAN_POINT('',(3.06161699786838E-16,-15.5,5.6));
#1961=CARTESIAN_POINT('',(3.06161699786838E-16,-15.5,-10.5));
#1962=CARTESIAN_POINT('Origin',(0.,-18.,5.6));
#1963=CARTESIAN_POINT('Origin',(0.507349316992367,3.48669607601843,-5.6));
#1964=CARTESIAN_POINT('Origin',(-4.99992920174877,29.9733921520414,4.6));
#1965=CARTESIAN_POINT('',(-4.90991409860863,13.0551489301036,-10.5));
#1966=CARTESIAN_POINT('Origin',(-1.07321559047098E-14,14.,-10.5));
#1967=CARTESIAN_POINT('Origin',(-4.99992920174877,29.9733921520414,-10.5));
#1968=CARTESIAN_POINT('',(-4.90991409860863,13.0551489301036,-10.5));
#1969=CARTESIAN_POINT('Origin',(-1.07321559047098E-14,14.,-10.5));
#1970=CARTESIAN_POINT('Origin',(0.507349316992367,3.48669607601843,5.6));
#1971=CARTESIAN_POINT('Origin',(0.,30.,-10.5));
#1972=CARTESIAN_POINT('',(3.06161699786838E-16,32.5,-10.5));
#1973=CARTESIAN_POINT('Origin',(0.,30.,10.5));
#1974=CARTESIAN_POINT('Origin',(10.2732861980629,68.6590324998193,10.5));
#1975=CARTESIAN_POINT('Origin',(10.2732861980629,68.6590324998193,5.1));
#1976=CARTESIAN_POINT('Origin',(10.2732861980629,68.6590324998193,-10.5));
#1977=CARTESIAN_POINT('',(9.83916575389561,71.1210518823498,5.1));
#1978=CARTESIAN_POINT('',(9.83916575389561,71.1210518823498,-10.5));
#1979=CARTESIAN_POINT('Origin',(10.2732861980629,68.6590324998193,5.1));
#1980=CARTESIAN_POINT('Origin',(9.73783994468429,59.5100520529665,-37.8756));
#1981=CARTESIAN_POINT('',(9.16426350833237,60.3292040972587,5.1));
#1982=CARTESIAN_POINT('',(9.16426350833237,60.3292040972587,4.6));
#1983=CARTESIAN_POINT('Origin',(9.73783994468429,59.5100520529665,5.1));
#1984=CARTESIAN_POINT('Origin',(4.55863435056691,57.1043078427952,-5.1));
#1985=CARTESIAN_POINT('',(4.87216477621645,57.3238442102902,5.1));
#1986=CARTESIAN_POINT('',(4.87216477621645,57.3238442102902,5.1));
#1987=CARTESIAN_POINT('',(4.87216477621645,57.3238442102902,5.1));
#1988=CARTESIAN_POINT('Origin',(8.23579826520052,12.0688767733553,5.1));
#1989=CARTESIAN_POINT('Origin',(5.44574121256739,56.5046921659978,5.1));
#1990=CARTESIAN_POINT('Origin',(5.44574121256739,56.5046921659978,37.8756));
#1991=CARTESIAN_POINT('Origin',(5.44574121256739,56.5046921659978,37.8756));
#1992=CARTESIAN_POINT('',(4.87216477621645,57.3238442102902,-5.1));
#1993=CARTESIAN_POINT('',(4.87216477621645,57.3238442102902,-4.6));
#1994=CARTESIAN_POINT('Origin',(5.44574121256739,56.5046921659978,-5.1));
#1995=CARTESIAN_POINT('Origin',(9.73783994468429,59.5100520529665,-37.8756));
#1996=CARTESIAN_POINT('',(9.16426350833237,60.3292040972587,-5.1));
#1997=CARTESIAN_POINT('',(9.16426350833237,60.3292040972587,-5.1));
#1998=CARTESIAN_POINT('Origin',(9.73783994468429,59.5100520529665,-5.1));
#1999=CARTESIAN_POINT('Origin',(4.55863435056691,57.1043078427952,-5.1));
#2000=CARTESIAN_POINT('',(4.87216477621645,57.3238442102902,-5.1));
#2001=CARTESIAN_POINT('Origin',(10.2732861980629,68.6590324998193,-10.5));
#2002=CARTESIAN_POINT('',(9.83916575389561,71.1210518823498,-5.1));
#2003=CARTESIAN_POINT('Origin',(10.2732861980629,68.6590324998193,-5.1));
#2004=CARTESIAN_POINT('',(9.83916575389561,71.1210518823498,-10.5));
#2005=CARTESIAN_POINT('Origin',(8.23579826520052,12.0688767733553,-5.1));
#2006=CARTESIAN_POINT('Origin',(10.2732861980629,68.6590324998193,-5.1));
#2007=CARTESIAN_POINT('Origin',(10.2732861980629,68.6590324998193,10.5));
#2008=UNCERTAINTY_MEASURE_WITH_UNIT(LENGTH_MEASURE(0.01),#2012,
'DISTANCE_ACCURACY_VALUE',
'Maximum model space distance between geometric entities at asserted c
onnectivities');
#2009=UNCERTAINTY_MEASURE_WITH_UNIT(LENGTH_MEASURE(0.01),#2012,
'DISTANCE_ACCURACY_VALUE',
'Maximum model space distance between geometric entities at asserted c
onnectivities');
#2010=(
GEOMETRIC_REPRESENTATION_CONTEXT(3)
GLOBAL_UNCERTAINTY_ASSIGNED_CONTEXT((#2008))
GLOBAL_UNIT_ASSIGNED_CONTEXT((#2012,#2014,#2015))
REPRESENTATION_CONTEXT('','3D')
);
#2011=(
GEOMETRIC_REPRESENTATION_CONTEXT(3)
GLOBAL_UNCERTAINTY_ASSIGNED_CONTEXT((#2009))
GLOBAL_UNIT_ASSIGNED_CONTEXT((#2012,#2014,#2015))
REPRESENTATION_CONTEXT('','3D')
);
#2012=(
LENGTH_UNIT()
NAMED_UNIT(*)
SI_UNIT(.MILLI.,.METRE.)
);
#2013=(
LENGTH_UNIT()
NAMED_UNIT(*)
SI_UNIT($,.METRE.)
);
#2014=(
NAMED_UNIT(*)
PLANE_ANGLE_UNIT()
SI_UNIT($,.RADIAN.)
);
#2015=(
NAMED_UNIT(*)
SI_UNIT($,.STERADIAN.)
SOLID_ANGLE_UNIT()
);
#2016=SHAPE_DEFINITION_REPRESENTATION(#2017,#2018);
#2017=PRODUCT_DEFINITION_SHAPE('',$,#2020);
#2018=SHAPE_REPRESENTATION('',(#1148),#2010);
#2019=PRODUCT_DEFINITION_CONTEXT('part definition',#2024,'design');
#2020=PRODUCT_DEFINITION('POLO-0X29_BIELLETTE1_350-400_CFG3',
'POLO-0X29_BIELLETTE1_350-400_CFG3 v4',#2021,#2019);
#2021=PRODUCT_DEFINITION_FORMATION('',$,#2026);
#2022=PRODUCT_RELATED_PRODUCT_CATEGORY(
'POLO-0X29_BIELLETTE1_350-400_CFG3 v4',
'POLO-0X29_BIELLETTE1_350-400_CFG3 v4',(#2026));
#2023=APPLICATION_PROTOCOL_DEFINITION('international standard',
'automotive_design',2009,#2024);
#2024=APPLICATION_CONTEXT(
'Core Data for Automotive Mechanical Design Process');
#2025=PRODUCT_CONTEXT('part definition',#2024,'mechanical');
#2026=PRODUCT('POLO-0X29_BIELLETTE1_350-400_CFG3',
'POLO-0X29_BIELLETTE1_350-400_CFG3 v4',$,(#2025));
#2027=PRESENTATION_STYLE_ASSIGNMENT((#2028));
#2028=SURFACE_STYLE_USAGE(.BOTH.,#2029);
#2029=SURFACE_SIDE_STYLE('',(#2030));
#2030=SURFACE_STYLE_FILL_AREA(#2031);
#2031=FILL_AREA_STYLE('Acier - Satin\X\E9',(#2032));
#2032=FILL_AREA_STYLE_COLOUR('Acier - Satin\X\E9',#2033);
#2033=COLOUR_RGB('Acier - Satin\X\E9',0.627450980392157,0.627450980392157,
0.627450980392157);
ENDSEC;
END-ISO-10303-21;
