ISO-10303-21;
HEADER;
/* Generated by software containing ST-Developer
 * from STEP Tools, Inc. (www.steptools.com) 
 */

FILE_DESCRIPTION(
/* description */ (''),
/* implementation_level */ '2;1');

FILE_NAME(
/* name */ 'POLO-0X29_BIELLETTE1_350-400_CFG2 v7.step',
/* time_stamp */ '2025-05-07T17:35:14+02:00',
/* author */ (''),
/* organization */ (''),
/* preprocessor_version */ 'ST-DEVELOPER v20.1',
/* originating_system */ 'Autodesk Translation Framework v14.4.0.0',
/* authorisation */ '');

FILE_SCHEMA (('AUTOMOTIVE_DESIGN { 1 0 10303 214 3 1 1 }'));
ENDSEC;

DATA;
#10=MECHANICAL_DESIGN_GEOMETRIC_PRESENTATION_REPRESENTATION('',(#13,#14,
#15,#16,#17,#18,#19),#2045);
#11=SHAPE_REPRESENTATION_RELATIONSHIP('SRR','None',#2052,#12);
#12=ADVANCED_BREP_SHAPE_REPRESENTATION('',(#20,#21,#22,#23,#24,#25,#26),
#2044);
#13=STYLED_ITEM('',(#2061),#20);
#14=STYLED_ITEM('',(#2061),#21);
#15=STYLED_ITEM('',(#2061),#22);
#16=STYLED_ITEM('',(#2061),#23);
#17=STYLED_ITEM('',(#2061),#24);
#18=STYLED_ITEM('',(#2061),#25);
#19=STYLED_ITEM('',(#2061),#26);
#20=MANIFOLD_SOLID_BREP('Corps1',#1167);
#21=MANIFOLD_SOLID_BREP('Corps10',#1168);
#22=MANIFOLD_SOLID_BREP('Corps11',#1169);
#23=MANIFOLD_SOLID_BREP('Corps12',#1170);
#24=MANIFOLD_SOLID_BREP('Corps13',#1171);
#25=MANIFOLD_SOLID_BREP('Corps14',#1172);
#26=MANIFOLD_SOLID_BREP('Corps15',#1173);
#27=FACE_BOUND('',#146,.T.);
#28=FACE_BOUND('',#149,.T.);
#29=FACE_BOUND('',#156,.T.);
#30=FACE_BOUND('',#161,.T.);
#31=FACE_BOUND('',#171,.T.);
#32=FACE_BOUND('',#174,.T.);
#33=FACE_BOUND('',#179,.T.);
#34=FACE_BOUND('',#185,.T.);
#35=FACE_BOUND('',#199,.T.);
#36=FACE_BOUND('',#205,.T.);
#37=FACE_BOUND('',#207,.T.);
#38=FACE_BOUND('',#211,.T.);
#39=PLANE('',#1190);
#40=PLANE('',#1194);
#41=PLANE('',#1204);
#42=PLANE('',#1209);
#43=PLANE('',#1217);
#44=PLANE('',#1218);
#45=PLANE('',#1219);
#46=PLANE('',#1220);
#47=PLANE('',#1235);
#48=PLANE('',#1239);
#49=PLANE('',#1243);
#50=PLANE('',#1244);
#51=PLANE('',#1251);
#52=PLANE('',#1256);
#53=PLANE('',#1262);
#54=PLANE('',#1273);
#55=PLANE('',#1288);
#56=PLANE('',#1295);
#57=PLANE('',#1297);
#58=PLANE('',#1299);
#59=PLANE('',#1300);
#60=PLANE('',#1301);
#61=PLANE('',#1302);
#62=PLANE('',#1303);
#63=PLANE('',#1304);
#64=PLANE('',#1305);
#65=PLANE('',#1312);
#66=PLANE('',#1313);
#67=PLANE('',#1314);
#68=PLANE('',#1318);
#69=PLANE('',#1319);
#70=PLANE('',#1320);
#71=PLANE('',#1321);
#72=PLANE('',#1322);
#73=PLANE('',#1326);
#74=PLANE('',#1327);
#75=PLANE('',#1328);
#76=FACE_OUTER_BOUND('',#144,.T.);
#77=FACE_OUTER_BOUND('',#145,.T.);
#78=FACE_OUTER_BOUND('',#147,.T.);
#79=FACE_OUTER_BOUND('',#148,.T.);
#80=FACE_OUTER_BOUND('',#150,.T.);
#81=FACE_OUTER_BOUND('',#151,.T.);
#82=FACE_OUTER_BOUND('',#152,.T.);
#83=FACE_OUTER_BOUND('',#153,.T.);
#84=FACE_OUTER_BOUND('',#154,.T.);
#85=FACE_OUTER_BOUND('',#155,.T.);
#86=FACE_OUTER_BOUND('',#157,.T.);
#87=FACE_OUTER_BOUND('',#158,.T.);
#88=FACE_OUTER_BOUND('',#159,.T.);
#89=FACE_OUTER_BOUND('',#160,.T.);
#90=FACE_OUTER_BOUND('',#162,.T.);
#91=FACE_OUTER_BOUND('',#163,.T.);
#92=FACE_OUTER_BOUND('',#164,.T.);
#93=FACE_OUTER_BOUND('',#165,.T.);
#94=FACE_OUTER_BOUND('',#166,.T.);
#95=FACE_OUTER_BOUND('',#167,.T.);
#96=FACE_OUTER_BOUND('',#168,.T.);
#97=FACE_OUTER_BOUND('',#169,.T.);
#98=FACE_OUTER_BOUND('',#170,.T.);
#99=FACE_OUTER_BOUND('',#172,.T.);
#100=FACE_OUTER_BOUND('',#173,.T.);
#101=FACE_OUTER_BOUND('',#175,.T.);
#102=FACE_OUTER_BOUND('',#176,.T.);
#103=FACE_OUTER_BOUND('',#177,.T.);
#104=FACE_OUTER_BOUND('',#178,.T.);
#105=FACE_OUTER_BOUND('',#180,.T.);
#106=FACE_OUTER_BOUND('',#181,.T.);
#107=FACE_OUTER_BOUND('',#182,.T.);
#108=FACE_OUTER_BOUND('',#183,.T.);
#109=FACE_OUTER_BOUND('',#184,.T.);
#110=FACE_OUTER_BOUND('',#186,.T.);
#111=FACE_OUTER_BOUND('',#187,.T.);
#112=FACE_OUTER_BOUND('',#188,.T.);
#113=FACE_OUTER_BOUND('',#189,.T.);
#114=FACE_OUTER_BOUND('',#190,.T.);
#115=FACE_OUTER_BOUND('',#191,.T.);
#116=FACE_OUTER_BOUND('',#192,.T.);
#117=FACE_OUTER_BOUND('',#193,.T.);
#118=FACE_OUTER_BOUND('',#194,.T.);
#119=FACE_OUTER_BOUND('',#195,.T.);
#120=FACE_OUTER_BOUND('',#196,.T.);
#121=FACE_OUTER_BOUND('',#197,.T.);
#122=FACE_OUTER_BOUND('',#198,.T.);
#123=FACE_OUTER_BOUND('',#200,.T.);
#124=FACE_OUTER_BOUND('',#201,.T.);
#125=FACE_OUTER_BOUND('',#202,.T.);
#126=FACE_OUTER_BOUND('',#203,.T.);
#127=FACE_OUTER_BOUND('',#204,.T.);
#128=FACE_OUTER_BOUND('',#206,.T.);
#129=FACE_OUTER_BOUND('',#208,.T.);
#130=FACE_OUTER_BOUND('',#209,.T.);
#131=FACE_OUTER_BOUND('',#210,.T.);
#132=FACE_OUTER_BOUND('',#212,.T.);
#133=FACE_OUTER_BOUND('',#213,.T.);
#134=FACE_OUTER_BOUND('',#214,.T.);
#135=FACE_OUTER_BOUND('',#215,.T.);
#136=FACE_OUTER_BOUND('',#216,.T.);
#137=FACE_OUTER_BOUND('',#217,.T.);
#138=FACE_OUTER_BOUND('',#218,.T.);
#139=FACE_OUTER_BOUND('',#219,.T.);
#140=FACE_OUTER_BOUND('',#220,.T.);
#141=FACE_OUTER_BOUND('',#221,.T.);
#142=FACE_OUTER_BOUND('',#222,.T.);
#143=FACE_OUTER_BOUND('',#223,.T.);
#144=EDGE_LOOP('',(#744,#745,#746,#747));
#145=EDGE_LOOP('',(#748));
#146=EDGE_LOOP('',(#749));
#147=EDGE_LOOP('',(#750,#751,#752,#753));
#148=EDGE_LOOP('',(#754));
#149=EDGE_LOOP('',(#755));
#150=EDGE_LOOP('',(#756,#757,#758,#759));
#151=EDGE_LOOP('',(#760,#761,#762,#763));
#152=EDGE_LOOP('',(#764,#765,#766,#767));
#153=EDGE_LOOP('',(#768,#769,#770,#771));
#154=EDGE_LOOP('',(#772,#773,#774,#775,#776,#777));
#155=EDGE_LOOP('',(#778,#779,#780,#781,#782,#783));
#156=EDGE_LOOP('',(#784));
#157=EDGE_LOOP('',(#785,#786,#787,#788,#789,#790));
#158=EDGE_LOOP('',(#791,#792,#793,#794));
#159=EDGE_LOOP('',(#795,#796,#797,#798,#799,#800));
#160=EDGE_LOOP('',(#801,#802,#803,#804));
#161=EDGE_LOOP('',(#805));
#162=EDGE_LOOP('',(#806,#807,#808,#809));
#163=EDGE_LOOP('',(#810,#811,#812,#813,#814,#815));
#164=EDGE_LOOP('',(#816,#817,#818,#819));
#165=EDGE_LOOP('',(#820,#821,#822,#823,#824,#825));
#166=EDGE_LOOP('',(#826,#827,#828,#829,#830,#831));
#167=EDGE_LOOP('',(#832,#833,#834,#835));
#168=EDGE_LOOP('',(#836,#837,#838,#839));
#169=EDGE_LOOP('',(#840,#841,#842,#843));
#170=EDGE_LOOP('',(#844,#845,#846,#847,#848,#849));
#171=EDGE_LOOP('',(#850));
#172=EDGE_LOOP('',(#851,#852,#853,#854));
#173=EDGE_LOOP('',(#855,#856,#857,#858));
#174=EDGE_LOOP('',(#859));
#175=EDGE_LOOP('',(#860,#861,#862,#863));
#176=EDGE_LOOP('',(#864,#865,#866,#867));
#177=EDGE_LOOP('',(#868,#869,#870,#871));
#178=EDGE_LOOP('',(#872,#873,#874,#875,#876,#877));
#179=EDGE_LOOP('',(#878));
#180=EDGE_LOOP('',(#879,#880,#881,#882,#883,#884,#885,#886,#887,#888));
#181=EDGE_LOOP('',(#889,#890,#891,#892,#893,#894,#895,#896,#897,#898));
#182=EDGE_LOOP('',(#899,#900,#901,#902));
#183=EDGE_LOOP('',(#903,#904,#905,#906));
#184=EDGE_LOOP('',(#907,#908,#909,#910,#911,#912));
#185=EDGE_LOOP('',(#913));
#186=EDGE_LOOP('',(#914,#915,#916,#917));
#187=EDGE_LOOP('',(#918,#919,#920,#921));
#188=EDGE_LOOP('',(#922,#923,#924,#925,#926,#927,#928,#929,#930,#931,#932,
#933));
#189=EDGE_LOOP('',(#934,#935,#936,#937));
#190=EDGE_LOOP('',(#938,#939,#940,#941));
#191=EDGE_LOOP('',(#942,#943,#944,#945));
#192=EDGE_LOOP('',(#946,#947,#948,#949,#950,#951,#952,#953,#954,#955,#956,
#957));
#193=EDGE_LOOP('',(#958,#959,#960,#961));
#194=EDGE_LOOP('',(#962,#963,#964,#965));
#195=EDGE_LOOP('',(#966,#967,#968,#969));
#196=EDGE_LOOP('',(#970,#971,#972,#973));
#197=EDGE_LOOP('',(#974,#975,#976,#977));
#198=EDGE_LOOP('',(#978,#979,#980,#981,#982,#983));
#199=EDGE_LOOP('',(#984));
#200=EDGE_LOOP('',(#985,#986,#987,#988));
#201=EDGE_LOOP('',(#989,#990,#991,#992));
#202=EDGE_LOOP('',(#993,#994,#995,#996));
#203=EDGE_LOOP('',(#997,#998,#999,#1000));
#204=EDGE_LOOP('',(#1001,#1002,#1003,#1004,#1005,#1006));
#205=EDGE_LOOP('',(#1007));
#206=EDGE_LOOP('',(#1008));
#207=EDGE_LOOP('',(#1009));
#208=EDGE_LOOP('',(#1010,#1011,#1012,#1013));
#209=EDGE_LOOP('',(#1014,#1015,#1016,#1017));
#210=EDGE_LOOP('',(#1018));
#211=EDGE_LOOP('',(#1019));
#212=EDGE_LOOP('',(#1020,#1021,#1022,#1023));
#213=EDGE_LOOP('',(#1024,#1025,#1026,#1027));
#214=EDGE_LOOP('',(#1028,#1029,#1030,#1031));
#215=EDGE_LOOP('',(#1032,#1033,#1034,#1035));
#216=EDGE_LOOP('',(#1036,#1037,#1038,#1039));
#217=EDGE_LOOP('',(#1040,#1041,#1042,#1043));
#218=EDGE_LOOP('',(#1044,#1045,#1046,#1047));
#219=EDGE_LOOP('',(#1048,#1049,#1050,#1051));
#220=EDGE_LOOP('',(#1052,#1053,#1054,#1055));
#221=EDGE_LOOP('',(#1056,#1057,#1058,#1059));
#222=EDGE_LOOP('',(#1060,#1061,#1062,#1063));
#223=EDGE_LOOP('',(#1064,#1065,#1066,#1067));
#224=LINE('',#1708,#312);
#225=LINE('',#1716,#313);
#226=LINE('',#1723,#314);
#227=LINE('',#1726,#315);
#228=LINE('',#1731,#316);
#229=LINE('',#1736,#317);
#230=LINE('',#1740,#318);
#231=LINE('',#1745,#319);
#232=LINE('',#1746,#320);
#233=LINE('',#1747,#321);
#234=LINE('',#1753,#322);
#235=LINE('',#1761,#323);
#236=LINE('',#1765,#324);
#237=LINE('',#1770,#325);
#238=LINE('',#1772,#326);
#239=LINE('',#1777,#327);
#240=LINE('',#1783,#328);
#241=LINE('',#1789,#329);
#242=LINE('',#1792,#330);
#243=LINE('',#1797,#331);
#244=LINE('',#1800,#332);
#245=LINE('',#1803,#333);
#246=LINE('',#1805,#334);
#247=LINE('',#1809,#335);
#248=LINE('',#1813,#336);
#249=LINE('',#1816,#337);
#250=LINE('',#1821,#338);
#251=LINE('',#1828,#339);
#252=LINE('',#1833,#340);
#253=LINE('',#1837,#341);
#254=LINE('',#1844,#342);
#255=LINE('',#1847,#343);
#256=LINE('',#1850,#344);
#257=LINE('',#1857,#345);
#258=LINE('',#1862,#346);
#259=LINE('',#1868,#347);
#260=LINE('',#1872,#348);
#261=LINE('',#1877,#349);
#262=LINE('',#1880,#350);
#263=LINE('',#1886,#351);
#264=LINE('',#1890,#352);
#265=LINE('',#1895,#353);
#266=LINE('',#1901,#354);
#267=LINE('',#1904,#355);
#268=LINE('',#1909,#356);
#269=LINE('',#1910,#357);
#270=LINE('',#1919,#358);
#271=LINE('',#1926,#359);
#272=LINE('',#1930,#360);
#273=LINE('',#1933,#361);
#274=LINE('',#1936,#362);
#275=LINE('',#1937,#363);
#276=LINE('',#1938,#364);
#277=LINE('',#1942,#365);
#278=LINE('',#1946,#366);
#279=LINE('',#1947,#367);
#280=LINE('',#1951,#368);
#281=LINE('',#1954,#369);
#282=LINE('',#1955,#370);
#283=LINE('',#1957,#371);
#284=LINE('',#1960,#372);
#285=LINE('',#1962,#373);
#286=LINE('',#1964,#374);
#287=LINE('',#1966,#375);
#288=LINE('',#1972,#376);
#289=LINE('',#1974,#377);
#290=LINE('',#1984,#378);
#291=LINE('',#1988,#379);
#292=LINE('',#1993,#380);
#293=LINE('',#1995,#381);
#294=LINE('',#1997,#382);
#295=LINE('',#1998,#383);
#296=LINE('',#2001,#384);
#297=LINE('',#2004,#385);
#298=LINE('',#2007,#386);
#299=LINE('',#2010,#387);
#300=LINE('',#2012,#388);
#301=LINE('',#2013,#389);
#302=LINE('',#2019,#390);
#303=LINE('',#2021,#391);
#304=LINE('',#2023,#392);
#305=LINE('',#2024,#393);
#306=LINE('',#2027,#394);
#307=LINE('',#2030,#395);
#308=LINE('',#2033,#396);
#309=LINE('',#2036,#397);
#310=LINE('',#2038,#398);
#311=LINE('',#2039,#399);
#312=VECTOR('',#1335,2.5);
#313=VECTOR('',#1346,5.);
#314=VECTOR('',#1353,5.4);
#315=VECTOR('',#1356,5.4);
#316=VECTOR('',#1361,2.5);
#317=VECTOR('',#1366,0.5);
#318=VECTOR('',#1369,0.5);
#319=VECTOR('',#1374,0.5);
#320=VECTOR('',#1375,5.23968506462324);
#321=VECTOR('',#1376,5.23968506462324);
#322=VECTOR('',#1383,10.);
#323=VECTOR('',#1394,0.5);
#324=VECTOR('',#1397,10.);
#325=VECTOR('',#1406,10.);
#326=VECTOR('',#1409,10.);
#327=VECTOR('',#1414,10.);
#328=VECTOR('',#1419,5.23968506462324);
#329=VECTOR('',#1426,0.5);
#330=VECTOR('',#1429,0.5);
#331=VECTOR('',#1434,5.4);
#332=VECTOR('',#1437,10.);
#333=VECTOR('',#1440,0.5);
#334=VECTOR('',#1441,10.);
#335=VECTOR('',#1444,5.4);
#336=VECTOR('',#1449,0.5);
#337=VECTOR('',#1454,5.23968506462324);
#338=VECTOR('',#1459,2.5);
#339=VECTOR('',#1472,10.);
#340=VECTOR('',#1477,10.);
#341=VECTOR('',#1480,10.);
#342=VECTOR('',#1487,10.);
#343=VECTOR('',#1490,10.);
#344=VECTOR('',#1493,10.);
#345=VECTOR('',#1500,10.);
#346=VECTOR('',#1505,10.);
#347=VECTOR('',#1510,4.17045582787975);
#348=VECTOR('',#1513,2.78409837330513);
#349=VECTOR('',#1518,10.);
#350=VECTOR('',#1521,10.);
#351=VECTOR('',#1526,2.78409837330513);
#352=VECTOR('',#1529,4.17045582787975);
#353=VECTOR('',#1534,10.);
#354=VECTOR('',#1539,4.9);
#355=VECTOR('',#1542,4.9);
#356=VECTOR('',#1547,4.9);
#357=VECTOR('',#1548,4.9);
#358=VECTOR('',#1557,4.30562646381897);
#359=VECTOR('',#1566,2.5);
#360=VECTOR('',#1571,2.5);
#361=VECTOR('',#1574,11.2);
#362=VECTOR('',#1577,10.);
#363=VECTOR('',#1578,9.2);
#364=VECTOR('',#1579,10.);
#365=VECTOR('',#1584,11.2);
#366=VECTOR('',#1589,4.30562646381897);
#367=VECTOR('',#1590,11.2);
#368=VECTOR('',#1595,11.2);
#369=VECTOR('',#1600,10.);
#370=VECTOR('',#1601,9.2);
#371=VECTOR('',#1602,10.);
#372=VECTOR('',#1607,9.2);
#373=VECTOR('',#1610,9.2);
#374=VECTOR('',#1613,9.2);
#375=VECTOR('',#1616,9.2);
#376=VECTOR('',#1627,10.);
#377=VECTOR('',#1630,10.);
#378=VECTOR('',#1643,2.5);
#379=VECTOR('',#1648,5.);
#380=VECTOR('',#1653,10.);
#381=VECTOR('',#1654,10.);
#382=VECTOR('',#1655,10.);
#383=VECTOR('',#1656,10.);
#384=VECTOR('',#1659,10.);
#385=VECTOR('',#1662,10.);
#386=VECTOR('',#1665,10.);
#387=VECTOR('',#1668,10.);
#388=VECTOR('',#1671,10.);
#389=VECTOR('',#1672,10.);
#390=VECTOR('',#1679,10.);
#391=VECTOR('',#1680,10.);
#392=VECTOR('',#1681,10.);
#393=VECTOR('',#1682,10.);
#394=VECTOR('',#1685,10.);
#395=VECTOR('',#1688,10.);
#396=VECTOR('',#1691,10.);
#397=VECTOR('',#1694,10.);
#398=VECTOR('',#1697,10.);
#399=VECTOR('',#1698,10.);
#400=CIRCLE('',#1188,2.5);
#401=CIRCLE('',#1189,2.5);
#402=CIRCLE('',#1191,5.00000000000729);
#403=CIRCLE('',#1193,5.00000000000729);
#404=CIRCLE('',#1196,5.);
#405=CIRCLE('',#1197,5.);
#406=CIRCLE('',#1199,2.5);
#407=CIRCLE('',#1200,2.5);
#408=CIRCLE('',#1202,1.);
#409=CIRCLE('',#1203,1.);
#410=CIRCLE('',#1206,35.5);
#411=CIRCLE('',#1207,35.5);
#412=CIRCLE('',#1208,35.5);
#413=CIRCLE('',#1210,35.5);
#414=CIRCLE('',#1211,1.);
#415=CIRCLE('',#1213,35.5);
#416=CIRCLE('',#1214,35.5);
#417=CIRCLE('',#1216,1.);
#418=CIRCLE('',#1221,35.5);
#419=CIRCLE('',#1222,1.);
#420=CIRCLE('',#1223,1.);
#421=CIRCLE('',#1224,35.5);
#422=CIRCLE('',#1226,1.);
#423=CIRCLE('',#1228,35.5);
#424=CIRCLE('',#1229,35.5);
#425=CIRCLE('',#1231,35.5);
#426=CIRCLE('',#1232,35.5);
#427=CIRCLE('',#1234,1.);
#428=CIRCLE('',#1237,2.5);
#429=CIRCLE('',#1238,2.5);
#430=CIRCLE('',#1240,5.);
#431=CIRCLE('',#1242,5.);
#432=CIRCLE('',#1246,5.00000000000729);
#433=CIRCLE('',#1247,5.00000000000729);
#434=CIRCLE('',#1249,5.00000000000729);
#435=CIRCLE('',#1250,5.00000000000729);
#436=CIRCLE('',#1252,35.);
#437=CIRCLE('',#1253,5.);
#438=CIRCLE('',#1254,70.);
#439=CIRCLE('',#1255,2.5);
#440=CIRCLE('',#1257,70.);
#441=CIRCLE('',#1258,1.);
#442=CIRCLE('',#1259,1.);
#443=CIRCLE('',#1260,2.);
#444=CIRCLE('',#1261,35.);
#445=CIRCLE('',#1263,35.);
#446=CIRCLE('',#1264,2.);
#447=CIRCLE('',#1265,1.);
#448=CIRCLE('',#1266,1.);
#449=CIRCLE('',#1267,70.);
#450=CIRCLE('',#1269,5.);
#451=CIRCLE('',#1270,5.);
#452=CIRCLE('',#1272,5.);
#453=CIRCLE('',#1274,35.);
#454=CIRCLE('',#1275,70.);
#455=CIRCLE('',#1276,1.);
#456=CIRCLE('',#1277,1.);
#457=CIRCLE('',#1278,2.5);
#458=CIRCLE('',#1280,2.5);
#459=CIRCLE('',#1282,2.5);
#460=CIRCLE('',#1284,70.);
#461=CIRCLE('',#1285,70.);
#462=CIRCLE('',#1287,1.);
#463=CIRCLE('',#1290,1.);
#464=CIRCLE('',#1292,35.);
#465=CIRCLE('',#1293,35.);
#466=CIRCLE('',#1306,5.00000000000729);
#467=CIRCLE('',#1307,2.5);
#468=CIRCLE('',#1309,2.5);
#469=CIRCLE('',#1311,5.00000000000455);
#470=CIRCLE('',#1315,5.0000000000073);
#471=CIRCLE('',#1317,5.0000000000073);
#472=CIRCLE('',#1323,5.0000000000073);
#473=CIRCLE('',#1325,5.0000000000073);
#474=VERTEX_POINT('',#1705);
#475=VERTEX_POINT('',#1707);
#476=VERTEX_POINT('',#1711);
#477=VERTEX_POINT('',#1714);
#478=VERTEX_POINT('',#1719);
#479=VERTEX_POINT('',#1720);
#480=VERTEX_POINT('',#1722);
#481=VERTEX_POINT('',#1724);
#482=VERTEX_POINT('',#1728);
#483=VERTEX_POINT('',#1730);
#484=VERTEX_POINT('',#1734);
#485=VERTEX_POINT('',#1735);
#486=VERTEX_POINT('',#1737);
#487=VERTEX_POINT('',#1739);
#488=VERTEX_POINT('',#1743);
#489=VERTEX_POINT('',#1744);
#490=VERTEX_POINT('',#1750);
#491=VERTEX_POINT('',#1752);
#492=VERTEX_POINT('',#1756);
#493=VERTEX_POINT('',#1760);
#494=VERTEX_POINT('',#1762);
#495=VERTEX_POINT('',#1764);
#496=VERTEX_POINT('',#1775);
#497=VERTEX_POINT('',#1776);
#498=VERTEX_POINT('',#1778);
#499=VERTEX_POINT('',#1780);
#500=VERTEX_POINT('',#1782);
#501=VERTEX_POINT('',#1784);
#502=VERTEX_POINT('',#1788);
#503=VERTEX_POINT('',#1790);
#504=VERTEX_POINT('',#1794);
#505=VERTEX_POINT('',#1796);
#506=VERTEX_POINT('',#1798);
#507=VERTEX_POINT('',#1802);
#508=VERTEX_POINT('',#1804);
#509=VERTEX_POINT('',#1806);
#510=VERTEX_POINT('',#1808);
#511=VERTEX_POINT('',#1812);
#512=VERTEX_POINT('',#1818);
#513=VERTEX_POINT('',#1820);
#514=VERTEX_POINT('',#1831);
#515=VERTEX_POINT('',#1832);
#516=VERTEX_POINT('',#1834);
#517=VERTEX_POINT('',#1836);
#518=VERTEX_POINT('',#1840);
#519=VERTEX_POINT('',#1841);
#520=VERTEX_POINT('',#1843);
#521=VERTEX_POINT('',#1845);
#522=VERTEX_POINT('',#1849);
#523=VERTEX_POINT('',#1851);
#524=VERTEX_POINT('',#1853);
#525=VERTEX_POINT('',#1855);
#526=VERTEX_POINT('',#1858);
#527=VERTEX_POINT('',#1861);
#528=VERTEX_POINT('',#1863);
#529=VERTEX_POINT('',#1865);
#530=VERTEX_POINT('',#1867);
#531=VERTEX_POINT('',#1869);
#532=VERTEX_POINT('',#1871);
#533=VERTEX_POINT('',#1873);
#534=VERTEX_POINT('',#1875);
#535=VERTEX_POINT('',#1879);
#536=VERTEX_POINT('',#1881);
#537=VERTEX_POINT('',#1883);
#538=VERTEX_POINT('',#1885);
#539=VERTEX_POINT('',#1887);
#540=VERTEX_POINT('',#1889);
#541=VERTEX_POINT('',#1891);
#542=VERTEX_POINT('',#1893);
#543=VERTEX_POINT('',#1897);
#544=VERTEX_POINT('',#1898);
#545=VERTEX_POINT('',#1900);
#546=VERTEX_POINT('',#1902);
#547=VERTEX_POINT('',#1906);
#548=VERTEX_POINT('',#1907);
#549=VERTEX_POINT('',#1912);
#550=VERTEX_POINT('',#1914);
#551=VERTEX_POINT('',#1916);
#552=VERTEX_POINT('',#1918);
#553=VERTEX_POINT('',#1921);
#554=VERTEX_POINT('',#1924);
#555=VERTEX_POINT('',#1928);
#556=VERTEX_POINT('',#1932);
#557=VERTEX_POINT('',#1934);
#558=VERTEX_POINT('',#1941);
#559=VERTEX_POINT('',#1945);
#560=VERTEX_POINT('',#1949);
#561=VERTEX_POINT('',#1956);
#562=VERTEX_POINT('',#1977);
#563=VERTEX_POINT('',#1979);
#564=VERTEX_POINT('',#1982);
#565=VERTEX_POINT('',#1986);
#566=VERTEX_POINT('',#1991);
#567=VERTEX_POINT('',#1992);
#568=VERTEX_POINT('',#1994);
#569=VERTEX_POINT('',#1996);
#570=VERTEX_POINT('',#2000);
#571=VERTEX_POINT('',#2002);
#572=VERTEX_POINT('',#2006);
#573=VERTEX_POINT('',#2008);
#574=VERTEX_POINT('',#2017);
#575=VERTEX_POINT('',#2018);
#576=VERTEX_POINT('',#2020);
#577=VERTEX_POINT('',#2022);
#578=VERTEX_POINT('',#2026);
#579=VERTEX_POINT('',#2028);
#580=VERTEX_POINT('',#2032);
#581=VERTEX_POINT('',#2034);
#582=EDGE_CURVE('',#474,#474,#400,.T.);
#583=EDGE_CURVE('',#474,#475,#224,.T.);
#584=EDGE_CURVE('',#475,#475,#401,.T.);
#585=EDGE_CURVE('',#476,#476,#402,.T.);
#586=EDGE_CURVE('',#477,#477,#403,.T.);
#587=EDGE_CURVE('',#477,#476,#225,.T.);
#588=EDGE_CURVE('',#478,#479,#404,.T.);
#589=EDGE_CURVE('',#479,#480,#226,.T.);
#590=EDGE_CURVE('',#481,#480,#405,.T.);
#591=EDGE_CURVE('',#478,#481,#227,.T.);
#592=EDGE_CURVE('',#482,#482,#406,.T.);
#593=EDGE_CURVE('',#482,#483,#228,.T.);
#594=EDGE_CURVE('',#483,#483,#407,.T.);
#595=EDGE_CURVE('',#484,#485,#229,.T.);
#596=EDGE_CURVE('',#486,#485,#408,.T.);
#597=EDGE_CURVE('',#487,#486,#230,.T.);
#598=EDGE_CURVE('',#484,#487,#409,.T.);
#599=EDGE_CURVE('',#488,#489,#231,.T.);
#600=EDGE_CURVE('',#488,#485,#232,.T.);
#601=EDGE_CURVE('',#489,#484,#233,.T.);
#602=EDGE_CURVE('',#486,#478,#410,.T.);
#603=EDGE_CURVE('',#490,#481,#411,.T.);
#604=EDGE_CURVE('',#491,#490,#234,.T.);
#605=EDGE_CURVE('',#487,#491,#412,.T.);
#606=EDGE_CURVE('',#479,#492,#413,.T.);
#607=EDGE_CURVE('',#488,#492,#414,.T.);
#608=EDGE_CURVE('',#492,#493,#235,.T.);
#609=EDGE_CURVE('',#494,#493,#415,.T.);
#610=EDGE_CURVE('',#494,#495,#236,.T.);
#611=EDGE_CURVE('',#480,#495,#416,.T.);
#612=EDGE_CURVE('',#493,#489,#417,.T.);
#613=EDGE_CURVE('',#494,#491,#237,.T.);
#614=EDGE_CURVE('',#490,#495,#238,.T.);
#615=EDGE_CURVE('',#496,#497,#239,.T.);
#616=EDGE_CURVE('',#498,#496,#418,.T.);
#617=EDGE_CURVE('',#498,#499,#419,.T.);
#618=EDGE_CURVE('',#500,#499,#240,.T.);
#619=EDGE_CURVE('',#500,#501,#420,.T.);
#620=EDGE_CURVE('',#497,#501,#421,.T.);
#621=EDGE_CURVE('',#500,#502,#241,.T.);
#622=EDGE_CURVE('',#503,#502,#422,.T.);
#623=EDGE_CURVE('',#501,#503,#242,.T.);
#624=EDGE_CURVE('',#503,#504,#423,.T.);
#625=EDGE_CURVE('',#505,#504,#243,.T.);
#626=EDGE_CURVE('',#505,#506,#424,.T.);
#627=EDGE_CURVE('',#506,#497,#244,.T.);
#628=EDGE_CURVE('',#507,#498,#245,.T.);
#629=EDGE_CURVE('',#508,#496,#246,.T.);
#630=EDGE_CURVE('',#508,#509,#425,.T.);
#631=EDGE_CURVE('',#509,#510,#247,.T.);
#632=EDGE_CURVE('',#510,#507,#426,.T.);
#633=EDGE_CURVE('',#511,#499,#248,.T.);
#634=EDGE_CURVE('',#511,#507,#427,.T.);
#635=EDGE_CURVE('',#502,#511,#249,.T.);
#636=EDGE_CURVE('',#512,#512,#428,.T.);
#637=EDGE_CURVE('',#512,#513,#250,.T.);
#638=EDGE_CURVE('',#513,#513,#429,.T.);
#639=EDGE_CURVE('',#510,#504,#430,.T.);
#640=EDGE_CURVE('',#505,#509,#431,.T.);
#641=EDGE_CURVE('',#506,#508,#251,.T.);
#642=EDGE_CURVE('',#514,#515,#252,.T.);
#643=EDGE_CURVE('',#516,#515,#432,.T.);
#644=EDGE_CURVE('',#517,#516,#253,.T.);
#645=EDGE_CURVE('',#514,#517,#433,.T.);
#646=EDGE_CURVE('',#518,#519,#434,.T.);
#647=EDGE_CURVE('',#520,#518,#254,.T.);
#648=EDGE_CURVE('',#521,#520,#435,.T.);
#649=EDGE_CURVE('',#521,#519,#255,.T.);
#650=EDGE_CURVE('',#522,#517,#256,.T.);
#651=EDGE_CURVE('',#523,#522,#436,.T.);
#652=EDGE_CURVE('',#523,#524,#437,.T.);
#653=EDGE_CURVE('',#525,#524,#438,.T.);
#654=EDGE_CURVE('',#525,#514,#257,.T.);
#655=EDGE_CURVE('',#526,#526,#439,.T.);
#656=EDGE_CURVE('',#515,#527,#258,.T.);
#657=EDGE_CURVE('',#528,#527,#440,.T.);
#658=EDGE_CURVE('',#528,#529,#441,.T.);
#659=EDGE_CURVE('',#529,#530,#259,.T.);
#660=EDGE_CURVE('',#530,#531,#442,.T.);
#661=EDGE_CURVE('',#531,#532,#260,.T.);
#662=EDGE_CURVE('',#532,#533,#443,.T.);
#663=EDGE_CURVE('',#534,#533,#444,.T.);
#664=EDGE_CURVE('',#534,#516,#261,.T.);
#665=EDGE_CURVE('',#535,#520,#262,.T.);
#666=EDGE_CURVE('',#536,#535,#445,.T.);
#667=EDGE_CURVE('',#536,#537,#446,.T.);
#668=EDGE_CURVE('',#538,#537,#263,.T.);
#669=EDGE_CURVE('',#538,#539,#447,.T.);
#670=EDGE_CURVE('',#540,#539,#264,.T.);
#671=EDGE_CURVE('',#540,#541,#448,.T.);
#672=EDGE_CURVE('',#542,#541,#449,.T.);
#673=EDGE_CURVE('',#542,#521,#265,.T.);
#674=EDGE_CURVE('',#543,#544,#450,.T.);
#675=EDGE_CURVE('',#543,#545,#266,.T.);
#676=EDGE_CURVE('',#546,#545,#451,.T.);
#677=EDGE_CURVE('',#544,#546,#267,.T.);
#678=EDGE_CURVE('',#547,#548,#452,.T.);
#679=EDGE_CURVE('',#524,#547,#268,.T.);
#680=EDGE_CURVE('',#523,#548,#269,.T.);
#681=EDGE_CURVE('',#543,#549,#453,.T.);
#682=EDGE_CURVE('',#550,#544,#454,.T.);
#683=EDGE_CURVE('',#550,#551,#455,.T.);
#684=EDGE_CURVE('',#551,#552,#270,.T.);
#685=EDGE_CURVE('',#552,#549,#456,.T.);
#686=EDGE_CURVE('',#553,#553,#457,.T.);
#687=EDGE_CURVE('',#554,#554,#458,.T.);
#688=EDGE_CURVE('',#554,#553,#271,.T.);
#689=EDGE_CURVE('',#555,#555,#459,.T.);
#690=EDGE_CURVE('',#555,#526,#272,.T.);
#691=EDGE_CURVE('',#556,#550,#273,.T.);
#692=EDGE_CURVE('',#557,#546,#460,.T.);
#693=EDGE_CURVE('',#542,#557,#274,.T.);
#694=EDGE_CURVE('',#541,#528,#275,.T.);
#695=EDGE_CURVE('',#525,#527,#276,.T.);
#696=EDGE_CURVE('',#547,#556,#461,.T.);
#697=EDGE_CURVE('',#558,#551,#277,.T.);
#698=EDGE_CURVE('',#558,#556,#462,.T.);
#699=EDGE_CURVE('',#558,#559,#278,.T.);
#700=EDGE_CURVE('',#552,#559,#279,.T.);
#701=EDGE_CURVE('',#560,#559,#463,.T.);
#702=EDGE_CURVE('',#549,#560,#280,.T.);
#703=EDGE_CURVE('',#560,#548,#464,.T.);
#704=EDGE_CURVE('',#522,#534,#281,.T.);
#705=EDGE_CURVE('',#533,#536,#282,.T.);
#706=EDGE_CURVE('',#535,#561,#283,.T.);
#707=EDGE_CURVE('',#545,#561,#465,.T.);
#708=EDGE_CURVE('',#532,#537,#284,.T.);
#709=EDGE_CURVE('',#531,#538,#285,.T.);
#710=EDGE_CURVE('',#530,#539,#286,.T.);
#711=EDGE_CURVE('',#540,#529,#287,.T.);
#712=EDGE_CURVE('',#561,#518,#288,.T.);
#713=EDGE_CURVE('',#519,#557,#289,.T.);
#714=EDGE_CURVE('',#562,#562,#466,.T.);
#715=EDGE_CURVE('',#563,#563,#467,.T.);
#716=EDGE_CURVE('',#564,#564,#468,.T.);
#717=EDGE_CURVE('',#564,#563,#290,.T.);
#718=EDGE_CURVE('',#565,#565,#469,.T.);
#719=EDGE_CURVE('',#565,#562,#291,.T.);
#720=EDGE_CURVE('',#566,#567,#292,.F.);
#721=EDGE_CURVE('',#568,#566,#293,.T.);
#722=EDGE_CURVE('',#569,#568,#294,.T.);
#723=EDGE_CURVE('',#569,#567,#295,.F.);
#724=EDGE_CURVE('',#568,#570,#296,.T.);
#725=EDGE_CURVE('',#570,#571,#470,.T.);
#726=EDGE_CURVE('',#569,#571,#297,.T.);
#727=EDGE_CURVE('',#570,#572,#298,.T.);
#728=EDGE_CURVE('',#573,#572,#471,.T.);
#729=EDGE_CURVE('',#571,#573,#299,.T.);
#730=EDGE_CURVE('',#567,#573,#300,.T.);
#731=EDGE_CURVE('',#572,#566,#301,.T.);
#732=EDGE_CURVE('',#574,#575,#302,.F.);
#733=EDGE_CURVE('',#574,#576,#303,.F.);
#734=EDGE_CURVE('',#577,#576,#304,.T.);
#735=EDGE_CURVE('',#575,#577,#305,.T.);
#736=EDGE_CURVE('',#576,#578,#306,.T.);
#737=EDGE_CURVE('',#578,#579,#472,.T.);
#738=EDGE_CURVE('',#579,#577,#307,.T.);
#739=EDGE_CURVE('',#580,#578,#308,.T.);
#740=EDGE_CURVE('',#581,#580,#473,.T.);
#741=EDGE_CURVE('',#581,#579,#309,.T.);
#742=EDGE_CURVE('',#575,#581,#310,.T.);
#743=EDGE_CURVE('',#574,#580,#311,.T.);
#744=ORIENTED_EDGE('',*,*,#582,.F.);
#745=ORIENTED_EDGE('',*,*,#583,.T.);
#746=ORIENTED_EDGE('',*,*,#584,.T.);
#747=ORIENTED_EDGE('',*,*,#583,.F.);
#748=ORIENTED_EDGE('',*,*,#585,.F.);
#749=ORIENTED_EDGE('',*,*,#584,.F.);
#750=ORIENTED_EDGE('',*,*,#586,.T.);
#751=ORIENTED_EDGE('',*,*,#587,.T.);
#752=ORIENTED_EDGE('',*,*,#585,.T.);
#753=ORIENTED_EDGE('',*,*,#587,.F.);
#754=ORIENTED_EDGE('',*,*,#586,.F.);
#755=ORIENTED_EDGE('',*,*,#582,.T.);
#756=ORIENTED_EDGE('',*,*,#588,.T.);
#757=ORIENTED_EDGE('',*,*,#589,.T.);
#758=ORIENTED_EDGE('',*,*,#590,.F.);
#759=ORIENTED_EDGE('',*,*,#591,.F.);
#760=ORIENTED_EDGE('',*,*,#592,.F.);
#761=ORIENTED_EDGE('',*,*,#593,.T.);
#762=ORIENTED_EDGE('',*,*,#594,.T.);
#763=ORIENTED_EDGE('',*,*,#593,.F.);
#764=ORIENTED_EDGE('',*,*,#595,.T.);
#765=ORIENTED_EDGE('',*,*,#596,.F.);
#766=ORIENTED_EDGE('',*,*,#597,.F.);
#767=ORIENTED_EDGE('',*,*,#598,.F.);
#768=ORIENTED_EDGE('',*,*,#599,.F.);
#769=ORIENTED_EDGE('',*,*,#600,.T.);
#770=ORIENTED_EDGE('',*,*,#595,.F.);
#771=ORIENTED_EDGE('',*,*,#601,.F.);
#772=ORIENTED_EDGE('',*,*,#602,.T.);
#773=ORIENTED_EDGE('',*,*,#591,.T.);
#774=ORIENTED_EDGE('',*,*,#603,.F.);
#775=ORIENTED_EDGE('',*,*,#604,.F.);
#776=ORIENTED_EDGE('',*,*,#605,.F.);
#777=ORIENTED_EDGE('',*,*,#597,.T.);
#778=ORIENTED_EDGE('',*,*,#606,.F.);
#779=ORIENTED_EDGE('',*,*,#588,.F.);
#780=ORIENTED_EDGE('',*,*,#602,.F.);
#781=ORIENTED_EDGE('',*,*,#596,.T.);
#782=ORIENTED_EDGE('',*,*,#600,.F.);
#783=ORIENTED_EDGE('',*,*,#607,.T.);
#784=ORIENTED_EDGE('',*,*,#594,.F.);
#785=ORIENTED_EDGE('',*,*,#606,.T.);
#786=ORIENTED_EDGE('',*,*,#608,.T.);
#787=ORIENTED_EDGE('',*,*,#609,.F.);
#788=ORIENTED_EDGE('',*,*,#610,.T.);
#789=ORIENTED_EDGE('',*,*,#611,.F.);
#790=ORIENTED_EDGE('',*,*,#589,.F.);
#791=ORIENTED_EDGE('',*,*,#599,.T.);
#792=ORIENTED_EDGE('',*,*,#612,.F.);
#793=ORIENTED_EDGE('',*,*,#608,.F.);
#794=ORIENTED_EDGE('',*,*,#607,.F.);
#795=ORIENTED_EDGE('',*,*,#613,.F.);
#796=ORIENTED_EDGE('',*,*,#609,.T.);
#797=ORIENTED_EDGE('',*,*,#612,.T.);
#798=ORIENTED_EDGE('',*,*,#601,.T.);
#799=ORIENTED_EDGE('',*,*,#598,.T.);
#800=ORIENTED_EDGE('',*,*,#605,.T.);
#801=ORIENTED_EDGE('',*,*,#614,.F.);
#802=ORIENTED_EDGE('',*,*,#603,.T.);
#803=ORIENTED_EDGE('',*,*,#590,.T.);
#804=ORIENTED_EDGE('',*,*,#611,.T.);
#805=ORIENTED_EDGE('',*,*,#592,.T.);
#806=ORIENTED_EDGE('',*,*,#614,.T.);
#807=ORIENTED_EDGE('',*,*,#610,.F.);
#808=ORIENTED_EDGE('',*,*,#613,.T.);
#809=ORIENTED_EDGE('',*,*,#604,.T.);
#810=ORIENTED_EDGE('',*,*,#615,.F.);
#811=ORIENTED_EDGE('',*,*,#616,.F.);
#812=ORIENTED_EDGE('',*,*,#617,.T.);
#813=ORIENTED_EDGE('',*,*,#618,.F.);
#814=ORIENTED_EDGE('',*,*,#619,.T.);
#815=ORIENTED_EDGE('',*,*,#620,.F.);
#816=ORIENTED_EDGE('',*,*,#621,.T.);
#817=ORIENTED_EDGE('',*,*,#622,.F.);
#818=ORIENTED_EDGE('',*,*,#623,.F.);
#819=ORIENTED_EDGE('',*,*,#619,.F.);
#820=ORIENTED_EDGE('',*,*,#623,.T.);
#821=ORIENTED_EDGE('',*,*,#624,.T.);
#822=ORIENTED_EDGE('',*,*,#625,.F.);
#823=ORIENTED_EDGE('',*,*,#626,.T.);
#824=ORIENTED_EDGE('',*,*,#627,.T.);
#825=ORIENTED_EDGE('',*,*,#620,.T.);
#826=ORIENTED_EDGE('',*,*,#628,.T.);
#827=ORIENTED_EDGE('',*,*,#616,.T.);
#828=ORIENTED_EDGE('',*,*,#629,.F.);
#829=ORIENTED_EDGE('',*,*,#630,.T.);
#830=ORIENTED_EDGE('',*,*,#631,.T.);
#831=ORIENTED_EDGE('',*,*,#632,.T.);
#832=ORIENTED_EDGE('',*,*,#633,.T.);
#833=ORIENTED_EDGE('',*,*,#617,.F.);
#834=ORIENTED_EDGE('',*,*,#628,.F.);
#835=ORIENTED_EDGE('',*,*,#634,.F.);
#836=ORIENTED_EDGE('',*,*,#633,.F.);
#837=ORIENTED_EDGE('',*,*,#635,.F.);
#838=ORIENTED_EDGE('',*,*,#621,.F.);
#839=ORIENTED_EDGE('',*,*,#618,.T.);
#840=ORIENTED_EDGE('',*,*,#636,.F.);
#841=ORIENTED_EDGE('',*,*,#637,.T.);
#842=ORIENTED_EDGE('',*,*,#638,.T.);
#843=ORIENTED_EDGE('',*,*,#637,.F.);
#844=ORIENTED_EDGE('',*,*,#635,.T.);
#845=ORIENTED_EDGE('',*,*,#634,.T.);
#846=ORIENTED_EDGE('',*,*,#632,.F.);
#847=ORIENTED_EDGE('',*,*,#639,.T.);
#848=ORIENTED_EDGE('',*,*,#624,.F.);
#849=ORIENTED_EDGE('',*,*,#622,.T.);
#850=ORIENTED_EDGE('',*,*,#636,.T.);
#851=ORIENTED_EDGE('',*,*,#639,.F.);
#852=ORIENTED_EDGE('',*,*,#631,.F.);
#853=ORIENTED_EDGE('',*,*,#640,.F.);
#854=ORIENTED_EDGE('',*,*,#625,.T.);
#855=ORIENTED_EDGE('',*,*,#641,.F.);
#856=ORIENTED_EDGE('',*,*,#626,.F.);
#857=ORIENTED_EDGE('',*,*,#640,.T.);
#858=ORIENTED_EDGE('',*,*,#630,.F.);
#859=ORIENTED_EDGE('',*,*,#638,.F.);
#860=ORIENTED_EDGE('',*,*,#641,.T.);
#861=ORIENTED_EDGE('',*,*,#629,.T.);
#862=ORIENTED_EDGE('',*,*,#615,.T.);
#863=ORIENTED_EDGE('',*,*,#627,.F.);
#864=ORIENTED_EDGE('',*,*,#642,.T.);
#865=ORIENTED_EDGE('',*,*,#643,.F.);
#866=ORIENTED_EDGE('',*,*,#644,.F.);
#867=ORIENTED_EDGE('',*,*,#645,.F.);
#868=ORIENTED_EDGE('',*,*,#646,.F.);
#869=ORIENTED_EDGE('',*,*,#647,.F.);
#870=ORIENTED_EDGE('',*,*,#648,.F.);
#871=ORIENTED_EDGE('',*,*,#649,.T.);
#872=ORIENTED_EDGE('',*,*,#645,.T.);
#873=ORIENTED_EDGE('',*,*,#650,.F.);
#874=ORIENTED_EDGE('',*,*,#651,.F.);
#875=ORIENTED_EDGE('',*,*,#652,.T.);
#876=ORIENTED_EDGE('',*,*,#653,.F.);
#877=ORIENTED_EDGE('',*,*,#654,.T.);
#878=ORIENTED_EDGE('',*,*,#655,.F.);
#879=ORIENTED_EDGE('',*,*,#643,.T.);
#880=ORIENTED_EDGE('',*,*,#656,.T.);
#881=ORIENTED_EDGE('',*,*,#657,.F.);
#882=ORIENTED_EDGE('',*,*,#658,.T.);
#883=ORIENTED_EDGE('',*,*,#659,.T.);
#884=ORIENTED_EDGE('',*,*,#660,.T.);
#885=ORIENTED_EDGE('',*,*,#661,.T.);
#886=ORIENTED_EDGE('',*,*,#662,.T.);
#887=ORIENTED_EDGE('',*,*,#663,.F.);
#888=ORIENTED_EDGE('',*,*,#664,.T.);
#889=ORIENTED_EDGE('',*,*,#648,.T.);
#890=ORIENTED_EDGE('',*,*,#665,.F.);
#891=ORIENTED_EDGE('',*,*,#666,.F.);
#892=ORIENTED_EDGE('',*,*,#667,.T.);
#893=ORIENTED_EDGE('',*,*,#668,.F.);
#894=ORIENTED_EDGE('',*,*,#669,.T.);
#895=ORIENTED_EDGE('',*,*,#670,.F.);
#896=ORIENTED_EDGE('',*,*,#671,.T.);
#897=ORIENTED_EDGE('',*,*,#672,.F.);
#898=ORIENTED_EDGE('',*,*,#673,.T.);
#899=ORIENTED_EDGE('',*,*,#674,.F.);
#900=ORIENTED_EDGE('',*,*,#675,.T.);
#901=ORIENTED_EDGE('',*,*,#676,.F.);
#902=ORIENTED_EDGE('',*,*,#677,.F.);
#903=ORIENTED_EDGE('',*,*,#678,.F.);
#904=ORIENTED_EDGE('',*,*,#679,.F.);
#905=ORIENTED_EDGE('',*,*,#652,.F.);
#906=ORIENTED_EDGE('',*,*,#680,.T.);
#907=ORIENTED_EDGE('',*,*,#681,.F.);
#908=ORIENTED_EDGE('',*,*,#674,.T.);
#909=ORIENTED_EDGE('',*,*,#682,.F.);
#910=ORIENTED_EDGE('',*,*,#683,.T.);
#911=ORIENTED_EDGE('',*,*,#684,.T.);
#912=ORIENTED_EDGE('',*,*,#685,.T.);
#913=ORIENTED_EDGE('',*,*,#686,.F.);
#914=ORIENTED_EDGE('',*,*,#687,.F.);
#915=ORIENTED_EDGE('',*,*,#688,.T.);
#916=ORIENTED_EDGE('',*,*,#686,.T.);
#917=ORIENTED_EDGE('',*,*,#688,.F.);
#918=ORIENTED_EDGE('',*,*,#689,.F.);
#919=ORIENTED_EDGE('',*,*,#690,.T.);
#920=ORIENTED_EDGE('',*,*,#655,.T.);
#921=ORIENTED_EDGE('',*,*,#690,.F.);
#922=ORIENTED_EDGE('',*,*,#691,.T.);
#923=ORIENTED_EDGE('',*,*,#682,.T.);
#924=ORIENTED_EDGE('',*,*,#677,.T.);
#925=ORIENTED_EDGE('',*,*,#692,.F.);
#926=ORIENTED_EDGE('',*,*,#693,.F.);
#927=ORIENTED_EDGE('',*,*,#672,.T.);
#928=ORIENTED_EDGE('',*,*,#694,.T.);
#929=ORIENTED_EDGE('',*,*,#657,.T.);
#930=ORIENTED_EDGE('',*,*,#695,.F.);
#931=ORIENTED_EDGE('',*,*,#653,.T.);
#932=ORIENTED_EDGE('',*,*,#679,.T.);
#933=ORIENTED_EDGE('',*,*,#696,.T.);
#934=ORIENTED_EDGE('',*,*,#697,.T.);
#935=ORIENTED_EDGE('',*,*,#683,.F.);
#936=ORIENTED_EDGE('',*,*,#691,.F.);
#937=ORIENTED_EDGE('',*,*,#698,.F.);
#938=ORIENTED_EDGE('',*,*,#697,.F.);
#939=ORIENTED_EDGE('',*,*,#699,.T.);
#940=ORIENTED_EDGE('',*,*,#700,.F.);
#941=ORIENTED_EDGE('',*,*,#684,.F.);
#942=ORIENTED_EDGE('',*,*,#700,.T.);
#943=ORIENTED_EDGE('',*,*,#701,.F.);
#944=ORIENTED_EDGE('',*,*,#702,.F.);
#945=ORIENTED_EDGE('',*,*,#685,.F.);
#946=ORIENTED_EDGE('',*,*,#702,.T.);
#947=ORIENTED_EDGE('',*,*,#703,.T.);
#948=ORIENTED_EDGE('',*,*,#680,.F.);
#949=ORIENTED_EDGE('',*,*,#651,.T.);
#950=ORIENTED_EDGE('',*,*,#704,.T.);
#951=ORIENTED_EDGE('',*,*,#663,.T.);
#952=ORIENTED_EDGE('',*,*,#705,.T.);
#953=ORIENTED_EDGE('',*,*,#666,.T.);
#954=ORIENTED_EDGE('',*,*,#706,.T.);
#955=ORIENTED_EDGE('',*,*,#707,.F.);
#956=ORIENTED_EDGE('',*,*,#675,.F.);
#957=ORIENTED_EDGE('',*,*,#681,.T.);
#958=ORIENTED_EDGE('',*,*,#708,.T.);
#959=ORIENTED_EDGE('',*,*,#667,.F.);
#960=ORIENTED_EDGE('',*,*,#705,.F.);
#961=ORIENTED_EDGE('',*,*,#662,.F.);
#962=ORIENTED_EDGE('',*,*,#709,.T.);
#963=ORIENTED_EDGE('',*,*,#668,.T.);
#964=ORIENTED_EDGE('',*,*,#708,.F.);
#965=ORIENTED_EDGE('',*,*,#661,.F.);
#966=ORIENTED_EDGE('',*,*,#710,.T.);
#967=ORIENTED_EDGE('',*,*,#669,.F.);
#968=ORIENTED_EDGE('',*,*,#709,.F.);
#969=ORIENTED_EDGE('',*,*,#660,.F.);
#970=ORIENTED_EDGE('',*,*,#711,.F.);
#971=ORIENTED_EDGE('',*,*,#670,.T.);
#972=ORIENTED_EDGE('',*,*,#710,.F.);
#973=ORIENTED_EDGE('',*,*,#659,.F.);
#974=ORIENTED_EDGE('',*,*,#711,.T.);
#975=ORIENTED_EDGE('',*,*,#658,.F.);
#976=ORIENTED_EDGE('',*,*,#694,.F.);
#977=ORIENTED_EDGE('',*,*,#671,.F.);
#978=ORIENTED_EDGE('',*,*,#699,.F.);
#979=ORIENTED_EDGE('',*,*,#698,.T.);
#980=ORIENTED_EDGE('',*,*,#696,.F.);
#981=ORIENTED_EDGE('',*,*,#678,.T.);
#982=ORIENTED_EDGE('',*,*,#703,.F.);
#983=ORIENTED_EDGE('',*,*,#701,.T.);
#984=ORIENTED_EDGE('',*,*,#689,.T.);
#985=ORIENTED_EDGE('',*,*,#650,.T.);
#986=ORIENTED_EDGE('',*,*,#644,.T.);
#987=ORIENTED_EDGE('',*,*,#664,.F.);
#988=ORIENTED_EDGE('',*,*,#704,.F.);
#989=ORIENTED_EDGE('',*,*,#654,.F.);
#990=ORIENTED_EDGE('',*,*,#695,.T.);
#991=ORIENTED_EDGE('',*,*,#656,.F.);
#992=ORIENTED_EDGE('',*,*,#642,.F.);
#993=ORIENTED_EDGE('',*,*,#665,.T.);
#994=ORIENTED_EDGE('',*,*,#647,.T.);
#995=ORIENTED_EDGE('',*,*,#712,.F.);
#996=ORIENTED_EDGE('',*,*,#706,.F.);
#997=ORIENTED_EDGE('',*,*,#673,.F.);
#998=ORIENTED_EDGE('',*,*,#693,.T.);
#999=ORIENTED_EDGE('',*,*,#713,.F.);
#1000=ORIENTED_EDGE('',*,*,#649,.F.);
#1001=ORIENTED_EDGE('',*,*,#646,.T.);
#1002=ORIENTED_EDGE('',*,*,#713,.T.);
#1003=ORIENTED_EDGE('',*,*,#692,.T.);
#1004=ORIENTED_EDGE('',*,*,#676,.T.);
#1005=ORIENTED_EDGE('',*,*,#707,.T.);
#1006=ORIENTED_EDGE('',*,*,#712,.T.);
#1007=ORIENTED_EDGE('',*,*,#687,.T.);
#1008=ORIENTED_EDGE('',*,*,#714,.F.);
#1009=ORIENTED_EDGE('',*,*,#715,.F.);
#1010=ORIENTED_EDGE('',*,*,#716,.F.);
#1011=ORIENTED_EDGE('',*,*,#717,.T.);
#1012=ORIENTED_EDGE('',*,*,#715,.T.);
#1013=ORIENTED_EDGE('',*,*,#717,.F.);
#1014=ORIENTED_EDGE('',*,*,#718,.T.);
#1015=ORIENTED_EDGE('',*,*,#719,.T.);
#1016=ORIENTED_EDGE('',*,*,#714,.T.);
#1017=ORIENTED_EDGE('',*,*,#719,.F.);
#1018=ORIENTED_EDGE('',*,*,#718,.F.);
#1019=ORIENTED_EDGE('',*,*,#716,.T.);
#1020=ORIENTED_EDGE('',*,*,#720,.F.);
#1021=ORIENTED_EDGE('',*,*,#721,.F.);
#1022=ORIENTED_EDGE('',*,*,#722,.F.);
#1023=ORIENTED_EDGE('',*,*,#723,.T.);
#1024=ORIENTED_EDGE('',*,*,#722,.T.);
#1025=ORIENTED_EDGE('',*,*,#724,.T.);
#1026=ORIENTED_EDGE('',*,*,#725,.T.);
#1027=ORIENTED_EDGE('',*,*,#726,.F.);
#1028=ORIENTED_EDGE('',*,*,#727,.T.);
#1029=ORIENTED_EDGE('',*,*,#728,.F.);
#1030=ORIENTED_EDGE('',*,*,#729,.F.);
#1031=ORIENTED_EDGE('',*,*,#725,.F.);
#1032=ORIENTED_EDGE('',*,*,#720,.T.);
#1033=ORIENTED_EDGE('',*,*,#730,.T.);
#1034=ORIENTED_EDGE('',*,*,#728,.T.);
#1035=ORIENTED_EDGE('',*,*,#731,.T.);
#1036=ORIENTED_EDGE('',*,*,#726,.T.);
#1037=ORIENTED_EDGE('',*,*,#729,.T.);
#1038=ORIENTED_EDGE('',*,*,#730,.F.);
#1039=ORIENTED_EDGE('',*,*,#723,.F.);
#1040=ORIENTED_EDGE('',*,*,#724,.F.);
#1041=ORIENTED_EDGE('',*,*,#721,.T.);
#1042=ORIENTED_EDGE('',*,*,#731,.F.);
#1043=ORIENTED_EDGE('',*,*,#727,.F.);
#1044=ORIENTED_EDGE('',*,*,#732,.F.);
#1045=ORIENTED_EDGE('',*,*,#733,.T.);
#1046=ORIENTED_EDGE('',*,*,#734,.F.);
#1047=ORIENTED_EDGE('',*,*,#735,.F.);
#1048=ORIENTED_EDGE('',*,*,#734,.T.);
#1049=ORIENTED_EDGE('',*,*,#736,.T.);
#1050=ORIENTED_EDGE('',*,*,#737,.T.);
#1051=ORIENTED_EDGE('',*,*,#738,.T.);
#1052=ORIENTED_EDGE('',*,*,#737,.F.);
#1053=ORIENTED_EDGE('',*,*,#739,.F.);
#1054=ORIENTED_EDGE('',*,*,#740,.F.);
#1055=ORIENTED_EDGE('',*,*,#741,.T.);
#1056=ORIENTED_EDGE('',*,*,#732,.T.);
#1057=ORIENTED_EDGE('',*,*,#742,.T.);
#1058=ORIENTED_EDGE('',*,*,#740,.T.);
#1059=ORIENTED_EDGE('',*,*,#743,.F.);
#1060=ORIENTED_EDGE('',*,*,#743,.T.);
#1061=ORIENTED_EDGE('',*,*,#739,.T.);
#1062=ORIENTED_EDGE('',*,*,#736,.F.);
#1063=ORIENTED_EDGE('',*,*,#733,.F.);
#1064=ORIENTED_EDGE('',*,*,#742,.F.);
#1065=ORIENTED_EDGE('',*,*,#735,.T.);
#1066=ORIENTED_EDGE('',*,*,#738,.F.);
#1067=ORIENTED_EDGE('',*,*,#741,.F.);
#1068=CYLINDRICAL_SURFACE('',#1187,2.5);
#1069=CYLINDRICAL_SURFACE('',#1192,5.);
#1070=CYLINDRICAL_SURFACE('',#1195,5.);
#1071=CYLINDRICAL_SURFACE('',#1198,2.5);
#1072=CYLINDRICAL_SURFACE('',#1201,1.);
#1073=CYLINDRICAL_SURFACE('',#1205,35.5);
#1074=CYLINDRICAL_SURFACE('',#1212,35.5);
#1075=CYLINDRICAL_SURFACE('',#1215,1.);
#1076=CYLINDRICAL_SURFACE('',#1225,1.);
#1077=CYLINDRICAL_SURFACE('',#1227,35.5);
#1078=CYLINDRICAL_SURFACE('',#1230,35.5);
#1079=CYLINDRICAL_SURFACE('',#1233,1.);
#1080=CYLINDRICAL_SURFACE('',#1236,2.5);
#1081=CYLINDRICAL_SURFACE('',#1241,5.);
#1082=CYLINDRICAL_SURFACE('',#1245,5.00000000000729);
#1083=CYLINDRICAL_SURFACE('',#1248,5.00000000000729);
#1084=CYLINDRICAL_SURFACE('',#1268,5.);
#1085=CYLINDRICAL_SURFACE('',#1271,5.);
#1086=CYLINDRICAL_SURFACE('',#1279,2.5);
#1087=CYLINDRICAL_SURFACE('',#1281,2.5);
#1088=CYLINDRICAL_SURFACE('',#1283,70.);
#1089=CYLINDRICAL_SURFACE('',#1286,1.);
#1090=CYLINDRICAL_SURFACE('',#1289,1.);
#1091=CYLINDRICAL_SURFACE('',#1291,35.);
#1092=CYLINDRICAL_SURFACE('',#1294,2.);
#1093=CYLINDRICAL_SURFACE('',#1296,1.);
#1094=CYLINDRICAL_SURFACE('',#1298,1.);
#1095=CYLINDRICAL_SURFACE('',#1308,2.5);
#1096=CYLINDRICAL_SURFACE('',#1310,5.);
#1097=CYLINDRICAL_SURFACE('',#1316,5.0000000000073);
#1098=CYLINDRICAL_SURFACE('',#1324,5.0000000000073);
#1099=ADVANCED_FACE('',(#76),#1068,.F.);
#1100=ADVANCED_FACE('',(#77,#27),#39,.F.);
#1101=ADVANCED_FACE('',(#78),#1069,.T.);
#1102=ADVANCED_FACE('',(#79,#28),#40,.T.);
#1103=ADVANCED_FACE('',(#80),#1070,.T.);
#1104=ADVANCED_FACE('',(#81),#1071,.F.);
#1105=ADVANCED_FACE('',(#82),#1072,.T.);
#1106=ADVANCED_FACE('',(#83),#41,.F.);
#1107=ADVANCED_FACE('',(#84),#1073,.F.);
#1108=ADVANCED_FACE('',(#85,#29),#42,.F.);
#1109=ADVANCED_FACE('',(#86),#1074,.F.);
#1110=ADVANCED_FACE('',(#87),#1075,.T.);
#1111=ADVANCED_FACE('',(#88),#43,.T.);
#1112=ADVANCED_FACE('',(#89,#30),#44,.F.);
#1113=ADVANCED_FACE('',(#90),#45,.T.);
#1114=ADVANCED_FACE('',(#91),#46,.T.);
#1115=ADVANCED_FACE('',(#92),#1076,.T.);
#1116=ADVANCED_FACE('',(#93),#1077,.F.);
#1117=ADVANCED_FACE('',(#94),#1078,.F.);
#1118=ADVANCED_FACE('',(#95),#1079,.T.);
#1119=ADVANCED_FACE('',(#96),#47,.F.);
#1120=ADVANCED_FACE('',(#97),#1080,.F.);
#1121=ADVANCED_FACE('',(#98,#31),#48,.T.);
#1122=ADVANCED_FACE('',(#99),#1081,.T.);
#1123=ADVANCED_FACE('',(#100,#32),#49,.F.);
#1124=ADVANCED_FACE('',(#101),#50,.T.);
#1125=ADVANCED_FACE('',(#102),#1082,.F.);
#1126=ADVANCED_FACE('',(#103),#1083,.F.);
#1127=ADVANCED_FACE('',(#104,#33),#51,.F.);
#1128=ADVANCED_FACE('',(#105),#52,.T.);
#1129=ADVANCED_FACE('',(#106),#53,.T.);
#1130=ADVANCED_FACE('',(#107),#1084,.T.);
#1131=ADVANCED_FACE('',(#108),#1085,.T.);
#1132=ADVANCED_FACE('',(#109,#34),#54,.T.);
#1133=ADVANCED_FACE('',(#110),#1086,.F.);
#1134=ADVANCED_FACE('',(#111),#1087,.F.);
#1135=ADVANCED_FACE('',(#112),#1088,.F.);
#1136=ADVANCED_FACE('',(#113),#1089,.T.);
#1137=ADVANCED_FACE('',(#114),#55,.F.);
#1138=ADVANCED_FACE('',(#115),#1090,.T.);
#1139=ADVANCED_FACE('',(#116),#1091,.F.);
#1140=ADVANCED_FACE('',(#117),#1092,.T.);
#1141=ADVANCED_FACE('',(#118),#56,.F.);
#1142=ADVANCED_FACE('',(#119),#1093,.T.);
#1143=ADVANCED_FACE('',(#120),#57,.F.);
#1144=ADVANCED_FACE('',(#121),#1094,.T.);
#1145=ADVANCED_FACE('',(#122,#35),#58,.F.);
#1146=ADVANCED_FACE('',(#123),#59,.T.);
#1147=ADVANCED_FACE('',(#124),#60,.T.);
#1148=ADVANCED_FACE('',(#125),#61,.T.);
#1149=ADVANCED_FACE('',(#126),#62,.T.);
#1150=ADVANCED_FACE('',(#127,#36),#63,.F.);
#1151=ADVANCED_FACE('',(#128,#37),#64,.T.);
#1152=ADVANCED_FACE('',(#129),#1095,.F.);
#1153=ADVANCED_FACE('',(#130),#1096,.T.);
#1154=ADVANCED_FACE('',(#131,#38),#65,.F.);
#1155=ADVANCED_FACE('',(#132),#66,.F.);
#1156=ADVANCED_FACE('',(#133),#67,.T.);
#1157=ADVANCED_FACE('',(#134),#1097,.F.);
#1158=ADVANCED_FACE('',(#135),#68,.F.);
#1159=ADVANCED_FACE('',(#136),#69,.T.);
#1160=ADVANCED_FACE('',(#137),#70,.T.);
#1161=ADVANCED_FACE('',(#138),#71,.F.);
#1162=ADVANCED_FACE('',(#139),#72,.T.);
#1163=ADVANCED_FACE('',(#140),#1098,.F.);
#1164=ADVANCED_FACE('',(#141),#73,.F.);
#1165=ADVANCED_FACE('',(#142),#74,.T.);
#1166=ADVANCED_FACE('',(#143),#75,.T.);
#1167=CLOSED_SHELL('',(#1099,#1100,#1101,#1102));
#1168=CLOSED_SHELL('',(#1103,#1104,#1105,#1106,#1107,#1108,#1109,#1110,
#1111,#1112,#1113));
#1169=CLOSED_SHELL('',(#1114,#1115,#1116,#1117,#1118,#1119,#1120,#1121,
#1122,#1123,#1124));
#1170=CLOSED_SHELL('',(#1125,#1126,#1127,#1128,#1129,#1130,#1131,#1132,
#1133,#1134,#1135,#1136,#1137,#1138,#1139,#1140,#1141,#1142,#1143,#1144,
#1145,#1146,#1147,#1148,#1149,#1150));
#1171=CLOSED_SHELL('',(#1151,#1152,#1153,#1154));
#1172=CLOSED_SHELL('',(#1155,#1156,#1157,#1158,#1159,#1160));
#1173=CLOSED_SHELL('',(#1161,#1162,#1163,#1164,#1165,#1166));
#1174=DERIVED_UNIT_ELEMENT(#1176,1.);
#1175=DERIVED_UNIT_ELEMENT(#2047,-3.);
#1176=(
MASS_UNIT()
NAMED_UNIT(*)
SI_UNIT(.KILO.,.GRAM.)
);
#1177=DERIVED_UNIT((#1174,#1175));
#1178=MEASURE_REPRESENTATION_ITEM('density measure',
POSITIVE_RATIO_MEASURE(7850.),#1177);
#1179=PROPERTY_DEFINITION_REPRESENTATION(#1184,#1181);
#1180=PROPERTY_DEFINITION_REPRESENTATION(#1185,#1182);
#1181=REPRESENTATION('material name',(#1183),#2044);
#1182=REPRESENTATION('density',(#1178),#2044);
#1183=DESCRIPTIVE_REPRESENTATION_ITEM('Acier','Acier');
#1184=PROPERTY_DEFINITION('material property','material name',#2054);
#1185=PROPERTY_DEFINITION('material property','density of part',#2054);
#1186=AXIS2_PLACEMENT_3D('',#1703,#1329,#1330);
#1187=AXIS2_PLACEMENT_3D('',#1704,#1331,#1332);
#1188=AXIS2_PLACEMENT_3D('',#1706,#1333,#1334);
#1189=AXIS2_PLACEMENT_3D('',#1709,#1336,#1337);
#1190=AXIS2_PLACEMENT_3D('',#1710,#1338,#1339);
#1191=AXIS2_PLACEMENT_3D('',#1712,#1340,#1341);
#1192=AXIS2_PLACEMENT_3D('',#1713,#1342,#1343);
#1193=AXIS2_PLACEMENT_3D('',#1715,#1344,#1345);
#1194=AXIS2_PLACEMENT_3D('',#1717,#1347,#1348);
#1195=AXIS2_PLACEMENT_3D('',#1718,#1349,#1350);
#1196=AXIS2_PLACEMENT_3D('',#1721,#1351,#1352);
#1197=AXIS2_PLACEMENT_3D('',#1725,#1354,#1355);
#1198=AXIS2_PLACEMENT_3D('',#1727,#1357,#1358);
#1199=AXIS2_PLACEMENT_3D('',#1729,#1359,#1360);
#1200=AXIS2_PLACEMENT_3D('',#1732,#1362,#1363);
#1201=AXIS2_PLACEMENT_3D('',#1733,#1364,#1365);
#1202=AXIS2_PLACEMENT_3D('',#1738,#1367,#1368);
#1203=AXIS2_PLACEMENT_3D('',#1741,#1370,#1371);
#1204=AXIS2_PLACEMENT_3D('',#1742,#1372,#1373);
#1205=AXIS2_PLACEMENT_3D('',#1748,#1377,#1378);
#1206=AXIS2_PLACEMENT_3D('',#1749,#1379,#1380);
#1207=AXIS2_PLACEMENT_3D('',#1751,#1381,#1382);
#1208=AXIS2_PLACEMENT_3D('',#1754,#1384,#1385);
#1209=AXIS2_PLACEMENT_3D('',#1755,#1386,#1387);
#1210=AXIS2_PLACEMENT_3D('',#1757,#1388,#1389);
#1211=AXIS2_PLACEMENT_3D('',#1758,#1390,#1391);
#1212=AXIS2_PLACEMENT_3D('',#1759,#1392,#1393);
#1213=AXIS2_PLACEMENT_3D('',#1763,#1395,#1396);
#1214=AXIS2_PLACEMENT_3D('',#1766,#1398,#1399);
#1215=AXIS2_PLACEMENT_3D('',#1767,#1400,#1401);
#1216=AXIS2_PLACEMENT_3D('',#1768,#1402,#1403);
#1217=AXIS2_PLACEMENT_3D('',#1769,#1404,#1405);
#1218=AXIS2_PLACEMENT_3D('',#1771,#1407,#1408);
#1219=AXIS2_PLACEMENT_3D('',#1773,#1410,#1411);
#1220=AXIS2_PLACEMENT_3D('',#1774,#1412,#1413);
#1221=AXIS2_PLACEMENT_3D('',#1779,#1415,#1416);
#1222=AXIS2_PLACEMENT_3D('',#1781,#1417,#1418);
#1223=AXIS2_PLACEMENT_3D('',#1785,#1420,#1421);
#1224=AXIS2_PLACEMENT_3D('',#1786,#1422,#1423);
#1225=AXIS2_PLACEMENT_3D('',#1787,#1424,#1425);
#1226=AXIS2_PLACEMENT_3D('',#1791,#1427,#1428);
#1227=AXIS2_PLACEMENT_3D('',#1793,#1430,#1431);
#1228=AXIS2_PLACEMENT_3D('',#1795,#1432,#1433);
#1229=AXIS2_PLACEMENT_3D('',#1799,#1435,#1436);
#1230=AXIS2_PLACEMENT_3D('',#1801,#1438,#1439);
#1231=AXIS2_PLACEMENT_3D('',#1807,#1442,#1443);
#1232=AXIS2_PLACEMENT_3D('',#1810,#1445,#1446);
#1233=AXIS2_PLACEMENT_3D('',#1811,#1447,#1448);
#1234=AXIS2_PLACEMENT_3D('',#1814,#1450,#1451);
#1235=AXIS2_PLACEMENT_3D('',#1815,#1452,#1453);
#1236=AXIS2_PLACEMENT_3D('',#1817,#1455,#1456);
#1237=AXIS2_PLACEMENT_3D('',#1819,#1457,#1458);
#1238=AXIS2_PLACEMENT_3D('',#1822,#1460,#1461);
#1239=AXIS2_PLACEMENT_3D('',#1823,#1462,#1463);
#1240=AXIS2_PLACEMENT_3D('',#1824,#1464,#1465);
#1241=AXIS2_PLACEMENT_3D('',#1825,#1466,#1467);
#1242=AXIS2_PLACEMENT_3D('',#1826,#1468,#1469);
#1243=AXIS2_PLACEMENT_3D('',#1827,#1470,#1471);
#1244=AXIS2_PLACEMENT_3D('',#1829,#1473,#1474);
#1245=AXIS2_PLACEMENT_3D('',#1830,#1475,#1476);
#1246=AXIS2_PLACEMENT_3D('',#1835,#1478,#1479);
#1247=AXIS2_PLACEMENT_3D('',#1838,#1481,#1482);
#1248=AXIS2_PLACEMENT_3D('',#1839,#1483,#1484);
#1249=AXIS2_PLACEMENT_3D('',#1842,#1485,#1486);
#1250=AXIS2_PLACEMENT_3D('',#1846,#1488,#1489);
#1251=AXIS2_PLACEMENT_3D('',#1848,#1491,#1492);
#1252=AXIS2_PLACEMENT_3D('',#1852,#1494,#1495);
#1253=AXIS2_PLACEMENT_3D('',#1854,#1496,#1497);
#1254=AXIS2_PLACEMENT_3D('',#1856,#1498,#1499);
#1255=AXIS2_PLACEMENT_3D('',#1859,#1501,#1502);
#1256=AXIS2_PLACEMENT_3D('',#1860,#1503,#1504);
#1257=AXIS2_PLACEMENT_3D('',#1864,#1506,#1507);
#1258=AXIS2_PLACEMENT_3D('',#1866,#1508,#1509);
#1259=AXIS2_PLACEMENT_3D('',#1870,#1511,#1512);
#1260=AXIS2_PLACEMENT_3D('',#1874,#1514,#1515);
#1261=AXIS2_PLACEMENT_3D('',#1876,#1516,#1517);
#1262=AXIS2_PLACEMENT_3D('',#1878,#1519,#1520);
#1263=AXIS2_PLACEMENT_3D('',#1882,#1522,#1523);
#1264=AXIS2_PLACEMENT_3D('',#1884,#1524,#1525);
#1265=AXIS2_PLACEMENT_3D('',#1888,#1527,#1528);
#1266=AXIS2_PLACEMENT_3D('',#1892,#1530,#1531);
#1267=AXIS2_PLACEMENT_3D('',#1894,#1532,#1533);
#1268=AXIS2_PLACEMENT_3D('',#1896,#1535,#1536);
#1269=AXIS2_PLACEMENT_3D('',#1899,#1537,#1538);
#1270=AXIS2_PLACEMENT_3D('',#1903,#1540,#1541);
#1271=AXIS2_PLACEMENT_3D('',#1905,#1543,#1544);
#1272=AXIS2_PLACEMENT_3D('',#1908,#1545,#1546);
#1273=AXIS2_PLACEMENT_3D('',#1911,#1549,#1550);
#1274=AXIS2_PLACEMENT_3D('',#1913,#1551,#1552);
#1275=AXIS2_PLACEMENT_3D('',#1915,#1553,#1554);
#1276=AXIS2_PLACEMENT_3D('',#1917,#1555,#1556);
#1277=AXIS2_PLACEMENT_3D('',#1920,#1558,#1559);
#1278=AXIS2_PLACEMENT_3D('',#1922,#1560,#1561);
#1279=AXIS2_PLACEMENT_3D('',#1923,#1562,#1563);
#1280=AXIS2_PLACEMENT_3D('',#1925,#1564,#1565);
#1281=AXIS2_PLACEMENT_3D('',#1927,#1567,#1568);
#1282=AXIS2_PLACEMENT_3D('',#1929,#1569,#1570);
#1283=AXIS2_PLACEMENT_3D('',#1931,#1572,#1573);
#1284=AXIS2_PLACEMENT_3D('',#1935,#1575,#1576);
#1285=AXIS2_PLACEMENT_3D('',#1939,#1580,#1581);
#1286=AXIS2_PLACEMENT_3D('',#1940,#1582,#1583);
#1287=AXIS2_PLACEMENT_3D('',#1943,#1585,#1586);
#1288=AXIS2_PLACEMENT_3D('',#1944,#1587,#1588);
#1289=AXIS2_PLACEMENT_3D('',#1948,#1591,#1592);
#1290=AXIS2_PLACEMENT_3D('',#1950,#1593,#1594);
#1291=AXIS2_PLACEMENT_3D('',#1952,#1596,#1597);
#1292=AXIS2_PLACEMENT_3D('',#1953,#1598,#1599);
#1293=AXIS2_PLACEMENT_3D('',#1958,#1603,#1604);
#1294=AXIS2_PLACEMENT_3D('',#1959,#1605,#1606);
#1295=AXIS2_PLACEMENT_3D('',#1961,#1608,#1609);
#1296=AXIS2_PLACEMENT_3D('',#1963,#1611,#1612);
#1297=AXIS2_PLACEMENT_3D('',#1965,#1614,#1615);
#1298=AXIS2_PLACEMENT_3D('',#1967,#1617,#1618);
#1299=AXIS2_PLACEMENT_3D('',#1968,#1619,#1620);
#1300=AXIS2_PLACEMENT_3D('',#1969,#1621,#1622);
#1301=AXIS2_PLACEMENT_3D('',#1970,#1623,#1624);
#1302=AXIS2_PLACEMENT_3D('',#1971,#1625,#1626);
#1303=AXIS2_PLACEMENT_3D('',#1973,#1628,#1629);
#1304=AXIS2_PLACEMENT_3D('',#1975,#1631,#1632);
#1305=AXIS2_PLACEMENT_3D('',#1976,#1633,#1634);
#1306=AXIS2_PLACEMENT_3D('',#1978,#1635,#1636);
#1307=AXIS2_PLACEMENT_3D('',#1980,#1637,#1638);
#1308=AXIS2_PLACEMENT_3D('',#1981,#1639,#1640);
#1309=AXIS2_PLACEMENT_3D('',#1983,#1641,#1642);
#1310=AXIS2_PLACEMENT_3D('',#1985,#1644,#1645);
#1311=AXIS2_PLACEMENT_3D('',#1987,#1646,#1647);
#1312=AXIS2_PLACEMENT_3D('',#1989,#1649,#1650);
#1313=AXIS2_PLACEMENT_3D('',#1990,#1651,#1652);
#1314=AXIS2_PLACEMENT_3D('',#1999,#1657,#1658);
#1315=AXIS2_PLACEMENT_3D('',#2003,#1660,#1661);
#1316=AXIS2_PLACEMENT_3D('',#2005,#1663,#1664);
#1317=AXIS2_PLACEMENT_3D('',#2009,#1666,#1667);
#1318=AXIS2_PLACEMENT_3D('',#2011,#1669,#1670);
#1319=AXIS2_PLACEMENT_3D('',#2014,#1673,#1674);
#1320=AXIS2_PLACEMENT_3D('',#2015,#1675,#1676);
#1321=AXIS2_PLACEMENT_3D('',#2016,#1677,#1678);
#1322=AXIS2_PLACEMENT_3D('',#2025,#1683,#1684);
#1323=AXIS2_PLACEMENT_3D('',#2029,#1686,#1687);
#1324=AXIS2_PLACEMENT_3D('',#2031,#1689,#1690);
#1325=AXIS2_PLACEMENT_3D('',#2035,#1692,#1693);
#1326=AXIS2_PLACEMENT_3D('',#2037,#1695,#1696);
#1327=AXIS2_PLACEMENT_3D('',#2040,#1699,#1700);
#1328=AXIS2_PLACEMENT_3D('',#2041,#1701,#1702);
#1329=DIRECTION('axis',(0.,0.,1.));
#1330=DIRECTION('refdir',(1.,0.,0.));
#1331=DIRECTION('center_axis',(0.,0.,-1.));
#1332=DIRECTION('ref_axis',(0.,-1.,0.));
#1333=DIRECTION('center_axis',(0.,0.,-1.));
#1334=DIRECTION('ref_axis',(0.,-1.,0.));
#1335=DIRECTION('',(0.,0.,-1.));
#1336=DIRECTION('center_axis',(0.,0.,-1.));
#1337=DIRECTION('ref_axis',(0.,-1.,0.));
#1338=DIRECTION('center_axis',(0.,0.,1.));
#1339=DIRECTION('ref_axis',(0.,1.,0.));
#1340=DIRECTION('center_axis',(0.,0.,1.));
#1341=DIRECTION('ref_axis',(-1.,0.,0.));
#1342=DIRECTION('center_axis',(0.,0.,1.));
#1343=DIRECTION('ref_axis',(0.,1.,0.));
#1344=DIRECTION('center_axis',(0.,0.,-1.));
#1345=DIRECTION('ref_axis',(-1.,0.,0.));
#1346=DIRECTION('',(0.,0.,-1.));
#1347=DIRECTION('center_axis',(0.,0.,1.));
#1348=DIRECTION('ref_axis',(0.,-1.,0.));
#1349=DIRECTION('center_axis',(2.66096358898619E-17,-2.41905780817325E-18,
1.));
#1350=DIRECTION('ref_axis',(0.0871557427476584,0.996194698091746,9.06699826539697E-20));
#1351=DIRECTION('center_axis',(2.66096358898619E-17,-2.41905780817325E-18,
1.));
#1352=DIRECTION('ref_axis',(0.639797876254131,-0.768543217744262,-1.88839390020322E-17));
#1353=DIRECTION('',(2.66096358898619E-17,-2.41905780817326E-18,1.));
#1354=DIRECTION('center_axis',(2.66096358898619E-17,-2.41905780817325E-18,
1.));
#1355=DIRECTION('ref_axis',(0.639797876254131,-0.768543217744262,-1.88839390020322E-17));
#1356=DIRECTION('',(2.66096358898619E-17,-2.41905780817326E-18,1.));
#1357=DIRECTION('center_axis',(-2.66096358898619E-17,2.41905780817325E-18,
-1.));
#1358=DIRECTION('ref_axis',(-0.0871557427476584,-0.996194698091746,-9.06699826539697E-20));
#1359=DIRECTION('center_axis',(-2.66096358898619E-17,2.41905780817325E-18,
-1.));
#1360=DIRECTION('ref_axis',(-0.0871557427476584,-0.996194698091746,-9.06699826539697E-20));
#1361=DIRECTION('',(-2.66096358898619E-17,2.41905780817325E-18,-1.));
#1362=DIRECTION('center_axis',(-2.66096358898619E-17,2.41905780817325E-18,
-1.));
#1363=DIRECTION('ref_axis',(-0.0871557427476584,-0.996194698091746,-9.06699826539697E-20));
#1364=DIRECTION('center_axis',(2.66096358898619E-17,-2.41905780817325E-18,
1.));
#1365=DIRECTION('ref_axis',(0.788957417422912,-0.614447876954074,-2.24802545446907E-17));
#1366=DIRECTION('',(1.06441932278656E-14,-9.31337256144912E-16,1.));
#1367=DIRECTION('center_axis',(2.66096358898619E-17,-2.41905780817325E-18,
1.));
#1368=DIRECTION('ref_axis',(0.788957417422912,-0.614447876954074,-2.24802545446907E-17));
#1369=DIRECTION('',(2.66096358898619E-17,-2.41905780817326E-18,1.));
#1370=DIRECTION('center_axis',(-2.66096358898619E-17,2.41905780817325E-18,
-1.));
#1371=DIRECTION('ref_axis',(-0.342020143325649,0.939692620785916,1.13742022524889E-17));
#1372=DIRECTION('center_axis',(0.342020143325649,-0.939692620785916,-1.13742022524889E-17));
#1373=DIRECTION('ref_axis',(0.939692620785916,0.342020143325649,-2.41775119892389E-17));
#1374=DIRECTION('',(2.95255042071611E-14,1.16820819848779E-14,-1.));
#1375=DIRECTION('',(0.939692620785915,0.342020143325649,-2.41775119892389E-17));
#1376=DIRECTION('',(0.939692620785915,0.342020143325649,-2.41775119892389E-17));
#1377=DIRECTION('center_axis',(2.66096358898619E-17,-2.41905780817325E-18,
1.));
#1378=DIRECTION('ref_axis',(0.0871557427476584,0.996194698091746,9.06699826539704E-20));
#1379=DIRECTION('center_axis',(-2.66096358898619E-17,2.41905780817325E-18,
-1.));
#1380=DIRECTION('ref_axis',(-0.788957417422912,0.614447876954074,2.24802545446907E-17));
#1381=DIRECTION('center_axis',(-2.66096358898619E-17,2.41905780817325E-18,
-1.));
#1382=DIRECTION('ref_axis',(-0.985476888599828,0.169809605251299,2.66339604350014E-17));
#1383=DIRECTION('',(2.66096358898619E-17,-2.41905780817326E-18,1.));
#1384=DIRECTION('center_axis',(2.66096358898619E-17,-2.41905780817325E-18,
1.));
#1385=DIRECTION('ref_axis',(-0.788957417422912,0.614447876954074,2.24802545446907E-17));
#1386=DIRECTION('center_axis',(2.66096358898619E-17,-2.41905780817325E-18,
1.));
#1387=DIRECTION('ref_axis',(-0.996194698091746,0.0871557427476585,2.67192129716531E-17));
#1388=DIRECTION('center_axis',(-2.66096358898619E-17,2.41905780817325E-18,
-1.));
#1389=DIRECTION('ref_axis',(0.985476888599828,-0.169809605251299,-2.66339604350014E-17));
#1390=DIRECTION('center_axis',(2.66096358898619E-17,-2.41905780817325E-18,
1.));
#1391=DIRECTION('ref_axis',(-0.342020143325649,0.939692620785916,1.13742022524889E-17));
#1392=DIRECTION('center_axis',(2.66096358898619E-17,-2.41905780817325E-18,
1.));
#1393=DIRECTION('ref_axis',(0.0871557427476584,0.996194698091746,9.06699826539704E-20));
#1394=DIRECTION('',(-3.04627196718654E-14,-8.29255935816114E-14,-1.));
#1395=DIRECTION('center_axis',(2.66096358898619E-17,-2.41905780817325E-18,
1.));
#1396=DIRECTION('ref_axis',(0.639797876254131,-0.768543217744262,-1.88839390020322E-17));
#1397=DIRECTION('',(2.66096358898619E-17,-2.41905780817326E-18,1.));
#1398=DIRECTION('center_axis',(-2.66096358898619E-17,2.41905780817325E-18,
-1.));
#1399=DIRECTION('ref_axis',(0.985476888599828,-0.169809605251299,-2.66339604350014E-17));
#1400=DIRECTION('center_axis',(-2.66096358898619E-17,2.41905780817325E-18,
-1.));
#1401=DIRECTION('ref_axis',(-0.879533941100871,0.47583615504874,2.45551530917512E-17));
#1402=DIRECTION('center_axis',(-2.66096358898619E-17,2.41905780817325E-18,
-1.));
#1403=DIRECTION('ref_axis',(-0.879533941100871,0.47583615504874,2.45551530917512E-17));
#1404=DIRECTION('center_axis',(-2.66096358898619E-17,2.41905780817325E-18,
-1.));
#1405=DIRECTION('ref_axis',(-0.984807753012208,0.17364817766693,2.66254407092282E-17));
#1406=DIRECTION('',(0.866025403784389,-0.500000000000086,-2.42541495701601E-17));
#1407=DIRECTION('center_axis',(-2.66096358898619E-17,2.41905780817325E-18,
-1.));
#1408=DIRECTION('ref_axis',(-0.984807753012208,0.17364817766693,2.66254407092282E-17));
#1409=DIRECTION('',(-0.866025403784389,0.500000000000086,2.42541495701601E-17));
#1410=DIRECTION('center_axis',(-0.500000000000086,-0.866025403784389,0.));
#1411=DIRECTION('ref_axis',(0.,0.,1.));
#1412=DIRECTION('center_axis',(2.66096358898619E-17,-2.41905780817325E-18,
1.));
#1413=DIRECTION('ref_axis',(-0.173648177666931,-0.984807753012208,2.23840789618134E-18));
#1414=DIRECTION('',(-0.866025403784389,0.500000000000086,2.42541495701601E-17));
#1415=DIRECTION('center_axis',(2.66096358898619E-17,-2.41905780817325E-18,
1.));
#1416=DIRECTION('ref_axis',(-0.788957417422912,0.614447876954074,2.24802545446907E-17));
#1417=DIRECTION('center_axis',(2.66096358898619E-17,-2.41905780817325E-18,
1.));
#1418=DIRECTION('ref_axis',(0.788957417422912,-0.614447876954074,-2.24802545446907E-17));
#1419=DIRECTION('',(0.939692620785915,0.342020143325649,-2.41775119892389E-17));
#1420=DIRECTION('center_axis',(2.66096358898619E-17,-2.41905780817325E-18,
1.));
#1421=DIRECTION('ref_axis',(-0.342020143325689,0.939692620785901,1.13742022524899E-17));
#1422=DIRECTION('center_axis',(2.66096358898619E-17,-2.41905780817325E-18,
1.));
#1423=DIRECTION('ref_axis',(0.639797876254131,-0.768543217744262,-1.88839390020322E-17));
#1424=DIRECTION('center_axis',(-2.66096358898619E-17,2.41905780817325E-18,
-1.));
#1425=DIRECTION('ref_axis',(-0.879533941100871,0.47583615504874,2.45551530917512E-17));
#1426=DIRECTION('',(-2.66096358898619E-17,2.41905780817326E-18,-1.));
#1427=DIRECTION('center_axis',(-2.66096358898619E-17,2.41905780817325E-18,
-1.));
#1428=DIRECTION('ref_axis',(-0.879533941100871,0.47583615504874,2.45551530917512E-17));
#1429=DIRECTION('',(2.79323852045211E-14,5.46168754519591E-14,-1.));
#1430=DIRECTION('center_axis',(2.66096358898619E-17,-2.41905780817325E-18,
1.));
#1431=DIRECTION('ref_axis',(0.0871557427476584,0.996194698091746,9.06699826539704E-20));
#1432=DIRECTION('center_axis',(2.66096358898619E-17,-2.41905780817325E-18,
1.));
#1433=DIRECTION('ref_axis',(0.879533941100871,-0.47583615504874,-2.45551530917513E-17));
#1434=DIRECTION('',(2.66096358898619E-17,-2.41905780817326E-18,1.));
#1435=DIRECTION('center_axis',(-2.66096358898619E-17,2.41905780817325E-18,
-1.));
#1436=DIRECTION('ref_axis',(0.985476888599828,-0.169809605251299,-2.66339604350014E-17));
#1437=DIRECTION('',(2.66096358898619E-17,-2.41905780817326E-18,1.));
#1438=DIRECTION('center_axis',(2.66096358898619E-17,-2.41905780817325E-18,
1.));
#1439=DIRECTION('ref_axis',(0.0871557427476584,0.996194698091746,9.06699826539704E-20));
#1440=DIRECTION('',(2.66096358898619E-17,-2.41905780817326E-18,1.));
#1441=DIRECTION('',(2.66096358898619E-17,-2.41905780817326E-18,1.));
#1442=DIRECTION('center_axis',(-2.66096358898619E-17,2.41905780817325E-18,
-1.));
#1443=DIRECTION('ref_axis',(-0.985476888599828,0.169809605251299,2.66339604350014E-17));
#1444=DIRECTION('',(2.66096358898619E-17,-2.41905780817326E-18,1.));
#1445=DIRECTION('center_axis',(2.66096358898619E-17,-2.41905780817325E-18,
1.));
#1446=DIRECTION('ref_axis',(-0.639797876254131,0.768543217744262,1.88839390020322E-17));
#1447=DIRECTION('center_axis',(2.66096358898619E-17,-2.41905780817325E-18,
1.));
#1448=DIRECTION('ref_axis',(0.788957417422912,-0.614447876954074,-2.24802545446907E-17));
#1449=DIRECTION('',(2.66096358898619E-17,-2.41905780817326E-18,1.));
#1450=DIRECTION('center_axis',(-2.66096358898619E-17,2.41905780817325E-18,
-1.));
#1451=DIRECTION('ref_axis',(-0.342020143325689,0.939692620785901,1.13742022524899E-17));
#1452=DIRECTION('center_axis',(0.342020143325649,-0.939692620785916,-1.13742022524889E-17));
#1453=DIRECTION('ref_axis',(0.939692620785916,0.342020143325649,-2.41775119892389E-17));
#1454=DIRECTION('',(0.939692620785915,0.342020143325649,-2.41775119892389E-17));
#1455=DIRECTION('center_axis',(-2.66096358898619E-17,2.41905780817325E-18,
-1.));
#1456=DIRECTION('ref_axis',(-0.0871557427476584,-0.996194698091746,-9.06699826539697E-20));
#1457=DIRECTION('center_axis',(-2.66096358898619E-17,2.41905780817325E-18,
-1.));
#1458=DIRECTION('ref_axis',(-0.0871557427476584,-0.996194698091746,-9.06699826539697E-20));
#1459=DIRECTION('',(-2.66096358898619E-17,2.41905780817325E-18,-1.));
#1460=DIRECTION('center_axis',(-2.66096358898619E-17,2.41905780817325E-18,
-1.));
#1461=DIRECTION('ref_axis',(-0.0871557427476584,-0.996194698091746,-9.06699826539697E-20));
#1462=DIRECTION('center_axis',(2.66096358898619E-17,-2.41905780817325E-18,
1.));
#1463=DIRECTION('ref_axis',(-0.996194698091746,0.0871557427476585,2.67192129716531E-17));
#1464=DIRECTION('center_axis',(2.66096358898619E-17,-2.41905780817325E-18,
1.));
#1465=DIRECTION('ref_axis',(0.639797876254131,-0.768543217744262,-1.88839390020322E-17));
#1466=DIRECTION('center_axis',(2.66096358898619E-17,-2.41905780817325E-18,
1.));
#1467=DIRECTION('ref_axis',(0.0871557427476584,0.996194698091746,9.06699826539697E-20));
#1468=DIRECTION('center_axis',(-2.66096358898619E-17,2.41905780817325E-18,
-1.));
#1469=DIRECTION('ref_axis',(-0.985476888599828,0.169809605251299,2.66339604350014E-17));
#1470=DIRECTION('center_axis',(2.66096358898619E-17,-2.41905780817325E-18,
1.));
#1471=DIRECTION('ref_axis',(0.173648177666931,0.984807753012208,-2.23840789618134E-18));
#1472=DIRECTION('',(0.866025403784389,-0.500000000000086,-2.42541495701601E-17));
#1473=DIRECTION('center_axis',(-0.500000000000086,-0.866025403784389,0.));
#1474=DIRECTION('ref_axis',(0.,0.,1.));
#1475=DIRECTION('center_axis',(0.,0.,-1.));
#1476=DIRECTION('ref_axis',(-1.,0.,0.));
#1477=DIRECTION('',(0.,0.,1.));
#1478=DIRECTION('center_axis',(0.,0.,-1.));
#1479=DIRECTION('ref_axis',(-1.,0.,0.));
#1480=DIRECTION('',(0.,0.,1.));
#1481=DIRECTION('center_axis',(0.,0.,1.));
#1482=DIRECTION('ref_axis',(-1.,0.,0.));
#1483=DIRECTION('center_axis',(0.,0.,-1.));
#1484=DIRECTION('ref_axis',(-1.,0.,0.));
#1485=DIRECTION('center_axis',(0.,0.,-1.));
#1486=DIRECTION('ref_axis',(-1.,0.,0.));
#1487=DIRECTION('',(0.,0.,1.));
#1488=DIRECTION('center_axis',(0.,0.,1.));
#1489=DIRECTION('ref_axis',(-1.,0.,0.));
#1490=DIRECTION('',(0.,0.,1.));
#1491=DIRECTION('center_axis',(0.,0.,1.));
#1492=DIRECTION('ref_axis',(0.,1.,0.));
#1493=DIRECTION('',(0.0183980113794447,0.99983074226455,0.));
#1494=DIRECTION('center_axis',(0.,0.,-1.));
#1495=DIRECTION('ref_axis',(-0.927024810886964,-0.374999999999985,0.));
#1496=DIRECTION('center_axis',(0.,0.,-1.));
#1497=DIRECTION('ref_axis',(0.927024810886964,0.374999999999985,0.));
#1498=DIRECTION('center_axis',(0.,0.,-1.));
#1499=DIRECTION('ref_axis',(0.979795897113272,0.199999999999994,0.));
#1500=DIRECTION('',(-0.00532051867798434,0.99998584594033,0.));
#1501=DIRECTION('center_axis',(0.,0.,-1.));
#1502=DIRECTION('ref_axis',(0.,-1.,0.));
#1503=DIRECTION('center_axis',(0.,0.,1.));
#1504=DIRECTION('ref_axis',(0.,-1.,0.));
#1505=DIRECTION('',(0.00532051867798434,-0.99998584594033,0.));
#1506=DIRECTION('center_axis',(0.,0.,1.));
#1507=DIRECTION('ref_axis',(0.999905217493682,0.0137679348092997,0.));
#1508=DIRECTION('center_axis',(0.,0.,-1.));
#1509=DIRECTION('ref_axis',(-0.999905217493681,-0.0137679348093297,0.));
#1510=DIRECTION('',(0.559192903470734,0.82903757255505,0.));
#1511=DIRECTION('center_axis',(0.,0.,-1.));
#1512=DIRECTION('ref_axis',(-0.82903757255505,0.559192903470734,0.));
#1513=DIRECTION('',(0.422618261740681,-0.906307787036659,0.));
#1514=DIRECTION('center_axis',(0.,0.,-1.));
#1515=DIRECTION('ref_axis',(0.906307787036659,0.422618261740681,0.));
#1516=DIRECTION('center_axis',(0.,0.,1.));
#1517=DIRECTION('ref_axis',(-0.927024810886964,0.374999999999985,0.));
#1518=DIRECTION('',(0.0183980113794447,0.99983074226455,0.));
#1519=DIRECTION('center_axis',(0.,0.,-1.));
#1520=DIRECTION('ref_axis',(-1.,0.,0.));
#1521=DIRECTION('',(0.0183980113794447,0.99983074226455,0.));
#1522=DIRECTION('center_axis',(0.,0.,-1.));
#1523=DIRECTION('ref_axis',(-0.999189782316989,0.0402464770300296,0.));
#1524=DIRECTION('center_axis',(0.,0.,1.));
#1525=DIRECTION('ref_axis',(0.999189782316989,-0.0402464770300296,0.));
#1526=DIRECTION('',(0.422618261740681,-0.906307787036659,0.));
#1527=DIRECTION('center_axis',(0.,0.,1.));
#1528=DIRECTION('ref_axis',(0.906307787036659,0.422618261740681,0.));
#1529=DIRECTION('',(0.559192903470734,0.82903757255505,0.));
#1530=DIRECTION('center_axis',(0.,0.,1.));
#1531=DIRECTION('ref_axis',(-0.82903757255505,0.559192903470734,0.));
#1532=DIRECTION('center_axis',(0.,0.,-1.));
#1533=DIRECTION('ref_axis',(0.979795897113272,0.199999999999994,0.));
#1534=DIRECTION('',(-0.00532051867798434,0.99998584594033,0.));
#1535=DIRECTION('center_axis',(0.,0.,1.));
#1536=DIRECTION('ref_axis',(0.0913917221928412,-0.995815019526532,0.));
#1537=DIRECTION('center_axis',(0.,0.,-1.));
#1538=DIRECTION('ref_axis',(0.927024810886964,0.374999999999985,0.));
#1539=DIRECTION('',(0.,0.,1.));
#1540=DIRECTION('center_axis',(0.,0.,1.));
#1541=DIRECTION('ref_axis',(-0.979795897113272,0.199999999999994,0.));
#1542=DIRECTION('',(0.,0.,1.));
#1543=DIRECTION('center_axis',(0.,0.,1.));
#1544=DIRECTION('ref_axis',(0.0913917221928412,-0.995815019526532,0.));
#1545=DIRECTION('center_axis',(0.,0.,1.));
#1546=DIRECTION('ref_axis',(-0.979795897113272,0.199999999999994,0.));
#1547=DIRECTION('',(0.,0.,1.));
#1548=DIRECTION('',(0.,0.,1.));
#1549=DIRECTION('center_axis',(0.,0.,-1.));
#1550=DIRECTION('ref_axis',(0.,1.,0.));
#1551=DIRECTION('center_axis',(0.,0.,-1.));
#1552=DIRECTION('ref_axis',(-0.927024810886964,-0.374999999999985,0.));
#1553=DIRECTION('center_axis',(0.,0.,-1.));
#1554=DIRECTION('ref_axis',(0.996541405889814,-0.0830976915873912,0.));
#1555=DIRECTION('center_axis',(0.,0.,1.));
#1556=DIRECTION('ref_axis',(-0.996541405889814,0.0830976915873912,0.));
#1557=DIRECTION('',(0.953979002880507,0.299873410063502,0.));
#1558=DIRECTION('center_axis',(0.,0.,1.));
#1559=DIRECTION('ref_axis',(0.299873410063502,-0.953979002880507,0.));
#1560=DIRECTION('center_axis',(0.,0.,-1.));
#1561=DIRECTION('ref_axis',(0.,-1.,0.));
#1562=DIRECTION('center_axis',(0.,0.,-1.));
#1563=DIRECTION('ref_axis',(0.,-1.,0.));
#1564=DIRECTION('center_axis',(0.,0.,-1.));
#1565=DIRECTION('ref_axis',(0.,-1.,0.));
#1566=DIRECTION('',(0.,0.,-1.));
#1567=DIRECTION('center_axis',(0.,0.,-1.));
#1568=DIRECTION('ref_axis',(0.,-1.,0.));
#1569=DIRECTION('center_axis',(0.,0.,-1.));
#1570=DIRECTION('ref_axis',(0.,-1.,0.));
#1571=DIRECTION('',(0.,0.,-1.));
#1572=DIRECTION('center_axis',(0.,0.,1.));
#1573=DIRECTION('ref_axis',(0.,1.,0.));
#1574=DIRECTION('',(0.,0.,1.));
#1575=DIRECTION('center_axis',(0.,0.,-1.));
#1576=DIRECTION('ref_axis',(0.979795897113272,0.199999999999994,0.));
#1577=DIRECTION('',(0.,0.,1.));
#1578=DIRECTION('',(0.,0.,-1.));
#1579=DIRECTION('',(0.,0.,1.));
#1580=DIRECTION('center_axis',(0.,0.,1.));
#1581=DIRECTION('ref_axis',(0.979795897113272,-0.199999999999994,0.));
#1582=DIRECTION('center_axis',(0.,0.,1.));
#1583=DIRECTION('ref_axis',(-0.996541405889814,0.0830976915873912,0.));
#1584=DIRECTION('',(0.,0.,1.));
#1585=DIRECTION('center_axis',(0.,0.,-1.));
#1586=DIRECTION('ref_axis',(0.299873410063502,-0.953979002880507,0.));
#1587=DIRECTION('center_axis',(-0.299873410063502,0.953979002880507,0.));
#1588=DIRECTION('ref_axis',(0.953979002880507,0.299873410063502,0.));
#1589=DIRECTION('',(0.953979002880507,0.299873410063502,0.));
#1590=DIRECTION('',(0.,0.,-1.));
#1591=DIRECTION('center_axis',(0.,0.,-1.));
#1592=DIRECTION('ref_axis',(0.991771323890745,0.128022033681706,0.));
#1593=DIRECTION('center_axis',(0.,0.,-1.));
#1594=DIRECTION('ref_axis',(0.991771323890746,0.128022033681693,0.));
#1595=DIRECTION('',(0.,0.,-1.));
#1596=DIRECTION('center_axis',(0.,0.,1.));
#1597=DIRECTION('ref_axis',(0.,1.,0.));
#1598=DIRECTION('center_axis',(0.,0.,1.));
#1599=DIRECTION('ref_axis',(-0.991771323890746,-0.128022033681693,0.));
#1600=DIRECTION('',(0.,0.,1.));
#1601=DIRECTION('',(0.,0.,1.));
#1602=DIRECTION('',(0.,0.,1.));
#1603=DIRECTION('center_axis',(0.,0.,-1.));
#1604=DIRECTION('ref_axis',(-0.927024810886964,-0.374999999999985,0.));
#1605=DIRECTION('center_axis',(0.,0.,1.));
#1606=DIRECTION('ref_axis',(0.999189782316989,-0.0402464770300296,0.));
#1607=DIRECTION('',(0.,0.,1.));
#1608=DIRECTION('center_axis',(-0.906307787036659,-0.422618261740681,0.));
#1609=DIRECTION('ref_axis',(0.422618261740681,-0.906307787036659,0.));
#1610=DIRECTION('',(0.,0.,1.));
#1611=DIRECTION('center_axis',(0.,0.,1.));
#1612=DIRECTION('ref_axis',(0.906307787036641,0.422618261740719,0.));
#1613=DIRECTION('',(0.,0.,1.));
#1614=DIRECTION('center_axis',(0.82903757255505,-0.559192903470734,0.));
#1615=DIRECTION('ref_axis',(0.559192903470734,0.82903757255505,0.));
#1616=DIRECTION('',(0.,0.,-1.));
#1617=DIRECTION('center_axis',(0.,0.,-1.));
#1618=DIRECTION('ref_axis',(-0.999905217493681,-0.0137679348093297,0.));
#1619=DIRECTION('center_axis',(0.,0.,-1.));
#1620=DIRECTION('ref_axis',(0.,1.,0.));
#1621=DIRECTION('center_axis',(0.99983074226455,-0.0183980113794447,0.));
#1622=DIRECTION('ref_axis',(0.0183980113794447,0.99983074226455,0.));
#1623=DIRECTION('center_axis',(-0.99998584594033,-0.00532051867798434,0.));
#1624=DIRECTION('ref_axis',(0.00532051867798434,-0.99998584594033,0.));
#1625=DIRECTION('center_axis',(0.99983074226455,-0.0183980113794447,0.));
#1626=DIRECTION('ref_axis',(0.0183980113794447,0.99983074226455,0.));
#1627=DIRECTION('',(0.0183980113794447,0.99983074226455,0.));
#1628=DIRECTION('center_axis',(-0.99998584594033,-0.00532051867798434,0.));
#1629=DIRECTION('ref_axis',(0.00532051867798434,-0.99998584594033,0.));
#1630=DIRECTION('',(0.00532051867798434,-0.99998584594033,0.));
#1631=DIRECTION('center_axis',(0.,0.,-1.));
#1632=DIRECTION('ref_axis',(-1.,0.,0.));
#1633=DIRECTION('center_axis',(0.,0.,-1.));
#1634=DIRECTION('ref_axis',(-1.,0.,0.));
#1635=DIRECTION('center_axis',(0.,0.,1.));
#1636=DIRECTION('ref_axis',(-1.,0.,0.));
#1637=DIRECTION('center_axis',(0.,0.,-1.));
#1638=DIRECTION('ref_axis',(0.,-1.,0.));
#1639=DIRECTION('center_axis',(0.,0.,-1.));
#1640=DIRECTION('ref_axis',(0.,-1.,0.));
#1641=DIRECTION('center_axis',(0.,0.,-1.));
#1642=DIRECTION('ref_axis',(0.,-1.,0.));
#1643=DIRECTION('',(0.,0.,-1.));
#1644=DIRECTION('center_axis',(0.,0.,1.));
#1645=DIRECTION('ref_axis',(0.,1.,0.));
#1646=DIRECTION('center_axis',(0.,0.,-1.));
#1647=DIRECTION('ref_axis',(-1.,0.,0.));
#1648=DIRECTION('',(0.,0.,-1.));
#1649=DIRECTION('center_axis',(0.,0.,-1.));
#1650=DIRECTION('ref_axis',(-1.,0.,0.));
#1651=DIRECTION('center_axis',(-0.500000000000086,-0.866025403784389,0.));
#1652=DIRECTION('ref_axis',(0.,0.,1.));
#1653=DIRECTION('',(0.866025403784389,-0.500000000000086,-2.42541495701601E-17));
#1654=DIRECTION('',(2.04827968957191E-17,-1.18257483015026E-17,1.));
#1655=DIRECTION('',(0.866025403784389,-0.500000000000086,-2.42541495701601E-17));
#1656=DIRECTION('',(-2.08445805297687E-17,1.20346241800096E-17,-1.));
#1657=DIRECTION('center_axis',(-2.66096358898619E-17,2.41905780817325E-18,
-1.));
#1658=DIRECTION('ref_axis',(-0.984807753012208,0.17364817766693,2.66254407092282E-17));
#1659=DIRECTION('',(-0.545770262647555,-0.837934854514131,1.24957351160128E-17));
#1660=DIRECTION('center_axis',(2.66096358898619E-17,-2.41905780817325E-18,
1.));
#1661=DIRECTION('ref_axis',(-0.984807753012208,0.173648177666931,2.66254407092282E-17));
#1662=DIRECTION('',(-0.514214732848435,-0.857661476645426,1.16083341184509E-17));
#1663=DIRECTION('center_axis',(-2.66096358898619E-17,2.41905780817325E-18,
-1.));
#1664=DIRECTION('ref_axis',(-0.984807753012208,0.173648177666931,2.66254407092282E-17));
#1665=DIRECTION('',(2.66096358898619E-17,-2.41905780817326E-18,1.));
#1666=DIRECTION('center_axis',(-2.66096358898619E-17,2.41905780817325E-18,
-1.));
#1667=DIRECTION('ref_axis',(-0.984807753012208,0.173648177666931,2.66254407092282E-17));
#1668=DIRECTION('',(2.66096358898619E-17,-2.41905780817326E-18,1.));
#1669=DIRECTION('center_axis',(-2.66096358898619E-17,2.41905780817325E-18,
-1.));
#1670=DIRECTION('ref_axis',(-0.984807753012208,0.17364817766693,2.66254407092282E-17));
#1671=DIRECTION('',(-0.514214732848435,-0.857661476645426,1.16083341184509E-17));
#1672=DIRECTION('',(0.545770262647555,0.837934854514131,-1.24957351160128E-17));
#1673=DIRECTION('center_axis',(-0.857661476645426,0.514214732848435,2.40659747748708E-17));
#1674=DIRECTION('ref_axis',(-0.514214732848435,-0.857661476645426,1.16083341184509E-17));
#1675=DIRECTION('center_axis',(0.837934854514132,-0.545770262647555,-2.36173911933718E-17));
#1676=DIRECTION('ref_axis',(0.545770262647555,0.837934854514132,-1.24957351160128E-17));
#1677=DIRECTION('center_axis',(-0.500000000000086,-0.866025403784389,0.));
#1678=DIRECTION('ref_axis',(0.,0.,1.));
#1679=DIRECTION('',(-0.866025403784389,0.500000000000086,2.42541495701601E-17));
#1680=DIRECTION('',(-2.08445805297687E-17,1.20346241800096E-17,-1.));
#1681=DIRECTION('',(-0.866025403784389,0.500000000000086,2.42541495701601E-17));
#1682=DIRECTION('',(2.04827968957191E-17,-1.18257483015026E-17,1.));
#1683=DIRECTION('center_axis',(2.66096358898619E-17,-2.41905780817325E-18,
1.));
#1684=DIRECTION('ref_axis',(-0.173648177666931,-0.984807753012208,2.23840789618134E-18));
#1685=DIRECTION('',(-0.514214732848435,-0.857661476645426,1.16083341184509E-17));
#1686=DIRECTION('center_axis',(-2.66096358898619E-17,2.41905780817325E-18,
-1.));
#1687=DIRECTION('ref_axis',(-0.984807753012208,0.173648177666931,2.66254407092282E-17));
#1688=DIRECTION('',(0.545770262647555,0.837934854514131,-1.24957351160128E-17));
#1689=DIRECTION('center_axis',(-2.66096358898619E-17,2.41905780817325E-18,
-1.));
#1690=DIRECTION('ref_axis',(-0.984807753012208,0.173648177666931,2.66254407092282E-17));
#1691=DIRECTION('',(2.66096358898619E-17,-2.41905780817326E-18,1.));
#1692=DIRECTION('center_axis',(2.66096358898619E-17,-2.41905780817325E-18,
1.));
#1693=DIRECTION('ref_axis',(-0.984807753012208,0.173648177666931,2.66254407092282E-17));
#1694=DIRECTION('',(2.66096358898619E-17,-2.41905780817326E-18,1.));
#1695=DIRECTION('center_axis',(2.66096358898619E-17,-2.41905780817325E-18,
1.));
#1696=DIRECTION('ref_axis',(0.173648177666931,0.984807753012208,-2.23840789618134E-18));
#1697=DIRECTION('',(-0.545770262647555,-0.837934854514131,1.24957351160128E-17));
#1698=DIRECTION('',(-0.514214732848435,-0.857661476645426,1.16083341184509E-17));
#1699=DIRECTION('center_axis',(-0.857661476645426,0.514214732848435,2.40659747748708E-17));
#1700=DIRECTION('ref_axis',(-0.514214732848435,-0.857661476645426,1.16083341184509E-17));
#1701=DIRECTION('center_axis',(0.837934854514132,-0.545770262647555,-2.36173911933718E-17));
#1702=DIRECTION('ref_axis',(0.545770262647555,0.837934854514132,-1.24957351160128E-17));
#1703=CARTESIAN_POINT('',(0.,0.,0.));
#1704=CARTESIAN_POINT('Origin',(0.,30.,-10.5));
#1705=CARTESIAN_POINT('',(0.,32.5,-4.6));
#1706=CARTESIAN_POINT('Origin',(0.,30.,-4.6));
#1707=CARTESIAN_POINT('',(0.,32.5,-10.5));
#1708=CARTESIAN_POINT('',(3.06161699786838E-16,32.5,-10.5));
#1709=CARTESIAN_POINT('Origin',(0.,30.,-10.5));
#1710=CARTESIAN_POINT('Origin',(0.,0.,-10.5));
#1711=CARTESIAN_POINT('',(6.12323399573677E-16,25.,-10.5));
#1712=CARTESIAN_POINT('Origin',(-1.60982338570648E-14,30.,-10.5));
#1713=CARTESIAN_POINT('Origin',(0.,30.,10.5));
#1714=CARTESIAN_POINT('',(6.12323399573677E-16,25.,-4.6));
#1715=CARTESIAN_POINT('Origin',(-1.60982338570648E-14,30.,-4.6));
#1716=CARTESIAN_POINT('',(6.12323399573677E-16,25.,10.5));
#1717=CARTESIAN_POINT('Origin',(0.,0.,-4.6));
#1718=CARTESIAN_POINT('Origin',(25.0000000000012,73.3012701892254,10.5));
#1719=CARTESIAN_POINT('',(28.1989893812673,69.458554100504,5.10000000000001));
#1720=CARTESIAN_POINT('',(20.0726155570014,74.1503182154829,5.10000000000001));
#1721=CARTESIAN_POINT('Origin',(25.0000000000012,73.3012701892254,5.10000000000001));
#1722=CARTESIAN_POINT('',(20.0726155570014,74.1503182154829,10.5));
#1723=CARTESIAN_POINT('',(20.0726155570014,74.1503182154829,5.10000000000001));
#1724=CARTESIAN_POINT('',(28.1989893812673,69.458554100504,10.5));
#1725=CARTESIAN_POINT('Origin',(25.0000000000012,73.3012701892254,10.5));
#1726=CARTESIAN_POINT('',(28.1989893812673,69.458554100504,5.10000000000001));
#1727=CARTESIAN_POINT('Origin',(25.0000000000012,73.3012701892254,-10.5));
#1728=CARTESIAN_POINT('',(25.2178893568703,75.7917569344548,10.5));
#1729=CARTESIAN_POINT('Origin',(25.0000000000012,73.3012701892254,10.5));
#1730=CARTESIAN_POINT('',(25.2178893568703,75.7917569344548,5.10000000000002));
#1731=CARTESIAN_POINT('',(25.2178893568703,75.7917569344548,-10.5));
#1732=CARTESIAN_POINT('Origin',(25.0000000000012,73.3012701892254,5.10000000000001));
#1733=CARTESIAN_POINT('Origin',(22.1148682523569,64.6026173793997,-37.8756));
#1734=CARTESIAN_POINT('',(21.7728481090313,65.542310000189,4.60000000000001));
#1735=CARTESIAN_POINT('',(21.7728481090313,65.542310000189,5.10000000000001));
#1736=CARTESIAN_POINT('',(21.7728481090313,65.542310000189,4.60000000000001));
#1737=CARTESIAN_POINT('',(22.9038256697826,63.988169502449,5.10000000000001));
#1738=CARTESIAN_POINT('Origin',(22.1148682523569,64.6026173793997,5.10000000000001));
#1739=CARTESIAN_POINT('',(22.9038256697826,63.988169502449,4.60000000000001));
#1740=CARTESIAN_POINT('',(22.9038256697826,63.988169502449,4.60000000000001));
#1741=CARTESIAN_POINT('Origin',(22.1148682523569,64.6026173793997,4.60000000000001));
#1742=CARTESIAN_POINT('Origin',(16.4894873901007,63.6193239616091,-5.09999999999999));
#1743=CARTESIAN_POINT('',(16.8491547185633,63.7502321634049,5.10000000000001));
#1744=CARTESIAN_POINT('',(16.8491547185633,63.7502321634049,4.60000000000001));
#1745=CARTESIAN_POINT('',(16.8491547185633,63.7502321634049,5.10000000000001));
#1746=CARTESIAN_POINT('',(16.8491547185633,63.7502321634049,5.10000000000001));
#1747=CARTESIAN_POINT('',(16.8491547185633,63.7502321634049,4.60000000000001));
#1748=CARTESIAN_POINT('Origin',(50.9118139882916,42.1752698705779,10.5));
#1749=CARTESIAN_POINT('Origin',(50.9118139882916,42.1752698705779,5.10000000000001));
#1750=CARTESIAN_POINT('',(15.9273844430039,48.2035108569993,10.5));
#1751=CARTESIAN_POINT('Origin',(50.9118139882916,42.1752698705779,10.5));
#1752=CARTESIAN_POINT('',(15.9273844430039,48.2035108569993,4.60000000000001));
#1753=CARTESIAN_POINT('',(15.9273844430039,48.2035108569993,4.60000000000001));
#1754=CARTESIAN_POINT('Origin',(50.9118139882916,42.1752698705779,4.60000000000001));
#1755=CARTESIAN_POINT('Origin',(8.38532771757068,19.166717940505,5.10000000000001));
#1756=CARTESIAN_POINT('',(16.3116409207888,63.2863756976729,5.10000000000001));
#1757=CARTESIAN_POINT('Origin',(-14.9118139882909,80.1785592018949,5.10000000000002));
#1758=CARTESIAN_POINT('Origin',(17.191174861888,62.8105395426158,5.10000000000001));
#1759=CARTESIAN_POINT('Origin',(-14.9118139882909,80.1785592018949,10.5));
#1760=CARTESIAN_POINT('',(16.3116409207888,63.2863756976729,4.60000000000001));
#1761=CARTESIAN_POINT('',(16.3116409207888,63.2863756976729,5.10000000000001));
#1762=CARTESIAN_POINT('',(7.80101061872686,52.8952749719822,4.60000000000001));
#1763=CARTESIAN_POINT('Origin',(-14.9118139882909,80.1785592018949,4.60000000000001));
#1764=CARTESIAN_POINT('',(7.80101061872686,52.8952749719822,10.5));
#1765=CARTESIAN_POINT('',(7.80101061872686,52.8952749719822,4.60000000000001));
#1766=CARTESIAN_POINT('Origin',(-14.9118139882909,80.1785592018949,10.5));
#1767=CARTESIAN_POINT('Origin',(17.191174861888,62.8105395426158,37.8756));
#1768=CARTESIAN_POINT('Origin',(17.191174861888,62.8105395426158,4.60000000000001));
#1769=CARTESIAN_POINT('Origin',(13.7499999999968,53.8156986040709,4.60000000000001));
#1770=CARTESIAN_POINT('',(11.3630137257407,50.838751519293,4.60000000000001));
#1771=CARTESIAN_POINT('Origin',(13.7499999999968,53.8156986040709,10.5));
#1772=CARTESIAN_POINT('',(11.3630137257407,50.838751519293,10.5));
#1773=CARTESIAN_POINT('Origin',(10.8618299206188,51.1281101240937,1.22124532708767E-14));
#1774=CARTESIAN_POINT('Origin',(-2.70944533000749,4.7858944285557,-4.59999999999999));
#1775=CARTESIAN_POINT('',(15.9273844430039,48.2035108569993,-4.59999999999999));
#1776=CARTESIAN_POINT('',(7.80101061872686,52.8952749719822,-4.59999999999999));
#1777=CARTESIAN_POINT('',(15.8059857166341,48.2736004443481,-4.59999999999999));
#1778=CARTESIAN_POINT('',(22.9038256697826,63.988169502449,-4.59999999999999));
#1779=CARTESIAN_POINT('Origin',(50.9118139882916,42.1752698705779,-4.59999999999999));
#1780=CARTESIAN_POINT('',(21.7728481090313,65.542310000189,-4.59999999999999));
#1781=CARTESIAN_POINT('Origin',(22.1148682523569,64.6026173793997,-4.59999999999999));
#1782=CARTESIAN_POINT('',(16.8491547185633,63.7502321634049,-4.59999999999999));
#1783=CARTESIAN_POINT('',(16.8491547185633,63.7502321634049,-4.59999999999999));
#1784=CARTESIAN_POINT('',(16.3116409207888,63.2863756976729,-4.59999999999999));
#1785=CARTESIAN_POINT('Origin',(17.191174861888,62.8105395426158,-4.59999999999999));
#1786=CARTESIAN_POINT('Origin',(-14.9118139882909,80.1785592018949,-4.59999999999999));
#1787=CARTESIAN_POINT('Origin',(17.191174861888,62.8105395426158,37.8756));
#1788=CARTESIAN_POINT('',(16.8491547185633,63.7502321634049,-5.09999999999999));
#1789=CARTESIAN_POINT('',(16.8491547185633,63.7502321634049,-4.59999999999999));
#1790=CARTESIAN_POINT('',(16.3116409207888,63.2863756976729,-5.09999999999999));
#1791=CARTESIAN_POINT('Origin',(17.191174861888,62.8105395426158,-5.09999999999999));
#1792=CARTESIAN_POINT('',(16.3116409207888,63.2863756976729,-4.59999999999999));
#1793=CARTESIAN_POINT('Origin',(-14.9118139882909,80.1785592018949,10.5));
#1794=CARTESIAN_POINT('',(20.0726155570014,74.1503182154829,-5.09999999999999));
#1795=CARTESIAN_POINT('Origin',(-14.9118139882909,80.1785592018949,-5.09999999999999));
#1796=CARTESIAN_POINT('',(20.0726155570014,74.1503182154829,-10.5));
#1797=CARTESIAN_POINT('',(20.0726155570014,74.1503182154829,-10.5));
#1798=CARTESIAN_POINT('',(7.80101061872686,52.8952749719822,-10.5));
#1799=CARTESIAN_POINT('Origin',(-14.9118139882909,80.1785592018949,-10.5));
#1800=CARTESIAN_POINT('',(7.80101061872686,52.8952749719822,-10.5));
#1801=CARTESIAN_POINT('Origin',(50.9118139882916,42.1752698705779,10.5));
#1802=CARTESIAN_POINT('',(22.9038256697826,63.988169502449,-5.09999999999999));
#1803=CARTESIAN_POINT('',(22.9038256697826,63.988169502449,-5.09999999999999));
#1804=CARTESIAN_POINT('',(15.9273844430039,48.2035108569993,-10.5));
#1805=CARTESIAN_POINT('',(15.9273844430039,48.2035108569993,-10.5));
#1806=CARTESIAN_POINT('',(28.1989893812673,69.458554100504,-10.5));
#1807=CARTESIAN_POINT('Origin',(50.9118139882916,42.1752698705779,-10.5));
#1808=CARTESIAN_POINT('',(28.1989893812673,69.458554100504,-5.09999999999999));
#1809=CARTESIAN_POINT('',(28.1989893812673,69.458554100504,-10.5));
#1810=CARTESIAN_POINT('Origin',(50.9118139882916,42.1752698705779,-5.09999999999999));
#1811=CARTESIAN_POINT('Origin',(22.1148682523569,64.6026173793997,-37.8756));
#1812=CARTESIAN_POINT('',(21.7728481090313,65.542310000189,-5.09999999999999));
#1813=CARTESIAN_POINT('',(21.7728481090313,65.542310000189,-5.09999999999999));
#1814=CARTESIAN_POINT('Origin',(22.1148682523569,64.6026173793997,-5.09999999999999));
#1815=CARTESIAN_POINT('Origin',(16.4894873901007,63.6193239616091,-5.09999999999999));
#1816=CARTESIAN_POINT('',(16.8491547185633,63.7502321634049,-5.09999999999999));
#1817=CARTESIAN_POINT('Origin',(25.0000000000012,73.3012701892254,-10.5));
#1818=CARTESIAN_POINT('',(25.2178893568703,75.7917569344548,-5.09999999999999));
#1819=CARTESIAN_POINT('Origin',(25.0000000000012,73.3012701892254,-5.09999999999999));
#1820=CARTESIAN_POINT('',(25.2178893568703,75.7917569344548,-10.5));
#1821=CARTESIAN_POINT('',(25.2178893568703,75.7917569344548,-10.5));
#1822=CARTESIAN_POINT('Origin',(25.0000000000012,73.3012701892254,-10.5));
#1823=CARTESIAN_POINT('Origin',(8.38532771757068,19.166717940505,-5.09999999999999));
#1824=CARTESIAN_POINT('Origin',(25.0000000000012,73.3012701892254,-5.09999999999999));
#1825=CARTESIAN_POINT('Origin',(25.0000000000012,73.3012701892254,10.5));
#1826=CARTESIAN_POINT('Origin',(25.0000000000012,73.3012701892254,-10.5));
#1827=CARTESIAN_POINT('Origin',(-2.70944533000749,4.7858944285557,-10.5));
#1828=CARTESIAN_POINT('',(15.8059857166341,48.2736004443481,-10.5));
#1829=CARTESIAN_POINT('Origin',(10.8618299206188,51.1281101240937,1.22124532708767E-14));
#1830=CARTESIAN_POINT('Origin',(-1.60982338570648E-14,30.,-10.5));
#1831=CARTESIAN_POINT('',(-4.99992920174877,29.9733921520414,-10.5));
#1832=CARTESIAN_POINT('',(-4.99992920174877,29.9733921520414,-4.6));
#1833=CARTESIAN_POINT('',(-4.9999292297062,29.9733974066101,10.5));
#1834=CARTESIAN_POINT('',(4.9991537113273,29.9080099431027,-4.6));
#1835=CARTESIAN_POINT('Origin',(-1.60982338570648E-14,30.,-4.6));
#1836=CARTESIAN_POINT('',(4.9991537113273,29.9080099431027,-10.5));
#1837=CARTESIAN_POINT('',(4.9991537113273,29.9080099431027,10.5));
#1838=CARTESIAN_POINT('Origin',(-1.60982338570648E-14,30.,-10.5));
#1839=CARTESIAN_POINT('Origin',(-1.60982338570648E-14,30.,-10.5));
#1840=CARTESIAN_POINT('',(4.9991537113273,29.9080099431027,10.5));
#1841=CARTESIAN_POINT('',(-4.99992920174877,29.9733921520414,10.5));
#1842=CARTESIAN_POINT('Origin',(-1.60982338570648E-14,30.,10.5));
#1843=CARTESIAN_POINT('',(4.9991537113273,29.9080099431027,4.6));
#1844=CARTESIAN_POINT('',(4.9991537113273,29.9080099431027,10.5));
#1845=CARTESIAN_POINT('',(-4.99992920174877,29.9733921520414,4.6));
#1846=CARTESIAN_POINT('Origin',(-1.60982338570648E-14,30.,4.6));
#1847=CARTESIAN_POINT('',(-4.9999292297062,29.9733974066101,10.5));
#1848=CARTESIAN_POINT('Origin',(0.,0.,-10.5));
#1849=CARTESIAN_POINT('',(4.63512405443904,10.1249999999984,-10.5));
#1850=CARTESIAN_POINT('',(4.63512405443904,10.1249999999984,-10.5));
#1851=CARTESIAN_POINT('',(4.635124054435,-16.125,-10.5));
#1852=CARTESIAN_POINT('Origin',(37.08099243548,-3.,-10.5));
#1853=CARTESIAN_POINT('',(-4.898979485566,-17.,-10.5));
#1854=CARTESIAN_POINT('Origin',(0.,-18.,-10.5));
#1855=CARTESIAN_POINT('',(-4.8989794855708,10.999999999999,-10.5));
#1856=CARTESIAN_POINT('Origin',(-73.4846922835,-3.,-10.5));
#1857=CARTESIAN_POINT('',(-4.8989794855708,10.999999999999,-10.5));
#1858=CARTESIAN_POINT('',(0.,-15.5,-10.5));
#1859=CARTESIAN_POINT('Origin',(0.,-18.,-10.5));
#1860=CARTESIAN_POINT('Origin',(0.,0.,-4.6));
#1861=CARTESIAN_POINT('',(-4.8989794855708,10.999999999999,-4.6));
#1862=CARTESIAN_POINT('',(-4.8989794855708,10.999999999999,-4.6));
#1863=CARTESIAN_POINT('',(-3.491327058938,-2.03624456335,-4.6));
#1864=CARTESIAN_POINT('Origin',(-73.4846922835,-3.,-4.6));
#1865=CARTESIAN_POINT('',(-3.320459413999,-1.46328372507,-4.6));
#1866=CARTESIAN_POINT('Origin',(-2.491421841444,-2.02247662854,-4.6));
#1867=CARTESIAN_POINT('',(-0.98837011081,1.99418085093,-4.6));
#1868=CARTESIAN_POINT('',(-3.320459413999,-1.46328372507,-4.6));
#1869=CARTESIAN_POINT('',(0.7469752487817,1.8576062092,-4.6));
#1870=CARTESIAN_POINT('Origin',(-0.159332538255,1.43498794745,-4.6));
#1871=CARTESIAN_POINT('',(1.923586063823,-0.665643826410001,-4.6));
#1872=CARTESIAN_POINT('',(0.7469752487817,1.8576062092,-4.6));
#1873=CARTESIAN_POINT('',(2.109350054384,-1.59137330395,-4.6));
#1874=CARTESIAN_POINT('Origin',(0.1109704897497,-1.51088034989,-4.6));
#1875=CARTESIAN_POINT('',(4.63512405443904,10.1249999999984,-4.6));
#1876=CARTESIAN_POINT('Origin',(37.08099243548,-3.,-4.6));
#1877=CARTESIAN_POINT('',(4.63512405443904,10.1249999999984,-4.6));
#1878=CARTESIAN_POINT('Origin',(7.69545322482412,51.1430839676814,4.6));
#1879=CARTESIAN_POINT('',(4.63512405443904,10.1249999999984,4.6));
#1880=CARTESIAN_POINT('',(4.63512405443904,10.1249999999984,4.6));
#1881=CARTESIAN_POINT('',(2.109350054384,-1.59137330395,4.6));
#1882=CARTESIAN_POINT('Origin',(37.08099243548,-3.,4.6));
#1883=CARTESIAN_POINT('',(1.923586063823,-0.665643826410001,4.6));
#1884=CARTESIAN_POINT('Origin',(0.1109704897497,-1.51088034989,4.6));
#1885=CARTESIAN_POINT('',(0.7469752487817,1.8576062092,4.6));
#1886=CARTESIAN_POINT('',(0.7469752487817,1.8576062092,4.6));
#1887=CARTESIAN_POINT('',(-0.98837011081,1.99418085093,4.6));
#1888=CARTESIAN_POINT('Origin',(-0.159332538255,1.43498794745,4.6));
#1889=CARTESIAN_POINT('',(-3.320459413999,-1.46328372507,4.6));
#1890=CARTESIAN_POINT('',(-3.320459413999,-1.46328372507,4.6));
#1891=CARTESIAN_POINT('',(-3.491327058938,-2.03624456335,4.6));
#1892=CARTESIAN_POINT('Origin',(-2.491421841444,-2.02247662854,4.6));
#1893=CARTESIAN_POINT('',(-4.8989794855708,10.999999999999,4.6));
#1894=CARTESIAN_POINT('Origin',(-73.4846922835,-3.,4.6));
#1895=CARTESIAN_POINT('',(-4.8989794855708,10.999999999999,4.6));
#1896=CARTESIAN_POINT('Origin',(0.,-18.,10.5));
#1897=CARTESIAN_POINT('',(4.635124054435,-16.125,5.6));
#1898=CARTESIAN_POINT('',(-4.898979485566,-17.,5.6));
#1899=CARTESIAN_POINT('Origin',(0.,-18.,5.6));
#1900=CARTESIAN_POINT('',(4.635124054435,-16.125,10.5));
#1901=CARTESIAN_POINT('',(4.635124054435,-16.125,5.6));
#1902=CARTESIAN_POINT('',(-4.898979485566,-17.,10.5));
#1903=CARTESIAN_POINT('Origin',(0.,-18.,10.5));
#1904=CARTESIAN_POINT('',(-4.898979485566,-17.,5.6));
#1905=CARTESIAN_POINT('Origin',(0.,-18.,10.5));
#1906=CARTESIAN_POINT('',(-4.898979485566,-17.,-5.6));
#1907=CARTESIAN_POINT('',(4.635124054435,-16.125,-5.6));
#1908=CARTESIAN_POINT('Origin',(0.,-18.,-5.6));
#1909=CARTESIAN_POINT('',(-4.898979485566,-17.,-10.5));
#1910=CARTESIAN_POINT('',(4.635124054435,-16.125,-10.5));
#1911=CARTESIAN_POINT('Origin',(0.,-18.,5.6));
#1912=CARTESIAN_POINT('',(2.368996099302,-7.48077117886,5.6));
#1913=CARTESIAN_POINT('Origin',(37.08099243548,-3.,5.6));
#1914=CARTESIAN_POINT('',(-3.726793871208,-8.816838411117,5.6));
#1915=CARTESIAN_POINT('Origin',(-73.4846922835,-3.,5.6));
#1916=CARTESIAN_POINT('',(-2.430379055255,-9.853915105585,5.6));
#1917=CARTESIAN_POINT('Origin',(-2.730252465319,-8.899936102705,5.6));
#1918=CARTESIAN_POINT('',(1.677098185475,-8.56277221542,5.6));
#1919=CARTESIAN_POINT('',(-2.430379055255,-9.853915105585,5.6));
#1920=CARTESIAN_POINT('Origin',(1.377224775411,-7.60879321254,5.6));
#1921=CARTESIAN_POINT('',(3.06161699786838E-16,-15.5,5.6));
#1922=CARTESIAN_POINT('Origin',(0.,-18.,5.6));
#1923=CARTESIAN_POINT('Origin',(0.,-18.,-10.5));
#1924=CARTESIAN_POINT('',(3.06161699786838E-16,-15.5,10.5));
#1925=CARTESIAN_POINT('Origin',(0.,-18.,10.5));
#1926=CARTESIAN_POINT('',(3.06161699786838E-16,-15.5,-10.5));
#1927=CARTESIAN_POINT('Origin',(0.,-18.,-10.5));
#1928=CARTESIAN_POINT('',(0.,-15.5,-5.6));
#1929=CARTESIAN_POINT('Origin',(0.,-18.,-5.6));
#1930=CARTESIAN_POINT('',(3.06161699786838E-16,-15.5,-10.5));
#1931=CARTESIAN_POINT('Origin',(-73.4846922835,-3.,10.5));
#1932=CARTESIAN_POINT('',(-3.726793871208,-8.816838411117,-5.6));
#1933=CARTESIAN_POINT('',(-3.726793871208,-8.816838411117,-5.6));
#1934=CARTESIAN_POINT('',(-4.8989794855708,10.999999999999,10.5));
#1935=CARTESIAN_POINT('Origin',(-73.4846922835,-3.,10.5));
#1936=CARTESIAN_POINT('',(-4.8989794855708,10.999999999999,4.6));
#1937=CARTESIAN_POINT('',(-3.491327058938,-2.03624456335,4.6));
#1938=CARTESIAN_POINT('',(-4.8989794855708,10.999999999999,-10.5));
#1939=CARTESIAN_POINT('Origin',(-73.4846922835,-3.,-5.6));
#1940=CARTESIAN_POINT('Origin',(-2.730252465319,-8.899936102705,-37.8756));
#1941=CARTESIAN_POINT('',(-2.430379055255,-9.853915105585,-5.6));
#1942=CARTESIAN_POINT('',(-2.430379055255,-9.853915105585,-5.6));
#1943=CARTESIAN_POINT('Origin',(-2.730252465319,-8.899936102705,-5.6));
#1944=CARTESIAN_POINT('Origin',(-5.,-10.661648811405,5.6));
#1945=CARTESIAN_POINT('',(1.677098185475,-8.56277221542,-5.6));
#1946=CARTESIAN_POINT('',(-2.430379055255,-9.853915105585,-5.6));
#1947=CARTESIAN_POINT('',(1.677098185475,-8.56277221542,5.6));
#1948=CARTESIAN_POINT('Origin',(1.377224775411,-7.60879321254,37.8756));
#1949=CARTESIAN_POINT('',(2.368996099302,-7.48077117886,-5.6));
#1950=CARTESIAN_POINT('Origin',(1.377224775411,-7.60879321254,-5.6));
#1951=CARTESIAN_POINT('',(2.368996099302,-7.48077117886,5.6));
#1952=CARTESIAN_POINT('Origin',(37.08099243548,-3.,10.5));
#1953=CARTESIAN_POINT('Origin',(37.08099243548,-3.,-5.6));
#1954=CARTESIAN_POINT('',(4.63512405443904,10.1249999999984,-10.5));
#1955=CARTESIAN_POINT('',(2.109350054384,-1.59137330395,-4.6));
#1956=CARTESIAN_POINT('',(4.63512405443904,10.1249999999984,10.5));
#1957=CARTESIAN_POINT('',(4.63512405443904,10.1249999999984,4.6));
#1958=CARTESIAN_POINT('Origin',(37.08099243548,-3.,10.5));
#1959=CARTESIAN_POINT('Origin',(0.1109704897497,-1.51088034989,-37.8756));
#1960=CARTESIAN_POINT('',(1.923586063823,-0.665643826410001,-4.6));
#1961=CARTESIAN_POINT('Origin',(0.,3.45949979966,-4.6));
#1962=CARTESIAN_POINT('',(0.7469752487817,1.8576062092,-4.6));
#1963=CARTESIAN_POINT('Origin',(-0.159332538255,1.43498794745,-37.8756));
#1964=CARTESIAN_POINT('',(-0.98837011081,1.99418085093,-4.6));
#1965=CARTESIAN_POINT('Origin',(-5.,-3.95330504291,-4.6));
#1966=CARTESIAN_POINT('',(-3.320459413999,-1.46328372507,4.6));
#1967=CARTESIAN_POINT('Origin',(-2.491421841444,-2.02247662854,37.8756));
#1968=CARTESIAN_POINT('Origin',(0.,-18.,-5.6));
#1969=CARTESIAN_POINT('Origin',(4.63512405443904,10.1249999999984,-10.5));
#1970=CARTESIAN_POINT('Origin',(-4.99992920174877,29.9733921520414,-10.5));
#1971=CARTESIAN_POINT('Origin',(4.63512405443904,10.1249999999984,4.6));
#1972=CARTESIAN_POINT('',(4.63512405443904,10.1249999999984,10.5));
#1973=CARTESIAN_POINT('Origin',(-4.99992920174877,29.9733921520414,4.6));
#1974=CARTESIAN_POINT('',(-4.8989794855708,10.999999999999,10.5));
#1975=CARTESIAN_POINT('Origin',(7.69545322482412,51.1430839676814,10.5));
#1976=CARTESIAN_POINT('Origin',(7.69545322482412,51.1430839676814,4.6));
#1977=CARTESIAN_POINT('',(6.12323399573677E-16,25.,4.6));
#1978=CARTESIAN_POINT('Origin',(-1.60982338570648E-14,30.,4.6));
#1979=CARTESIAN_POINT('',(3.06161699786838E-16,32.5,4.6));
#1980=CARTESIAN_POINT('Origin',(0.,30.,4.6));
#1981=CARTESIAN_POINT('Origin',(0.,30.,-10.5));
#1982=CARTESIAN_POINT('',(3.06161699786838E-16,32.5,10.5));
#1983=CARTESIAN_POINT('Origin',(0.,30.,10.5));
#1984=CARTESIAN_POINT('',(3.06161699786838E-16,32.5,-10.5));
#1985=CARTESIAN_POINT('Origin',(0.,30.,10.5));
#1986=CARTESIAN_POINT('',(6.12323399573677E-16,25.,10.5));
#1987=CARTESIAN_POINT('Origin',(0.,30.,10.5));
#1988=CARTESIAN_POINT('',(6.12323399573677E-16,25.,10.5));
#1989=CARTESIAN_POINT('Origin',(7.69545322482412,51.1430839676814,10.5));
#1990=CARTESIAN_POINT('Origin',(10.8618299206188,51.1281101240937,1.22124532708767E-14));
#1991=CARTESIAN_POINT('',(16.1601764366955,48.0691083367762,10.5));
#1992=CARTESIAN_POINT('',(7.87243401443099,52.854038655246,10.5));
#1993=CARTESIAN_POINT('',(11.3630137257407,50.838751519293,10.5));
#1994=CARTESIAN_POINT('',(16.1601764366955,48.0691083367762,4.60000000000001));
#1995=CARTESIAN_POINT('',(16.1601764366955,48.0691083367762,2.30000000000001));
#1996=CARTESIAN_POINT('',(7.87243401443099,52.854038655246,4.60000000000001));
#1997=CARTESIAN_POINT('',(11.3630137257407,50.838751519293,4.60000000000001));
#1998=CARTESIAN_POINT('',(7.87243401443099,52.854038655246,2.30000000000001));
#1999=CARTESIAN_POINT('Origin',(11.2499999999964,49.4855715851489,4.60000000000001));
#2000=CARTESIAN_POINT('',(4.9308826644682,30.8284902831611,4.60000000000001));
#2001=CARTESIAN_POINT('',(13.4273844430035,43.8733838380773,4.60000000000001));
#2002=CARTESIAN_POINT('',(-4.28830738323104,32.5710736642445,4.60000000000001));
#2003=CARTESIAN_POINT('Origin',(-1.83186799063151E-14,30.,4.60000000000001));
#2004=CARTESIAN_POINT('',(5.30101061872643,48.5651479530603,4.60000000000001));
#2005=CARTESIAN_POINT('Origin',(-1.83186799063151E-14,30.,-10.5));
#2006=CARTESIAN_POINT('',(4.9308826644682,30.8284902831611,10.5));
#2007=CARTESIAN_POINT('',(4.9308826644682,30.8284902831611,4.60000000000001));
#2008=CARTESIAN_POINT('',(-4.28830738323104,32.5710736642445,10.5));
#2009=CARTESIAN_POINT('Origin',(-1.83186799063151E-14,30.,10.5));
#2010=CARTESIAN_POINT('',(-4.28830738323104,32.5710736642445,4.60000000000001));
#2011=CARTESIAN_POINT('Origin',(11.2499999999964,49.4855715851489,10.5));
#2012=CARTESIAN_POINT('',(5.30101061872643,48.5651479530603,10.5));
#2013=CARTESIAN_POINT('',(13.4273844430035,43.8733838380773,10.5));
#2014=CARTESIAN_POINT('Origin',(5.30101061872643,48.5651479530603,4.60000000000001));
#2015=CARTESIAN_POINT('Origin',(4.9308826644682,30.8284902831611,4.60000000000001));
#2016=CARTESIAN_POINT('Origin',(10.8618299206188,51.1281101240937,1.22124532708767E-14));
#2017=CARTESIAN_POINT('',(7.87243401443099,52.854038655246,-10.5));
#2018=CARTESIAN_POINT('',(16.1601764366955,48.0691083367762,-10.5));
#2019=CARTESIAN_POINT('',(15.8059857166341,48.2736004443481,-10.5));
#2020=CARTESIAN_POINT('',(7.87243401443099,52.854038655246,-4.59999999999999));
#2021=CARTESIAN_POINT('',(7.87243401443099,52.854038655246,-5.24999999999999));
#2022=CARTESIAN_POINT('',(16.1601764366955,48.0691083367762,-4.59999999999999));
#2023=CARTESIAN_POINT('',(15.8059857166341,48.2736004443481,-4.59999999999999));
#2024=CARTESIAN_POINT('',(16.1601764366955,48.0691083367762,-5.24999999999999));
#2025=CARTESIAN_POINT('Origin',(-5.20944533000792,0.455767409633749,-4.59999999999999));
#2026=CARTESIAN_POINT('',(-4.28830738323104,32.5710736642445,-4.59999999999999));
#2027=CARTESIAN_POINT('',(5.30101061872643,48.5651479530603,-4.59999999999999));
#2028=CARTESIAN_POINT('',(4.9308826644682,30.8284902831611,-4.59999999999999));
#2029=CARTESIAN_POINT('Origin',(-1.83186799063151E-14,30.,-4.59999999999999));
#2030=CARTESIAN_POINT('',(13.4273844430035,43.8733838380773,-4.59999999999999));
#2031=CARTESIAN_POINT('Origin',(-1.83186799063151E-14,30.,-10.5));
#2032=CARTESIAN_POINT('',(-4.28830738323104,32.5710736642445,-10.5));
#2033=CARTESIAN_POINT('',(-4.28830738323104,32.5710736642445,10.5));
#2034=CARTESIAN_POINT('',(4.9308826644682,30.8284902831611,-10.5));
#2035=CARTESIAN_POINT('Origin',(-1.83186799063151E-14,30.,-10.5));
#2036=CARTESIAN_POINT('',(4.93088266446454,30.8284902831555,10.5));
#2037=CARTESIAN_POINT('Origin',(-5.20944533000792,0.455767409633749,-10.5));
#2038=CARTESIAN_POINT('',(13.4273844430035,43.8733838380773,-10.5));
#2039=CARTESIAN_POINT('',(5.30101061872643,48.5651479530603,-10.5));
#2040=CARTESIAN_POINT('Origin',(5.30101061872643,48.5651479530603,-10.5));
#2041=CARTESIAN_POINT('Origin',(4.9308826644682,30.8284902831611,-10.5));
#2042=UNCERTAINTY_MEASURE_WITH_UNIT(LENGTH_MEASURE(0.01),#2046,
'DISTANCE_ACCURACY_VALUE',
'Maximum model space distance between geometric entities at asserted c
onnectivities');
#2043=UNCERTAINTY_MEASURE_WITH_UNIT(LENGTH_MEASURE(0.01),#2046,
'DISTANCE_ACCURACY_VALUE',
'Maximum model space distance between geometric entities at asserted c
onnectivities');
#2044=(
GEOMETRIC_REPRESENTATION_CONTEXT(3)
GLOBAL_UNCERTAINTY_ASSIGNED_CONTEXT((#2042))
GLOBAL_UNIT_ASSIGNED_CONTEXT((#2046,#2048,#2049))
REPRESENTATION_CONTEXT('','3D')
);
#2045=(
GEOMETRIC_REPRESENTATION_CONTEXT(3)
GLOBAL_UNCERTAINTY_ASSIGNED_CONTEXT((#2043))
GLOBAL_UNIT_ASSIGNED_CONTEXT((#2046,#2048,#2049))
REPRESENTATION_CONTEXT('','3D')
);
#2046=(
LENGTH_UNIT()
NAMED_UNIT(*)
SI_UNIT(.MILLI.,.METRE.)
);
#2047=(
LENGTH_UNIT()
NAMED_UNIT(*)
SI_UNIT($,.METRE.)
);
#2048=(
NAMED_UNIT(*)
PLANE_ANGLE_UNIT()
SI_UNIT($,.RADIAN.)
);
#2049=(
NAMED_UNIT(*)
SI_UNIT($,.STERADIAN.)
SOLID_ANGLE_UNIT()
);
#2050=SHAPE_DEFINITION_REPRESENTATION(#2051,#2052);
#2051=PRODUCT_DEFINITION_SHAPE('',$,#2054);
#2052=SHAPE_REPRESENTATION('',(#1186),#2044);
#2053=PRODUCT_DEFINITION_CONTEXT('part definition',#2058,'design');
#2054=PRODUCT_DEFINITION('POLO-0X29_BIELLETTE1_350-400_CFG2',
'POLO-0X29_BIELLETTE1_350-400_CFG2 v7',#2055,#2053);
#2055=PRODUCT_DEFINITION_FORMATION('',$,#2060);
#2056=PRODUCT_RELATED_PRODUCT_CATEGORY(
'POLO-0X29_BIELLETTE1_350-400_CFG2 v7',
'POLO-0X29_BIELLETTE1_350-400_CFG2 v7',(#2060));
#2057=APPLICATION_PROTOCOL_DEFINITION('international standard',
'automotive_design',2009,#2058);
#2058=APPLICATION_CONTEXT(
'Core Data for Automotive Mechanical Design Process');
#2059=PRODUCT_CONTEXT('part definition',#2058,'mechanical');
#2060=PRODUCT('POLO-0X29_BIELLETTE1_350-400_CFG2',
'POLO-0X29_BIELLETTE1_350-400_CFG2 v7',$,(#2059));
#2061=PRESENTATION_STYLE_ASSIGNMENT((#2062));
#2062=SURFACE_STYLE_USAGE(.BOTH.,#2063);
#2063=SURFACE_SIDE_STYLE('',(#2064));
#2064=SURFACE_STYLE_FILL_AREA(#2065);
#2065=FILL_AREA_STYLE('Acier - Satin\X\E9',(#2066));
#2066=FILL_AREA_STYLE_COLOUR('Acier - Satin\X\E9',#2067);
#2067=COLOUR_RGB('Acier - Satin\X\E9',0.627450980392157,0.627450980392157,
0.627450980392157);
ENDSEC;
END-ISO-10303-21;
